<svg xmlns="http://www.w3.org/2000/svg" xmlns:xlink="http://www.w3.org/1999/xlink" width="372" height="178pt" viewBox="0 0 279 178"><defs><symbol id="a" overflow="visible"><path d="M6.016-2.406v-.578H.64v.578zm0 0" style="stroke:none"/></symbol><symbol id="b" overflow="visible"><path d="M6.063-4.656c-.688.015-1.391.047-2.094.047-.86 0-1.719-.032-2.563-.032-.656-.015-.781.766-.953 1.25v.079l.078.046.078-.046c.407-.626.641-.72 1.391-.72h.234C1.86-2.655 1.531-1.281.938.017l.078.109c.203-.063.546-.14.734-.25.375-1.281.625-2.61.875-3.906h2.281c-.547.86-.953 1.906-.953 2.953 0 .484.172 1.234.781 1.234.407 0 .922-.406 1.235-.672l.015-.046-.046-.094-.079-.016c-.171.11-.359.25-.609.25-.547 0-.61-.828-.61-1.234 0-.844.266-1.657.688-2.375l.61-.14c.03-.173.078-.329.125-.485zm0 0" style="stroke:none"/></symbol><symbol id="c" overflow="visible"><path d="M4.422-3.39c-.5.015-1.016.03-1.531.03-.625 0-1.25-.015-1.86-.03-.484 0-.578.562-.703.921v.047l.063.031.046-.015c.297-.469.485-.531 1.016-.531h.172c-.266 1-.5 2-.938 2.953l.047.078c.157-.047.407-.094.532-.188.28-.937.468-1.89.656-2.844h1.656c-.406.626-.687 1.391-.687 2.157 0 .36.125.89.562.89.297 0 .672-.296.906-.484v-.047l-.03-.062h-.063c-.11.078-.266.171-.438.171-.406 0-.437-.593-.437-.89 0-.625.187-1.219.484-1.734l.453-.094c.016-.125.063-.25.094-.36zm0 0" style="stroke:none"/></symbol><symbol id="d" overflow="visible"><path d="M3.406.016c-.015-.141-.015-.22-.015-.329 0-.093 0-.156.015-.312L.891-.562 2.203-1.97c.703-.734.922-1.14.922-1.687C3.125-4.484 2.562-5 1.641-5c-.516 0-.875.14-1.235.5l-.125.984H.5l.094-.328c.11-.422.375-.61.86-.61.624 0 1.03.407 1.03 1.016 0 .547-.312 1.079-1.14 1.954L.109-.172v.188C.656 0 1.203 0 1.734 0c.547 0 1.11 0 1.672.016m0 0" style="stroke:none"/></symbol><symbol id="e" overflow="visible"><path d="M4.64-3.656c0-2.172-.656-3.219-2.015-3.219-1.547 0-2.328 1.234-2.328 3.64 0 1.172.203 2.172.547 2.672.36.485.906.766 1.531.766 1.5 0 2.266-1.297 2.266-3.86zm-.843.5c0 2.125-.375 3-1.297 3-.969 0-1.375-1-1.375-3.438 0-2.094.375-2.922 1.313-2.922.968 0 1.359.97 1.359 3.36m0 0" style="stroke:none"/></symbol><symbol id="f" overflow="visible"><path d="M4.172.031v-.297l-.516-.03C3.094-.329 3-.439 3-.954v-5.922l-.14-.047c-.641.344-1.36.64-2.266.953l.078.438h.094c.437-.203.875-.407 1.312-.594.063 0 .078.094.078.328v4.844c0 .515-.11.625-.64.656l-.563.031V.03C1.5.016 2.047 0 2.61 0c.516 0 1.047.016 1.563.031zm0 0" style="stroke:none"/></symbol><symbol id="g" overflow="visible"><path d="M4.672.031C4.64-.172 4.64-.28 4.64-.422c0-.125 0-.219.03-.453l-3.452.11L3.03-2.688C4-3.72 4.297-4.266 4.297-5.017c0-1.14-.781-1.859-2.047-1.859-.719 0-1.203.203-1.688.703l-.171 1.36h.28l.141-.47c.157-.577.516-.812 1.188-.812.844 0 1.406.532 1.406 1.375 0 .75-.422 1.485-1.547 2.688L.156-.234V.03C.891.016 1.641 0 2.375 0c.766 0 1.531.016 2.297.031m0 0" style="stroke:none"/></symbol><symbol id="h" overflow="visible"><path d="M4.61-2.234c0-.485-.204-.891-.563-1.141-.25-.188-.484-.266-.969-.36.797-.609 1.094-1.078 1.094-1.656 0-.89-.75-1.484-1.844-1.484-.687 0-1.125.203-1.61.672L.423-4.97h.312l.188-.547c.11-.343.734-.687 1.25-.687.656 0 1.172.531 1.172 1.156 0 .75-.578 1.375-1.297 1.375-.078 0-.469-.031-.469-.031l-.11.531.063.063c.375-.172.578-.22.844-.22.828 0 1.297.532 1.297 1.438 0 1.016-.594 1.688-1.531 1.688-.454 0-.86-.156-1.157-.438C.735-.86.61-1.095.423-1.626l-.266.094C.36-.921.437-.563.5-.063c.531.188.969.266 1.328.266C3.047.203 4.61-.844 4.61-2.234m0 0" style="stroke:none"/></symbol><symbol id="i" overflow="visible"><path d="M4.703.031v-.297l-.469-.03c-.5-.032-.609-.157-.609-.766v-.735c.594 0 .797 0 1.078.031v-.703s-.484.031-.812.031h-.266v-1.39c0-1.781.031-2.625.078-3.047l-.125-.047-.734.266L.016-2.031l.109.234h2.672v.734c0 .61-.11.75-.61.766l-.609.031v.297C2.11.016 2.641 0 3.188 0c.5 0 1.015.016 1.515.031M2.797-2.438H.64l2.156-3.515zm0 0" style="stroke:none"/></symbol></defs><path d="m260 549.336 12.617 6.836 12.578 6.445 12.618 5.703 12.578 4.727 12.617 3.555 12.578 2.226 12.617.82 12.617-.664 12.578-2.03 12.618-3.282 12.578-4.414 12.617-5.313 12.578-5.976 12.617-6.328 12.578-6.368 12.618-6.132 12.578-5.625 12.617-4.805 12.617-3.828 12.617-2.617 12.578-1.328 12.578.078 12.618 1.406 12.578 2.734L575 529.063l12.617 4.882 12.578 5.664 12.617 6.172 12.579 6.367 12.617 6.329 12.578 5.898 12.617 5.273 12.617 4.336 12.578 3.203 12.618 1.915 12.578.507 12.617-.898 12.578-2.344 12.617-3.672 12.578-4.804 12.618-5.743 12.617-6.484 12.578-6.875 12.617-6.992 12.617-6.719 12.578-6.172 12.578-5.273 12.618-4.18 12.617-2.812L890 515.39l12.617.351 12.578 1.992 12.617 3.594 12.579 5.078 12.617 6.367 12.617 7.383 12.578 8.125 12.617 8.438 12.578 8.398 12.618 7.969 12.578 7.148 12.617 5.938 12.578 4.414 12.617 2.578 12.617.625 12.579-1.562 12.617-3.672 12.578-5.86 12.617-7.734 12.617-9.453 12.578-10.82 12.618-11.758 12.578-12.149 12.617-12.11L1205 507.228l12.617-10.196 12.578-8.437 12.618-6.055 12.617-3.281 12.578-.04 12.617 3.477 12.578 7.227 12.617 11.015 12.578 14.844 12.618 18.438 12.617 21.797 12.578 24.726 12.617 27.11 12.578 28.945 12.617 30 12.579 30.39 12.617 29.961 12.617 28.75 12.578 26.758 12.617 24.024 12.578 20.703 12.618 16.68 12.578 12.304 12.617 7.5 12.617 2.54 12.578-2.54 12.617-7.5 12.579-12.304 12.617-16.68 12.578-20.703 12.617-24.024 12.578-26.758 12.617-28.75 12.618-29.96 12.578-30.391 12.617-30 12.578-28.945 12.617-27.11 12.578-24.726 12.617-21.797 12.579-18.438 12.617-14.843 12.617-11.016 12.578-7.227 12.617-3.476 12.578.039 12.618 3.281 12.578 6.055 12.617 8.437 12.617 10.196 12.578 11.445 12.617 12.11 12.579 12.148 12.617 11.758 12.578 10.82 12.617 9.453 12.578 7.734 12.617 5.86 12.618 3.672 12.578 1.562 12.617-.625 12.578-2.578 12.617-4.414 12.578-5.938 12.617-7.148 12.579-7.969 12.617-8.398 12.617-8.438 12.578-8.125 12.617-7.383 12.578-6.367 12.618-5.078 12.578-3.594 12.617-1.992 12.617-.351 12.578 1.25 12.617 2.812 12.579 4.18 12.617 5.273 12.578 6.172 12.617 6.719 12.578 6.992 12.617 6.875 12.617 6.484 12.579 5.743 12.617 4.804 12.578 3.672 12.617 2.344 12.578.898 12.617-.507 12.618-1.914 12.578-3.204 12.617-4.336 12.578-5.273 12.617-5.898 12.578-6.329 12.618-6.367 12.578-6.172 12.617-5.664 12.617-4.883 12.578-3.906 12.617-2.734 12.579-1.406 12.617-.078 12.578 1.328 12.617 2.617 12.617 3.828 12.578 4.805 12.617 5.625 12.579 6.132 12.617 6.368 12.578 6.328 12.617 5.976 12.617 5.313 12.578 4.414 12.618 3.281 12.578 2.031 12.617.664 12.578-.82 12.617-2.226 12.617-3.555 12.579-4.727 12.617-5.703 12.578-6.445 12.617-6.836" style="fill:none;stroke-width:7.9701;stroke-linecap:butt;stroke-linejoin:miter;stroke:#7f7f7f;stroke-opacity:1;stroke-miterlimit:10" transform="matrix(.1 0 0 -.1 0 178)"/><path d="m260 559.531 2.813-5.625 2.773-5.742 2.812-5.703 2.813-5.39 2.773-4.962 2.813-4.414 2.812-3.633 2.774-2.773 2.812-1.836 2.813-.86 2.773.196 2.813 1.211 2.812 2.188 2.774 3.085 2.812 3.868 2.813 4.53 2.812 5.04 2.774 5.39 5.625 11.094 2.773 5.352 2.813 4.922 2.812 4.414 2.774 3.75 2.812 2.93 2.813 2.03 2.773 1.055 2.812.079 2.813-.938 2.773-1.875 2.813-2.812 2.812-3.594 2.774-4.258 2.812-4.805 2.813-5.195 2.812-5.39 2.774-5.43 2.812-5.274 2.813-4.96 2.812-4.454 2.774-3.828 2.812-3.047 2.774-2.226 2.812-1.29 2.813-.312 2.773.664 2.813 1.64 2.812 2.5 2.774 3.321 2.812 4.063 2.813 4.57 2.773 5.039 2.812 5.273 2.813 5.313 2.773 5.234 2.813 4.961 2.812 4.531 2.774 3.946 2.812 3.203 2.813 2.383 2.812 1.523 2.774.547 2.812-.43 2.774-1.367 2.812-2.265 2.813-3.086 2.812-3.829 2.774-4.414 2.812-4.843 2.813-5.157 2.773-5.273 2.813-5.234 2.812-5 2.774-4.57 2.812-4.063 2.813-3.36 2.773-2.578 2.812-1.718 2.813-.782 2.773.157 2.813 1.132 2.812 2.032 2.813 2.851 2.773 3.633 2.813 4.258 2.812 4.726 2.774 5.078 2.812 5.196 2.813 5.234 2.812 5.04 2.774 4.687 2.812 4.18 2.774 3.554 2.812 2.774 2.813 1.914 2.773 1.015 2.813.078 2.812-.898 2.774-1.797 2.812-2.656 2.813-3.438 2.812-4.101 2.773-4.61 2.813-5 2.812-5.195 2.774-5.273 2.812-5.079 2.774-4.804 2.812-4.336 2.813-3.711 2.812-2.969 2.774-2.148 2.812-1.25 2.774-.313 2.812.664 2.813 1.563 2.812 2.46 2.774 3.282 2.812 3.945 2.813 4.532 2.773 4.96 2.813 5.157 2.812 5.312 2.813 5.156 2.773 4.922 2.813 4.492 2.812 3.907 2.773 3.203 2.813 2.383 2.773 1.523 2.813.547 2.812-.43 2.813-1.367 2.773-2.265 2.813-3.125 2.812-3.829 2.774-4.414 2.812-4.922 2.813-5.234 2.812-5.312 2.774-5.274 2.812-5.078 2.774-4.648 2.812-4.141 2.813-3.438 2.773-2.656 2.813-1.719 2.812-.82 2.774.156 2.812 1.172 2.813 2.07 2.812 2.97 2.773 3.71 2.813 4.375 2.812 4.883 2.774 5.274 2.812 5.39 2.774 5.43 2.812 5.195 2.813 4.883 2.812 4.375 2.774 3.672 2.812 2.93 2.774 2.03 2.812 1.055 2.813.079 2.812-.938 2.774-1.875 2.812-2.812 2.813-3.633 2.773-4.297 2.813-4.883 2.812-5.312 2.813-5.508 2.773-5.586 2.813-5.43 2.812-5.078 2.773-4.648 2.813-3.946 2.773-3.203 2.813-2.344 2.812-1.328 2.813-.351 2.773.703 2.813 1.719 2.812 2.656 2.774 3.515 2.812 4.297 2.813 4.883 2.812 5.352 2.774 5.664 2.812 5.742 2.774 5.664 2.812 5.352 2.813 4.921 2.812 4.297 2.774 3.516 2.812 2.617 2.813 1.68 2.773.586 2.813-.43 2.812-1.484 2.773-2.5 2.813-3.438 2.812-4.297 2.774-4.922 2.812-5.468 2.774-5.782 2.812-5.976 2.813-5.938 2.812-5.664 2.774-5.234 2.812-4.649 2.813-3.867 2.773-3.008 2.813-1.992 2.812-.898 2.774.156 2.812 1.29 2.813 2.382 2.812 3.36 2.774 4.218 2.812 5 2.813 5.586L890 544.18l5.625 12.422 2.773 6.054 2.813 5.625 2.773 5.04 2.813 4.296 2.812 3.399 2.813 2.343 2.773 1.25 2.813.118 2.812-1.055 2.774-2.227 2.812-3.242 2.813-4.258 2.812-5.078 2.774-5.742 2.812-6.25 2.774-6.523 2.812-6.563 2.813-6.445 2.812-6.094 2.774-5.508 2.812-4.765 2.813-3.829 2.812-2.812m.001 0 2.773-1.64 2.812-.43 2.773.82 2.813 2.031 2.812 3.203 2.774 4.258 2.812 5.156 2.774 5.977 2.812 6.523 2.813 6.875 2.812 7.032 2.774 6.914 2.812 6.601 2.813 6.094 2.812 5.273 2.774 4.375 2.812 3.282 2.774 2.11 2.812.78 2.813-.508 2.812-1.835 2.774-3.125 2.812-4.297 2.813-5.313 2.773-6.172 2.813-6.914 2.812-7.304 2.773-7.579 2.813-7.5 2.773-7.226 2.813-6.719 2.812-5.976 2.813-5 2.773-3.868 2.813-2.617 2.773-1.21 2.813.195 2.812 1.601 2.813 3.008 2.773 4.336 2.813 5.508 2.812 6.523 2.774 7.305 2.812 7.89 5.625 16.407 2.774 8.008 2.812 7.539 2.813 6.757 2.812 5.743 2.774 4.609 2.812 3.242 2.773 1.758 2.813.195 2.812-1.367 2.774-2.93 2.812-4.375 2.813-5.742 2.812-6.914 2.774-7.851 2.812-8.555 2.774-8.985 2.812-9.14 2.813-8.985 2.812-8.476 2.774-7.774 2.812-6.718 2.774-5.508 2.812-3.984 2.813-2.422 2.812-.703 2.774 1.054 2.812 2.774 2.813 4.492 2.773 6.015 2.813 7.422 2.812 8.555 2.773 9.414 2.813 10.04 2.773 10.273 2.813 10.195 2.812 9.766 2.813 9.023 2.773 8.008 2.813 6.601 2.812 5.04 2.813 3.28 2.773 1.368 2.813-.625 2.773-2.656 2.813-4.57 2.812-6.446 2.774-8.047 2.812-9.453 2.813-10.586 2.812-11.406 2.774-11.797 2.812-11.797 2.813-11.484 2.812-10.782 2.774-9.609 2.812-8.203 2.813-6.406 2.773-4.453 2.812-2.227 2.774.04 2.812 2.42 2.813 4.688 2.773 6.954 2.813 8.945 2.812 10.703 2.774 12.188 2.812 13.242 2.813 13.906 2.773 14.101 2.813 13.868 2.812 13.164 2.774 12.031 2.812 10.39 2.813 8.438 2.812 6.094 2.774 3.555 2.812.82 2.813-1.992 2.773-4.844 2.813-7.656 2.812-10.196 2.773-12.5 2.813-14.453 2.812-15.976 2.813-17.032 2.773-17.539 2.813-17.5 2.773-16.836 2.813-15.586 2.812-13.867 2.813-11.562 2.773-8.828 2.813-5.743 2.773-2.265 2.813 1.25 2.812 4.96 2.774 8.595 2.812 12.07 2.813 15.234 2.812 18.086 2.774 20.352 2.812 22.148 2.813 23.164 2.812 23.516 2.774 23.086 2.812 21.914 2.773 19.96 2.813 17.227 2.812 13.868 2.774 9.882 2.812 5.352 2.813.469 2.812-4.649 2.774-9.883 2.812-15.039 2.774-20 2.812-24.53 2.813-28.595 2.812-31.836 2.774-34.296 2.812-35.782 2.813-36.21 2.773-35.548 2.813-33.593 2.812-30.508 2.774-26.25 2.812-20.781 2.813-14.297 2.812-6.836 2.774 1.445 2.812 10.352 2.773 19.804 2.813 29.414 2.812 39.18 2.813 48.75 2.773 57.89 2.813 66.446 2.773 74.102 2.813 80.82 2.812 86.21 2.774 90.313 2.812 92.852 2.813 93.75 2.773 93.047 2.813 90.664 2.812 86.523 2.813 80.82 2.773 73.516 2.813 64.844 2.812 54.883 2.774 43.828 2.812 31.992 2.813 19.414 2.812 6.485 2.774-6.485 2.812-19.414 2.813-31.992 2.773-43.828 2.812-54.883 2.774-64.844 2.812-73.515 2.813-80.82 2.812-86.524 2.774-90.664 2.812-93.047 2.813-93.75 2.812-92.852 2.774-90.312 2.812-86.211 2.774-80.82 2.812-74.102 2.813-66.445 2.773-57.89 2.813-48.75 2.812-39.18 2.774-29.415 2.812-19.804 2.813-10.352 2.773-1.445 2.813 6.836 2.812 14.297 2.773 20.78 2.813 26.25 2.812 30.509 2.813 33.594 2.773 35.546 2.813 36.211 2.773 35.782 2.813 34.336 2.812 31.796 2.813 28.594 2.773 24.531 2.813 20 2.812 15.04 2.774 9.882 2.812 4.649 2.813-.47 2.773-5.35 2.813-9.883 2.812-13.868 2.774-17.226 2.812-19.961 2.813-21.914 2.812-23.086m.001 0 2.773-23.516 2.812-23.203 2.813-22.11 2.773-20.35 2.812-18.087 2.813-15.234 2.773-12.07 2.813-8.594 2.812-4.961 2.774-1.25 2.812 2.265 2.774 5.743 2.812 8.828 2.813 11.562 2.812 13.868 2.774 15.585 2.812 16.836 2.774 17.5 2.812 17.54 2.813 17.03 2.812 15.977 2.774 14.453 2.812 12.5 2.813 10.196 2.812 7.656 2.774 4.844 2.812 1.992 2.813-.82 2.773-3.555 2.812-6.094 2.813-8.437 2.773-10.391 2.813-12.031 2.812-13.164 2.813-13.867 2.773-14.102 2.813-13.906 2.773-13.242 2.813-12.188 2.812-10.703 2.774-8.945 2.812-6.954 2.813-4.687 2.773-2.422 2.813-.039 2.812 2.227 2.774 4.453 2.812 6.406 2.813 8.203 2.812 9.61 2.774 10.78 2.812 11.485 2.813 11.797 2.773 11.797 2.812 11.406 2.813 10.586 2.773 9.453 2.813 8.047 2.812 6.445 2.774 4.57 2.812 2.657 2.813.625 2.773-1.367 2.813-3.282 2.812-5.039 2.774-6.601 2.812-8.008 2.813-9.023 2.812-9.766 2.774-10.195 2.812-10.274 2.774-10.039 2.812-9.414 2.813-8.555 2.812-7.422 2.774-6.015 2.812-4.492 2.813-2.774 2.773-1.054 2.812.703 2.813 2.422 2.773 3.984 2.813 5.508 2.773 6.719 2.813 7.773 2.812 8.476 2.813 8.985 2.773 9.14 2.813 8.985 2.773 8.555 2.813 7.851 2.812 6.914 2.813 5.742 2.773 4.375 2.813 2.93 2.812 1.367 2.813-.195 2.773-1.758 2.813-3.242 2.812-4.61 2.774-5.742 2.812-6.757 2.813-7.54 2.773-8.007 5.625-16.407 2.812-7.89 2.774-7.305 2.812-6.523 2.774-5.508 2.812-4.336 2.813-3.008 2.812-1.601 2.774-.196 2.812 1.211 2.774 2.617 2.812 3.868 2.813 5 2.812 5.976 2.774 6.719 2.812 7.226 2.774 7.5 2.812 7.579 2.813 7.304 2.812 6.914 2.774 6.172 2.812 5.313 2.813 4.297 2.773 3.125 2.812 1.836 2.813.507 2.812-.78 2.774-2.11 2.812-3.282 2.774-4.375 2.812-5.273 2.813-6.094 2.773-6.601 2.813-6.914 2.812-7.032 2.813-6.875 2.773-6.523 2.813-5.977 2.773-5.156 2.813-4.258 2.812-3.203 2.813-2.031 2.773-.82 2.813.43 2.812 1.64 2.773 2.812 2.813 3.829 2.813 4.765 2.773 5.508 2.812 6.094 2.813 6.445 2.773 6.563 2.813 6.523 2.812 6.25 2.774 5.742 2.812 5.078 2.774 4.258 2.812 3.242 2.813 2.227 2.812 1.055 2.774-.118 2.812-1.25 2.813-2.343 2.812-3.399 2.774-4.297 2.812-5.039 2.774-5.625 2.812-6.054 5.625-12.422 2.773-6.016 2.813-5.586 2.813-5 2.773-4.219 2.812-3.359 2.813-2.383 2.812-1.289 2.774-.156 2.812.898 2.813 1.992 2.773 3.008 2.813 3.867 2.812 4.649 2.774 5.234 2.812 5.664 2.813 5.938 2.773 5.976 2.813 5.782 2.773 5.468 2.813 4.922 2.812 4.297 2.813 3.438 2.773 2.5 2.813 1.484 2.812.43 2.773-.586 2.813-1.68 2.813-2.617 2.773-3.516 2.812-4.297 2.813-4.921 2.773-5.352 2.813-5.664 2.812-5.742 2.774-5.664 2.812-5.352 2.813-4.883 2.812-4.297 2.774-3.515 2.812-2.656 2.774-1.72 2.812-.702 2.813.351 2.812 1.328 2.774 2.344 2.812 3.203 2.813 3.946 2.773 4.648 2.813 5.078 2.812 5.43 2.773 5.586 2.813 5.508 2.813 5.312 2.773 4.883 2.812 4.297 2.813 3.633 2.812 2.812 2.774 1.875 2.812.938 2.813-.079 2.773-1.054 2.813-2.032 2.773-2.93 2.813-3.671 2.812-4.375 2.813-4.883 2.773-5.195 2.813-5.43 2.773-5.39 2.813-5.274 2.812-4.883 2.813-4.375 2.773-3.71 2.813-2.97 2.812-2.07m.001 0 2.773-1.172 2.812-.156 2.813.82 2.773 1.72 2.812 2.655 2.813 3.438 2.812 4.14 2.774 4.649 2.812 5.078 2.813 5.274 2.773 5.312 2.813 5.234 2.812 4.922 2.774 4.414 2.812 3.828 2.813 3.125 2.773 2.266 2.813 1.367 2.812.43 2.774-.547 2.812-1.523 2.774-2.383 2.812-3.203 2.813-3.907 2.812-4.492 2.773-4.922 2.813-5.156 2.813-5.312 2.773-5.157 2.812-4.96 2.813-4.532 2.812-3.945 2.774-3.281 2.812-2.461 2.813-1.563 2.773-.664 2.813.313 2.773 1.25 2.813 2.148 2.812 2.969 2.813 3.71 2.773 4.337 2.813 4.804 2.812 5.079 2.813 5.273 2.773 5.195 2.813 5 2.773 4.61 2.813 4.101 2.812 3.438 2.773 2.656 2.813 1.797 2.813.898 2.773-.078 2.812-1.015 2.813-1.914 2.812-2.774 2.774-3.555 2.812-4.18 2.774-4.687 2.812-5.039 2.813-5.234 2.812-5.196 2.774-5.078 2.812-4.726 2.774-4.258 2.812-3.633 2.813-2.851 2.812-2.032 2.774-1.133 2.812-.156 2.813.782 2.773 1.718 2.813 2.578 2.812 3.36 2.773 4.062 2.813 4.57 2.813 5 2.773 5.235 2.812 5.273 2.813 5.157 2.812 4.843 2.774 4.414 2.812 3.829 2.813 3.086 2.773 2.265 2.813 1.367 2.812.43 2.813-.547 2.773-1.523 2.813-2.383 2.773-3.203 2.813-3.946 2.812-4.53 2.813-4.962 2.773-5.234 2.813-5.313 2.773-5.273 2.813-5.04 2.812-4.57 2.773-4.062 2.813-3.32 2.813-2.5 2.773-1.64 2.812-.665 2.813.313 2.812 1.289 2.774 2.226 2.812 3.047 2.774 3.828 2.812 4.453 2.813 4.961 2.812 5.274 2.774 5.43 2.812 5.39 2.813 5.195 2.812 4.805 2.774 4.258 2.812 3.594 2.774 2.812 2.812 1.875 2.813.938 2.773-.079 2.813-1.054 2.812-2.032 2.813-2.93 2.773-3.75 2.813-4.413 2.773-4.922 2.812-5.352 5.625-11.093 2.774-5.391 2.812-5.04 2.813-4.53 2.773-3.868 2.813-3.086 2.812-2.187 2.774-1.21 2.812-.196 2.813.86 2.773 1.835 2.813 2.774 2.812 3.632 2.813 4.414 2.773 4.961 2.813 5.39 2.773 5.704 2.813 5.742 2.812 5.625" style="fill:none;stroke-width:7.9701;stroke-linecap:butt;stroke-linejoin:miter;stroke:#000;stroke-opacity:1;stroke-miterlimit:10" transform="matrix(.1 0 0 -.1 0 178)"/><path d="M530.39 261.602h1979.258" style="fill:none;stroke-width:3.985;stroke-linecap:butt;stroke-linejoin:miter;stroke:#000;stroke-opacity:1;stroke-miterlimit:10" transform="matrix(.1 0 0 -.1 0 178)"/><path d="M52.79 151.852h.6v6h-.6zm49.48 0h.601v6h-.601zm49.48 0h.602v6h-.602zm49.48 0h.602v6h-.602zm49.48 0h.602v6h-.601zm0 0" style="stroke:none;fill-rule:nonzero;fill:#000;fill-opacity:1"/><use xlink:href="#a" x="46.44" y="164.611" style="fill:#000;fill-opacity:1"/><use xlink:href="#b" x="53.16" y="164.611" style="fill:#000;fill-opacity:1"/><use xlink:href="#a" x="95.561" y="167.251" style="fill:#000;fill-opacity:1"/><use xlink:href="#c" x="103.481" y="163.291" style="fill:#000;fill-opacity:1"/><path d="M103.469 164.383h4.922v.601h-4.922zm0 0" style="stroke:none;fill-rule:nonzero;fill:#000;fill-opacity:1"/><use xlink:href="#d" x="104.081" y="170.611" style="fill:#000;fill-opacity:1"/><use xlink:href="#e" x="149.482" y="166.651" style="fill:#000;fill-opacity:1"/><use xlink:href="#c" x="199.083" y="163.291" style="fill:#000;fill-opacity:1"/><path d="M199.07 164.383h4.922v.601h-4.922zm0 0" style="stroke:none;fill-rule:nonzero;fill:#000;fill-opacity:1"/><use xlink:href="#d" x="199.682" y="170.611" style="fill:#000;fill-opacity:1"/><use xlink:href="#b" x="247.603" y="164.611" style="fill:#000;fill-opacity:1"/><path d="M260 261.602h2520.04m-2520.04 0v1440" style="fill:none;stroke-width:3.985;stroke-linecap:butt;stroke-linejoin:miter;stroke:#000;stroke-opacity:1;stroke-miterlimit:10" transform="matrix(.1 0 0 -.1 0 178)"/><path d="M19.988 151.492h6v.602h-6zm0-28.801h6v.602h-6zm0-28.801h6v.602h-6zm0-28.8h6v.601h-6zm0-28.8h6v.6h-6zm0-28.802h6v.602h-6zm0 0" style="stroke:none;fill-rule:nonzero;fill:#000;fill-opacity:1"/><use xlink:href="#a" x="1.349" y="155.2" style="fill:#000;fill-opacity:1"/><use xlink:href="#f" x="8.069" y="155.2" style="fill:#000;fill-opacity:1"/><use xlink:href="#e" x="13.109" y="155.2" style="fill:#000;fill-opacity:1"/><use xlink:href="#e" x="12.989" y="126.4" style="fill:#000;fill-opacity:1"/><use xlink:href="#f" x="8.069" y="97.599" style="fill:#000;fill-opacity:1"/><use xlink:href="#e" x="13.109" y="97.599" style="fill:#000;fill-opacity:1"/><use xlink:href="#g" x="8.069" y="68.799" style="fill:#000;fill-opacity:1"/><use xlink:href="#e" x="13.109" y="68.799" style="fill:#000;fill-opacity:1"/><use xlink:href="#h" x="8.069" y="39.998" style="fill:#000;fill-opacity:1"/><use xlink:href="#e" x="13.109" y="39.998" style="fill:#000;fill-opacity:1"/><use xlink:href="#i" x="8.069" y="11.198" style="fill:#000;fill-opacity:1"/><use xlink:href="#e" x="13.109" y="11.198" style="fill:#000;fill-opacity:1"/></svg>