<svg xmlns="http://www.w3.org/2000/svg" xmlns:xlink="http://www.w3.org/1999/xlink" width="284pt" height="137pt" viewBox="0 0 284 137"><defs><symbol id="a" overflow="visible"><path d="M4.64-3.656c0-2.172-.656-3.219-2.015-3.219-1.547 0-2.328 1.234-2.328 3.64 0 1.172.203 2.172.547 2.672.36.485.906.766 1.531.766 1.5 0 2.266-1.297 2.266-3.86zm-.843.5c0 2.125-.375 3-1.297 3-.969 0-1.375-1-1.375-3.438 0-2.094.375-2.922 1.313-2.922.968 0 1.359.97 1.359 3.36m0 0" style="stroke:none"/></symbol><symbol id="c" overflow="visible"><path d="M4.578-2.516c0-1.14-.812-1.937-1.953-1.937-.469 0-.828.14-1.453.5l.094-2.078 3.046.047.047-.047c-.015-.172-.015-.235-.015-.39 0-.157 0-.22.015-.391l-.046-.063s-1.063.063-1.735.063c-.687 0-1.734-.063-1.734-.063l-.063.063.031 1.359c0 .875-.03 1.797-.062 2.25l.203.047c.469-.469.735-.61 1.219-.61.953 0 1.562.688 1.562 1.766C3.734-.89 3.094-.25 2-.25 1.469-.25.969-.422.828-.688L.375-1.5l-.25.14c.234.563.36.876.5 1.313.266.156.672.25 1.094.25.672 0 1.375-.297 1.937-.766.594-.546.922-1.218.922-1.953m0 0" style="stroke:none"/></symbol><symbol id="d" overflow="visible"><path d="M4.172.031v-.297l-.516-.03C3.094-.329 3-.439 3-.954v-5.922l-.14-.047c-.641.344-1.36.64-2.266.953l.078.438h.094c.437-.203.875-.407 1.312-.594.063 0 .078.094.078.328v4.844c0 .515-.11.625-.64.656l-.563.031V.03C1.5.016 2.047 0 2.61 0c.516 0 1.047.016 1.563.031zm0 0" style="stroke:none"/></symbol><symbol id="f" overflow="visible"><path d="M4.672.031C4.64-.172 4.64-.28 4.64-.422c0-.125 0-.219.03-.453l-3.452.11L3.03-2.688C4-3.72 4.297-4.266 4.297-5.017c0-1.14-.781-1.859-2.047-1.859-.719 0-1.203.203-1.688.703l-.171 1.36h.28l.141-.47c.157-.577.516-.812 1.188-.812.844 0 1.406.532 1.406 1.375 0 .75-.422 1.485-1.547 2.688L.156-.234V.03C.891.016 1.641 0 2.375 0c.766 0 1.531.016 2.297.031m0 0" style="stroke:none"/></symbol><symbol id="g" overflow="visible"><path d="M4.61-2.234c0-.485-.204-.891-.563-1.141-.25-.188-.484-.266-.969-.36.797-.609 1.094-1.078 1.094-1.656 0-.89-.75-1.484-1.844-1.484-.687 0-1.125.203-1.61.672L.423-4.97h.312l.188-.547c.11-.343.734-.687 1.25-.687.656 0 1.172.531 1.172 1.156 0 .75-.578 1.375-1.297 1.375-.078 0-.469-.031-.469-.031l-.11.531.063.063c.375-.172.578-.22.844-.22.828 0 1.297.532 1.297 1.438 0 1.016-.594 1.688-1.531 1.688-.454 0-.86-.156-1.157-.438C.735-.86.61-1.095.423-1.626l-.266.094C.36-.921.437-.563.5-.063c.531.188.969.266 1.328.266C3.047.203 4.61-.844 4.61-2.234m0 0" style="stroke:none"/></symbol><symbol id="h" overflow="visible"><path d="M4.703.031v-.297l-.469-.03c-.5-.032-.609-.157-.609-.766v-.735c.594 0 .797 0 1.078.031v-.703s-.484.031-.812.031h-.266v-1.39c0-1.781.031-2.625.078-3.047l-.125-.047-.734.266L.016-2.031l.109.234h2.672v.734c0 .61-.11.75-.61.766l-.609.031v.297C2.11.016 2.641 0 3.188 0c.5 0 1.015.016 1.515.031M2.797-2.438H.64l2.156-3.515zm0 0" style="stroke:none"/></symbol><symbol id="i" overflow="visible"><path d="M4.672-2.188c0-1.14-.688-1.89-1.75-1.89-.594 0-.953.234-1.61.781.204-1.812 1.047-2.781 2.829-3.328v-.078l-.36-.172c-.953.328-1.375.531-1.875.969C.875-5.046.313-3.828.313-2.47c0 1.656.796 2.672 2.093 2.672s2.266-1.031 2.266-2.39m-.86.36c0 1.031-.515 1.703-1.28 1.703-.845 0-1.313-.734-1.313-2.063 0-.359.047-.546.156-.718.219-.328.688-.578 1.172-.578.75 0 1.265.656 1.265 1.656m0 0" style="stroke:none"/></symbol><symbol id="b" overflow="visible"><path d="M1.828-.531c0-.297-.281-.578-.594-.578-.296 0-.562.28-.562.578s.265.578.547.578c.328 0 .61-.266.61-.578zm0 0" style="stroke:none"/></symbol><symbol id="j" overflow="visible"><path d="M4.469-.781 4.39-.984c-.36.312-.61.453-.766.453s-.281-.094-.39-.297a6 6 0 0 1-.25-.844l-.172-1.016.343-.484c.469-.64.735-.875 1.047-.875.156 0 .281.078.328.234l.14-.046.157-.844c-.125-.078-.219-.11-.297-.11-.406 0-.797.36-1.422 1.282l-.375.547-.046-.47c-.126-1-.391-1.358-.985-1.358-.25 0-.484.093-.562.218l-.579.828.172.094c.297-.328.485-.469.688-.469.328 0 .547.407.719 1.375l.109.625-.406.61c-.422.672-.766 1-1.047 1-.156 0-.266-.047-.28-.094l-.11-.281-.203.031c0 .203-.016.328-.078.64-.016.126-.031.157-.031.22a1 1 0 0 0 .422.124c.328 0 .718-.28 1.03-.75l.75-1.171.11.687c.14.844.36 1.234.719 1.234.219 0 .547-.171.86-.453zm0 0" style="stroke:none"/></symbol><symbol id="e" overflow="visible"><path d="M6.016-2.406v-.578H.64v.578zm0 0" style="stroke:none"/></symbol></defs><path d="M210 304.258h6.29l6.327.039h6.29l6.288.039h6.29l6.327.039 18.868.117 6.328.04 6.289.077 6.289.04 6.328.078 6.29.078 6.288.117 6.328.117 6.29.117 6.288.156 6.29.118 6.328.195 12.578.469 6.289.273 6.328.274 12.578.703 6.328.43 6.29.468 6.288.508 6.29.586 6.327.664 6.29.703 6.289.781 6.289.899 6.328.976 6.289 1.055 6.289 1.172 6.328 1.328 6.29 1.406 6.327 1.563 6.29 1.719 6.288 1.875 6.29 2.03 6.288 2.227 6.329 2.461 6.289 2.618 6.289 2.851 6.289 3.086 6.328 3.36 6.289 3.632 6.29 3.867 6.327 4.22 6.29 4.491 6.288 4.805 6.29 5.195 6.327 5.547 6.29 5.899 6.289 6.289 6.289 6.718 6.328 7.149 6.289 7.539 6.289 8.047 6.328 8.476 6.29 8.946 6.327 9.414 6.29 9.96 6.288 10.43 6.29 10.938 6.288 11.484 6.329 11.992 6.289 12.5 6.289 13.047 6.328 13.555 6.289 14.102 6.289 14.57 6.29 15.117 6.327 15.625 6.29 16.094 6.288 16.562 6.29 16.992 6.327 17.422 6.29 17.852 6.289 18.242 6.328 18.594 6.289 18.906 6.289 19.18 6.328 19.414 6.29 19.687 6.288 19.805 6.328 19.961 6.29 20 6.288 20.078 6.29 20.04 6.288 19.96 6.329 19.844 6.289 19.687 6.289 19.453 6.328 19.141 6.289 18.79 6.289 18.398 6.29 17.968 6.327 17.422 6.29 16.875 6.288 16.211 6.328 15.586 6.29 14.805 6.289 14.062 6.289 13.203 6.328 12.344 6.289 11.446 6.289 10.468 6.328 9.453 6.29 8.438 6.288 7.383 6.328 6.289 6.29 5.156 6.288 4.063 6.29 2.89 6.328 1.758 6.289.586 6.289-.586 6.289-1.758 6.328-2.89 6.289-4.063 6.289-5.156 6.29-6.29 6.327-7.382 6.29-8.438 6.288-9.453 6.328-10.468 6.29-11.446 6.289-12.344 6.289-13.203 6.328-14.062 6.289-14.805 6.289-15.586 6.328-16.21 6.29-16.876 6.288-17.422 6.328-17.968 6.29-18.399 6.288-18.789 6.29-19.14 6.328-19.454 6.289-19.687 6.289-19.844 6.289-19.96 6.328-20.04 6.289-20.078 6.289-20 6.328-19.96 6.29-19.806 6.288-19.687 6.29-19.414 6.327-19.18 6.29-18.906 6.289-18.594 6.328-18.242 6.289-17.852 6.289-17.422 6.328-16.992 6.289-16.562 6.29-16.094 6.288-15.625 6.328-15.117 6.29-14.57 6.288-14.102 6.29-13.555 6.328-13.047 6.289-12.5 6.289-11.992 6.328-11.484 6.289-10.938 6.289-10.43 6.328-9.96 6.29-9.414 6.288-8.946 6.29-8.476 6.327-8.047 6.29-7.54 6.289-7.148 6.289-6.718 6.328-6.29 6.289-5.898 6.289-5.547 6.328-5.195 6.289-4.805 6.29-4.492 6.288-4.219 6.328-3.867 6.29-3.633 6.288-3.359 6.329-3.086 6.289-2.851 6.289-2.618 6.289-2.46 6.328-2.227 6.289-2.031 6.289-1.875 6.328-1.72 6.29-1.562 6.288-1.406 6.29-1.328 6.327-1.172 6.29-1.055 6.289-.976 6.289-.899 6.328-.78 6.289-.704 6.289-.664 6.328-.586 6.289-.508 6.29-.469 6.288-.43 6.328-.35 6.29-.352 6.288-.274 6.329-.273 12.578-.469 6.289-.195 6.328-.118 6.289-.156 6.289-.117 6.328-.117 6.29-.117 12.577-.157 6.328-.039 6.29-.078 12.578-.078 6.328-.039 12.578-.078h6.328l6.289-.04h6.29l6.288-.038h6.328l6.29-.04h25.195l6.289-.038h25.234m.001 0h945" style="fill:none;stroke-width:3.985;stroke-linecap:butt;stroke-linejoin:miter;stroke:#8c8c8c;stroke-opacity:1;stroke-miterlimit:10" transform="matrix(.1 0 0 -.1 0 137)"/><path d="m210 304.18 6.29-7.696 6.327-7.734 6.29-7.695 12.577-15.47 6.328-7.772 18.868-23.32 6.328-7.813 12.578-15.625 6.328-7.813 12.578-15.703 6.328-7.851 6.29-1.29 6.288 11.836 6.29 11.875 6.328 11.836 12.578 23.672 6.289 11.797 6.328 11.797 6.289 11.797 6.29 11.758 6.327 11.757 6.29 11.797 6.288 11.72 6.29 11.757 6.327 11.719 6.29 11.68 6.289 11.718 6.289-1.484 6.328-8.086 6.289-8.047 6.289-8.125 6.328-8.086 6.29-8.125 6.327-8.125 6.29-8.125 6.288-8.164 6.29-8.125 6.288-8.164 6.329-8.203 6.289-8.203 6.289-8.164 6.289-8.243 6.328-8.203L525 235l6.29 11.523 6.327 11.485 6.29 11.484 6.288 11.445 6.29 11.485 6.327 11.445 6.29 11.445 6.289 11.407 6.289 11.445 6.328 11.406 6.289 11.407 6.289 11.367 6.328 11.367 6.29 11.367 6.327 11.328 6.29 11.367 6.288 4.727 6.29-8.398 6.288-8.477 6.329-8.438 12.578-16.953 6.328-8.476 6.289-8.477 12.578-17.031 6.328-8.516 18.867-25.664 6.328-8.554 12.579-17.188 6.328 4.57 6.289 11.133 6.289 11.094 6.328 11.133 12.578 22.187 6.328 11.094 25.157 44.219 6.328 11.015 6.289 11.016 6.289 10.977 6.328 11.015L840 467.734l6.29-8.789 6.327-8.828 6.29-8.789 6.288-8.828 6.328-8.828 6.29-8.867 6.289-8.828 6.289-8.868 6.328-8.906 6.289-8.867 6.289-8.906 6.328-8.907 6.29-8.906 6.288-8.945 6.328-8.945 6.29-8.946 6.288-2.383 6.29 10.782 6.328 10.742 6.289 10.742 6.289 10.781 6.289 10.703 6.328 10.704 6.289 10.742 6.289 10.703 6.29 10.664 6.327 10.664 6.29 10.703 6.288 10.625 6.328 10.664 12.579 21.25 6.289 10.586 6.328-2.539 6.289-9.18 6.289-9.14 6.328-9.219 6.29-9.18 6.288-9.218 6.328-9.18 6.29-9.258 6.288-9.219 6.29-9.257 6.328-9.258 6.289-9.258 6.289-9.297 6.289-9.258 6.328-9.336 6.289-9.297 6.289-9.336 6.328 10.43 18.867 31.172 6.328 10.352 6.29 10.39 6.289 10.313 6.328 10.351 6.289 10.352 6.289 10.312 6.328 10.313 18.867 30.82 6.328 10.274 6.29 10.234 6.288 3.672 6.29-9.531 6.328-9.532 6.289-9.53 6.289-9.571 6.328-9.57 6.289-9.532 6.289-9.61 6.328-9.609 18.867-28.828 6.328-9.648 6.29-9.649 6.289-9.687 6.289-9.649 6.328-9.687 6.289 3.477 6.289 10.039 6.328 10.039 6.289 10 6.29 10.039 6.288 9.96 6.328 10 6.29 10 6.288 9.962 6.329 9.96 6.289 9.922 6.289 9.961 6.289 9.922 6.328 9.922 12.578 19.766 6.328 9.883 18.867-29.649 6.328-9.922 6.29-9.922 6.289-9.96 6.289-9.922 6.328-9.961 6.289-9.961 6.289-10 6.328-10 6.289-9.961 6.29-10.04 6.288-10 6.328-10.038 6.29-10.04 6.288-3.476 6.329 9.688 6.289 9.648 6.289 9.687 6.289 9.649 6.328 9.648 12.578 19.22 6.328 9.608 12.578 19.22 6.29 9.53 6.327 9.57 6.29 9.571 12.578 19.063 6.328 9.53 6.289-3.671 6.289-10.234 6.328-10.274 18.867-30.82 6.328-10.313 6.29-10.312 6.288-10.352 6.329-10.351 6.289-10.313 6.289-10.39 6.289-10.352 6.328-10.39 12.578-20.782 6.328-10.43m.001 0 6.288 9.336 6.29 9.297 6.288 9.336 6.328 9.258 6.29 9.297 12.578 18.515 6.328 9.258 6.289 9.22 6.289 9.257 6.328 9.18 6.289 9.218 6.29 9.18 6.288 9.219 6.328 9.14 6.29 9.18 6.288 2.54 6.329-10.587 12.578-21.25 6.289-10.664 6.328-10.625 6.289-10.703 6.289-10.664 6.328-10.664 6.29-10.703 6.288-10.742 6.29-10.704 6.327-10.703 6.29-10.78 12.578-21.485 6.328-10.782 6.289 2.383 6.289 8.946 6.328 8.945 6.289 8.945 12.578 17.813 6.328 8.906 6.29 8.867 6.288 8.906 6.329 8.868 6.289 8.828 6.289 8.867 6.289 8.828 6.328 8.828 6.289 8.79 6.289 8.827 6.328 8.79 12.578-21.954 6.29-11.015 6.327-10.977 12.579-22.031 6.328-11.055 18.867-33.164 6.328-11.094 12.578-22.187 6.29-11.133 6.327-11.094 6.29-11.133 6.288-4.57 6.329 8.594 6.289 8.594 12.578 17.109 6.328 8.555 6.289 8.554 6.289 8.516 6.328 8.516 6.29 8.515 12.577 16.953 6.328 8.477 6.29 8.476 6.289 8.438 6.328 8.477 6.289 8.398 6.289-4.727 6.289-11.367 6.328-11.328 12.578-22.734 6.328-11.367 12.578-22.813 6.29-11.445 6.327-11.406 12.579-22.891 6.289-11.485 6.328-11.445 12.578-22.969 6.328-11.523 6.29 8.242 6.288 8.203 6.328 8.243 6.29 8.164 12.577 16.406 6.329 8.164 6.289 8.125 6.289 8.164 6.289 8.125 6.328 8.125 6.289 8.125 6.29 8.086 6.327 8.125 6.29 8.047 6.288 8.086 6.328 1.484 6.29-11.719 6.289-11.68 6.289-11.718 6.328-11.758 6.289-11.719 6.289-11.797 6.289-11.757 6.328-11.758 12.578-23.594 6.328-11.797 12.578-23.672 6.329-11.836 6.289-11.875 6.289-11.836 6.289 1.29 6.328 7.851 12.578 15.703 6.29 7.813 6.327 7.812 12.578 15.625 6.328 7.774 12.579 15.547 6.328 7.773 12.578 15.469 6.289 7.695 6.328 7.734 6.29 7.696" style="fill:none;stroke-width:3.985;stroke-linecap:butt;stroke-linejoin:miter;stroke:#4c4c4c;stroke-opacity:1;stroke-miterlimit:10" transform="matrix(.1 0 0 -.1 0 137)"/><path d="M210 304.18h12.617l6.29-.04h12.577l6.328-.038h6.29l6.289-.04h6.289l6.328-.078 12.578-.078 6.328-.078 6.29-.078 6.288-.117 6.328-.117 6.29-.079 6.288-.039h6.29l6.328-.039 6.289.04h6.289l6.289.038 6.328.079 6.289.117 6.29.156 6.327.195 12.578.625 6.29.43 6.327.508 6.29.664 6.289.742 6.289.274 6.328-.079 6.289-.156 6.289-.234 6.328-.352 6.29-.43 6.327-.585 6.29-.743 6.288-.898 6.29-1.094 6.288-1.328 6.329-1.601 6.289-1.875 6.289-2.188 6.289-2.578 6.328-2.969L525 286.72l6.29 1.523 6.327 1.992 6.29 2.54 6.288 3.085 6.29 3.75 6.327 4.454 6.29 5.234 6.289 6.094 6.289 7.07 6.328 8.125 6.289 9.219 6.289 10.468 6.328 11.797 6.29 13.203 6.327 14.766 6.29 16.367 6.288 11.758 6.29-.781 6.288-1.64 6.329-2.5 6.289-3.516 6.289-4.532 6.328-5.703 6.289-6.914 6.289-8.242 6.29-9.61 6.327-11.132 6.29-12.696 6.288-14.296 6.29-16.055 6.327-17.852 6.29-19.687 6.289-21.64 6.328 9.452 6.289 27.696 6.289 30.273 6.328 32.813 6.29 35.507 6.288 38.125 6.328 40.82 6.29 43.516 6.288 46.133 6.29 48.828 6.288 51.407 6.329 53.984 6.289 56.484 6.289 58.867 6.328 61.172 6.289 63.36 6.289 65.43 6.29-21.876 6.327-24.297 6.29-26.68 6.288-29.023 6.328-31.328 6.29-33.554 6.289-35.704 6.289-37.695 6.328-39.648 6.289-41.407 6.289-43.125 6.328-44.687 6.29-46.055 6.288-47.265 6.328-48.36 6.29-49.258 6.288-12.851 6.29 61.21 6.328 61.212 6.289 61.054 6.289 60.586 6.289 59.961 6.328 59.063 6.289 58.008 6.289 56.64 6.29 55.196 6.327 53.437 6.29 51.524 6.288 49.492 6.328 47.187 6.29 44.844 6.289 42.305 6.289 39.609 6.328-29.102 6.289-61.992 6.289-61.133 6.328-60.078 6.29-58.945 6.288-57.578 6.328-56.094 6.29-54.492 6.288-52.734 6.29-50.86 6.328-48.945 6.289-46.953 6.289-44.805 6.289-42.695 6.328-40.469 6.289-38.281 6.289-36.016 6.328 27.461 6.29 24.922 6.288 22.5 6.29 20.078 6.327 17.734 6.29 15.47 6.289 13.28 6.328 11.172 6.289 9.18 6.289 7.266 6.328 5.468 6.289 3.75 6.29 2.188 6.288.664 6.328-.664 6.29-1.992 6.288-12.383 6.29-29.844 6.328-27.695 6.289-25.625 6.289-23.633 6.328-21.758 6.289-19.922 6.289-18.242 6.328-16.64 6.29-15.118 6.288-13.672 6.29-12.343 6.327-11.094 6.29-9.922 6.289-8.828 6.289-7.852 6.328-6.953 6.289-.508 6.289 1.954 6.328 1.406 6.289 1.015 6.29.586 6.288.235 6.328-.078 6.29-.274 6.288-.508 6.329-.742 6.289-.82 6.289-.977 6.289-1.054 6.328-1.133 12.578-2.422 6.328-1.211 6.29-2.89 6.288-2.579 6.29-2.265 6.327-1.993 6.29-1.718 6.289-1.485 6.289-1.289 6.328-1.094 6.289-.976 6.289-.82 6.328-.664 6.289-.625 6.29-.508 6.288-.39 6.328-.352 6.29-.313 6.288-.156 6.329.039h12.578l6.289-.04h6.328l12.578-.077 6.328-.04 18.867-.117 6.328-.039 18.868-.117 6.328-.039 12.578-.078 6.328-.04 6.289-.038h6.29l6.288-.04h6.328l6.29-.038h6.288l6.329-.04h44.101m.001 0h945" style="fill:none;stroke-width:7.9701;stroke-linecap:butt;stroke-linejoin:miter;stroke:#000;stroke-opacity:1;stroke-miterlimit:10" transform="matrix(.1 0 0 -.1 0 137)"/><path d="M210 304.18h1260.04m0 0h1260" style="fill:none;stroke-width:3.985;stroke-linecap:butt;stroke-linejoin:miter;stroke:#000;stroke-opacity:1;stroke-miterlimit:10" transform="matrix(.1 0 0 -.1 0 137)"/><path d="M146.75 106.594h.602v6h-.602zm126 0h.602v6h-.602zm0 0" style="stroke:none;fill-rule:nonzero;fill:#000;fill-opacity:1"/><use xlink:href="#a" x="140.642" y="121.393" style="fill:#000;fill-opacity:1"/><use xlink:href="#b" x="145.802" y="121.393" style="fill:#000;fill-opacity:1"/><use xlink:href="#c" x="148.442" y="121.393" style="fill:#000;fill-opacity:1"/><use xlink:href="#d" x="270.483" y="121.513" style="fill:#000;fill-opacity:1"/><path d="M210 139.61v1151.992" style="fill:none;stroke-width:3.985;stroke-linecap:butt;stroke-linejoin:miter;stroke:#000;stroke-opacity:1;stroke-miterlimit:10" transform="matrix(.1 0 0 -.1 0 137)"/><path d="M14.988 122.691h6v.602h-6zm0-16.457h6v.602h-6zm0-16.457h6v.602h-6zm0-16.457h6v.602h-6zm0-16.457h6v.602h-6zm0-16.457h6v.602h-6zm0-16.456h6v.6h-6zm0-16.462h6v.602h-6zm0 0" style="stroke:none;fill-rule:nonzero;fill:#000;fill-opacity:1"/><use xlink:href="#e" x="1.389" y="126.52" style="fill:#000;fill-opacity:1"/><use xlink:href="#d" x="8.109" y="126.52" style="fill:#000;fill-opacity:1"/><use xlink:href="#a" x="7.989" y="109.942" style="fill:#000;fill-opacity:1"/><use xlink:href="#d" x="7.989" y="93.606" style="fill:#000;fill-opacity:1"/><use xlink:href="#f" x="7.989" y="77.148" style="fill:#000;fill-opacity:1"/><use xlink:href="#g" x="7.989" y="60.57" style="fill:#000;fill-opacity:1"/><use xlink:href="#h" x="7.989" y="44.234" style="fill:#000;fill-opacity:1"/><use xlink:href="#c" x="7.989" y="27.656" style="fill:#000;fill-opacity:1"/><use xlink:href="#i" x="7.989" y="11.199" style="fill:#000;fill-opacity:1"/><path d="M966.016 188.984v27.54m0 55.156v27.539m0 0v27.578m0 55.156v27.54m0-.001v27.578m0 55.118v27.578m0 0v27.578m0 55.116v27.58m0 0v27.538m0 55.156v27.578m0 .001v27.539m0 55.156v27.539m0 0v27.578m0 55.156v27.54m0-.001v27.578m0 55.118v27.578m0 0v27.539m0 55.157v27.577m0 0v27.54m0 55.116v27.579" style="fill:none;stroke-width:3.985;stroke-linecap:butt;stroke-linejoin:miter;stroke:#000;stroke-opacity:1;stroke-miterlimit:10" transform="matrix(.1 0 0 -.1 0 137)"/><use xlink:href="#j" x="93.961" y="125.44" style="fill:#000;fill-opacity:1"/></svg>