<svg xmlns="http://www.w3.org/2000/svg" xmlns:xlink="http://www.w3.org/1999/xlink" width="296" height="264" viewBox="0 0 222 198"><defs><symbol id="a" overflow="visible"><path d="m4.86-1.016-.094-.25c-.079.079-.094.079-.157.125-.375.329-.562.438-.734.438q-.188 0-.188-.281c0-.063 0-.094.016-.125l1.11-4.532-.125-.109-.391.219c-.469-.188-.703-.235-1.016-.235-.344 0-.578.063-.906.22-.75.374-1.125.734-1.438 1.312C.422-3.172.047-1.75.047-.781c0 .5.187.906.406.906.25 0 .688-.25 1.14-.625.516-.438.985-1 1.641-1.938L2.891-.921a3 3 0 0 0-.063.61c0 .28.094.437.281.437.266 0 .766-.328 1.75-1.14zM3.811-4.953c-.265 1.281-.484 1.906-.89 2.516-.656 1-1.406 1.734-1.797 1.734-.14 0-.219-.156-.219-.485 0-.765.313-2.093.735-3.078.28-.687.578-.906 1.156-.906.281 0 .5.047 1.015.219m0 0" style="stroke:none"/></symbol><symbol id="c" overflow="visible"><path d="M5.172-4.5c0-.453-.11-.922-.25-1.094-.078-.11-.234-.172-.422-.172-.281 0-.64.094-.969.266-.61.328-1.015.688-1.75 1.625l1.032-4.75-.141-.14c-.625.312-1.063.421-1.922.5l-.047.25h.578c.282 0 .407.093.407.296 0 .078-.016.219-.032.282L.453-.845c-.016.031-.016.078-.016.11 0 .468.579.859 1.235.859.437 0 1.047-.219 1.562-.594 1.157-.81 1.938-2.452 1.938-4.03m-.86.297c0 .766-.25 1.781-.609 2.562-.39.829-.875 1.204-1.515 1.204-.547 0-.844-.266-.844-.766 0-.297.047-.64.156-1.078.219-.953.516-1.531.984-2.031.391-.407 1.016-.75 1.36-.75.312 0 .469.265.469.859zm0 0" style="stroke:none"/></symbol><symbol id="b" overflow="visible"><path d="M3.656.031v-.265l-.453-.032c-.484-.03-.562-.125-.562-.578v-5.203l-.125-.031a15 15 0 0 1-1.985.844l.063.375h.078c.39-.188.781-.36 1.156-.516.063 0 .078.078.078.281v4.25c0 .453-.093.547-.578.578l-.484.032V.03C1.328.016 1.813 0 2.28 0c.469 0 .922.016 1.375.031zm0 0" style="stroke:none"/></symbol><symbol id="d" overflow="visible"><path d="M4.11.031c-.032-.187-.032-.281-.032-.406 0-.11 0-.188.031-.39l-3.046.093 1.609-1.687c.844-.907 1.11-1.391 1.11-2.047 0-1.016-.688-1.64-1.798-1.64-.64 0-1.062.187-1.5.624l-.14 1.188h.25l.11-.407c.14-.5.468-.718 1.046-.718.75 0 1.234.468 1.234 1.218 0 .657-.359 1.297-1.359 2.36L.141-.203V.03C.78.016 1.453 0 2.094 0c.672 0 1.344.016 2.015.031zm0 0" style="stroke:none"/></symbol><symbol id="e" overflow="visible"><path d="M4.047-1.969c0-.422-.172-.781-.484-1-.22-.156-.422-.234-.86-.312.703-.547.953-.938.953-1.469 0-.766-.64-1.297-1.61-1.297-.593 0-1 .172-1.421.594L.375-4.36h.281l.156-.5c.094-.297.641-.594 1.094-.594.578 0 1.032.469 1.032 1.016 0 .656-.516 1.218-1.126 1.218-.078 0-.421-.031-.421-.031l-.11.469.063.047c.343-.157.5-.188.75-.188.719 0 1.14.453 1.14 1.25 0 .906-.53 1.484-1.343 1.484-.407 0-.766-.124-1.032-.374C.656-.75.531-.954.375-1.422l-.25.078c.188.532.266.86.313 1.297.468.156.843.219 1.171.219 1.063 0 2.438-.922 2.438-2.14zm0 0" style="stroke:none"/></symbol><symbol id="f" overflow="visible"><path d="M4.14.031v-.265l-.42-.032c-.438-.03-.531-.14-.531-.656v-.672c.515 0 .703.016.953.047v-.625s-.438.031-.72.031h-.233v-1.218c0-1.563.015-2.329.062-2.688l-.11-.031-.64.234L.016-1.78l.093.187h2.344v.672c0 .516-.094.64-.531.656l-.531.032V.03C1.859.016 2.328 0 2.797 0c.453 0 .89.016 1.344.031zM2.454-2.14H.563l1.89-3.093zm0 0" style="stroke:none"/></symbol><symbol id="g" overflow="visible"><path d="M4.031-2.219c0-.984-.718-1.687-1.718-1.687-.422 0-.735.11-1.282.437l.078-1.828 2.672.031.047-.03c-.015-.173-.015-.22-.015-.345 0-.14 0-.203.015-.359l-.047-.047S2.86-6 2.266-6 .734-6.047.734-6.047L.688-6l.015 1.203c0 .766-.015 1.594-.047 1.969l.172.062c.422-.421.656-.53 1.078-.53.844 0 1.375.593 1.375 1.53 0 .985-.562 1.547-1.515 1.547-.485 0-.922-.156-1.032-.39l-.406-.72-.219.126c.204.5.313.781.438 1.172.234.125.594.203.969.203.593 0 1.203-.25 1.687-.672.547-.469.828-1.063.828-1.719m0 0" style="stroke:none"/></symbol><symbol id="h" overflow="visible"><path d="m4.938-.547-.125-.187c-.438.25-.813.359-1.25.359-1.329 0-2.204-1.031-2.204-2.61 0-1.28.594-2 1.672-2 .531 0 1.11.235 1.313.532l.093.734h.329c0-.547.062-1.031.171-1.469-.484-.28-.89-.421-1.39-.421-.578 0-1.235.234-1.953.687C.75-4.406.312-3.562.312-2.516.313-.89 1.454.234 3.047.234c.625 0 1.515-.218 1.64-.406zm0 0" style="stroke:none"/></symbol></defs><path d="M10 1501.094h2160.04" style="fill:none;stroke-width:3.985;stroke-linecap:butt;stroke-linejoin:miter;stroke:#000;stroke-opacity:1;stroke-miterlimit:10" transform="matrix(.1 0 0 -.1 0 198)"/><path d="M.746 44.902h.602v6H.746zm72.004 0h.602v6h-.602zm72 0h.602v6h-.602zm72 0h.602v6h-.602zm0 0" style="stroke:none;fill-rule:nonzero;fill:#000;fill-opacity:1"/><path d="M81.992 1033.945v-25.039m0-50.039v-25.039m0 0v-25m0-50.078v-25.04m2016.016 985.08v-27.345m0-54.726v-27.383m0 0v-27.344m0-54.726v-27.383m0 0v-27.344m0-54.726v-27.383m0 0v-27.344m0-54.726v-27.383m0 0v-27.344m0-54.727v-27.383m0 0v-27.343m0-54.727v-27.383m0 0v-27.343m0-54.727v-27.383m0 0v-27.344m0-54.726v-27.383m0 0V915.82m0-54.726V833.71m-2016.016 0h2016.016M81.992 863.79v-60.118m2016.016 60.118v-60.118" style="fill:none;stroke-width:3.985;stroke-linecap:butt;stroke-linejoin:miter;stroke:#000;stroke-opacity:1;stroke-miterlimit:10" transform="matrix(.1 0 0 -.1 0 198)"/><use xlink:href="#a" x="3.161" y="124.889" style="fill:#000;fill-opacity:1"/><use xlink:href="#b" x="8.801" y="126.689" style="fill:#000;fill-opacity:1"/><use xlink:href="#c" x="204.523" y="126.449" style="fill:#000;fill-opacity:1"/><use xlink:href="#b" x="210.403" y="128.249" style="fill:#000;fill-opacity:1"/><path d="M1090.04 1884.219v-27.696m0-55.313v-27.694m0 0v-27.657m0-55.312v-27.695m0 0v-27.657m0-55.351v-27.617m0 0v-27.696m0-55.312v-27.696m0 0v-27.656m0-55.312v-27.657m0 0v-27.695m0-55.351v-27.657m0 0v-27.656m0-55.312v-27.696m0 0v-27.656m0-55.352v-27.656m0 0v-27.656m0-55.351v-27.657m0 0v-27.656m0-55.352V777.54m0 0v-27.657m0-55.313v-27.695m-1008.048 0H1090.04" style="fill:none;stroke-width:3.985;stroke-linecap:butt;stroke-linejoin:miter;stroke:#000;stroke-opacity:1;stroke-miterlimit:10" transform="matrix(.1 0 0 -.1 0 198)"/><use xlink:href="#a" x="3.161" y="141.575" style="fill:#000;fill-opacity:1"/><use xlink:href="#d" x="8.801" y="143.375" style="fill:#000;fill-opacity:1"/><use xlink:href="#c" x="103.722" y="143.135" style="fill:#000;fill-opacity:1"/><use xlink:href="#d" x="109.602" y="144.935" style="fill:#000;fill-opacity:1"/><path d="M81.992 696.914v-60.078m1008.048 60.078v-60.078m-504.024 936.68v-29.805m0-59.648v-29.805m0 0v-29.805m0-59.648v-29.844m0-.001v-29.804m0-59.648v-29.805m0 0v-29.805m0-59.648v-29.844m0 0v-29.804m0-59.649v-29.805m0 0v-29.804m0-59.649v-29.843m0 0v-29.805m0-59.649v-29.804m0 0v-29.805m0-59.649v-29.804m0 0v-29.844m0-59.648v-29.805m-504.024.001h504.024" style="fill:none;stroke-width:3.985;stroke-linecap:butt;stroke-linejoin:miter;stroke:#000;stroke-opacity:1;stroke-miterlimit:10" transform="matrix(.1 0 0 -.1 0 198)"/><use xlink:href="#a" x="3.161" y="158.259" style="fill:#000;fill-opacity:1"/><use xlink:href="#e" x="8.801" y="160.059" style="fill:#000;fill-opacity:1"/><use xlink:href="#c" x="53.321" y="159.699" style="fill:#000;fill-opacity:1"/><use xlink:href="#e" x="59.201" y="161.499" style="fill:#000;fill-opacity:1"/><path d="M81.992 530.078V470m504.024 60.078V470m-252.032 862.344v-27.735m0-55.507v-27.774m0 0v-27.734m0-55.508v-27.774m0 .001v-27.735m0-55.547v-27.734m0 0v-27.774m0-55.468V888.28m0 .001v-27.773m0-55.508v-27.734m0 0v-27.774m0-55.508V666.25m0 0v-27.773m0-55.508v-27.735m0 0v-27.773m0-55.508V444.18m0 0v-27.735m0-55.507v-27.774m0 0h252.032" style="fill:none;stroke-width:3.985;stroke-linecap:butt;stroke-linejoin:miter;stroke:#000;stroke-opacity:1;stroke-miterlimit:10" transform="matrix(.1 0 0 -.1 0 198)"/><use xlink:href="#a" x="28.36" y="174.944" style="fill:#000;fill-opacity:1"/><use xlink:href="#f" x="34" y="176.744" style="fill:#000;fill-opacity:1"/><use xlink:href="#c" x="53.321" y="176.504" style="fill:#000;fill-opacity:1"/><use xlink:href="#f" x="59.201" y="178.304" style="fill:#000;fill-opacity:1"/><path d="M333.984 363.203v-60.039m252.032 60.039v-60.039M460 1460.117v-29.414m0-58.828v-29.414m0-.001v-29.374m0-58.828v-29.375m0 0v-29.414m0-58.829v-29.374m0 0v-29.414m0-58.829v-29.375m0 0v-29.414m0-58.789v-29.414m0 0v-29.414m0-58.789v-29.414m0 0V725m0-58.79v-29.413m0 0v-29.414m0-58.789V519.18m0 0v-29.414m0-58.789v-29.414m0 0v-29.415m0-58.788v-29.415m0 0V254.57m0-58.828v-29.414m0 0h126.016" style="fill:none;stroke-width:3.985;stroke-linecap:butt;stroke-linejoin:miter;stroke:#000;stroke-opacity:1;stroke-miterlimit:10" transform="matrix(.1 0 0 -.1 0 198)"/><use xlink:href="#a" x="40.961" y="191.629" style="fill:#000;fill-opacity:1"/><use xlink:href="#g" x="46.601" y="193.429" style="fill:#000;fill-opacity:1"/><use xlink:href="#c" x="53.321" y="193.069" style="fill:#000;fill-opacity:1"/><use xlink:href="#g" x="59.201" y="194.869" style="fill:#000;fill-opacity:1"/><path d="M460 196.367V136.29m126.016 60.077V136.29M503.79 1667.969v-57.774" style="fill:none;stroke-width:3.985;stroke-linecap:butt;stroke-linejoin:miter;stroke:#000;stroke-opacity:1;stroke-miterlimit:10" transform="matrix(.1 0 0 -.1 0 198)"/><path d="M505.781 1581.328a2 2 0 0 1-1.992 1.992 2 2 0 0 1-1.992-1.992 2 2 0 0 1 1.992-1.992 2 2 0 0 1 1.992 1.992zm0 0" style="fill-rule:nonzero;fill:#000;fill-opacity:1;stroke-width:3.985;stroke-linecap:butt;stroke-linejoin:miter;stroke:#000;stroke-opacity:1;stroke-miterlimit:10" transform="matrix(.1 0 0 -.1 0 198)"/><path d="M503.79 1552.46v-57.773" style="fill:none;stroke-width:3.985;stroke-linecap:butt;stroke-linejoin:miter;stroke:#000;stroke-opacity:1;stroke-miterlimit:10" transform="matrix(.1 0 0 -.1 0 198)"/><path d="M505.781 1465.82a2 2 0 0 1-1.992 1.993 2 2 0 0 1-1.992-1.993 2 2 0 0 1 1.992-1.992 2 2 0 0 1 1.992 1.992zm0 0" style="fill-rule:nonzero;fill:#000;fill-opacity:1;stroke-width:3.985;stroke-linecap:butt;stroke-linejoin:miter;stroke:#000;stroke-opacity:1;stroke-miterlimit:10" transform="matrix(.1 0 0 -.1 0 198)"/><path d="M503.79 1436.953v-57.773" style="fill:none;stroke-width:3.985;stroke-linecap:butt;stroke-linejoin:miter;stroke:#000;stroke-opacity:1;stroke-miterlimit:10" transform="matrix(.1 0 0 -.1 0 198)"/><path d="M505.781 1350.313a2 2 0 0 1-1.992 1.992 2 2 0 0 1-1.992-1.993 2 2 0 0 1 1.992-1.992 2 2 0 0 1 1.992 1.993zm0 0" style="fill-rule:nonzero;fill:#000;fill-opacity:1;stroke-width:3.985;stroke-linecap:butt;stroke-linejoin:miter;stroke:#000;stroke-opacity:1;stroke-miterlimit:10" transform="matrix(.1 0 0 -.1 0 198)"/><path d="M503.79 1321.445v-57.773" style="fill:none;stroke-width:3.985;stroke-linecap:butt;stroke-linejoin:miter;stroke:#000;stroke-opacity:1;stroke-miterlimit:10" transform="matrix(.1 0 0 -.1 0 198)"/><path d="M505.781 1234.805a2 2 0 0 1-1.992 1.992 2 2 0 0 1-1.992-1.992 2 2 0 0 1 1.992-1.993 2 2 0 0 1 1.992 1.993zm0 0" style="fill-rule:nonzero;fill:#000;fill-opacity:1;stroke-width:3.985;stroke-linecap:butt;stroke-linejoin:miter;stroke:#000;stroke-opacity:1;stroke-miterlimit:10" transform="matrix(.1 0 0 -.1 0 198)"/><path d="M503.79 1205.938v-57.774" style="fill:none;stroke-width:3.985;stroke-linecap:butt;stroke-linejoin:miter;stroke:#000;stroke-opacity:1;stroke-miterlimit:10" transform="matrix(.1 0 0 -.1 0 198)"/><path d="M505.781 1119.297a2 2 0 0 1-1.992 1.992 2 2 0 0 1-1.992-1.992 2 2 0 0 1 1.992-1.992 2 2 0 0 1 1.992 1.992zm0 0" style="fill-rule:nonzero;fill:#000;fill-opacity:1;stroke-width:3.985;stroke-linecap:butt;stroke-linejoin:miter;stroke:#000;stroke-opacity:1;stroke-miterlimit:10" transform="matrix(.1 0 0 -.1 0 198)"/><path d="M503.79 1090.39v-57.734" style="fill:none;stroke-width:3.985;stroke-linecap:butt;stroke-linejoin:miter;stroke:#000;stroke-opacity:1;stroke-miterlimit:10" transform="matrix(.1 0 0 -.1 0 198)"/><path d="M505.781 1003.79a2 2 0 0 1-1.992 1.991 2 2 0 0 1-1.992-1.992 2 2 0 0 1 1.992-1.992 2 2 0 0 1 1.992 1.992zm0 0" style="fill-rule:nonzero;fill:#000;fill-opacity:1;stroke-width:3.985;stroke-linecap:butt;stroke-linejoin:miter;stroke:#000;stroke-opacity:1;stroke-miterlimit:10" transform="matrix(.1 0 0 -.1 0 198)"/><path d="M503.79 974.883v-57.735" style="fill:none;stroke-width:3.985;stroke-linecap:butt;stroke-linejoin:miter;stroke:#000;stroke-opacity:1;stroke-miterlimit:10" transform="matrix(.1 0 0 -.1 0 198)"/><path d="M505.781 888.281a2 2 0 0 1-1.992 1.992 2 2 0 0 1-1.992-1.992 2 2 0 0 1 1.992-1.992 2 2 0 0 1 1.992 1.992zm0 0" style="fill-rule:nonzero;fill:#000;fill-opacity:1;stroke-width:3.985;stroke-linecap:butt;stroke-linejoin:miter;stroke:#000;stroke-opacity:1;stroke-miterlimit:10" transform="matrix(.1 0 0 -.1 0 198)"/><path d="M503.79 859.414v-57.773" style="fill:none;stroke-width:3.985;stroke-linecap:butt;stroke-linejoin:miter;stroke:#000;stroke-opacity:1;stroke-miterlimit:10" transform="matrix(.1 0 0 -.1 0 198)"/><path d="M505.781 772.773a2 2 0 0 1-1.992 1.993 2 2 0 0 1-1.992-1.993c0-1.132.898-1.992 1.992-1.992s1.992.86 1.992 1.992zm0 0" style="fill-rule:nonzero;fill:#000;fill-opacity:1;stroke-width:3.985;stroke-linecap:butt;stroke-linejoin:miter;stroke:#000;stroke-opacity:1;stroke-miterlimit:10" transform="matrix(.1 0 0 -.1 0 198)"/><path d="M503.79 743.906v-57.773" style="fill:none;stroke-width:3.985;stroke-linecap:butt;stroke-linejoin:miter;stroke:#000;stroke-opacity:1;stroke-miterlimit:10" transform="matrix(.1 0 0 -.1 0 198)"/><path d="M505.781 657.266a2 2 0 0 1-1.992 1.992 2 2 0 0 1-1.992-1.992c0-1.133.898-1.993 1.992-1.993s1.992.86 1.992 1.993zm0 0" style="fill-rule:nonzero;fill:#000;fill-opacity:1;stroke-width:3.985;stroke-linecap:butt;stroke-linejoin:miter;stroke:#000;stroke-opacity:1;stroke-miterlimit:10" transform="matrix(.1 0 0 -.1 0 198)"/><path d="M503.79 628.398v-57.773" style="fill:none;stroke-width:3.985;stroke-linecap:butt;stroke-linejoin:miter;stroke:#000;stroke-opacity:1;stroke-miterlimit:10" transform="matrix(.1 0 0 -.1 0 198)"/><path d="M505.781 541.758c0 1.094-.898 1.953-1.992 1.953s-1.992-.86-1.992-1.953c0-1.133.898-1.992 1.992-1.992s1.992.859 1.992 1.992zm0 0" style="fill-rule:nonzero;fill:#000;fill-opacity:1;stroke-width:3.985;stroke-linecap:butt;stroke-linejoin:miter;stroke:#000;stroke-opacity:1;stroke-miterlimit:10" transform="matrix(.1 0 0 -.1 0 198)"/><path d="M503.79 512.852v-57.735" style="fill:none;stroke-width:3.985;stroke-linecap:butt;stroke-linejoin:miter;stroke:#000;stroke-opacity:1;stroke-miterlimit:10" transform="matrix(.1 0 0 -.1 0 198)"/><path d="M505.781 426.25a2 2 0 0 1-1.992 1.992 2 2 0 0 1-1.992-1.992 2 2 0 0 1 1.992-1.992 2 2 0 0 1 1.992 1.992zm0 0" style="fill-rule:nonzero;fill:#000;fill-opacity:1;stroke-width:3.985;stroke-linecap:butt;stroke-linejoin:miter;stroke:#000;stroke-opacity:1;stroke-miterlimit:10" transform="matrix(.1 0 0 -.1 0 198)"/><path d="M503.79 397.344v-57.735" style="fill:none;stroke-width:3.985;stroke-linecap:butt;stroke-linejoin:miter;stroke:#000;stroke-opacity:1;stroke-miterlimit:10" transform="matrix(.1 0 0 -.1 0 198)"/><path d="M505.781 310.742c0 1.094-.898 1.953-1.992 1.953s-1.992-.86-1.992-1.953a2 2 0 0 1 1.992-1.992 2 2 0 0 1 1.992 1.992zm0 0" style="fill-rule:nonzero;fill:#000;fill-opacity:1;stroke-width:3.985;stroke-linecap:butt;stroke-linejoin:miter;stroke:#000;stroke-opacity:1;stroke-miterlimit:10" transform="matrix(.1 0 0 -.1 0 198)"/><path d="M503.79 281.836v-57.734" style="fill:none;stroke-width:3.985;stroke-linecap:butt;stroke-linejoin:miter;stroke:#000;stroke-opacity:1;stroke-miterlimit:10" transform="matrix(.1 0 0 -.1 0 198)"/><path d="M505.781 195.195a1.976 1.976 0 0 1-1.992 1.993 1.976 1.976 0 0 1-1.992-1.993c0-1.093.898-1.953 1.992-1.953s1.992.86 1.992 1.953zm0 0" style="fill-rule:nonzero;fill:#000;fill-opacity:1;stroke-width:3.985;stroke-linecap:butt;stroke-linejoin:miter;stroke:#000;stroke-opacity:1;stroke-miterlimit:10" transform="matrix(.1 0 0 -.1 0 198)"/><use xlink:href="#h" x="47.738" y="27.171" style="fill:#000;fill-opacity:1"/><path d="m10 938.164 53.984 72.305 54.024 69.61 54.023 66.991 53.985 64.375L280 1273.203l53.984 59.14 54.024 56.524 54.023 53.867 53.985 51.211L550 1542.578l53.984 45.977 54.024 43.36 54.023 40.741 53.985 38.086L820 1746.211l54.023 32.851 53.985 30.235 54.023 27.617 53.985 24.961 54.023 22.344 53.984 19.687 53.985 17.07 54.023 14.454 53.985 11.836 54.023 9.18 53.984 6.6 53.985 3.907 54.023 1.328 53.985-1.328 54.023-3.906 53.984-6.602 53.985-9.18 54.023-11.835 53.985-14.453 54.023-17.07 53.984-19.688 53.985-22.344 54.023-24.96 53.985-27.618 54.023-30.235" style="fill:none;stroke-width:7.9701;stroke-linecap:butt;stroke-linejoin:miter;stroke:#000;stroke-opacity:1;stroke-miterlimit:10" transform="matrix(.1 0 0 -.1 0 198)"/></svg>