<svg xmlns="http://www.w3.org/2000/svg" xmlns:xlink="http://www.w3.org/1999/xlink" width="196pt" height="107pt" viewBox="0 0 196 107"><defs><symbol id="a" overflow="visible"><path d="M3.234.031v-.36l-.546-.03c-.407-.016-.438-.11-.438-.86v-4.343l-.11-.047a7.3 7.3 0 0 1-1.859.5v.328H.72c.469 0 .531.078.531.875v2.687c0 .75-.047.844-.453.86L.25-.33v.36c.5-.014 1-.03 1.5-.03s.984.016 1.484.031m-.89-7.64c0-.344-.235-.61-.594-.61-.36 0-.61.25-.61.61 0 .359.25.593.61.593s.594-.234.594-.593m0 0" style="stroke:none"/></symbol><symbol id="b" overflow="visible"><path d="M6.844.031v-.36l-.5-.03c-.407-.016-.438-.094-.438-.86V-3.53c0-1.39-.656-2.078-2-2.078-.437 0-.687.093-.937.296l-.906.797v-1.046l-.11-.047c-.61.25-1.234.421-1.875.5v.328h.453c.469 0 .516.078.516.875v2.687c0 .75-.031.844-.438.86l-.53.03v.36C.561.016 1.062 0 1.546 0c.5 0 1 .016 1.484.031v-.36L2.5-.358c-.406-.016-.438-.11-.438-.86V-3.75c0-.547.782-1.125 1.516-1.125.797 0 1.328.594 1.328 1.516V.03C5.22.016 5.531 0 5.844 0c.343 0 .656.016 1 .031m0 0" style="stroke:none"/></symbol><symbol id="c" overflow="visible"><path d="M4.078-7.656v-.922c-.25-.094-.39-.125-.547-.125-.39 0-.812.203-1.062.5l-.703.797c-.344.39-.5.922-.5 1.718v.5l-.829.375v.266l.829-.062v3.39c0 .75-.032.844-.438.86l-.547.03v.36C.781.016 1.266 0 1.766 0s1 .016 1.5.031v-.36l-.547-.03c-.406-.016-.453-.11-.453-.86v-3.39H3.75l.094-.625c-.531.03-1.047.046-1.578.046v-1.015c0-1.375.156-1.703.843-1.703.329 0 .532.078.829.328zm0 0" style="stroke:none"/></symbol><symbol id="h" overflow="visible"><path d="M4.672-1.766c0-.375-.094-.656-.328-.89-.313-.313-.703-.438-1.766-.64-.969-.188-1.297-.438-1.297-.985 0-.594.422-.938 1.14-.938.813 0 1.423.422 1.423.985v.28h.328c.016-.702.031-.983.062-1.358-.64-.204-1.062-.297-1.562-.297-1.375 0-2.235.656-2.235 1.734 0 .578.266.984.813 1.234.328.141.969.329 1.781.516.531.11.766.375.766.828 0 .64-.61 1.094-1.453 1.094-.875 0-1.5-.422-1.5-1.016v-.484h-.36C.484-.891.454-.531.36-.047.984.156 1.453.234 2 .234c1.563 0 2.672-.828 2.672-2m0 0" style="stroke:none"/></symbol><symbol id="i" overflow="visible"><path d="M6.938.031v-.36l-.485-.03c-.406-.016-.437-.094-.437-.86v-4.343l-.11-.047c-.61.25-1.234.421-1.86.5v.328h.438c.47 0 .532.078.532.875v1.953c0 .25-.172.594-.454.86a1.57 1.57 0 0 1-1.187.515c-.406 0-.75-.14-.938-.36-.171-.203-.25-.562-.25-1.093v-3.531l-.109-.047c-.61.25-1.234.421-1.86.5v.328h.438c.485 0 .531.078.531.875v2c0 .843.063 1.218.282 1.515.265.36.718.532 1.406.532.531 0 1.016-.172 1.328-.47l.813-.734c0 .344-.016.532-.063 1.094.344-.015.672-.031 1-.031s.656.016.984.031zm0 0" style="stroke:none"/></symbol><symbol id="j" overflow="visible"><path d="M6.625-3.234c0-1.329-1.11-2.375-2.484-2.375-.454 0-.875.125-1.063.296l-.984.907v-1.157l-.11-.046a7.3 7.3 0 0 1-1.859.5v.328h.438c.484 0 .53.078.53.875v6.015c0 .75-.046.829-.452.86L.094 3v.36c.5-.032 1-.032 1.5-.032s.984 0 1.484.031V3l-.547-.031c-.406-.031-.437-.11-.437-.86V-.156c.36.218.734.297 1.281.297.344 0 .656-.063.844-.188l1.36-.89c.484-.313 1.046-1.532 1.046-2.297m-1.047.437c0 1.344-.797 2.328-1.875 2.328-.656 0-1.14-.219-1.61-.703v-2.484c0-.172.063-.297.22-.5.343-.453.828-.672 1.421-.672 1.125 0 1.844.781 1.844 2.031m0 0" style="stroke:none"/></symbol><symbol id="d" overflow="visible"><path d="M4.938-8.61c-.204-.093-.547-.156-.844-.156a1.1 1.1 0 0 0-.407.094c-.296.125-1.265.86-1.546 1.14-.266.266-.407.626-.532 1.298l-.187.953a10 10 0 0 1-1.031.437l-.063.266h.969l-.11.672C.829-1.578.391.64.125 1.469c-.219.703-.563 1.078-1 1.078-.266 0-.422-.078-.625-.344l-.156.047c-.047.266-.219.844-.282.953a.9.9 0 0 0 .422.094c.485 0 1.141-.375 1.594-.938.735-.859.985-1.671 1.875-5.89.063-.297.156-.656.219-1.047h1.25c.047-.234.125-.5.203-.672l-.047-.078-.094.016c-.28.093-.406.093-1 .093h-.187l.25-1.343c.187-1.032.531-1.485 1.078-1.485.36 0 .672.188.86.469l.124-.047zm0 0" style="stroke:none"/></symbol><symbol id="f" overflow="visible"><path d="M8.86-5.156c0-1.172-.36-2-1.094-2.516-.547-.39-1.688-.594-2.704-.594-.812 0-1.625.032-2.437.032-.484 0-.969-.016-1.469-.032l-.031.329.625.03c.297 0 .422.095.422.313 0 .172-.047.547-.11.907l-1.03 6.03C.983-.374.624-.327.39-.28L.328.03C.703.016 1.078 0 1.453 0 2.22 0 3 .031 3.781.031c.86 0 1.438-.125 2.063-.437 1.86-.953 3.015-2.766 3.015-4.75zm-1.11.203c0 1.39-.453 2.64-1.266 3.469-.64.656-1.515 1-2.546 1-.532 0-1.11-.063-1.922-.188 0-.14 0-.219.046-.437l1.141-6.657c.469 0 .922-.062 1.39-.062 2.173 0 3.157.906 3.157 2.875m0 0" style="stroke:none"/></symbol><symbol id="k" overflow="visible"><path d="m10.75.031.031-.328-.437-.031C9.906-.375 9.688-.5 9.688-.75l.015-.438.5-6.359c0-.219.203-.344.547-.36l.453-.03.031-.329c-.328.016-.671.032-1 .032-.343 0-.671-.016-1-.032-.218.438 0 .11-1.015 1.86L5.28-1.36 3.484-8.266c-.328.016-.656.032-1 .032-.328 0-.671-.016-.984-.032l-.047.329.313.03c.625.048.843.157.843.47a.6.6 0 0 1-.046.234L.843-1.11c-.187.625-.374.78-1.03.828L-.234.03C.219.016.672 0 1.109 0 1.547 0 2 .016 2.422.031l.047-.328-.453-.031c-.391-.047-.594-.156-.594-.328 0-.125.031-.281.078-.485l1.484-5.546L4.766.218h.28l.673-1.25 2.86-4.938.624-1.047-.437 6.22c-.032.327-.188.405-.813.468l-.36.031-.046.328C8.094.016 8.625 0 9.157 0c.53 0 1.062.016 1.593.031m0 0" style="stroke:none"/></symbol><symbol id="e" overflow="visible"><path d="M3.64-9.031C1.813-7.844.72-5.797.72-3.234c0 2.343 1.14 4.578 2.875 5.78l.156-.202C2.094.906 1.812-.484 1.812-3.281c0-2.781.313-4.219 1.938-5.547zm0 0" style="stroke:none"/></symbol><symbol id="g" overflow="visible"><path d="m.5-9.031-.125.203C2.015-7.5 2.328-6.063 2.328-3.281c0 2.797-.281 4.187-1.953 5.625l.156.203c1.75-1.203 2.89-3.438 2.89-5.781 0-2.563-1.108-4.61-2.921-5.797m0 0" style="stroke:none"/></symbol><symbol id="l" overflow="visible"><path d="M7.219-2.875v-.703H.78v.703zm0 0" style="stroke:none"/></symbol></defs><path d="M8.008 583.594H1952.03M891.64 115.586v936.016" style="fill:none;stroke-width:3.985;stroke-linecap:butt;stroke-linejoin:miter;stroke:#b2b2b2;stroke-opacity:1;stroke-miterlimit:10" transform="matrix(.1 0 0 -.1 0 107)"/><path d="M891.64 358.477v500.898m117.813-275.781h765.82" style="fill:none;stroke-width:11.9553;stroke-linecap:butt;stroke-linejoin:miter;stroke:#000;stroke-opacity:1;stroke-miterlimit:10" transform="matrix(.1 0 0 -.1 0 107)"/><path d="M302.54 999.61h37.772" style="fill:none;stroke-width:3.985;stroke-linecap:butt;stroke-linejoin:miter;stroke:#000;stroke-opacity:1;stroke-miterlimit:10" transform="matrix(.1 0 0 -.1 0 107)"/><path d="M361.172 999.61a2 2 0 0 1-1.992 1.992 2 2 0 0 1-1.993-1.993 2 2 0 0 1 1.993-1.992 2 2 0 0 1 1.992 1.992zm0 0" style="fill-rule:nonzero;fill:#000;fill-opacity:1;stroke-width:3.985;stroke-linecap:butt;stroke-linejoin:miter;stroke:#000;stroke-opacity:1;stroke-miterlimit:10" transform="matrix(.1 0 0 -.1 0 107)"/><path d="M378.086 999.61h37.773m.001 0h37.734" style="fill:none;stroke-width:3.985;stroke-linecap:butt;stroke-linejoin:miter;stroke:#000;stroke-opacity:1;stroke-miterlimit:10" transform="matrix(.1 0 0 -.1 0 107)"/><path d="M474.453 999.61c0 1.093-.86 1.992-1.992 1.992-1.055 0-1.953-.899-1.953-1.993 0-1.093.898-1.992 1.953-1.992 1.133 0 1.992.899 1.992 1.992zm0 0" style="fill-rule:nonzero;fill:#000;fill-opacity:1;stroke-width:3.985;stroke-linecap:butt;stroke-linejoin:miter;stroke:#000;stroke-opacity:1;stroke-miterlimit:10" transform="matrix(.1 0 0 -.1 0 107)"/><path d="M491.367 999.61h37.735m0 0h37.773" style="fill:none;stroke-width:3.985;stroke-linecap:butt;stroke-linejoin:miter;stroke:#000;stroke-opacity:1;stroke-miterlimit:10" transform="matrix(.1 0 0 -.1 0 107)"/><path d="M587.773 999.61a2 2 0 0 1-1.992 1.992 2 2 0 0 1-1.992-1.993 2 2 0 0 1 1.992-1.992 2 2 0 0 1 1.992 1.992zm0 0" style="fill-rule:nonzero;fill:#000;fill-opacity:1;stroke-width:3.985;stroke-linecap:butt;stroke-linejoin:miter;stroke:#000;stroke-opacity:1;stroke-miterlimit:10" transform="matrix(.1 0 0 -.1 0 107)"/><path d="M604.648 999.61h37.774m0 0h37.773" style="fill:none;stroke-width:3.985;stroke-linecap:butt;stroke-linejoin:miter;stroke:#000;stroke-opacity:1;stroke-miterlimit:10" transform="matrix(.1 0 0 -.1 0 107)"/><path d="M701.055 999.61a2 2 0 0 1-1.992 1.992 2 2 0 0 1-1.993-1.993 2 2 0 0 1 1.992-1.992 2 2 0 0 1 1.993 1.992zm0 0" style="fill-rule:nonzero;fill:#000;fill-opacity:1;stroke-width:3.985;stroke-linecap:butt;stroke-linejoin:miter;stroke:#000;stroke-opacity:1;stroke-miterlimit:10" transform="matrix(.1 0 0 -.1 0 107)"/><path d="M717.93 999.61h37.773m0 0h37.774" style="fill:none;stroke-width:3.985;stroke-linecap:butt;stroke-linejoin:miter;stroke:#000;stroke-opacity:1;stroke-miterlimit:10" transform="matrix(.1 0 0 -.1 0 107)"/><path d="M814.336 999.61a2 2 0 0 1-1.992 1.992 2 2 0 0 1-1.992-1.993 2 2 0 0 1 1.992-1.992 2 2 0 0 1 1.992 1.992zm0 0" style="fill-rule:nonzero;fill:#000;fill-opacity:1;stroke-width:3.985;stroke-linecap:butt;stroke-linejoin:miter;stroke:#000;stroke-opacity:1;stroke-miterlimit:10" transform="matrix(.1 0 0 -.1 0 107)"/><path d="M831.21 999.61h37.774m0 0h37.774" style="fill:none;stroke-width:3.985;stroke-linecap:butt;stroke-linejoin:miter;stroke:#000;stroke-opacity:1;stroke-miterlimit:10" transform="matrix(.1 0 0 -.1 0 107)"/><path d="M927.617 999.61a2 2 0 0 1-1.992 1.992 2 2 0 0 1-1.992-1.993 2 2 0 0 1 1.992-1.992 2 2 0 0 1 1.992 1.992zm0 0" style="fill-rule:nonzero;fill:#000;fill-opacity:1;stroke-width:3.985;stroke-linecap:butt;stroke-linejoin:miter;stroke:#000;stroke-opacity:1;stroke-miterlimit:10" transform="matrix(.1 0 0 -.1 0 107)"/><path d="M944.531 999.61h37.735m0 0h37.773" style="fill:none;stroke-width:3.985;stroke-linecap:butt;stroke-linejoin:miter;stroke:#000;stroke-opacity:1;stroke-miterlimit:10" transform="matrix(.1 0 0 -.1 0 107)"/><path d="M1040.898 999.61c0 1.093-.859 1.992-1.953 1.992a1.976 1.976 0 0 1-1.992-1.993c0-1.093.86-1.992 1.992-1.992 1.094 0 1.953.899 1.953 1.992zm0 0" style="fill-rule:nonzero;fill:#000;fill-opacity:1;stroke-width:3.985;stroke-linecap:butt;stroke-linejoin:miter;stroke:#000;stroke-opacity:1;stroke-miterlimit:10" transform="matrix(.1 0 0 -.1 0 107)"/><path d="M1057.813 999.61h37.734m0 0h37.773" style="fill:none;stroke-width:3.985;stroke-linecap:butt;stroke-linejoin:miter;stroke:#000;stroke-opacity:1;stroke-miterlimit:10" transform="matrix(.1 0 0 -.1 0 107)"/><path d="M1154.219 999.61c0 1.093-.938 1.992-1.992 1.992a1.976 1.976 0 0 1-1.993-1.993c0-1.093.86-1.992 1.993-1.992 1.054 0 1.992.899 1.992 1.992zm0 0" style="fill-rule:nonzero;fill:#000;fill-opacity:1;stroke-width:3.985;stroke-linecap:butt;stroke-linejoin:miter;stroke:#000;stroke-opacity:1;stroke-miterlimit:10" transform="matrix(.1 0 0 -.1 0 107)"/><path d="M1171.094 999.61h37.773m0 0h37.735" style="fill:none;stroke-width:3.985;stroke-linecap:butt;stroke-linejoin:miter;stroke:#000;stroke-opacity:1;stroke-miterlimit:10" transform="matrix(.1 0 0 -.1 0 107)"/><path d="M1267.5 999.61a2 2 0 0 1-1.992 1.992 2 2 0 0 1-1.992-1.993 2 2 0 0 1 1.992-1.992 2 2 0 0 1 1.992 1.992zm0 0" style="fill-rule:nonzero;fill:#000;fill-opacity:1;stroke-width:3.985;stroke-linecap:butt;stroke-linejoin:miter;stroke:#000;stroke-opacity:1;stroke-miterlimit:10" transform="matrix(.1 0 0 -.1 0 107)"/><path d="M1284.375 999.61h37.773m0 0h37.774" style="fill:none;stroke-width:3.985;stroke-linecap:butt;stroke-linejoin:miter;stroke:#000;stroke-opacity:1;stroke-miterlimit:10" transform="matrix(.1 0 0 -.1 0 107)"/><path d="M1380.781 999.61a2 2 0 0 1-1.992 1.992 2 2 0 0 1-1.992-1.993 2 2 0 0 1 1.992-1.992 2 2 0 0 1 1.992 1.992zm0 0" style="fill-rule:nonzero;fill:#000;fill-opacity:1;stroke-width:3.985;stroke-linecap:butt;stroke-linejoin:miter;stroke:#000;stroke-opacity:1;stroke-miterlimit:10" transform="matrix(.1 0 0 -.1 0 107)"/><path d="M1397.656 999.61h37.774m0 0h37.773" style="fill:none;stroke-width:3.985;stroke-linecap:butt;stroke-linejoin:miter;stroke:#000;stroke-opacity:1;stroke-miterlimit:10" transform="matrix(.1 0 0 -.1 0 107)"/><path d="M1494.063 999.61a2 2 0 0 1-1.993 1.992 2 2 0 0 1-1.992-1.993 2 2 0 0 1 1.992-1.992 2 2 0 0 1 1.993 1.992zm0 0" style="fill-rule:nonzero;fill:#000;fill-opacity:1;stroke-width:3.985;stroke-linecap:butt;stroke-linejoin:miter;stroke:#000;stroke-opacity:1;stroke-miterlimit:10" transform="matrix(.1 0 0 -.1 0 107)"/><path d="M1510.977 999.61h37.734m-.001 0h37.774" style="fill:none;stroke-width:3.985;stroke-linecap:butt;stroke-linejoin:miter;stroke:#000;stroke-opacity:1;stroke-miterlimit:10" transform="matrix(.1 0 0 -.1 0 107)"/><path d="M1607.344 999.61a2 2 0 0 1-1.992 1.992c-1.094 0-1.954-.899-1.954-1.993 0-1.093.86-1.992 1.954-1.992a2 2 0 0 1 1.992 1.992zm0 0" style="fill-rule:nonzero;fill:#000;fill-opacity:1;stroke-width:3.985;stroke-linecap:butt;stroke-linejoin:miter;stroke:#000;stroke-opacity:1;stroke-miterlimit:10" transform="matrix(.1 0 0 -.1 0 107)"/><path d="M1624.258 999.61h37.734m0 0h37.774" style="fill:none;stroke-width:3.985;stroke-linecap:butt;stroke-linejoin:miter;stroke:#000;stroke-opacity:1;stroke-miterlimit:10" transform="matrix(.1 0 0 -.1 0 107)"/><path d="M1720.625 999.61c0 1.093-.86 1.992-1.992 1.992a2 2 0 0 1-1.992-1.993 2 2 0 0 1 1.992-1.992c1.133 0 1.992.899 1.992 1.992zm0 0" style="fill-rule:nonzero;fill:#000;fill-opacity:1;stroke-width:3.985;stroke-linecap:butt;stroke-linejoin:miter;stroke:#000;stroke-opacity:1;stroke-miterlimit:10" transform="matrix(.1 0 0 -.1 0 107)"/><path d="M1737.54 999.61h37.733M302.54 167.617h37.772" style="fill:none;stroke-width:3.985;stroke-linecap:butt;stroke-linejoin:miter;stroke:#000;stroke-opacity:1;stroke-miterlimit:10" transform="matrix(.1 0 0 -.1 0 107)"/><path d="M361.172 167.617a2 2 0 0 1-1.992 1.992 2 2 0 0 1-1.993-1.992c0-1.133.899-1.992 1.993-1.992 1.093 0 1.992.86 1.992 1.992zm0 0" style="fill-rule:nonzero;fill:#000;fill-opacity:1;stroke-width:3.985;stroke-linecap:butt;stroke-linejoin:miter;stroke:#000;stroke-opacity:1;stroke-miterlimit:10" transform="matrix(.1 0 0 -.1 0 107)"/><path d="M378.086 167.617h37.773m.001 0h37.734" style="fill:none;stroke-width:3.985;stroke-linecap:butt;stroke-linejoin:miter;stroke:#000;stroke-opacity:1;stroke-miterlimit:10" transform="matrix(.1 0 0 -.1 0 107)"/><path d="M474.453 167.617c0 1.094-.86 1.992-1.992 1.992-1.055 0-1.953-.898-1.953-1.992 0-1.133.898-1.992 1.953-1.992 1.133 0 1.992.86 1.992 1.992zm0 0" style="fill-rule:nonzero;fill:#000;fill-opacity:1;stroke-width:3.985;stroke-linecap:butt;stroke-linejoin:miter;stroke:#000;stroke-opacity:1;stroke-miterlimit:10" transform="matrix(.1 0 0 -.1 0 107)"/><path d="M491.367 167.617h37.735m0 0h37.773" style="fill:none;stroke-width:3.985;stroke-linecap:butt;stroke-linejoin:miter;stroke:#000;stroke-opacity:1;stroke-miterlimit:10" transform="matrix(.1 0 0 -.1 0 107)"/><path d="M587.773 167.617a2 2 0 0 1-1.992 1.992 2 2 0 0 1-1.992-1.992c0-1.133.899-1.992 1.992-1.992 1.094 0 1.992.86 1.992 1.992zm0 0" style="fill-rule:nonzero;fill:#000;fill-opacity:1;stroke-width:3.985;stroke-linecap:butt;stroke-linejoin:miter;stroke:#000;stroke-opacity:1;stroke-miterlimit:10" transform="matrix(.1 0 0 -.1 0 107)"/><path d="M604.648 167.617h37.774m0 0h37.773" style="fill:none;stroke-width:3.985;stroke-linecap:butt;stroke-linejoin:miter;stroke:#000;stroke-opacity:1;stroke-miterlimit:10" transform="matrix(.1 0 0 -.1 0 107)"/><path d="M701.055 167.617a2 2 0 0 1-1.992 1.992 2 2 0 0 1-1.993-1.992c0-1.133.899-1.992 1.992-1.992 1.094 0 1.993.86 1.993 1.992zm0 0" style="fill-rule:nonzero;fill:#000;fill-opacity:1;stroke-width:3.985;stroke-linecap:butt;stroke-linejoin:miter;stroke:#000;stroke-opacity:1;stroke-miterlimit:10" transform="matrix(.1 0 0 -.1 0 107)"/><path d="M717.93 167.617h37.773m0 0h37.774" style="fill:none;stroke-width:3.985;stroke-linecap:butt;stroke-linejoin:miter;stroke:#000;stroke-opacity:1;stroke-miterlimit:10" transform="matrix(.1 0 0 -.1 0 107)"/><path d="M814.336 167.617a2 2 0 0 1-1.992 1.992 2 2 0 0 1-1.992-1.992c0-1.133.898-1.992 1.992-1.992s1.992.86 1.992 1.992zm0 0" style="fill-rule:nonzero;fill:#000;fill-opacity:1;stroke-width:3.985;stroke-linecap:butt;stroke-linejoin:miter;stroke:#000;stroke-opacity:1;stroke-miterlimit:10" transform="matrix(.1 0 0 -.1 0 107)"/><path d="M831.21 167.617h37.774m0 0h37.774" style="fill:none;stroke-width:3.985;stroke-linecap:butt;stroke-linejoin:miter;stroke:#000;stroke-opacity:1;stroke-miterlimit:10" transform="matrix(.1 0 0 -.1 0 107)"/><path d="M927.617 167.617a2 2 0 0 1-1.992 1.992 2 2 0 0 1-1.992-1.992c0-1.133.898-1.992 1.992-1.992s1.992.86 1.992 1.992zm0 0" style="fill-rule:nonzero;fill:#000;fill-opacity:1;stroke-width:3.985;stroke-linecap:butt;stroke-linejoin:miter;stroke:#000;stroke-opacity:1;stroke-miterlimit:10" transform="matrix(.1 0 0 -.1 0 107)"/><path d="M944.531 167.617h37.735m0 0h37.773" style="fill:none;stroke-width:3.985;stroke-linecap:butt;stroke-linejoin:miter;stroke:#000;stroke-opacity:1;stroke-miterlimit:10" transform="matrix(.1 0 0 -.1 0 107)"/><path d="M1040.898 167.617c0 1.094-.859 1.992-1.953 1.992a1.976 1.976 0 0 1-1.992-1.992c0-1.133.86-1.992 1.992-1.992 1.094 0 1.953.86 1.953 1.992zm0 0" style="fill-rule:nonzero;fill:#000;fill-opacity:1;stroke-width:3.985;stroke-linecap:butt;stroke-linejoin:miter;stroke:#000;stroke-opacity:1;stroke-miterlimit:10" transform="matrix(.1 0 0 -.1 0 107)"/><path d="M1057.813 167.617h37.734m0 0h37.773" style="fill:none;stroke-width:3.985;stroke-linecap:butt;stroke-linejoin:miter;stroke:#000;stroke-opacity:1;stroke-miterlimit:10" transform="matrix(.1 0 0 -.1 0 107)"/><path d="M1154.219 167.617c0 1.094-.938 1.992-1.992 1.992a1.976 1.976 0 0 1-1.993-1.992c0-1.133.86-1.992 1.993-1.992 1.054 0 1.992.86 1.992 1.992zm0 0" style="fill-rule:nonzero;fill:#000;fill-opacity:1;stroke-width:3.985;stroke-linecap:butt;stroke-linejoin:miter;stroke:#000;stroke-opacity:1;stroke-miterlimit:10" transform="matrix(.1 0 0 -.1 0 107)"/><path d="M1171.094 167.617h37.773m0 0h37.735" style="fill:none;stroke-width:3.985;stroke-linecap:butt;stroke-linejoin:miter;stroke:#000;stroke-opacity:1;stroke-miterlimit:10" transform="matrix(.1 0 0 -.1 0 107)"/><path d="M1267.5 167.617a2 2 0 0 1-1.992 1.992 2 2 0 0 1-1.992-1.992c0-1.133.898-1.992 1.992-1.992s1.992.86 1.992 1.992zm0 0" style="fill-rule:nonzero;fill:#000;fill-opacity:1;stroke-width:3.985;stroke-linecap:butt;stroke-linejoin:miter;stroke:#000;stroke-opacity:1;stroke-miterlimit:10" transform="matrix(.1 0 0 -.1 0 107)"/><path d="M1284.375 167.617h37.773m0 0h37.774" style="fill:none;stroke-width:3.985;stroke-linecap:butt;stroke-linejoin:miter;stroke:#000;stroke-opacity:1;stroke-miterlimit:10" transform="matrix(.1 0 0 -.1 0 107)"/><path d="M1380.781 167.617a2 2 0 0 1-1.992 1.992 2 2 0 0 1-1.992-1.992c0-1.133.898-1.992 1.992-1.992s1.992.86 1.992 1.992zm0 0" style="fill-rule:nonzero;fill:#000;fill-opacity:1;stroke-width:3.985;stroke-linecap:butt;stroke-linejoin:miter;stroke:#000;stroke-opacity:1;stroke-miterlimit:10" transform="matrix(.1 0 0 -.1 0 107)"/><path d="M1397.656 167.617h37.774m0 0h37.773" style="fill:none;stroke-width:3.985;stroke-linecap:butt;stroke-linejoin:miter;stroke:#000;stroke-opacity:1;stroke-miterlimit:10" transform="matrix(.1 0 0 -.1 0 107)"/><path d="M1494.063 167.617a2 2 0 0 1-1.993 1.992 2 2 0 0 1-1.992-1.992c0-1.133.899-1.992 1.992-1.992 1.094 0 1.993.86 1.993 1.992zm0 0" style="fill-rule:nonzero;fill:#000;fill-opacity:1;stroke-width:3.985;stroke-linecap:butt;stroke-linejoin:miter;stroke:#000;stroke-opacity:1;stroke-miterlimit:10" transform="matrix(.1 0 0 -.1 0 107)"/><path d="M1510.977 167.617h37.734m-.001 0h37.774" style="fill:none;stroke-width:3.985;stroke-linecap:butt;stroke-linejoin:miter;stroke:#000;stroke-opacity:1;stroke-miterlimit:10" transform="matrix(.1 0 0 -.1 0 107)"/><path d="M1607.344 167.617a2 2 0 0 1-1.992 1.992c-1.094 0-1.954-.898-1.954-1.992 0-1.133.86-1.992 1.954-1.992s1.992.86 1.992 1.992zm0 0" style="fill-rule:nonzero;fill:#000;fill-opacity:1;stroke-width:3.985;stroke-linecap:butt;stroke-linejoin:miter;stroke:#000;stroke-opacity:1;stroke-miterlimit:10" transform="matrix(.1 0 0 -.1 0 107)"/><path d="M1624.258 167.617h37.734m0 0h37.774" style="fill:none;stroke-width:3.985;stroke-linecap:butt;stroke-linejoin:miter;stroke:#000;stroke-opacity:1;stroke-miterlimit:10" transform="matrix(.1 0 0 -.1 0 107)"/><path d="M1720.625 167.617c0 1.094-.86 1.992-1.992 1.992a2 2 0 0 1-1.992-1.992c0-1.133.898-1.992 1.992-1.992 1.133 0 1.992.86 1.992 1.992zm0 0" style="fill-rule:nonzero;fill:#000;fill-opacity:1;stroke-width:3.985;stroke-linecap:butt;stroke-linejoin:miter;stroke:#000;stroke-opacity:1;stroke-miterlimit:10" transform="matrix(.1 0 0 -.1 0 107)"/><path d="M1737.54 167.617h37.733m-942.539 190.86h29.453m58.907 0h29.453m0 0h29.492m58.906 0h29.453m0 0h29.454m58.867 0h29.453m0 0h29.492m58.906 0h29.453m0 0h29.454m58.906 0h29.453m0 0h29.453m58.906 0h29.453m0 0h29.454m58.906 0h29.453m-.001 0h29.454m58.946 0h29.413M832.734 859.375h29.453m58.907 0h29.453m0 0h29.492m58.906 0h29.453m0 0h29.454m58.867 0h29.453m0 0h29.492m58.906 0h29.453m0 0h29.454m58.906 0h29.453m0 0h29.453m58.906 0h29.453m0 0h29.454m58.906 0h29.453m-.001 0h29.454m58.946 0h29.413" style="fill:none;stroke-width:3.985;stroke-linecap:butt;stroke-linejoin:miter;stroke:#000;stroke-opacity:1;stroke-miterlimit:10" transform="matrix(.1 0 0 -.1 0 107)"/><use xlink:href="#a" x="37.048" y="74.032" style="fill:#000;fill-opacity:1"/><use xlink:href="#b" x="40.528" y="74.032" style="fill:#000;fill-opacity:1"/><use xlink:href="#c" x="47.488" y="74.032" style="fill:#000;fill-opacity:1"/><use xlink:href="#d" x="55.408" y="74.032" style="fill:#000;fill-opacity:1"/><use xlink:href="#e" x="60.928" y="74.032" style="fill:#000;fill-opacity:1"/><use xlink:href="#f" x="65.248" y="74.032" style="fill:#000;fill-opacity:1"/><use xlink:href="#g" x="75.208" y="74.032" style="fill:#000;fill-opacity:1"/><use xlink:href="#h" x="32.128" y="23.941" style="fill:#000;fill-opacity:1"/><use xlink:href="#i" x="37.168" y="23.941" style="fill:#000;fill-opacity:1"/><use xlink:href="#j" x="44.368" y="23.941" style="fill:#000;fill-opacity:1"/><use xlink:href="#d" x="55.408" y="23.941" style="fill:#000;fill-opacity:1"/><use xlink:href="#e" x="60.928" y="23.941" style="fill:#000;fill-opacity:1"/><use xlink:href="#f" x="65.248" y="23.941" style="fill:#000;fill-opacity:1"/><use xlink:href="#g" x="75.208" y="23.941" style="fill:#000;fill-opacity:1"/><use xlink:href="#k" x="16.262" y="11.118" style="fill:#000;fill-opacity:1"/><use xlink:href="#l" x="7.743" y="94.32" style="fill:#000;fill-opacity:1"/><use xlink:href="#k" x="16.262" y="94.32" style="fill:#000;fill-opacity:1"/><path d="m891.64 859.375-1.445-.04-1.406-.116-1.406-.196-1.367-.312-1.29-.313-1.328-.468-1.25-.508-1.21-.586-1.211-.664-1.172-.742-1.172-.782-1.094-.859-1.094-.937-1.054-1.016-1.055-1.055-.977-1.133-1.015-1.171-.938-1.25-.937-1.329-.899-1.367-.898-1.406-.86-1.484-.859-1.524-.82-1.562-.82-1.64-.743-1.68-.78-1.72-.743-1.757-.742-1.836-.703-1.836-.704-1.914-.664-1.914-.664-1.992-1.25-4.063-.625-2.11-.586-2.109-.625-2.148-.547-2.188-.585-2.226-.547-2.227-.508-2.265-.547-2.305-.508-2.305-.547-2.343-.468-2.344-1.016-4.766-.43-2.422-.508-2.422-.468-2.46-.47-2.422-.429-2.5-.468-2.461-.47-2.5-.429-2.461-.43-2.5-.468-2.5-.86-5-.468-2.54-.86-5-.469-2.5-.43-2.46-.468-2.5-.43-2.461-1.406-7.383-.469-2.422-.468-2.383-.508-2.422-.47-2.382-1.015-4.688-.547-2.305-.507-2.304-.547-2.266-1.094-4.453-.586-2.188-.586-2.148-.586-2.11-.625-2.109-.625-2.03-.664-2.032-1.328-3.906-.703-1.914-1.406-3.672-.782-1.758-.742-1.719-.781-1.68-.82-1.601-.782-1.602-.859-1.523-.86-1.485-.898-1.406-.937-1.367-.899-1.29-.976-1.25-.977-1.21-2.031-2.188-1.055-.976-1.094-.938-1.132-.859-1.133-.82-1.172-.742-1.211-.664-1.25-.586-1.25-.508-1.29-.43-1.327-.351-1.367-.313-1.368-.195-1.406-.117-1.484-.04m94.257-300.546-1.445.039-1.406.195-1.406.312-1.367.43-1.29.547-1.328.664-1.25.742-1.21.899-1.211.976-1.172 1.094-1.172 1.21-1.094 1.29-1.094 1.406-1.054 1.524-1.055 1.601-.977 1.68-1.015 1.758-1.875 3.828-.899 2.07-.898 2.11-.86 2.226-.859 2.266-.82 2.383-.82 2.46-.743 2.5-.78 2.579-.743 2.656-.742 2.734-.703 2.774-.704 2.851-.664 2.89-.664 2.97-.625 3.046-.625 3.086-.625 3.125-.586 3.164-.625 3.243-.547 3.28-.585 3.321-.547 3.36-.508 3.398-.547 3.438-.508 3.476-.547 3.477-.468 3.554-.508 3.555-.508 3.594-.43 3.633-.508 3.632-.937 7.344-.43 3.711-.937 7.422-.86 7.5-.468 3.71-.43 3.79-.43 3.75-.468 3.75-.86 7.5-.469 3.75-.43 3.75-.468 3.71-.43 3.712-.468 3.71-.938 7.345-.938 7.265-.507 3.594-.47 3.555-.507 3.554-.508 3.477-.547 3.476-.507 3.438-.547 3.398-.547 3.36-.547 3.32-.586 3.281-.586 3.242-.586 3.165-.625 3.125-.625 3.086-.664 3.007-.664 2.97-.664 2.929-.703 2.851-.703 2.774-.703 2.734-.782 2.656-.742 2.578-.781 2.5-1.602 4.805-.859 2.305-.86 2.226-.898 2.11-.937 2.07-.899 1.953-.976 1.836-.977 1.797-1.015 1.68-1.016 1.601-1.055 1.485-1.094 1.445-1.132 1.29-1.133 1.21-1.172 1.055-1.211 1.015-1.25.86-1.25.78-1.29.665-1.327.547-1.367.43-1.368.312-1.406.156-1.484.078" style="fill:none;stroke-width:3.985;stroke-linecap:butt;stroke-linejoin:miter;stroke:#000;stroke-opacity:1;stroke-miterlimit:10" transform="matrix(.1 0 0 -.1 0 107)"/><use xlink:href="#d" x="53.867" y="43.978" style="fill:#000;fill-opacity:1"/><use xlink:href="#e" x="59.387" y="43.978" style="fill:#000;fill-opacity:1"/><use xlink:href="#f" x="63.707" y="43.978" style="fill:#000;fill-opacity:1"/><use xlink:href="#g" x="73.667" y="43.978" style="fill:#000;fill-opacity:1"/><path d="m1775.273 583.594-.117-1.25-.351-1.29-.586-1.171-.782-1.211-1.054-1.094-1.25-1.133-1.485-1.093-1.68-1.016-1.874-1.016-2.11-.976-2.304-.938-2.461-.937-2.696-.86-2.851-.859-3.047-.86-3.242-.78-3.399-.782-3.593-.742-3.75-.703-3.907-.703-4.062-.664-4.219-.664-4.375-.625-4.531-.586-4.649-.586-4.804-.547-4.961-.547-5.078-.508-5.157-.469-5.351-.468-5.43-.47-5.586-.429-5.664-.43-5.781-.39-5.86-.39-6.015-.352-6.055-.39-6.172-.313-6.25-.313-6.367-.312-6.406-.313-6.484-.273-13.204-.547-6.718-.235-6.758-.234-13.672-.469-6.914-.195-6.992-.234-6.992-.196-7.032-.195-14.14-.39-7.11-.157-7.148-.156-7.149-.196-14.375-.312-7.148-.156-7.188-.196-7.187-.117-7.148-.195-7.188-.156-7.11-.157-7.148-.156-7.07-.195-7.07-.156-7.032-.196-6.992-.156-6.953-.195-6.914-.196-6.875-.195-6.836-.195-6.758-.196-6.68-.234-6.64-.234-6.602-.196-6.484-.273-6.406-.234-6.367-.274-6.25-.273-6.172-.274-6.055-.312-6.016-.313-5.859-.351-5.781-.313-5.664-.39-5.586-.352-5.43-.39-5.312-.43-5.196-.43-5.078-.43-4.922-.468-4.843-.47-4.649-.507-4.531-.508-4.375-.547-4.219-.547-4.062-.585-3.907-.625-3.75-.625-3.554-.664-3.438-.665-3.203-.703-3.086-.742-2.851-.742-2.696-.781-2.46-.82-2.305-.82-2.07-.9-1.915-.898-1.68-.898-1.484-.977-1.25-.976-1.015-1.016-.82-1.055-.587-1.093-.351-1.133-.118-1.133" style="fill:none;stroke-width:3.985;stroke-linecap:butt;stroke-linejoin:miter;stroke:#000;stroke-opacity:1;stroke-miterlimit:10" transform="matrix(.1 0 0 -.1 0 107)"/><path d="m1009.453 583.594.04-1.25.155-1.29.157-1.171.312-1.211.313-1.094.43-1.133.507-1.093.547-1.016.625-1.016.703-.976.742-.938.82-.937.9-.86.976-.859 1.015-.86 1.094-.78 1.133-.782 1.172-.742 1.25-.703 1.328-.703 1.328-.664 1.406-.664 1.485-.625 1.484-.586 1.563-.586 1.601-.547 1.64-.547 1.68-.508 3.516-.937 1.836-.47 1.836-.429 1.914-.43 1.914-.39 1.953-.39 1.992-.352 2.032-.39 4.14-.626 2.11-.312 2.148-.313 2.148-.273 2.188-.274 2.226-.273 2.227-.235 4.531-.468 2.305-.235 2.305-.195 2.304-.234 7.032-.586 2.382-.196 2.344-.156 2.383-.156 2.383-.196 2.422-.156 4.765-.312 2.383-.196 2.422-.117 2.383-.195 4.765-.313 2.344-.156 2.383-.195 2.344-.156 2.343-.196 2.344-.156 6.914-.586 4.532-.39 4.453-.47 2.187-.195 2.149-.273 2.148-.234 2.11-.274 4.14-.547 2.031-.312 1.993-.313 1.953-.351 1.953-.313 1.875-.39 1.836-.352 1.836-.39 1.757-.43 3.438-.86 1.64-.468 1.602-.47 1.563-.507 1.523-.508 1.445-.547 1.407-.547 1.367-.585 1.289-.625 1.25-.625 2.344-1.329 1.054-.703 1.016-.742.976-.742.86-.781.82-.82.781-.82.704-.9.625-.898.546-.898.508-.977.43-.976.351-1.016.274-1.055.195-1.093.117-1.133.04-1.133" style="fill:none;stroke-width:3.985;stroke-linecap:butt;stroke-linejoin:miter;stroke:#000;stroke-opacity:1;stroke-miterlimit:10" transform="matrix(.1 0 0 -.1 0 107)"/><use xlink:href="#f" x="115.292" y="65.272" style="fill:#000;fill-opacity:1"/><path d="m1009.453 755.195 19.14 34.102 19.18 26.797 19.141 20 19.14 13.593 19.141 7.618 19.14 2.03 19.18-3.007 19.102-7.773 19.18-12.032 19.14-15.82 19.141-19.258 19.14-22.226 19.141-24.766 19.141-26.914 19.14-28.594 19.141-29.843 19.18-30.664 38.281-62.188 19.14-30.625 19.141-29.727 19.141-28.437 19.14-26.68 19.141-24.531 19.18-21.953 19.14-18.906 19.141-15.47 19.14-11.6 19.141-7.305 19.141-2.54 19.14 2.618 19.18 8.203 19.141 14.219 19.14 20.664 19.141 27.539 19.14 34.883 19.142 42.578 19.14 50.742 19.14 59.336 19.141 68.36" style="fill:none;stroke-width:7.9701;stroke-linecap:butt;stroke-linejoin:miter;stroke:#000;stroke-opacity:1;stroke-miterlimit:10" transform="matrix(.1 0 0 -.1 0 107)"/></svg>