<svg xmlns="http://www.w3.org/2000/svg" xmlns:xlink="http://www.w3.org/1999/xlink" width="196pt" height="134pt" viewBox="0 0 196 134"><defs><symbol id="a" overflow="visible"><path d="M4.64-3.656c0-2.172-.656-3.219-2.015-3.219-1.547 0-2.328 1.234-2.328 3.64 0 1.172.203 2.172.547 2.672.36.485.906.766 1.531.766 1.5 0 2.266-1.297 2.266-3.86zm-.843.5c0 2.125-.375 3-1.297 3-.969 0-1.375-1-1.375-3.438 0-2.094.375-2.922 1.313-2.922.968 0 1.359.97 1.359 3.36m0 0" style="stroke:none"/></symbol><symbol id="c" overflow="visible"><path d="M4.578-2.516c0-1.14-.812-1.937-1.953-1.937-.469 0-.828.14-1.453.5l.094-2.078 3.046.047.047-.047c-.015-.172-.015-.235-.015-.39 0-.157 0-.22.015-.391l-.046-.063s-1.063.063-1.735.063c-.687 0-1.734-.063-1.734-.063l-.063.063.031 1.359c0 .875-.03 1.797-.062 2.25l.203.047c.469-.469.735-.61 1.219-.61.953 0 1.562.688 1.562 1.766C3.734-.89 3.094-.25 2-.25 1.469-.25.969-.422.828-.688L.375-1.5l-.25.14c.234.563.36.876.5 1.313.266.156.672.25 1.094.25.672 0 1.375-.297 1.937-.766.594-.546.922-1.218.922-1.953m0 0" style="stroke:none"/></symbol><symbol id="d" overflow="visible"><path d="M4.172.031v-.297l-.516-.03C3.094-.329 3-.439 3-.954v-5.922l-.14-.047c-.641.344-1.36.64-2.266.953l.078.438h.094c.437-.203.875-.407 1.312-.594.063 0 .078.094.078.328v4.844c0 .515-.11.625-.64.656l-.563.031V.03C1.5.016 2.047 0 2.61 0c.516 0 1.047.016 1.563.031zm0 0" style="stroke:none"/></symbol><symbol id="b" overflow="visible"><path d="M1.828-.531c0-.297-.281-.578-.594-.578-.296 0-.562.28-.562.578s.265.578.547.578c.328 0 .61-.266.61-.578zm0 0" style="stroke:none"/></symbol></defs><path d="m268.008 181.602 1.758 12.656 1.757 4.219 3.516 16.875h5.274l1.796 8.437 1.72 8.438 1.757 3.359 1.758 10.351 1.758 3.165h17.617l3.515 16.875 1.758 5.625 1.758 11.25h5.273l1.797 6.757 1.758 10.118h1.758l1.758 10.546 1.758 6.329h56.289l1.796 6.328 1.758 10.547h1.758l1.758 10.117 1.758 6.758h5.273l1.758 11.25 1.758 5.625 3.515 16.875h17.618l1.757 3.164 1.758 10.351 1.758 3.36 3.516 16.875h5.273l3.516 16.875 1.797 4.218 1.718 12.657m0 0H620m0 0 1.758 12.656 1.758 4.219 1.757 8.437 1.797 8.438h5.235l1.758 8.437 1.796 8.438 1.758 3.359 1.758 10.351 1.758 3.165h17.578l1.758 8.437 1.797 8.438 1.757 5.625 1.758 11.25h5.274l1.758 6.757 1.757 10.118h1.758l1.758 10.546 1.758 6.329h56.328l1.758 6.328 1.758 10.547h1.757l1.758 10.117 1.758 6.758h5.273l1.797 11.25 1.758 5.625 1.719 8.437 1.758 8.438h17.617l1.758 3.164 1.757 10.351 1.758 3.36 3.516 16.875h5.312l1.758 8.437 1.719 8.438 1.797 4.218 1.758 12.657m0 0h528.007m0 0 1.758 12.656 1.758 4.219 3.516 16.875h5.273l3.516 16.875 1.758 3.398 1.796 10.313 1.758 3.164h17.578l3.516 16.875 1.758 5.625 1.758 11.25h5.312l1.719 6.757 1.758 10.118h1.797l1.757 10.546 1.758 6.329h56.328l1.758 6.328 1.758 10.547h1.758l1.758 10.117 1.757 6.758h5.274l1.758 11.25 1.757 5.625 3.516 16.875h17.617l1.758 3.164 1.758 10.351 1.758 3.36 3.515 16.875h5.274l3.515 16.875 1.758 4.218 1.758 12.657m0 0h176.016m0 0 1.757 12.656 1.758 4.219 3.516 16.875h5.312l3.516 16.875 1.719 3.398 1.758 10.313 1.796 3.164h17.579l3.515 16.875 1.797 5.625 1.719 11.25h5.312l1.758 6.757 1.758 10.118h1.758l1.758 10.546 1.757 6.329h56.329l1.757 6.328 1.758 10.547h1.758l1.758 10.156 1.758 6.719h5.273l1.758 11.25 1.758 5.625 3.515 16.875h17.617l1.758 3.164 1.758 10.351 1.758 3.36 3.515 16.875h5.274l1.797 8.437 1.758 8.438 1.757 4.218 1.758 12.657m-1584.023-1080H1852.03" style="fill:none;stroke-width:3.985;stroke-linecap:butt;stroke-linejoin:miter;stroke:#000;stroke-opacity:1;stroke-miterlimit:10" transform="matrix(.1 0 0 -.1 0 134)"/><path d="M26.547 115.852h.601v6h-.601zm79.203 0h.602v6h-.602zm79.2 0h.6v6h-.6zm0 0" style="stroke:none;fill-rule:nonzero;fill:#000;fill-opacity:1"/><use xlink:href="#a" x="24.28" y="130.651" style="fill:#000;fill-opacity:1"/><use xlink:href="#a" x="99.641" y="130.651" style="fill:#000;fill-opacity:1"/><use xlink:href="#b" x="104.802" y="130.651" style="fill:#000;fill-opacity:1"/><use xlink:href="#c" x="107.441" y="130.651" style="fill:#000;fill-opacity:1"/><use xlink:href="#d" x="182.682" y="130.771" style="fill:#000;fill-opacity:1"/><path d="M268.008 181.602v1080" style="fill:none;stroke-width:3.985;stroke-linecap:butt;stroke-linejoin:miter;stroke:#000;stroke-opacity:1;stroke-miterlimit:10" transform="matrix(.1 0 0 -.1 0 134)"/><path d="M20.79 115.492h6v.602h-6zm0-54h6v.602h-6zm0-54h6v.602h-6zm0 0" style="stroke:none;fill-rule:nonzero;fill:#000;fill-opacity:1"/><use xlink:href="#a" x="13.789" y="119.2" style="fill:#000;fill-opacity:1"/><use xlink:href="#a" x="5.989" y="65.199" style="fill:#000;fill-opacity:1"/><use xlink:href="#b" x="11.149" y="65.199" style="fill:#000;fill-opacity:1"/><use xlink:href="#c" x="13.789" y="65.199" style="fill:#000;fill-opacity:1"/><use xlink:href="#d" x="13.789" y="11.319" style="fill:#000;fill-opacity:1"/></svg>