<svg xmlns="http://www.w3.org/2000/svg" xmlns:xlink="http://www.w3.org/1999/xlink" width="472" height="212" viewBox="0 0 354 159"><defs><symbol id="a" overflow="visible"><path d="M6.484-5.234c0-.125 0-.344-.203-.344s-.593.156-.797.25l-.062.125c.047.187.094.406.094.594 0 1.28-2.063 3.312-2.797 4.375L2.64-.281c.25-1.047.453-2.078.453-3.156 0-.922-.125-2.22-1.344-2.22C.983-5.657.53-5.094.171-4.5v.063l.062.078.063-.016c.281-.328.516-.547.953-.547 1.14 0 1.281 1.469 1.281 2.297 0 1-.11 1.984-.265 2.969-.563.687-1.094 1.812-1.407 2.625.032.11.094.203.141.297.25-.063.5-.157.734-.266.282-.813.579-1.734.735-2.563.703-.953 1.5-1.875 2.281-2.75.656-.718 1.734-1.906 1.734-2.921zm0 0" style="stroke:none"/></symbol><symbol id="f" overflow="visible"><path d="M5.625-6.938c0-.765-.406-1.187-1.172-1.187-.375 0-.75.078-1.078.219-1.922.797-2.063 2.656-2.328 4.453-.344 2.234-.64 4.5-1.125 6.719l.094.109c.296-.094.609-.203.921-.281.047-1.156.204-2.313.344-3.438.39.375.907.516 1.438.516 1.437 0 2.765-1.125 2.765-2.625 0-1.14-.875-1.828-1.953-1.844v-.11c1.078-.374 2.094-1.312 2.094-2.53zm-.844.266c0 1.344-1.11 2.234-2.375 2.234-.047.141-.078.297-.125.407l.078.093c.204-.078.375-.109.579-.109.984 0 1.578.563 1.578 1.563 0 1.109-.625 2.343-1.891 2.343C1.937-.14 1.5-.53 1.5-1.234c0-1.22.656-5.594 1.734-6.282a1.2 1.2 0 0 1 .641-.203c.625 0 .906.469.906 1.047m0 0" style="stroke:none"/></symbol><symbol id="g" overflow="visible"><path d="M7.266-5.578c-.829.016-1.672.047-2.516.047-1.016 0-2.047-.032-3.063-.032-.78-.015-.937.907-1.156 1.5l.016.079.094.062.093-.047c.485-.75.766-.875 1.672-.875h.266C2.234-3.172 1.844-1.547 1.125.031l.094.11c.234-.063.656-.157.875-.297.453-1.532.765-3.125 1.062-4.688h2.719C5.219-3.797 4.75-2.547 4.75-1.297c0 .594.203 1.469.922 1.469.5 0 1.125-.469 1.484-.781l.032-.079-.063-.093-.094-.016c-.203.125-.437.297-.734.297-.656 0-.734-1-.734-1.484 0-1.016.312-2 .828-2.86L7.125-5c.016-.203.094-.406.14-.578zm0 0" style="stroke:none"/></symbol><symbol id="b" overflow="visible"><path d="M3.64-9.031C1.813-7.844.72-5.797.72-3.234c0 2.343 1.14 4.578 2.875 5.78l.156-.202C2.094.906 1.812-.484 1.812-3.281c0-2.781.313-4.219 1.938-5.547zm0 0" style="stroke:none"/></symbol><symbol id="d" overflow="visible"><path d="m.5-9.031-.125.203C2.015-7.5 2.328-6.063 2.328-3.281c0 2.797-.281 4.187-1.953 5.625l.156.203c1.75-1.203 2.89-3.438 2.89-5.781 0-2.563-1.108-4.61-2.921-5.797m0 0" style="stroke:none"/></symbol><symbol id="j" overflow="visible"><path d="M.781 2.422h.656l3.58-11.313h-.672zm0 0" style="stroke:none"/></symbol><symbol id="c" overflow="visible"><path d="M5.563-4.375c0-2.625-.782-3.86-2.422-3.86-1.844 0-2.797 1.47-2.797 4.36 0 1.406.25 2.61.672 3.188.421.593 1.093.921 1.828.921 1.812 0 2.719-1.546 2.719-4.609m-1.016.594c0 2.547-.453 3.61-1.547 3.61-1.156 0-1.656-1.22-1.656-4.126 0-2.531.453-3.516 1.578-3.516 1.172 0 1.625 1.172 1.625 4.032m0 0" style="stroke:none"/></symbol><symbol id="h" overflow="visible"><path d="M5.594.031c-.032-.25-.032-.36-.032-.531 0-.156 0-.281.032-.547l-4.14.125L3.64-3.234c1.156-1.22 1.515-1.875 1.515-2.782 0-1.375-.937-2.218-2.453-2.218-.86 0-1.453.234-2.031.828l-.203 1.64h.344l.156-.562c.187-.688.625-.984 1.422-.984 1.03 0 1.687.64 1.687 1.656 0 .906-.5 1.781-1.86 3.218L.189-.28v.31C1.078.016 1.968 0 2.858 0c.907 0 1.829.016 2.735.031zm0 0" style="stroke:none"/></symbol><symbol id="e" overflow="visible"><path d="M.781-4.14H7.22v-.72H.78zm0 2.53H7.22v-.702H.78zm0 0" style="stroke:none"/></symbol><symbol id="i" overflow="visible"><path d="M5.328-4.094c-.61.016-1.219.032-1.844.032-.75 0-1.5-.016-2.25-.016-.562-.016-.687.672-.843 1.094l.015.062.063.047.062-.031c.36-.563.578-.64 1.235-.64h.203C1.64-2.329 1.344-1.126.829.015L.89.109c.171-.062.484-.125.64-.218.328-1.125.563-2.297.782-3.438h2c-.485.766-.829 1.688-.829 2.594 0 .437.141 1.078.672 1.078.36 0 .828-.344 1.094-.578L5.266-.5l-.047-.078-.063-.016c-.156.11-.328.219-.531.219-.484 0-.547-.719-.547-1.078 0-.75.234-1.469.61-2.094l.53-.11c.016-.155.079-.312.11-.437m0 0" style="stroke:none"/></symbol><symbol id="k" overflow="visible"><path d="M4.14.031v-.265l-.42-.032c-.438-.03-.531-.14-.531-.656v-.672c.515 0 .703.016.953.047v-.625s-.438.031-.72.031h-.233v-1.218c0-1.563.015-2.329.062-2.688l-.11-.031-.64.234L.016-1.78l.093.187h2.344v.672c0 .516-.094.64-.531.656l-.531.032V.03C1.859.016 2.328 0 2.797 0c.453 0 .89.016 1.344.031zM2.454-2.14H.563l1.89-3.093zm0 0" style="stroke:none"/></symbol><symbol id="l" overflow="visible"><path d="M4.063-1.813c0-.687-.313-1.078-1.313-1.53.797-.548 1.078-.907 1.078-1.438 0-.75-.625-1.266-1.562-1.266-1.032 0-1.797.672-1.797 1.594 0 .594.234.922 1 1.422-.36.172-.5.265-.703.453-.329.328-.5.734-.5 1.187C.266-.484.984.172 1.984.172c1.141 0 2.079-.89 2.079-1.984zm-.688.375c0 .735-.547 1.313-1.266 1.313-.734 0-1.218-.531-1.218-1.344 0-.64.25-1.031.89-1.437l.703.328c.563.234.891.672.891 1.14m-.156-3.25c0 .5-.219.844-.781 1.22l-.485-.235c-.547-.281-.828-.625-.828-1.063 0-.578.422-.968 1.047-.968.64 0 1.047.406 1.047 1.046m0 0" style="stroke:none"/></symbol><symbol id="m" overflow="visible"><path d="M4-3.656c0-1.485-.703-2.39-1.86-2.39-1.124 0-1.968.89-1.968 2.062 0 1 .656 1.734 1.578 1.734.297 0 .64-.094.797-.219l.61-.515C3.077-1.5 2.124-.422.546-.047v.078l.297.14c.969-.312 1.39-.515 1.86-.921C3.561-1.469 4-2.484 4-3.656m-.75-.469c0 .797-.469 1.344-1.14 1.344-.704 0-1.188-.625-1.188-1.531 0-.891.469-1.438 1.187-1.438.391 0 .672.172.875.516.157.28.266.718.266 1.109m0 0" style="stroke:none"/></symbol><symbol id="n" overflow="visible"><path d="M4.11.031c-.032-.187-.032-.281-.032-.406 0-.11 0-.188.031-.39l-3.046.093 1.609-1.687c.844-.907 1.11-1.391 1.11-2.047 0-1.016-.688-1.64-1.798-1.64-.64 0-1.062.187-1.5.624l-.14 1.188h.25l.11-.407c.14-.5.468-.718 1.046-.718.75 0 1.234.468 1.234 1.218 0 .657-.359 1.297-1.359 2.36L.141-.203V.03C.78.016 1.453 0 2.094 0c.672 0 1.344.016 2.015.031zm0 0" style="stroke:none"/></symbol><symbol id="o" overflow="visible"><path d="M4.031-2.219c0-.984-.718-1.687-1.718-1.687-.422 0-.735.11-1.282.437l.078-1.828 2.672.031.047-.03c-.015-.173-.015-.22-.015-.345 0-.14 0-.203.015-.359l-.047-.047S2.86-6 2.266-6 .734-6.047.734-6.047L.688-6l.015 1.203c0 .766-.015 1.594-.047 1.969l.172.062c.422-.421.656-.53 1.078-.53.844 0 1.375.593 1.375 1.53 0 .985-.562 1.547-1.515 1.547-.485 0-.922-.156-1.032-.39l-.406-.72-.219.126c.204.5.313.781.438 1.172.234.125.594.203.969.203.593 0 1.203-.25 1.687-.672.547-.469.828-1.063.828-1.719m0 0" style="stroke:none"/></symbol><symbol id="p" overflow="visible"><path d="M4.047-1.969c0-.422-.172-.781-.484-1-.22-.156-.422-.234-.86-.312.703-.547.953-.938.953-1.469 0-.766-.64-1.297-1.61-1.297-.593 0-1 .172-1.421.594L.375-4.36h.281l.156-.5c.094-.297.641-.594 1.094-.594.578 0 1.032.469 1.032 1.016 0 .656-.516 1.218-1.126 1.218-.078 0-.421-.031-.421-.031l-.11.469.063.047c.343-.157.5-.188.75-.188.719 0 1.14.453 1.14 1.25 0 .906-.53 1.484-1.343 1.484-.407 0-.766-.124-1.032-.374C.656-.75.531-.954.375-1.422l-.25.078c.188.532.266.86.313 1.297.468.156.843.219 1.171.219 1.063 0 2.438-.922 2.438-2.14zm0 0" style="stroke:none"/></symbol><symbol id="q" overflow="visible"><path d="M4.36-5.781v-.266C3.405-6 3.327-6 2.39-6c-.92 0-1.061 0-1.92-.047L.39-6s.015.563.015.922-.015.89-.015.89h.265l.047-.484c.078-.547.14-.61.547-.61h2.328c-.344.72-.61 1.22-.953 1.75L.485-.093l.078.125S.813 0 .969 0s.406.031.406.031C1.75-.922 1.969-1.5 2.75-2.89zm0 0" style="stroke:none"/></symbol></defs><path d="M1760 831.602h221.563" style="fill:none;stroke-width:3.985;stroke-linecap:butt;stroke-linejoin:miter;stroke:#000;stroke-opacity:1;stroke-miterlimit:10" transform="matrix(.1 0 0 -.1 0 159)"/><path d="m197.332 75.84-7.394 1.492 8.218-1.492-8.219-1.496z" style="stroke:none;fill-rule:nonzero;fill:#000;fill-opacity:1"/><path d="m1973.32 831.602-73.945-14.922 82.188 14.922-82.188 14.96zm-213.32 0v221.562" style="fill:none;stroke-width:3.985;stroke-linecap:butt;stroke-linejoin:miter;stroke:#000;stroke-opacity:1;stroke-miterlimit:10" transform="matrix(.1 0 0 -.1 0 159)"/><path d="m176 54.508 1.496 7.394L176 53.684l-1.492 8.218z" style="stroke:none;fill-rule:nonzero;fill:#000;fill-opacity:1"/><path d="m1760 1044.922 14.96-73.945-14.96 82.187-14.922-82.187zm0 0" style="fill:none;stroke-width:3.985;stroke-linecap:butt;stroke-linejoin:miter;stroke:#000;stroke-opacity:1;stroke-miterlimit:10" transform="matrix(.1 0 0 -.1 0 159)"/><path d="m2313.867 831.602-.781 28.984-2.266 28.945-3.789 28.711-5.273 28.516L2295 974.96l-8.242 27.812-9.688 27.305-11.093 26.797-12.461 26.172-13.868 25.508-15.156 24.687-16.406 23.906-17.656 23.008-18.828 22.07-19.961 21.016-21.016 19.961-22.07 18.828-23.008 17.657-23.906 16.406-24.727 15.156-25.469 13.867-26.172 12.461-26.796 11.094-27.305 9.687-27.813 8.243-28.203 6.757-28.515 5.274-28.75 3.789-28.907 2.265-28.984.782-28.984-.782-28.907-2.265-28.75-3.79-28.515-5.273-28.203-6.757-27.774-8.243-27.344-9.687-26.796-11.094-26.172-12.46-25.47-13.868-24.726-15.156-23.906-16.407-23.008-17.656-22.03-18.828-21.017-19.96-20-21.016-18.828-22.07-17.617-23.009-16.445-23.906-15.156-24.687-13.829-25.508-12.5-26.172-11.093-26.797-9.688-27.305-8.203-27.812-6.797-28.203-5.273-28.516-3.79-28.71-2.265-28.946-.742-28.984.742-28.985 2.266-28.906 3.789-28.75 5.273-28.516 6.797-28.164 8.203-27.812 9.688-27.344 11.093-26.797 12.5-26.172 13.829-25.468 15.156-24.727 16.445-23.906 17.617-23.008 18.828-22.031 20-21.055 21.016-19.96 22.031-18.828 23.008-17.617 23.906-16.446 24.727-15.156 25.469-13.828 26.172-12.5 26.796-11.094 27.344-9.687 27.774-8.203 28.203-6.797 28.515-5.274 28.75-3.789 28.907-2.265 28.984-.743 28.984.743 28.907 2.265 28.75 3.79 28.515 5.273 28.203 6.797 27.813 8.203 27.305 9.687 26.796 11.094 26.172 12.5 25.47 13.828 24.726 15.156 23.906 16.446 23.008 17.617 22.07 18.828 21.016 19.96 19.96 21.056 18.829 22.03 17.656 23.009 16.406 23.906 15.156 24.726 13.868 25.47 12.46 26.171 11.094 26.797 9.688 27.344L2295 688.28l6.758 28.164 5.273 28.516 3.79 28.75 2.265 28.906zm0 0" style="fill:none;stroke-width:7.9701;stroke-linecap:butt;stroke-linejoin:miter;stroke:#000;stroke-opacity:1;stroke-miterlimit:10" transform="matrix(.1 0 0 -.1 0 159)"/><path d="m231.172 84.055 1.492.039-1.277-8.254-1.711 8.176z" style="stroke:none;fill-rule:nonzero;fill:#000;fill-opacity:1"/><path d="m2311.719 749.453 14.922-.39-12.774 82.539-17.11-81.758zm0 0" style="fill:none;stroke-width:7.9701;stroke-linecap:butt;stroke-linejoin:miter;stroke:#000;stroke-opacity:1;stroke-miterlimit:10" transform="matrix(.1 0 0 -.1 0 159)"/><path d="M2328.79 831.602c0 8.242-6.68 14.96-14.923 14.96s-14.96-6.718-14.96-14.96 6.718-14.922 14.96-14.922 14.922 6.68 14.922 14.922zm0 0" style="fill-rule:nonzero;fill:#000;fill-opacity:1;stroke-width:7.9701;stroke-linecap:butt;stroke-linejoin:miter;stroke:#000;stroke-opacity:1;stroke-miterlimit:10" transform="matrix(.1 0 0 -.1 0 159)"/><use xlink:href="#a" x="234.516" y="65.767" style="fill:#000;fill-opacity:1"/><use xlink:href="#b" x="241.836" y="65.767" style="fill:#000;fill-opacity:1"/><use xlink:href="#c" x="245.916" y="65.767" style="fill:#000;fill-opacity:1"/><use xlink:href="#d" x="251.916" y="65.767" style="fill:#000;fill-opacity:1"/><use xlink:href="#e" x="259.356" y="65.767" style="fill:#000;fill-opacity:1"/><use xlink:href="#f" x="270.876" y="65.767" style="fill:#000;fill-opacity:1"/><use xlink:href="#b" x="277.356" y="65.767" style="fill:#000;fill-opacity:1"/><use xlink:href="#c" x="281.436" y="65.767" style="fill:#000;fill-opacity:1"/><use xlink:href="#d" x="287.436" y="65.767" style="fill:#000;fill-opacity:1"/><use xlink:href="#e" x="294.876" y="65.767" style="fill:#000;fill-opacity:1"/><use xlink:href="#f" x="306.396" y="65.767" style="fill:#000;fill-opacity:1"/><use xlink:href="#b" x="312.876" y="65.767" style="fill:#000;fill-opacity:1"/><use xlink:href="#g" x="316.956" y="65.767" style="fill:#000;fill-opacity:1"/><use xlink:href="#d" x="324.876" y="65.767" style="fill:#000;fill-opacity:1"/><use xlink:href="#a" x="234.516" y="91.671" style="fill:#000;fill-opacity:1"/><use xlink:href="#b" x="241.836" y="91.671" style="fill:#000;fill-opacity:1"/><use xlink:href="#h" x="245.916" y="91.671" style="fill:#000;fill-opacity:1"/><use xlink:href="#g" x="251.916" y="91.671" style="fill:#000;fill-opacity:1"/><use xlink:href="#d" x="259.836" y="91.671" style="fill:#000;fill-opacity:1"/><use xlink:href="#e" x="267.396" y="91.671" style="fill:#000;fill-opacity:1"/><use xlink:href="#f" x="278.796" y="91.671" style="fill:#000;fill-opacity:1"/><use xlink:href="#b" x="285.276" y="91.671" style="fill:#000;fill-opacity:1"/><use xlink:href="#h" x="289.356" y="91.671" style="fill:#000;fill-opacity:1"/><use xlink:href="#g" x="295.356" y="91.671" style="fill:#000;fill-opacity:1"/><use xlink:href="#d" x="303.276" y="91.671" style="fill:#000;fill-opacity:1"/><path d="M2166.602 1223.242c0 8.242-6.72 14.961-14.961 14.961-8.243 0-14.922-6.719-14.922-14.96 0-8.243 6.68-14.962 14.922-14.962s14.96 6.719 14.96 14.961zm0 0" style="fill-rule:nonzero;fill:#000;fill-opacity:1;stroke-width:7.9701;stroke-linecap:butt;stroke-linejoin:miter;stroke:#000;stroke-opacity:1;stroke-miterlimit:10" transform="matrix(.1 0 0 -.1 0 159)"/><use xlink:href="#a" x="221.063" y="34.017" style="fill:#000;fill-opacity:1"/><use xlink:href="#b" x="228.383" y="34.017" style="fill:#000;fill-opacity:1"/><use xlink:href="#i" x="232.463" y="31.737" style="fill:#000;fill-opacity:1"/><use xlink:href="#j" x="237.023" y="34.017" style="fill:#000;fill-opacity:1"/><use xlink:href="#k" x="242.063" y="34.017" style="fill:#000;fill-opacity:1"/><use xlink:href="#d" x="246.503" y="34.017" style="fill:#000;fill-opacity:1"/><use xlink:href="#e" x="253.943" y="34.017" style="fill:#000;fill-opacity:1"/><use xlink:href="#f" x="265.463" y="34.017" style="fill:#000;fill-opacity:1"/><use xlink:href="#b" x="271.943" y="34.017" style="fill:#000;fill-opacity:1"/><use xlink:href="#i" x="276.023" y="31.737" style="fill:#000;fill-opacity:1"/><use xlink:href="#j" x="280.583" y="34.017" style="fill:#000;fill-opacity:1"/><use xlink:href="#l" x="285.623" y="34.017" style="fill:#000;fill-opacity:1"/><use xlink:href="#d" x="290.063" y="34.017" style="fill:#000;fill-opacity:1"/><use xlink:href="#e" x="297.503" y="34.017" style="fill:#000;fill-opacity:1"/><use xlink:href="#f" x="308.903" y="34.017" style="fill:#000;fill-opacity:1"/><use xlink:href="#b" x="315.383" y="34.017" style="fill:#000;fill-opacity:1"/><use xlink:href="#m" x="319.463" y="31.737" style="fill:#000;fill-opacity:1"/><use xlink:href="#i" x="323.903" y="31.737" style="fill:#000;fill-opacity:1"/><use xlink:href="#j" x="328.463" y="34.017" style="fill:#000;fill-opacity:1"/><use xlink:href="#l" x="333.503" y="34.017" style="fill:#000;fill-opacity:1"/><use xlink:href="#d" x="337.943" y="34.017" style="fill:#000;fill-opacity:1"/><path d="M1774.96 1385.469c0 8.242-6.718 14.922-14.96 14.922s-14.922-6.68-14.922-14.922 6.68-14.961 14.922-14.961 14.96 6.719 14.96 14.96zm0 0" style="fill-rule:nonzero;fill:#000;fill-opacity:1;stroke-width:7.9701;stroke-linecap:butt;stroke-linejoin:miter;stroke:#000;stroke-opacity:1;stroke-miterlimit:10" transform="matrix(.1 0 0 -.1 0 159)"/><use xlink:href="#a" x="115.641" y="12.112" style="fill:#000;fill-opacity:1"/><use xlink:href="#b" x="122.961" y="12.112" style="fill:#000;fill-opacity:1"/><use xlink:href="#i" x="127.041" y="9.952" style="fill:#000;fill-opacity:1"/><use xlink:href="#j" x="131.601" y="12.112" style="fill:#000;fill-opacity:1"/><use xlink:href="#n" x="136.641" y="12.112" style="fill:#000;fill-opacity:1"/><use xlink:href="#d" x="141.08" y="12.112" style="fill:#000;fill-opacity:1"/><use xlink:href="#e" x="148.52" y="12.112" style="fill:#000;fill-opacity:1"/><use xlink:href="#f" x="160.04" y="12.112" style="fill:#000;fill-opacity:1"/><use xlink:href="#b" x="166.52" y="12.112" style="fill:#000;fill-opacity:1"/><use xlink:href="#i" x="170.601" y="9.952" style="fill:#000;fill-opacity:1"/><use xlink:href="#j" x="175.161" y="12.112" style="fill:#000;fill-opacity:1"/><use xlink:href="#k" x="180.201" y="12.112" style="fill:#000;fill-opacity:1"/><use xlink:href="#d" x="184.641" y="12.112" style="fill:#000;fill-opacity:1"/><use xlink:href="#e" x="192.08" y="12.112" style="fill:#000;fill-opacity:1"/><use xlink:href="#f" x="203.6" y="12.112" style="fill:#000;fill-opacity:1"/><use xlink:href="#b" x="210.08" y="12.112" style="fill:#000;fill-opacity:1"/><use xlink:href="#o" x="214.161" y="9.952" style="fill:#000;fill-opacity:1"/><use xlink:href="#i" x="218.601" y="9.952" style="fill:#000;fill-opacity:1"/><use xlink:href="#j" x="223.041" y="12.112" style="fill:#000;fill-opacity:1"/><use xlink:href="#k" x="228.081" y="12.112" style="fill:#000;fill-opacity:1"/><use xlink:href="#d" x="232.521" y="12.112" style="fill:#000;fill-opacity:1"/><path d="M1221.094 831.602c0 8.242-6.68 14.96-14.922 14.96-8.281 0-14.961-6.718-14.961-14.96s6.68-14.922 14.96-14.922c8.243 0 14.923 6.68 14.923 14.922zm0 0" style="fill-rule:nonzero;fill:#000;fill-opacity:1;stroke-width:7.9701;stroke-linecap:butt;stroke-linejoin:miter;stroke:#000;stroke-opacity:1;stroke-miterlimit:10" transform="matrix(.1 0 0 -.1 0 159)"/><use xlink:href="#a" x=".675" y="78.719" style="fill:#000;fill-opacity:1"/><use xlink:href="#b" x="7.995" y="78.719" style="fill:#000;fill-opacity:1"/><use xlink:href="#g" x="12.075" y="78.719" style="fill:#000;fill-opacity:1"/><use xlink:href="#d" x="19.995" y="78.719" style="fill:#000;fill-opacity:1"/><use xlink:href="#e" x="27.555" y="78.719" style="fill:#000;fill-opacity:1"/><use xlink:href="#f" x="38.955" y="78.719" style="fill:#000;fill-opacity:1"/><use xlink:href="#b" x="45.435" y="78.719" style="fill:#000;fill-opacity:1"/><use xlink:href="#i" x="49.515" y="76.439" style="fill:#000;fill-opacity:1"/><use xlink:href="#j" x="54.075" y="78.719" style="fill:#000;fill-opacity:1"/><use xlink:href="#n" x="59.115" y="78.719" style="fill:#000;fill-opacity:1"/><use xlink:href="#d" x="63.555" y="78.719" style="fill:#000;fill-opacity:1"/><use xlink:href="#e" x="70.995" y="78.719" style="fill:#000;fill-opacity:1"/><use xlink:href="#f" x="82.514" y="78.719" style="fill:#000;fill-opacity:1"/><use xlink:href="#b" x="88.995" y="78.719" style="fill:#000;fill-opacity:1"/><use xlink:href="#p" x="93.075" y="76.439" style="fill:#000;fill-opacity:1"/><use xlink:href="#i" x="97.515" y="76.439" style="fill:#000;fill-opacity:1"/><use xlink:href="#j" x="101.955" y="78.719" style="fill:#000;fill-opacity:1"/><use xlink:href="#n" x="106.995" y="78.719" style="fill:#000;fill-opacity:1"/><use xlink:href="#d" x="111.555" y="78.719" style="fill:#000;fill-opacity:1"/><path d="M1774.96 277.773c0 8.243-6.718 14.922-14.96 14.922s-14.922-6.68-14.922-14.922 6.68-14.96 14.922-14.96 14.96 6.718 14.96 14.96zm0 0" style="fill-rule:nonzero;fill:#000;fill-opacity:1;stroke-width:7.9701;stroke-linecap:butt;stroke-linejoin:miter;stroke:#000;stroke-opacity:1;stroke-miterlimit:10" transform="matrix(.1 0 0 -.1 0 159)"/><use xlink:href="#a" x="111.321" y="146.322" style="fill:#000;fill-opacity:1"/><use xlink:href="#b" x="118.641" y="146.322" style="fill:#000;fill-opacity:1"/><use xlink:href="#p" x="122.721" y="144.042" style="fill:#000;fill-opacity:1"/><use xlink:href="#i" x="127.161" y="144.042" style="fill:#000;fill-opacity:1"/><use xlink:href="#j" x="131.601" y="146.322" style="fill:#000;fill-opacity:1"/><use xlink:href="#n" x="136.641" y="146.322" style="fill:#000;fill-opacity:1"/><use xlink:href="#d" x="141.08" y="146.322" style="fill:#000;fill-opacity:1"/><use xlink:href="#e" x="148.52" y="146.322" style="fill:#000;fill-opacity:1"/><use xlink:href="#f" x="160.04" y="146.322" style="fill:#000;fill-opacity:1"/><use xlink:href="#b" x="166.52" y="146.322" style="fill:#000;fill-opacity:1"/><use xlink:href="#p" x="170.601" y="144.042" style="fill:#000;fill-opacity:1"/><use xlink:href="#i" x="175.04" y="144.042" style="fill:#000;fill-opacity:1"/><use xlink:href="#j" x="179.481" y="146.322" style="fill:#000;fill-opacity:1"/><use xlink:href="#k" x="184.521" y="146.322" style="fill:#000;fill-opacity:1"/><use xlink:href="#d" x="189.081" y="146.322" style="fill:#000;fill-opacity:1"/><use xlink:href="#e" x="196.521" y="146.322" style="fill:#000;fill-opacity:1"/><use xlink:href="#f" x="207.921" y="146.322" style="fill:#000;fill-opacity:1"/><use xlink:href="#b" x="214.401" y="146.322" style="fill:#000;fill-opacity:1"/><use xlink:href="#q" x="218.481" y="144.042" style="fill:#000;fill-opacity:1"/><use xlink:href="#i" x="222.921" y="144.042" style="fill:#000;fill-opacity:1"/><use xlink:href="#j" x="227.481" y="146.322" style="fill:#000;fill-opacity:1"/><use xlink:href="#k" x="232.521" y="146.322" style="fill:#000;fill-opacity:1"/><use xlink:href="#d" x="236.96" y="146.322" style="fill:#000;fill-opacity:1"/></svg>