<svg xmlns="http://www.w3.org/2000/svg" xmlns:xlink="http://www.w3.org/1999/xlink" width="182pt" height="110pt" viewBox="0 0 182 110"><defs><symbol id="a" overflow="visible"><path d="m5.36-.938-.094-.234c-.438.36-.735.531-.922.531C4.156-.64 4-.75 3.89-.984a4.8 4.8 0 0 1-.313-1.032l-.203-1.203.422-.578c.547-.781.875-1.062 1.25-1.062.187 0 .328.109.39.28l.172-.046.172-1.016c-.14-.078-.25-.125-.36-.125-.468 0-.952.438-1.687 1.532l-.453.656-.062-.563c-.14-1.187-.469-1.625-1.172-1.625-.313 0-.578.094-.688.25l-.687 1 .203.11c.36-.407.594-.563.828-.563.39 0 .656.485.86 1.657l.124.75-.468.734C1.703-1.031 1.297-.641.953-.641.781-.64.641-.687.625-.75l-.14-.344-.235.047c0 .234-.016.39-.094.766-.031.156-.031.187-.047.265.172.094.375.141.516.141.39 0 .86-.344 1.234-.906l.907-1.39.125.827C3.062-.328 3.328.125 3.75.125c.266 0 .656-.203 1.031-.547zm0 0" style="stroke:none"/></symbol><symbol id="c" overflow="visible"><path d="m2.875-1.016-.11-.218-.312.203c-.36.25-.61.36-.734.36-.078 0-.157-.11-.157-.235s.016-.219.094-.485l.907-3.625a1.4 1.4 0 0 0 .078-.437c0-.203-.094-.313-.297-.313-.266 0-.688.25-1.61.891l-.328.234.078.235.391-.25c.344-.219.469-.266.578-.266.11 0 .203.11.203.25 0 .094-.047.344-.11.531l-.78 2.86c-.11.39-.157.687-.157.922 0 .28.125.468.36.468.312 0 .75-.265 1.906-1.125M3.156-8c0-.281-.187-.484-.437-.484-.36 0-.688.39-.688.796 0 .297.188.485.485.485.359 0 .64-.344.64-.797m0 0" style="stroke:none"/></symbol><symbol id="d" overflow="visible"><path d="m5.86-5.656-.141-.11c-.344.141-.61.204-.875.235l-.422 1.578c-.14.562-.563 1.437-.953 2.015-.422.61-1 1.141-1.266 1.141-.265 0-.25-.578-.234-.734l.187-2.313c.016-.375.047-.828.047-1.172 0-.53-.094-.75-.297-.75-.156 0-.312.094-.89.485L.03-4.61l.14.203.595-.344c.062-.063.218-.156.296-.156.313 0 .266.61.25.812L1.11-1.187l-.015.468c0 .5.218.844.515.844.454 0 1.454-1.016 2.344-2.36L3.375-.187c-.61 2.11-1.219 2.985-2.047 2.985a.737.737 0 0 1-.75-.735c0-.062.016-.156.031-.265L.484 1.75l-.562.406c-.016.078-.016.156-.016.203 0 .516.438.938.985.938 1.265 0 2.578-1.485 3.28-3.688zm0 0" style="stroke:none"/></symbol><symbol id="h" overflow="visible"><path d="m2.61-1.297-.172-.172c-.329.11-.532.172-1.172.36C1.187-.203.89.578.187 1.719l.172.14.485-.234c.969-1.25 1.422-2 1.765-2.922zm0 0" style="stroke:none"/></symbol><symbol id="b" overflow="visible"><path d="M7.281-2.906v-.672H4.344V-6.5h-.657v2.922H.75v.672h2.938V.03h.656v-2.937zm0 0" style="stroke:none"/></symbol><symbol id="g" overflow="visible"><path d="M3.64-9.031C1.813-7.844.72-5.797.72-3.234c0 2.343 1.14 4.578 2.875 5.78l.156-.202C2.094.906 1.812-.484 1.812-3.281c0-2.781.313-4.219 1.938-5.547zm0 0" style="stroke:none"/></symbol><symbol id="i" overflow="visible"><path d="m.5-9.031-.125.203C2.015-7.5 2.328-6.063 2.328-3.281c0 2.797-.281 4.187-1.953 5.625l.156.203c1.75-1.203 2.89-3.438 2.89-5.781 0-2.563-1.108-4.61-2.921-5.797m0 0" style="stroke:none"/></symbol><symbol id="e" overflow="visible"><path d="M6.14-2.828c0-1.625-1.171-2.781-2.812-2.781C1.594-5.61.375-4.375.375-2.594.375-.906 1.453.234 2.985.234c1.843 0 3.156-1.28 3.156-3.062zm-1.109.437c0 1.375-.61 2.235-1.578 2.235C2.281-.156 1.5-1.296 1.5-3c0-1.438.563-2.219 1.625-2.219 1.094 0 1.906 1.203 1.906 2.828m0 0" style="stroke:none"/></symbol><symbol id="f" overflow="visible"><path d="M4.469-5.469c-.125-.093-.344-.14-.563-.14-.36 0-.734.187-.984.5l-.672.78v-1.234l-.11-.046a7.3 7.3 0 0 1-1.859.5v.328H.72c.469 0 .531.078.531.875v2.687c0 .75-.047.844-.453.86L.25-.33v.36C.734.016 1.234 0 1.719 0c.578 0 1.14.016 1.718.031v-.36l-.624-.03c-.547-.032-.563-.079-.563-.86V-3.28c0-.719.469-1.313 1.063-1.313.359 0 .609.172.796.547h.25zm0 0" style="stroke:none"/></symbol><symbol id="j" overflow="visible"><path d="M5 .031v-.36l-.625-.03c-.656-.032-.781-.172-.781-.782v-7.093l-.156-.063c-.782.406-1.626.766-2.72 1.156l.079.5h.125c.531-.234 1.047-.468 1.578-.703.063 0 .094.11.094.407v5.796c0 .61-.125.75-.781.782l-.672.03v.36C1.812.016 2.469 0 3.125 0c.61 0 1.25.016 1.875.031m0 0" style="stroke:none"/></symbol></defs><path d="M10 371.602h1800.04" style="fill:none;stroke-width:3.985;stroke-linecap:butt;stroke-linejoin:miter;stroke:#000;stroke-opacity:1;stroke-miterlimit:10" transform="matrix(.1 0 0 -.1 0 110)"/><path d="M.746 69.852h.602v6H.746zm45.004 0h.602v6h-.602zm45 0h.602v6h-.602zm45 0h.602v6h-.602zm45 0h.602v6h-.602zm0 0" style="stroke:none;fill-rule:nonzero;fill:#000;fill-opacity:1"/><path d="M460 11.602v1080" style="fill:none;stroke-width:3.985;stroke-linecap:butt;stroke-linejoin:miter;stroke:#000;stroke-opacity:1;stroke-miterlimit:10" transform="matrix(.1 0 0 -.1 0 110)"/><path d="M42.988 108.492h6v.602h-6zm0-36h6v.602h-6zm0-36h6v.602h-6zm0-36h6v.602h-6zm0 0" style="stroke:none;fill-rule:nonzero;fill:#000;fill-opacity:1"/><path d="M1194.96 875.625c0 8.242-6.679 14.922-14.92 14.922-8.282 0-14.962-6.68-14.962-14.922 0-8.281 6.68-14.96 14.961-14.96 8.242 0 14.922 6.679 14.922 14.96zm0 0" style="fill-rule:nonzero;fill:#000;fill-opacity:1;stroke-width:3.985;stroke-linecap:butt;stroke-linejoin:miter;stroke:#000;stroke-opacity:1;stroke-miterlimit:10" transform="matrix(.1 0 0 -.1 0 110)"/><use xlink:href="#a" x="79.961" y="13.101" style="fill:#000;fill-opacity:1"/><use xlink:href="#b" x="89.201" y="13.101" style="fill:#000;fill-opacity:1"/><use xlink:href="#c" x="100.121" y="13.101" style="fill:#000;fill-opacity:1"/><use xlink:href="#d" x="104.681" y="13.101" style="fill:#000;fill-opacity:1"/><use xlink:href="#e" x="114.281" y="13.101" style="fill:#000;fill-opacity:1"/><use xlink:href="#f" x="120.761" y="13.101" style="fill:#000;fill-opacity:1"/><use xlink:href="#g" x="128.441" y="13.101" style="fill:#000;fill-opacity:1"/><use xlink:href="#a" x="132.881" y="13.101" style="fill:#000;fill-opacity:1"/><use xlink:href="#h" x="139.841" y="13.101" style="fill:#000;fill-opacity:1"/><use xlink:href="#d" x="145.721" y="13.101" style="fill:#000;fill-opacity:1"/><use xlink:href="#i" x="152.321" y="13.101" style="fill:#000;fill-opacity:1"/><path d="M474.96 875.625c0 8.242-6.679 14.922-14.96 14.922-8.242 0-14.922-6.68-14.922-14.922 0-8.281 6.68-14.96 14.922-14.96 8.281 0 14.96 6.679 14.96 14.96zm720-504.023c0 8.242-6.679 14.96-14.92 14.96-8.282 0-14.962-6.718-14.962-14.96s6.68-14.961 14.961-14.961c8.242 0 14.922 6.718 14.922 14.96zm0 0" style="fill-rule:nonzero;fill:#000;fill-opacity:1;stroke-width:3.985;stroke-linecap:butt;stroke-linejoin:miter;stroke:#000;stroke-opacity:1;stroke-miterlimit:10" transform="matrix(.1 0 0 -.1 0 110)"/><use xlink:href="#a" x="114.882" y="84.577" style="fill:#000;fill-opacity:1"/><use xlink:href="#c" x="28.983" y="24.959" style="fill:#000;fill-opacity:1"/><use xlink:href="#d" x="33.543" y="24.959" style="fill:#000;fill-opacity:1"/><path d="M474.96 731.602c0 8.242-6.679 14.96-14.96 14.96-8.242 0-14.922-6.718-14.922-14.96s6.68-14.922 14.922-14.922c8.281 0 14.96 6.68 14.96 14.922zm450-360c0 8.242-6.679 14.96-14.96 14.96-8.242 0-14.922-6.718-14.922-14.96s6.68-14.961 14.922-14.961c8.281 0 14.96 6.718 14.96 14.96zm0 0" style="fill-rule:nonzero;fill:#000;fill-opacity:1;stroke-width:3.985;stroke-linecap:butt;stroke-linejoin:miter;stroke:#000;stroke-opacity:1;stroke-miterlimit:10" transform="matrix(.1 0 0 -.1 0 110)"/><use xlink:href="#j" x="88.001" y="87.217" style="fill:#000;fill-opacity:1"/><use xlink:href="#c" x="36.063" y="41.039" style="fill:#000;fill-opacity:1"/><path d="M1180.04 371.602v25.195m0 50.391v25.234m0 0v25.195m0 50.391v25.195m0 0v25.195m0 50.392v25.233m0 0v25.196m0 50.391v25.195m0 0V800m0 50.39v25.235m-720.04 0h25.742m51.406 0h25.704m0 0h25.742m51.406 0h25.742m0 0h25.703m51.407 0h25.742m0 0h25.703m51.406 0h25.742m0 0h25.703m51.446 0h25.703m0 0H1000m51.445 0h25.703m0 0h25.704m51.445 0h25.742" style="fill:none;stroke-width:3.985;stroke-linecap:butt;stroke-linejoin:miter;stroke:#000;stroke-opacity:1;stroke-miterlimit:10" transform="matrix(.1 0 0 -.1 0 110)"/></svg>