<svg xmlns="http://www.w3.org/2000/svg" xmlns:xlink="http://www.w3.org/1999/xlink" width="224pt" height="167pt" viewBox="0 0 224 167"><defs><symbol id="a" overflow="visible"><path d="M5 .031v-.36l-.625-.03c-.656-.032-.781-.172-.781-.782v-7.093l-.156-.063c-.782.406-1.626.766-2.72 1.156l.079.5h.125c.531-.234 1.047-.468 1.578-.703.063 0 .094.11.094.407v5.796c0 .61-.125.75-.781.782l-.672.03v.36C1.812.016 2.469 0 3.125 0c.61 0 1.25.016 1.875.031m0 0" style="stroke:none"/></symbol><symbol id="b" overflow="visible"><path d="M3.656.031v-.265l-.453-.032c-.484-.03-.562-.125-.562-.578v-5.203l-.125-.031a15 15 0 0 1-1.985.844l.063.375h.078c.39-.188.781-.36 1.156-.516.063 0 .078.078.078.281v4.25c0 .453-.093.547-.578.578l-.484.032V.03C1.328.016 1.813 0 2.28 0c.469 0 .922.016 1.375.031zm0 0" style="stroke:none"/></symbol><symbol id="c" overflow="visible"><path d="M.781 2.422h.656l3.58-11.313h-.672zm0 0" style="stroke:none"/></symbol><symbol id="d" overflow="visible"><path d="m4.5-.75-.078-.156-.234.156c-.25.156-.438.266-.532.266-.062 0-.11-.079-.11-.188 0-.031 0-.14.017-.172l.578-2.422c.062-.25.093-.5.093-.64 0-.203-.093-.313-.265-.313-.375 0-.985.328-1.5.813-.328.297-.578.594-1.031 1.234l.328-1.406a1.3 1.3 0 0 0 .062-.36c0-.187-.078-.28-.203-.28-.188 0-.531.187-1.172.64l-.25.172.063.187.28-.187c.329-.219.36-.219.423-.219.094 0 .156.078.156.219 0 .437-.36 2.14-.719 3.39L.47.078a6 6 0 0 1 .61-.14c.171-1.11.359-1.688.75-2.282.484-.734 1.14-1.281 1.53-1.281.094 0 .141.078.141.203 0 .156-.016.344-.094.625l-.453 1.86c-.078.328-.11.53-.11.671 0 .22.095.344.266.344.22 0 .532-.187 1.391-.828zm0 0" style="stroke:none"/></symbol></defs><path d="M172.852 238.281h28.593m57.11 0h28.593m0 0h28.555m57.149 0h28.593m0 0H430m57.148 0h28.555m0 0h28.594m57.148 0H630m0 0h28.594m57.109 0h28.594m0 0h28.555m57.148 0h28.594m0 0h28.554m57.149 0h28.555m0 0h28.593m57.149 0h28.554m0 0h28.594m57.148 0h28.555m0 0h28.594m57.109 0h28.594m0 0h28.555m57.148 0h28.594m.001 0h28.554m57.148 0h28.555m0 0h28.555m57.188 0h28.554m0 0h28.554m57.149 0h28.594m-.001 0h28.555m57.149 0h28.554m0 0h28.594m57.148 0h28.555m0 0h28.594m57.149 0h28.554m0 0h28.555m57.148 0h28.594" style="fill:none;stroke-width:3.985;stroke-linecap:butt;stroke-linejoin:miter;stroke:#000;stroke-opacity:1;stroke-miterlimit:10" transform="matrix(.1 0 0 -.1 0 167)"/><path d="M17.031 140.184h.602v6h-.602zm205.719 0h.602v6h-.602zm0 0" style="stroke:none;fill-rule:nonzero;fill:#000;fill-opacity:1"/><path d="M172.852 238.281v27.774m0 55.547v27.773m0 0v27.773m0 55.586v27.774m0 0v27.773m0 55.547v27.774m0 0v27.773m0 55.547v27.773m0 0v27.813m0 55.547v27.773m0 0v27.774m0 55.546v27.774m0 0v27.812m0 55.547v27.774m0 0v27.773m0 55.586v27.774m0 0v27.773m0 55.547v27.773m0 0v27.774m0 55.547v27.773m0 0v27.813m0 55.546v27.774m0 0v27.773m0 55.547v27.774" style="fill:none;stroke-width:3.985;stroke-linecap:butt;stroke-linejoin:miter;stroke:#000;stroke-opacity:1;stroke-miterlimit:10" transform="matrix(.1 0 0 -.1 0 167)"/><path d="M14.273 142.824h6v.602h-6zm0-133.336h6v.602h-6zm0 0" style="stroke:none;fill-rule:nonzero;fill:#000;fill-opacity:1"/><path d="m172.852 1571.602 685.742-1333.32m0-.001h1371.445" style="fill:none;stroke-width:7.9701;stroke-linecap:butt;stroke-linejoin:miter;stroke:#000;stroke-opacity:1;stroke-miterlimit:10" transform="matrix(.1 0 0 -.1 0 167)"/><use xlink:href="#a" x="7.086" y="14.038" style="fill:#000;fill-opacity:1"/><use xlink:href="#b" x="79.019" y="152.254" style="fill:#000;fill-opacity:1"/><use xlink:href="#c" x="82.139" y="154.534" style="fill:#000;fill-opacity:1"/><use xlink:href="#d" x="87.299" y="154.534" style="fill:#000;fill-opacity:1"/></svg>