<svg xmlns="http://www.w3.org/2000/svg" width="362pt" height="156" viewBox="0 0 362 117"><path d="M60.703 585.625H3610.04" style="fill:none;stroke-width:3.985;stroke-linecap:butt;stroke-linejoin:miter;stroke:#000;stroke-opacity:1;stroke-miterlimit:10" transform="matrix(.1 0 0 -.1 0 117)"/><path d="M5.816 55.45h.602v6h-.602zm50.707 0h.602v6h-.602zm50.704 0h.601v6h-.601zm50.707 0h.601v6h-.601zm50.703 0h.601v6h-.601zm50.707 0h.601v6h-.601zm50.703 0h.601v6h-.601zm50.707 0h.601v6h-.601zm0 0" style="stroke:none;fill-rule:nonzero;fill:#000;fill-opacity:1"/><path d="M60.703 9.61v1151.992" style="fill:none;stroke-width:3.985;stroke-linecap:butt;stroke-linejoin:miter;stroke:#000;stroke-opacity:1;stroke-miterlimit:10" transform="matrix(.1 0 0 -.1 0 117)"/><path d="M3.059 115.691h6v.602h-6zm0-57.601h6v.601h-6zm0-57.602h6v.602h-6zm0 0" style="stroke:none;fill-rule:nonzero;fill:#000;fill-opacity:1"/><path d="m10 537.148 8.984 6.25 9.024 7.579 8.984 8.671 9.024 9.493 8.984 10 8.984 10.195 9.024 10.117 8.984 9.649 9.024 8.906 8.984 7.89 8.984 6.641 9.024 5.156 8.984 3.516 9.024 1.797 8.984-.04 8.984-1.835 9.024-3.594 9.023-5.195 8.985-6.68 8.984-7.93 8.984-8.945 9.024-9.687 9.023-10.118 8.985-10.195 8.984-9.96 8.984-9.493 9.024-8.633 9.023-7.539 8.985-6.21 8.984-4.688 8.984-3.008 9.024-1.211 9.023.547 8.985 2.383 8.984 4.101 8.984 5.664 9.024 7.07 9.023 8.282 8.985 9.18 8.984 9.843 8.984 10.156 9.024 10.157 9.023 9.883 8.985 9.257 8.984 8.32 8.984 7.188 9.024 5.781 9.023 4.18 8.985 2.461 8.984.703 8.984-1.133 9.024-2.89 9.023-4.57 8.985-6.133 8.984-7.461 8.984-8.555 9.024-9.414 9.023-10 8.985-10.195L550 572.734l8.984-9.687 9.024-9.024 9.023-8.007 8.985-6.758 8.984-5.313 8.984-3.672 9.024-1.953 9.023-.156 8.985 1.64 8.984 3.438 9.023 5.04 8.985 6.562 9.023 7.812 8.985 8.867 8.984 9.61 9.023 10.078 8.985 10.195 9.023 10.04 8.985 9.53 8.984 8.75 9.023 7.657 8.985 6.328 9.023 4.844 8.985 3.164 8.984 1.406 9.023-.39 8.985-2.188 9.023-3.945 8.985-5.508L820 624.14l9.023-8.164 8.985-9.102 9.023-9.805L865 576.758l9.023-9.922 8.985-9.336 9.023-8.438 8.985-7.265 8.984-5.899 9.023-4.375 8.985-2.656 9.023-.86 8.985.938L955 531.68l9.023 4.414 8.985 5.976 9.023 7.344 8.985 8.477 8.984 9.336 9.023 9.96 8.985 10.157 9.023 10.156 8.985 9.766 8.984 9.101 9.023 8.086 8.985 6.914 9.023 5.469 8.985 3.828 9.023 2.11 8.984.351 8.985-1.484 9.023-3.243 8.985-4.921 9.023-6.407 8.984-7.695 8.985-8.79 9.023-9.53 8.985-10.078 9.023-10.196 8.984-10.078 8.985-9.57 9.023-8.828 8.985-7.774 9.023-6.484 8.984-5 8.985-3.32 9.023-1.602 8.985.234 9.023 2.032 8.984 3.75 8.985 5.39 9.023 6.797 8.985 8.047 9.023 9.063 8.984 9.726 8.985 10.117 9.023 10.196 8.985 9.96 9.023 9.415 8.984 8.515 8.985 7.422 9.023 6.055 8.985 4.492 9.023 2.812 8.984 1.055 8.985-.781 9.023-2.54 8.985-4.257 9.023-5.82 8.984-7.227 8.985-8.398 9.023-9.258 8.985-9.883 9.023-10.195 8.984-10.157 8.985-9.804 9.023-9.18 8.985-8.203 9.023-7.031 8.984-5.625 8.985-3.985 9.023-2.304 8.985-.508 9.023 1.328 8.984 3.047 8.985 4.765 9.023 6.25 8.985 7.618 9.023 8.672 8.984 9.492 8.985 10 9.023 10.234 8.985 10.078 9.023 9.649 8.984 8.906 8.985 7.89 9.023 6.641 8.985 5.117 9.023 3.516 8.984 1.758 8.985-.04 9.023-1.874 8.985-3.555 9.023-5.234 8.984-6.72 8.985-7.929 9.023-8.945 8.985-9.688 9.023-10.117 8.984-10.195 8.985-10 9.023-9.453 8.985-8.633 9.023-7.54 8.984-6.17 8.985-4.688 9.023-2.97 8.985-1.21 9.023.586 8.984 2.383 8.985 4.101 9.023 5.664 8.985 7.11 9.023 8.28 8.984 9.18 8.985 9.844 9.023 10.157 8.985 10.195 9.023 9.844 8.984 9.257 8.985 8.32 9.023 7.15 8.985 5.78 9.023 4.18 8.984 2.461 8.985.664 9.023-1.133 8.985-2.93 9.023-4.57 8.984-6.133 8.985-7.5 9.023-8.554 8.985-9.453 9.023-9.961 8.984-10.196 8.985-10.117 9.023-9.726 8.985-8.985 9.023-7.968 8.984-6.797 8.985-5.274 9.023-3.672 8.985-1.914 9.023-.156 8.984 1.68 8.985 3.437 9.023 5.078 8.985 6.563 9.023 7.812m.001 0 8.983 8.868 8.985 9.609 9.023 10.078 8.985 10.234 9.023 10 8.984 9.532 8.985 8.75 9.023 7.617 8.985 6.367 9.023 4.805 8.984 3.164 9.024 1.367 8.984-.39 8.985-2.227 9.023-3.946 8.984-5.507 9.024-6.953 8.984-8.204 9.024-9.101 8.984-9.805 8.984-10.156 9.024-10.195 8.984-9.883 9.024-9.336 8.984-8.438 8.984-7.265 9.024-5.899 8.984-4.336 9.024-2.617 8.984-.86 8.984.938 9.024 2.774 8.984 4.414 9.024 6.015 8.984 7.344 8.984 8.477 9.024 9.375 8.984 9.922 9.024 10.195 8.984 10.117 8.984 9.766 9.024 9.101 8.984 8.086 9.024 6.875 8.984 5.469 8.984 3.828 9.024 2.11 8.984.312 9.024-1.523 8.984-3.243 8.984-4.922 9.024-6.406 8.984-7.734 9.024-8.79 8.984-9.57 8.984-10.039 9.024-10.195 8.984-10.078 9.024-9.57 8.984-8.828 8.984-7.735 9.024-6.484 8.984-5 9.024-3.32 8.984-1.563 8.984.234 9.024 2.032 8.984 3.789 9.024 5.39 8.984 6.836 8.984 8.047 9.024 9.063 8.984 9.726 9.024 10.156 8.984 10.157 8.984 9.96 9.024 9.376 8.984 8.554 9.024 7.383 8.984 6.055 8.984 4.492 9.024 2.813 8.984 1.015 9.024-.781 8.984-2.578 8.984-4.258 9.024-5.86 8.984-7.226 9.024-8.398 8.984-9.258 8.984-9.922 9.024-10.156 8.984-10.157 9.024-9.804 8.984-9.18 8.984-8.203 9.024-7.031 8.984-5.586 9.024-3.985 8.984-2.265 8.984-.508 9.024 1.328 8.984 3.086 9.024 4.766 8.984 6.289 8.984 7.617 9.024 8.672 8.984 9.492 9.024 10.039 8.984 10.195 8.984 10.078 9.024 9.649 8.984 8.906 9.024 7.89 8.984 6.602 8.984 5.117 9.024 3.516 8.984 1.719 9.024-.078 8.984-1.836 8.984-3.633 9.024-5.234 8.984-6.68 9.024-7.969 8.984-8.945 8.984-9.688 9.024-10.117 8.984-10.195 9.024-10 8.984-9.453 8.984-8.633 9.024-7.5 8.984-6.172 9.024-4.688 8.984-2.93 8.984-1.21 9.024.586 8.984 2.422 9.024 4.101 8.984 5.703 8.984 7.07 9.024 8.321 8.984 9.18 9.024 9.843 8.984 10.196 8.984 10.156 9.024 9.883 8.984 9.219 9.024 8.32 8.984 7.148" style="fill:none;stroke-width:3.985;stroke-linecap:butt;stroke-linejoin:miter;stroke:#e5e5e5;stroke-opacity:1;stroke-miterlimit:10" transform="matrix(.1 0 0 -.1 0 117)"/><path d="m10 535.469 10 7.812 10 9.14 10 10.196 10 10.899 10 11.289 10 11.328 10 10.976 10 10.313 10 9.297 10 8.008 10 6.484 10 4.726 10 2.813 10 .86 10-1.173 10-3.125 10-5.039 10-6.718 10-8.242 10-9.493 10-10.43 10-11.054 10-11.328 10-11.25 10-10.82 10-10.04 10-8.945 10-7.578 10-5.977 10-4.18 10-2.226 10-.234 10 1.758 10 3.71 10 5.547L370 540l10 8.633 10 9.804 10 10.665 10 11.171 10 11.368 10 11.132 10 10.625 10 9.766 10 8.555 10 7.11 10 5.429 10 3.594 10 1.68 10-.391 10-2.344 10-4.297 10-6.094 10-7.656 10-9.023 10-10.079 10-10.859 10-11.289 10-11.328 10-11.016 10-10.39 10-9.414 10-8.164 10-6.602 10-4.922 10-3.008 10-1.054 10 .976 10 2.93 10.04 4.844 9.96 6.601 10 8.086 10 9.375 10.04 10.39L760 575.82l20 22.578 10 10.86 10 10.117 10 9.102 10 7.695 10 6.133 10.04 4.336 10 2.46 9.96.43 10-1.562 10-3.555 10-5.39 10.04-7.032 9.96-8.515 10-9.727 10.04-10.586 10-11.133 9.96-11.367 10-11.172 10-10.664 10-9.844 10.04-8.71 9.96-7.266 10-5.625 10.04-3.79 10-1.796 10 .156 9.96 2.149 10 4.14 10 5.899 10.04 7.5 10 8.906 9.96 10 10.04 10.82 10 11.25 10 11.328L1140 605l10 10.469 10 9.531 10.04 8.281 10 6.797 9.96 5.078 10.04 3.203 10 1.25 10-.78 10-2.774 9.96-4.649 10-6.445 10.04-7.93 10-9.297 10-10.273 10-10.938 10-11.328 10-11.289 10-10.937 9.96-10.196 10-9.18 10.04-7.89 10-6.289 10-4.531 10-2.617 10-.625 10 1.367 10 3.36 10 5.194 9.96 6.915 10.04 8.398 10 9.57 10 10.547 10 11.094 10 11.328 10 11.25 10 10.742 10 9.922 9.96 8.828 10.04 7.422 10 5.781 10 3.946 10 2.03 10 .04 10-1.992 10-3.906 10-5.743 10-7.382 10-8.79 10-9.882 10-10.742 10-11.211 10-11.329 10-11.132 10-10.547 10-9.61 10-8.437 10-6.953 10-5.235 10-3.398 10-1.445 10 .586 10 2.578 10 4.492 10 6.25 10 7.812 10 9.18 10 10.156 10 10.938 20 22.578 10 10.976 10 10.313 10 9.297 10 8.008 10 6.445 10 4.727 10 2.812 10 .82 10-1.172 10-3.203 10-5 10-6.757 10-8.243 10-9.53 10-10.43 10-11.055 10-11.328 10-11.25 10-10.782 10-10.039 10-8.945 10-7.578 10-5.938 10-4.14 10-2.227 10-.234 10 1.797 10 3.71 10 5.587 10 7.226 10 8.633 10 9.844 10 10.664 10 11.172 10 11.367 10 11.133 10 10.586 10 9.765 10 8.555 10 7.07 10 5.43 10 3.594 10 1.64 10-.39 10-2.383 10-4.336 10-6.055 10-7.695 10-9.024 10-10.117 10-10.86 10-11.25 10-11.327 10-11.016 10-10.39 10-9.415 10-8.125 10-6.64 10-4.883 10-3.008 10-1.015 10 .976 10 3.008 10 4.844 10 6.562 10 8.125 10 9.414m0 0 10 10.352 10 11.015 10 11.329 10 11.289 10 10.859 10 10.117 10 9.063 10 7.695 10 6.094 10 4.336 10 2.422 10 .43 10-1.602 10-3.555 10-5.39 10-7.07 10-8.517 10-9.726 10-10.586 10-11.172 10-11.328 10-11.211 10-10.664 10-9.844 10-8.672 10-7.265 10-5.586 10-3.75 10-1.797 10 .156 10 2.188 10 4.14 10 5.899 10 7.539 10 8.906 10 10.04 10 10.78 10 11.25 10 11.328 10 11.094 10 10.43 10 9.531 10 8.281 10 6.758 10 5.078 10 3.203 10 1.211 10-.82 10-2.773 10-4.688 10-6.406 10-7.969 10-9.297 10-10.273 10-10.977 20-22.578 10-10.937 10-10.196 10-9.18 10-7.85 10-6.29 10-4.492 10-2.617 10-.625 10 1.406 10 3.36 10 5.195 10 6.953 10 8.398 10 9.61 10 10.546 10 11.094 10 11.328 10 11.211 10 10.742 10 9.922 10 8.828 10 7.383 10 5.781 10 3.946 10 1.992 10 .039 10-2.031 10-3.907 10-5.742 10-7.422 10-8.789 10-9.922 10-10.703 10-11.25 10-11.328 10-11.133 10-10.507 10-9.61 10-8.437 10-6.914 10-5.235 10-3.398 10-1.406 10 .625 10 2.578 10 4.492 10 6.25 10 7.851 10 9.141 10 10.235 10 10.898 10 11.289 10 11.328" style="fill:none;stroke-width:3.985;stroke-linecap:butt;stroke-linejoin:miter;stroke:#ccc;stroke-opacity:1;stroke-miterlimit:10" transform="matrix(.1 0 0 -.1 0 117)"/><path d="m10 533.945 11.25 9.688 11.25 10.976 11.25 11.953L55 579.141l11.25 12.773 11.25 12.54 11.25 11.991L100 627.461l11.25 9.687 11.25 8.047 11.25 6.211 11.25 4.14 11.25 1.915 11.25-.313 11.25-2.578 11.25-4.765 11.25-6.72 11.25-8.554 11.25-10.117L235 613.086l11.25-12.188 11.25-12.656 11.25-12.734L280 563.086l11.25-11.758 11.25-10.625 11.25-9.219 11.25-7.539 11.25-5.586 11.25-3.476 11.25-1.25 11.25.976 11.25 3.243 11.25 5.351 11.25 7.344 11.25 9.062 11.25 10.508 11.25 11.602 11.25 12.383L460 586.836l11.25 12.695 11.25 12.227 11.25 11.445L505 633.477l11.25 8.71 11.25 6.993 11.25 4.96 11.25 2.813 11.25.586 11.25-1.68 11.25-3.906 11.25-5.976 11.25-7.852 11.25-9.531 11.25-10.86L640 605.86l11.25-12.539 11.25-12.773 11.25-12.617L685 555.898l11.25-11.093 11.25-9.844 11.25-8.242 11.25-6.407 11.25-4.335 11.25-2.149 11.25.117L775 516.29l11.25 4.531 11.25 6.563 11.25 8.437 11.25 9.961 11.25 11.211 11.25 12.11 11.25 12.617L865 594.492l11.25 12.461 11.25 11.836 11.25 10.742 11.25 9.375 11.25 7.735 11.25 5.78 11.25 3.673 11.25 1.484 11.25-.781 11.25-3.008 11.25-5.195 11.25-7.149 11.25-8.867 11.25-10.39 11.25-11.524L1045 598.36l11.25-12.734 11.25-12.695 11.25-12.305 11.29-11.563 11.25-10.351 11.25-8.906 11.25-7.149 11.25-5.195 11.25-3.047 11.25-.781 11.25 1.484 11.25 3.672 11.25 5.781 11.25 7.696 11.25 9.375 11.25 10.742 11.25 11.797 11.25 12.5 11.25 12.734 11.25 12.656 11.25 12.11 11.25 11.21 11.25 9.962 11.25 8.437 11.25 6.563 11.25 4.53 11.25 2.384 11.25.117 11.25-2.149 11.25-4.336 11.25-6.367 11.25-8.242 11.25-9.805 11.25-11.132 11.25-12.032 11.25-12.578 11.25-12.773 11.25-12.54 11.25-11.874 11.25-10.86 11.25-9.53 11.25-7.892 11.25-6.015 11.25-3.867 11.25-1.72 11.25.587 11.25 2.812 11.25 4.961 11.25 6.953 11.25 8.711 11.25 10.274 11.25 11.406 11.25 12.266 11.25 12.695 11.25 12.734 11.25 12.344 11.25 11.64 11.25 10.509 11.25 9.062 11.25 7.344 11.25 5.39 11.25 3.243 11.25 1.015 11.25-1.25 11.25-3.476 11.25-5.586 11.25-7.5 11.25-9.22 11.25-10.663 11.25-11.719 11.25-12.422 11.25-12.734 11.25-12.695 11.25-12.149 11.25-11.328 11.25-10.117 11.25-8.594 11.25-6.758 11.25-4.726 11.25-2.578 11.25-.352 11.25 1.914 11.25 4.14 11.25 6.173 11.25 8.046 11.25 9.688 11.25 11.016 11.25 11.953 11.25 12.578 11.25 12.773 11.25 12.54 11.25 11.952 11.25 11.016 11.25 9.688 11.25 8.046 11.25 6.172 11.25 4.102 11.25 1.914 11.25-.313 11.25-2.617 11.25-4.765 11.25-6.758 11.25-8.594 11.25-10.078 11.25-11.328 11.25-12.227 11.25-12.656 11.25-12.734 11.25-12.422 11.25-11.719 11.25-10.625 11.25-9.219 11.25-7.539 11.25-5.547 11.25-3.476 11.25-1.25 11.25 1.054 11.25 3.243 11.25 5.39 11.25 7.344 11.25 9.063 11.25 10.507 11.25 11.64 11.25 12.345 11.25 12.734 11.25 12.695 11.25 12.266 11.25 11.406 11.25 10.235 11.25 8.75 11.25 6.953 11.25 4.96 11.25 2.813 11.25.547 11.25-1.68 11.25-3.945 11.25-5.976 11.25-7.891 11.25-9.531 11.25-10.899 11.25-11.875 11.25-12.539 11.25-12.773 11.25-12.578 11.25-12.032 11.25-11.133 11.25-9.804 11.25-8.242 11.25-6.368 11.25-4.296 11.25-2.149 11.25.117 11.25 2.383 11.25 4.57 11.25 6.563 11.25 8.437 11.25 9.961 11.25 11.25m0 0 11.25 12.109 11.25 12.617 11.25 12.773 11.25 12.461 11.25 11.797 11.25 10.742 11.25 9.375 11.25 7.696 11.25 5.78 11.25 3.673 11.25 1.445 11.25-.781 11.25-3.047 11.25-5.195 11.25-7.149 11.25-8.945 11.25-10.352 11.25-11.562 11.25-12.305 11.25-12.695 11.25-12.735 11.25-12.304 11.25-11.524 11.25-10.39 11.25-8.867 11.25-7.149 11.25-5.156 11.25-3.008 11.25-.781 11.25 1.484 11.25 3.711 11.25 5.781 11.25 7.735 11.25 9.375 11.25 10.742 11.25 11.836 11.25 12.5 11.25 12.734 11.25 12.657 11.25 12.07 11.25 11.25 11.25 9.922 11.25 8.398 11.25 6.563 11.25 4.53 11.25 2.345 11.25.117 11.25-2.188 11.25-4.336 11.25-6.406 11.25-8.242 11.25-9.844 11.25-11.094 11.25-12.07 11.25-12.578 11.25-12.773 11.25-12.5 11.25-11.914 11.25-10.86 11.25-9.531 11.25-7.852 11.25-5.976 11.25-3.867 11.25-1.68 11.25.586 11.25 2.851 11.25 4.961 11.25 6.953 11.25 8.79 11.25 10.234" style="fill:none;stroke-width:3.985;stroke-linecap:butt;stroke-linejoin:miter;stroke:#b2b2b2;stroke-opacity:1;stroke-miterlimit:10" transform="matrix(.1 0 0 -.1 0 117)"/><path d="m10 532.617 12.852 11.914 12.851 13.242 12.852 14.102 12.89 14.57 12.852 14.492 12.851 14.024L100 628.086l12.852 11.758 12.851 10.078 12.852 8.086 12.89 5.742 12.852 3.36 12.851.742L190 666.016l12.852-4.375 12.851-6.72 12.852-8.905 12.89-10.82 12.852-12.384 12.851-13.554L280 594.96l12.852-14.57 12.851-14.414 12.89-13.79 12.852-12.773 12.852-11.289 12.851-9.492L370 511.25l12.852-5.078 12.851-2.54h12.89l12.852 2.618 12.852 5.078 12.851 7.422L460 528.281l12.852 11.328 12.89 12.774 12.852 13.828 12.851 14.414 12.852 14.57 12.851 14.258L550 623.008l12.852 12.344 12.89 10.82 12.852 8.867 12.851 6.719 12.852 4.297 12.851 1.797L640 667.07l12.852-3.398 12.89-5.781 12.852-8.086 12.851-10.117 12.852-11.797 12.851-13.125L730 600.742l25.703-29.062 12.89-14.102 12.852-13.242 12.852-11.914 12.851-10.235 12.852-8.28 12.852-6.016 12.851-3.555 12.89-1.016 12.852 1.602 12.852 4.101 12.851 6.524 12.852 8.71 12.852 10.665 12.851 12.226 12.89 13.438 12.852 14.258 12.852 14.57 12.851 14.453L1000 617.734l12.852 12.891 12.851 11.445 12.89 9.688 12.852 7.578 12.852 5.312 12.851 2.813 12.891.234 12.813-2.383 12.851-4.843 12.89-7.188 12.852-9.336 12.852-11.172 12.851-12.656 12.891-13.71 12.813-14.376 12.851-14.61 12.89-14.335 12.852-13.594 12.852-12.5 12.851-10.976 12.891-9.063 12.813-6.914 12.851-4.57 12.89-2.031 12.852.546 12.852 3.125 12.851 5.547 12.891 7.89 12.813 9.923 12.89 11.64 12.852 13.008 12.851 13.985 12.852 14.492 12.851 14.531 12.891 14.18 12.813 13.32 12.89 12.07 12.852 10.43 12.851 8.477 12.852 6.21 12.851 3.829 12.891 1.25 12.852-1.328 12.851-3.868 12.852-6.289 12.851-8.515 12.852-10.47 12.89-12.109 12.852-13.32 12.852-14.219 12.851-14.53 12.852-14.493 12.851-13.945 12.852-13.008 12.89-11.602 12.852-9.883 12.852-7.812 12.851-5.508 12.852-3.047 12.851-.507 12.89 2.109 12.852 4.61 12.852 6.991 12.852 9.141 12.851 10.977 12.852 12.539 12.851 13.633 12.89 14.335 12.852 14.61 12.852 14.375 12.852 13.672 12.851 12.656 12.852 11.094 12.851 9.297 12.89 7.148 12.852 4.766 12.852 2.304 12.852-.312 12.851-2.852 12.852-5.351 12.851-7.657 12.89-9.726 12.852-11.485 12.852-12.89 12.852-13.906 12.851-14.453 12.852-14.57 12.851-14.259 12.89-13.398 12.852-12.188 12.852-10.625 12.852-8.671 12.851-6.446 12.852-4.062 12.851-1.524 12.89 1.094 12.852 3.594 12.852 6.094 12.852 8.32 12.851 10.273 12.852 11.953 12.851 13.243 12.89 14.14 25.704 29.063 12.852 14.023 12.851 13.086 12.852 11.758L2401.445 650l12.89 8.047 12.852 5.742 12.852 3.32 12.852.703 12.851-1.835 12.852-4.375 12.851-6.758 12.89-8.946 12.852-10.82 12.852-12.383 12.852-13.554 12.851-14.297 12.852-14.57 12.851-14.415 12.89-13.789 12.852-12.773 12.852-11.25 12.852-9.492 12.851-7.383 12.852-5 12.851-2.54 12.89.04 12.852 2.617 12.852 5.117 12.852 7.422 12.851 9.57 12.852 11.329 12.851 12.773 12.89 13.828 12.852 14.414 12.852 14.57 12.852 14.297 12.851 13.516 12.852 12.344 12.851 10.781 12.89 8.867 12.852 6.68 12.852 4.297 12.852 1.758 12.851-.82 12.852-3.4 12.851-5.82 12.89-8.085 12.852-10.118 12.852-11.836 12.852-13.125 12.851-14.062 12.852-14.492 12.851-14.57 12.89-14.102 12.852-13.203 12.852-11.914 12.852-10.196 12.851-8.242 12.852-6.015 12.89-3.516 12.852-.977 12.852 1.563 12.851 4.14 12.852 6.563 12.851 8.71L3198.594 535l12.89 12.266 12.852 13.437m0 0 12.852 14.258 12.851 14.57 12.852 14.453 12.851 13.868 12.852 12.851 12.89 11.445 12.852 9.688 12.852 7.578 12.851 5.274 12.852 2.773 12.851.195 12.89-2.383 12.852-4.843 12.852-7.227 12.852-9.336 12.851-11.172 12.852-12.656 12.851-13.75 12.89-14.414 12.852-14.57 12.852-14.336 12.852-13.594 12.851-12.5 12.852-10.938 12.851-9.062 12.89-6.914 12.852-4.531 12.852-1.993 12.852.547 12.851 3.125" style="fill:none;stroke-width:3.985;stroke-linecap:butt;stroke-linejoin:miter;stroke:#999;stroke-opacity:1;stroke-miterlimit:10" transform="matrix(.1 0 0 -.1 0 117)"/><path d="m10 531.406 15 14.844 15 16.055 15 16.836 15 16.992 15 16.719 15 15.82 15 14.453 15 12.695 15 10.43 15 7.93 15 5.156 15 2.187 15-.82 15-3.789 15-6.68 15-9.336 15-11.718 15-13.672 15-15.274 15-16.328L340 570l15-16.484 15-15.47 15-13.984 15-12.03 15-9.727 15-7.11 15-4.297 15-1.289 15 1.72 15 4.687 15 7.5 15 10.078 15 12.343 15 14.22 15 15.663 15 16.563 15 16.992 15 16.914 15 16.211 15 15.078 15 13.438 15 11.367 15 8.984 15 6.25 15 3.399 15 .39 15-2.617 15-5.547 15-8.32 15-10.82 15.04-12.93L820 626.484l15-15.976 15.04-16.758L865 576.719l15-16.758 15.04-15.899L910 529.414l15-12.851 15.04-10.704 14.96-8.164 15-5.43 15.04-2.5 14.96.508 15 3.555 15.04 6.367 14.96 9.102 15 11.484 15.04 13.516 15 15.117 14.96 16.29 15.04 16.913 15 16.992 14.96 16.524 15.04 15.586 15 14.14 14.96 12.266 15.04 9.96 15 7.384 14.96 4.57 15.04 1.563 15-1.407 14.96-4.414 15.04-7.226 15-9.844 14.96-12.149 15.04-14.062 15-15.508 15-16.523 15-16.992 15-16.914 15-16.29 15-15.195 15-13.633 15-11.601 15-9.219 15-6.563 15-3.671 15-.664 15 2.343 15 5.235 15 8.086 15 10.546 15 12.774 15 14.531 15 15.86 15 16.718 15 17.032 15 16.796 15 16.016 15 14.766 15 13.086 15 10.898 15 8.438 15 5.703 15 2.773 15-.234 15-3.203 15-6.133 15-8.867 15-11.25 15-13.32 15-15 15-16.173 15-16.875 15-16.992 15-16.64 15-15.703 15-14.297 15-12.461 15-10.196 15-7.656 15-4.805 15-1.875 15 1.133 15 4.102 15 6.953 15 9.61 15 11.952 15 13.868 15 15.39 15 16.446 30 33.906 15 16.406 15 15.313 15 13.789 15 11.836 15 9.453 15 6.836 15 3.945 15 .976 15-2.03 15-5 15-7.774 15-10.352 15-12.539 15-14.414 15-15.781 15-16.64 15-16.993 15-16.836 15-16.133 15-14.922 15-13.242 15-11.133 15-8.71 15-5.977 15-3.047 15-.078 15 2.93 15 5.859 15 8.594 15 11.015 15 13.164 15 14.844 15 16.094 15 16.836 15 16.992 15 16.68 15 15.82 15 14.453 15 12.656 15 10.43 15 7.93 15 5.117 15 2.148 15-.82 15-3.828 15-6.719 15-9.336 15-11.718 15-13.711 15-15.274 15-16.367 30-33.906 15-16.485 15-15.468 15-13.946 15-12.03 15-9.688 15-7.11 15-4.219 15-1.289 15 1.758 15 4.688 15 7.539 15 10.117 15 12.344 15 14.218 15 15.664 15 16.602 15 16.992 15 16.875 15 16.211 15 15.078 15 13.399 15 11.367 15 8.984 15 6.211 15 3.36 15 .39 15-2.656 15-5.586 15-8.32 15-10.82 15-12.97 15-14.726 15-15.976 15-16.758 15-17.032 15-16.718 15-15.938 15-14.61 15-12.85 15-10.665 15-8.164" style="fill:none;stroke-width:3.985;stroke-linecap:butt;stroke-linejoin:miter;stroke:#7f7f7f;stroke-opacity:1;stroke-miterlimit:10" transform="matrix(.1 0 0 -.1 0 117)"/><path d="m10 530.39 18.008 18.712 18.008 19.843 17.968 20.43 18.008 20.273L100 629.141l18.008 18.164 18.008 16.21 17.968 13.75 18.047 10.86L190 695.82l18.008 4.18 18.008.625 17.968-3.047 18.047-6.523L280 681.21l18.008-12.852 18.008-15.43 17.968-17.577 18.047-19.102L370 596.133l18.008-20.43 18.008-20.078 17.968-19.18 18.047-17.617L460 503.32l18.008-12.968 18.008-9.961 17.968-6.602 18.047-3.125 17.969.469 18.008 4.101 18.008 7.54 17.968 10.78 18.047 13.673L640 523.359l18.008 18.086 18.008 19.532 18.007 20.234 18.008 20.39L730 621.485l18.008 18.79 18.008 17.03 18.007 14.805 18.008 12.07L820 693.165l18.008 5.586 18.008 2.07 18.007-1.601 18.008-5.157L910 685.509l18.008-11.68 18.008-14.453 18.007-16.797 18.008-18.594L1000 604.22l18.008-20.352 18.008-20.312 18.007-19.61 18.008-18.32 18.008-16.445 17.969-14.024 18.008-11.172 18.007-7.968 18.008-4.57 18.008-.938 17.969 2.656 18.008 6.211 18.007 9.531 18.008 12.54 18.008 15.234 17.969 17.383 18.008 19.023 18.007 20 18.008 20.43 18.008 20.156 17.969 19.297 18.008 17.812 18.007 15.742 18.008 13.204 18.008 10.234 17.969 6.992 18.008 3.477 18.007-.157 18.008-3.71 18.008-7.227 17.969-10.508 18.008-13.398 18.007-15.899 18.008-17.968 18.008-19.336 17.969-20.235 18.008-20.43 18.007-19.96 18.008-18.907 18.008-17.226 17.969-15.04 18.008-12.343 18.007-9.297 18.008-5.937 18.008-2.422 17.969 1.25 18.008 4.804 18.007 8.243 18.008 11.406 18.008 14.18 17.969 16.601 18.008 18.438 18.007 19.687 18.008 20.313 18.008 20.351 17.969 19.727 18.008 18.476 18.007 16.602 18.008 14.297 18.008 11.484 17.969 8.32 18.008 4.844 18.007 1.328 18.008-2.304 18.008-5.86 17.969-9.219 18.008-12.304 18.007-14.961 18.008-17.188 18.008-18.906 17.969-19.922 18.008-20.43 18.007-20.234 18.008-19.375 18.008-17.969 18.008-15.976 17.969-13.477 18.007-10.547 18.008-7.304 18.008-3.828 18.008-.196 18.008 3.36 17.968 6.914 18.008 10.156 18.008 13.164 18.008 15.703 18.008 17.735 17.968 19.257 18.008 20.157 18.008 20.43 18.008 20.038 18.008 19.024 17.968 17.422 18.008 15.273 18.008 12.656 18.008 9.61 18.008 6.25 17.968 2.734 18.008-.86 18.008-4.452 18.008-7.93 18.008-11.094 17.968-13.945 18.008-16.367 18.008-18.282 18.008-19.609 18.008-20.273 17.968-20.391 18.008-19.805 18.008-18.593 18.008-16.836 18.008-14.532 17.968-11.757 18.008-8.633 18.008-5.235 18.008-1.68 18.008 1.993 17.968 5.508 18.008 8.906 18.008 11.992 18.008 14.766 18.008 16.992 17.968 18.71 18.008 19.884 18.008 20.39 18.008 20.274 18.008 19.492 17.968 18.125 18.008 16.21 18.008 13.75 18.008 10.821 18.008 7.656 17.968 4.18 18.008.547 18.008-3.047 18.008-6.562 18.008-9.844 17.968-12.89 18.008-15.47 18.008-17.578 18.008-19.14 18.008-20.078 17.968-20.43 18.008-20.117 18.008-19.14" style="fill:none;stroke-width:3.985;stroke-linecap:butt;stroke-linejoin:miter;stroke:#666;stroke-opacity:1;stroke-miterlimit:10" transform="matrix(.1 0 0 -.1 0 117)"/><path d="m10 529.531 22.5 24.297L55 579.141l22.5 25.507 22.5 24.883 22.5 23.516 22.5 21.406 22.5 18.633L190 708.32l22.5 11.367 22.5 7.188 22.5 2.734 22.5-1.836 22.5-6.25 22.5-10.546 22.5-14.454 22.5-17.968 22.5-20.899 22.5-23.125 22.5-24.687 45-50.86 22.5-24.57 22.5-22.969L550 490.82l22.5-17.656 22.5-14.101 22.5-10.157 22.5-5.86 22.5-1.366 22.5 3.164 22.5 7.578L730 464.18l22.5 15.586 22.5 18.906 22.5 21.64 22.5 23.672 22.5 25 22.5 25.508 22.5 25.274 22.5 24.14 22.5 22.344 22.5 19.805 22.5 16.64 22.5 12.93 22.5 8.906 22.5 4.492 22.5.04 22.54-4.532 22.5-8.867 22.5-12.93 22.5-16.64 22.5-19.805 22.5-22.305 22.5-24.18 22.5-25.234 22.5-25.508 22.5-25 22.5-23.71 22.5-21.641 22.5-18.906 22.5-15.586 22.5-11.758 22.5-7.617 22.5-3.164 22.5 1.367 22.5 5.86 22.5 10.116 22.5 14.102 22.5 17.656 22.5 20.625 22.5 22.969 22.5 24.531 45 50.86 22.5 24.687 22.5 23.164 22.5 20.899 22.5 17.968 22.5 14.453 22.5 10.547 22.5 6.29 22.5 1.835 22.5-2.734 22.5-7.148 22.5-11.368 22.5-15.234 22.5-18.594 22.5-21.406 22.5-23.516 22.5-24.922 22.5-25.507 22.5-25.274 22.5-24.297 22.5-22.539 22.5-20.117 22.5-16.953 22.5-13.36 22.5-9.257 22.5-4.961 22.5-.469 22.5 4.102 22.5 8.437 22.5 12.578 22.5 16.29 22.5 19.492 22.5 22.148 22.5 23.984 22.5 25.157 22.5 25.547 22.5 25.078 22.5 23.867 22.5 21.875 22.5 19.219 22.5 15.898 22.5 12.188 22.5 8.007 22.5 3.594 22.5-.937 22.5-5.391 22.5-9.727 22.5-13.75 22.5-17.304 22.5-20.39 22.5-22.735 22.5-24.453 22.5-25.352 22.5-25.469 22.5-24.804 22.5-23.32 22.5-21.134 22.5-18.28 22.5-14.845 22.5-10.976 22.5-6.68 22.5-2.265 22.5 2.265 22.5 6.758 22.5 10.938 22.5 14.882 22.5 18.32 22.5 21.133 22.5 23.36 22.5 24.804 22.5 25.47 22.5 25.35 22.5 24.454 22.5 22.734 22.5 20.352 22.5 17.305 22.5 13.71 22.5 9.688 22.5 5.39 22.5.9 22.5-3.634 22.5-8.047 22.5-12.187 22.5-15.938 22.5-19.257 22.5-21.875 22.5-23.868" style="fill:none;stroke-width:3.985;stroke-linecap:butt;stroke-linejoin:miter;stroke:#4c4c4c;stroke-opacity:1;stroke-miterlimit:10" transform="matrix(.1 0 0 -.1 0 117)"/><path d="m10 528.867 30 33.281 30 34.024 30 33.672 30 32.304 30 29.883 30 26.563 30 22.343 30 17.5 30 12.032 30 6.25 30 .234 30-5.781 30-11.563 30-17.07 30-22.031 30-26.211 30-29.688 30-32.148 30-33.594 30-34.023 30-33.399 30-31.64 30-28.985 30-25.39 30-20.977 30-15.898 30-10.313 30.04-4.453 29.96 1.563 30 7.539 30.04 13.32L970 434.844l30 23.36 30.04 27.343 29.96 30.508 30.04 32.695 30 33.867 29.96 33.906 30.04 33.008 30 30.938 29.96 28.008 30.04 24.101 30 19.531 29.96 14.258 30.04 8.594 30 2.656 30-3.437 30-9.297 30-14.922 30-20.117 30-24.649 30-28.398 30-31.29 30-33.163 30-33.985 30-33.75 30-32.46 30-30.196 30-26.914 30-22.773 30-18.008 30-12.617 30-6.797 30-.86 30 5.196 30 11.054 30 16.563 30 21.562 30 25.86 30 29.375 30 31.953 30 33.476 30 34.063 30 33.476 30 31.875 30 29.297 30 25.743 30 21.445 30 16.406 30 10.899 30 5.039 30-.977 30-6.992 30-12.735 30-18.125 30-22.93 30-27.03 30-30.235 30-32.539 30-33.75 30-33.984 30-33.125 30-31.211 30-28.32 30-24.532 30-19.96 30-14.805 30-9.18 30-3.242 30 2.812 30 8.75 30 14.414 30 19.649 30 24.219 30 28.085 30 31.055 30 33.008 30 33.945 30 33.828 30 32.657 30 30.43 30 27.265 30 23.242 30 18.477 30 13.164 30 7.383 30 1.406 30-4.61 30-10.468 30-16.055" style="fill:none;stroke-width:3.985;stroke-linecap:butt;stroke-linejoin:miter;stroke:#323232;stroke-opacity:1;stroke-miterlimit:10" transform="matrix(.1 0 0 -.1 0 117)"/><path d="m10 528.398 45 50.743 45 50.937 45 49.531 45 46.602 45 42.148 45 36.446 45 29.57 45 21.68 45 13.242 45 4.297 45-4.727 45-13.633 45-22.109 45-29.883 45-36.758 45-42.422 45-46.757 45-49.61 45-50.976 45-50.703 45-48.79 45-45.43 45-40.585 45.04-34.453 45-27.305 45-19.219 45-10.546 45-1.602 45 7.46 45 16.212 45 24.57 45 32.031 45 38.555 45 43.906 45 47.774 45 50.234 45 51.016 45 50.312 45 47.93 45 44.14 45 38.829 45 32.422 45 24.921 45 16.68 45 7.89 45-1.132 45-10.117 45-18.828 45-26.875 45-34.141 45-40.313 45-45.195 45-48.672 45-50.625 45-51.015 45-49.727 45-46.953 45-42.656 45-37.031 45-30.274 45-22.539 45-14.063 45-5.195 45 3.867 45 12.813 45 21.289 45 29.18 45 36.093 45 41.914 45 46.407 45 49.453 45 50.898 45 50.782 45 49.062 45 45.82 45 41.094 45 35.117 45 28.008 45 20.04 45 11.444" style="fill:none;stroke-width:3.985;stroke-linecap:butt;stroke-linejoin:miter;stroke:#191919;stroke-opacity:1;stroke-miterlimit:10" transform="matrix(.1 0 0 -.1 0 117)"/><path d="m10 528.125 90 102.07 90 100.703 90 96.133 90 88.555 90 78.164 90 65.352 90 50.507 90 33.985 90 16.484 90-1.601 90-19.57 90.04-36.954 90-53.203 90-67.734 90-80.196 90-90.039 90-97.187 90-101.172 90-101.992 90-99.649 90-94.18 90-85.703 90-74.57 90-61.055 90-45.664 90-28.828 90-11.054 90 7.03 90 24.884 90 41.992 90 57.773 90 71.719 90 83.438 90 92.5 90 98.71 90 101.758 90 101.64 90 98.321 90 91.914 90 82.617" style="fill:none;stroke-width:3.985;stroke-linecap:butt;stroke-linejoin:miter;stroke:#000;stroke-opacity:1;stroke-miterlimit:10" transform="matrix(.1 0 0 -.1 0 117)"/></svg>