<svg xmlns="http://www.w3.org/2000/svg" width="312" height="113pt" viewBox="0 0 234 113"><path d="M3.594 565.625h1097.812" style="fill:none;stroke-width:3.985;stroke-linecap:butt;stroke-linejoin:miter;stroke:#000;stroke-opacity:1;stroke-miterlimit:10" transform="matrix(.1 0 0 -.1 0 113)"/><path d="M.11 53.45h.6v6h-.6zm27.445 0h.601v6h-.601zm27.445 0h.602v6H55zm27.441 0h.602v6h-.602zm27.446 0h.601v6h-.601zm0 0" style="stroke:none;fill-rule:nonzero;fill:#000;fill-opacity:1"/><path d="M1238.633 565.625h1097.812" style="fill:none;stroke-width:3.985;stroke-linecap:butt;stroke-linejoin:miter;stroke:#000;stroke-opacity:1;stroke-miterlimit:10" transform="matrix(.1 0 0 -.1 0 113)"/><path d="M123.61 53.45h.6v6h-.6zm27.445 0h.601v6h-.601zm27.445 0h.602v6h-.602zm27.445 0h.602v6h-.602zm27.445 0h.602v6h-.601zm0 0" style="stroke:none;fill-rule:nonzero;fill:#000;fill-opacity:1"/><path d="M552.5 17.031V1114.18" style="fill:none;stroke-width:3.985;stroke-linecap:butt;stroke-linejoin:miter;stroke:#000;stroke-opacity:1;stroke-miterlimit:10" transform="matrix(.1 0 0 -.1 0 113)"/><path d="M52.238 110.95h6v.6h-6zm0-27.43h6v.601h-6zm0-27.43h6v.601h-6zm0-27.43h6v.602h-6zm0-27.426h6v.602h-6zm0 0" style="stroke:none;fill-rule:nonzero;fill:#000;fill-opacity:1"/><path d="M1787.54 17.031V1114.18" style="fill:none;stroke-width:3.985;stroke-linecap:butt;stroke-linejoin:miter;stroke:#000;stroke-opacity:1;stroke-miterlimit:10" transform="matrix(.1 0 0 -.1 0 113)"/><path d="M175.742 110.95h6v.6h-6zm0-27.43h6v.601h-6zm0-27.43h6v.601h-6zm0-27.43h6v.602h-6zm0-27.426h6v.602h-6zm0 0" style="stroke:none;fill-rule:nonzero;fill:#000;fill-opacity:1"/><path d="m3.594 572.305 21.953.547 21.953.625 21.953.703 21.992.82 21.953.898 21.954 1.094 21.953 1.211 21.953 1.485 21.953 1.718 21.953 2.032 21.953 2.421 21.953 2.97 21.953 3.632 21.954 4.531 21.953 5.703 21.953 7.266 21.992 9.453 21.914 12.5 21.992 16.719 21.953 22.46 21.954 30.04 21.953 38.515 21.953 44.336 21.953 39.414 21.953 16.485 21.953-16.485 21.953-39.414 21.953-44.336 21.953-38.515 21.954-30.04 21.953-22.46 21.992-16.719 21.953-12.5 21.953-9.453 21.953-7.266 21.953-5.703 21.954-4.531 21.953-3.633 21.953-2.969 21.953-2.422 21.953-2.03 21.953-1.72 21.953-1.484 21.953-1.21 21.993-1.095 21.914-.898 21.992-.82 21.953-.703 21.953-.625 21.953-.547" style="fill:none;stroke-width:3.985;stroke-linecap:butt;stroke-linejoin:miter;stroke:#e5e5e5;stroke-opacity:1;stroke-miterlimit:10" transform="matrix(.1 0 0 -.1 0 113)"/><path d="m3.594 573.047 21.953.586 21.953.703 21.953.781 21.992.86 21.953 1.054 21.954 1.172 21.953 1.367 21.953 1.602 21.953 1.836 21.953 2.226 21.953 2.696 21.953 3.242 21.953 3.945 21.954 4.922 21.953 6.133 21.953 7.851 21.992 10.118 21.914 13.203 21.992 17.5 21.953 23.164 21.954 30.351 21.953 37.891 21.953 42.305 21.953 36.406 21.953 14.922 21.953-14.922 21.953-36.406 21.953-42.305 21.953-37.89 21.954-30.352 21.953-23.164 21.992-17.5 21.953-13.203 21.953-10.118 21.953-7.851 21.953-6.133 21.954-4.922 21.953-3.945 21.953-3.242 21.953-2.696 21.953-2.226 21.953-1.836 21.953-1.602 21.953-1.367 21.993-1.172 21.914-1.054 21.992-.86 21.953-.781 21.953-.703 21.953-.586" style="fill:none;stroke-width:3.985;stroke-linecap:butt;stroke-linejoin:miter;stroke:#ccc;stroke-opacity:1;stroke-miterlimit:10" transform="matrix(.1 0 0 -.1 0 113)"/><path d="m3.594 573.906 21.953.703 21.953.782 21.953.859 21.992 1.016 21.953 1.132 21.954 1.29 21.953 1.523 21.953 1.758 21.953 2.07 21.953 2.5 21.953 2.93 21.953 3.554 21.953 4.336 21.954 5.352 21.953 6.719 21.953 8.476 21.992 10.82 21.914 14.063 21.992 18.281 21.953 23.828 21.954 30.508 21.953 36.953 21.953 39.922 21.953 33.242 21.953 13.36 21.953-13.36 21.953-33.242 21.953-39.922 21.953-36.953 21.954-30.508 21.953-23.828 21.992-18.28 21.953-14.063 21.953-10.82 21.953-8.477 21.953-6.72 21.954-5.35 21.953-4.337 21.953-3.554 21.953-2.93 21.953-2.5 21.953-2.07 21.953-1.758 21.953-1.524 21.993-1.289 21.914-1.132 21.992-1.016 21.953-.86 21.953-.78 21.953-.704" style="fill:none;stroke-width:3.985;stroke-linecap:butt;stroke-linejoin:miter;stroke:#b2b2b2;stroke-opacity:1;stroke-miterlimit:10" transform="matrix(.1 0 0 -.1 0 113)"/><path d="m3.594 575.078 21.953.781 21.953.86 21.953.976 21.992 1.133 21.953 1.29 21.954 1.484 21.953 1.68 21.953 1.991 21.953 2.344 21.953 2.735 21.953 3.28 21.953 3.985 21.953 4.805 21.954 5.898 21.953 7.344 21.953 9.18 21.992 11.68 21.914 14.921 21.992 19.14L442.734 695l21.954 30.39 21.953 35.704 21.953 37.11 21.953 29.921 21.953 11.758 21.953-11.758 21.953-29.922 21.953-37.11 21.953-35.702L662.266 695l21.953-24.414 21.992-19.14 21.953-14.923 21.953-11.68 21.953-9.179 21.953-7.344 21.954-5.898 21.953-4.805 21.953-3.984 21.953-3.281 21.953-2.735 21.953-2.344 21.953-1.992 21.953-1.68 21.993-1.484 21.914-1.289 21.992-1.133 21.953-.976 21.953-.86 21.953-.78" style="fill:none;stroke-width:3.985;stroke-linecap:butt;stroke-linejoin:miter;stroke:#999;stroke-opacity:1;stroke-miterlimit:10" transform="matrix(.1 0 0 -.1 0 113)"/><path d="m3.594 576.563 21.953.898 21.953 1.016 21.953 1.132 21.992 1.29 21.953 1.484 21.954 1.68 21.953 1.953 21.953 2.265 21.953 2.657 21.953 3.125 21.953 3.71 21.953 4.454 21.953 5.39 21.954 6.563 21.953 8.086 21.953 10.078 21.992 12.578 21.914 15.898 21.992 19.922 21.953 24.805 21.954 29.96 43.906 67.891 21.953 26.368 21.953 10.117 21.953-10.117 21.953-26.368 43.907-67.89 21.953-29.961 21.953-24.805 21.992-19.922 21.953-15.898 21.953-12.578 21.953-10.078 21.953-8.086 21.954-6.563 21.953-5.39 21.953-4.454 21.953-3.71 21.953-3.125 21.953-2.657 21.953-2.265 21.953-1.953 21.993-1.68 21.914-1.485 21.992-1.289 21.953-1.132 21.953-1.016 21.953-.899" style="fill:none;stroke-width:3.985;stroke-linecap:butt;stroke-linejoin:miter;stroke:#7f7f7f;stroke-opacity:1;stroke-miterlimit:10" transform="matrix(.1 0 0 -.1 0 113)"/><path d="m3.594 578.672 21.953 1.055 21.953 1.171 21.953 1.329 21.992 1.523 21.953 1.719 21.954 1.992 21.953 2.266 21.953 2.656 21.953 3.047 21.953 3.633 21.953 4.257 21.953 5.078 21.953 6.133 21.954 7.383 21.953 8.984 21.953 11.055 21.992 13.633 21.914 16.836 21.992 20.625 21.953 24.96 21.954 29.024 21.953 31.524 21.953 30.234 21.953 22.617 21.953 8.477 21.953-8.477 21.953-22.617 21.953-30.234 21.953-31.524 21.954-29.023 21.953-24.961 21.992-20.625 21.953-16.836 21.953-13.633 21.953-11.055 21.953-8.984 21.954-7.383 21.953-6.133 21.953-5.078 21.953-4.258 21.953-3.632 21.953-3.047 21.953-2.656 21.953-2.266 21.993-1.992 21.914-1.719 21.992-1.523 21.953-1.329 21.953-1.171 21.953-1.055" style="fill:none;stroke-width:3.985;stroke-linecap:butt;stroke-linejoin:miter;stroke:#666;stroke-opacity:1;stroke-miterlimit:10" transform="matrix(.1 0 0 -.1 0 113)"/><path d="m3.594 581.758 21.953 1.25 21.953 1.445 21.953 1.64 21.992 1.837 21.953 2.07 21.954 2.383 21.953 2.734 21.953 3.164 21.953 3.633 21.953 4.258 21.953 5 21.953 5.937 21.953 7.032 21.954 8.398 21.953 10.117 21.953 12.188 21.992 14.726 21.914 17.696 21.992 21.093 21.953 24.493 21.954 27.343 21.953 28.36 21.953 25.86 21.953 18.632 21.953 6.836 21.953-6.836 21.953-18.633 21.953-25.86 21.953-28.359 21.954-27.343 21.953-24.493 21.992-21.093 21.953-17.696 21.953-14.726 21.953-12.188 21.953-10.117 21.954-8.398 21.953-7.032 21.953-5.937 21.953-5 21.953-4.258 21.953-3.633 21.953-3.164 21.953-2.734L991.641 590l21.914-2.07 21.992-1.836 21.953-1.64 21.953-1.446 21.953-1.25" style="fill:none;stroke-width:3.985;stroke-linecap:butt;stroke-linejoin:miter;stroke:#4c4c4c;stroke-opacity:1;stroke-miterlimit:10" transform="matrix(.1 0 0 -.1 0 113)"/><path d="m3.594 586.68 21.953 1.68 21.953 1.835 21.953 2.07 21.992 2.305 21.953 2.657 21.954 2.968 21.953 3.399 21.953 3.906 21.953 4.453 21.953 5.235 21.953 6.015 21.953 7.031 21.953 8.243 21.954 9.648 21.953 11.406 21.953 13.399 21.992 15.742 21.914 18.281 21.992 20.82 21.953 23.164 21.954 24.493 21.953 24.062 21.953 20.82 21.953 14.415 21.953 5.156 21.953-5.156 21.953-14.414 21.953-20.82 21.953-24.063 21.954-24.492 21.953-23.165 21.992-20.82 21.953-18.281 21.953-15.742 21.953-13.399 21.953-11.406 21.954-9.648 21.953-8.243 21.953-7.03 21.953-6.016 21.953-5.235 21.953-4.453 21.953-3.906 21.953-3.399 21.993-2.968 21.914-2.657 21.992-2.304 21.953-2.07 21.953-1.837 21.953-1.68" style="fill:none;stroke-width:3.985;stroke-linecap:butt;stroke-linejoin:miter;stroke:#323232;stroke-opacity:1;stroke-miterlimit:10" transform="matrix(.1 0 0 -.1 0 113)"/><path d="m3.594 596.094 21.953 2.265L47.5 600.9l21.953 2.812 21.992 3.164 21.953 3.555 21.954 3.984 21.953 4.492 21.953 5.078 21.953 5.743 21.953 6.562 21.953 7.5 21.953 8.516 21.953 9.765 21.954 11.133 21.953 12.695 21.953 14.375 21.992 16.133 21.914 17.774 21.992 19.18 21.953 20.038 21.954 19.883 21.953 18.282 21.953 14.96 21.953 9.922 21.953 3.438 21.953-3.438 21.953-9.922 21.953-14.96 21.953-18.282 21.954-19.883 21.953-20.039 21.992-19.18 21.953-17.773 21.953-16.133 21.953-14.375 21.953-12.695 21.954-11.133 21.953-9.765 21.953-8.516 21.953-7.5 21.953-6.562 21.953-5.743 21.953-5.078 21.953-4.492 21.993-3.984 21.914-3.555 21.992-3.164 21.953-2.813 21.953-2.539 21.953-2.265" style="fill:none;stroke-width:3.985;stroke-linecap:butt;stroke-linejoin:miter;stroke:#191919;stroke-opacity:1;stroke-miterlimit:10" transform="matrix(.1 0 0 -.1 0 113)"/><path d="m3.594 620.469 21.953 3.672 21.953 4.023 21.953 4.375 21.992 4.805 21.953 5.312 21.954 5.82 21.953 6.368 21.953 7.031 21.953 7.695 21.953 8.438 21.953 9.258 21.953 10.117 21.953 10.976 21.954 11.836 21.953 12.657 21.953 13.398 21.992 13.945 21.914 14.22 21.992 14.14 21.953 13.515 21.954 12.344 21.953 10.547 21.953 8.086 21.953 5.117 21.953 1.719 21.953-1.719 21.953-5.117 21.953-8.086 21.953-10.547 21.954-12.344 21.953-13.515 21.992-14.14 21.953-14.22 21.953-13.945 21.953-13.398 21.953-12.657 21.954-11.836 21.953-10.976 21.953-10.117 21.953-9.258 21.953-8.438 21.953-7.695 21.953-7.031 21.953-6.367 21.993-5.82 21.914-5.313 21.992-4.805 21.953-4.375 21.953-4.023 21.953-3.672" style="fill:none;stroke-width:3.985;stroke-linecap:butt;stroke-linejoin:miter;stroke:#000;stroke-opacity:1;stroke-miterlimit:10" transform="matrix(.1 0 0 -.1 0 113)"/><path d="m1238.633 572.148 4.336.157 4.375.117 4.375.195 8.672.313 4.375.195 4.336.195 4.375.196 4.335.195 8.75.39 4.336.235 4.375.234 4.336.235 4.375.234 4.336.234 4.375.274 4.336.234 4.375.274 4.336.312 4.375.274 4.336.312 4.375.313 4.336.351 4.375.313 4.336.39 4.375.352 4.375.39 4.336.391 4.375.39 4.336.43 4.375.47 4.336.468 4.375.469 4.336.508 4.375.507 4.336.547 4.336.586 4.375.586 4.375.625 4.336.625 4.375.703 4.335.703 4.376.703 4.335.782 8.75 1.64 4.336.899 4.375.898 4.336.977 4.336 1.015 4.375 1.055 4.336 1.094 4.375 1.172 4.375 1.25 4.336 1.289 4.375 1.328 4.336 1.445 4.375 1.485 4.336 1.601 4.375 1.64 4.336 1.759 4.375 1.836 4.336 1.953 4.375 2.07 4.336 2.187 4.375 2.266 4.336 2.461 4.375 2.54 4.336 2.733 4.375 2.891 4.375 3.047 4.336 3.242 4.375 3.477 4.336 3.633 4.375 3.906 4.335 4.14 4.376 4.375 4.335 4.688 4.375 5 4.336 5.312 4.375 5.664 4.336 6.016 4.375 6.445 4.336 6.875 4.375 7.344 4.336 7.852 4.375 8.36 4.336 8.944 4.375 9.532 4.375 10.234 4.336 10.86 4.375 11.64 4.336 12.383 4.336 13.203 4.375 14.062 4.375 14.922 4.336 15.82 4.375 16.758 4.336 17.657 4.375 18.554 4.336 19.453 4.375 20.196 4.336 20.86 4.375 21.405 4.336 21.72 4.375 21.718 4.336 21.367 4.375 20.586 4.335 19.18 4.376 17.148 4.335 14.297 4.375 10.508 4.336 5.781 4.375-.039 4.336-6.992 4.375-15.04 4.375-23.945 4.336-33.632 4.375-43.79 4.336-53.827 4.375-63.516 4.336-72.031 4.375-79.102 4.336-84.023 4.375-86.641 4.336-86.64 4.375-84.063 4.336-79.102 4.375-72.03 4.336-63.517 4.375-53.828 4.375-43.75 4.336-33.672 4.375-23.945 4.336-15 4.375-7.031 4.336-.04 4.336 5.743 4.375 10.586 4.375 14.258 4.336 17.148 4.375 19.219 4.335 20.547 4.376 21.367 4.335 21.719 4.375 21.719 4.375 21.406 4.336 20.898 4.375 20.196 4.336 19.414 4.336 18.554 4.375 17.656 4.336 16.758 4.375 15.82 4.336 14.923 4.375 14.062 4.336 13.203 4.375 12.383 4.375 11.64 4.336 10.86 4.375 10.234 4.336 9.532 4.375 8.945 4.336 8.36 4.375 7.85 4.336 7.345 4.375 6.875 4.336 6.445 4.375 6.055 4.336 5.625 4.375 5.351 4.336 4.961 4.375 4.688 4.375 4.414 4.336 4.101 4.375 3.906 4.335 3.672 4.376 3.438 4.335 3.242 4.375 3.047 4.336 2.89 4.375 2.735 4.336 2.578 4.336 2.422 4.375 2.305 4.375 2.148 4.336 2.07 4.375 1.953 4.336 1.836 4.375 1.758 4.336 1.68 4.375 1.562 4.375 1.485 4.336 1.445 4.336 1.367 4.375 1.25 4.336 1.25 4.375 1.172 4.336 1.094 4.375 1.055 4.375 1.015 4.336.977 4.375.898 4.336.899 4.375.859 4.336.781 4.375.782 4.336.703 4.375.742 4.336.664 4.374.625 4.336.625 4.375.586 4.336.586 4.375.547 4.336.507 8.75 1.016 4.336.43 4.375.468 4.336.43 4.375.39 4.336.391 4.375.391 4.336.39 4.375.352 4.336.313 4.375.351 4.336.313 4.375.312 4.336.274 4.375.312 4.336.274 4.375.273 4.336.235 4.375.273 4.336.234 4.375.235 4.336.195 4.375.234 4.336.196 4.375.234 4.375.156 4.336.196 4.374.195 4.336.195 4.375.157 4.336.156 4.375.195m0 .001 4.336.155 4.375.117" style="fill:none;stroke-width:3.985;stroke-linecap:butt;stroke-linejoin:miter;stroke:#e5e5e5;stroke-opacity:1;stroke-miterlimit:10" transform="matrix(.1 0 0 -.1 0 113)"/><path d="m1238.633 572.813 4.57.195 4.57.156 13.711.586 4.57.234 4.61.196 18.281.937 4.57.274 4.57.234 4.571.273 4.57.313 4.57.273 4.571.313 4.61.312 4.57.313 9.14.703 4.57.39 4.571.352 4.57.43 4.57.39 4.571.43 4.61.43 4.57.469 13.71 1.523 9.141 1.094 4.57.586 4.57.625 9.142 1.328 4.609.703 4.57.742 9.14 1.563 9.141 1.718 4.57.938 4.571.976 4.57 1.016 4.61 1.055 4.57 1.133 4.57 1.172 4.57 1.21 9.141 2.657 4.57 1.445 4.571 1.523 4.57 1.602 4.57 1.68 4.57 1.758 4.571 1.875 4.61 1.953 4.57 2.07 4.57 2.226 4.57 2.344 4.57 2.422 4.571 2.617 4.57 2.774 4.57 2.93 4.61 3.124 4.57 3.282 4.57 3.476 4.571 3.711 4.57 3.946 4.57 4.218 4.571 4.492 4.57 4.766 4.57 5.078 4.61 5.39 4.57 5.782 4.532 6.133 4.609 6.601 4.57 6.993 4.57 7.5 4.57 7.968 4.571 8.555 4.57 9.102 4.57 9.726 4.571 10.39 4.61 11.056 4.57 11.835 4.57 12.54 4.57 13.398 4.57 14.18 4.571 15.078 4.57 15.898 4.57 16.797 4.571 17.617 4.57 18.399 4.57 19.18 4.571 19.765 4.61 20.273 9.14 41.016 4.57 20.156 4.57 19.375 4.57 18.047 4.571 16.055 4.57 13.32 4.61 9.766 4.57 5.234 4.57-.351 4.57-6.875 4.571-14.493 4.57-22.93 4.57-32.07 4.571-41.601 4.57-51.094 4.57-60.156 4.571-68.203 4.61-74.805 4.57-79.453 4.57-81.836 4.57-81.914 4.57-79.453 4.571-74.766 4.57-68.203 4.57-60.117 4.57-51.094 4.571-41.601 4.61-32.07 4.57-22.97 4.57-14.453 4.57-6.914 4.57-.312 4.571 5.195 4.57 9.766 4.57 13.32 4.571 16.055 4.57 18.047 4.57 19.375 4.571 20.156 4.61 20.508 4.57 20.507 4.57 20.274 4.57 19.766 4.57 19.18 4.571 18.398 4.57 17.617 4.61 16.797 4.57 15.937 4.57 15.04 4.57 14.179 4.57 13.398 4.571 12.54 4.57 11.835 4.57 11.055 4.571 10.39 4.57 9.727 4.57 9.102 4.571 8.555 4.57 7.968 4.61 7.5 4.57 7.032 4.57 6.562 4.57 6.133 4.571 5.781 4.57 5.39 4.57 5.079 4.61 4.765 4.57 4.493 4.532 4.218 4.57 3.946 4.61 3.71 4.57 3.516 4.57 3.282 4.57 3.086 4.57 2.93 4.57 2.773 4.571 2.617 4.57 2.46 4.57 2.305 4.61 2.227 4.57 2.07 4.57 1.953 4.571 1.875 4.57 1.797 4.57 1.64 4.571 1.602 4.57 1.524 4.61 1.406 4.57 1.367 4.57 1.29 4.57 1.25 4.571 1.171 4.57 1.133 4.57 1.055 4.57 1.015 4.571.977 4.57.938 9.141 1.718 4.61.82 9.14 1.485 4.57.703 9.141 1.328 4.57.625 4.57.586 4.61.547 9.14 1.094 4.571.508 9.14.937 13.712 1.29 4.57.39 4.57.351 4.57.39 4.61.352 4.57.352 18.282 1.25 13.71.82 4.61.235 22.851 1.172 18.282.78 4.57.157 4.61.195" style="fill:none;stroke-width:3.985;stroke-linecap:butt;stroke-linejoin:miter;stroke:#ccc;stroke-opacity:1;stroke-miterlimit:10" transform="matrix(.1 0 0 -.1 0 113)"/><path d="m1238.633 573.672 4.844.195 4.882.235 4.844.195 4.844.234 4.844.274 9.765.468 4.844.274 4.844.312 4.843.274 4.883.273 4.844.313 4.844.351 4.883.313 4.843.351 4.883.352 4.844.351 4.844.391 4.882.43 4.844.39 4.844.43 4.883.469 4.844.469 4.843.507 4.883.508 4.844.508 4.844.586 4.882.586 4.844.586 4.883.625 4.844.664 4.843.703 4.883.742 4.844.742 4.844.782 4.883.82 9.687 1.797 4.883.937 4.844 1.016 4.843 1.055 4.883 1.093 4.844 1.172 4.844 1.211 4.883 1.29 4.843 1.327 4.844 1.446 4.883 1.484 4.844 1.602 4.882 1.64 4.844 1.758 4.844 1.836 4.883 1.953 4.843 2.07 4.844 2.227 4.883 2.266 4.844 2.46 4.844 2.618 4.882 2.734 4.844 2.93 4.844 3.086 4.883 3.32 4.843 3.477 4.844 3.71 4.883 3.985 4.844 4.18 4.883 4.492 4.843 4.765 4.844 5.079 4.844 5.468 4.883 5.782 4.843 6.172 4.883 6.601 4.844 7.031 4.883 7.54 4.843 8.007 4.844 8.594 4.844 9.14 4.883 9.766 4.844 10.43 4.882 11.133 4.844 11.836 4.844 12.578 4.844 13.398 4.882 14.18 4.844 15 4.883 15.82 4.844 16.563 4.843 17.422 4.844 18.046 4.883 18.672 4.844 19.102 4.883 19.375 4.843 19.375 4.883 19.023 4.844 18.32 4.844 17.032 4.843 15.195 4.883 12.656 4.844 9.258 4.844 5 4.883-.234 4.843-6.445 4.883-13.555 4.844-21.563 4.844-30.195 4.882-39.18 4.844-48.203 4.844-56.718 4.883-64.336 4.843-70.586 4.844-75 4.883-77.266 4.844-77.305 4.844-75 4.882-70.586 4.844-64.336 4.883-56.718 4.844-48.164 4.843-39.22 4.883-30.194 4.844-21.524 4.844-13.633 4.883-6.406 4.843-.234 4.844 5 4.883 9.257 4.844 12.618 4.843 15.234 4.883 17.031 4.844 18.32 4.844 19.024 4.882 19.375 4.844 19.375 4.844 19.102 4.883 18.672 4.844 18.085 4.882 17.344 4.844 16.64 4.844 15.782 4.883 15 4.843 14.18 4.844 13.398 4.883 12.578 4.844 11.836 4.843 11.133 4.883 10.39 4.844 9.805 4.844 9.141 4.883 8.594 4.843 8.047 4.844 7.5 4.883 7.03 4.844 6.602 4.882 6.172 4.844 5.782 4.844 5.468 4.844 5.078 4.883 4.766 4.843 4.492 4.883 4.219 4.844 3.945 4.844 3.711 4.882 3.516 4.844 3.281 4.844 3.086 4.883 2.93 4.843 2.734 4.844 2.617 4.883 2.422 4.844 2.344 4.844 2.187 4.882 2.032 4.844 1.992 4.883 1.836 4.844 1.758 4.843 1.68 4.883 1.562 4.844 1.523 4.844 1.407 4.883 1.328 4.843 1.289 4.883 1.21 4.844 1.173 4.844 1.093 4.882 1.055 4.844 1.016 4.844.937 4.883.938 4.843.859 4.844.82 4.883.782 4.844.78 4.844.704 4.882.703 4.844.664 4.883.625 4.844.625 4.843.547 4.844.586 4.883.508 9.688 1.015 4.882.47 4.844.468 4.883.43 4.844.43 4.843.39 4.883.39 9.688.704 4.883.351 4.843.352 4.844.312 4.883.313 4.844.312 4.843.274 4.883.273 4.844.274 4.883.234 4.843.273 4.844.235 4.883.234 4.844.234 4.843.196 4.883.195" style="fill:none;stroke-width:3.985;stroke-linecap:butt;stroke-linejoin:miter;stroke:#b2b2b2;stroke-opacity:1;stroke-miterlimit:10" transform="matrix(.1 0 0 -.1 0 113)"/><path d="m1238.633 574.727 5.195.273 5.195.234 5.196.274 5.234.312 5.195.274 10.391.625 5.195.351 5.235.313 10.39.703 5.196.39 5.234.391 15.586 1.29 5.195.468 10.39 1.016 5.235.547 5.196.507 5.195.586 10.39 1.25 5.235.664 5.195.664 10.39 1.485 5.196.781 5.235.86 5.195.859 5.195.898 5.196.938 5.234 1.015 5.195 1.055 5.196 1.094 5.195 1.172 5.195 1.25 5.195 1.289 5.235 1.328 5.195 1.445 5.195 1.485 5.196 1.601 5.195 1.68 5.195 1.797 5.235 1.836 5.195 1.992 5.195 2.11 5.196 2.226 5.234 2.343 5.195 2.5 5.196 2.618 5.195 2.812 5.195 2.969 5.235 3.164 5.195 3.36 5.195 3.554 5.196 3.828 5.195 4.024 5.195 4.336 5.235 4.57 5.195 4.922 5.195 5.234 5.196 5.547 5.234 5.976 5.195 6.329 5.196 6.797 5.195 7.226 5.195 7.774 5.196 8.242 5.234 8.867 5.195 9.414 5.196 10.039 5.195 10.703 5.195 11.406 5.235 12.149 5.195 12.851 5.195 13.633 5.195 14.414 5.196 15.157 5.234 15.898 5.195 16.562 5.196 17.188 5.195 17.734 5.195 18.047 5.235 18.164 5.195 18.047 5.195 17.617 5.196 16.64 5.195 15.235 5.195 13.203 5.235 10.47 5.195 6.874 5.195 2.461 5.196-2.89 5.195-9.141 5.234-16.25 5.196-24.063 5.195-32.382 5.195-40.86 5.196-49.14 5.234-56.836 5.195-63.36 5.196-68.476 5.195-71.602 5.195-72.695 5.235-71.602 5.195-68.476 5.195-63.36 5.196-56.797 5.195-49.18 5.195-40.859 5.235-32.382 5.195-24.063 5.195-16.25 5.195-9.14 5.196-2.891 5.234 2.46 5.195 6.876 5.196 10.469 5.195 13.203 5.234 15.234 5.157 16.64 5.234 17.618 5.195 18.047 5.196 18.203 5.195 18.008 5.234 17.734 5.196 17.188 5.195 16.601 5.195 15.899 5.196 15.117 5.234 14.414 5.195 13.633 5.196 12.851 5.195 12.149 5.234 11.406 5.157 10.703 5.234 10.078 5.195 9.375 5.196 8.867 5.195 8.242 5.234 7.735 5.157 7.265 5.234 6.797 5.195 6.328 5.196 5.977 5.195 5.547 5.234 5.234 5.196 4.922 5.195 4.57 5.195 4.336 5.235 4.024 5.156 3.828 5.234 3.555 5.195 3.359 5.196 3.164 5.195 2.969 5.234 2.812 5.196 2.657 5.195 2.46 5.195 2.344 5.196 2.227 5.234 2.11 5.195 1.952 5.196 1.914 5.195 1.758 5.195 1.68 5.196 1.601 5.234 1.485 5.195 1.445 5.196 1.367 5.195 1.29 5.195 1.21 5.235 1.172 5.195 1.094 5.195 1.055 5.196 1.015 5.195.938 5.234.898 5.196.899 5.195.82 5.195.781 5.235.781 5.195.704 10.39 1.328 10.391 1.25 5.235.586 5.195.547 15.586 1.523 5.195.469 5.234.43 10.391.859 5.195.39 5.235.391 15.586 1.055 5.234.312 5.156.313 5.235.312 5.195.274 5.195.312 5.196.274 5.195.234 5.234.273" style="fill:none;stroke-width:3.985;stroke-linecap:butt;stroke-linejoin:miter;stroke:#999;stroke-opacity:1;stroke-miterlimit:10" transform="matrix(.1 0 0 -.1 0 113)"/><path d="m1238.633 576.133 5.625.312 5.625.352 5.625.312 5.625.352 5.664.39 5.625.352 5.625.39 16.875 1.29 5.625.469 11.25 1.015 5.625.547 5.664.547 11.25 1.172 16.875 1.992 11.25 1.484 5.664.82 11.25 1.72 11.25 1.874 5.664 1.055 5.586 1.055 5.664 1.133 5.625 1.172 5.625 1.25 5.625 1.328 5.625 1.406 5.625 1.445 5.625 1.563 5.625 1.64 5.664 1.72 5.625 1.835 5.625 1.914 5.625 2.07 5.625 2.149 5.625 2.304 5.625 2.422 5.625 2.578 5.625 2.735 5.664 2.93 5.625 3.086 5.625 3.32 5.625 3.515 5.625 3.711 5.625 3.985 5.625 4.258 5.664 4.492 5.625 4.843 5.625 5.118 5.625 5.508 5.625 5.859 5.625 6.289 5.625 6.68 5.625 7.148 5.625 7.656 5.625 8.125 5.664 8.711 5.625 9.297 5.625 9.883 5.625 10.547 5.625 11.21 5.625 11.915 5.625 12.578 5.664 13.36 5.625 13.984 5.625 14.726 5.625 15.352 5.625 15.937 5.625 16.407 5.664 16.718 5.586 16.875 5.664 16.758 5.586 16.328 5.664 15.469 5.625 14.219 5.625 12.304 5.625 9.727 5.625 6.484 5.625 2.383 5.665-2.578 5.624-8.36 5.626-14.96 5.624-22.227 5.626-29.922 5.624-37.812 5.626-45.547 5.624-52.656 5.626-58.75 5.664-63.438 5.625-66.406 5.625-67.461 5.625-66.406 5.625-63.438 5.625-58.75 5.625-52.656 5.625-45.547 5.664-37.812 5.625-29.922 5.625-22.227 5.625-14.96 5.625-8.36 5.625-2.578 5.625 2.383 5.625 6.484 5.625 9.766 5.664 12.265 5.625 14.219 5.625 15.469 5.625 16.328 5.625 16.758 5.625 16.875 5.664 16.718 5.586 16.407 5.664 15.937 5.625 15.352 5.625 14.726 5.625 14.024 5.625 13.28 5.625 12.618 5.625 11.914 5.625 11.211 5.664 10.547 5.625 9.883 5.625 9.297 5.625 8.71 5.625 8.165 5.625 7.617 5.625 7.148 5.664 6.72 5.625 6.25 5.625 5.858 5.625 5.508 5.625 5.117 5.625 4.844 5.625 4.531 5.625 4.22 5.625 3.984 5.625 3.75 5.664 3.476 5.625 3.32 5.625 3.086 5.625 2.93 5.625 2.734 5.625 2.579 5.625 2.421 5.625 2.305 5.664 2.188 5.625 2.03 5.625 1.915 5.625 1.836 5.625 1.719 5.664 1.64 5.586 1.563 5.664 1.484 5.586 1.367 5.664 1.328 5.625 1.25 5.625 1.172 5.625 1.133 5.625 1.094 5.625 1.015 5.664.977 11.25 1.797 11.25 1.64 11.25 1.485 5.625.703 5.625.664 5.664.625 16.875 1.758 16.875 1.523 5.625.47 5.664.429 11.25.86 11.25.78 16.875 1.055 5.625.313 5.664.312" style="fill:none;stroke-width:3.985;stroke-linecap:butt;stroke-linejoin:miter;stroke:#7f7f7f;stroke-opacity:1;stroke-miterlimit:10" transform="matrix(.1 0 0 -.1 0 113)"/><path d="m1238.633 578.047 6.172.39 12.343.86 6.133.469 6.172.468 12.344 1.016 12.344 1.094 6.171.586 6.172.625 6.172.664 6.133.664 12.344 1.484 6.172.781 6.172.82 6.171.86 6.133.899 6.211.976 6.172.977 6.172 1.093 6.133 1.094 6.172 1.172 6.171 1.25 6.172 1.29 6.172 1.366 6.172 1.446 6.133 1.523 6.21 1.64 6.134 1.72 6.172 1.796 6.171 1.953 6.172 2.032 6.172 2.148 6.172 2.305 6.172 2.422 6.133 2.578 6.172 2.734 6.171 2.93 6.172 3.086 6.172 3.32 6.172 3.516 6.172 3.75 6.172 3.984 6.133 4.258 6.172 4.531 6.171 4.883 6.211 5.195 6.133 5.508 6.172 5.938 6.172 6.289 6.172 6.758 6.172 7.187 6.172 7.695 6.132 8.203 6.172 8.75 6.172 9.336 6.172 9.922 6.172 10.547 6.172 11.211 6.172 11.797 6.171 12.5 6.172 13.125 6.133 13.71 6.172 14.298 6.172 14.765 6.172 15.157 6.172 15.351 6.172 15.39 6.171 15.118 6.172 14.61 6.172 13.593 6.172 12.149 6.133 10.156 6.172 7.5 6.172 4.14 6.171.04 6.172-4.922 6.172-10.547 6.172-16.914 6.172-23.75 6.133-30.938 6.172-38.086 6.172-44.883 6.171-51.015 6.172-55.938 6.172-59.492 6.172-61.328 6.133-61.328 6.21-59.531 6.134-55.938 6.171-51.015 6.172-44.883 6.172-38.086 6.172-30.938 6.172-23.75 6.172-16.875 6.172-10.586 6.133-4.882h6.171l6.172 4.14 6.172 7.5 6.172 10.156 6.172 12.149 6.172 13.633 6.172 14.57 6.172 15.117 6.132 15.39 6.172 15.352 6.172 15.157 6.172 14.765 6.172 14.297 6.172 13.711 6.172 13.125 6.171 12.5 6.133 11.836 6.172 11.172 6.172 10.547 6.172 9.922 6.172 9.336 6.172 8.75 6.172 8.203 6.171 7.695 6.133 7.187 6.211 6.758 6.133 6.328 6.172 5.899 6.172 5.547 6.172 5.156 6.171 4.844 6.172 4.57 6.172 4.258 6.172 4.023 6.133 3.711 6.172 3.516 6.172 3.32 6.172 3.086 6.171 2.93 6.172 2.734 6.172 2.578 6.172 2.422 6.172 2.305 6.133 2.148 6.172 2.07 6.171 1.915 6.172 1.797 6.172 1.718 6.172 1.64 6.172 1.524 6.133 1.446 6.172 1.367 6.21 1.328 6.133 1.21 6.172 1.173 6.172 1.133 6.172 1.054 6.172 1.016 6.172.937 6.133.899 6.171.86 6.172.82 6.172.78 12.344 1.485 12.344 1.328 6.172.625 6.171.586 6.133.547 12.344 1.094 18.516 1.406 12.343.86 6.172.39" style="fill:none;stroke-width:3.985;stroke-linecap:butt;stroke-linejoin:miter;stroke:#666;stroke-opacity:1;stroke-miterlimit:10" transform="matrix(.1 0 0 -.1 0 113)"/><path d="m1238.633 580.781 6.875.547 6.836.547 6.875.586 6.836.625 13.75 1.328 6.836.703 6.875.781 6.875.743 6.836.82 13.75 1.797 6.835.937 6.876 1.016 6.874 1.055 6.836 1.132 6.875 1.172 6.875 1.25 6.836 1.328 6.875 1.368 6.836 1.445 6.875 1.562 6.875 1.641 6.836 1.758 6.875 1.836 6.875 1.953 6.875 2.07 6.836 2.188 6.875 2.343 6.836 2.5 6.875 2.618 6.875 2.812 6.836 2.969 6.875 3.164 6.875 3.398 6.836 3.594 6.875 3.867 6.836 4.102 6.875 4.375 6.875 4.687 6.836 4.961 6.875 5.352 6.875 5.664 6.836 6.094 6.875 6.484 6.875 6.914 6.836 7.383 6.875 7.852 6.875 8.398 6.836 8.906 6.875 9.492 6.836 10.04 6.875 10.585 6.875 11.211 6.875 11.72 6.836 12.304 6.875 12.773 6.875 13.164 6.835 13.516 6.876 13.672 6.835 13.672 6.875 13.476 6.875 12.89 6.836 12.032 6.875 10.703 6.875 8.867 6.836 6.524 6.875 3.476 6.836-.234 6.875-4.61 6.875-9.609 6.875-15.312 6.836-21.367 6.875-27.735 6.836-34.101 6.875-40.078 6.875-45.47 6.836-49.843 6.875-52.969 6.875-54.57 6.836-54.61 6.875-52.968 6.875-49.844 6.836-45.469 6.875-40.117 6.875-34.062 6.836-27.696 6.875-21.406 6.875-15.273 6.836-9.649 6.875-4.61 6.836-.233 6.875 3.476 6.875 6.524 6.875 8.867 6.836 10.703 6.875 12.031 6.875 12.89 6.836 13.477 6.875 13.672 6.836 13.672 6.875 13.516 6.875 13.164 6.835 12.773 6.876 12.305 6.835 11.758 6.875 11.171 6.875 10.625 6.836 10 6.875 9.493 6.875 8.906 6.875 8.398 6.836 7.852 6.875 7.383 6.836 6.914 6.875 6.523 6.875 6.055 6.836 5.703 6.875 5.313 6.875 5 6.836 4.648 6.875 4.375 6.875 4.102 6.836 3.867 6.875 3.594 6.875 3.398 6.875 3.164 6.836 2.969 6.836 2.812 6.875 2.656 6.875 2.461 6.836 2.344 6.875 2.188 6.875 2.07 6.836 1.953 6.875 1.836 6.836 1.758 6.875 1.64 6.875 1.524 6.875 1.484 6.836 1.367 6.875 1.329 6.875 1.25 6.836 1.172 6.875 1.132 6.836 1.055 6.875 1.016 6.875.937 6.875.899 6.836.859 6.874.86 6.836.78 6.875.743 6.875.703 6.875.664 6.836.664 6.875.586 6.836.625 13.75 1.094" style="fill:none;stroke-width:3.985;stroke-linecap:butt;stroke-linejoin:miter;stroke:#4c4c4c;stroke-opacity:1;stroke-miterlimit:10" transform="matrix(.1 0 0 -.1 0 113)"/><path d="m1238.633 585.078 7.93.781 7.968.82 7.969.86 7.969.938 7.93.937 7.968 1.016 7.93 1.054 7.969 1.133 7.968 1.211 7.93 1.25 7.969 1.328 7.969 1.407 7.93 1.484 7.968 1.601 7.969 1.68 7.93 1.758 7.968 1.875 7.969 2.031 7.93 2.11 7.968 2.265 7.93 2.422 7.969 2.54 7.969 2.734 7.93 2.89 7.968 3.125 7.969 3.32 7.968 3.516 7.93 3.75 7.969 4.024 7.93 4.296 7.968 4.57 7.97 4.923 7.929 5.234 7.969 5.586 7.93 5.937 7.968 6.368 7.969 6.796 7.968 7.227 7.93 7.695 7.969 8.164 7.969 8.672 7.93 9.18 7.968 9.648 7.93 10.196 7.969 10.625 7.968 11.093 7.93 11.407 7.969 11.718 7.968 11.914 7.93 11.875 7.969 11.72 7.969 11.288 7.93 10.508 7.968 9.375 7.969 7.852 7.93 5.78 7.968 3.165 7.97-.04 7.929-3.827 7.968-8.203 7.97-13.125 7.929-18.399 7.969-23.984 7.93-29.492 7.968-34.766 7.969-39.492 7.93-43.32 7.968-46.016 7.97-47.461 7.929-47.46 7.968-46.056 7.97-43.32 7.929-39.492 7.969-34.766 7.968-29.492 7.93-23.984 7.969-18.399 7.969-13.125 7.93-8.242 7.968-3.828h7.969l7.93 3.164 7.968 5.781 7.969 7.852 7.93 9.375 7.968 10.508 7.93 11.289 7.969 11.718 7.969 11.875 7.968 11.914 7.93 11.72 7.969 11.445 7.93 11.054 7.968 10.625 7.969 10.196 7.93 9.648 7.968 9.18 7.97 8.672 7.929 8.164 7.969 7.695 7.968 7.226 7.93 6.797 7.969 6.368 7.969 5.976 7.93 5.586 7.968 5.195 7.93 4.922 7.968 4.57 7.97 4.297 7.929 4.024 7.969 3.75 7.968 3.555 7.97 3.28 7.929 3.126 7.969 2.89 7.93 2.735 7.968 2.539 7.969 2.422 7.93 2.265 7.968 2.149 7.93 1.992 7.969 1.875 7.968 1.797 7.97 1.64 7.929 1.602 7.969 1.484 7.968 1.407 7.93 1.328 7.969 1.289 7.93 1.172 7.968 1.133 7.969 1.054 7.93 1.016 7.968.976 7.97.899 7.929.86 7.969.82 7.968.78" style="fill:none;stroke-width:3.985;stroke-linecap:butt;stroke-linejoin:miter;stroke:#323232;stroke-opacity:1;stroke-miterlimit:10" transform="matrix(.1 0 0 -.1 0 113)"/><path d="m1238.633 592.695 9.726 1.25 9.688 1.367 9.726 1.407 9.727 1.484 9.688 1.602 9.726 1.718 9.727 1.797 9.726 1.914 9.688 2.032 9.726 2.187 9.727 2.305 9.687 2.46 9.727 2.618 9.726 2.812 9.727 3.008 9.688 3.164 9.726 3.438 9.727 3.633 9.687 3.867 9.727 4.14 9.726 4.454 9.688 4.726 9.726 5.04 9.727 5.39 9.726 5.742 9.688 6.094 9.726 6.484 9.727 6.914 9.688 7.266 9.726 7.695 9.727 8.125 9.687 8.516 9.727 8.867 9.726 9.18 9.688 9.453 9.726 9.648 9.727 9.688 9.726 9.61 9.688 9.374 9.727 8.867 9.726 8.125 9.688 6.992 9.726 5.508 9.727 3.633 9.687 1.25 9.727-1.562 9.726-4.961 9.727-8.75 9.687-12.891 9.727-17.344 9.727-21.875 9.726-26.25 9.688-30.351 9.726-33.828 9.727-36.524 9.687-38.203 9.727-38.79 9.726-38.202 9.727-36.524 9.687-33.828 9.727-30.351 9.727-26.25 9.687-21.875 9.727-17.305 9.726-12.93 9.688-8.75 9.726-4.922 9.727-1.601 9.726 1.25 9.688 3.633 9.726 5.507 9.727 6.993 9.688 8.125 9.726 8.867 9.727 9.375 9.687 9.61 9.727 9.726 9.726 9.61 9.688 9.452 9.726 9.22 9.727 8.866 9.726 8.477 9.688 8.125 9.726 7.695 9.727 7.266 9.688 6.914 9.726 6.484 9.727 6.094 9.726 5.742 9.688 5.39 9.726 5.04 9.727 4.726 9.726 4.454 9.688 4.14 9.727 3.906 9.726 3.633 9.688 3.399 9.726 3.203 9.727 2.969 9.687 2.812 9.727 2.617 9.726 2.461 9.727 2.305 9.687 2.187 9.727 2.032 9.727 1.914 9.687 1.836 9.727 1.68 9.726 1.6 9.727 1.524 9.687 1.407 9.727 1.328 9.726 1.25" style="fill:none;stroke-width:3.985;stroke-linecap:butt;stroke-linejoin:miter;stroke:#191919;stroke-opacity:1;stroke-miterlimit:10" transform="matrix(.1 0 0 -.1 0 113)"/><path d="m1238.633 609.492 13.71 2.5 13.712 2.656 13.75 2.852 13.71 3.047 13.712 3.242 13.75 3.438 13.71 3.71 13.711 3.946 13.75 4.18 13.711 4.453 13.711 4.726 13.711 5.04 13.75 5.273 13.711 5.586 13.711 5.898 13.75 6.133 13.711 6.406 13.711 6.563 13.71 6.757 13.75 6.836 13.712 6.875 13.71 6.72 13.75 6.444 13.712 6.016 13.71 5.352 13.712 4.453 13.75 3.242 13.71 1.719 13.75-.078 13.711-2.344 13.711-4.805 13.711-7.656 13.75-10.664 13.711-13.867 13.711-17.032 13.75-20.039 13.711-22.734 13.711-24.961 13.711-26.484 13.75-27.266 13.711-27.305 13.71-26.484 13.75-24.922 13.712-22.734 13.71-20.078 13.712-16.993 13.75-13.867 13.71-10.703 13.75-7.656 13.712-4.805 13.71-2.305 13.711-.117 13.711 1.719 13.75 3.281 13.711 4.453 13.75 5.313 13.711 6.015 13.711 6.485 13.711 6.68 13.75 6.875 13.711 6.836 13.711 6.757 13.75 6.563 13.711 6.406 13.71 6.133 13.712 5.898 13.75 5.586 13.71 5.274 13.712 5.039 13.75 4.726 13.71 4.453 13.712 4.22 13.71 3.905 13.75 3.711 13.711 3.438 13.711 3.242 13.75 3.047 13.711 2.851 13.711 2.657 13.75 2.5" style="fill:none;stroke-width:3.985;stroke-linecap:butt;stroke-linejoin:miter;stroke:#000;stroke-opacity:1;stroke-miterlimit:10" transform="matrix(.1 0 0 -.1 0 113)"/></svg>