<svg xmlns="http://www.w3.org/2000/svg" xmlns:xlink="http://www.w3.org/1999/xlink" width="160pt" height="119pt" viewBox="0 0 160 119"><defs><symbol id="a" overflow="visible"><path d="m3.172-1.188-.125-.218-.531.375c-.36.25-.594.36-.735.36-.093 0-.156-.095-.156-.235 0-.313.14-1.25.516-3.016l.156-.734h1.281l.125-.61c-.453.047-.86.079-1.312.079.187-1.125.328-1.704.53-2.36l-.124-.172c-.235.14-.563.282-.938.422l-.296 2.031c-.516.25-.829.391-1.047.454l-.032.156H1.5L.828-1.281c-.062.297-.156.593-.156.906 0 .297.125.484.36.484.421 0 .827-.234 1.765-1 .219-.156.14-.109.375-.296zm0 0" style="stroke:none"/></symbol><symbol id="b" overflow="visible"><path d="M.781-4.14H7.22v-.72H.78zm0 2.53H7.22v-.702H.78zm0 0" style="stroke:none"/></symbol><symbol id="c" overflow="visible"><path d="M7.219-2.875v-.703H.78v.703zm0 0" style="stroke:none"/></symbol><symbol id="f" overflow="visible"><path d="M.781 2.422h.656l3.58-11.313h-.672zm0 0" style="stroke:none"/></symbol><symbol id="d" overflow="visible"><path d="M5 .031v-.36l-.625-.03c-.656-.032-.781-.172-.781-.782v-7.093l-.156-.063c-.782.406-1.626.766-2.72 1.156l.079.5h.125c.531-.234 1.047-.468 1.578-.703.063 0 .094.11.094.407v5.796c0 .61-.125.75-.781.782l-.672.03v.36C1.812.016 2.469 0 3.125 0c.61 0 1.25.016 1.875.031m0 0" style="stroke:none"/></symbol><symbol id="h" overflow="visible"><path d="M5.563-4.375c0-2.625-.782-3.86-2.422-3.86-1.844 0-2.797 1.47-2.797 4.36 0 1.406.25 2.61.672 3.188.421.593 1.093.921 1.828.921 1.812 0 2.719-1.546 2.719-4.609m-1.016.594c0 2.547-.453 3.61-1.547 3.61-1.156 0-1.656-1.22-1.656-4.126 0-2.531.453-3.516 1.578-3.516 1.172 0 1.625 1.172 1.625 4.032m0 0" style="stroke:none"/></symbol><symbol id="e" overflow="visible"><path d="M3.656.031v-.265l-.453-.032c-.484-.03-.562-.125-.562-.578v-5.203l-.125-.031a15 15 0 0 1-1.985.844l.063.375h.078c.39-.188.781-.36 1.156-.516.063 0 .078.078.078.281v4.25c0 .453-.093.547-.578.578l-.484.032V.03C1.328.016 1.813 0 2.28 0c.469 0 .922.016 1.375.031zm0 0" style="stroke:none"/></symbol><symbol id="g" overflow="visible"><path d="M4.11.031c-.032-.187-.032-.281-.032-.406 0-.11 0-.188.031-.39l-3.046.093 1.609-1.687c.844-.907 1.11-1.391 1.11-2.047 0-1.016-.688-1.64-1.798-1.64-.64 0-1.062.187-1.5.624l-.14 1.188h.25l.11-.407c.14-.5.468-.718 1.046-.718.75 0 1.234.468 1.234 1.218 0 .657-.359 1.297-1.359 2.36L.141-.203V.03C.78.016 1.453 0 2.094 0c.672 0 1.344.016 2.015.031zm0 0" style="stroke:none"/></symbol></defs><path d="M486.719 1181.914c0 1.094-.86 1.992-1.992 1.992a2 2 0 0 1-1.993-1.992c0-1.133.899-1.992 1.993-1.992 1.132 0 1.992.86 1.992 1.992zm0-39.454c0 1.134-.86 1.993-1.992 1.993a1.976 1.976 0 0 1-1.993-1.992c0-1.055.899-1.953 1.993-1.953 1.132 0 1.992.898 1.992 1.953zm0-39.374c0 1.094-.86 1.992-1.992 1.992a2 2 0 0 1-1.993-1.992 2 2 0 0 1 1.993-1.992c1.132 0 1.992.898 1.992 1.992zm0 0" style="fill-rule:nonzero;fill:#000;fill-opacity:1;stroke-width:3.985;stroke-linecap:butt;stroke-linejoin:miter;stroke:#000;stroke-opacity:1;stroke-miterlimit:10" transform="matrix(.1 0 0 -.1 0 119)"/><path d="M484.727 1083.36V255.624" style="fill:none;stroke-width:7.9701;stroke-linecap:butt;stroke-linejoin:miter;stroke:#000;stroke-opacity:1;stroke-miterlimit:10" transform="matrix(.1 0 0 -.1 0 119)"/><path d="M48.473 85.219H46.98l1.493 8.219 1.496-8.22h-1.496" style="stroke:none;fill-rule:nonzero;fill:#000;fill-opacity:1"/><path d="M484.727 337.813h-14.922l14.922-82.188 14.96 82.188zm0-82.188h871.601" style="fill:none;stroke-width:7.9701;stroke-linecap:butt;stroke-linejoin:miter;stroke:#000;stroke-opacity:1;stroke-miterlimit:10" transform="matrix(.1 0 0 -.1 0 119)"/><path d="M127.414 93.438v1.496l8.219-1.496-8.219-1.497v1.496" style="stroke:none;fill-rule:nonzero;fill:#000;fill-opacity:1"/><path d="M1274.14 255.625v-14.96l82.188 14.96-82.187 14.96zm0 0" style="fill:none;stroke-width:7.9701;stroke-linecap:butt;stroke-linejoin:miter;stroke:#000;stroke-opacity:1;stroke-miterlimit:10" transform="matrix(.1 0 0 -.1 0 119)"/><path d="M1453.047 255.625a2 2 0 0 1-1.992 1.992 2 2 0 0 1-1.993-1.992 2 2 0 0 1 1.993-1.992 2 2 0 0 1 1.992 1.992zm-37.891 0a2 2 0 0 1-1.992 1.992 2 2 0 0 1-1.992-1.992 2 2 0 0 1 1.992-1.992 2 2 0 0 1 1.992 1.992zm-37.89 0a2 2 0 0 1-1.993 1.992 2 2 0 0 1-1.992-1.992 2 2 0 0 1 1.992-1.992 2 2 0 0 1 1.993 1.992zm-877.578 788.32c0 8.243-6.72 14.961-14.961 14.961-8.243 0-14.922-6.718-14.922-14.96s6.68-14.962 14.922-14.962 14.96 6.72 14.96 14.961zm0 0" style="fill-rule:nonzero;fill:#000;fill-opacity:1;stroke-width:3.985;stroke-linecap:butt;stroke-linejoin:miter;stroke:#000;stroke-opacity:1;stroke-miterlimit:10" transform="matrix(.1 0 0 -.1 0 119)"/><use xlink:href="#a" x="9.136" y="18.685" style="fill:#000;fill-opacity:1"/><use xlink:href="#b" x="17.176" y="18.685" style="fill:#000;fill-opacity:1"/><use xlink:href="#c" x="28.576" y="18.685" style="fill:#000;fill-opacity:1"/><use xlink:href="#d" x="36.616" y="18.685" style="fill:#000;fill-opacity:1"/><path d="M499.688 452.695c0 8.243-6.72 14.961-14.961 14.961-8.243 0-14.922-6.719-14.922-14.96 0-8.243 6.68-14.923 14.922-14.923s14.96 6.68 14.96 14.922zm0 0" style="fill-rule:nonzero;fill:#000;fill-opacity:1;stroke-width:3.985;stroke-linecap:butt;stroke-linejoin:miter;stroke:#000;stroke-opacity:1;stroke-miterlimit:10" transform="matrix(.1 0 0 -.1 0 119)"/><use xlink:href="#a" x="2.656" y="77.09" style="fill:#000;fill-opacity:1"/><use xlink:href="#b" x="10.576" y="77.09" style="fill:#000;fill-opacity:1"/><use xlink:href="#c" x="21.976" y="77.09" style="fill:#000;fill-opacity:1"/><use xlink:href="#e" x="30.016" y="74.81" style="fill:#000;fill-opacity:1"/><use xlink:href="#f" x="33.016" y="77.09" style="fill:#000;fill-opacity:1"/><use xlink:href="#g" x="38.056" y="77.09" style="fill:#000;fill-opacity:1"/><path d="M499.688 255.625c0 8.242-6.72 14.922-14.961 14.922-8.243 0-14.922-6.68-14.922-14.922 0-8.281 6.68-14.96 14.922-14.96s14.96 6.679 14.96 14.96zm0 0" style="fill-rule:nonzero;fill:#000;fill-opacity:1;stroke-width:3.985;stroke-linecap:butt;stroke-linejoin:miter;stroke:#000;stroke-opacity:1;stroke-miterlimit:10" transform="matrix(.1 0 0 -.1 0 119)"/><use xlink:href="#a" x="19.365" y="105.659" style="fill:#000;fill-opacity:1"/><use xlink:href="#b" x="27.405" y="105.659" style="fill:#000;fill-opacity:1"/><use xlink:href="#h" x="38.685" y="105.659" style="fill:#000;fill-opacity:1"/><path d="M689.14 255.625c0 8.242-6.68 14.922-14.921 14.922-8.242 0-14.961-6.68-14.961-14.922 0-8.281 6.719-14.96 14.96-14.96 8.243 0 14.923 6.679 14.923 14.96zm0 0" style="fill-rule:nonzero;fill:#000;fill-opacity:1;stroke-width:3.985;stroke-linecap:butt;stroke-linejoin:miter;stroke:#000;stroke-opacity:1;stroke-miterlimit:10" transform="matrix(.1 0 0 -.1 0 119)"/><use xlink:href="#a" x="67.541" y="106.543" style="fill:#000;fill-opacity:1"/><use xlink:href="#b" x="75.581" y="106.543" style="fill:#000;fill-opacity:1"/><use xlink:href="#e" x="86.861" y="104.263" style="fill:#000;fill-opacity:1"/><use xlink:href="#f" x="89.981" y="106.543" style="fill:#000;fill-opacity:1"/><use xlink:href="#g" x="95.021" y="106.543" style="fill:#000;fill-opacity:1"/><path d="M1257.578 255.625c0 8.242-6.68 14.922-14.922 14.922-8.281 0-14.96-6.68-14.96-14.922 0-8.281 6.679-14.96 14.96-14.96 8.242 0 14.922 6.679 14.922 14.96zm0 0" style="fill-rule:nonzero;fill:#000;fill-opacity:1;stroke-width:3.985;stroke-linecap:butt;stroke-linejoin:miter;stroke:#000;stroke-opacity:1;stroke-miterlimit:10" transform="matrix(.1 0 0 -.1 0 119)"/><use xlink:href="#a" x="124.384" y="105.823" style="fill:#000;fill-opacity:1"/><use xlink:href="#b" x="132.424" y="105.823" style="fill:#000;fill-opacity:1"/><use xlink:href="#d" x="143.704" y="105.823" style="fill:#000;fill-opacity:1"/></svg>