<svg xmlns="http://www.w3.org/2000/svg" xmlns:xlink="http://www.w3.org/1999/xlink" width="293pt" height="122pt" viewBox="0 0 293 122"><defs><symbol id="a" overflow="visible"><path d="m4.234-1.14-.093-.235-.188.125c-.86.563-1.312.766-1.734.766-.672 0-1.016-.47-1.016-1.422 0-1.266.406-2.5.984-2.953.25-.22.547-.313.938-.313.531 0 .969.219.969.516v.718h.265c.094-.78.188-1.218.297-1.53-.312-.204-.703-.298-1.156-.298-.531 0-1.39.422-2.063 1.016C.75-4.14.298-2.906.298-1.625c0 1.14.5 1.75 1.453 1.75.656 0 1.219-.234 1.89-.766zm0 0" style="stroke:none"/></symbol><symbol id="b" overflow="visible"><path d="m5.86-5.656-.141-.11c-.344.141-.61.204-.875.235l-.422 1.578c-.14.562-.563 1.437-.953 2.015-.422.61-1 1.141-1.266 1.141-.265 0-.25-.578-.234-.734l.187-2.313c.016-.375.047-.828.047-1.172 0-.53-.094-.75-.297-.75-.156 0-.312.094-.89.485L.03-4.61l.14.203.595-.344c.062-.063.218-.156.296-.156.313 0 .266.61.25.812L1.11-1.187l-.015.468c0 .5.218.844.515.844.454 0 1.454-1.016 2.344-2.36L3.375-.187c-.61 2.11-1.219 2.985-2.047 2.985a.737.737 0 0 1-.75-.735c0-.062.016-.156.031-.265L.484 1.75l-.562.406c-.016.078-.016.156-.016.203 0 .516.438.938.985.938 1.265 0 2.578-1.485 3.28-3.688zm0 0" style="stroke:none"/></symbol><symbol id="q" overflow="visible"><path d="m5.36-.938-.094-.234c-.438.36-.735.531-.922.531C4.156-.64 4-.75 3.89-.984a4.8 4.8 0 0 1-.313-1.032l-.203-1.203.422-.578c.547-.781.875-1.062 1.25-1.062.187 0 .328.109.39.28l.172-.046.172-1.016c-.14-.078-.25-.125-.36-.125-.468 0-.952.438-1.687 1.532l-.453.656-.062-.563c-.14-1.187-.469-1.625-1.172-1.625-.313 0-.578.094-.688.25l-.687 1 .203.11c.36-.407.594-.563.828-.563.39 0 .656.485.86 1.657l.124.75-.468.734C1.703-1.031 1.297-.641.953-.641.781-.64.641-.687.625-.75l-.14-.344-.235.047c0 .234-.016.39-.094.766-.031.156-.031.187-.047.265.172.094.375.141.516.141.39 0 .86-.344 1.234-.906l.907-1.39.125.827C3.062-.328 3.328.125 3.75.125c.266 0 .656-.203 1.031-.547zm0 0" style="stroke:none"/></symbol><symbol id="c" overflow="visible"><path d="M4.672-1.766c0-.375-.094-.656-.328-.89-.313-.313-.703-.438-1.766-.64-.969-.188-1.297-.438-1.297-.985 0-.594.422-.938 1.14-.938.813 0 1.423.422 1.423.985v.28h.328c.016-.702.031-.983.062-1.358-.64-.204-1.062-.297-1.562-.297-1.375 0-2.235.656-2.235 1.734 0 .578.266.984.813 1.234.328.141.969.329 1.781.516.531.11.766.375.766.828 0 .64-.61 1.094-1.453 1.094-.875 0-1.5-.422-1.5-1.016v-.484h-.36C.484-.891.454-.531.36-.047.984.156 1.453.234 2 .234c1.563 0 2.672-.828 2.672-2m0 0" style="stroke:none"/></symbol><symbol id="d" overflow="visible"><path d="M3.234.031v-.36l-.546-.03c-.407-.016-.438-.11-.438-.86v-7.36l-.11-.093c-.53.203-.921.297-1.859.438v.328h.656c.22 0 .313.14.313.5v6.187c0 .75-.047.844-.453.86L.25-.33v.36c.5-.014 1-.03 1.5-.03s.984.016 1.484.031m0 0" style="stroke:none"/></symbol><symbol id="e" overflow="visible"><path d="M6.14-2.828c0-1.625-1.171-2.781-2.812-2.781C1.594-5.61.375-4.375.375-2.594.375-.906 1.453.234 2.985.234c1.843 0 3.156-1.28 3.156-3.062zm-1.109.437c0 1.375-.61 2.235-1.578 2.235C2.281-.156 1.5-1.296 1.5-3c0-1.438.563-2.219 1.625-2.219 1.094 0 1.906 1.203 1.906 2.828m0 0" style="stroke:none"/></symbol><symbol id="f" overflow="visible"><path d="M6.625-3.234c0-1.329-1.11-2.375-2.484-2.375-.454 0-.875.125-1.063.296l-.984.907v-1.157l-.11-.046a7.3 7.3 0 0 1-1.859.5v.328h.438c.484 0 .53.078.53.875v6.015c0 .75-.046.829-.452.86L.094 3v.36c.5-.032 1-.032 1.5-.032s.984 0 1.484.031V3l-.547-.031c-.406-.031-.437-.11-.437-.86V-.156c.36.218.734.297 1.281.297.344 0 .656-.063.844-.188l1.36-.89c.484-.313 1.046-1.532 1.046-2.297m-1.047.437c0 1.344-.797 2.328-1.875 2.328-.656 0-1.14-.219-1.61-.703v-2.484c0-.172.063-.297.22-.5.343-.453.828-.672 1.421-.672 1.125 0 1.844.781 1.844 2.031m0 0" style="stroke:none"/></symbol><symbol id="g" overflow="visible"><path d="M5.36-3.328c0-1.375-.891-2.281-2.235-2.281-.438 0-.953.156-1.438.453C.704-4.61.313-3.86.313-2.625c0 .766.172 1.406.5 1.86.47.64 1.282 1 2.172 1 .454 0 .891-.094 1.375-.313.329-.125.579-.281.625-.36l.235-.406-.157-.11c-.765.454-1.03.563-1.546.563-.782 0-1.422-.343-1.766-.937-.219-.39-.297-.734-.328-1.422h1.75c.828 0 1.328-.031 2.156-.172.016-.156.031-.265.031-.406m-1.063.14-1.344.032c-.547 0-.86-.016-1.5-.078 0-.563.047-.813.203-1.125a1.47 1.47 0 0 1 1.328-.86c.391 0 .704.157.922.485.266.39.39.734.39 1.546zm0 0" style="stroke:none"/></symbol><symbol id="p" overflow="visible"><path d="M5.563-4.375c0-2.625-.782-3.86-2.422-3.86-1.844 0-2.797 1.47-2.797 4.36 0 1.406.25 2.61.672 3.188.421.593 1.093.921 1.828.921 1.812 0 2.719-1.546 2.719-4.609m-1.016.594c0 2.547-.453 3.61-1.547 3.61-1.156 0-1.656-1.22-1.656-4.126 0-2.531.453-3.516 1.578-3.516 1.172 0 1.625 1.172 1.625 4.032m0 0" style="stroke:none"/></symbol><symbol id="h" overflow="visible"><path d="M.781-4.14H7.22v-.72H.78zm0 2.53H7.22v-.702H.78zm0 0" style="stroke:none"/></symbol><symbol id="i" overflow="visible"><path d="M3.625-6.313A1.9 1.9 0 0 0 3-6.421c-.094 0-.234.016-.297.063-.219.093-.937.625-1.14.843-.188.188-.297.454-.391.954l-.125.687c-.36.172-.531.25-.75.328l-.047.188h.703l-.078.5C.609-1.156.297.469.094 1.078c-.157.516-.422.781-.735.781-.203 0-.312-.046-.453-.25l-.125.032c-.031.203-.156.625-.203.703a.7.7 0 0 0 .313.078c.359 0 .828-.281 1.171-.688C.595 1.11.782.5 1.423-2.578c.047-.235.125-.485.172-.781H2.5c.047-.172.11-.36.156-.485l-.031-.062-.063.015c-.218.063-.312.063-.734.063h-.14l.171-.985c.141-.75.391-1.093.797-1.093.266 0 .5.14.625.343l.094-.03.203-.595zm0 0" style="stroke:none"/></symbol><symbol id="k" overflow="visible"><path d="m4.297-4.14-.094-.079a2.5 2.5 0 0 1-.656.157L3.25-2.907c-.11.422-.422 1.062-.703 1.484-.313.453-.735.828-.938.828-.187 0-.171-.422-.156-.531l.125-1.703c.016-.266.031-.594.031-.844 0-.39-.062-.547-.203-.547-.125 0-.234.063-.656.344l-.719.484.094.172.438-.265c.046-.047.156-.11.218-.11.235 0 .188.453.188.594L.813-.875v.344c-.016.375.156.625.375.625.312 0 1.062-.75 1.718-1.735L2.47-.14c-.438 1.547-.875 2.188-1.5 2.188A.543.543 0 0 1 .422 1.5c0-.031.016-.11.031-.188l-.094-.03-.421.296v.156a.7.7 0 0 0 .718.688c.922 0 1.89-1.094 2.406-2.719zm0 0" style="stroke:none"/></symbol><symbol id="n" overflow="visible"><path d="m3.11-.828-.079-.188-.125.094c-.64.422-.969.578-1.281.578-.484 0-.734-.36-.734-1.047 0-.937.296-1.828.718-2.171.172-.157.391-.235.672-.235.406 0 .719.172.719.375v.531h.203c.063-.578.125-.89.203-1.125-.219-.14-.5-.203-.844-.203-.39 0-1.015.297-1.515.735-.5.437-.828 1.359-.828 2.296C.219-.344.594.095 1.28.095c.485 0 .907-.172 1.39-.563zm0 0" style="stroke:none"/></symbol><symbol id="r" overflow="visible"><path d="m3.938-.688-.079-.171c-.312.265-.53.39-.671.39s-.25-.078-.344-.265a3.5 3.5 0 0 1-.219-.735l-.156-.89.312-.422c.406-.578.64-.781.922-.781.14 0 .235.078.281.203l.125-.032.141-.75a.5.5 0 0 0-.266-.078c-.359 0-.703.313-1.25 1.11l-.328.484-.047-.422c-.109-.86-.343-1.172-.859-1.172-.234 0-.422.063-.5.172l-.516.734.157.094c.265-.312.437-.422.609-.422.281 0 .484.36.625 1.22l.094.53-.344.547C1.25-.75.953-.469.703-.469c-.14 0-.234-.047-.25-.078L.36-.797l-.171.031c0 .172-.016.282-.079.563-.015.11-.015.14-.03.187a.73.73 0 0 0 .374.11c.297 0 .64-.25.906-.656l.672-1.032.094.61C2.25-.25 2.438.094 2.75.094c.188 0 .469-.14.75-.406zm0 0" style="stroke:none"/></symbol><symbol id="j" overflow="visible"><path d="M2.672-6.625C1.328-5.75.532-4.25.532-2.359c0 1.703.827 3.343 2.109 4.218l.109-.14C1.531.672 1.328-.36 1.328-2.406c0-2.031.234-3.094 1.422-4.063zm0 0" style="stroke:none"/></symbol><symbol id="l" overflow="visible"><path d="m.375-6.625-.094.156C1.47-5.5 1.703-4.437 1.703-2.406 1.703-.36 1.5.672.281 1.719l.11.14C1.67.984 2.5-.656 2.5-2.359 2.5-4.25 1.703-5.75.375-6.625m0 0" style="stroke:none"/></symbol><symbol id="m" overflow="visible"><path d="M5.297-2.11v-.515H.563v.516zm0 0" style="stroke:none"/></symbol><symbol id="o" overflow="visible"><path d="M7.219-3.938v-.265L.78-7.22v.719l5.235 2.453L.78-1.609v.718zm0 4.672V.063H.78v.671zm0 0" style="stroke:none"/></symbol><symbol id="s" overflow="visible"><path d="M7.219-.906v-.703L1.984-4.063 7.22-6.515v-.703L.78-4.172v.25zm0 1.64V.063H.78v.671zm0 0" style="stroke:none"/></symbol></defs><path d="M40 131.602h2880.04" style="fill:none;stroke-width:3.985;stroke-linecap:butt;stroke-linejoin:miter;stroke:#000;stroke-opacity:1;stroke-miterlimit:10" transform="matrix(.1 0 0 -.1 0 122)"/><path d="M3.746 105.852h.602v6h-.602zm144.004 0h.602v6h-.602zm144.004 0h.601v6h-.601zm0 0" style="stroke:none;fill-rule:nonzero;fill:#000;fill-opacity:1"/><path d="M40 131.602v1080" style="fill:none;stroke-width:3.985;stroke-linecap:butt;stroke-linejoin:miter;stroke:#000;stroke-opacity:1;stroke-miterlimit:10" transform="matrix(.1 0 0 -.1 0 122)"/><path d="M.988 108.492h6v.602h-6zm0-54h6v.602h-6zm0-54h6v.602h-6zm0 0" style="stroke:none;fill-rule:nonzero;fill:#000;fill-opacity:1"/><path d="m231.992 520.39 1440.04 486.016" style="fill:none;stroke-width:3.985;stroke-linecap:butt;stroke-linejoin:miter;stroke:#000;stroke-opacity:1;stroke-miterlimit:10" transform="matrix(.1 0 0 -.1 0 122)"/><path d="M1499.96 941.602c0 11.015-8.944 19.921-19.92 19.921-11.017 0-19.962-8.906-19.962-19.921 0-10.977 8.945-19.922 19.961-19.922 10.977 0 19.922 8.945 19.922 19.922zM635.938 650c0 11.016-8.907 19.922-19.922 19.922s-19.922-8.906-19.922-19.922 8.906-19.922 19.922-19.922 19.922 8.906 19.922 19.922zm0 0" style="fill-rule:nonzero;fill:#000;fill-opacity:1;stroke-width:3.985;stroke-linecap:butt;stroke-linejoin:miter;stroke:#000;stroke-opacity:1;stroke-miterlimit:10" transform="matrix(.1 0 0 -.1 0 122)"/><path d="M1480.04 941.602v-28.907m0-57.89v-28.907m0 0v-28.945m0-57.851v-28.907m0 0V681.25m0-57.852v-28.945m0 0v-28.906m0-57.852V478.75m0 0v-28.945m0-57.852v-28.906m0 0v-28.945m0-57.852v-28.945m0 0v-28.907m0-57.851v-28.945M616.016 650v-25.898m0-51.836v-25.938m0 0v-25.937m0-51.836v-25.899m0 0V416.72m0-51.837v-25.938m0 0v-25.898m0-51.837v-25.937m0 0v-25.898m0-51.835v-25.938" style="fill:none;stroke-width:3.985;stroke-linecap:butt;stroke-linejoin:miter;stroke:#000;stroke-opacity:1;stroke-miterlimit:10" transform="matrix(.1 0 0 -.1 0 122)"/><use xlink:href="#a" x="145.482" y="118.585" style="fill:#000;fill-opacity:1"/><use xlink:href="#b" x="58.601" y="118.585" style="fill:#000;fill-opacity:1"/><use xlink:href="#c" x="13.6" y="28.559" style="fill:#000;fill-opacity:1"/><use xlink:href="#d" x="18.64" y="28.559" style="fill:#000;fill-opacity:1"/><use xlink:href="#e" x="22.12" y="28.559" style="fill:#000;fill-opacity:1"/><use xlink:href="#f" x="28.6" y="28.559" style="fill:#000;fill-opacity:1"/><use xlink:href="#g" x="35.8" y="28.559" style="fill:#000;fill-opacity:1"/><use xlink:href="#h" x="44.56" y="28.559" style="fill:#000;fill-opacity:1"/><use xlink:href="#i" x="58.36" y="21.959" style="fill:#000;fill-opacity:1"/><use xlink:href="#j" x="62.44" y="21.959" style="fill:#000;fill-opacity:1"/><use xlink:href="#k" x="65.92" y="21.959" style="fill:#000;fill-opacity:1"/><use xlink:href="#l" x="70.84" y="21.959" style="fill:#000;fill-opacity:1"/><use xlink:href="#m" x="73.84" y="21.959" style="fill:#000;fill-opacity:1"/><use xlink:href="#i" x="81.04" y="21.959" style="fill:#000;fill-opacity:1"/><use xlink:href="#j" x="85" y="21.959" style="fill:#000;fill-opacity:1"/><use xlink:href="#n" x="88.24" y="21.959" style="fill:#000;fill-opacity:1"/><use xlink:href="#l" x="92.2" y="21.959" style="fill:#000;fill-opacity:1"/><path d="M57.027 25.09H95.31v.719H57.027zm0 0" style="stroke:none;fill-rule:nonzero;fill:#000;fill-opacity:1"/><use xlink:href="#k" x="69.04" y="32.639" style="fill:#000;fill-opacity:1"/><use xlink:href="#m" x="73.96" y="32.639" style="fill:#000;fill-opacity:1"/><use xlink:href="#n" x="80.08" y="32.639" style="fill:#000;fill-opacity:1"/><use xlink:href="#o" x="100.24" y="28.559" style="fill:#000;fill-opacity:1"/><use xlink:href="#p" x="111.88" y="28.559" style="fill:#000;fill-opacity:1"/><path d="m1288.008 984.805 1152.031-259.18" style="fill:none;stroke-width:3.985;stroke-linecap:butt;stroke-linejoin:miter;stroke:#000;stroke-opacity:1;stroke-miterlimit:10" transform="matrix(.1 0 0 -.1 0 122)"/><path d="M2075.977 812.031c0 10.977-8.946 19.922-19.961 19.922-10.977 0-19.922-8.945-19.922-19.922 0-11.015 8.945-19.922 19.922-19.922 11.015 0 19.96 8.907 19.96 19.922zm0 0" style="fill-rule:nonzero;fill:#000;fill-opacity:1;stroke-width:3.985;stroke-linecap:butt;stroke-linejoin:miter;stroke:#000;stroke-opacity:1;stroke-miterlimit:10" transform="matrix(.1 0 0 -.1 0 122)"/><path d="M2056.016 812.031v-28.36m0-56.718v-28.36m0 .001v-28.36m0-56.679v-28.36m0 0v-28.36m0-56.679v-28.36m0 .001v-28.36m0-56.679v-28.36m0 0V330.04m0-56.68V245m0 0v-28.36m0-56.68v-28.358" style="fill:none;stroke-width:3.985;stroke-linecap:butt;stroke-linejoin:miter;stroke:#000;stroke-opacity:1;stroke-miterlimit:10" transform="matrix(.1 0 0 -.1 0 122)"/><use xlink:href="#q" x="202.483" y="118.585" style="fill:#000;fill-opacity:1"/><use xlink:href="#c" x="178.244" y="28.559" style="fill:#000;fill-opacity:1"/><use xlink:href="#d" x="183.283" y="28.559" style="fill:#000;fill-opacity:1"/><use xlink:href="#e" x="186.763" y="28.559" style="fill:#000;fill-opacity:1"/><use xlink:href="#f" x="193.243" y="28.559" style="fill:#000;fill-opacity:1"/><use xlink:href="#g" x="200.443" y="28.559" style="fill:#000;fill-opacity:1"/><use xlink:href="#h" x="209.204" y="28.559" style="fill:#000;fill-opacity:1"/><use xlink:href="#i" x="223.124" y="21.959" style="fill:#000;fill-opacity:1"/><use xlink:href="#j" x="227.204" y="21.959" style="fill:#000;fill-opacity:1"/><use xlink:href="#r" x="230.443" y="21.959" style="fill:#000;fill-opacity:1"/><use xlink:href="#l" x="235.243" y="21.959" style="fill:#000;fill-opacity:1"/><use xlink:href="#m" x="238.243" y="21.959" style="fill:#000;fill-opacity:1"/><use xlink:href="#i" x="245.443" y="21.959" style="fill:#000;fill-opacity:1"/><use xlink:href="#j" x="249.524" y="21.959" style="fill:#000;fill-opacity:1"/><use xlink:href="#n" x="252.763" y="21.959" style="fill:#000;fill-opacity:1"/><use xlink:href="#l" x="256.724" y="21.959" style="fill:#000;fill-opacity:1"/><path d="M221.793 25.09h38.16v.719h-38.16zm0 0" style="stroke:none;fill-rule:nonzero;fill:#000;fill-opacity:1"/><use xlink:href="#r" x="233.444" y="32.639" style="fill:#000;fill-opacity:1"/><use xlink:href="#m" x="238.244" y="32.639" style="fill:#000;fill-opacity:1"/><use xlink:href="#n" x="244.364" y="32.639" style="fill:#000;fill-opacity:1"/><use xlink:href="#s" x="264.764" y="28.559" style="fill:#000;fill-opacity:1"/><use xlink:href="#p" x="276.404" y="28.559" style="fill:#000;fill-opacity:1"/><path d="m40 131.602 71.992 78.984 71.992 74.922 72.032 70.86 71.992 66.835L400 485.977l72.031 58.71 71.953 54.688L616.016 650l71.992 46.563L760 739.101l72.031 38.476 71.992 34.453 71.993 30.352 71.992 26.328 72.031 22.266 71.992 18.242 71.992 14.18 71.993 10.117 71.992 6.093 72.031 1.993 71.992-1.993 71.992-6.093 71.993-10.118 71.992-14.18 72.031-18.241 71.992-22.266 71.992-26.328 71.993-30.352 71.992-34.453 72.031-38.476 71.992-42.54L2344.023 650l71.993-50.625 72.03-54.688 71.993-58.71 71.992-62.774 71.992-66.836 72.032-70.86 71.992-74.921 71.992-78.984" style="fill:none;stroke-width:7.9701;stroke-linecap:butt;stroke-linejoin:miter;stroke:#000;stroke-opacity:1;stroke-miterlimit:10" transform="matrix(.1 0 0 -.1 0 122)"/></svg>