<svg xmlns="http://www.w3.org/2000/svg" xmlns:xlink="http://www.w3.org/1999/xlink" width="197pt" height="200" viewBox="0 0 197 150"><defs><symbol id="a" overflow="visible"><path d="m5.86-5.656-.141-.11c-.344.141-.61.204-.875.235l-.422 1.578c-.14.562-.563 1.437-.953 2.015-.422.61-1 1.141-1.266 1.141-.265 0-.25-.578-.234-.734l.187-2.313c.016-.375.047-.828.047-1.172 0-.53-.094-.75-.297-.75-.156 0-.312.094-.89.485L.03-4.61l.14.203.595-.344c.062-.063.218-.156.296-.156.313 0 .266.61.25.812L1.11-1.187l-.015.468c0 .5.218.844.515.844.454 0 1.454-1.016 2.344-2.36L3.375-.187c-.61 2.11-1.219 2.985-2.047 2.985a.737.737 0 0 1-.75-.735c0-.062.016-.156.031-.265L.484 1.75l-.562.406c-.016.078-.016.156-.016.203 0 .516.438.938.985.938 1.265 0 2.578-1.485 3.28-3.688zm0 0" style="stroke:none"/></symbol><symbol id="c" overflow="visible"><path d="m5.36-.938-.094-.234c-.438.36-.735.531-.922.531C4.156-.64 4-.75 3.89-.984a4.8 4.8 0 0 1-.313-1.032l-.203-1.203.422-.578c.547-.781.875-1.062 1.25-1.062.187 0 .328.109.39.28l.172-.046.172-1.016c-.14-.078-.25-.125-.36-.125-.468 0-.952.438-1.687 1.532l-.453.656-.062-.563c-.14-1.187-.469-1.625-1.172-1.625-.313 0-.578.094-.688.25l-.687 1 .203.11c.36-.407.594-.563.828-.563.39 0 .656.485.86 1.657l.124.75-.468.734C1.703-1.031 1.297-.641.953-.641.781-.64.641-.687.625-.75l-.14-.344-.235.047c0 .234-.016.39-.094.766-.031.156-.031.187-.047.265.172.094.375.141.516.141.39 0 .86-.344 1.234-.906l.907-1.39.125.827C3.062-.328 3.328.125 3.75.125c.266 0 .656-.203 1.031-.547zm0 0" style="stroke:none"/></symbol><symbol id="b" overflow="visible"><path d="M.781-4.14H7.22v-.72H.78zm0 2.53H7.22v-.702H.78zm0 0" style="stroke:none"/></symbol><symbol id="d" overflow="visible"><path d="M3.656.031v-.265l-.453-.032c-.484-.03-.562-.125-.562-.578v-5.203l-.125-.031a15 15 0 0 1-1.985.844l.063.375h.078c.39-.188.781-.36 1.156-.516.063 0 .078.078.078.281v4.25c0 .453-.093.547-.578.578l-.484.032V.03C1.328.016 1.813 0 2.28 0c.469 0 .922.016 1.375.031zm0 0" style="stroke:none"/></symbol><symbol id="f" overflow="visible"><path d="M4.047-1.969c0-.422-.172-.781-.484-1-.22-.156-.422-.234-.86-.312.703-.547.953-.938.953-1.469 0-.766-.64-1.297-1.61-1.297-.593 0-1 .172-1.421.594L.375-4.36h.281l.156-.5c.094-.297.641-.594 1.094-.594.578 0 1.032.469 1.032 1.016 0 .656-.516 1.218-1.126 1.218-.078 0-.421-.031-.421-.031l-.11.469.063.047c.343-.157.5-.188.75-.188.719 0 1.14.453 1.14 1.25 0 .906-.53 1.484-1.343 1.484-.407 0-.766-.124-1.032-.374C.656-.75.531-.954.375-1.422l-.25.078c.188.532.266.86.313 1.297.468.156.843.219 1.171.219 1.063 0 2.438-.922 2.438-2.14zm0 0" style="stroke:none"/></symbol><symbol id="e" overflow="visible"><path d="M.563 1.781h.484l2.625-8.297h-.485zm0 0" style="stroke:none"/></symbol></defs><path d="M3.203 731.602h1440" style="fill:none;stroke-width:3.985;stroke-linecap:butt;stroke-linejoin:miter;stroke:#000;stroke-opacity:1;stroke-miterlimit:10" transform="matrix(.1 0 0 -.1 0 150)"/><path d="M.066 73.852h.602v6H.066zm72.004 0h.602v6h-.602zm72 0h.602v6h-.602zm0 0" style="stroke:none;fill-rule:nonzero;fill:#000;fill-opacity:1"/><path d="M723.203 11.602v1440" style="fill:none;stroke-width:3.985;stroke-linecap:butt;stroke-linejoin:miter;stroke:#000;stroke-opacity:1;stroke-miterlimit:10" transform="matrix(.1 0 0 -.1 0 150)"/><path d="M69.309 148.492h6v.602h-6zm0-72h6v.602h-6zm0-72.004h6v.602h-6zm0 0" style="stroke:none;fill-rule:nonzero;fill:#000;fill-opacity:1"/><path d="m269.648 11.602 3.75 16.835m7.579 33.633 3.789 16.836m0 0 3.75 16.836m7.578 33.633 3.789 16.836m0-.001 3.75 14.61m7.577 29.14 3.75 14.61m0 0 3.83 14.57m7.538 29.18 3.79 14.57m-.001 0 7.54 25.04m15.116 50 7.579 25.039m0 0 7.539 21.172m15.117 42.343 7.578 21.172m0 0 7.539 17.656m15.156 35.313 7.54 17.656m-.001 0 7.578 14.453m15.118 28.906 7.539 14.454m0 0 7.578 11.562m15.117 23.164 7.54 11.563m0 0 7.577 9.023m15.117 18.008 7.54 9.024m-.001 0 7.579 6.757m15.117 13.555 7.578 6.797m0 0 7.539 4.844m15.117 9.687 7.578 4.883m0-.001 7.54 3.243m15.117 6.485 7.578 3.242m0 0 7.539 1.992m15.117 3.945 7.578 1.992m0 .001 7.54 1.015m15.116 1.992 7.578 1.055m0 0 7.54.351m15.116.743 7.579.39m0 0 7.578.04m15.117.117 7.54.039m-.001 0 7.578.039m15.117.117 7.54.078m0 0 7.578.351m15.117.743 7.539.39m0 0 7.578 1.016m15.117 2.031 7.578 1.016m0 0 7.54 1.953m15.117 3.945 7.539 1.992m-.001 0 7.579 3.243m15.117 6.524 7.578 3.241m0 0 7.54 4.844m15.116 9.727 7.578 4.843m0 0 7.54 6.758m15.117 13.555 7.578 6.758m0 0 7.539 9.023m15.156 18.047 7.54 9.023m-.001.001 7.578 11.562m15.118 23.164 7.539 11.562m0 0 7.539 14.414m15.156 28.946 7.539 14.453m0-.001 7.578 17.657m15.117 35.273 7.578 17.657m.001 0 7.538 21.21m15.118 42.306 7.539 21.171m0 0 7.578 25.04m15.117 50.039 7.578 25m0 0 3.75 14.57m7.578 29.18 3.75 14.57m0 0 3.79 14.61m7.577 29.179 3.79 14.57m0 0 3.75 16.836m7.577 33.632 3.79 16.876m0 0 3.789 16.797m7.539 33.672 3.789 16.797M3.203 278.047l53.984 11.64 54.024 12.266 53.984 13.008 53.985 13.906 54.023 14.961 53.985 16.133 54.023 17.734 53.984 19.727 54.024 22.344 53.984 26.132m0 0 10.82 5.82 10.782 6.055 10.82 6.368 10.781 6.718 10.82 7.032 10.782 7.46 10.781 7.97 10.82 8.515 10.782 9.219 10.82 10m-.001 0 3.595 3.593 3.593 3.711 3.594 3.828 3.633 3.985 3.594 4.14 3.593 4.375 3.594 4.532 3.594 4.804 3.594 5.079 3.633 5.39m0 0 3.593 5.781 3.594 6.211 3.594 6.758 3.594 7.422 3.593 8.32 3.594 9.493 3.633 11.289 3.594 14.14 3.593 20.117 7.188 155.157 3.594 20.156 3.632 14.14 3.594 11.25 3.594 9.532 3.594 8.281 3.593 7.422 3.594 6.758 3.633 6.21 3.594 5.782m0-.001 3.593 5.392 3.594 5.078 3.594 4.804 3.594 4.57 3.633 4.337 3.593 4.18 3.594 3.984 3.594 3.828 3.594 3.672 3.593 3.593m0 0 10.82 10.04 10.782 9.218 10.82 8.516 10.781 7.93 10.82 7.46 10.782 7.07 10.82 6.68 10.782 6.368 10.82 6.093 10.781 5.82m0 .001 54.024 26.133 53.984 22.343 54.023 19.688 53.985 17.734 53.984 16.172 54.024 14.922 53.984 13.906 54.023 13.047 53.985 12.266 53.984 11.64" style="fill:none;stroke-width:7.9701;stroke-linecap:butt;stroke-linejoin:miter;stroke:#000;stroke-opacity:1;stroke-miterlimit:10" transform="matrix(.1 0 0 -.1 0 150)"/><use xlink:href="#a" x="148.907" y="35.321" style="fill:#000;fill-opacity:1"/><use xlink:href="#b" x="158.747" y="35.321" style="fill:#000;fill-opacity:1"/><use xlink:href="#c" x="170.507" y="35.321" style="fill:#000;fill-opacity:1"/><use xlink:href="#d" x="177.107" y="31.001" style="fill:#000;fill-opacity:1"/><use xlink:href="#e" x="181.547" y="31.001" style="fill:#000;fill-opacity:1"/><use xlink:href="#f" x="185.747" y="31.001" style="fill:#000;fill-opacity:1"/><use xlink:href="#a" x="121.267" y="14.296" style="fill:#000;fill-opacity:1"/><use xlink:href="#b" x="131.107" y="14.296" style="fill:#000;fill-opacity:1"/><use xlink:href="#c" x="142.867" y="14.296" style="fill:#000;fill-opacity:1"/><use xlink:href="#f" x="149.467" y="9.975" style="fill:#000;fill-opacity:1"/></svg>