<svg xmlns="http://www.w3.org/2000/svg" xmlns:xlink="http://www.w3.org/1999/xlink" width="341pt" height="200" viewBox="0 0 341 150"><defs><symbol id="a" overflow="visible"><path d="M5.563-4.375c0-2.625-.782-3.86-2.422-3.86-1.844 0-2.797 1.47-2.797 4.36 0 1.406.25 2.61.672 3.188.421.593 1.093.921 1.828.921 1.812 0 2.719-1.546 2.719-4.609m-1.016.594c0 2.547-.453 3.61-1.547 3.61-1.156 0-1.656-1.22-1.656-4.126 0-2.531.453-3.516 1.578-3.516 1.172 0 1.625 1.172 1.625 4.032m0 0" style="stroke:none"/></symbol><symbol id="b" overflow="visible"><path d="M5 .031v-.36l-.625-.03c-.656-.032-.781-.172-.781-.782v-7.093l-.156-.063c-.782.406-1.626.766-2.72 1.156l.079.5h.125c.531-.234 1.047-.468 1.578-.703.063 0 .094.11.094.407v5.796c0 .61-.125.75-.781.782l-.672.03v.36C1.812.016 2.469 0 3.125 0c.61 0 1.25.016 1.875.031m0 0" style="stroke:none"/></symbol><symbol id="f" overflow="visible"><path d="M5.594.031c-.032-.25-.032-.36-.032-.531 0-.156 0-.281.032-.547l-4.14.125L3.64-3.234c1.156-1.22 1.515-1.875 1.515-2.782 0-1.375-.937-2.218-2.453-2.218-.86 0-1.453.234-2.031.828l-.203 1.64h.344l.156-.562c.187-.688.625-.984 1.422-.984 1.03 0 1.687.64 1.687 1.656 0 .906-.5 1.781-1.86 3.218L.189-.28v.31C1.078.016 1.968 0 2.858 0c.907 0 1.829.016 2.735.031zm0 0" style="stroke:none"/></symbol><symbol id="c" overflow="visible"><path d="M7.219-2.875v-.703H.78v.703zm0 0" style="stroke:none"/></symbol><symbol id="e" overflow="visible"><path d="M7.281-2.906v-.672H4.344V-6.5h-.657v2.922H.75v.672h2.938V.03h.656v-2.937zm0 0" style="stroke:none"/></symbol><symbol id="d" overflow="visible"><path d="M5.422-5.047a2.05 2.05 0 0 0-1.563-.719c-2 0-3.687 1.97-3.687 3.907C.172-.5.984.125 2.282.125c.905 0 1.765-.688 2.452-1.219l-.093-.234c-.547.39-1.22.86-1.922.86-.86 0-1.485-.954-1.485-1.72 0-.156.016-.28.032-.437.28-.047.562-.047.843-.047h.688c.36 0 .734 0 1.094.016l.078-.063.172-.422c-.938.016-1.86.016-2.797.016.203-1.047.828-2.11 2.031-2.11.719 0 1 .22 1.328.829h.234zm0 0" style="stroke:none"/></symbol><symbol id="g" overflow="visible"><path d="M7.906-.078c-.718-1.313-1.297-2.766-1.89-4.156-.594-1.329-1.22-2.704-1.688-4.094h-.297C3.438-6.844 2.766-5.375 2.11-3.891 1.531-2.625.984-1.297.33-.078l.077.125C1.672 0 2.937 0 4.22 0c1.202 0 2.42.016 3.624.047zm-1.484-.36H1.25a129 129 0 0 1 2.547-6.296h.094c.89 2.062 1.75 4.171 2.53 6.296zm0 0" style="stroke:none"/></symbol><symbol id="j" overflow="visible"><path d="M.781-4.14H7.22v-.72H.78zm0 2.53H7.22v-.702H.78zm0 0" style="stroke:none"/></symbol><symbol id="h" overflow="visible"><path d="m5.36-.938-.094-.234c-.438.36-.735.531-.922.531C4.156-.64 4-.75 3.89-.984a4.8 4.8 0 0 1-.313-1.032l-.203-1.203.422-.578c.547-.781.875-1.062 1.25-1.062.187 0 .328.109.39.28l.172-.046.172-1.016c-.14-.078-.25-.125-.36-.125-.468 0-.952.438-1.687 1.532l-.453.656-.062-.563c-.14-1.187-.469-1.625-1.172-1.625-.313 0-.578.094-.688.25l-.687 1 .203.11c.36-.407.594-.563.828-.563.39 0 .656.485.86 1.657l.124.75-.468.734C1.703-1.031 1.297-.641.953-.641.781-.64.641-.687.625-.75l-.14-.344-.235.047c0 .234-.016.39-.094.766-.031.156-.031.187-.047.265.172.094.375.141.516.141.39 0 .86-.344 1.234-.906l.907-1.39.125.827C3.062-.328 3.328.125 3.75.125c.266 0 .656-.203 1.031-.547zm0 0" style="stroke:none"/></symbol><symbol id="m" overflow="visible"><path d="m10.75.031.031-.328-.437-.031C9.906-.375 9.688-.5 9.688-.75l.015-.438.5-6.359c0-.219.203-.344.547-.36l.453-.03.031-.329c-.328.016-.671.032-1 .032-.343 0-.671-.016-1-.032-.218.438 0 .11-1.015 1.86L5.28-1.36 3.484-8.266c-.328.016-.656.032-1 .032-.328 0-.671-.016-.984-.032l-.047.329.313.03c.625.048.843.157.843.47a.6.6 0 0 1-.046.234L.843-1.11c-.187.625-.374.78-1.03.828L-.234.03C.219.016.672 0 1.109 0 1.547 0 2 .016 2.422.031l.047-.328-.453-.031c-.391-.047-.594-.156-.594-.328 0-.125.031-.281.078-.485l1.484-5.546L4.766.218h.28l.673-1.25 2.86-4.938.624-1.047-.437 6.22c-.032.327-.188.405-.813.468l-.36.031-.046.328C8.094.016 8.625 0 9.157 0c.53 0 1.062.016 1.593.031m0 0" style="stroke:none"/></symbol><symbol id="n" overflow="visible"><path d="m8.844-1.016-.125-.218-.297.203c-.36.234-.61.36-.735.36-.078 0-.156-.11-.156-.235s.016-.235.078-.485l.907-3.546a2.7 2.7 0 0 0 .078-.485c0-.203-.125-.344-.313-.344-.344 0-.797.22-1.531.735C6-4.5 5.578-4.078 5-3.25l.36-1.64a4 4 0 0 0 .077-.5c0-.235-.125-.376-.312-.376-.36 0-.906.266-1.563.766-.53.406-.765.656-1.546 1.719l.406-1.594c.047-.188.062-.375.062-.516 0-.234-.109-.375-.265-.375-.266 0-.719.25-1.594.891l-.344.234.094.235.375-.25c.438-.282.484-.297.563-.297.14 0 .218.125.218.297 0 .61-.484 2.922-.984 4.625l.031.14.828-.187.25-1.219c.297-1.328.61-2.031 1.266-2.75.515-.547 1.047-.906 1.375-.906.094 0 .14.094.14.25 0 .422-.25 1.781-.75 3.875l-.203.797.063.14.828-.187.25-1.266c.188-.968.594-1.875 1.125-2.453C6.406-4.53 7-4.953 7.39-4.953c.094 0 .157.11.157.297 0 .297-.016.453-.297 1.5l-.516 1.875c-.093.343-.156.64-.156.906 0 .297.125.484.36.484.312 0 .734-.25 1.906-1.125m0 0" style="stroke:none"/></symbol><symbol id="i" overflow="visible"><path d="M3.656.031v-.265l-.453-.032c-.484-.03-.562-.125-.562-.578v-5.203l-.125-.031a15 15 0 0 1-1.985.844l.063.375h.078c.39-.188.781-.36 1.156-.516.063 0 .078.078.078.281v4.25c0 .453-.093.547-.578.578l-.484.032V.03C1.328.016 1.813 0 2.28 0c.469 0 .922.016 1.375.031zm0 0" style="stroke:none"/></symbol><symbol id="k" overflow="visible"><path d="M4.11.031c-.032-.187-.032-.281-.032-.406 0-.11 0-.188.031-.39l-3.046.093 1.609-1.687c.844-.907 1.11-1.391 1.11-2.047 0-1.016-.688-1.64-1.798-1.64-.64 0-1.062.187-1.5.624l-.14 1.188h.25l.11-.407c.14-.5.468-.718 1.046-.718.75 0 1.234.468 1.234 1.218 0 .657-.359 1.297-1.359 2.36L.141-.203V.03C.78.016 1.453 0 2.094 0c.672 0 1.344.016 2.015.031zm0 0" style="stroke:none"/></symbol><symbol id="l" overflow="visible"><path d="M4.047-1.969c0-.422-.172-.781-.484-1-.22-.156-.422-.234-.86-.312.703-.547.953-.938.953-1.469 0-.766-.64-1.297-1.61-1.297-.593 0-1 .172-1.421.594L.375-4.36h.281l.156-.5c.094-.297.641-.594 1.094-.594.578 0 1.032.469 1.032 1.016 0 .656-.516 1.218-1.126 1.218-.078 0-.421-.031-.421-.031l-.11.469.063.047c.343-.157.5-.188.75-.188.719 0 1.14.453 1.14 1.25 0 .906-.53 1.484-1.343 1.484-.407 0-.766-.124-1.032-.374C.656-.75.531-.954.375-1.422l-.25.078c.188.532.266.86.313 1.297.468.156.843.219 1.171.219 1.063 0 2.438-.922 2.438-2.14zm0 0" style="stroke:none"/></symbol></defs><path d="M1922.031 435.625h542.305v960H1922.03zm0 0" style="fill:none;stroke-width:3.985;stroke-linecap:butt;stroke-linejoin:miter;stroke:#000;stroke-opacity:1;stroke-miterlimit:10" transform="matrix(.1 0 0 -.1 0 150)"/><path d="M1108.555 435.625h813.476v960h-813.476zm0 0" style="fill-rule:nonzero;fill:#e5e5e5;fill-opacity:1;stroke-width:3.985;stroke-linecap:butt;stroke-linejoin:miter;stroke:#000;stroke-opacity:1;stroke-miterlimit:10" transform="matrix(.1 0 0 -.1 0 150)"/><path d="M1108.555 435.625h2169.257" style="fill:none;stroke-width:3.985;stroke-linecap:butt;stroke-linejoin:miter;stroke:#000;stroke-opacity:1;stroke-miterlimit:10" transform="matrix(.1 0 0 -.1 0 150)"/><path d="M110.605 103.45h.602v6h-.602zm108.461 0h.602v6h-.602zm108.461 0h.602v6h-.602zm0 0" style="stroke:none;fill-rule:nonzero;fill:#000;fill-opacity:1"/><path d="M1108.555 435.625v960" style="fill:none;stroke-width:3.985;stroke-linecap:butt;stroke-linejoin:miter;stroke:#000;stroke-opacity:1;stroke-miterlimit:10" transform="matrix(.1 0 0 -.1 0 150)"/><path d="M107.844 106.09h6v.601h-6zm0-96h6v.601h-6zm0 0" style="stroke:none;fill-rule:nonzero;fill:#000;fill-opacity:1"/><path d="M1108.555 1395.625h1084.61m-.001-960h1084.648" style="fill:none;stroke-width:14.9442;stroke-linecap:butt;stroke-linejoin:miter;stroke:#000;stroke-opacity:1;stroke-miterlimit:10" transform="matrix(.1 0 0 -.1 0 150)"/><use xlink:href="#a" x="107.855" y="120.697" style="fill:#000;fill-opacity:1"/><use xlink:href="#b" x="179.362" y="120.817" style="fill:#000;fill-opacity:1"/><use xlink:href="#c" x="188.002" y="120.817" style="fill:#000;fill-opacity:1"/><use xlink:href="#d" x="199.042" y="120.817" style="fill:#000;fill-opacity:1"/><use xlink:href="#b" x="233.594" y="120.817" style="fill:#000;fill-opacity:1"/><use xlink:href="#e" x="242.233" y="120.817" style="fill:#000;fill-opacity:1"/><use xlink:href="#d" x="253.273" y="120.817" style="fill:#000;fill-opacity:1"/><use xlink:href="#f" x="324.781" y="120.697" style="fill:#000;fill-opacity:1"/><path d="M1515.273 243.594h-406.718" style="fill:none;stroke-width:3.985;stroke-linecap:butt;stroke-linejoin:miter;stroke:#000;stroke-opacity:1;stroke-miterlimit:10" transform="matrix(.1 0 0 -.1 0 150)"/><path d="m111.676 125.64 7.398-1.495-8.219 1.496 8.22 1.492-7.4-1.492" style="stroke:none;fill-rule:nonzero;fill:#000;fill-opacity:1"/><path d="m1116.758 243.594 73.984 14.96-82.187-14.96 82.187-14.922zm398.515 0h406.758" style="fill:none;stroke-width:3.985;stroke-linecap:butt;stroke-linejoin:miter;stroke:#000;stroke-opacity:1;stroke-miterlimit:10" transform="matrix(.1 0 0 -.1 0 150)"/><path d="m191.383 125.64-7.403 1.493 8.223-1.492-8.223-1.496z" style="stroke:none;fill-rule:nonzero;fill:#000;fill-opacity:1"/><path d="m1913.828 243.594-74.023-14.922 82.226 14.922-82.226 14.96zm0 0" style="fill:none;stroke-width:3.985;stroke-linecap:butt;stroke-linejoin:miter;stroke:#000;stroke-opacity:1;stroke-miterlimit:10" transform="matrix(.1 0 0 -.1 0 150)"/><use xlink:href="#g" x="121.529" y="138.025" style="fill:#000;fill-opacity:1"/><use xlink:href="#h" x="130.169" y="138.025" style="fill:#000;fill-opacity:1"/><use xlink:href="#i" x="136.529" y="139.825" style="fill:#000;fill-opacity:1"/><use xlink:href="#j" x="144.689" y="138.025" style="fill:#000;fill-opacity:1"/><use xlink:href="#b" x="155.969" y="138.025" style="fill:#000;fill-opacity:1"/><use xlink:href="#c" x="164.609" y="138.025" style="fill:#000;fill-opacity:1"/><use xlink:href="#d" x="175.649" y="138.025" style="fill:#000;fill-opacity:1"/><path d="M2193.164 243.594h-271.133" style="fill:none;stroke-width:3.985;stroke-linecap:butt;stroke-linejoin:miter;stroke:#000;stroke-opacity:1;stroke-miterlimit:10" transform="matrix(.1 0 0 -.1 0 150)"/><path d="m193.023 125.64 7.399-1.495-8.219 1.496 8.219 1.492z" style="stroke:none;fill-rule:nonzero;fill:#000;fill-opacity:1"/><path d="m1930.234 243.594 73.985 14.96-82.188-14.96 82.188-14.922zm262.93 0h271.172" style="fill:none;stroke-width:3.985;stroke-linecap:butt;stroke-linejoin:miter;stroke:#000;stroke-opacity:1;stroke-miterlimit:10" transform="matrix(.1 0 0 -.1 0 150)"/><path d="m245.613 125.64-7.398 1.493 8.219-1.492-8.22-1.496 7.4 1.496" style="stroke:none;fill-rule:nonzero;fill:#000;fill-opacity:1"/><path d="m2456.133 243.594-73.985-14.922 82.188 14.922-82.188 14.96zm0 0" style="fill:none;stroke-width:3.985;stroke-linecap:butt;stroke-linejoin:miter;stroke:#000;stroke-opacity:1;stroke-miterlimit:10" transform="matrix(.1 0 0 -.1 0 150)"/><use xlink:href="#g" x="195.918" y="138.025" style="fill:#000;fill-opacity:1"/><use xlink:href="#h" x="204.558" y="138.025" style="fill:#000;fill-opacity:1"/><use xlink:href="#k" x="210.918" y="139.825" style="fill:#000;fill-opacity:1"/><use xlink:href="#j" x="219.078" y="138.025" style="fill:#000;fill-opacity:1"/><use xlink:href="#f" x="230.358" y="138.025" style="fill:#000;fill-opacity:1"/><use xlink:href="#d" x="236.718" y="138.025" style="fill:#000;fill-opacity:1"/><path d="M2871.094 243.594h-406.758" style="fill:none;stroke-width:3.985;stroke-linecap:butt;stroke-linejoin:miter;stroke:#000;stroke-opacity:1;stroke-miterlimit:10" transform="matrix(.1 0 0 -.1 0 150)"/><path d="m247.258 125.64 7.394-1.495-8.218 1.496 8.218 1.492z" style="stroke:none;fill-rule:nonzero;fill:#000;fill-opacity:1"/><path d="m2472.578 243.594 73.945 14.96-82.187-14.96 82.187-14.922zm398.516 0h406.718" style="fill:none;stroke-width:3.985;stroke-linecap:butt;stroke-linejoin:miter;stroke:#000;stroke-opacity:1;stroke-miterlimit:10" transform="matrix(.1 0 0 -.1 0 150)"/><path d="m326.96 125.64-7.397 1.493 8.218-1.492-8.219-1.496 7.399 1.496" style="stroke:none;fill-rule:nonzero;fill:#000;fill-opacity:1"/><path d="m3269.61 243.594-73.985-14.922 82.188 14.922-82.188 14.96zm0 0" style="fill:none;stroke-width:3.985;stroke-linecap:butt;stroke-linejoin:miter;stroke:#000;stroke-opacity:1;stroke-miterlimit:10" transform="matrix(.1 0 0 -.1 0 150)"/><use xlink:href="#g" x="257.108" y="138.025" style="fill:#000;fill-opacity:1"/><use xlink:href="#h" x="265.748" y="138.025" style="fill:#000;fill-opacity:1"/><use xlink:href="#l" x="272.108" y="139.825" style="fill:#000;fill-opacity:1"/><use xlink:href="#j" x="280.268" y="138.025" style="fill:#000;fill-opacity:1"/><use xlink:href="#b" x="291.548" y="138.025" style="fill:#000;fill-opacity:1"/><use xlink:href="#c" x="300.188" y="138.025" style="fill:#000;fill-opacity:1"/><use xlink:href="#d" x="311.228" y="138.025" style="fill:#000;fill-opacity:1"/><use xlink:href="#m" x="4.73" y="109.679" style="fill:#000;fill-opacity:1"/><use xlink:href="#l" x="16.13" y="111.479" style="fill:#000;fill-opacity:1"/><use xlink:href="#j" x="24.41" y="109.679" style="fill:#000;fill-opacity:1"/><use xlink:href="#n" x="35.93" y="109.679" style="fill:#000;fill-opacity:1"/><use xlink:href="#k" x="45.41" y="111.479" style="fill:#000;fill-opacity:1"/><use xlink:href="#j" x="53.569" y="109.679" style="fill:#000;fill-opacity:1"/><use xlink:href="#n" x="65.089" y="109.679" style="fill:#000;fill-opacity:1"/><use xlink:href="#l" x="74.569" y="111.479" style="fill:#000;fill-opacity:1"/><use xlink:href="#j" x="82.729" y="109.679" style="fill:#000;fill-opacity:1"/><use xlink:href="#a" x="94.01" y="109.679" style="fill:#000;fill-opacity:1"/><use xlink:href="#m" x="2.57" y="13.798" style="fill:#000;fill-opacity:1"/><use xlink:href="#i" x="13.97" y="15.598" style="fill:#000;fill-opacity:1"/><use xlink:href="#j" x="22.13" y="13.798" style="fill:#000;fill-opacity:1"/><use xlink:href="#m" x="33.89" y="13.798" style="fill:#000;fill-opacity:1"/><use xlink:href="#k" x="45.29" y="15.598" style="fill:#000;fill-opacity:1"/><use xlink:href="#j" x="53.57" y="13.798" style="fill:#000;fill-opacity:1"/><use xlink:href="#n" x="65.089" y="13.798" style="fill:#000;fill-opacity:1"/><use xlink:href="#i" x="74.57" y="15.598" style="fill:#000;fill-opacity:1"/><use xlink:href="#j" x="82.73" y="13.798" style="fill:#000;fill-opacity:1"/><use xlink:href="#b" x="94.01" y="13.798" style="fill:#000;fill-opacity:1"/><path d="M2204.375 915.625c0 6.172-5 11.21-11.21 11.21-6.173 0-11.173-5.038-11.173-11.21 0-6.21 5-11.21 11.172-11.21 6.211 0 11.211 5 11.211 11.21zm0 0" style="fill-rule:nonzero;fill:#000;fill-opacity:1;stroke-width:3.985;stroke-linecap:butt;stroke-linejoin:miter;stroke:#000;stroke-opacity:1;stroke-miterlimit:10" transform="matrix(.1 0 0 -.1 0 150)"/><path d="M2204.375 435.625c0 6.172-5 11.21-11.21 11.21-6.173 0-11.173-5.038-11.173-11.21 0-6.21 5-11.21 11.172-11.21 6.211 0 11.211 5 11.211 11.21zm0 0" style="fill-rule:nonzero;fill:#fff;fill-opacity:1;stroke-width:3.985;stroke-linecap:butt;stroke-linejoin:miter;stroke:#fff;stroke-opacity:1;stroke-miterlimit:10" transform="matrix(.1 0 0 -.1 0 150)"/><path d="M2204.375 435.625c0 6.172-5 11.21-11.21 11.21-6.173 0-11.173-5.038-11.173-11.21 0-6.21 5-11.21 11.172-11.21 6.211 0 11.211 5 11.211 11.21zm0 0" style="fill:none;stroke-width:3.985;stroke-linecap:butt;stroke-linejoin:miter;stroke:#000;stroke-opacity:1;stroke-miterlimit:10" transform="matrix(.1 0 0 -.1 0 150)"/><path d="M2204.375 1395.625c0 6.172-5 11.21-11.21 11.21-6.173 0-11.173-5.038-11.173-11.21 0-6.21 5-11.21 11.172-11.21 6.211 0 11.211 5 11.211 11.21zm0 0" style="fill-rule:nonzero;fill:#fff;fill-opacity:1;stroke-width:3.985;stroke-linecap:butt;stroke-linejoin:miter;stroke:#fff;stroke-opacity:1;stroke-miterlimit:10" transform="matrix(.1 0 0 -.1 0 150)"/><path d="M2204.375 1395.625c0 6.172-5 11.21-11.21 11.21-6.173 0-11.173-5.038-11.173-11.21 0-6.21 5-11.21 11.172-11.21 6.211 0 11.211 5 11.211 11.21zm0 0" style="fill:none;stroke-width:3.985;stroke-linecap:butt;stroke-linejoin:miter;stroke:#000;stroke-opacity:1;stroke-miterlimit:10" transform="matrix(.1 0 0 -.1 0 150)"/></svg>