<svg xmlns="http://www.w3.org/2000/svg" xmlns:xlink="http://www.w3.org/1999/xlink" width="268pt" height="133pt" viewBox="0 0 268 133"><defs><symbol id="a" overflow="visible"><path d="m5.36-.938-.094-.234c-.438.36-.735.531-.922.531C4.156-.64 4-.75 3.89-.984a4.8 4.8 0 0 1-.313-1.032l-.203-1.203.422-.578c.547-.781.875-1.062 1.25-1.062.187 0 .328.109.39.28l.172-.046.172-1.016c-.14-.078-.25-.125-.36-.125-.468 0-.952.438-1.687 1.532l-.453.656-.062-.563c-.14-1.187-.469-1.625-1.172-1.625-.313 0-.578.094-.688.25l-.687 1 .203.11c.36-.407.594-.563.828-.563.39 0 .656.485.86 1.657l.124.75-.468.734C1.703-1.031 1.297-.641.953-.641.781-.64.641-.687.625-.75l-.14-.344-.235.047c0 .234-.016.39-.094.766-.031.156-.031.187-.047.265.172.094.375.141.516.141.39 0 .86-.344 1.234-.906l.907-1.39.125.827C3.062-.328 3.328.125 3.75.125c.266 0 .656-.203 1.031-.547zm0 0" style="stroke:none"/></symbol><symbol id="l" overflow="visible"><path d="m8.844-1.016-.125-.218-.297.203c-.36.234-.61.36-.735.36-.078 0-.156-.11-.156-.235s.016-.235.078-.485l.907-3.546a2.7 2.7 0 0 0 .078-.485c0-.203-.125-.344-.313-.344-.344 0-.797.22-1.531.735C6-4.5 5.578-4.078 5-3.25l.36-1.64a4 4 0 0 0 .077-.5c0-.235-.125-.376-.312-.376-.36 0-.906.266-1.563.766-.53.406-.765.656-1.546 1.719l.406-1.594c.047-.188.062-.375.062-.516 0-.234-.109-.375-.265-.375-.266 0-.719.25-1.594.891l-.344.234.094.235.375-.25c.438-.282.484-.297.563-.297.14 0 .218.125.218.297 0 .61-.484 2.922-.984 4.625l.031.14.828-.187.25-1.219c.297-1.328.61-2.031 1.266-2.75.515-.547 1.047-.906 1.375-.906.094 0 .14.094.14.25 0 .422-.25 1.781-.75 3.875l-.203.797.063.14.828-.187.25-1.266c.188-.968.594-1.875 1.125-2.453C6.406-4.53 7-4.953 7.39-4.953c.094 0 .157.11.157.297 0 .297-.016.453-.297 1.5l-.516 1.875c-.093.343-.156.64-.156.906 0 .297.125.484.36.484.312 0 .734-.25 1.906-1.125m0 0" style="stroke:none"/></symbol><symbol id="m" overflow="visible"><path d="m10.75.031.031-.328-.437-.031C9.906-.375 9.688-.5 9.688-.75l.015-.438.5-6.359c0-.219.203-.344.547-.36l.453-.03.031-.329c-.328.016-.671.032-1 .032-.343 0-.671-.016-1-.032-.218.438 0 .11-1.015 1.86L5.28-1.36 3.484-8.266c-.328.016-.656.032-1 .032-.328 0-.671-.016-.984-.032l-.047.329.313.03c.625.048.843.157.843.47a.6.6 0 0 1-.046.234L.843-1.11c-.187.625-.374.78-1.03.828L-.234.03C.219.016.672 0 1.109 0 1.547 0 2 .016 2.422.031l.047-.328-.453-.031c-.391-.047-.594-.156-.594-.328 0-.125.031-.281.078-.485l1.484-5.546L4.766.218h.28l.673-1.25 2.86-4.938.624-1.047-.437 6.22c-.032.327-.188.405-.813.468l-.36.031-.046.328C8.094.016 8.625 0 9.157 0c.53 0 1.062.016 1.593.031m0 0" style="stroke:none"/></symbol><symbol id="b" overflow="visible"><path d="M4.078-3.203c0-1.922-.578-2.844-1.766-2.844C.954-6.047.25-4.969.25-2.844.25-1.813.438-.922.75-.5c.297.438.797.672 1.344.672 1.312 0 1.984-1.14 1.984-3.375m-.734.437c0 1.86-.344 2.641-1.14 2.641-.86 0-1.22-.89-1.22-3.031 0-1.844.329-2.578 1.157-2.578.859 0 1.203.859 1.203 2.968m0 0" style="stroke:none"/></symbol><symbol id="c" overflow="visible"><path d="M3.656.031v-.265l-.453-.032c-.484-.03-.562-.125-.562-.578v-5.203l-.125-.031a15 15 0 0 1-1.985.844l.063.375h.078c.39-.188.781-.36 1.156-.516.063 0 .078.078.078.281v4.25c0 .453-.093.547-.578.578l-.484.032V.03C1.328.016 1.813 0 2.28 0c.469 0 .922.016 1.375.031zm0 0" style="stroke:none"/></symbol><symbol id="d" overflow="visible"><path d="M4.11.031c-.032-.187-.032-.281-.032-.406 0-.11 0-.188.031-.39l-3.046.093 1.609-1.687c.844-.907 1.11-1.391 1.11-2.047 0-1.016-.688-1.64-1.798-1.64-.64 0-1.062.187-1.5.624l-.14 1.188h.25l.11-.407c.14-.5.468-.718 1.046-.718.75 0 1.234.468 1.234 1.218 0 .657-.359 1.297-1.359 2.36L.141-.203V.03C.78.016 1.453 0 2.094 0c.672 0 1.344.016 2.015.031zm0 0" style="stroke:none"/></symbol><symbol id="e" overflow="visible"><path d="M4.047-1.969c0-.422-.172-.781-.484-1-.22-.156-.422-.234-.86-.312.703-.547.953-.938.953-1.469 0-.766-.64-1.297-1.61-1.297-.593 0-1 .172-1.421.594L.375-4.36h.281l.156-.5c.094-.297.641-.594 1.094-.594.578 0 1.032.469 1.032 1.016 0 .656-.516 1.218-1.126 1.218-.078 0-.421-.031-.421-.031l-.11.469.063.047c.343-.157.5-.188.75-.188.719 0 1.14.453 1.14 1.25 0 .906-.53 1.484-1.343 1.484-.407 0-.766-.124-1.032-.374C.656-.75.531-.954.375-1.422l-.25.078c.188.532.266.86.313 1.297.468.156.843.219 1.171.219 1.063 0 2.438-.922 2.438-2.14zm0 0" style="stroke:none"/></symbol><symbol id="f" overflow="visible"><path d="M4.14.031v-.265l-.42-.032c-.438-.03-.531-.14-.531-.656v-.672c.515 0 .703.016.953.047v-.625s-.438.031-.72.031h-.233v-1.218c0-1.563.015-2.329.062-2.688l-.11-.031-.64.234L.016-1.78l.093.187h2.344v.672c0 .516-.094.64-.531.656l-.531.032V.03C1.859.016 2.328 0 2.797 0c.453 0 .89.016 1.344.031zM2.454-2.14H.563l1.89-3.093zm0 0" style="stroke:none"/></symbol><symbol id="g" overflow="visible"><path d="M4.031-2.219c0-.984-.718-1.687-1.718-1.687-.422 0-.735.11-1.282.437l.078-1.828 2.672.031.047-.03c-.015-.173-.015-.22-.015-.345 0-.14 0-.203.015-.359l-.047-.047S2.86-6 2.266-6 .734-6.047.734-6.047L.688-6l.015 1.203c0 .766-.015 1.594-.047 1.969l.172.062c.422-.421.656-.53 1.078-.53.844 0 1.375.593 1.375 1.53 0 .985-.562 1.547-1.515 1.547-.485 0-.922-.156-1.032-.39l-.406-.72-.219.126c.204.5.313.781.438 1.172.234.125.594.203.969.203.593 0 1.203-.25 1.687-.672.547-.469.828-1.063.828-1.719m0 0" style="stroke:none"/></symbol><symbol id="h" overflow="visible"><path d="M4.11-1.922c0-1-.61-1.656-1.548-1.656-.515 0-.828.203-1.421.672.187-1.578.921-2.438 2.5-2.922v-.063l-.313-.156c-.844.281-1.203.469-1.656.844C.766-4.437.282-3.36.282-2.172.281-.719.983.172 2.108.172c1.141 0 2-.906 2-2.094zm-.766.313c0 .906-.438 1.5-1.125 1.5-.735 0-1.14-.641-1.14-1.813 0-.312.03-.484.124-.625.203-.297.61-.515 1.031-.515.672 0 1.11.578 1.11 1.453m0 0" style="stroke:none"/></symbol><symbol id="i" overflow="visible"><path d="M4.36-5.781v-.266C3.405-6 3.327-6 2.39-6c-.92 0-1.061 0-1.92-.047L.39-6s.015.563.015.922-.015.89-.015.89h.265l.047-.484c.078-.547.14-.61.547-.61h2.328c-.344.72-.61 1.22-.953 1.75L.485-.093l.078.125S.813 0 .969 0s.406.031.406.031C1.75-.922 1.969-1.5 2.75-2.89zm0 0" style="stroke:none"/></symbol><symbol id="j" overflow="visible"><path d="M4.063-1.813c0-.687-.313-1.078-1.313-1.53.797-.548 1.078-.907 1.078-1.438 0-.75-.625-1.266-1.562-1.266-1.032 0-1.797.672-1.797 1.594 0 .594.234.922 1 1.422-.36.172-.5.265-.703.453-.329.328-.5.734-.5 1.187C.266-.484.984.172 1.984.172c1.141 0 2.079-.89 2.079-1.984zm-.688.375c0 .735-.547 1.313-1.266 1.313-.734 0-1.218-.531-1.218-1.344 0-.64.25-1.031.89-1.437l.703.328c.563.234.891.672.891 1.14m-.156-3.25c0 .5-.219.844-.781 1.22l-.485-.235c-.547-.281-.828-.625-.828-1.063 0-.578.422-.968 1.047-.968.64 0 1.047.406 1.047 1.046m0 0" style="stroke:none"/></symbol><symbol id="k" overflow="visible"><path d="M7.906-.078c-.718-1.313-1.297-2.766-1.89-4.156-.594-1.329-1.22-2.704-1.688-4.094h-.297C3.438-6.844 2.766-5.375 2.11-3.891 1.531-2.625.984-1.297.33-.078l.077.125C1.672 0 2.937 0 4.22 0c1.202 0 2.42.016 3.624.047zm-1.484-.36H1.25a129 129 0 0 1 2.547-6.296h.094c.89 2.062 1.75 4.171 2.53 6.296zm0 0" style="stroke:none"/></symbol></defs><path d="M262.695 143.438h285.899v1148.71H262.695zm285.899 0h285.86v469.648h-285.86zm0 0" style="fill:none;stroke-width:3.985;stroke-linecap:butt;stroke-linejoin:miter;stroke:#000;stroke-opacity:1;stroke-miterlimit:10" transform="matrix(.1 0 0 -.1 0 133)"/><path d="M834.453 143.438h285.899V327.5H834.453zm285.899 0h285.898v381.328h-285.898zm285.898 0h285.898v674.57H1406.25zm0 0" style="fill:none;stroke-width:3.985;stroke-linecap:butt;stroke-linejoin:miter;stroke:#000;stroke-opacity:1;stroke-miterlimit:10" transform="matrix(.1 0 0 -.1 0 133)"/><path d="M1692.148 143.438h285.86v965.585h-285.86zm285.86 0h285.898v1156.367h-285.898zm285.898 0h285.899v1183.476h-285.899zm0 0" style="fill:none;stroke-width:3.985;stroke-linecap:butt;stroke-linejoin:miter;stroke:#000;stroke-opacity:1;stroke-miterlimit:10" transform="matrix(.1 0 0 -.1 0 133)"/><path d="M262.695 143.438h285.899v469.648H262.695zm285.899 0h285.86v180.78h-285.86zm0 0" style="fill-rule:nonzero;fill:#e5e5e5;fill-opacity:1;stroke-width:3.985;stroke-linecap:butt;stroke-linejoin:miter;stroke:#000;stroke-opacity:1;stroke-miterlimit:10" transform="matrix(.1 0 0 -.1 0 133)"/><path d="M834.453 143.438h285.899v151.914H834.453zm285.899 0h285.898V327.5h-285.898zm285.898 0h285.898v381.328H1406.25zm0 0" style="fill-rule:nonzero;fill:#e5e5e5;fill-opacity:1;stroke-width:3.985;stroke-linecap:butt;stroke-linejoin:miter;stroke:#000;stroke-opacity:1;stroke-miterlimit:10" transform="matrix(.1 0 0 -.1 0 133)"/><path d="M1692.148 143.438h285.86v674.57h-285.86zm285.86 0h285.898v965.585h-285.898zm285.898 0h285.899v1148.71h-285.899zm0 0" style="fill-rule:nonzero;fill:#e5e5e5;fill-opacity:1;stroke-width:3.985;stroke-linecap:butt;stroke-linejoin:miter;stroke:#000;stroke-opacity:1;stroke-miterlimit:10" transform="matrix(.1 0 0 -.1 0 133)"/><path d="M262.695 143.438h2287.11" style="fill:none;stroke-width:3.985;stroke-linecap:butt;stroke-linejoin:miter;stroke:#000;stroke-opacity:1;stroke-miterlimit:10" transform="matrix(.1 0 0 -.1 0 133)"/><path d="M26.02 115.672h.601v6h-.601zm228.707 0h.601v6h-.601zm0 0" style="stroke:none;fill-rule:nonzero;fill:#000;fill-opacity:1"/><path d="M262.695 143.438v1178.164" style="fill:none;stroke-width:3.985;stroke-linecap:butt;stroke-linejoin:miter;stroke:#000;stroke-opacity:1;stroke-miterlimit:10" transform="matrix(.1 0 0 -.1 0 133)"/><path d="M23.258 118.309h6v.601h-6zm0-117.821h6v.602h-6zm0 0" style="stroke:none;fill-rule:nonzero;fill:#000;fill-opacity:1"/><path d="m262.695 1292.148 57.188-171.757 57.187-152.97 57.149-135.038 57.187-117.852 57.188-101.445 57.187-85.86 57.149-71.015 57.187-56.992 57.188-43.75 57.148-31.25 57.188-19.57 57.187-8.672 57.188 1.445 57.187 10.742 57.149 19.336 57.187 27.07 57.188 34.024 57.148 40.273 57.188 45.664 57.187 50.235 57.188 54.14 57.187 57.149 57.148 59.414 57.188 60.937 57.187 61.602 57.188 61.523 57.148 60.625 57.188 59.024 57.187 56.523 57.149 53.32 57.187 49.336 57.188 44.493 57.148 38.945 57.227 32.578 57.148 25.43 57.188 17.46 57.148 8.79 57.227-.743 57.148-11.054 57.188-22.11" style="fill:none;stroke-width:7.9701;stroke-linecap:butt;stroke-linejoin:miter;stroke:#000;stroke-opacity:1;stroke-miterlimit:10" transform="matrix(.1 0 0 -.1 0 133)"/><use xlink:href="#a" x="20.871" y="128.403" style="fill:#000;fill-opacity:1"/><use xlink:href="#b" x="27.231" y="130.203" style="fill:#000;fill-opacity:1"/><use xlink:href="#a" x="49.46" y="128.403" style="fill:#000;fill-opacity:1"/><use xlink:href="#c" x="55.82" y="130.203" style="fill:#000;fill-opacity:1"/><use xlink:href="#a" x="78.048" y="128.403" style="fill:#000;fill-opacity:1"/><use xlink:href="#d" x="84.408" y="130.203" style="fill:#000;fill-opacity:1"/><use xlink:href="#a" x="106.637" y="128.403" style="fill:#000;fill-opacity:1"/><use xlink:href="#e" x="112.997" y="130.203" style="fill:#000;fill-opacity:1"/><use xlink:href="#a" x="135.226" y="128.403" style="fill:#000;fill-opacity:1"/><use xlink:href="#f" x="141.586" y="130.203" style="fill:#000;fill-opacity:1"/><use xlink:href="#a" x="163.814" y="128.403" style="fill:#000;fill-opacity:1"/><use xlink:href="#g" x="170.174" y="130.203" style="fill:#000;fill-opacity:1"/><use xlink:href="#a" x="192.403" y="128.403" style="fill:#000;fill-opacity:1"/><use xlink:href="#h" x="198.762" y="130.203" style="fill:#000;fill-opacity:1"/><use xlink:href="#a" x="220.992" y="128.403" style="fill:#000;fill-opacity:1"/><use xlink:href="#i" x="227.352" y="130.203" style="fill:#000;fill-opacity:1"/><use xlink:href="#a" x="249.58" y="128.403" style="fill:#000;fill-opacity:1"/><use xlink:href="#j" x="255.941" y="130.203" style="fill:#000;fill-opacity:1"/><path d="M1406.25 818.008v24.101m0 48.243v24.101m0 0v24.102m0 48.242v24.101m0 0v24.141m0 48.203v24.102m0 0v24.101m0 48.243v24.101m285.898-94.766v23.711m0 47.383v23.672m-142.929-58.906H1406.25" style="fill:none;stroke-width:3.985;stroke-linecap:butt;stroke-linejoin:miter;stroke:#000;stroke-opacity:1;stroke-miterlimit:10" transform="matrix(.1 0 0 -.1 0 133)"/><path d="m141.445 18.512 7.399-1.496-8.219 1.496 8.219 1.496z" style="stroke:none;fill-rule:nonzero;fill:#000;fill-opacity:1"/><path d="m1414.453 1144.883 73.985 14.96-82.188-14.96 82.188-14.961zm134.766 0h142.93" style="fill:none;stroke-width:3.985;stroke-linecap:butt;stroke-linejoin:miter;stroke:#000;stroke-opacity:1;stroke-miterlimit:10" transform="matrix(.1 0 0 -.1 0 133)"/><path d="m168.395 18.512-7.399 1.496 8.219-1.496-8.219-1.496z" style="stroke:none;fill-rule:nonzero;fill:#000;fill-opacity:1"/><path d="m1683.945 1144.883-73.984-14.961 82.187 14.96-82.187 14.962zm0 0" style="fill:none;stroke-width:3.985;stroke-linecap:butt;stroke-linejoin:miter;stroke:#000;stroke-opacity:1;stroke-miterlimit:10" transform="matrix(.1 0 0 -.1 0 133)"/><use xlink:href="#k" x="144.96" y="12.606" style="fill:#000;fill-opacity:1"/><use xlink:href="#a" x="153.6" y="12.606" style="fill:#000;fill-opacity:1"/><use xlink:href="#g" x="159.96" y="14.406" style="fill:#000;fill-opacity:1"/><path d="M209.336 524.766h27.226m54.376 0h27.226m0 0h27.188m54.414 0h27.187m0 0h27.227m54.375 0h27.226m0 0h27.188m54.414 0h27.187m0 0h27.227m54.375 0h27.226m0 0h27.188m54.414 0h27.188m0 0h27.226m54.414 0h27.188m0 0h27.187m54.414 0h27.188m0 0h27.226m54.414 0h27.188m0 0h27.226m54.375 0h27.227m-.001 0h27.188m54.415 0h27.187M209.336 818.008h27.226m54.376 0h27.226m0 0h27.188m54.414 0h27.187m0 0h27.227m54.375 0h27.226m0 0h27.188m54.414 0h27.187m0 0h27.227m54.375 0h27.226m0 0h27.188m54.414 0h27.188m0 0h27.226m54.414 0h27.188m0 0h27.187m54.414 0h27.188m0 0h27.226m54.414 0h27.188m0 0h27.226m54.375 0h27.227m-.001 0h27.188m54.415 0h27.187" style="fill:none;stroke-width:3.985;stroke-linecap:butt;stroke-linejoin:miter;stroke:#000;stroke-opacity:1;stroke-miterlimit:10" transform="matrix(.1 0 0 -.1 0 133)"/><use xlink:href="#l" x="4.367" y="82.442" style="fill:#000;fill-opacity:1"/><use xlink:href="#g" x="13.847" y="84.242" style="fill:#000;fill-opacity:1"/><use xlink:href="#m" x="2.327" y="54.44" style="fill:#000;fill-opacity:1"/><use xlink:href="#g" x="13.727" y="56.24" style="fill:#000;fill-opacity:1"/></svg>