<svg xmlns="http://www.w3.org/2000/svg" xmlns:xlink="http://www.w3.org/1999/xlink" width="247pt" height="109pt" viewBox="0 0 247 109"><defs><symbol id="a" overflow="visible"><path d="m4.86-1.016-.094-.25c-.079.079-.094.079-.157.125-.375.329-.562.438-.734.438q-.188 0-.188-.281c0-.063 0-.094.016-.125l1.11-4.532-.125-.109-.391.219c-.469-.188-.703-.235-1.016-.235-.344 0-.578.063-.906.22-.75.374-1.125.734-1.438 1.312C.422-3.172.047-1.75.047-.781c0 .5.187.906.406.906.25 0 .688-.25 1.14-.625.516-.438.985-1 1.641-1.938L2.891-.921a3 3 0 0 0-.063.61c0 .28.094.437.281.437.266 0 .766-.328 1.75-1.14zM3.811-4.953c-.265 1.281-.484 1.906-.89 2.516-.656 1-1.406 1.734-1.797 1.734-.14 0-.219-.156-.219-.485 0-.765.313-2.093.735-3.078.28-.687.578-.906 1.156-.906.281 0 .5.047 1.015.219m0 0" style="stroke:none"/></symbol><symbol id="b" overflow="visible"><path d="m5.953-5.11-.031-.062c-.344.078-.578.11-1.219.11-.203-.313-.312-.422-.61-.547a2.5 2.5 0 0 0-.812-.157c-.484 0-1.078.235-1.61.625C1-4.64.657-3.937.657-3.094c0 .922.531 1.469 1.453 1.469.11 0 .235 0 .36-.016l-.485.454c-.187.187-.328.406-.328.562 0 .125.094.25.25.39C1 .079.641.25.188.626a1.64 1.64 0 0 0-.625 1.281c0 .844.828 1.39 2.14 1.39 1.531 0 2.89-.858 2.89-1.843 0-.437-.25-.875-.765-1.281L3.11-.422c-.406-.312-.562-.547-.562-.766 0-.109.078-.234.25-.468.031-.047.047-.047.078-.094 1.172-.281 2.016-1.281 2.016-2.344 0-.11 0-.203-.032-.39l-.015-.032h.406c.203 0 .313-.015.594-.046zM3.797 1.845c0 .625-.828 1.125-1.813 1.125C1 2.97.328 2.47.328 1.735c0-.453.203-.875.594-1.203.312-.25.578-.36 1.187-.547l.922.704c.547.437.766.765.766 1.156m.234-5.922c0 1.234-.578 2.062-1.406 2.062-.734 0-1.125-.484-1.125-1.421 0-1.141.61-1.922 1.484-1.922.704 0 1.047.437 1.047 1.28zm0 0" style="stroke:none"/></symbol><symbol id="h" overflow="visible"><path d="m4.234-1.14-.093-.235-.188.125c-.86.563-1.312.766-1.734.766-.672 0-1.016-.47-1.016-1.422 0-1.266.406-2.5.984-2.953.25-.22.547-.313.938-.313.531 0 .969.219.969.516v.718h.265c.094-.78.188-1.218.297-1.53-.312-.204-.703-.298-1.156-.298-.531 0-1.39.422-2.063 1.016C.75-4.14.298-2.906.298-1.625c0 1.14.5 1.75 1.453 1.75.656 0 1.219-.234 1.89-.766zm0 0" style="stroke:none"/></symbol><symbol id="j" overflow="visible"><path d="M5.172-4.5c0-.453-.11-.922-.25-1.094-.078-.11-.234-.172-.422-.172-.281 0-.64.094-.969.266-.61.328-1.015.688-1.75 1.625l1.032-4.75-.141-.14c-.625.312-1.063.421-1.922.5l-.047.25h.578c.282 0 .407.093.407.296 0 .078-.016.219-.032.282L.453-.845c-.016.031-.016.078-.016.11 0 .468.579.859 1.235.859.437 0 1.047-.219 1.562-.594 1.157-.81 1.938-2.452 1.938-4.03m-.86.297c0 .766-.25 1.781-.609 2.562-.39.829-.875 1.204-1.515 1.204-.547 0-.844-.266-.844-.766 0-.297.047-.64.156-1.078.219-.953.516-1.531.984-2.031.391-.407 1.016-.75 1.36-.75.312 0 .469.265.469.859zm0 0" style="stroke:none"/></symbol><symbol id="c" overflow="visible"><path d="M2.75-3.797c0-.312-.344-.547-.64-.547-.344 0-.5.344-.594.625L.546-.922C.532-.859.47-.687.47-.609s.047.203.14.203c.141 0 .297-.203.36-.297L2.484-3.11c.125-.188.266-.438.266-.688zm0 0" style="stroke:none"/></symbol><symbol id="d" overflow="visible"><path d="M3.64-9.031C1.813-7.844.72-5.797.72-3.234c0 2.343 1.14 4.578 2.875 5.78l.156-.202C2.094.906 1.812-.484 1.812-3.281c0-2.781.313-4.219 1.938-5.547zm0 0" style="stroke:none"/></symbol><symbol id="e" overflow="visible"><path d="m.5-9.031-.125.203C2.015-7.5 2.328-6.063 2.328-3.281c0 2.797-.281 4.187-1.953 5.625l.156.203c1.75-1.203 2.89-3.438 2.89-5.781 0-2.563-1.108-4.61-2.921-5.797m0 0" style="stroke:none"/></symbol><symbol id="f" overflow="visible"><path d="M7.219-3.11v-.25L.78-6.39v.702l5.235 2.454L.78-.781v.703zm0 0" style="stroke:none"/></symbol><symbol id="k" overflow="visible"><path d="M7.219-.078v-.703L1.984-3.234 7.22-5.688v-.703L.78-3.359v.25zm0 0" style="stroke:none"/></symbol><symbol id="g" overflow="visible"><path d="M5.563-4.375c0-2.625-.782-3.86-2.422-3.86-1.844 0-2.797 1.47-2.797 4.36 0 1.406.25 2.61.672 3.188.421.593 1.093.921 1.828.921 1.812 0 2.719-1.546 2.719-4.609m-1.016.594c0 2.547-.453 3.61-1.547 3.61-1.156 0-1.656-1.22-1.656-4.126 0-2.531.453-3.516 1.578-3.516 1.172 0 1.625 1.172 1.625 4.032m0 0" style="stroke:none"/></symbol><symbol id="i" overflow="visible"><path d="M.781-4.14H7.22v-.72H.78zm0 2.53H7.22v-.702H.78zm0 0" style="stroke:none"/></symbol></defs><path d="M11.992 142.578h2376.055" style="fill:none;stroke-width:3.985;stroke-linecap:butt;stroke-linejoin:miter;stroke:#000;stroke-opacity:1;stroke-miterlimit:10" transform="matrix(.1 0 0 -.1 0 109)"/><path d="M.95 91.754h.6v6h-.6zm237.6 0h.602v6h-.601zm0 0" style="stroke:none;fill-rule:nonzero;fill:#000;fill-opacity:1"/><path d="m344.648 60.86 427.696 653.827" style="fill:none;stroke-width:3.985;stroke-linecap:butt;stroke-linejoin:miter;stroke:#000;stroke-opacity:1;stroke-miterlimit:10" transform="matrix(.1 0 0 -.1 0 109)"/><path d="M507.148 278.79c0 11.015-8.945 19.92-19.921 19.92-11.016 0-19.961-8.905-19.961-19.92 0-11.017 8.945-19.923 19.96-19.923 10.977 0 19.922 8.906 19.922 19.922zm0 0" style="fill-rule:nonzero;fill:#000;fill-opacity:1;stroke-width:3.985;stroke-linecap:butt;stroke-linejoin:miter;stroke:#000;stroke-opacity:1;stroke-miterlimit:10" transform="matrix(.1 0 0 -.1 0 109)"/><path d="M487.227 278.79v-17.032m0-34.063v-17.03m0-.001v-17.031m0-34.023v-17.032" style="fill:none;stroke-width:3.985;stroke-linecap:butt;stroke-linejoin:miter;stroke:#000;stroke-opacity:1;stroke-miterlimit:10" transform="matrix(.1 0 0 -.1 0 109)"/><use xlink:href="#a" x="45.961" y="104.487" style="fill:#000;fill-opacity:1"/><use xlink:href="#b" x="3.121" y="73.775" style="fill:#000;fill-opacity:1"/><use xlink:href="#c" x="9.601" y="69.455" style="fill:#000;fill-opacity:1"/><use xlink:href="#d" x="12.961" y="73.775" style="fill:#000;fill-opacity:1"/><use xlink:href="#a" x="17.521" y="73.775" style="fill:#000;fill-opacity:1"/><use xlink:href="#e" x="23.401" y="73.775" style="fill:#000;fill-opacity:1"/><use xlink:href="#f" x="31.201" y="73.775" style="fill:#000;fill-opacity:1"/><use xlink:href="#g" x="42.721" y="73.775" style="fill:#000;fill-opacity:1"/><path d="M1057.46 1005.273h760.313" style="fill:none;stroke-width:3.985;stroke-linecap:butt;stroke-linejoin:miter;stroke:#000;stroke-opacity:1;stroke-miterlimit:10" transform="matrix(.1 0 0 -.1 0 109)"/><path d="M1457.54 1005.273c0 11.016-8.907 19.922-19.923 19.922s-19.922-8.906-19.922-19.922c0-10.976 8.907-19.921 19.922-19.921s19.922 8.945 19.922 19.921zm0 0" style="fill-rule:nonzero;fill:#000;fill-opacity:1;stroke-width:3.985;stroke-linecap:butt;stroke-linejoin:miter;stroke:#000;stroke-opacity:1;stroke-miterlimit:10" transform="matrix(.1 0 0 -.1 0 109)"/><path d="M1437.617 1005.273V978.32m0-53.906v-26.953m0-.001v-26.99m0-53.907v-26.954m0 .001v-26.954m0-53.946v-26.952m0 0v-26.953m0-53.907v-26.953m0 0v-26.953m0-53.945v-26.953m0 0V439.14m0-53.945v-26.953m0 0V331.29m0-53.907V250.43m0 0v-26.953m0-53.946v-26.953" style="fill:none;stroke-width:3.985;stroke-linecap:butt;stroke-linejoin:miter;stroke:#000;stroke-opacity:1;stroke-miterlimit:10" transform="matrix(.1 0 0 -.1 0 109)"/><use xlink:href="#h" x="141.241" y="104.487" style="fill:#000;fill-opacity:1"/><use xlink:href="#b" x="51.721" y="13.167" style="fill:#000;fill-opacity:1"/><use xlink:href="#c" x="58.201" y="8.847" style="fill:#000;fill-opacity:1"/><use xlink:href="#d" x="61.561" y="13.167" style="fill:#000;fill-opacity:1"/><use xlink:href="#h" x="66.001" y="13.167" style="fill:#000;fill-opacity:1"/><use xlink:href="#e" x="71.521" y="13.167" style="fill:#000;fill-opacity:1"/><use xlink:href="#i" x="78.961" y="13.167" style="fill:#000;fill-opacity:1"/><use xlink:href="#g" x="90.241" y="13.167" style="fill:#000;fill-opacity:1"/><path d="m1627.695 1041.602 522.735-399.57" style="fill:none;stroke-width:3.985;stroke-linecap:butt;stroke-linejoin:miter;stroke:#000;stroke-opacity:1;stroke-miterlimit:10" transform="matrix(.1 0 0 -.1 0 109)"/><path d="M1932.734 823.672c0 11.015-8.906 19.922-19.921 19.922-10.977 0-19.922-8.907-19.922-19.922s8.945-19.922 19.921-19.922c11.016 0 19.922 8.906 19.922 19.922zm0 0" style="fill-rule:nonzero;fill:#000;fill-opacity:1;stroke-width:3.985;stroke-linecap:butt;stroke-linejoin:miter;stroke:#000;stroke-opacity:1;stroke-miterlimit:10" transform="matrix(.1 0 0 -.1 0 109)"/><path d="M1912.813 823.672v-28.399m0-56.757v-28.36m0 0v-28.398m0-56.758v-28.36m0 0v-28.359m0-56.797v-28.359m0 0v-28.36m0-56.757v-28.399m0 .001v-28.4m0-56.757v-28.36m0 .001v-28.399m0-56.757v-28.36" style="fill:none;stroke-width:3.985;stroke-linecap:butt;stroke-linejoin:miter;stroke:#000;stroke-opacity:1;stroke-miterlimit:10" transform="matrix(.1 0 0 -.1 0 109)"/><use xlink:href="#j" x="188.282" y="105.375" style="fill:#000;fill-opacity:1"/><use xlink:href="#b" x="192.122" y="19.288" style="fill:#000;fill-opacity:1"/><use xlink:href="#c" x="198.602" y="14.968" style="fill:#000;fill-opacity:1"/><use xlink:href="#d" x="201.962" y="19.288" style="fill:#000;fill-opacity:1"/><use xlink:href="#j" x="206.162" y="19.288" style="fill:#000;fill-opacity:1"/><use xlink:href="#e" x="212.282" y="19.288" style="fill:#000;fill-opacity:1"/><use xlink:href="#k" x="220.082" y="19.288" style="fill:#000;fill-opacity:1"/><use xlink:href="#g" x="231.602" y="19.288" style="fill:#000;fill-opacity:1"/><path d="m487.227 278.79 47.5 70.858 47.539 67.188 47.5 63.555 47.539 59.921 47.5 56.329 47.539 52.656 47.5 49.062 47.539 45.391 47.5 41.758 47.539 38.164 47.5 34.492 47.539 30.899 47.5 27.226 47.539 23.633 47.5 19.96 47.54 16.329 47.5 12.734 47.538 9.102 47.54 5.43 47.5 1.796 47.538-1.796 47.5-5.43 47.54-9.102 47.5-12.734 47.538-16.328 47.5-19.961 47.54-23.633 47.5-27.226 47.539-30.899 47.5-34.492" style="fill:none;stroke-width:7.9701;stroke-linecap:butt;stroke-linejoin:miter;stroke:#000;stroke-opacity:1;stroke-miterlimit:10" transform="matrix(.1 0 0 -.1 0 109)"/></svg>