<svg xmlns="http://www.w3.org/2000/svg" xmlns:xlink="http://www.w3.org/1999/xlink" width="218pt" height="164pt" viewBox="0 0 218 164"><defs><symbol id="a" overflow="visible"><path d="M6.016-2.406v-.578H.64v.578zm0 0" style="stroke:none"/></symbol><symbol id="b" overflow="visible"><path d="M4.172.031v-.297l-.516-.03C3.094-.329 3-.439 3-.954v-5.922l-.14-.047c-.641.344-1.36.64-2.266.953l.078.438h.094c.437-.203.875-.407 1.312-.594.063 0 .078.094.078.328v4.844c0 .515-.11.625-.64.656l-.563.031V.03C1.5.016 2.047 0 2.61 0c.516 0 1.047.016 1.563.031zm0 0" style="stroke:none"/></symbol><symbol id="c" overflow="visible"><path d="M4.64-3.656c0-2.172-.656-3.219-2.015-3.219-1.547 0-2.328 1.234-2.328 3.64 0 1.172.203 2.172.547 2.672.36.485.906.766 1.531.766 1.5 0 2.266-1.297 2.266-3.86zm-.843.5c0 2.125-.375 3-1.297 3-.969 0-1.375-1-1.375-3.438 0-2.094.375-2.922 1.313-2.922.968 0 1.359.97 1.359 3.36m0 0" style="stroke:none"/></symbol><symbol id="d" overflow="visible"><path d="M4.672.031C4.64-.172 4.64-.28 4.64-.422c0-.125 0-.219.03-.453l-3.452.11L3.03-2.688C4-3.72 4.297-4.266 4.297-5.017c0-1.14-.781-1.859-2.047-1.859-.719 0-1.203.203-1.688.703l-.171 1.36h.28l.141-.47c.157-.577.516-.812 1.188-.812.844 0 1.406.532 1.406 1.375 0 .75-.422 1.485-1.547 2.688L.156-.234V.03C.891.016 1.641 0 2.375 0c.766 0 1.531.016 2.297.031m0 0" style="stroke:none"/></symbol><symbol id="e" overflow="visible"><path d="M4.61-2.234c0-.485-.204-.891-.563-1.141-.25-.188-.484-.266-.969-.36.797-.609 1.094-1.078 1.094-1.656 0-.89-.75-1.484-1.844-1.484-.687 0-1.125.203-1.61.672L.423-4.97h.312l.188-.547c.11-.343.734-.687 1.25-.687.656 0 1.172.531 1.172 1.156 0 .75-.578 1.375-1.297 1.375-.078 0-.469-.031-.469-.031l-.11.531.063.063c.375-.172.578-.22.844-.22.828 0 1.297.532 1.297 1.438 0 1.016-.594 1.688-1.531 1.688-.454 0-.86-.156-1.157-.438C.735-.86.61-1.095.423-1.626l-.266.094C.36-.921.437-.563.5-.063c.531.188.969.266 1.328.266C3.047.203 4.61-.844 4.61-2.234m0 0" style="stroke:none"/></symbol><symbol id="f" overflow="visible"><path d="M4.703.031v-.297l-.469-.03c-.5-.032-.609-.157-.609-.766v-.735c.594 0 .797 0 1.078.031v-.703s-.484.031-.812.031h-.266v-1.39c0-1.781.031-2.625.078-3.047l-.125-.047-.734.266L.016-2.031l.109.234h2.672v.734c0 .61-.11.75-.61.766l-.609.031v.297C2.11.016 2.641 0 3.188 0c.5 0 1.015.016 1.515.031M2.797-2.438H.64l2.156-3.515zm0 0" style="stroke:none"/></symbol></defs><path d="m125.586 392.383 128.828 27.383M139.102 537.617l101.796 43.32m-90.82 106.016 79.844 50.977m-72.109 100.312 64.375 54.805m-58.907 97.343 53.438 56.915m-49.492 95.664 45.546 58.125m-42.539 94.687 39.532 58.907m-37.226 94.022 34.92 59.454m98.126-1115.781 128.828 27.383M319.102 537.617l101.796 43.32m-90.82 106.016 79.844 50.977m-72.109 100.312 64.414 54.805m-58.946 97.343 53.477 56.915m-49.531 95.664 45.546 58.125m-42.539 94.687 39.532 58.907m-37.226 94.022 34.92 59.454m98.165-1115.781 128.79 27.383M499.102 537.617l101.836 43.32m-90.86 106.016 79.844 50.977m-72.109 100.312 64.414 54.805m-58.946 97.343 53.477 56.915m-49.531 95.664 45.546 58.125m-42.539 94.687 39.532 58.907m-37.226 94.022 34.92 59.454m98.165-1115.781 128.79 27.383M679.102 537.617l101.836 43.32m-90.86 106.016 79.883 50.977m-72.148 100.312 64.414 54.805m-58.946 97.343 53.477 56.915m-49.492 95.664 45.507 58.125m-42.539 94.687 39.57 58.907m-37.264 94.022 34.92 59.454m98.165-1115.781 128.79 27.383M859.102 537.617l101.836 43.32m-90.86 106.016 79.883 50.977m-72.148 100.312 64.414 54.805m-58.946 97.343 53.477 56.915m-49.492 95.664 45.507 58.125m-42.539 94.687 39.57 58.907m-37.264 94.022 34.92 59.454m98.165-1115.781 128.79 27.383m-115.313 117.851 101.835 43.32m-90.859 106.016 79.883 50.977m-72.148 100.312 64.414 54.805m-58.946 97.343 53.477 56.915m-49.492 95.664 45.507 58.125m-42.539 94.687 39.57 58.907m-37.264 94.022 34.92 59.454m98.165-1115.781 128.79 27.383m-115.313 117.851 101.835 43.32m-90.859 106.016 79.883 50.977m-72.148 100.312 64.414 54.805m-58.946 97.343 53.477 56.915m-49.492 95.664 45.507 58.125m-42.539 94.687 39.57 58.907m-37.226 94.022 34.883 59.454m98.164-1115.781 128.79 27.383m-115.313 117.851 101.835 43.32m-90.859 106.016 79.883 50.977m-72.148 100.312 64.414 54.805m-58.946 97.343 53.477 56.915m-49.492 95.664 45.507 58.125m-42.539 94.687 39.57 58.907m-37.226 94.022 34.883 59.454m98.164-1115.781 128.79 27.383m-115.313 117.851 101.835 43.32m-90.859 106.016 79.883 50.977m-72.148 100.312 64.414 54.805m-58.946 97.343 53.477 56.915m-49.492 95.664 45.507 58.125m-42.539 94.687 39.57 58.907m-37.226 94.022 34.883 59.454m98.164-1115.781 128.79 27.383m-115.313 117.851 101.835 43.32m-90.859 106.016 79.883 50.977m-72.148 100.312 64.414 54.805m-58.946 97.343 53.477 56.915m-49.492 95.664 45.507 58.125m-42.539 94.687 39.57 58.907m-37.226 94.022 34.883 59.454m98.164-1115.781 128.79 27.383m-115.313 117.851 101.835 43.32m-90.859 106.016 79.883 50.977m-72.148 100.312 64.414 54.805m-58.946 97.343 53.477 56.915m-49.492 95.664 45.507 58.125m-42.539 94.687 39.57 58.907m-37.226 94.022 34.883 59.454" style="fill:none;stroke-width:3.985;stroke-linecap:butt;stroke-linejoin:miter;stroke:#7f7f7f;stroke-opacity:1;stroke-miterlimit:10" transform="matrix(.1 0 0 -.1 0 164)"/><path d="M370 252.89h1440.04" style="fill:none;stroke-width:3.985;stroke-linecap:butt;stroke-linejoin:miter;stroke:#000;stroke-opacity:1;stroke-miterlimit:10" transform="matrix(.1 0 0 -.1 0 164)"/><path d="M36.746 138.723h.602v6h-.602zm72.004 0h.602v6h-.602zm72 0h.602v6h-.602zm0 0" style="stroke:none;fill-rule:nonzero;fill:#000;fill-opacity:1"/><use xlink:href="#a" x="31.12" y="153.642" style="fill:#000;fill-opacity:1"/><use xlink:href="#b" x="37.84" y="153.642" style="fill:#000;fill-opacity:1"/><use xlink:href="#c" x="106.481" y="153.522" style="fill:#000;fill-opacity:1"/><use xlink:href="#b" x="178.482" y="153.642" style="fill:#000;fill-opacity:1"/><path d="M10 252.89h1800.04m0 0h360m-1080 306.368v919.18" style="fill:none;stroke-width:3.985;stroke-linecap:butt;stroke-linejoin:miter;stroke:#000;stroke-opacity:1;stroke-miterlimit:10" transform="matrix(.1 0 0 -.1 0 164)"/><path d="M102.988 107.727h6v.601h-6zm0-30.641h6v.602h-6zm0-30.636h6v.6h-6zm0-30.641h6v.601h-6zm0 0" style="stroke:none;fill-rule:nonzero;fill:#000;fill-opacity:1"/><use xlink:href="#b" x="95.555" y="110.212" style="fill:#000;fill-opacity:1"/><use xlink:href="#d" x="95.555" y="79.573" style="fill:#000;fill-opacity:1"/><use xlink:href="#e" x="95.555" y="48.815" style="fill:#000;fill-opacity:1"/><use xlink:href="#f" x="95.555" y="18.296" style="fill:#000;fill-opacity:1"/><path d="M1090.04 252.89v306.368m0-306.368v1378.712" style="fill:none;stroke-width:3.985;stroke-linecap:butt;stroke-linejoin:miter;stroke:#000;stroke-opacity:1;stroke-miterlimit:10" transform="matrix(.1 0 0 -.1 0 164)"/><path d="m10 321.25 43.203 4.219 43.203 4.492 43.203 4.766 43.203 5.078 43.204 5.351 43.164 5.703 43.203 6.055 43.203 6.445 43.203 6.836 43.242 7.266 43.164 7.695 43.203 8.164 43.204 8.711 43.203 9.18 43.203 9.805 43.203 10.39 43.203 11.055 43.203 11.719 43.203 12.46 43.203 13.204 43.204 14.062 43.203 14.883 43.203 15.82 43.203 16.797 43.203 17.852 43.164 18.945 43.203 20.117 43.203 21.367 43.204 22.696 43.203 24.062 43.203 25.586 43.203 27.149 43.203 28.828 43.203 30.625 43.203 32.5 43.203 34.531 43.204 36.68 43.164 38.906 43.203 41.328 43.203 43.867 43.203 46.64 43.203 49.454 43.203 52.54 43.203 55.82 43.203 59.218 43.204 62.93 43.203 66.758 43.203 70.937 43.203 75.313 43.203 79.96" style="fill:none;stroke-width:7.9701;stroke-linecap:butt;stroke-linejoin:miter;stroke:#000;stroke-opacity:1;stroke-miterlimit:10" transform="matrix(.1 0 0 -.1 0 164)"/></svg>