<svg xmlns="http://www.w3.org/2000/svg" xmlns:xlink="http://www.w3.org/1999/xlink" width="218pt" height="164pt" viewBox="0 0 218 164"><defs><symbol id="a" overflow="visible"><path d="M6.016-2.406v-.578H.64v.578zm0 0" style="stroke:none"/></symbol><symbol id="b" overflow="visible"><path d="M4.172.031v-.297l-.516-.03C3.094-.329 3-.439 3-.954v-5.922l-.14-.047c-.641.344-1.36.64-2.266.953l.078.438h.094c.437-.203.875-.407 1.312-.594.063 0 .078.094.078.328v4.844c0 .515-.11.625-.64.656l-.563.031V.03C1.5.016 2.047 0 2.61 0c.516 0 1.047.016 1.563.031zm0 0" style="stroke:none"/></symbol><symbol id="c" overflow="visible"><path d="M4.64-3.656c0-2.172-.656-3.219-2.015-3.219-1.547 0-2.328 1.234-2.328 3.64 0 1.172.203 2.172.547 2.672.36.485.906.766 1.531.766 1.5 0 2.266-1.297 2.266-3.86zm-.843.5c0 2.125-.375 3-1.297 3-.969 0-1.375-1-1.375-3.438 0-2.094.375-2.922 1.313-2.922.968 0 1.359.97 1.359 3.36m0 0" style="stroke:none"/></symbol><symbol id="d" overflow="visible"><path d="M4.672.031C4.64-.172 4.64-.28 4.64-.422c0-.125 0-.219.03-.453l-3.452.11L3.03-2.688C4-3.72 4.297-4.266 4.297-5.017c0-1.14-.781-1.859-2.047-1.859-.719 0-1.203.203-1.688.703l-.171 1.36h.28l.141-.47c.157-.577.516-.812 1.188-.812.844 0 1.406.532 1.406 1.375 0 .75-.422 1.485-1.547 2.688L.156-.234V.03C.891.016 1.641 0 2.375 0c.766 0 1.531.016 2.297.031m0 0" style="stroke:none"/></symbol><symbol id="e" overflow="visible"><path d="M4.61-2.234c0-.485-.204-.891-.563-1.141-.25-.188-.484-.266-.969-.36.797-.609 1.094-1.078 1.094-1.656 0-.89-.75-1.484-1.844-1.484-.687 0-1.125.203-1.61.672L.423-4.97h.312l.188-.547c.11-.343.734-.687 1.25-.687.656 0 1.172.531 1.172 1.156 0 .75-.578 1.375-1.297 1.375-.078 0-.469-.031-.469-.031l-.11.531.063.063c.375-.172.578-.22.844-.22.828 0 1.297.532 1.297 1.438 0 1.016-.594 1.688-1.531 1.688-.454 0-.86-.156-1.157-.438C.735-.86.61-1.095.423-1.626l-.266.094C.36-.921.437-.563.5-.063c.531.188.969.266 1.328.266C3.047.203 4.61-.844 4.61-2.234m0 0" style="stroke:none"/></symbol><symbol id="f" overflow="visible"><path d="M4.703.031v-.297l-.469-.03c-.5-.032-.609-.157-.609-.766v-.735c.594 0 .797 0 1.078.031v-.703s-.484.031-.812.031h-.266v-1.39c0-1.781.031-2.625.078-3.047l-.125-.047-.734.266L.016-2.031l.109.234h2.672v.734c0 .61-.11.75-.61.766l-.609.031v.297C2.11.016 2.641 0 3.188 0c.5 0 1.015.016 1.515.031M2.797-2.438H.64l2.156-3.515zm0 0" style="stroke:none"/></symbol></defs><path d="M370 252.89h1440.04" style="fill:none;stroke-width:3.985;stroke-linecap:butt;stroke-linejoin:miter;stroke:#000;stroke-opacity:1;stroke-miterlimit:10" transform="matrix(.1 0 0 -.1 0 164)"/><path d="M36.746 138.723h.602v6h-.602zm72.004 0h.602v6h-.602zm72 0h.602v6h-.602zm0 0" style="stroke:none;fill-rule:nonzero;fill:#000;fill-opacity:1"/><use xlink:href="#a" x="31.12" y="153.642" style="fill:#000;fill-opacity:1"/><use xlink:href="#b" x="37.84" y="153.642" style="fill:#000;fill-opacity:1"/><use xlink:href="#c" x="106.481" y="153.522" style="fill:#000;fill-opacity:1"/><use xlink:href="#b" x="178.482" y="153.642" style="fill:#000;fill-opacity:1"/><path d="M10 252.89h1800.04m0 0h360m-1080 306.368v919.18" style="fill:none;stroke-width:3.985;stroke-linecap:butt;stroke-linejoin:miter;stroke:#000;stroke-opacity:1;stroke-miterlimit:10" transform="matrix(.1 0 0 -.1 0 164)"/><path d="M102.988 107.727h6v.601h-6zm0-30.641h6v.602h-6zm0-30.636h6v.6h-6zm0-30.641h6v.601h-6zm0 0" style="stroke:none;fill-rule:nonzero;fill:#000;fill-opacity:1"/><use xlink:href="#b" x="97.175" y="105.778" style="fill:#000;fill-opacity:1"/><use xlink:href="#d" x="97.175" y="75.14" style="fill:#000;fill-opacity:1"/><use xlink:href="#e" x="97.175" y="44.381" style="fill:#000;fill-opacity:1"/><use xlink:href="#f" x="97.175" y="13.862" style="fill:#000;fill-opacity:1"/><path d="M1090.04 252.89v306.368m0-306.368v1378.712M10 559.258h18.008m35.976 0h18.008m0 0H100m36.016 0h17.968m0 0h18.047m35.977 0h18.008m0 0h17.968m36.016 0h18.008m0 0h18.008m36.015 0H370m0 0h18.008m35.976 0h18.047m0 0H460m36.016 0h17.968m0 0h18.047m35.977 0h18.008m0 0h17.968m36.016 0h18.008m0 0h18.008m36.015 0H730m0 0h18.008m36.015 0h18.008m0 0H820m36.016 0h18.007m0 0h18.008m35.977 0h18.008m0 0h18.007m35.977 0h18.008m0 0h18.008m36.015 0h18.008m.001 0h17.968m36.015 0h18.008m0 0h18.008m35.977 0h18.007m0 0h18.008m35.977 0h18.008m0 0h18.007m36.017 0h17.968m0 0h18.008m36.015 0h18.008m.001 0h17.968m36.015 0h18.008m0 0h18.008m35.977 0h18.007m0 0h18.008m35.977 0h18.008m0 0h18.007m36.017 0h17.968m0 0h18.008m36.015 0h18.008m.001 0h17.968m36.015 0h18.008m0 0h18.008m35.977 0h18.007m0 0h18.008m35.977 0h18.008m0 0h18.007m36.017 0h17.968m0 0h18.008m36.015 0h18.008M10 99.688l18.008 7.656m35.976 15.312 18.008 7.656m0 .001L100 138.007m36.016 15.313 17.968 7.657m0 0 18.047 7.656m35.977 15.312 18.008 7.657m0 0 17.968 7.656M280 214.57l18.008 7.657m0 0 18.008 7.656m36.015 15.312L370 252.891m0-.001 18.008 7.657m35.976 15.313 18.047 7.656m0 0L460 291.172m36.016 15.312 17.968 7.657m0-.001 18.047 7.657m35.977 15.351 18.008 7.657m0 0 17.968 7.656M640 367.773l18.008 7.657m0 0 18.008 7.656m36.015 15.312L730 406.055m0 0 18.008 7.656m36.015 15.352 18.008 7.656m0 0L820 444.375m36.016 15.313 18.007 7.656m0 0L892.031 475m35.977 15.313 18.008 7.695m0 0 18.007 7.656M1000 520.977l18.008 7.656m0 0 18.008 7.656m36.015 15.313 18.008 7.656m.001 0 17.968 7.656m36.015 15.352 18.008 7.617m0 0 18.008 7.695m35.977 15.312 18.007 7.657m0 0 18.008 7.656m35.977 15.313 18.008 7.656m0 0 18.007 7.656m36.017 15.312 17.968 7.696m0 0 18.008 7.617m36.015 15.352 18.008 7.656m.001-.001 17.968 7.657m36.015 15.313 18.008 7.656m0 0 18.008 7.695m35.977 15.274 18.007 7.695m0 0 18.008 7.656m35.977 15.313 18.008 7.656m0 0 18.007 7.656m36.017 15.313 17.968 7.656m0 0 18.008 7.656m36.015 15.352 18.008 7.656m.001 0 17.968 7.656m36.015 15.313 18.008 7.656m0 .001 18.008 7.655m35.977 15.313 18.007 7.656m0 0 18.008 7.656m35.977 15.352 18.008 7.656m0 0 18.007 7.656m36.017 15.313 17.968 7.656m0 0 18.008 7.656m36.015 15.313 18.008 7.695M10 444.375l18.008-3.438m35.976-6.914 18.008-3.437m0 0L100 427.89m36.016-5.35 17.968-2.696m0 0 18.047-1.914m35.977-3.828 18.008-1.914m0 0 17.968-1.133M280 408.75l18.008-1.133m0 0 18.008-.39m36.015-.782 17.969-.39m0 0 18.008.39m35.976.782 18.047.39m0 0L460 408.75m36.016 2.305 17.968 1.132m0 .001 18.047 1.914m35.977 3.828 18.008 1.914m0 0 17.968 2.695M640 427.89l18.008 2.696m0 0 18.008 3.437m36.015 6.915L730 444.375m0 0 18.008 4.219m36.015 8.437 18.008 4.18m0-.001 17.969 5m36.016 9.962 18.007 4.96m0 .001 18.008 5.742m35.977 11.523 18.008 5.704m0 0 18.007 6.523M1000 523.633l18.008 6.523m0 0 18.008 7.266m36.015 14.57 18.008 7.266m.001 0 17.968 8.047m36.015 16.093 18.008 8.047m0 0 18.008 8.79m35.977 17.617 18.007 8.789m0-.001 18.008 9.61m35.977 19.14 18.008 9.57m0 0 18.007 10.352m36.017 20.665 17.968 10.351m0 0 18.008 11.094m36.015 22.226 18.008 11.133m.001 0 17.968 11.836m36.015 23.75 18.008 11.875m0 0 18.008 12.656m35.977 25.274 18.007 12.617m0 .001 18.008 13.398m35.977 26.835 18.008 13.399m0 0 18.007 14.18m36.017 28.32 17.968 14.18m0 0 18.008 14.921m36.015 29.883 18.008 14.961m.001 0 17.968 15.664m36.015 31.407 18.008 15.703m0-.001 18.008 16.485m35.977 32.93 18.007 16.484m0 .001 18.008 17.226m35.977 34.453 18.008 17.226m0 0 18.007 18.008m36.017 36.016 17.968 18.008m0 0 18.008 18.75m36.015 37.539 18.008 18.75M10 272.031l18.008 4.61m35.976 9.219 18.008 4.609m0 0L100 294.766m36.016 8.594 17.968 4.296m0 0 18.047 4.102m35.977 8.125 18.008 4.062m0 0 17.968 3.946M280 335.703l18.008 3.945m0 0 18.008 3.829m36.015 7.695L370 355m0 0 18.008 3.867m35.976 7.656 18.047 3.829m0 0L460 374.297m36.016 7.851 17.968 3.907m0 0 18.047 4.062m35.977 8.164 18.008 4.063m0 0 17.968 4.297M640 415.234l18.008 4.336m0 0 18.008 4.57m36.015 9.258 17.969 4.57m0 .001 18.008 5m36.015 10 18.008 5m0 0 17.969 5.43m36.016 10.898 18.007 5.469m0 0 18.008 5.976m35.977 11.953 18.008 6.016m0-.001 18.007 6.603M1000 523.516l18.008 6.601m0 0 18.008 7.266m36.015 14.609 18.008 7.266m.001 0 17.968 8.047m36.015 16.133 18.008 8.046m0 0 18.008 8.907m35.977 17.773 18.007 8.906m0 0 18.008 9.805m35.977 19.648 18.008 9.844m0 0 18.007 10.781m36.017 21.642 17.968 10.82m0 0 18.008 11.874m36.015 23.75 18.008 11.914m.001 0 17.968 13.008m36.015 26.094 18.008 13.008m0 0 18.008 14.258m35.977 28.554 18.007 14.258m0 0 18.008 15.547m35.977 31.133 18.008 15.547m0 0 18.007 16.953m36.017 33.867 17.968 16.953m0 0 18.008 18.399m36.015 36.796 18.008 18.399m.001 0 17.968 19.922m36.015 39.844 18.008 19.921m0 .001 18.008 21.523m35.977 43.086 18.007 21.562m0 0 18.008 23.203m35.977 46.446 18.008 23.242m0 0 9.023 12.46m17.969 25.001 9.023 12.5m0 0 8.985 12.46m18.007 25.001 8.985 12.5m0 0 9.023 13.398m18.009 26.836 8.983 13.399m0 0 8.985 13.398m18.008 26.835 9.023 13.4" style="fill:none;stroke-width:3.985;stroke-linecap:butt;stroke-linejoin:miter;stroke:#000;stroke-opacity:1;stroke-miterlimit:10" transform="matrix(.1 0 0 -.1 0 164)"/><path d="m10 321.25 71.992 7.188 71.992 7.93 72.032 8.788 71.992 9.727L370 365.586l72.031 11.875 71.953 13.086 72.032 14.492 71.992 15.977L730 438.71l72.031 19.531 71.992 21.602 71.993 23.867 71.992 26.406 72.031 29.14 71.992 32.227 71.992 35.625 71.993 39.336 71.992 43.516 72.031 48.086 71.992 53.086 71.992 58.71 71.993 64.923 71.992 71.68 72.031 79.257 71.992 87.617 71.992 96.797 71.993 106.992 71.992 118.204 72.031 130.703" style="fill:none;stroke-width:7.9701;stroke-linecap:butt;stroke-linejoin:miter;stroke:#000;stroke-opacity:1;stroke-miterlimit:10" transform="matrix(.1 0 0 -.1 0 164)"/></svg>