<svg xmlns="http://www.w3.org/2000/svg" xmlns:xlink="http://www.w3.org/1999/xlink" width="208" height="176" viewBox="0 0 156 132"><defs><symbol id="a" overflow="visible"><path d="m5.36-.938-.094-.234c-.438.36-.735.531-.922.531C4.156-.64 4-.75 3.89-.984a4.8 4.8 0 0 1-.313-1.032l-.203-1.203.422-.578c.547-.781.875-1.062 1.25-1.062.187 0 .328.109.39.28l.172-.046.172-1.016c-.14-.078-.25-.125-.36-.125-.468 0-.952.438-1.687 1.532l-.453.656-.062-.563c-.14-1.187-.469-1.625-1.172-1.625-.313 0-.578.094-.688.25l-.687 1 .203.11c.36-.407.594-.563.828-.563.39 0 .656.485.86 1.657l.124.75-.468.734C1.703-1.031 1.297-.641.953-.641.781-.64.641-.687.625-.75l-.14-.344-.235.047c0 .234-.016.39-.094.766-.031.156-.031.187-.047.265.172.094.375.141.516.141.39 0 .86-.344 1.234-.906l.907-1.39.125.827C3.062-.328 3.328.125 3.75.125c.266 0 .656-.203 1.031-.547zm0 0" style="stroke:none"/></symbol><symbol id="b" overflow="visible"><path d="m5.86-5.656-.141-.11c-.344.141-.61.204-.875.235l-.422 1.578c-.14.562-.563 1.437-.953 2.015-.422.61-1 1.141-1.266 1.141-.265 0-.25-.578-.234-.734l.187-2.313c.016-.375.047-.828.047-1.172 0-.53-.094-.75-.297-.75-.156 0-.312.094-.89.485L.03-4.61l.14.203.595-.344c.062-.063.218-.156.296-.156.313 0 .266.61.25.812L1.11-1.187l-.015.468c0 .5.218.844.515.844.454 0 1.454-1.016 2.344-2.36L3.375-.187c-.61 2.11-1.219 2.985-2.047 2.985a.737.737 0 0 1-.75-.735c0-.062.016-.156.031-.265L.484 1.75l-.562.406c-.016.078-.016.156-.016.203 0 .516.438.938.985.938 1.265 0 2.578-1.485 3.28-3.688zm0 0" style="stroke:none"/></symbol><symbol id="c" overflow="visible"><path d="M4.813-1.703h-.266l-.266.719c-.078.218-.218.296-.468.296-.266 0-.532-.062-.797-.125-.391-.078-.797-.14-1.032-.14-.375 0-.703.062-1.14.25l4.062-4.563.063-.39-.11-.11-.265.282a.53.53 0 0 1-.407.171c-.406 0-1.03-.109-1.609-.25-.312-.093-.625-.203-.953-.203-.203 0-.438.047-.734.125L.516-4.187h.25l.359-.688c.203-.047.313-.063.469-.063s.297.016.531.063c.406.078.719.125.969.125.437 0 .719-.078 1.11-.281L-.017-.25l.11.328a1.6 1.6 0 0 1 1.093-.39c.297 0 .625.046 1.25.203.72.171 1.094.234 1.407.234.156 0 .25-.016.61-.11.124-.75.218-1.156.359-1.718zm0 0" style="stroke:none"/></symbol><symbol id="d" overflow="visible"><path d="M6.484-5.234c0-.125 0-.344-.203-.344s-.593.156-.797.25l-.062.125c.047.187.094.406.094.594 0 1.28-2.063 3.312-2.797 4.375L2.64-.281c.25-1.047.453-2.078.453-3.156 0-.922-.125-2.22-1.344-2.22C.983-5.657.53-5.094.171-4.5v.063l.062.078.063-.016c.281-.328.516-.547.953-.547 1.14 0 1.281 1.469 1.281 2.297 0 1-.11 1.984-.265 2.969-.563.687-1.094 1.812-1.407 2.625.032.11.094.203.141.297.25-.063.5-.157.734-.266.282-.813.579-1.734.735-2.563.703-.953 1.5-1.875 2.281-2.75.656-.718 1.734-1.906 1.734-2.921zm0 0" style="stroke:none"/></symbol></defs><path d="M490 551.602 130.586 89.492" style="fill:none;stroke-width:3.985;stroke-linecap:butt;stroke-linejoin:miter;stroke:#000;stroke-opacity:1;stroke-miterlimit:10" transform="matrix(.1 0 0 -.1 0 132)"/><path d="m15.656 119.71-1.176-.917-1.421 4.258 3.777-2.422z" style="stroke:none;fill-rule:nonzero;fill:#000;fill-opacity:1"/><path d="m156.563 122.89-11.758 9.18-14.22-42.578 37.774 24.219zm0 0" style="fill:none;stroke-width:3.985;stroke-linecap:butt;stroke-linejoin:miter;stroke:#000;stroke-opacity:1;stroke-miterlimit:10" transform="matrix(.1 0 0 -.1 0 132)"/><use xlink:href="#a" x="2.473" y="127.803" style="fill:#000;fill-opacity:1"/><path d="m490 551.602 917.5-131.055" style="fill:none;stroke-width:3.985;stroke-linecap:butt;stroke-linejoin:miter;stroke:#000;stroke-opacity:1;stroke-miterlimit:10" transform="matrix(.1 0 0 -.1 0 132)"/><path d="m132.953 88.832-.21 1.48 8.007-.367-7.586-2.593z" style="stroke:none;fill-rule:nonzero;fill:#000;fill-opacity:1"/><path d="m1329.531 431.68-2.11-14.805 80.079 3.672-75.86 25.937zm0 0" style="fill:none;stroke-width:3.985;stroke-linecap:butt;stroke-linejoin:miter;stroke:#000;stroke-opacity:1;stroke-miterlimit:10" transform="matrix(.1 0 0 -.1 0 132)"/><use xlink:href="#b" x="143.343" y="97.699" style="fill:#000;fill-opacity:1"/><path d="M490 551.602v619.53" style="fill:none;stroke-width:3.985;stroke-linecap:butt;stroke-linejoin:miter;stroke:#000;stroke-opacity:1;stroke-miterlimit:10" transform="matrix(.1 0 0 -.1 0 132)"/><path d="M49 22.313h1.496L49 14.886l-1.492 7.425H49" style="stroke:none;fill-rule:nonzero;fill:#000;fill-opacity:1"/><path d="M490 1096.875h14.96L490 1171.133l-14.922-74.258zm0 0" style="fill:none;stroke-width:3.985;stroke-linecap:butt;stroke-linejoin:miter;stroke:#000;stroke-opacity:1;stroke-miterlimit:10" transform="matrix(.1 0 0 -.1 0 132)"/><use xlink:href="#c" x="46.241" y="10.781" style="fill:#000;fill-opacity:1"/><path d="m11.414 103.66-2.05-41.2 2.206 2.602 1.922 40.715z" style="stroke:none;fill-rule:nonzero;fill:#575757;fill-opacity:1"/><path d="M114.14 283.398 93.634 695.391l22.07-26.016 19.219-407.148zm0 0" style="fill:none;stroke-width:3.985;stroke-linecap:butt;stroke-linejoin:miter;stroke:#000;stroke-opacity:1;stroke-miterlimit:10" transform="matrix(.1 0 0 -.1 0 132)"/><path d="M13.492 105.777 11.57 65.062l2.594 2.106 1.777 40.375z" style="stroke:none;fill-rule:nonzero;fill:#616161;fill-opacity:1"/><path d="m134.922 262.227-19.219 407.148 25.938-21.055 17.773-403.75zm0 0" style="fill:none;stroke-width:3.985;stroke-linecap:butt;stroke-linejoin:miter;stroke:#000;stroke-opacity:1;stroke-miterlimit:10" transform="matrix(.1 0 0 -.1 0 132)"/><path d="m15.941 107.543-1.777-40.375 2.98 1.566 1.622 40.192z" style="stroke:none;fill-rule:nonzero;fill:#6e6e6e;fill-opacity:1"/><path d="m159.414 244.57-17.773 403.75 29.804-15.664 16.211-401.914zm0 0" style="fill:none;stroke-width:3.985;stroke-linecap:butt;stroke-linejoin:miter;stroke:#000;stroke-opacity:1;stroke-miterlimit:10" transform="matrix(.1 0 0 -.1 0 132)"/><path d="m18.766 108.926-1.621-40.192 3.37 1.004 1.454 40.153z" style="stroke:none;fill-rule:nonzero;fill:#7d7d7d;fill-opacity:1"/><path d="m187.656 230.742-16.21 401.914 33.71-10.039 14.531-401.523zm0 0" style="fill:none;stroke-width:3.985;stroke-linecap:butt;stroke-linejoin:miter;stroke:#000;stroke-opacity:1;stroke-miterlimit:10" transform="matrix(.1 0 0 -.1 0 132)"/><path d="m21.969 109.89-1.453-40.152 3.754.422 1.265 40.27z" style="stroke:none;fill-rule:nonzero;fill:#8f8f8f;fill-opacity:1"/><path d="m219.688 221.094-14.532 401.523 37.54-4.219 12.656-402.695zm0 0" style="fill:none;stroke-width:3.985;stroke-linecap:butt;stroke-linejoin:miter;stroke:#000;stroke-opacity:1;stroke-miterlimit:10" transform="matrix(.1 0 0 -.1 0 132)"/><path d="M25.535 110.43 24.27 70.16l4.117-.172 1.062 40.54z" style="stroke:none;fill-rule:nonzero;fill:#a0a0a0;fill-opacity:1"/><path d="m255.352 215.703-12.657 402.695 41.172 1.72 10.625-405.391zm0 0" style="fill:none;stroke-width:3.985;stroke-linecap:butt;stroke-linejoin:miter;stroke:#000;stroke-opacity:1;stroke-miterlimit:10" transform="matrix(.1 0 0 -.1 0 132)"/><path d="m29.45 110.527-1.063-40.539 4.453-.75.84 40.957z" style="stroke:none;fill-rule:nonzero;fill:#aeaeae;fill-opacity:1"/><path d="m294.492 214.727-10.625 405.39 44.531 7.5 8.399-409.57zm0 0" style="fill:none;stroke-width:3.985;stroke-linecap:butt;stroke-linejoin:miter;stroke:#000;stroke-opacity:1;stroke-miterlimit:10" transform="matrix(.1 0 0 -.1 0 132)"/><path d="m33.68 110.195-.84-40.957 4.75-1.32.597 41.535z" style="stroke:none;fill-rule:nonzero;fill:#bababa;fill-opacity:1"/><path d="m336.797 218.047-8.399 409.57 47.5 13.203 5.977-415.351zm0 0" style="fill:none;stroke-width:3.985;stroke-linecap:butt;stroke-linejoin:miter;stroke:#000;stroke-opacity:1;stroke-miterlimit:10" transform="matrix(.1 0 0 -.1 0 132)"/><path d="m38.188 109.453-.598-41.535 5.004-1.856.343 42.262-4.75 1.13" style="stroke:none;fill-rule:nonzero;fill:#c4c4c4;fill-opacity:1"/><path d="m381.875 225.469-5.977 415.351 50.04 18.555 3.437-422.617zm0 0" style="fill:none;stroke-width:3.985;stroke-linecap:butt;stroke-linejoin:miter;stroke:#000;stroke-opacity:1;stroke-miterlimit:10" transform="matrix(.1 0 0 -.1 0 132)"/><path d="m42.938 108.324-.344-42.261 5.215-2.356.062 43.145-4.934 1.472" style="stroke:none;fill-rule:nonzero;fill:#cbcbcb;fill-opacity:1"/><path d="m429.375 236.758-3.438 422.617 52.149 23.555.625-431.446zm0 0" style="fill:none;stroke-width:3.985;stroke-linecap:butt;stroke-linejoin:miter;stroke:#000;stroke-opacity:1;stroke-miterlimit:10" transform="matrix(.1 0 0 -.1 0 132)"/><path d="m47.871 106.852-.062-43.145 5.375-2.805-.23 44.168z" style="stroke:none;fill-rule:nonzero;fill:#d0d0d0;fill-opacity:1"/><path d="m478.71 251.484-.624 431.446 53.75 28.047-2.305-441.68zm0 0" style="fill:none;stroke-width:3.985;stroke-linecap:butt;stroke-linejoin:miter;stroke:#000;stroke-opacity:1;stroke-miterlimit:10" transform="matrix(.1 0 0 -.1 0 132)"/><path d="m52.953 105.07.23-44.168 5.485-3.195-.547 45.328z" style="stroke:none;fill-rule:nonzero;fill:#d4d4d4;fill-opacity:1"/><path d="m529.531 269.297 2.305 441.68 54.844 31.953-5.47-453.282zm0 0" style="fill:none;stroke-width:3.985;stroke-linecap:butt;stroke-linejoin:miter;stroke:#000;stroke-opacity:1;stroke-miterlimit:10" transform="matrix(.1 0 0 -.1 0 132)"/><path d="m58.121 103.035.547-45.328 5.555-3.531-.883 46.62z" style="stroke:none;fill-rule:nonzero;fill:#d7d7d7;fill-opacity:1"/><path d="m581.21 289.648 5.47 453.282 55.547 35.312-8.829-466.21zm0 0" style="fill:none;stroke-width:3.985;stroke-linecap:butt;stroke-linejoin:miter;stroke:#000;stroke-opacity:1;stroke-miterlimit:10" transform="matrix(.1 0 0 -.1 0 132)"/><path d="m63.34 100.797.883-46.621 5.574-3.793-1.234 48.027z" style="stroke:none;fill-rule:nonzero;fill:#d9d9d9;fill-opacity:1"/><path d="m633.398 312.031 8.829 466.211 55.742 37.93-12.344-480.274zm0 0" style="fill:none;stroke-width:3.985;stroke-linecap:butt;stroke-linejoin:miter;stroke:#000;stroke-opacity:1;stroke-miterlimit:10" transform="matrix(.1 0 0 -.1 0 132)"/><path d="m68.563 98.41 1.234-48.027 5.558-3.988-1.609 49.535z" style="stroke:none;fill-rule:nonzero;fill:#dbdbdb;fill-opacity:1"/><path d="m685.625 335.898 12.344 480.274 55.586 39.883-16.094-495.352zm0 0" style="fill:none;stroke-width:3.985;stroke-linecap:butt;stroke-linejoin:miter;stroke:#000;stroke-opacity:1;stroke-miterlimit:10" transform="matrix(.1 0 0 -.1 0 132)"/><path d="m73.746 95.93 1.61-49.535 5.503-4.114-1.996 51.121z" style="stroke:none;fill-rule:nonzero;fill:#dcdcdc;fill-opacity:1"/><path d="m737.46 360.703 16.095 495.352 55.039 41.133-19.961-511.211zm0 0" style="fill:none;stroke-width:3.985;stroke-linecap:butt;stroke-linejoin:miter;stroke:#000;stroke-opacity:1;stroke-miterlimit:10" transform="matrix(.1 0 0 -.1 0 132)"/><path d="m78.863 93.402 1.996-51.12 5.418-4.15L83.88 90.88z" style="stroke:none;fill-rule:nonzero;fill:#dcdcdc;fill-opacity:1"/><path d="m788.633 385.977 19.96 511.21 54.18 41.485L838.79 411.21zm0 0" style="fill:none;stroke-width:3.985;stroke-linecap:butt;stroke-linejoin:miter;stroke:#000;stroke-opacity:1;stroke-miterlimit:10" transform="matrix(.1 0 0 -.1 0 132)"/><path d="m83.879 90.879 2.398-52.746 5.309-4.117-2.809 54.39z" style="stroke:none;fill-rule:nonzero;fill:#ddd;fill-opacity:1"/><path d="m838.79 411.21 23.983 527.462 53.086 41.172-28.086-543.907zm0 0" style="fill:none;stroke-width:3.985;stroke-linecap:butt;stroke-linejoin:miter;stroke:#000;stroke-opacity:1;stroke-miterlimit:10" transform="matrix(.1 0 0 -.1 0 132)"/><path d="m88.777 88.406 2.809-54.39 5.18-3.993-3.23 55.997z" style="stroke:none;fill-rule:nonzero;fill:#dcdcdc;fill-opacity:1"/><path d="m887.773 435.938 28.086 543.906 51.797 39.922-32.304-559.961zm0 0" style="fill:none;stroke-width:3.985;stroke-linecap:butt;stroke-linejoin:miter;stroke:#000;stroke-opacity:1;stroke-miterlimit:10" transform="matrix(.1 0 0 -.1 0 132)"/><path d="m93.535 86.02 3.23-55.997 5.032-3.785-3.652 57.516z" style="stroke:none;fill-rule:nonzero;fill:#dcdcdc;fill-opacity:1"/><path d="m935.352 459.805 32.304 559.96 50.313 37.852-36.524-575.156zm0 0" style="fill:none;stroke-width:3.985;stroke-linecap:butt;stroke-linejoin:miter;stroke:#000;stroke-opacity:1;stroke-miterlimit:10" transform="matrix(.1 0 0 -.1 0 132)"/><path d="m98.145 83.754 3.652-57.516 4.863-3.48-4.066 58.883-4.45 2.113" style="stroke:none;fill-rule:nonzero;fill:#dbdbdb;fill-opacity:1"/><path d="m981.445 482.46 36.524 575.157 48.633 34.805-40.665-588.828zm0 0" style="fill:none;stroke-width:3.985;stroke-linecap:butt;stroke-linejoin:miter;stroke:#000;stroke-opacity:1;stroke-miterlimit:10" transform="matrix(.1 0 0 -.1 0 132)"/><path d="m102.594 81.64 4.066-58.882 4.692-3.086-4.465 60.039-4.293 1.93" style="stroke:none;fill-rule:nonzero;fill:#d9d9d9;fill-opacity:1"/><path d="m1025.938 503.594 40.664 588.828 46.914 30.86-44.649-600.391zm0 0" style="fill:none;stroke-width:3.985;stroke-linecap:butt;stroke-linejoin:miter;stroke:#000;stroke-opacity:1;stroke-miterlimit:10" transform="matrix(.1 0 0 -.1 0 132)"/><path d="m106.887 79.71 4.465-60.038 4.507-2.594-4.84 60.91-4.132 1.723" style="stroke:none;fill-rule:nonzero;fill:#d6d6d6;fill-opacity:1"/><path d="m1068.867 522.89 44.649 600.391 45.078 25.938-48.399-609.102zm0 0" style="fill:none;stroke-width:3.985;stroke-linecap:butt;stroke-linejoin:miter;stroke:#000;stroke-opacity:1;stroke-miterlimit:10" transform="matrix(.1 0 0 -.1 0 132)"/><path d="m111.02 77.988 4.84-60.91 4.32-1.996-5.184 61.402z" style="stroke:none;fill-rule:nonzero;fill:#d3d3d3;fill-opacity:1"/><path d="m1110.195 540.117 48.399 609.102 43.203 19.96-51.836-614.023zm0 0" style="fill:none;stroke-width:3.985;stroke-linecap:butt;stroke-linejoin:miter;stroke:#000;stroke-opacity:1;stroke-miterlimit:10" transform="matrix(.1 0 0 -.1 0 132)"/><path d="m114.996 76.484 5.184-61.402 4.12-1.309-5.48 61.454z" style="stroke:none;fill-rule:nonzero;fill:#cfcfcf;fill-opacity:1"/><path d="m1149.96 555.156 51.837 614.024 41.21 13.086-54.804-614.532zm0 0" style="fill:none;stroke-width:3.985;stroke-linecap:butt;stroke-linejoin:miter;stroke:#000;stroke-opacity:1;stroke-miterlimit:10" transform="matrix(.1 0 0 -.1 0 132)"/><path d="m118.82 75.227 5.48-61.454 3.923-.52-5.72 60.966z" style="stroke:none;fill-rule:nonzero;fill:#cacaca;fill-opacity:1"/><path d="m1188.203 567.734 54.805 614.532 39.219 5.195-57.188-609.649zm0 0" style="fill:none;stroke-width:3.985;stroke-linecap:butt;stroke-linejoin:miter;stroke:#000;stroke-opacity:1;stroke-miterlimit:10" transform="matrix(.1 0 0 -.1 0 132)"/><path d="m122.504 74.219 5.719-60.965 3.718.344-5.882 59.882z" style="stroke:none;fill-rule:nonzero;fill:#c2c2c2;fill-opacity:1"/><path d="m1225.04 577.813 57.187 609.648 37.187-3.438-58.828-598.828zm0 0" style="fill:none;stroke-width:3.985;stroke-linecap:butt;stroke-linejoin:miter;stroke:#000;stroke-opacity:1;stroke-miterlimit:10" transform="matrix(.1 0 0 -.1 0 132)"/><path d="m126.059 73.48 5.882-59.882 3.516 1.28-5.96 58.138z" style="stroke:none;fill-rule:nonzero;fill:#b9b9b9;fill-opacity:1"/><path d="m1260.586 585.195 58.828 598.828 35.156-12.812-59.61-581.367zm0 0" style="fill:none;stroke-width:3.985;stroke-linecap:butt;stroke-linejoin:miter;stroke:#000;stroke-opacity:1;stroke-miterlimit:10" transform="matrix(.1 0 0 -.1 0 132)"/><path d="m129.496 73.016 5.961-58.137 3.313 2.254-5.946 55.703z" style="stroke:none;fill-rule:nonzero;fill:#acacac;fill-opacity:1"/><path d="m1294.96 589.844 59.61 581.367 33.125-22.54-59.453-557.03zm0 0" style="fill:none;stroke-width:3.985;stroke-linecap:butt;stroke-linejoin:miter;stroke:#000;stroke-opacity:1;stroke-miterlimit:10" transform="matrix(.1 0 0 -.1 0 132)"/><path d="m132.824 72.836 5.946-55.703 3.125 3.25-5.829 52.566z" style="stroke:none;fill-rule:nonzero;fill:#9d9d9d;fill-opacity:1"/><path d="m1328.242 591.64 59.453 557.032 31.25-32.5-58.28-525.664zm0 0" style="fill:none;stroke-width:3.985;stroke-linecap:butt;stroke-linejoin:miter;stroke:#000;stroke-opacity:1;stroke-miterlimit:10" transform="matrix(.1 0 0 -.1 0 132)"/><path d="m136.066 72.95 5.829-52.567 2.94 4.222-5.605 48.754z" style="stroke:none;fill-rule:nonzero;fill:#8c8c8c;fill-opacity:1"/><path d="m1360.664 590.508 58.281 525.664 29.414-42.227-56.054-487.539zm0 0" style="fill:none;stroke-width:3.985;stroke-linecap:butt;stroke-linejoin:miter;stroke:#000;stroke-opacity:1;stroke-miterlimit:10" transform="matrix(.1 0 0 -.1 0 132)"/><path d="m139.23 73.36 5.606-48.755 2.773 5.125-5.273 44.336z" style="stroke:none;fill-rule:nonzero;fill:#7b7b7b;fill-opacity:1"/><path d="m1392.305 586.406 56.054 487.54 27.735-51.25-52.735-443.36zm0 0" style="fill:none;stroke-width:3.985;stroke-linecap:butt;stroke-linejoin:miter;stroke:#000;stroke-opacity:1;stroke-miterlimit:10" transform="matrix(.1 0 0 -.1 0 132)"/><path d="m114.14 283.398 20.782-21.171 24.492-17.657 28.242-13.828 32.031-9.648 35.665-5.39 39.14-.977 42.305 3.32 45.078 7.422 47.5 11.289 49.336 14.726 50.82 17.813 51.68 20.351 52.187 22.383 52.227 23.867 51.836 24.805 51.172 25.274 50.156 25.234 48.984 24.726 47.579 23.868 46.093 22.656 44.492 21.133 42.93 19.297 41.328 17.226 39.766 15.04 38.242 12.577 36.836 10.078 35.547 7.383 34.375 4.649 33.281 1.797 32.422-1.133 31.64-4.102 31.055-7.07" style="fill:none;stroke-width:19.9255;stroke-linecap:butt;stroke-linejoin:miter;stroke:#000;stroke-opacity:1;stroke-miterlimit:10" transform="matrix(.1 0 0 -.1 0 132)"/><use xlink:href="#d" x="66.816" y="107.338" style="fill:#000;fill-opacity:1"/></svg>