<svg xmlns="http://www.w3.org/2000/svg" xmlns:xlink="http://www.w3.org/1999/xlink" width="209pt" height="137pt" viewBox="0 0 209 137"><defs><symbol id="a" overflow="visible"><path d="M6.016-2.406v-.578H.64v.578zm0 0" style="stroke:none"/></symbol><symbol id="b" overflow="visible"><path d="M6.063-4.656c-.688.015-1.391.047-2.094.047-.86 0-1.719-.032-2.563-.032-.656-.015-.781.766-.953 1.25v.079l.078.046.078-.046c.407-.626.641-.72 1.391-.72h.234C1.86-2.655 1.531-1.281.938.017l.078.109c.203-.063.546-.14.734-.25.375-1.281.625-2.61.875-3.906h2.281c-.547.86-.953 1.906-.953 2.953 0 .484.172 1.234.781 1.234.407 0 .922-.406 1.235-.672l.015-.046-.046-.094-.079-.016c-.171.11-.359.25-.609.25-.547 0-.61-.828-.61-1.234 0-.844.266-1.657.688-2.375l.61-.14c.03-.173.078-.329.125-.485zm0 0" style="stroke:none"/></symbol><symbol id="c" overflow="visible"><path d="M4.422-3.39c-.5.015-1.016.03-1.531.03-.625 0-1.25-.015-1.86-.03-.484 0-.578.562-.703.921v.047l.063.031.046-.015c.297-.469.485-.531 1.016-.531h.172c-.266 1-.5 2-.938 2.953l.047.078c.157-.047.407-.094.532-.188.28-.937.468-1.89.656-2.844h1.656c-.406.626-.687 1.391-.687 2.157 0 .36.125.89.562.89.297 0 .672-.296.906-.484v-.047l-.03-.062h-.063c-.11.078-.266.171-.438.171-.406 0-.437-.593-.437-.89 0-.625.187-1.219.484-1.734l.453-.094c.016-.125.063-.25.094-.36zm0 0" style="stroke:none"/></symbol><symbol id="d" overflow="visible"><path d="M3.406.016c-.015-.141-.015-.22-.015-.329 0-.093 0-.156.015-.312L.891-.562 2.203-1.97c.703-.734.922-1.14.922-1.687C3.125-4.484 2.562-5 1.641-5c-.516 0-.875.14-1.235.5l-.125.984H.5l.094-.328c.11-.422.375-.61.86-.61.624 0 1.03.407 1.03 1.016 0 .547-.312 1.079-1.14 1.954L.109-.172v.188C.656 0 1.203 0 1.734 0c.547 0 1.11 0 1.672.016m0 0" style="stroke:none"/></symbol><symbol id="e" overflow="visible"><path d="M4.64-3.656c0-2.172-.656-3.219-2.015-3.219-1.547 0-2.328 1.234-2.328 3.64 0 1.172.203 2.172.547 2.672.36.485.906.766 1.531.766 1.5 0 2.266-1.297 2.266-3.86zm-.843.5c0 2.125-.375 3-1.297 3-.969 0-1.375-1-1.375-3.438 0-2.094.375-2.922 1.313-2.922.968 0 1.359.97 1.359 3.36m0 0" style="stroke:none"/></symbol><symbol id="f" overflow="visible"><path d="M4.172.031v-.297l-.516-.03C3.094-.329 3-.439 3-.954v-5.922l-.14-.047c-.641.344-1.36.64-2.266.953l.078.438h.094c.437-.203.875-.407 1.312-.594.063 0 .078.094.078.328v4.844c0 .515-.11.625-.64.656l-.563.031V.03C1.5.016 2.047 0 2.61 0c.516 0 1.047.016 1.563.031zm0 0" style="stroke:none"/></symbol><symbol id="h" overflow="visible"><path d="M4.578-2.516c0-1.14-.812-1.937-1.953-1.937-.469 0-.828.14-1.453.5l.094-2.078 3.046.047.047-.047c-.015-.172-.015-.235-.015-.39 0-.157 0-.22.015-.391l-.046-.063s-1.063.063-1.735.063c-.687 0-1.734-.063-1.734-.063l-.063.063.031 1.359c0 .875-.03 1.797-.062 2.25l.203.047c.469-.469.735-.61 1.219-.61.953 0 1.562.688 1.562 1.766C3.734-.89 3.094-.25 2-.25 1.469-.25.969-.422.828-.688L.375-1.5l-.25.14c.234.563.36.876.5 1.313.266.156.672.25 1.094.25.672 0 1.375-.297 1.937-.766.594-.546.922-1.218.922-1.953m0 0" style="stroke:none"/></symbol><symbol id="g" overflow="visible"><path d="M1.828-.531c0-.297-.281-.578-.594-.578-.296 0-.562.28-.562.578s.265.578.547.578c.328 0 .61-.266.61-.578zm0 0" style="stroke:none"/></symbol></defs><path d="m280 1077.305 8.984-11.016 9.024-10.937 8.984-10.977 9.024-11.094 8.984-11.406 8.984-11.758 9.024-12.265 8.984-12.774 9.024-13.281 8.984-13.75 8.984-14.102 9.024-14.336 9.023-14.492 8.985-14.414L415 886.445l8.984-13.984 9.024-13.633 9.023-13.281 8.985-13.008L460 819.883l8.984-12.54 9.024-12.46 9.023-12.54 8.985-12.695L505 756.641l8.984-13.32 9.024-13.673 9.023-14.023 8.985-14.258 17.968-28.906 9.024-14.336 9.023-14.063 8.985-13.71L595 617.109l8.984-12.734 9.024-12.227 9.023-11.757 8.985-11.328L640 557.93l8.984-10.899 9.024-10.976 9.023-11.016 8.985-11.21L685 502.343l8.984-11.68 9.024-11.875 9.023-11.953 8.985-11.875L730 443.28l8.984-11.328 9.024-10.742 9.023-10.117 8.985-9.336 8.984-8.594 8.984-7.773 9.024-7.11 9.023-6.523 8.985-6.094 8.984-5.86 8.984-5.741 9.024-5.743 9.023-5.898 8.985-6.016 8.984-6.172 8.984-6.132 9.024-5.977 9.023-5.625 8.985-5.04L910 303.28l9.023-3.086 8.985-1.875 9.023-.507 8.985.859 8.984 2.226 9.023 3.438 8.985 4.453 9.023 5.156 8.985 5.703 8.984 5.938 9.023 6.016 8.985 5.937 9.023 5.938 8.985 5.976 8.984 6.367 9.023 7.149 8.985 8.437 9.023 10.39 8.985 12.93 8.984 16.212 9.023 20 8.985 24.335 9.023 29.063 8.985 33.828L1135 556.68l9.023 42.968 8.985 46.797 9.023 49.922 8.985 52.07 8.984 53.165 9.023 53.203 8.985 52.07 9.023 49.883 8.985 46.797 8.984 42.968 9.023 38.555 8.985 33.828 9.023 29.024 8.985 24.336 8.984 20.039 9.023 16.172 8.985 12.968 9.023 10.352 8.985 8.437 8.984 7.149 9.023 6.367 8.985 6.016 9.023 5.898 8.985 5.938 9.023 6.015 8.984 5.938 8.985 5.703 9.023 5.195 8.985 4.414 9.023 3.438 8.984 2.226 8.985.86 9.023-.508 8.985-1.836 9.023-3.125 8.984-4.18 8.985-5.039 9.023-5.625 8.985-5.976 9.023-6.133 8.984-6.172 8.985-6.016 9.023-5.898 8.985-5.742 9.023-5.743 8.984-5.82 8.985-6.133 9.023-6.523 8.985-7.11 9.023-7.773 8.984-8.555 8.985-9.375 9.023-10.117 8.985-10.742 9.023-11.328 8.984-11.68 8.985-11.875 9.023-11.953 8.985-11.875 9.023-11.68 8.984-11.445 8.985-11.25 9.023-11.016 8.985-10.937 9.023-10.977 8.984-11.054 8.985-11.368 9.023-11.757 8.985-12.227 9.023-12.734 8.984-13.242 8.985-13.711 9.023-14.063 8.985-14.336 9.023-14.453 8.984-14.414 8.985-14.297 9.023-13.984 8.985-13.711 9.023-13.32 8.984-12.97 8.985-12.734 9.023-12.539 8.985-12.46 9.023-12.5 8.984-12.696 8.985-12.969 9.023-13.32 8.985-13.633 9.023-13.984 8.984-14.258 8.985-14.414 9.023-14.453 8.985-14.336 9.023-14.14 8.984-13.712 8.985-13.32 9.023-12.734 8.985-12.266 9.023-11.797 8.984-11.406 8.985-11.094 9.023-10.937 8.985-10.938 9.023-11.015" style="fill:none;stroke-width:3.985;stroke-linecap:butt;stroke-linejoin:miter;stroke:#e5e5e5;stroke-opacity:1;stroke-miterlimit:10" transform="matrix(.1 0 0 -.1 0 137)"/><path d="m280 1081.523 8.984-13.242 9.024-13.36 8.984-13.359 9.024-13.203 8.984-13.007 8.984-12.696 9.024-12.46 8.984-12.188 9.024-11.953L370 954.18l8.984-11.797 9.024-11.914 9.023-12.11 8.985-12.382L415 893.203l8.984-13.164 9.024-13.633 9.023-14.023 8.985-14.375L460 823.32l8.984-14.843 9.024-14.922 9.023-14.844 8.985-14.649L505 749.688l8.984-13.984 9.024-13.594 9.023-13.125 8.985-12.734L550 683.867l8.984-12.07 9.024-11.914 9.023-11.797 8.985-11.875L595 624.258l8.984-12.227 9.024-12.46 9.023-12.735 8.985-13.008L640 560.586l8.984-13.36 9.024-13.32 9.023-13.242 8.985-13.008L685 495.078l8.984-12.07 9.024-11.485 9.023-10.82 8.985-10.156 8.984-9.492 8.984-8.868 9.024-8.359 9.023-7.969 8.985-7.695 8.984-7.578 8.984-7.54 9.024-7.655 9.023-7.774 8.985-7.93 8.984-8.085 8.984-8.204 9.024-8.125 9.023-7.93 8.985-7.577 8.984-7.032 8.984-6.25 9.024-5.312 9.023-4.258 8.985-3.086 8.984-1.875 9.023-.664 8.985.469 9.023 1.484 8.985 2.305 8.984 2.969 9.023 3.359 8.985 3.633 9.023 3.71 8.985 3.673 8.984 3.593 9.023 3.555 8.985 3.672 9.023 4.023 8.985 4.688 8.984 5.742 9.023 7.344 8.985 9.375 9.023 11.953 8.985 15.039 8.984 18.594 9.023 22.46 8.985 26.602 9.023 30.82 8.985 35 8.984 39.024 9.023 42.617 8.985 45.742 9.023 48.203 8.985 49.922 8.984 50.743 9.023 50.78 8.985 49.884 9.023 48.203 8.985 45.742 8.984 42.617 9.023 39.024 8.985 35.039 9.023 30.82 8.985 26.562 8.984 22.461 9.023 18.594 8.985 15.04 9.023 11.991 8.985 9.336 8.984 7.344 9.023 5.742 8.985 4.727 9.023 3.984 8.985 3.672 9.023 3.555 8.984 3.593 8.985 3.672 9.023 3.711 8.985 3.633 9.023 3.399 8.984 2.93 8.985 2.343 9.023 1.445 8.985.47 9.023-.665 8.984-1.875 8.985-3.086 9.023-4.258 8.985-5.312 9.023-6.25 8.984-7.032 8.985-7.539 9.023-7.968 8.985-8.125 9.023-8.164 8.984-8.125 8.985-7.93 9.023-7.774 8.985-7.656 9.023-7.539 8.984-7.539 8.985-7.734 9.023-7.93 8.985-8.398 9.023-8.868 8.984-9.492 8.985-10.117 9.023-10.82 8.985-11.524 9.023-12.07 8.984-12.578 8.985-12.969 9.023-13.242 8.985-13.36 9.023-13.359 8.984-13.203 8.985-13.008 9.023-12.773 8.985-12.461 9.023-12.188 8.984-11.992 8.985-11.875 9.023-11.797 8.985-11.914 9.023-12.07 8.984-12.383 8.985-12.695 9.023-13.164 8.985-13.555 9.023-14.023 8.984-14.375 8.985-14.649 9.023-14.844 8.985-14.921 9.023-14.844 8.984-14.649 8.985-14.414 9.023-14.023 8.985-13.594 9.023-13.203 8.984-12.734 8.985-12.422 9.023-12.11 8.985-11.875 9.023-11.836 8.984-11.836 8.985-11.992 9.023-12.187 8.985-12.422 9.023-12.734 8.984-13.008 8.985-13.203 9.023-13.32 8.985-13.36 9.023-13.281" style="fill:none;stroke-width:3.985;stroke-linecap:butt;stroke-linejoin:miter;stroke:#d8d8d8;stroke-opacity:1;stroke-miterlimit:10" transform="matrix(.1 0 0 -.1 0 137)"/><path d="m280 1084.219 8.984-10.664 9.024-11.211 8.984-11.797 9.024-12.344 8.984-12.89 8.984-13.399 9.024-13.828 8.984-14.18 9.024-14.453 8.984-14.57 8.984-14.61 9.024-14.57 9.023-14.336 8.985-14.101 8.984-13.79 8.984-13.437 9.024-13.125 9.023-12.773 8.985-12.54L460 819.337l8.984-12.149 9.024-12.109 9.023-12.187 8.985-12.305 8.984-12.5 8.984-12.813 9.024-13.125 9.023-13.476 8.985-13.828 8.984-14.14 8.984-14.376 9.024-14.531 9.023-14.61 8.985-14.57L595 618.164l8.984-14.18 9.024-13.789 9.023-13.36 8.985-12.85L640 551.68l8.984-11.72 9.024-11.17 9.023-10.665 8.985-10.195 8.984-9.805 8.984-9.57 9.024-9.414 9.023-9.297 8.985-9.375 8.984-9.492 8.984-9.649 9.024-9.844 9.023-10.039 8.985-10.234L775 400.937l8.984-10.351 9.024-10.195 9.023-10 8.985-9.57 8.984-9.024 8.984-8.36 9.024-7.539 9.023-6.64 8.985-5.625 8.984-4.57 8.984-3.516 9.024-2.54 9.023-1.6 8.985-.782 8.984-.117 9.023.469 8.985.82 9.023 1.015L955 315.079l9.023 1.055 8.985.937 9.023.938 8.985.937 8.984 1.211 9.023 1.68 8.985 2.383 9.023 3.476 8.985 4.961 8.984 6.797 9.023 9.024 8.985 11.601 9.023 14.61 8.985 17.812 8.984 21.328 9.023 24.922 8.985 28.633 9.023 32.226 8.985 35.704 8.984 38.945 9.023 41.758 8.985 44.18 9.023 46.093 8.985 47.305 8.984 48.008 9.023 48.007 8.985 47.344 9.023 46.055 8.985 44.18 8.984 41.796 9.023 38.907 8.985 35.703 9.023 32.265 8.985 28.594 8.984 24.961 9.023 21.29 8.985 17.85 9.023 14.571 8.985 11.64 8.984 9.024 9.023 6.758 8.985 4.96 9.023 3.477 8.985 2.422 9.023 1.64 8.984 1.212 8.985.976 9.023.899 8.985.976 9.023 1.016 17.969 2.266 9.023 1.054 8.985.82 9.023.43 8.984-.117 8.985-.781 9.023-1.602 8.985-2.539 9.023-3.515 8.984-4.57 8.985-5.626 9.023-6.601 8.985-7.54 9.023-8.359 8.984-9.062 8.985-9.57 9.023-9.961 8.985-10.235 9.023-10.312 8.984-10.313 8.985-10.234 9.023-10.04 8.985-9.843 9.023-9.648 8.984-9.454 8.985-9.375 9.023-9.335 8.985-9.415 9.023-9.53 8.984-9.845 8.985-10.195 9.023-10.664 8.985-11.172 9.023-11.719 8.984-12.304 8.985-12.852 9.023-13.36 8.985-13.788 9.023-14.18 8.984-14.414 8.985-14.61 9.023-14.609 8.985-14.531 9.023-14.375 8.984-14.102 8.985-13.828 9.023-13.515 8.985-13.125 9.023-12.774 8.984-12.539 8.985-12.304 9.023-12.188 8.985-12.07 9.023-12.188 8.984-12.265 8.985-12.54 9.023-12.773 8.985-13.086 9.023-13.476 8.984-13.79 8.985-14.101 9.023-14.336 8.985-14.531 9.023-14.61 8.984-14.57 8.985-14.453 9.023-14.219 8.985-13.828 9.023-13.398 8.984-12.891 8.985-12.344 9.023-11.758 8.985-11.21 9.023-10.704" style="fill:none;stroke-width:3.985;stroke-linecap:butt;stroke-linejoin:miter;stroke:#ccc;stroke-opacity:1;stroke-miterlimit:10" transform="matrix(.1 0 0 -.1 0 137)"/><path d="m280 1071.875 8.984-11.719 9.024-11.445 8.984-11.25 9.024-11.055L325 1015.47l8.984-10.899 9.024-10.898 8.984-10.977 9.024-11.21L370 960.077l8.984-11.758 9.024-12.148 9.023-12.578 8.985-13.008L415 897.109l8.984-13.906 9.024-14.336 9.023-14.687 8.985-14.961L460 824.023l8.984-15.351 18.047-30.703 8.985-15.196L505 747.852l8.984-14.688 9.024-14.258 9.023-13.867 8.985-13.437L550 678.594l8.984-12.5 9.024-12.149 9.023-11.718 8.985-11.407L595 619.648l8.984-10.976 18.047-21.797 8.985-10.938L640 564.845l8.984-11.25 9.024-11.485 9.023-11.718 8.985-11.993L685 506.172l8.984-12.383 9.024-12.539 9.023-12.617 8.985-12.54 8.984-12.42 8.984-12.188 9.024-11.796 9.023-11.329 8.985-10.742L775 387.54l8.984-9.297 9.024-8.515 9.023-7.618 8.985-6.796 8.984-5.899 8.984-5.117 9.024-4.336 9.023-3.633 8.985-3.047 8.984-2.539 8.984-2.187 9.024-1.953 9.023-1.758L910 321.328l9.023-1.836 8.985-1.953 9.023-2.031 8.985-2.149 8.984-2.07 9.023-1.992 8.985-1.64 9.023-1.173 8.985-.43 8.984.509 9.023 1.796 8.985 3.282 9.023 5.078 8.985 7.187 8.984 9.492 9.023 12.11 8.985 14.883 9.023 17.812 8.985 20.86 8.984 23.984 9.023 27.031 8.985 30.117 9.023 32.97 8.985 35.663 8.984 38.125 9.023 40.235 8.985 41.992 9.023 43.398 8.985 44.258 8.984 44.766 9.023 44.765 8.985 44.297 9.023 43.36 8.985 41.992 8.984 40.234 9.023 38.125 8.985 35.664 9.023 33.008 8.985 30.078 8.984 27.07 9.023 23.946 8.985 20.898 9.023 17.774 8.985 14.882 8.984 12.11 9.023 9.53 8.985 7.15 9.023 5.078 8.985 3.32 9.023 1.758 8.984.507 8.985-.43 9.023-1.171 8.985-1.64 9.023-1.954 17.969-4.219 9.023-2.07 8.985-1.953 9.023-1.836 8.984-1.758 8.985-1.719 9.023-1.796 8.985-1.954 9.023-2.148 8.984-2.578 8.985-3.047 9.023-3.633 8.985-4.336 9.023-5.078 8.984-5.937 8.985-6.758 9.023-7.656 8.985-8.516 9.023-9.297 8.984-10.078 8.985-10.742 9.023-11.328 8.985-11.797 9.023-12.188 8.984-12.422 8.985-12.539 9.023-12.617 8.985-12.5 9.023-12.422 8.984-12.226 8.985-11.993 9.023-11.718 8.985-11.485 9.023-11.25 8.984-11.093 8.985-10.938 9.023-10.86 8.985-10.898 9.023-11.015 8.984-11.172 8.985-11.406 9.023-11.72 8.985-12.109 9.023-12.539 8.984-12.968 8.985-13.438 9.023-13.867 8.985-14.297 9.023-14.648 8.984-14.961 8.985-15.196 9.023-15.312 8.985-15.39 9.023-15.352 8.984-15.196 8.985-14.96 9.023-14.688 8.985-14.297 9.023-13.945 8.984-13.438 8.985-13.008 9.023-12.578 8.985-12.148 9.023-11.758 8.984-11.445 8.985-11.172 9.023-11.016 8.985-10.898 9.023-10.899 8.984-10.937 8.985-11.055 9.023-11.21 8.985-11.485 9.023-11.719" style="fill:none;stroke-width:3.985;stroke-linecap:butt;stroke-linejoin:miter;stroke:#bfbfbf;stroke-opacity:1;stroke-miterlimit:10" transform="matrix(.1 0 0 -.1 0 137)"/><path d="m280 1089.805 8.984-13.672 9.024-14.024 8.984-14.375 9.024-14.609 8.984-14.727 8.984-14.765 9.024-14.805 8.984-14.687 9.024-14.493L370 945.312l8.984-14.023 9.024-13.75 9.023-13.437 8.985-13.086L415 878.242l8.984-12.46 9.024-12.188 9.023-11.953 8.985-11.72L460 818.36l8.984-11.484 9.024-11.445 9.023-11.485 8.985-11.601 8.984-11.72 8.984-11.953 9.024-12.188 9.023-12.5 8.985-12.812L550 698.047l8.984-13.438 9.024-13.75 9.023-14.101 8.985-14.336L595 627.89l8.984-14.688 9.024-14.765 9.023-14.805 8.985-14.727 8.984-14.57L648.984 540l9.024-14.023 9.023-13.633 8.985-13.164L685 486.562l8.984-12.03 9.024-11.407 9.023-10.742 8.985-10.04 8.984-9.335 8.984-8.711 9.024-8.008 9.023-7.422 8.985-6.875 8.984-6.367 8.984-5.898 9.024-5.586 9.023-5.274 8.985-5.078 8.984-4.96 8.984-4.923 9.024-4.922 9.023-5 8.985-5.117 8.984-5.234 8.984-5.39 9.024-5.509 9.023-5.586 8.985-5.664L910 315.86l9.023-5.468 8.985-5.235 9.023-4.844 8.985-4.296 8.984-3.594 9.023-2.656 8.985-1.641 9.023-.313 8.985 1.133 8.984 2.774 9.023 4.61 8.985 6.6 9.023 8.75 8.985 11.055 8.984 13.438 9.023 15.937 8.985 18.399 9.023 20.937 8.985 23.477 8.984 25.976 9.023 28.32 8.985 30.587 9.023 32.734 8.985 34.61 8.984 36.328 9.023 37.812 8.985 38.984 9.023 39.922 8.985 40.547 8.984 40.86 9.023 40.859 8.985 40.547 9.023 39.922 8.985 38.984 8.984 37.813 9.023 36.328 8.985 34.648 9.023 32.695 8.985 30.586 8.984 28.32 9.023 25.977 8.985 23.477 9.023 20.937 8.985 18.438 8.984 15.898 9.023 13.438 8.985 11.015 9.023 8.79 8.985 6.601 9.023 4.61 8.984 2.812 8.985 1.094 9.023-.313 8.985-1.601 9.023-2.696 8.984-3.593 8.985-4.297 9.023-4.844 8.985-5.195 9.023-5.508 8.984-5.586 8.985-5.664 9.023-5.586 8.985-5.547 9.023-5.39 8.984-5.235 8.985-5.117 9.023-5 8.985-4.922 9.023-4.922 8.984-4.96 8.985-5.08 9.023-5.273 8.985-5.546 9.023-5.938 8.984-6.367 8.985-6.836 9.023-7.422 8.985-8.047 9.023-8.672 8.984-9.375 8.985-10.039 9.023-10.742 8.985-11.367 9.023-12.031 8.984-12.657 8.985-13.125 9.023-13.632 8.985-14.024 9.023-14.336 8.984-14.61 8.985-14.726 9.023-14.765 8.985-14.766 9.023-14.726 8.984-14.532 8.985-14.336 9.023-14.062 8.985-13.79 9.023-13.437 8.984-13.125 8.985-12.773 9.023-12.5 8.985-12.188 9.023-11.953 8.984-11.719 8.985-11.601 9.023-11.524 8.985-11.445 9.023-11.484 8.984-11.563 8.985-11.718 9.023-11.954 8.985-12.148 9.023-12.461 8.984-12.773 8.985-13.125 9.023-13.399 8.985-13.75 9.023-14.062 8.984-14.297 8.985-14.532 9.023-14.687 8.985-14.766 9.023-14.804 8.984-14.727 8.985-14.61 9.023-14.335 8.985-14.063 9.023-13.672" style="fill:none;stroke-width:3.985;stroke-linecap:butt;stroke-linejoin:miter;stroke:#b2b2b2;stroke-opacity:1;stroke-miterlimit:10" transform="matrix(.1 0 0 -.1 0 137)"/><path d="m280 1080.977 8.984-8.868 9.024-9.14 8.984-9.492 9.024-9.883L325 1033.32l8.984-10.703 9.024-11.172 8.984-11.68 9.024-12.148L370 974.961l8.984-13.164 9.024-13.633 9.023-14.101 8.985-14.532L415 904.61l8.984-15.312 9.024-15.625 9.023-15.86 8.985-16.093L460 825.47l8.984-16.328 9.024-16.368 9.023-16.328 8.985-16.21L505 744.14l8.984-15.86 9.024-15.586 9.023-15.273 8.985-14.883 8.984-14.53 8.984-14.063 9.024-13.593 9.023-13.125 8.985-12.618L595 602.5l8.984-11.602 9.024-11.171 9.023-10.664 8.985-10.274 8.984-9.805 8.984-9.453 9.024-9.14 9.023-8.868 8.985-8.593 8.984-8.438 8.984-8.281 18.047-16.406 8.985-8.203 8.984-8.243 8.984-8.398 9.024-8.477 9.023-8.632 8.985-8.829L775 420l8.984-9.219 9.024-9.375 9.023-9.531 8.985-9.688 17.968-19.609 9.024-9.805 9.023-9.687 8.985-9.531 8.984-9.297 8.984-8.906 9.024-8.477 9.023-7.93 8.985-7.226 8.984-6.406 9.023-5.547 8.985-4.493 9.023-3.32 8.985-2.031 8.984-.703 9.023.82 8.985 2.383 9.023 4.062 8.985 5.82 8.984 7.618 9.023 9.531 8.985 11.445 9.023 13.36 8.985 15.351 8.984 17.305 9.023 19.219 8.985 21.172 9.023 22.968 8.985 24.805 8.984 26.485 9.023 28.085 8.985 29.57 9.023 30.938 8.985 32.11 8.984 33.203 9.023 34.14 8.985 34.844 9.023 35.39 8.985 35.782 8.984 35.977 9.023 35.976 8.985 35.781 9.023 35.43 8.985 34.844 8.984 34.101 9.023 33.203 8.985 32.149 9.023 30.898 8.985 29.61 8.984 28.047 9.023 26.484 8.985 24.766 9.023 23.046 8.985 21.133 8.984 19.22 9.023 17.304 8.985 15.351 9.023 13.399 8.985 11.445 9.023 9.492 8.984 7.657 8.985 5.82 9.023 4.023 8.985 2.422 9.023.781 8.984-.664 8.985-2.07 9.023-3.32 8.985-4.493 9.023-5.507 8.984-6.446 8.985-7.226 9.023-7.89 8.985-8.477 9.023-8.946 8.984-9.257 8.985-9.57 9.023-9.688 8.985-9.805 9.023-9.805 8.984-9.765 8.985-9.688 9.023-9.531 8.985-9.414 9.023-9.219 8.984-8.984 8.985-8.828 9.023-8.672 8.985-8.477 9.023-8.36 8.984-8.28 8.985-8.204 9.023-8.164 8.985-8.242 9.023-8.281 8.984-8.438 8.985-8.593 9.023-8.868 8.985-9.101 9.023-9.453 8.984-9.844 8.985-10.273 9.023-10.664 8.985-11.133 9.023-11.64 8.984-12.11 8.985-12.617 9.023-13.125 8.985-13.594 9.023-14.063 8.984-14.492 8.985-14.922 9.023-15.273 8.985-15.586 9.023-15.86 8.984-16.054 8.985-16.25 9.023-16.328 8.985-16.367 9.023-16.329 8.984-16.21 8.985-16.133 9.023-15.86 8.985-15.586 9.023-15.312 8.984-14.961 8.985-14.531 9.023-14.063 8.985-13.633 9.023-13.164 8.984-12.656 8.985-12.188 9.023-11.64 8.985-11.211 9.023-10.703 8.984-10.274 8.985-9.882 9.023-9.454 8.985-9.18 9.023-8.866" style="fill:none;stroke-width:3.985;stroke-linecap:butt;stroke-linejoin:miter;stroke:#a5a5a5;stroke-opacity:1;stroke-miterlimit:10" transform="matrix(.1 0 0 -.1 0 137)"/><path d="m280 1051.719 8.984-14.18 9.024-13.945 8.984-13.711 9.024-13.477L325 983.203l8.984-12.93 9.024-12.656 8.984-12.344 9.024-12.07L370 921.445l8.984-11.484 9.024-11.25 9.023-10.977 8.985-10.78L415 866.405l8.984-10.351 9.024-10.196 9.023-10.039 8.985-9.96 8.984-9.883 8.984-9.844 9.024-9.805 9.023-9.844L505 766.641l8.984-10.078 9.024-10.235 9.023-10.351 8.985-10.586L550 714.648l8.984-11.015 9.024-11.25 9.023-11.524 8.985-11.836 8.984-12.07 8.984-12.344 9.024-12.695 9.023-12.93 8.985-13.203L640 592.266l8.984-13.75 9.024-13.946 9.023-14.218 8.985-14.336L685 521.484l8.984-14.609 9.024-14.688 9.023-14.726 8.985-14.727L730 448.086l8.984-14.492 9.024-14.375 9.023-14.102 8.985-13.828L775 377.852l8.984-13.047 9.024-12.578 9.023-12.032 8.985-11.406L820 318.086l8.984-10 9.024-9.219 9.023-8.32 8.985-7.422 8.984-6.406 8.984-5.39 9.024-4.298 9.023-3.125 8.985-1.992 8.984-.742 9.023.43 8.985 1.875 9.023 3.125 8.985 4.492 8.984 5.82 9.023 7.227 8.985 8.593 9.023 9.961 8.985 11.368 8.984 12.695 9.023 14.101 8.985 15.352 9.023 16.68 8.985 17.968 8.984 19.18 9.023 20.352 8.985 21.445 9.023 22.539 8.985 23.555 8.984 24.453 9.023 25.351 8.985 26.172 9.023 26.836 8.985 27.5L1135 656.29l9.023 28.516 8.985 28.867 9.023 29.14 8.985 29.336 8.984 29.454 9.023 29.453 8.985 29.336 9.023 29.18 8.985 28.866 8.984 28.477 9.023 28.047 8.985 27.5 9.023 26.875 8.985 26.133 8.984 25.351 9.023 24.493 8.985 23.515 9.023 22.54 8.985 21.484 8.984 20.351 9.023 19.14 8.985 17.97 9.023 16.68 8.985 15.39 9.023 14.062 8.984 12.696 8.985 11.367 9.023 10 8.985 8.554 9.023 7.227 8.984 5.86 8.985 4.453 9.023 3.164 8.985 1.796 9.023.508 8.984-.78 8.985-1.954 9.023-3.164 8.985-4.297 9.023-5.39 8.984-6.407 8.985-7.422 9.023-8.32 8.985-9.18 9.023-10 8.984-10.742 8.985-11.406 9.023-12.031 8.985-12.54 9.023-13.046 8.984-13.477 8.985-13.828 9.023-14.102 8.985-14.336 9.023-14.53 8.984-14.65 8.985-14.726 9.023-14.687 8.985-14.727 9.023-14.61 8.984-14.491 8.985-14.375 9.023-14.18 8.985-13.985 9.023-13.75 8.984-13.476 8.985-13.242 9.023-12.93 8.985-12.656 9.023-12.383 8.984-12.07 8.985-11.797 9.023-11.524 8.985-11.25 9.023-11.015 8.984-10.782 8.985-10.546 9.023-10.391 8.985-10.234 9.023-10.04 8.984-9.96 8.985-9.883 9.023-9.844 8.985-9.805 9.023-9.843 8.984-9.883 8.985-9.961 9.023-10.078 8.985-10.196 9.023-10.351 8.984-10.547 8.985-10.742 9.023-10.977 8.985-11.25 9.023-11.484 8.984-11.797 8.985-12.07 9.023-12.344 8.985-12.656 9.023-12.89 8.984-13.204 8.985-13.477 9.023-13.71 8.985-13.985 9.023-14.18" style="fill:none;stroke-width:3.985;stroke-linecap:butt;stroke-linejoin:miter;stroke:#999;stroke-opacity:1;stroke-miterlimit:10" transform="matrix(.1 0 0 -.1 0 137)"/><path d="m280 1173.125 8.984-13.125 9.024-13.672 8.984-14.297 9.024-14.765 8.984-15.274 8.984-15.781 9.024-16.25 8.984-16.602 9.024-17.07 8.984-17.422 8.984-17.812 9.024-18.086 9.023-18.399 8.985-18.633L415 927.07l8.984-19.101 9.024-19.258 9.023-19.375 8.985-19.492 8.984-19.57 8.984-19.649 18.047-39.219 8.985-19.57L505 732.344l8.984-19.414 9.024-19.22 9.023-19.062 8.985-18.867L550 637.148l8.984-18.359 9.024-18.086 9.023-17.734 8.985-17.422L595 548.555l8.984-16.64 9.024-16.173L622.03 500l8.985-15.234L640 470l8.984-14.18 9.024-13.672 9.023-13.086 8.985-12.5L685 404.688l8.984-11.21 9.024-10.586 9.023-9.922 8.985-9.219 8.984-8.555 8.984-7.773 9.024-7.11 9.023-6.328 8.985-5.586 8.984-4.882 8.984-4.063 9.024-3.32 9.023-2.5 8.985-1.758 8.984-.977 8.984-.195 9.024.625 9.023 1.367 8.985 2.188 8.984 2.969 8.984 3.71 9.024 4.493 9.023 5.234 8.985 6.016 8.984 6.757 9.023 7.461 8.985 8.204 9.023 8.906 8.985 9.61L955 388.515l9.023 10.937 8.985 11.602 9.023 12.187 8.985 12.813 8.984 13.398 9.023 13.945 8.985 14.493 9.023 15.039 8.985 15.507 8.984 15.977 9.023 16.445 8.985 16.836 9.023 17.227 8.985 17.578 8.984 17.93 9.023 18.242 8.985 18.515 9.023 18.75 8.985 18.985 8.984 19.14 9.023 19.336 8.985 19.454 9.023 19.53 8.985 19.571 8.984 19.649 9.023 19.648 8.985 19.61 9.023 19.53 8.985 19.415L1225 899.14l9.023 19.14 8.985 18.985 9.023 18.75 8.985 18.554 8.984 18.203 9.023 17.93 8.985 17.578 9.023 17.266 8.985 16.836 8.984 16.406 9.023 15.977 8.985 15.507 9.023 15.04 8.985 14.492 9.023 13.984 8.984 13.36 8.985 12.812 9.023 12.226 8.985 11.563 9.023 10.938 8.984 10.273 8.985 9.61 9.023 8.906 8.985 8.203 9.023 7.46 8.984 6.758 8.985 6.016 9.023 5.274 8.985 4.453 9.023 3.75 8.984 2.93 8.985 2.187 9.023 1.367 8.985.625 9.023-.195 8.984-.938 8.985-1.758 9.023-2.539 8.985-3.32 9.023-4.063 8.984-4.843 8.985-5.625 9.023-6.328 8.985-7.07 9.023-7.813 8.984-8.555 8.985-9.219 9.023-9.921 8.985-10.586 9.023-11.211 8.984-11.875 8.985-12.5 9.023-13.086 8.985-13.633 9.023-14.219 8.984-14.726 8.985-15.274 9.023-15.742 8.985-16.172 9.023-16.601 8.984-17.032 8.985-17.422 9.023-17.734 8.985-18.086 9.023-18.36 8.984-18.632 8.985-18.867 9.023-19.063 8.985-19.219 9.023-19.375 8.984-19.492 8.985-19.57 9.023-19.61 8.985-19.648 9.023-19.648 17.969-39.063 9.023-19.375 8.985-19.258 9.023-19.101 8.984-18.867 8.985-18.633 9.023-18.399 8.985-18.086 9.023-17.773 8.984-17.422 8.985-17.07 9.023-16.64 8.985-16.25 9.023-15.743 8.984-15.313 8.985-14.765 9.023-14.258 8.985-13.71 9.023-13.126" style="fill:none;stroke-width:3.985;stroke-linecap:butt;stroke-linejoin:miter;stroke:#8c8c8c;stroke-opacity:1;stroke-miterlimit:10" transform="matrix(.1 0 0 -.1 0 137)"/><path d="m280 1080.469 8.984-11.719 9.024-12.07 8.984-12.227 9.024-12.187 8.984-12.579 8.984-12.5 9.024-12.734 8.984-12.93 9.024-12.812 17.968-26.25 9.024-13.164 9.023-13.399 8.985-13.242L415 889.18l8.984-13.516 9.024-13.398 9.023-13.672 8.985-13.516L460 821.484l8.984-13.672 9.024-13.476 9.023-13.711L505 753.515l8.984-13.632 9.024-13.399 9.023-13.554 8.985-13.399L550 686.25l8.984-13.398 18.047-26.25 8.985-13.125L595 620.664l8.984-12.93 9.024-12.695 9.023-12.5 8.985-12.578L640 557.773l8.984-12.226 9.024-11.992 9.023-11.72 8.985-11.757L685 498.711l8.984-11.25 9.024-11.133 9.023-10.664 8.985-10.742L730 444.648l8.984-10.039 9.024-9.96 9.023-9.415 8.985-9.336 8.984-9.023 8.984-8.516 9.024-8.515 9.023-7.852 8.985-7.695 8.984-7.344 8.984-6.719 9.024-6.68 9.023-6.015 8.985-5.586 8.984-5.39 8.984-4.532 9.024-4.375 9.023-3.789 8.985-3.047 8.984-2.89 9.023-1.914 8.985-1.524 9.023-1.015 8.985.039 8.984.234 9.023 1.29 8.985 2.03 9.023 2.5 8.985 3.868 8.984 4.257 9.023 5.352 8.985 6.601 9.023 7.032 8.985 8.867 8.984 9.61 9.023 10.78 8.985 12.774 9.023 13.32 8.985 15.703 8.984 17.344 9.023 18.555 8.985 22.031 9.023 23.164 8.985 26.563 8.984 30.507 9.023 32.383 8.985 40.274 9.023 44.258 8.985 55.195 8.984 83.594 9.023 83.593 8.985 55.196 9.023 44.257 8.985 40.274 8.984 32.422 9.023 30.43 8.985 26.64 9.023 23.125 8.985 22.031 8.984 18.594 9.023 17.305 8.985 15.703 9.023 13.32 8.985 12.813 8.984 10.78 9.023 9.61 8.985 8.828 9.023 7.032 8.985 6.601 9.023 5.39 8.984 4.259 8.985 3.867 9.023 2.46 8.985 2.032 9.023 1.29 8.984.273h8.985l9.023-1.016 8.985-1.484 9.023-1.954 8.984-2.89 8.985-3.047 9.023-3.79 8.985-4.374 9.023-4.531 8.984-5.391 8.985-5.586 9.023-6.016 8.985-6.64 9.023-6.719 8.984-7.383 8.985-7.695 9.023-7.852 8.985-8.476 9.023-8.555 8.984-8.984 8.985-9.336 9.023-9.414 8.985-10 9.023-10 8.984-10.313 8.985-10.703 9.023-10.703 8.985-11.094 9.023-11.289 8.984-11.328 8.985-11.797 9.023-11.68 8.985-12.03 9.023-12.227 8.984-12.149 8.985-12.578 9.023-12.539 8.985-12.656 9.023-12.93 8.984-12.812 8.985-13.125 9.023-13.125 8.985-13.125 9.023-13.438 8.984-13.242 8.985-13.438 9.023-13.554 8.985-13.36 9.023-13.672 8.984-13.515 8.985-13.555 9.023-13.71 8.985-13.516 9.023-13.672 8.984-13.594 8.985-13.516 9.023-13.672 8.985-13.398 9.023-13.516 8.984-13.437 8.985-13.281 9.023-13.399 8.985-13.164 9.023-13.086 8.984-13.164 8.985-12.812 9.023-12.93 8.985-12.695 9.023-12.54 8.984-12.577 8.985-12.188 9.023-12.227 8.985-12.03 9.023-11.72" style="fill:none;stroke-width:7.9701;stroke-linecap:butt;stroke-linejoin:miter;stroke:#000;stroke-opacity:1;stroke-miterlimit:10" transform="matrix(.1 0 0 -.1 0 137)"/><path d="M473.125 261.602h1413.75" style="fill:none;stroke-width:3.985;stroke-linecap:butt;stroke-linejoin:miter;stroke:#000;stroke-opacity:1;stroke-miterlimit:10" transform="matrix(.1 0 0 -.1 0 137)"/><path d="M47.063 110.852h.601v6h-.602zm35.343 0h.602v6h-.602zm35.344 0h.602v6h-.602zm35.344 0h.601v6h-.601zm35.344 0h.601v6h-.601zm0 0" style="stroke:none;fill-rule:nonzero;fill:#000;fill-opacity:1"/><use xlink:href="#a" x="40.714" y="123.611" style="fill:#000;fill-opacity:1"/><use xlink:href="#b" x="47.434" y="123.611" style="fill:#000;fill-opacity:1"/><use xlink:href="#a" x="75.698" y="126.251" style="fill:#000;fill-opacity:1"/><use xlink:href="#c" x="83.618" y="122.291" style="fill:#000;fill-opacity:1"/><path d="M83.605 123.383h4.922v.601h-4.922zm0 0" style="stroke:none;fill-rule:nonzero;fill:#000;fill-opacity:1"/><use xlink:href="#d" x="84.218" y="129.611" style="fill:#000;fill-opacity:1"/><use xlink:href="#e" x="115.482" y="125.651" style="fill:#000;fill-opacity:1"/><use xlink:href="#c" x="150.945" y="122.291" style="fill:#000;fill-opacity:1"/><path d="M150.934 123.383h4.921v.601h-4.921zm0 0" style="stroke:none;fill-rule:nonzero;fill:#000;fill-opacity:1"/><use xlink:href="#d" x="151.545" y="129.611" style="fill:#000;fill-opacity:1"/><use xlink:href="#b" x="185.329" y="123.611" style="fill:#000;fill-opacity:1"/><path d="M280 261.602h1800.04M280 310.703v981.836" style="fill:none;stroke-width:3.985;stroke-linecap:butt;stroke-linejoin:miter;stroke:#000;stroke-opacity:1;stroke-miterlimit:10" transform="matrix(.1 0 0 -.1 0 137)"/><path d="M21.988 105.582h6v.602h-6zm0-24.547h6v.602h-6zm0-24.543h6v.602h-6zm0-24.547h6v.602h-6zm0-24.547h6V8h-6zm0 0" style="stroke:none;fill-rule:nonzero;fill:#000;fill-opacity:1"/><use xlink:href="#a" x="8.389" y="109.411" style="fill:#000;fill-opacity:1"/><use xlink:href="#f" x="15.109" y="109.411" style="fill:#000;fill-opacity:1"/><use xlink:href="#a" x=".589" y="84.745" style="fill:#000;fill-opacity:1"/><use xlink:href="#e" x="7.309" y="84.745" style="fill:#000;fill-opacity:1"/><use xlink:href="#g" x="12.469" y="84.745" style="fill:#000;fill-opacity:1"/><use xlink:href="#h" x="15.109" y="84.745" style="fill:#000;fill-opacity:1"/><use xlink:href="#e" x="14.989" y="60.199" style="fill:#000;fill-opacity:1"/><use xlink:href="#e" x="7.189" y="35.653" style="fill:#000;fill-opacity:1"/><use xlink:href="#g" x="12.349" y="35.653" style="fill:#000;fill-opacity:1"/><use xlink:href="#h" x="14.989" y="35.653" style="fill:#000;fill-opacity:1"/><use xlink:href="#f" x="14.989" y="11.227" style="fill:#000;fill-opacity:1"/><path d="M280 261.602v49.101" style="fill:none;stroke-width:3.985;stroke-linecap:butt;stroke-linejoin:miter;stroke:#000;stroke-opacity:1;stroke-miterlimit:10" transform="matrix(.1 0 0 -.1 0 137)"/></svg>