<svg xmlns="http://www.w3.org/2000/svg" xmlns:xlink="http://www.w3.org/1999/xlink" width="209pt" height="142pt" viewBox="0 0 209 142"><defs><symbol id="a" overflow="visible"><path d="M6.016-2.406v-.578H.64v.578zm0 0" style="stroke:none"/></symbol><symbol id="b" overflow="visible"><path d="M6.063-4.656c-.688.015-1.391.047-2.094.047-.86 0-1.719-.032-2.563-.032-.656-.015-.781.766-.953 1.25v.079l.078.046.078-.046c.407-.626.641-.72 1.391-.72h.234C1.86-2.655 1.531-1.281.938.017l.078.109c.203-.063.546-.14.734-.25.375-1.281.625-2.61.875-3.906h2.281c-.547.86-.953 1.906-.953 2.953 0 .484.172 1.234.781 1.234.407 0 .922-.406 1.235-.672l.015-.046-.046-.094-.079-.016c-.171.11-.359.25-.609.25-.547 0-.61-.828-.61-1.234 0-.844.266-1.657.688-2.375l.61-.14c.03-.173.078-.329.125-.485zm0 0" style="stroke:none"/></symbol><symbol id="c" overflow="visible"><path d="M4.422-3.39c-.5.015-1.016.03-1.531.03-.625 0-1.25-.015-1.86-.03-.484 0-.578.562-.703.921v.047l.063.031.046-.015c.297-.469.485-.531 1.016-.531h.172c-.266 1-.5 2-.938 2.953l.047.078c.157-.047.407-.094.532-.188.28-.937.468-1.89.656-2.844h1.656c-.406.626-.687 1.391-.687 2.157 0 .36.125.89.562.89.297 0 .672-.296.906-.484v-.047l-.03-.062h-.063c-.11.078-.266.171-.438.171-.406 0-.437-.593-.437-.89 0-.625.187-1.219.484-1.734l.453-.094c.016-.125.063-.25.094-.36zm0 0" style="stroke:none"/></symbol><symbol id="d" overflow="visible"><path d="M3.406.016c-.015-.141-.015-.22-.015-.329 0-.093 0-.156.015-.312L.891-.562 2.203-1.97c.703-.734.922-1.14.922-1.687C3.125-4.484 2.562-5 1.641-5c-.516 0-.875.14-1.235.5l-.125.984H.5l.094-.328c.11-.422.375-.61.86-.61.624 0 1.03.407 1.03 1.016 0 .547-.312 1.079-1.14 1.954L.109-.172v.188C.656 0 1.203 0 1.734 0c.547 0 1.11 0 1.672.016m0 0" style="stroke:none"/></symbol><symbol id="e" overflow="visible"><path d="M4.64-3.656c0-2.172-.656-3.219-2.015-3.219-1.547 0-2.328 1.234-2.328 3.64 0 1.172.203 2.172.547 2.672.36.485.906.766 1.531.766 1.5 0 2.266-1.297 2.266-3.86zm-.843.5c0 2.125-.375 3-1.297 3-.969 0-1.375-1-1.375-3.438 0-2.094.375-2.922 1.313-2.922.968 0 1.359.97 1.359 3.36m0 0" style="stroke:none"/></symbol><symbol id="g" overflow="visible"><path d="M4.625-2.047c0-.797-.375-1.234-1.5-1.75.906-.625 1.219-1.031 1.219-1.64 0-.86-.703-1.438-1.766-1.438-1.187 0-2.047.766-2.047 1.813 0 .671.266 1.062 1.14 1.625-.405.187-.577.296-.796.5-.375.39-.578.828-.578 1.359C.297-.562 1.125.203 2.25.203c1.297 0 2.375-1.016 2.375-2.25m-.781.406c0 .844-.64 1.5-1.438 1.5C1.562-.14 1-.734 1-1.67c0-.72.297-1.173 1.031-1.626l.797.36c.625.28 1.016.765 1.016 1.296zm-.172-3.687c0 .578-.25.969-.906 1.375l-.547-.266c-.625-.312-.938-.703-.938-1.203 0-.656.469-1.11 1.188-1.11s1.203.485 1.203 1.204m0 0" style="stroke:none"/></symbol><symbol id="h" overflow="visible"><path d="M4.703.031v-.297l-.469-.03c-.5-.032-.609-.157-.609-.766v-.735c.594 0 .797 0 1.078.031v-.703s-.484.031-.812.031h-.266v-1.39c0-1.781.031-2.625.078-3.047l-.125-.047-.734.266L.016-2.031l.109.234h2.672v.734c0 .61-.11.75-.61.766l-.609.031v.297C2.11.016 2.641 0 3.188 0c.5 0 1.015.016 1.515.031M2.797-2.438H.64l2.156-3.515zm0 0" style="stroke:none"/></symbol><symbol id="f" overflow="visible"><path d="M1.828-.531c0-.297-.281-.578-.594-.578-.296 0-.562.28-.562.578s.265.578.547.578c.328 0 .61-.266.61-.578zm0 0" style="stroke:none"/></symbol></defs><path d="m280 427.383 1.797-8.633 1.797-6.602 1.797 3.672 1.796 4.727 1.797-.664 1.836 1.601 1.797 9.063 1.797 10.547 1.797 18.164 1.797 25.82 1.797 11.992 1.797 5.508 1.796 8.516 1.797-.39 1.797 1.444 1.797 8.32 1.797-2.695 1.797-9.218 1.797-1.485 1.836-3.906 1.796-.82 1.797 11.054 1.797-1.484 1.797-10.664 1.797-5.43 1.797-14.062 1.797-10.352 1.797 1.25 1.796-9.726 1.797-10.313 1.836-1.797 1.797-6.875 1.797 2.89 1.797 13.75 1.797 2.853 3.594-4.922 1.796-12.5L350.195 435l1.797-.742 1.797-10.235 1.797-15.546 1.797-9.258 1.797-12.969 1.836-7.07 1.796 4.843 1.797 1.446 1.797-6.055 1.797-7.11L370 365.04l1.797-8.672 1.797-1.445 1.797 5.43 1.796-2.305 1.797-1.953 1.836 8.281 1.797 7.422 1.797 15.312 1.797 25.235 1.797 12.031 1.797 4.14 1.797 7.15 1.796.194 1.797.43 1.836 8.828 1.758-1.719 1.797-8.867 1.797.899 1.797-3.086 1.836 1.21 1.796 14.141 1.797 1.211 1.797-4.414 1.797-.625L415 433.516l1.797-3.829 1.797 7.149 1.797-2.149 1.796-2.03 1.797 5.429 1.836 2.266 1.797 11.757 1.797 24.297 1.797 15 1.797 8.399 1.797 10.586 1.797 1.445 1.796 1.914 1.797 12.266 1.836 5.39 1.758.469 1.797 4.453 1.797 4.531 1.797 8.711 1.836 18.36 1.796 22.03 1.797 11.993 1.797 8.281 1.797 12.578 1.797 8.633 1.797 15.508 1.797 24.961 1.797 15.899 1.796 15.351 1.797 26.445 1.836 25.82 1.797 31.954 1.797 42.5 1.797 31.015 1.797 21.407 1.797 24.726 1.797 16.407 1.796 15.234 1.797 25.312 1.836 12.97 1.758 6.25 1.797 14.491 1.797 7.578 1.797 14.805 1.836 25.39 1.796 11.407 1.797 6.719 1.797 7.695 1.797-1.797 1.797 3.047 1.797 12.656 1.797 3.672 1.797 1.68 1.796 9.062 1.797 4.766 1.836 11.172 1.797 24.219 1.797 15.859 1.797 7.383 1.797 7.11 1.797-1.407 1.797-2.461 1.796 4.61 1.797 1.484 1.836-6.563 1.758-7.11 1.797-2.148 1.797-2.03 1.797 5 1.836 12.304 1.797-.469 1.796-5.078 1.797-.195 1.797-6.211 1.797-1.094 1.797 9.375 1.797 1.328 1.797-1.914 1.797 8.79 1.796 8.398 1.836 13.28 1.797 25.548 1.797 13.437 1.797 3.36 1.797 7.343 1.797-2.734 1.797-1.992 1.796 7.187 1.797-6.562 1.836-9.805 1.758-3.594 1.797-10.898 1.797-2.383 1.797 7.383 1.836-3.985 1.797-8.984 1.796-8.086 1.797-16.797 1.797-13.36 1.797-1.21 1.797-9.023 1.797-12.344 1.797-4.492 1.797-6.914 1.796-.391 1.836 11.68 1.797 7.343 1.797-1.171 1.797-3.555 1.797-6.836 1.797-10.195 1.797-5.43 1.796-1.914 1.797-11.719 1.836-13.633 1.758-5.195 1.797-7.188 1.797.586 1.797 10.782 1.836-1.68 1.797-7.266 1.796-1.875 1.797-5.82 1.797-2.54 1.797 9.259 1.797 2.11 1.797-1.915 1.797 10.43 1.797 8.554 1.796 14.18 1.836 27.422 1.797 14.531 1.797 7.422 1.797 9.57 1.797-2.46 1.797.898 1.797 8.945 1.796-4.453 1.797-7.46 1.836-3.282 1.758-9.336 1.797-2.148 1.797 8.164 1.836-2.305 1.797-9.727 1.797-7.539 1.796-16.484 1.797-15.156 1.797-3.633 1.797-9.883 1.797-13.555 1.797-8.828 1.797-8.906 1.797-4.57 1.796 4.843 1.836 6.368 1.797-5.313 1.797-10.976 1.797-10.118 1.797-16.757 1.797-13.282 1.797-7.11 1.796-19.14 1.797-22.07 1.836-12.852 1.758-15.156 1.797-9.375 1.836 1.328 1.797-9.062 1.797-16.602 1.797-11.015 1.796-15.703 1.797-13.399 1.797.39 1.797-8.007" style="fill:none;stroke-width:7.9701;stroke-linecap:butt;stroke-linejoin:miter;stroke:#000;stroke-opacity:1;stroke-miterlimit:10" transform="matrix(.1 0 0 -.1 0 142)"/><path d="m730 869.922 1.797-11.172 1.797.586 1.797-3.242 1.797 6.054 1.796 18.164 1.836 4.883 1.797.117 1.797.899 1.797-10 1.797-6.797 1.797.938 1.797-10.274 1.796-14.023 1.797-8.867 1.836-14.415 1.758-8.75 1.797 3.829 1.836-4.297 1.797-12.07 1.797-10.47 1.797-17.577 1.796-15.82 1.797-5.821 1.797-7.11L775 732.696l1.797-9.922 1.797-3.359 1.797-1.758 1.797 6.367 1.796 13.672 1.836.586 1.797-4.765 1.797-1.524 1.797-9.101 1.797-6.094 1.797 2.5 1.797-7.695 1.796-12.305 1.797-2.774 1.836-3.554 1.758 1.758 1.836 14.336 1.797 4.18 1.797-3.634 1.797 3.477 1.797-2.89 1.796 1.25 1.797 14.804 1.797 4.766L820 736.25l1.797 14.805 1.797 10.234 1.797 20.742 1.797 31.836 1.796 20.82 1.836 15.157 1.797 14.883 1.797 4.218 1.797 5.664 1.797 14.688 1.797 3.71 1.797-2.421 1.796 2.5 1.797-2.656 1.836 1.601 1.758 12.383 1.836 6.367 1.797-2.422 1.797-4.18 1.797-7.773 1.797-9.843 1.796-3.672 1.797.742 1.797-7.774 1.797-8.75 1.797.274 1.797-1.602 1.797 5.82 1.797 14.532 1.796.39 1.836-7.265 1.797-4.57 1.797-11.524 1.797-11.445 1.797-3.047 1.797-13.242 1.797-19.766 1.796-9.726 1.797-13.008 1.836-8.164 1.758 5 1.836-6.797 1.797-12.93 1.797-7.969 1.797-16.992 1.797-10.43 1.796 1.524 1.797-8.594 1.797-7.93 1.797-.664 1.797-3.867 1.797 5.664 1.797 16.914 1.797 7.227 1.835-.156 1.797 1.289 1.797-9.57 1.797-9.805 1.797-.43 1.797-9.414 1.797-15.313 1.797-12.656 1.796-14.883 1.797-11.992 1.836-2.89 1.758-2.461 1.836-13.399 1.797-17.89 1.797-15.86 1.797-20.117 1.797-14.844 1.796-6.406 1.797-16.25 1.797-16.914 1.797-6.094 1.797-7.5 1.797-.703 1.797 9.453 1.797-1.445 1.835-10.313 1.797-6.484 1.797-13.164 1.797-13.203 1.797-1.797 1.797-12.734 1.797-18.086 1.797-7.813 1.796-12.187 1.797-3.711 1.836 8.984 1.758-3.047 1.836-6.21 1.797-2.579 1.797-10.742 1.797-3.79 1.797 7.5 1.796-.194 1.797-.079 1.797 7.735 1.797 4.805 1.797 12.421 1.797 26.25 1.797 18.047 1.836 9.688 1.796 10.43 1.797.976 1.797.313 1.797 7.46 1.797 2.54 1.797-5.313 1.797-6.016 1.797-2.656 1.796-3.32 1.797 3.125 1.836 8.515 1.758-4.726 1.836-10.235 1.797-6.796 1.797-13.32 1.797-9.102 1.796.703 1.797-8.79 1.797-11.952 1.797-1.68 1.797-2.383 1.797 2.852 1.797 14.18 1.797 2.734 1.836-7.461 1.796-2.617 1.797-11.602 1.797-10.937 1.797-.157 1.797-13.007 1.797-15.313 1.797-7.851 1.797-13.711 1.796-3.907 1.797 7.383 1.836-2.812 1.758-6.68 1.836-4.336 1.797-12.148 1.797-6.641 1.797 6.055 1.796-1.172 1.797-3.125 1.797 5.469 1.797 3.554 1.797 10 1.797 23.125 1.797 17.695 1.797 9.61 1.836 7.89 1.796 2.618 1.797-.235 1.797 4.063 1.797 6.094 1.797-4.297 1.797-6.875 1.797.312 1.797-2.422 1.796 4.727 1.797 12.93 1.836-.47 1.758-6.679 1.836-1.953 1.797-6.875 1.797-4.102 1.797 7.032 1.796-.664 1.797-4.532 1.797 7.305 1.797 6.094 1.797 11.719 1.797 25.43 1.797 13.75 1.836 6.25 1.797 10.156 1.796-.47 1.797 4.102 1.797 13.985 1.797 1.601 1.797.82 1.797 6.72 1.797 2.616 1.797 11.993 1.796 23.867 1.797 15.312 1.836 10.157 1.758 14.375 1.836 6.562 1.797 10.04 1.797 23.28 1.797 18.125 1.796 15.86 1.797 22.07 1.797 22.383 1.797 27.617 1.797 38.399" style="fill:none;stroke-width:7.9701;stroke-linecap:butt;stroke-linejoin:miter;stroke:#000;stroke-opacity:1;stroke-miterlimit:10" transform="matrix(.1 0 0 -.1 0 142)"/><path d="m1180 801.602 1.797 38.437 1.797 27.617 1.836 22.383 1.797 22.07 1.796 15.82 1.797 18.126 1.797 23.28 1.797 10.04 1.797 6.563 1.797 14.375 1.797 10.195 1.797 15.312 1.796 23.828 1.797 11.993 1.836 2.656 1.797 6.719 1.797.78 1.797 1.602 1.797 14.024 1.797 4.062 1.796-.468 1.797 10.156 1.797 6.25 1.797 13.75 1.797 25.43 1.797 11.718 1.836 6.094 1.797 7.344 1.797-4.57 1.796-.665 1.797 7.032 1.797-4.063 1.797-6.914 1.797-1.914 1.797-6.68 1.797-.507 1.797 12.968 1.796 4.688 1.797-2.422 1.836.312 1.797-6.875 1.797-4.257 1.797 6.093 1.797 4.024 1.797-.235 1.796 2.618 1.797 7.89 1.797 9.61 1.797 17.734 1.797 23.125 1.836 10 1.797 3.516 1.797 5.468 1.797-3.125 1.796-1.171 1.797 6.054 1.797-6.64 1.797-12.149 1.797-4.297 1.797-6.68 1.797-2.851 1.797 7.383 1.796-3.867 1.797-13.75 1.836-7.852 1.797-15.312 1.797-13.008 1.797-.117 1.797-10.977 1.797-11.602 1.796-2.578 1.797-7.46 1.797 2.695 1.797 14.18 1.797 2.85 1.836-2.343 1.797-1.719 1.797-11.953 1.797-8.789 1.796.703 1.797-9.062 1.797-13.32 1.797-6.836 1.797-10.235 1.797-4.726 1.797 8.554 1.797 3.125 1.796-3.32 1.797-2.695 1.836-6.016 1.797-5.312 1.797 2.539 1.797 7.5 1.797.312 1.797.938 1.796 10.43 1.797 9.687 1.797 18.047 1.797 26.289 1.836 12.383 1.797 4.804 1.797 7.735 1.797-.078 1.797-.157 1.796 7.461 1.797-3.789 1.797-10.703 1.797-2.617 1.797-6.211 1.797-3.047 1.797 8.984 1.797-3.71 1.796-12.188 1.797-7.773 1.836-18.086 1.797-12.774 1.797-1.797 1.797-13.203 1.797-13.164 1.797-6.484 1.796-10.313 1.797-1.445 1.797 9.492 1.797-.742 1.836-7.5 1.797-6.094 1.797-16.914 1.797-16.25 1.797-6.367 1.796-14.883 1.797-20.117 1.797-15.86 1.797-17.851 1.797-13.438 1.797-2.46 1.797-2.891 1.797-11.953 1.796-14.883 1.836-12.695 1.797-15.313 1.797-9.414 1.797-.39 1.797-9.844 1.797-9.57 1.797 1.328 1.796-.157 1.797 7.188 1.797 16.953 1.797 5.625 1.836-3.867 1.797-.664 1.797-7.93 1.797-8.555 1.797 1.485 1.796-10.43 1.797-16.992 1.797-7.969 1.797-12.93 1.797-6.797 1.797 5.04 1.797-8.204 1.797-13.007 1.835-9.727 1.797-19.766 1.797-13.242 1.797-3.047 1.797-11.445 1.797-11.523 1.797-4.57 1.797-7.266 1.796.43 1.797 14.492 1.797 5.82 1.797-1.602 1.836.274 1.797-8.75 1.797-7.774 1.797.742 1.797-3.671 1.796-9.844 1.797-7.774 1.797-4.18 1.797-2.421 1.797 6.367 1.797 12.383 1.797 1.601 1.797-2.656 1.835 2.5 1.797-2.422 1.797 3.711 1.797 14.727 1.797 5.625 1.797 4.258 1.797 14.882 1.797 15.157 1.796 20.82 1.797 31.797 1.797 20.742 1.797 10.234 1.836 14.844 1.797 5.196 1.797 4.765 1.797 14.805 1.797 1.289 1.796-2.89 1.797 3.476 1.797-3.672 1.797 4.219 1.797 14.336 1.797 1.718 1.797-3.554 1.797-2.735 1.835-12.343 1.797-7.696 1.797 2.5 1.797-6.093 1.797-9.102 1.797-1.524 1.797-4.765 1.797.625 1.796 13.633 1.797 6.406 1.797-1.797 1.797-3.36 1.836-9.882 1.797-11.992 1.797-7.11 1.797-5.86 1.797-15.82 1.796-17.538 1.797-10.508 1.797-12.032 1.797-4.335 1.797 3.828 1.797-8.75 1.797-14.414 1.797-8.828 1.835-14.024 1.797-10.312 1.797.976 1.797-6.797 1.797-10.039 1.797.899 1.797.117 1.797 4.883 1.796 18.164 1.797 6.093 1.797-3.242 1.797.586 1.836-11.21m.001-.001 1.796-8.008 1.797.391 1.797-13.398 1.797-15.664 1.796-11.016 1.797-16.64 1.797-9.024 1.797 1.289 1.797-9.375 1.797-15.156 1.797-12.813 1.797-22.07 1.835-19.18 1.797-7.07 1.797-13.281 1.797-16.797 1.797-10.078 1.797-11.016 1.797-5.273 1.797 6.328 1.796 4.843 1.797-4.57 3.594-17.734 1.836-13.516 1.797-9.883 1.797-3.672 1.797-15.156 1.797-16.484 1.796-7.54 1.797-9.687 1.797-2.344 1.797 8.165 1.797-2.11 1.797-9.336 1.797-3.32 1.797-7.461 1.835-4.453 1.797 8.945 1.797.938 1.797-2.5 1.797 9.57 1.797 7.422 1.797 14.531 1.797 27.422 1.796 14.18 1.797 8.593 1.797 10.43 1.797-1.953 1.836 2.11 1.797 9.257 1.797-2.539 1.797-5.82 1.797-1.836 1.796-7.305 1.797-1.64 1.797 10.742 1.797.625 1.797-7.227 1.797-5.195 1.797-13.633 1.797-11.719 1.835-1.914 1.797-5.39 1.797-10.235 1.797-6.836 1.797-3.515 1.797-1.211 1.797 7.344 1.797 11.68 1.796-.391 1.797-6.914 1.797-4.454 1.797-12.382 1.836-9.024 1.797-1.172 1.797-13.398 1.797-16.797 1.797-8.086 1.796-8.984 1.797-3.946 1.797 7.383 1.797-2.422 1.797-10.898 1.797-3.594 1.797-9.805 1.797-6.562 1.835 7.187 1.797-1.992 1.797-2.734 1.797 7.383 1.797 3.32 1.797 13.437 1.797 25.547 1.797 13.282 1.796 8.437 1.797 8.75 1.797-1.875 1.797 1.328 1.836 9.336 1.797-1.055 1.797-6.21 1.797-.235 1.797-5.078 1.796-.469 1.797 12.305 1.797 5 1.797-2.031 1.797-2.11 1.797-7.148 1.797-6.524 1.797 1.446 1.835 4.61 1.797-2.462 1.797-1.406 1.797 7.11 1.797 7.382 1.797 15.899 1.797 24.218 1.797 11.133 1.796 4.766 1.797 9.101 1.797 1.68 1.797 3.633 1.836 12.656 1.797 3.047 1.797-1.797 1.797 7.734 1.797 6.72 1.796 11.366 1.797 25.391 1.797 14.805 1.797 7.617 1.797 14.453 1.797 6.25 1.797 13.008 1.797 25.273 1.835 15.235 1.797 16.406 1.797 24.726 1.797 21.446 1.797 30.976 1.797 42.54 1.797 31.913 1.797 25.86 1.796 26.445 1.797 15.313 1.797 15.937 1.797 24.961 1.836 15.469 1.797 8.633 1.797 12.578 1.797 8.32 1.797 11.953 1.796 22.031 1.797 18.36 1.797 8.75 1.797 4.492 1.797 4.453 1.797.508 1.797 5.351 1.797 12.266 1.835 1.914 1.797 1.446 1.797 10.585 1.797 8.438 1.797 14.96 1.797 24.298 1.797 11.797 1.797 2.265 1.796 5.39 1.797-1.991 1.797-2.149 1.797 7.11 1.836-3.829 1.797-10.351 1.797-.625 1.797-4.375 1.797 1.172 1.796 14.14 1.797 1.25 1.797-3.125 1.797.899 1.797-8.867 1.797-1.68 1.797 8.828 1.797.43 1.835.195 1.797 7.149 1.797 4.101 1.797 12.031 1.797 25.235 1.797 15.351 1.797 7.422 1.797 8.242 1.796-1.914 1.797-2.343 1.797 5.43 1.797-1.407 1.836-8.71 1.797-7.267 1.797-7.07 1.797-6.094 1.797 1.446 1.796 4.843 1.797-7.07 1.797-12.93 1.797-9.296 1.797-15.547 1.797-10.235 1.797-.742 1.797-11.015 1.835-12.5 1.797-2.461 1.797-2.422 1.797 2.851 1.797 13.711 1.797 2.93 1.797-6.875 1.797-1.836 1.796-10.313 1.797-9.726 1.797 1.25 1.797-10.352 1.836-14.023 1.797-5.469 1.797-10.664 1.797-1.484 1.797 11.054 1.796-.82 1.797-3.906 1.797-1.485 1.797-9.257 1.797-2.657 1.797 8.36 1.797 1.406 1.797-.39 1.836 8.515 1.796 5.508 1.797 11.992 1.797 25.82 1.797 18.164 1.797 10.547 1.797 9.102 1.797 1.562 1.796-.664 1.797 4.727 1.797 3.672 1.797-6.602 1.836-8.633" style="fill:none;stroke-width:7.9701;stroke-linecap:butt;stroke-linejoin:miter;stroke:#000;stroke-opacity:1;stroke-miterlimit:10" transform="matrix(.1 0 0 -.1 0 142)"/><path d="M473.125 261.602h1413.75" style="fill:none;stroke-width:3.985;stroke-linecap:butt;stroke-linejoin:miter;stroke:#000;stroke-opacity:1;stroke-miterlimit:10" transform="matrix(.1 0 0 -.1 0 142)"/><path d="M47.063 115.852h.601v6h-.602zm35.343 0h.602v6h-.602zm35.344 0h.602v6h-.602zm35.344 0h.601v6h-.601zm35.344 0h.601v6h-.601zm0 0" style="stroke:none;fill-rule:nonzero;fill:#000;fill-opacity:1"/><use xlink:href="#a" x="40.714" y="128.611" style="fill:#000;fill-opacity:1"/><use xlink:href="#b" x="47.434" y="128.611" style="fill:#000;fill-opacity:1"/><use xlink:href="#a" x="75.698" y="131.251" style="fill:#000;fill-opacity:1"/><use xlink:href="#c" x="83.618" y="127.291" style="fill:#000;fill-opacity:1"/><path d="M83.605 128.383h4.922v.601h-4.922zm0 0" style="stroke:none;fill-rule:nonzero;fill:#000;fill-opacity:1"/><use xlink:href="#d" x="84.218" y="134.611" style="fill:#000;fill-opacity:1"/><use xlink:href="#e" x="115.482" y="130.651" style="fill:#000;fill-opacity:1"/><use xlink:href="#c" x="150.945" y="127.291" style="fill:#000;fill-opacity:1"/><path d="M150.934 128.383h4.921v.601h-4.921zm0 0" style="stroke:none;fill-rule:nonzero;fill:#000;fill-opacity:1"/><use xlink:href="#d" x="151.545" y="134.611" style="fill:#000;fill-opacity:1"/><use xlink:href="#b" x="185.329" y="128.611" style="fill:#000;fill-opacity:1"/><path d="M280 261.602h1800.04m-1800.04 0v1080" style="fill:none;stroke-width:3.985;stroke-linecap:butt;stroke-linejoin:miter;stroke:#000;stroke-opacity:1;stroke-miterlimit:10" transform="matrix(.1 0 0 -.1 0 142)"/><path d="M21.988 115.492h6v.602h-6zm0-27h6v.602h-6zm0-27h6v.602h-6zm0-27h6v.602h-6zm0-27h6v.602h-6zm0 0" style="stroke:none;fill-rule:nonzero;fill:#000;fill-opacity:1"/><use xlink:href="#a" x=".589" y="119.2" style="fill:#000;fill-opacity:1"/><use xlink:href="#e" x="7.309" y="119.2" style="fill:#000;fill-opacity:1"/><use xlink:href="#f" x="12.469" y="119.2" style="fill:#000;fill-opacity:1"/><use xlink:href="#g" x="15.109" y="119.2" style="fill:#000;fill-opacity:1"/><use xlink:href="#a" x=".589" y="92.2" style="fill:#000;fill-opacity:1"/><use xlink:href="#e" x="7.309" y="92.2" style="fill:#000;fill-opacity:1"/><use xlink:href="#f" x="12.469" y="92.2" style="fill:#000;fill-opacity:1"/><use xlink:href="#h" x="15.109" y="92.2" style="fill:#000;fill-opacity:1"/><use xlink:href="#e" x="14.989" y="65.2" style="fill:#000;fill-opacity:1"/><use xlink:href="#e" x="7.189" y="38.2" style="fill:#000;fill-opacity:1"/><use xlink:href="#f" x="12.349" y="38.2" style="fill:#000;fill-opacity:1"/><use xlink:href="#h" x="14.989" y="38.2" style="fill:#000;fill-opacity:1"/><use xlink:href="#e" x="7.189" y="11.2" style="fill:#000;fill-opacity:1"/><use xlink:href="#f" x="12.349" y="11.2" style="fill:#000;fill-opacity:1"/><use xlink:href="#g" x="14.989" y="11.2" style="fill:#000;fill-opacity:1"/></svg>