<svg xmlns="http://www.w3.org/2000/svg" xmlns:xlink="http://www.w3.org/1999/xlink" width="440pt" height="161pt" viewBox="0 0 440 161"><defs><symbol id="a" overflow="visible"><path d="M5.625.031v-.36l-.469-.015c-.281-.015-.328-.11-.328-.703v-2.187c0-1.735-.5-2.375-1.89-2.375-.516 0-.985.14-1.438.406l-.64.39v.766l.312.094.156-.375c.234-.563.375-.64.922-.64 1.125 0 1.594.437 1.625 1.53l-1.188.204C1.063-2.922.376-2.36.376-1.328.375-.391.938.14 1.891.14c.218 0 .421-.032.5-.094l1.484-1.03L3.812.03C4.125.016 4.439 0 4.75 0c.297 0 .578.016.875.031m-1.75-1.515c-.344.5-1.11.953-1.563.953-.484 0-.906-.453-.906-.969 0-.438.25-.86.61-1.078.296-.188.953-.344 1.859-.485zm0 0" style="stroke:none"/></symbol><symbol id="b" overflow="visible"><path d="M4.469-5.469c-.125-.093-.344-.14-.563-.14-.36 0-.734.187-.984.5l-.672.78v-1.234l-.11-.046a7.3 7.3 0 0 1-1.859.5v.328H.72c.469 0 .531.078.531.875v2.687c0 .75-.047.844-.453.86L.25-.33v.36C.734.016 1.234 0 1.719 0c.578 0 1.14.016 1.718.031v-.36l-.624-.03c-.547-.032-.563-.079-.563-.86V-3.28c0-.719.469-1.313 1.063-1.313.359 0 .609.172.796.547h.25zm0 0" style="stroke:none"/></symbol><symbol id="c" overflow="visible"><path d="M5.36-3.328c0-1.375-.891-2.281-2.235-2.281-.438 0-.953.156-1.438.453C.704-4.61.313-3.86.313-2.625c0 .766.172 1.406.5 1.86.47.64 1.282 1 2.172 1 .454 0 .891-.094 1.375-.313.329-.125.579-.281.625-.36l.235-.406-.157-.11c-.765.454-1.03.563-1.546.563-.782 0-1.422-.343-1.766-.937-.219-.39-.297-.734-.328-1.422h1.75c.828 0 1.328-.031 2.156-.172.016-.156.031-.265.031-.406m-1.063.14-1.344.032c-.547 0-.86-.016-1.5-.078 0-.563.047-.813.203-1.125a1.47 1.47 0 0 1 1.328-.86c.391 0 .704.157.922.485.266.39.39.734.39 1.546zm0 0" style="stroke:none"/></symbol><symbol id="d" overflow="visible"><path d="M.781-4.14H7.22v-.72H.78zm0 2.53H7.22v-.702H.78zm0 0" style="stroke:none"/></symbol><symbol id="j" overflow="visible"><path d="M7.906-.078c-.718-1.313-1.297-2.766-1.89-4.156-.594-1.329-1.22-2.704-1.688-4.094h-.297C3.438-6.844 2.766-5.375 2.11-3.891 1.531-2.625.984-1.297.33-.078l.077.125C1.672 0 2.937 0 4.22 0c1.202 0 2.42.016 3.624.047zm-1.484-.36H1.25a129 129 0 0 1 2.547-6.296h.094c.89 2.062 1.75 4.171 2.53 6.296zm0 0" style="stroke:none"/></symbol><symbol id="e" overflow="visible"><path d="M4.938-8.61c-.204-.093-.547-.156-.844-.156a1.1 1.1 0 0 0-.407.094c-.296.125-1.265.86-1.546 1.14-.266.266-.407.626-.532 1.298l-.187.953a10 10 0 0 1-1.031.437l-.063.266h.969l-.11.672C.829-1.578.391.64.125 1.469c-.219.703-.563 1.078-1 1.078-.266 0-.422-.078-.625-.344l-.156.047c-.047.266-.219.844-.282.953a.9.9 0 0 0 .422.094c.485 0 1.141-.375 1.594-.938.735-.859.985-1.671 1.875-5.89.063-.297.156-.656.219-1.047h1.25c.047-.234.125-.5.203-.672l-.047-.078-.094.016c-.28.093-.406.093-1 .093h-.187l.25-1.343c.187-1.032.531-1.485 1.078-1.485.36 0 .672.188.86.469l.124-.047zm0 0" style="stroke:none"/></symbol><symbol id="g" overflow="visible"><path d="m4.234-1.14-.093-.235-.188.125c-.86.563-1.312.766-1.734.766-.672 0-1.016-.47-1.016-1.422 0-1.266.406-2.5.984-2.953.25-.22.547-.313.938-.313.531 0 .969.219.969.516v.718h.265c.094-.78.188-1.218.297-1.53-.312-.204-.703-.298-1.156-.298-.531 0-1.39.422-2.063 1.016C.75-4.14.298-2.906.298-1.625c0 1.14.5 1.75 1.453 1.75.656 0 1.219-.234 1.89-.766zm0 0" style="stroke:none"/></symbol><symbol id="k" overflow="visible"><path d="m5.36-.938-.094-.234c-.438.36-.735.531-.922.531C4.156-.64 4-.75 3.89-.984a4.8 4.8 0 0 1-.313-1.032l-.203-1.203.422-.578c.547-.781.875-1.062 1.25-1.062.187 0 .328.109.39.28l.172-.046.172-1.016c-.14-.078-.25-.125-.36-.125-.468 0-.952.438-1.687 1.532l-.453.656-.062-.563c-.14-1.187-.469-1.625-1.172-1.625-.313 0-.578.094-.688.25l-.687 1 .203.11c.36-.407.594-.563.828-.563.39 0 .656.485.86 1.657l.124.75-.468.734C1.703-1.031 1.297-.641.953-.641.781-.64.641-.687.625-.75l-.14-.344-.235.047c0 .234-.016.39-.094.766-.031.156-.031.187-.047.265.172.094.375.141.516.141.39 0 .86-.344 1.234-.906l.907-1.39.125.827C3.062-.328 3.328.125 3.75.125c.266 0 .656-.203 1.031-.547zm0 0" style="stroke:none"/></symbol><symbol id="l" overflow="visible"><path d="M6.297-6.422c.031-.75.125-1.36.25-1.812-.266-.032-.594-.032-.797-.032-.938 0-1.875.032-2.813.032-.609 0-1.218-.016-1.812-.032l-.031.329.656.03c.297 0 .422.11.422.313 0 .172-.047.547-.11.907L1.172-1.5C.984-.39.969-.375.484-.328l-.437.031L0 .031A49 49 0 0 1 1.516 0c.546 0 1.109.016 1.656.031l.031-.328-.765-.031c-.329-.016-.422-.11-.422-.36 0-.062 0-.203.015-.25l.438-2.656h1.39c1.5 0 1.204.031 1.579.047l.234-.547-.047-.078L3-4.094h-.438l.547-3.25a1.1 1.1 0 0 1 .11-.375c.234 0-.047.016 1.469-.047.734 0 1.218.11 1.234.282l.094 1.062zm0 0" style="stroke:none"/></symbol><symbol id="r" overflow="visible"><path d="m5.86-5.656-.141-.11c-.344.141-.61.204-.875.235l-.422 1.578c-.14.562-.563 1.437-.953 2.015-.422.61-1 1.141-1.266 1.141-.265 0-.25-.578-.234-.734l.187-2.313c.016-.375.047-.828.047-1.172 0-.53-.094-.75-.297-.75-.156 0-.312.094-.89.485L.03-4.61l.14.203.595-.344c.062-.063.218-.156.296-.156.313 0 .266.61.25.812L1.11-1.187l-.015.468c0 .5.218.844.515.844.454 0 1.454-1.016 2.344-2.36L3.375-.187c-.61 2.11-1.219 2.985-2.047 2.985a.737.737 0 0 1-.75-.735c0-.062.016-.156.031-.265L.484 1.75l-.562.406c-.016.078-.016.156-.016.203 0 .516.438.938.985.938 1.265 0 2.578-1.485 3.28-3.688zm0 0" style="stroke:none"/></symbol><symbol id="f" overflow="visible"><path d="M3.64-9.031C1.813-7.844.72-5.797.72-3.234c0 2.343 1.14 4.578 2.875 5.78l.156-.202C2.094.906 1.812-.484 1.812-3.281c0-2.781.313-4.219 1.938-5.547zm0 0" style="stroke:none"/></symbol><symbol id="i" overflow="visible"><path d="m.5-9.031-.125.203C2.015-7.5 2.328-6.063 2.328-3.281c0 2.797-.281 4.187-1.953 5.625l.156.203c1.75-1.203 2.89-3.438 2.89-5.781 0-2.563-1.108-4.61-2.921-5.797m0 0" style="stroke:none"/></symbol><symbol id="m" overflow="visible"><path d="M7.219-2.875v-.703H.78v.703zm0 0" style="stroke:none"/></symbol><symbol id="h" overflow="visible"><path d="m2.11-.75-.08-.156-.234.156c-.266.172-.453.266-.531.266-.063 0-.125-.079-.125-.188 0-.078.015-.156.062-.344l.688-2.671A1.6 1.6 0 0 0 1.936-4c0-.14-.078-.219-.218-.219-.188 0-.516.172-1.172.64l-.25.173.062.187.282-.187c.25-.172.343-.203.421-.203.079 0 .141.078.141.187 0 .063-.031.25-.062.375L.562-.937c-.078.28-.109.5-.109.671 0 .22.094.344.25.344.235 0 .563-.187 1.406-.828zm.203-5.11c0-.218-.126-.359-.313-.359-.266 0-.516.282-.516.578 0 .22.141.36.36.36.265 0 .468-.25.468-.578zm0 0" style="stroke:none"/></symbol><symbol id="n" overflow="visible"><path d="M5.297-2.11v-.515H.563v.516zm0 0" style="stroke:none"/></symbol><symbol id="q" overflow="visible"><path d="M5.344-2.125v-.5H3.187v-2.14h-.484v2.14H.547v.5h2.156v2.14h.485v-2.14zm0 0" style="stroke:none"/></symbol><symbol id="s" overflow="visible"><path d="M2.75-3.797c0-.312-.344-.547-.64-.547-.344 0-.5.344-.594.625L.546-.922C.532-.859.47-.687.47-.609s.047.203.14.203c.141 0 .297-.203.36-.297L2.484-3.11c.125-.188.266-.438.266-.688zm0 0" style="stroke:none"/></symbol><symbol id="o" overflow="visible"><path d="M3.656.031v-.265l-.453-.032c-.484-.03-.562-.125-.562-.578v-5.203l-.125-.031a15 15 0 0 1-1.985.844l.063.375h.078c.39-.188.781-.36 1.156-.516.063 0 .078.078.078.281v4.25c0 .453-.093.547-.578.578l-.484.032V.03C1.328.016 1.813 0 2.28 0c.469 0 .922.016 1.375.031zm0 0" style="stroke:none"/></symbol><symbol id="p" overflow="visible"><path d="M4.11.031c-.032-.187-.032-.281-.032-.406 0-.11 0-.188.031-.39l-3.046.093 1.609-1.687c.844-.907 1.11-1.391 1.11-2.047 0-1.016-.688-1.64-1.798-1.64-.64 0-1.062.187-1.5.624l-.14 1.188h.25l.11-.407c.14-.5.468-.718 1.046-.718.75 0 1.234.468 1.234 1.218 0 .657-.359 1.297-1.359 2.36L.141-.203V.03C.78.016 1.453 0 2.094 0c.672 0 1.344.016 2.015.031zm0 0" style="stroke:none"/></symbol></defs><path d="M435.82 464.766h1263.164v1045.82H435.82zm1263.164 0h1263.164v790.117H1698.984zm1263.164 0h1263.164v211.093H2962.149zm0 0" style="fill-rule:nonzero;fill:#e5e5e5;fill-opacity:1;stroke-width:3.985;stroke-linecap:butt;stroke-linejoin:miter;stroke:#000;stroke-opacity:1;stroke-miterlimit:10" transform="matrix(.1 0 0 -.1 0 161)"/><path d="M435.82 464.766h3789.493" style="fill:none;stroke-width:3.985;stroke-linecap:butt;stroke-linejoin:miter;stroke:#000;stroke-opacity:1;stroke-miterlimit:10" transform="matrix(.1 0 0 -.1 0 161)"/><path d="M43.328 111.535h.602v6h-.602zm126.317 0h.601v6h-.601zm126.32 0h.601v6h-.601zm126.316 0h.602v6h-.602zm0 0" style="stroke:none;fill-rule:nonzero;fill:#000;fill-opacity:1"/><path d="M435.82 464.766V1601.64" style="fill:none;stroke-width:3.985;stroke-linecap:butt;stroke-linejoin:miter;stroke:#000;stroke-opacity:1;stroke-miterlimit:10" transform="matrix(.1 0 0 -.1 0 161)"/><path d="M40.566 114.176h6v.601h-6zm0-113.688h6v.602h-6zm0 0" style="stroke:none;fill-rule:nonzero;fill:#000;fill-opacity:1"/><path d="m435.82 1437.89 189.453 47.5 189.493 32.852 189.453 17.813 189.453 2.617 189.492-12.383 189.492-26.992 189.492-40.938 189.454-53.906 189.453-65.703 189.492-75.898 189.492-84.415 189.453-90.859 189.492-94.96 189.493-96.485 189.453-95.156 189.492-90.664 189.453-82.774 189.492-71.172 189.492-55.703 189.454-35.898" style="fill:none;stroke-width:7.9701;stroke-linecap:butt;stroke-linejoin:miter;stroke:#000;stroke-opacity:1;stroke-miterlimit:10" transform="matrix(.1 0 0 -.1 0 161)"/><use xlink:href="#a" x="173.882" y="78.751" style="fill:#000;fill-opacity:1"/><use xlink:href="#b" x="179.882" y="78.751" style="fill:#000;fill-opacity:1"/><use xlink:href="#c" x="184.562" y="78.751" style="fill:#000;fill-opacity:1"/><use xlink:href="#a" x="190.322" y="78.751" style="fill:#000;fill-opacity:1"/><use xlink:href="#d" x="199.562" y="78.751" style="fill:#000;fill-opacity:1"/><use xlink:href="#e" x="212.762" y="78.751" style="fill:#000;fill-opacity:1"/><use xlink:href="#f" x="218.282" y="78.751" style="fill:#000;fill-opacity:1"/><use xlink:href="#g" x="222.722" y="78.751" style="fill:#000;fill-opacity:1"/><use xlink:href="#h" x="228.242" y="80.551" style="fill:#000;fill-opacity:1"/><use xlink:href="#i" x="231.602" y="78.751" style="fill:#000;fill-opacity:1"/><use xlink:href="#j" x="235.682" y="78.751" style="fill:#000;fill-opacity:1"/><use xlink:href="#k" x="244.322" y="78.751" style="fill:#000;fill-opacity:1"/><use xlink:href="#h" x="250.922" y="80.551" style="fill:#000;fill-opacity:1"/><use xlink:href="#d" x="199.562" y="99.695" style="fill:#000;fill-opacity:1"/><use xlink:href="#l" x="211.202" y="99.695" style="fill:#000;fill-opacity:1"/><use xlink:href="#f" x="218.282" y="99.695" style="fill:#000;fill-opacity:1"/><use xlink:href="#k" x="222.722" y="99.695" style="fill:#000;fill-opacity:1"/><use xlink:href="#h" x="229.322" y="101.495" style="fill:#000;fill-opacity:1"/><use xlink:href="#i" x="232.802" y="99.695" style="fill:#000;fill-opacity:1"/><use xlink:href="#m" x="239.522" y="99.695" style="fill:#000;fill-opacity:1"/><use xlink:href="#l" x="250.442" y="99.695" style="fill:#000;fill-opacity:1"/><use xlink:href="#f" x="257.522" y="99.695" style="fill:#000;fill-opacity:1"/><use xlink:href="#k" x="261.962" y="99.695" style="fill:#000;fill-opacity:1"/><use xlink:href="#h" x="268.562" y="101.495" style="fill:#000;fill-opacity:1"/><use xlink:href="#n" x="271.322" y="101.495" style="fill:#000;fill-opacity:1"/><use xlink:href="#o" x="277.202" y="101.495" style="fill:#000;fill-opacity:1"/><use xlink:href="#i" x="282.242" y="99.695" style="fill:#000;fill-opacity:1"/><use xlink:href="#a" x="46.569" y="78.751" style="fill:#000;fill-opacity:1"/><use xlink:href="#b" x="52.569" y="78.751" style="fill:#000;fill-opacity:1"/><use xlink:href="#c" x="57.249" y="78.751" style="fill:#000;fill-opacity:1"/><use xlink:href="#a" x="63.009" y="78.751" style="fill:#000;fill-opacity:1"/><use xlink:href="#d" x="72.249" y="78.751" style="fill:#000;fill-opacity:1"/><use xlink:href="#e" x="85.449" y="78.751" style="fill:#000;fill-opacity:1"/><use xlink:href="#f" x="90.969" y="78.751" style="fill:#000;fill-opacity:1"/><use xlink:href="#g" x="95.409" y="78.751" style="fill:#000;fill-opacity:1"/><use xlink:href="#h" x="100.929" y="80.551" style="fill:#000;fill-opacity:1"/><use xlink:href="#n" x="103.689" y="80.551" style="fill:#000;fill-opacity:1"/><use xlink:href="#o" x="109.569" y="80.551" style="fill:#000;fill-opacity:1"/><use xlink:href="#i" x="114.489" y="78.751" style="fill:#000;fill-opacity:1"/><use xlink:href="#j" x="118.569" y="78.751" style="fill:#000;fill-opacity:1"/><use xlink:href="#k" x="127.209" y="78.751" style="fill:#000;fill-opacity:1"/><use xlink:href="#h" x="133.809" y="80.551" style="fill:#000;fill-opacity:1"/><use xlink:href="#n" x="136.569" y="80.551" style="fill:#000;fill-opacity:1"/><use xlink:href="#o" x="142.449" y="80.551" style="fill:#000;fill-opacity:1"/><use xlink:href="#d" x="72.249" y="99.695" style="fill:#000;fill-opacity:1"/><use xlink:href="#l" x="83.889" y="99.695" style="fill:#000;fill-opacity:1"/><use xlink:href="#f" x="90.969" y="99.695" style="fill:#000;fill-opacity:1"/><use xlink:href="#k" x="95.409" y="99.695" style="fill:#000;fill-opacity:1"/><use xlink:href="#h" x="102.009" y="101.495" style="fill:#000;fill-opacity:1"/><use xlink:href="#n" x="104.769" y="101.495" style="fill:#000;fill-opacity:1"/><use xlink:href="#o" x="110.649" y="101.495" style="fill:#000;fill-opacity:1"/><use xlink:href="#i" x="115.689" y="99.695" style="fill:#000;fill-opacity:1"/><use xlink:href="#m" x="122.529" y="99.695" style="fill:#000;fill-opacity:1"/><use xlink:href="#l" x="133.329" y="99.695" style="fill:#000;fill-opacity:1"/><use xlink:href="#f" x="140.409" y="99.695" style="fill:#000;fill-opacity:1"/><use xlink:href="#k" x="144.849" y="99.695" style="fill:#000;fill-opacity:1"/><use xlink:href="#h" x="151.449" y="101.495" style="fill:#000;fill-opacity:1"/><use xlink:href="#n" x="154.209" y="101.495" style="fill:#000;fill-opacity:1"/><use xlink:href="#p" x="160.089" y="101.495" style="fill:#000;fill-opacity:1"/><use xlink:href="#i" x="165.249" y="99.695" style="fill:#000;fill-opacity:1"/><use xlink:href="#a" x="300.199" y="21.908" style="fill:#000;fill-opacity:1"/><use xlink:href="#b" x="306.199" y="21.908" style="fill:#000;fill-opacity:1"/><use xlink:href="#c" x="310.879" y="21.908" style="fill:#000;fill-opacity:1"/><use xlink:href="#a" x="316.639" y="21.908" style="fill:#000;fill-opacity:1"/><use xlink:href="#d" x="325.879" y="21.908" style="fill:#000;fill-opacity:1"/><use xlink:href="#e" x="339.079" y="21.908" style="fill:#000;fill-opacity:1"/><use xlink:href="#f" x="344.599" y="21.908" style="fill:#000;fill-opacity:1"/><use xlink:href="#g" x="349.039" y="21.908" style="fill:#000;fill-opacity:1"/><use xlink:href="#h" x="354.559" y="23.708" style="fill:#000;fill-opacity:1"/><use xlink:href="#q" x="357.319" y="23.708" style="fill:#000;fill-opacity:1"/><use xlink:href="#o" x="363.199" y="23.708" style="fill:#000;fill-opacity:1"/><use xlink:href="#i" x="368.119" y="21.908" style="fill:#000;fill-opacity:1"/><use xlink:href="#j" x="372.199" y="21.908" style="fill:#000;fill-opacity:1"/><use xlink:href="#k" x="380.839" y="21.908" style="fill:#000;fill-opacity:1"/><use xlink:href="#h" x="387.439" y="23.708" style="fill:#000;fill-opacity:1"/><use xlink:href="#q" x="390.199" y="23.708" style="fill:#000;fill-opacity:1"/><use xlink:href="#o" x="396.079" y="23.708" style="fill:#000;fill-opacity:1"/><use xlink:href="#d" x="325.879" y="42.852" style="fill:#000;fill-opacity:1"/><use xlink:href="#l" x="337.518" y="42.852" style="fill:#000;fill-opacity:1"/><use xlink:href="#f" x="344.598" y="42.852" style="fill:#000;fill-opacity:1"/><use xlink:href="#k" x="349.038" y="42.852" style="fill:#000;fill-opacity:1"/><use xlink:href="#h" x="355.639" y="44.652" style="fill:#000;fill-opacity:1"/><use xlink:href="#q" x="358.399" y="44.652" style="fill:#000;fill-opacity:1"/><use xlink:href="#o" x="364.279" y="44.652" style="fill:#000;fill-opacity:1"/><use xlink:href="#i" x="369.319" y="42.852" style="fill:#000;fill-opacity:1"/><use xlink:href="#m" x="376.158" y="42.852" style="fill:#000;fill-opacity:1"/><use xlink:href="#l" x="386.958" y="42.852" style="fill:#000;fill-opacity:1"/><use xlink:href="#f" x="394.039" y="42.852" style="fill:#000;fill-opacity:1"/><use xlink:href="#k" x="398.478" y="42.852" style="fill:#000;fill-opacity:1"/><use xlink:href="#h" x="405.078" y="44.652" style="fill:#000;fill-opacity:1"/><use xlink:href="#i" x="408.558" y="42.852" style="fill:#000;fill-opacity:1"/><path d="m3341.094 1033.203-94.727-454.765" style="fill:none;stroke-width:7.9701;stroke-linecap:butt;stroke-linejoin:miter;stroke:#000;stroke-opacity:1;stroke-miterlimit:10" transform="matrix(.1 0 0 -.1 0 161)"/><path d="m324.805 102.352.043-7.547-.211 8.351 3.136-7.742z" style="stroke:none;fill-rule:nonzero;fill:#000;fill-opacity:1"/><path d="m3248.047 586.484.43 75.47-2.11-83.516 31.367 77.421zm0 0" style="fill:none;stroke-width:7.9701;stroke-linecap:butt;stroke-linejoin:miter;stroke:#000;stroke-opacity:1;stroke-miterlimit:10" transform="matrix(.1 0 0 -.1 0 161)"/><use xlink:href="#k" x="33.62" y="125.265" style="fill:#000;fill-opacity:1"/><use xlink:href="#h" x="40.22" y="127.065" style="fill:#000;fill-opacity:1"/><use xlink:href="#n" x="42.98" y="127.065" style="fill:#000;fill-opacity:1"/><use xlink:href="#p" x="48.86" y="127.065" style="fill:#000;fill-opacity:1"/><use xlink:href="#k" x="159.937" y="125.265" style="fill:#000;fill-opacity:1"/><use xlink:href="#h" x="166.537" y="127.065" style="fill:#000;fill-opacity:1"/><use xlink:href="#n" x="169.297" y="127.065" style="fill:#000;fill-opacity:1"/><use xlink:href="#o" x="175.177" y="127.065" style="fill:#000;fill-opacity:1"/><use xlink:href="#k" x="291.414" y="125.265" style="fill:#000;fill-opacity:1"/><use xlink:href="#h" x="298.014" y="127.065" style="fill:#000;fill-opacity:1"/><use xlink:href="#k" x="412.571" y="125.265" style="fill:#000;fill-opacity:1"/><use xlink:href="#h" x="419.171" y="127.065" style="fill:#000;fill-opacity:1"/><use xlink:href="#q" x="421.932" y="127.065" style="fill:#000;fill-opacity:1"/><use xlink:href="#o" x="427.812" y="127.065" style="fill:#000;fill-opacity:1"/><path d="M435.82 1510.586h-9.492m-18.945 0h-9.492m1301.093-255.703h-29.609m-59.141 0h-29.53m-.001 0h-29.57m-59.141 0h-29.57m0 0h-29.57m-59.18 0h-29.531m-.001 0h-29.57m-59.14 0h-29.57m0 0h-29.57m-59.142 0h-29.57m0 0h-29.57m-59.141 0h-29.57m0 0h-29.57m-59.141 0h-29.57m0 0h-29.57m-59.141 0h-29.57m-.001 0h-29.57m-59.141 0h-29.57m0 0h-29.57m-59.141 0h-29.57m0 0h-29.57m-59.142 0h-29.57M2962.148 675.86h-18.945m-37.89 0h-18.946m-2336.875 0h-18.945m-37.93 0h-18.945m0 0h-18.945m-37.891 0H397.89" style="fill:none;stroke-width:3.985;stroke-linecap:butt;stroke-linejoin:miter;stroke:#000;stroke-opacity:1;stroke-miterlimit:10" transform="matrix(.1 0 0 -.1 0 161)"/><use xlink:href="#e" x="2.565" y="12.82" style="fill:#000;fill-opacity:1"/><use xlink:href="#f" x="8.085" y="12.82" style="fill:#000;fill-opacity:1"/><use xlink:href="#g" x="12.525" y="12.82" style="fill:#000;fill-opacity:1"/><use xlink:href="#h" x="18.045" y="14.62" style="fill:#000;fill-opacity:1"/><use xlink:href="#n" x="20.805" y="14.62" style="fill:#000;fill-opacity:1"/><use xlink:href="#o" x="26.685" y="14.62" style="fill:#000;fill-opacity:1"/><use xlink:href="#i" x="31.725" y="12.82" style="fill:#000;fill-opacity:1"/><use xlink:href="#e" x="12.765" y="38.391" style="fill:#000;fill-opacity:1"/><use xlink:href="#f" x="18.285" y="38.391" style="fill:#000;fill-opacity:1"/><use xlink:href="#g" x="22.725" y="38.391" style="fill:#000;fill-opacity:1"/><use xlink:href="#h" x="28.245" y="40.191" style="fill:#000;fill-opacity:1"/><use xlink:href="#i" x="31.725" y="38.391" style="fill:#000;fill-opacity:1"/><use xlink:href="#e" x="2.565" y="96.294" style="fill:#000;fill-opacity:1"/><use xlink:href="#f" x="8.085" y="96.294" style="fill:#000;fill-opacity:1"/><use xlink:href="#g" x="12.524" y="96.294" style="fill:#000;fill-opacity:1"/><use xlink:href="#h" x="18.045" y="98.094" style="fill:#000;fill-opacity:1"/><use xlink:href="#q" x="20.805" y="98.094" style="fill:#000;fill-opacity:1"/><use xlink:href="#o" x="26.685" y="98.094" style="fill:#000;fill-opacity:1"/><use xlink:href="#i" x="31.725" y="96.294" style="fill:#000;fill-opacity:1"/><path d="M757.89 1510.586v-25.547m0-51.172v-25.586m0 0v-25.547m0-51.171v-25.586m0 0v-25.586m0-51.133v-25.547m0-.001v-25.585m0-51.172v-25.547m0 0v-25.586m0-51.172v-25.585m0-466.094v-22.735m0-45.468V442.03" style="fill:none;stroke-width:3.985;stroke-linecap:butt;stroke-linejoin:miter;stroke:#000;stroke-opacity:1;stroke-miterlimit:10" transform="matrix(.1 0 0 -.1 0 161)"/><use xlink:href="#g" x="66.43" y="125.265" style="fill:#000;fill-opacity:1"/><use xlink:href="#h" x="71.95" y="127.065" style="fill:#000;fill-opacity:1"/><use xlink:href="#n" x="74.71" y="127.065" style="fill:#000;fill-opacity:1"/><use xlink:href="#o" x="80.59" y="127.065" style="fill:#000;fill-opacity:1"/><path d="M2343.203 1254.883v-21.29m0-42.655v-21.29m0 0v-21.367m0-42.617v-21.328m0 0v-21.29m0-42.656v-21.327m0-466.094v-22.735m0-45.468V442.03" style="fill:none;stroke-width:3.985;stroke-linecap:butt;stroke-linejoin:miter;stroke:#000;stroke-opacity:1;stroke-miterlimit:10" transform="matrix(.1 0 0 -.1 0 161)"/><use xlink:href="#g" x="230.12" y="125.265" style="fill:#000;fill-opacity:1"/><use xlink:href="#h" x="235.64" y="127.065" style="fill:#000;fill-opacity:1"/><path d="M3530.586 675.86v-29.22m0-58.476v-29.219m0 0v-29.218m0-58.477v-29.219" style="fill:none;stroke-width:3.985;stroke-linecap:butt;stroke-linejoin:miter;stroke:#000;stroke-opacity:1;stroke-miterlimit:10" transform="matrix(.1 0 0 -.1 0 161)"/><use xlink:href="#g" x="343.697" y="125.265" style="fill:#000;fill-opacity:1"/><use xlink:href="#h" x="349.217" y="127.065" style="fill:#000;fill-opacity:1"/><use xlink:href="#q" x="351.977" y="127.065" style="fill:#000;fill-opacity:1"/><use xlink:href="#o" x="357.857" y="127.065" style="fill:#000;fill-opacity:1"/><path d="M1067.383 237.383H435.82" style="fill:none;stroke-width:3.985;stroke-linecap:butt;stroke-linejoin:miter;stroke:#000;stroke-opacity:1;stroke-miterlimit:10" transform="matrix(.1 0 0 -.1 0 161)"/><path d="m44.402 137.262 7.395-1.496-8.215 1.496 8.215 1.492z" style="stroke:none;fill-rule:nonzero;fill:#000;fill-opacity:1"/><path d="m444.023 237.383 73.946 14.96-82.149-14.96 82.149-14.922zm623.36 0h631.601" style="fill:none;stroke-width:3.985;stroke-linecap:butt;stroke-linejoin:miter;stroke:#000;stroke-opacity:1;stroke-miterlimit:10" transform="matrix(.1 0 0 -.1 0 161)"/><path d="m169.074 137.262-7.398 1.492 8.222-1.492-8.222-1.496z" style="stroke:none;fill-rule:nonzero;fill:#000;fill-opacity:1"/><path d="m1690.742 237.383-73.984-14.922 82.226 14.922-82.226 14.96zm0 0" style="fill:none;stroke-width:3.985;stroke-linecap:butt;stroke-linejoin:miter;stroke:#000;stroke-opacity:1;stroke-miterlimit:10" transform="matrix(.1 0 0 -.1 0 161)"/><use xlink:href="#j" x="92.338" y="149.646" style="fill:#000;fill-opacity:1"/><use xlink:href="#k" x="100.978" y="149.646" style="fill:#000;fill-opacity:1"/><use xlink:href="#h" x="107.578" y="151.446" style="fill:#000;fill-opacity:1"/><use xlink:href="#n" x="110.338" y="151.446" style="fill:#000;fill-opacity:1"/><use xlink:href="#o" x="116.218" y="151.446" style="fill:#000;fill-opacity:1"/><path d="M2330.547 237.383h-631.563" style="fill:none;stroke-width:3.985;stroke-linecap:butt;stroke-linejoin:miter;stroke:#000;stroke-opacity:1;stroke-miterlimit:10" transform="matrix(.1 0 0 -.1 0 161)"/><path d="m170.719 137.262 7.398-1.496-8.219 1.496 8.22 1.492-7.4-1.492" style="stroke:none;fill-rule:nonzero;fill:#000;fill-opacity:1"/><path d="m1707.188 237.383 73.984 14.96-82.188-14.96 82.188-14.922zm623.359 0h631.601" style="fill:none;stroke-width:3.985;stroke-linecap:butt;stroke-linejoin:miter;stroke:#000;stroke-opacity:1;stroke-miterlimit:10" transform="matrix(.1 0 0 -.1 0 161)"/><path d="m295.39 137.262-7.394 1.492 8.219-1.492-8.219-1.496z" style="stroke:none;fill-rule:nonzero;fill:#000;fill-opacity:1"/><path d="m2953.906 237.383-73.945-14.922 82.187 14.922-82.187 14.96zm0 0" style="fill:none;stroke-width:3.985;stroke-linecap:butt;stroke-linejoin:miter;stroke:#000;stroke-opacity:1;stroke-miterlimit:10" transform="matrix(.1 0 0 -.1 0 161)"/><use xlink:href="#j" x="223.816" y="149.646" style="fill:#000;fill-opacity:1"/><use xlink:href="#k" x="232.456" y="149.646" style="fill:#000;fill-opacity:1"/><use xlink:href="#h" x="239.056" y="151.446" style="fill:#000;fill-opacity:1"/><path d="M3593.71 237.383h-631.562" style="fill:none;stroke-width:3.985;stroke-linecap:butt;stroke-linejoin:miter;stroke:#000;stroke-opacity:1;stroke-miterlimit:10" transform="matrix(.1 0 0 -.1 0 161)"/><path d="m297.035 137.262 7.399-1.496-8.22 1.496 8.22 1.492z" style="stroke:none;fill-rule:nonzero;fill:#000;fill-opacity:1"/><path d="m2970.352 237.383 73.984 14.96-82.188-14.96 82.188-14.922zm623.358 0h631.602" style="fill:none;stroke-width:3.985;stroke-linecap:butt;stroke-linejoin:miter;stroke:#000;stroke-opacity:1;stroke-miterlimit:10" transform="matrix(.1 0 0 -.1 0 161)"/><path d="m421.71 137.262-7.397 1.492 8.218-1.492-8.219-1.496 7.399 1.496" style="stroke:none;fill-rule:nonzero;fill:#000;fill-opacity:1"/><path d="m4217.11 237.383-73.985-14.922 82.188 14.922-82.188 14.96zm0 0" style="fill:none;stroke-width:3.985;stroke-linecap:butt;stroke-linejoin:miter;stroke:#000;stroke-opacity:1;stroke-miterlimit:10" transform="matrix(.1 0 0 -.1 0 161)"/><use xlink:href="#j" x="344.973" y="149.646" style="fill:#000;fill-opacity:1"/><use xlink:href="#k" x="353.613" y="149.646" style="fill:#000;fill-opacity:1"/><use xlink:href="#h" x="360.213" y="151.446" style="fill:#000;fill-opacity:1"/><use xlink:href="#q" x="362.973" y="151.446" style="fill:#000;fill-opacity:1"/><use xlink:href="#o" x="368.853" y="151.446" style="fill:#000;fill-opacity:1"/><use xlink:href="#r" x="193.19" y="15.087" style="fill:#000;fill-opacity:1"/><use xlink:href="#d" x="203.03" y="15.087" style="fill:#000;fill-opacity:1"/><use xlink:href="#e" x="216.11" y="15.087" style="fill:#000;fill-opacity:1"/><use xlink:href="#f" x="221.63" y="15.087" style="fill:#000;fill-opacity:1"/><use xlink:href="#k" x="226.07" y="15.087" style="fill:#000;fill-opacity:1"/><use xlink:href="#i" x="232.67" y="15.087" style="fill:#000;fill-opacity:1"/><use xlink:href="#d" x="240.23" y="15.087" style="fill:#000;fill-opacity:1"/><use xlink:href="#l" x="251.75" y="15.087" style="fill:#000;fill-opacity:1"/><use xlink:href="#s" x="258.71" y="10.767" style="fill:#000;fill-opacity:1"/><use xlink:href="#f" x="262.19" y="15.087" style="fill:#000;fill-opacity:1"/><use xlink:href="#k" x="266.63" y="15.087" style="fill:#000;fill-opacity:1"/><use xlink:href="#i" x="273.23" y="15.087" style="fill:#000;fill-opacity:1"/></svg>