<svg xmlns="http://www.w3.org/2000/svg" xmlns:xlink="http://www.w3.org/1999/xlink" width="290pt" height="110pt" viewBox="0 0 290 110"><defs><symbol id="a" overflow="visible"><path d="m3.813-5.219-1.641.078v-.453c0-.5.047-.937.14-1.703l-.156-.125c-.281.172-.64.328-1.015.453.046.36.046.578.046.938v.843l-.921.422v.25l.906-.046v3.437c0 .89.39 1.266 1.312 1.266.282 0 .563-.063.641-.141l.563-.64-.157-.204c-.297.172-.469.235-.703.235-.469 0-.656-.235-.656-.829v-3.125h1.531zm0 0" style="stroke:none"/></symbol><symbol id="b" overflow="visible"><path d="M6.5-5.156v-.328c-.375.015-.75.03-1.14.03-.376 0-.75-.015-1.126-.03v.328l.313.031c.36.016.516.11.516.297 0 .078-.047.172-.094.312L3.547-1.03c-.266-.453-.375-.719-.61-1.313l-.765-2c-.063-.203-.11-.36-.11-.484 0-.188.11-.281.407-.297l.453-.031v-.328c-.469.015-.922.03-1.39.03-.47 0-.923-.015-1.391-.03v.328l.218.031c.297.031.454.172.625.578L2.954.281l-.282.735c-.375 1-.844 1.562-1.297 1.562-.188 0-.406-.094-.61-.265H.61l-.28.89c.218.125.405.172.64.172.797 0 1.312-.422 1.765-1.469l2.422-5.593c.485-1.079.719-1.422 1.016-1.438zm0 0" style="stroke:none"/></symbol><symbol id="c" overflow="visible"><path d="M6.625-3.234c0-1.329-1.11-2.375-2.484-2.375-.454 0-.875.125-1.063.296l-.984.907v-1.157l-.11-.046a7.3 7.3 0 0 1-1.859.5v.328h.438c.484 0 .53.078.53.875v6.015c0 .75-.046.829-.452.86L.094 3v.36c.5-.032 1-.032 1.5-.032s.984 0 1.484.031V3l-.547-.031c-.406-.031-.437-.11-.437-.86V-.156c.36.218.734.297 1.281.297.344 0 .656-.063.844-.188l1.36-.89c.484-.313 1.046-1.532 1.046-2.297m-1.047.437c0 1.344-.797 2.328-1.875 2.328-.656 0-1.14-.219-1.61-.703v-2.484c0-.172.063-.297.22-.5.343-.453.828-.672 1.421-.672 1.125 0 1.844.781 1.844 2.031m0 0" style="stroke:none"/></symbol><symbol id="d" overflow="visible"><path d="M5.36-3.328c0-1.375-.891-2.281-2.235-2.281-.438 0-.953.156-1.438.453C.704-4.61.313-3.86.313-2.625c0 .766.172 1.406.5 1.86.47.64 1.282 1 2.172 1 .454 0 .891-.094 1.375-.313.329-.125.579-.281.625-.36l.235-.406-.157-.11c-.765.454-1.03.563-1.546.563-.782 0-1.422-.343-1.766-.937-.219-.39-.297-.734-.328-1.422h1.75c.828 0 1.328-.031 2.156-.172.016-.156.031-.265.031-.406m-1.063.14-1.344.032c-.547 0-.86-.016-1.5-.078 0-.563.047-.813.203-1.125a1.47 1.47 0 0 1 1.328-.86c.391 0 .704.157.922.485.266.39.39.734.39 1.546zm0 0" style="stroke:none"/></symbol><symbol id="e" overflow="visible"><path d="M3.766.031v-.36l-.579-.03c-.546-.032-.609-.125-.609-1.079v-5.359c0-.953.063-1.047.61-1.078l.578-.031v-.36c-.594.016-1.172.032-1.75.032-.594 0-1.172-.016-1.75-.032v.36l.578.031c.547.031.61.125.61 1.078v5.36c0 .953-.063 1.046-.61 1.078l-.578.03v.36C.844.016 1.422 0 2.016 0c.578 0 1.156.016 1.75.031m0 0" style="stroke:none"/></symbol></defs><path d="m10 276.797 36.016 5.43 35.976 1.406 36.016-1.992 35.976-4.844L190 269.648l36.016-8.867 36.015-10 71.953-21.172 36.016-10 36.016-8.867 36.015-7.148 35.977-4.844 35.976-2.031L550 198.164l36.016 5.43 36.015 10 35.977 15.156 36.015 20.86L730 276.796M10 1092.5l36.016-29.805 35.976-23.554 36.016-17.813 35.976-12.695 36.016-8.086 36.016-4.102 36.015-.664 35.977 2.188 35.976 4.492 36.016 6.172 36.016 7.344 36.015 7.93 35.977 7.89 35.976 7.344 36.016 6.21 36.016 4.454 36.015 2.187 35.977-.664 36.015-4.062L730 1039.14M10 276.797V1092.5m720-815.703v762.344" style="fill:none;stroke-width:7.9701;stroke-linecap:butt;stroke-linejoin:miter;stroke:#000;stroke-opacity:1;stroke-miterlimit:10" transform="matrix(.1 0 0 -.1 0 110)"/><path d="M81.992 283.633v755.508m71.992-762.344v731.836m72.032-747.852v735.664m71.992-756.25V997.97M370 219.61v789.023m72.031-805.039v820.312m71.953-827.187v842.422m72.032-835.547v846.21m71.992-821.054v822.578" style="fill:none;stroke-width:3.985;stroke-linecap:butt;stroke-linejoin:miter;stroke:#000;stroke-opacity:1;stroke-miterlimit:10" transform="matrix(.1 0 0 -.1 0 110)"/><path d="m1090.04 276.797 5.116 38.086 1.328 38.125-1.875 38.125-4.57 38.125-6.758 38.125-8.398 38.125-9.414 38.086-20 76.25-9.453 38.125-8.36 38.086-6.758 38.125-4.609 38.125-1.875 38.125 1.367 38.125 5.117 38.125 9.454 38.125 14.296 38.086 19.727 38.125 25.664 38.125m820.781-762.344-56.328 38.086-44.453 38.125-33.672 38.125-23.945 38.125-15.313 38.125-7.734 38.125-1.25 38.086 4.14 38.125 8.438 38.125 11.719 38.125 13.867 38.086 14.922 38.125 14.96 38.125 13.868 38.125 11.68 38.125 8.476 38.125 4.14 38.125-1.288 38.086-7.735 38.125-15.273 38.125M1090.04 276.797h820.78m-820.78 762.343h720" style="fill:none;stroke-width:7.9701;stroke-linecap:butt;stroke-linejoin:miter;stroke:#000;stroke-opacity:1;stroke-miterlimit:10" transform="matrix(.1 0 0 -.1 0 110)"/><path d="M1096.484 353.008h713.555m-719.999 76.25h662.382m-677.539 76.25h654.492m-673.906 76.211h676.797m-696.25 76.25h716.406m-731.524 76.211h760.313m-766.797 76.25h795.625m-789.141 76.25h809.297m-785.547 76.21h788.399" style="fill:none;stroke-width:3.985;stroke-linecap:butt;stroke-linejoin:miter;stroke:#000;stroke-opacity:1;stroke-miterlimit:10" transform="matrix(.1 0 0 -.1 0 110)"/><path d="m2170.04 657.969 35.976-68.828 36.015-61.524 35.977-54.336 36.015-47.07 36.016-39.844 35.977-32.578 36.015-25.351 36.016-18.125 35.976-10.86 36.016-3.594 36.016 3.594 35.976 10.86 36.016 18.125 35.976 25.351 36.016 32.578 36.016 39.844 35.976 47.07 36.016 54.336 35.976 61.524 36.016 68.828m-719.999 0 35.976 41.875 36.015 41.523 35.977 40.82 36.015 39.649 36.016 38.008 35.977 35.82 36.015 33.008 36.016 29.531 35.976 25.274 36.016 20.156 36.016 14.062 35.976 6.992 36.016-1.25 35.976-10.859 36.016-21.758 36.016-34.258 35.976-48.437 36.016-64.531 35.976-82.617 36.016-103.008" style="fill:none;stroke-width:7.9701;stroke-linecap:butt;stroke-linejoin:miter;stroke:#000;stroke-opacity:1;stroke-miterlimit:10" transform="matrix(.1 0 0 -.1 0 110)"/><path d="M2242.031 527.617v213.75m71.992-315.157v395.626m71.993-468.046v541.874m72.031-585.351v647.89m71.993-662.343v707.773m71.991-693.32v714.375m71.992-670.898v658.788m72.032-586.368v530.353m71.992-428.946v315.977M2387.46 353.008h285.86m-361.445 76.25h437.031m-492.461 76.25h547.93m-594.023 76.211h640.078m-680.39 76.25h720m-653.75 76.211h628.554m-560.899 76.25h529.922m-456.484 76.25h418.32m-331.211 76.21h276.524" style="fill:none;stroke-width:3.985;stroke-linecap:butt;stroke-linejoin:miter;stroke:#000;stroke-opacity:1;stroke-miterlimit:10" transform="matrix(.1 0 0 -.1 0 110)"/><use xlink:href="#a" x="21.761" y="105.97" style="fill:#000;fill-opacity:1"/><use xlink:href="#b" x="25.601" y="105.97" style="fill:#000;fill-opacity:1"/><use xlink:href="#c" x="32.201" y="105.97" style="fill:#000;fill-opacity:1"/><use xlink:href="#d" x="39.401" y="105.97" style="fill:#000;fill-opacity:1"/><use xlink:href="#e" x="48.161" y="105.97" style="fill:#000;fill-opacity:1"/><use xlink:href="#a" x="127.723" y="105.97" style="fill:#000;fill-opacity:1"/><use xlink:href="#b" x="131.562" y="105.97" style="fill:#000;fill-opacity:1"/><use xlink:href="#c" x="138.162" y="105.97" style="fill:#000;fill-opacity:1"/><use xlink:href="#d" x="145.362" y="105.97" style="fill:#000;fill-opacity:1"/><use xlink:href="#e" x="154.243" y="105.97" style="fill:#000;fill-opacity:1"/><use xlink:href="#e" x="158.323" y="105.97" style="fill:#000;fill-opacity:1"/><use xlink:href="#a" x="233.684" y="105.97" style="fill:#000;fill-opacity:1"/><use xlink:href="#b" x="237.524" y="105.97" style="fill:#000;fill-opacity:1"/><use xlink:href="#c" x="244.124" y="105.97" style="fill:#000;fill-opacity:1"/><use xlink:href="#d" x="251.324" y="105.97" style="fill:#000;fill-opacity:1"/><use xlink:href="#e" x="260.204" y="105.97" style="fill:#000;fill-opacity:1"/><use xlink:href="#e" x="264.284" y="105.97" style="fill:#000;fill-opacity:1"/><use xlink:href="#e" x="268.364" y="105.97" style="fill:#000;fill-opacity:1"/></svg>