<svg xmlns="http://www.w3.org/2000/svg" xmlns:xlink="http://www.w3.org/1999/xlink" width="182pt" height="95pt" viewBox="0 0 182 95"><defs><symbol id="a" overflow="visible"><path d="M4.563.031v-.328l-.579-.031c-.593-.031-.703-.156-.703-.719v-6.469l-.156-.046c-.703.359-1.484.687-2.469 1.046l.078.47h.11c.469-.22.953-.438 1.437-.657.063 0 .078.11.078.36v5.296c0 .563-.109.688-.703.719l-.61.031v.328A69 69 0 0 1 2.845 0c.562 0 1.14.016 1.719.031zm0 0" style="stroke:none"/></symbol><symbol id="b" overflow="visible"><path d="M2-.578c0-.328-.313-.625-.64-.625a.65.65 0 0 0-.626.625c0 .328.297.625.61.625C1.687.047 2-.234 2-.578m0 0" style="stroke:none"/></symbol><symbol id="c" overflow="visible"><path d="M5-2.766c0-1.218-.875-2.093-2.125-2.093-.516 0-.906.14-1.594.546l.11-2.28 3.328.046.047-.047c-.016-.203-.016-.265-.016-.437s0-.235.016-.422l-.047-.063s-1.157.063-1.907.063c-.734 0-1.89-.063-1.89-.063l-.063.063.032 1.484a42 42 0 0 1-.079 2.453l.22.063c.515-.5.812-.656 1.343-.656 1.047 0 1.703.734 1.703 1.921 0 1.204-.703 1.922-1.89 1.922-.579 0-1.126-.203-1.282-.484l-.5-.89-.265.14c.25.625.39.969.53 1.453.313.172.75.266 1.22.266.734 0 1.5-.313 2.093-.844C4.656-1.203 5-1.953 5-2.765zm0 0" style="stroke:none"/></symbol><symbol id="d" overflow="visible"><path d="M5.11.031c-.032-.234-.032-.344-.032-.484s0-.25.031-.5l-3.78.11 1.984-2.095c1.062-1.124 1.39-1.734 1.39-2.546 0-1.25-.86-2.032-2.234-2.032-.797 0-1.328.22-1.86.766L.422-5.266h.312l.157-.5c.171-.64.562-.906 1.296-.906.938 0 1.532.594 1.532 1.516 0 .812-.453 1.625-1.688 2.937L.171-.25v.281C.985.016 1.798 0 2.61 0c.829 0 1.672.016 2.5.031m0 0" style="stroke:none"/></symbol><symbol id="e" overflow="visible"><path d="M5.031-2.438c0-.53-.203-.984-.61-1.265-.265-.188-.515-.281-1.062-.375.875-.672 1.204-1.172 1.204-1.828 0-.969-.813-1.61-2.016-1.61-.75 0-1.235.204-1.766.735L.47-5.438h.344L1-6.046c.125-.36.813-.734 1.375-.734.719 0 1.297.578 1.297 1.265 0 .813-.656 1.5-1.422 1.5-.094 0-.516-.03-.516-.03l-.125.577.063.063c.422-.188.625-.235.922-.235.906 0 1.437.579 1.437 1.563 0 1.125-.672 1.844-1.687 1.844-.5 0-.953-.157-1.281-.47-.25-.234-.391-.484-.61-1.077l-.297.11C.391-1 .484-.61.546-.063q.87.28 1.454.281c1.328 0 3.031-1.14 3.031-2.655zm0 0" style="stroke:none"/></symbol><symbol id="f" overflow="visible"><path d="M5.078-3.984c0-2.391-.719-3.532-2.203-3.532C1.172-7.516.312-6.172.312-3.53c0 1.281.235 2.375.61 2.906.39.531 1 .844 1.672.844 1.656 0 2.484-1.422 2.484-4.203zm-.922.53c0 2.329-.422 3.298-1.422 3.298-1.062 0-1.5-1.11-1.5-3.766 0-2.312.407-3.203 1.438-3.203 1.062 0 1.484 1.063 1.484 3.672zm0 0" style="stroke:none"/></symbol></defs><path d="M296.21 155.625a1.976 1.976 0 0 1-1.991 1.992 1.976 1.976 0 0 1-1.992-1.992 2 2 0 0 1 1.992-1.992 2 2 0 0 1 1.992 1.992zm112.735 0a1.976 1.976 0 0 1-1.992 1.992 1.976 1.976 0 0 1-1.992-1.992 2 2 0 0 1 1.992-1.992 2 2 0 0 1 1.992 1.992zm112.735 0a1.976 1.976 0 0 1-1.992 1.992 1.976 1.976 0 0 1-1.993-1.992 2 2 0 0 1 1.992-1.992 2 2 0 0 1 1.993 1.992zm112.734 0a1.976 1.976 0 0 1-1.992 1.992 1.976 1.976 0 0 1-1.992-1.992 2 2 0 0 1 1.992-1.992 2 2 0 0 1 1.992 1.992zm112.734 0a1.976 1.976 0 0 1-1.992 1.992 1.976 1.976 0 0 1-1.992-1.992 2 2 0 0 1 1.992-1.992 2 2 0 0 1 1.992 1.992zm112.735 0a1.976 1.976 0 0 1-1.992 1.992 1.976 1.976 0 0 1-1.993-1.992 2 2 0 0 1 1.993-1.992 2 2 0 0 1 1.992 1.992zm112.734 0a1.976 1.976 0 0 1-1.992 1.992 1.976 1.976 0 0 1-1.992-1.992 2 2 0 0 1 1.992-1.992 2 2 0 0 1 1.992 1.992zm112.735 0a1.976 1.976 0 0 1-1.993 1.992 1.976 1.976 0 0 1-1.992-1.992 2 2 0 0 1 1.992-1.992 2 2 0 0 1 1.993 1.992zm112.734 0a1.976 1.976 0 0 1-1.992 1.992c-1.133 0-1.992-.86-1.992-1.992 0-1.094.859-1.992 1.992-1.992a2 2 0 0 1 1.992 1.992zm112.695 0a1.976 1.976 0 0 1-1.992 1.992 1.976 1.976 0 0 1-1.992-1.992 2 2 0 0 1 1.992-1.992 2 2 0 0 1 1.992 1.992zm112.735 0a1.976 1.976 0 0 1-1.993 1.992 1.976 1.976 0 0 1-1.992-1.992 2 2 0 0 1 1.992-1.992 2 2 0 0 1 1.993 1.992zm112.734 0a1.976 1.976 0 0 1-1.992 1.992 1.976 1.976 0 0 1-1.992-1.992 2 2 0 0 1 1.992-1.992 2 2 0 0 1 1.992 1.992zm112.734 0a1.976 1.976 0 0 1-1.992 1.992 1.976 1.976 0 0 1-1.992-1.992 2 2 0 0 1 1.992-1.992 2 2 0 0 1 1.992 1.992zm0 0" style="fill-rule:nonzero;fill:#000;fill-opacity:1;stroke-width:3.985;stroke-linecap:butt;stroke-linejoin:miter;stroke:#000;stroke-opacity:1;stroke-miterlimit:10" transform="matrix(.1 0 0 -.1 0 95)"/><path d="M23.535 76.45h.602v6h-.602zm73.274 0h.601v6h-.601zm73.277 0h.601v6h-.601zm0 0" style="stroke:none;fill-rule:nonzero;fill:#000;fill-opacity:1"/><path d="M237.852 155.625v708.203" style="fill:none;stroke-width:3.985;stroke-linecap:butt;stroke-linejoin:miter;stroke:#000;stroke-opacity:1;stroke-miterlimit:10" transform="matrix(.1 0 0 -.1 0 95)"/><path d="M20.773 79.09h6v.601h-6zm0-23.61h6v.602h-6zm0-23.605h6v.602h-6zm0-23.605h6v.601h-6zm0 0" style="stroke:none;fill-rule:nonzero;fill:#000;fill-opacity:1"/><use xlink:href="#a" x="6.121" y="83.156" style="fill:#000;fill-opacity:1"/><use xlink:href="#b" x="11.521" y="83.156" style="fill:#000;fill-opacity:1"/><use xlink:href="#c" x="14.281" y="83.156" style="fill:#000;fill-opacity:1"/><use xlink:href="#d" x="14.401" y="59.549" style="fill:#000;fill-opacity:1"/><use xlink:href="#d" x="6.121" y="35.823" style="fill:#000;fill-opacity:1"/><use xlink:href="#b" x="11.521" y="35.823" style="fill:#000;fill-opacity:1"/><use xlink:href="#c" x="14.281" y="35.823" style="fill:#000;fill-opacity:1"/><use xlink:href="#e" x="14.401" y="12.216" style="fill:#000;fill-opacity:1"/><use xlink:href="#f" x="21.026" y="90.862" style="fill:#000;fill-opacity:1"/><use xlink:href="#a" x="167.576" y="91.102" style="fill:#000;fill-opacity:1"/><path d="m237.852 155.625 732.773 236.094m0 118.008 244.219 78.71m0 59.023 122.148 39.337m0 29.493 73.281 23.593m0 14.765 48.829 15.743m0 7.382 34.921 11.25m0 3.672 26.172 8.438m0 1.836 20.352 6.562m0 .899 16.289 5.273m0 .469 13.281 4.297m0 .234 11.133 3.555m0 .117 9.375 3.047m0 .038 8.047 2.58m0 .038 6.992 2.266m0 0 6.094 1.992m0 0 5.43 1.719m0 0 4.765 1.562m0 0 4.258 1.367m-.001 0 3.907 1.25m0 0 73.242 23.594" style="fill:none;stroke-width:7.9701;stroke-linecap:butt;stroke-linejoin:miter;stroke:#000;stroke-opacity:1;stroke-miterlimit:10" transform="matrix(.1 0 0 -.1 0 95)"/></svg>