<svg xmlns="http://www.w3.org/2000/svg" xmlns:xlink="http://www.w3.org/1999/xlink" width="220pt" height="166pt" viewBox="0 0 220 166"><defs><symbol id="a" overflow="visible"><path d="m6.14-1.016-.109-.218-.312.203c-.36.234-.61.36-.735.36-.078 0-.156-.11-.156-.235 0-.063.016-.188.031-.235l.782-3.312a4.5 4.5 0 0 0 .125-.875c0-.281-.125-.438-.36-.438-.5 0-1.328.454-2.031 1.11-.453.422-.797.828-1.422 1.703l.469-1.922a2.3 2.3 0 0 0 .062-.484c0-.266-.093-.407-.265-.407-.266 0-.719.266-1.594.891l-.344.234.094.235.375-.25c.438-.282.484-.297.563-.297.14 0 .218.125.218.297 0 .61-.484 2.922-.984 4.625l.094.14c.296-.078.562-.156.828-.203.234-1.515.484-2.281 1.031-3.11.656-1 1.547-1.75 2.078-1.75.125 0 .203.11.203.298 0 .203-.031.453-.125.843L4.031-1.28c-.11.437-.156.718-.156.906 0 .297.125.484.36.484.312 0 .734-.25 1.906-1.125zm0 0" style="stroke:none"/></symbol><symbol id="b" overflow="visible"><path d="M3.656.031v-.265l-.453-.032c-.484-.03-.562-.125-.562-.578v-5.203l-.125-.031a15 15 0 0 1-1.985.844l.063.375h.078c.39-.188.781-.36 1.156-.516.063 0 .078.078.078.281v4.25c0 .453-.093.547-.578.578l-.484.032V.03C1.328.016 1.813 0 2.28 0c.469 0 .922.016 1.375.031zm0 0" style="stroke:none"/></symbol><symbol id="c" overflow="visible"><path d="M.781 2.422h.656l3.58-11.313h-.672zm0 0" style="stroke:none"/></symbol><symbol id="d" overflow="visible"><path d="m4.5-.75-.078-.156-.234.156c-.25.156-.438.266-.532.266-.062 0-.11-.079-.11-.188 0-.031 0-.14.017-.172l.578-2.422c.062-.25.093-.5.093-.64 0-.203-.093-.313-.265-.313-.375 0-.985.328-1.5.813-.328.297-.578.594-1.031 1.234l.328-1.406a1.3 1.3 0 0 0 .062-.36c0-.187-.078-.28-.203-.28-.188 0-.531.187-1.172.64l-.25.172.063.187.28-.187c.329-.219.36-.219.423-.219.094 0 .156.078.156.219 0 .437-.36 2.14-.719 3.39L.47.078a6 6 0 0 1 .61-.14c.171-1.11.359-1.688.75-2.282.484-.734 1.14-1.281 1.53-1.281.094 0 .141.078.141.203 0 .156-.016.344-.094.625l-.453 1.86c-.078.328-.11.53-.11.671 0 .22.095.344.266.344.22 0 .532-.187 1.391-.828zm0 0" style="stroke:none"/></symbol></defs><path d="M132.852 238.281h28.593m57.11 0h28.593m0 0h28.555m57.149 0h28.593m0 0H390m57.148 0h28.555m0 0h28.594m57.148 0H590m0 0h28.594m57.109 0h28.594m0 0h28.555m57.148 0h28.594m0 0h28.554m57.149 0h28.555m0 0h28.593m57.149 0h28.554m0 0h28.594m57.148 0h28.555m0 0h28.594m57.109 0h28.594m0 0h28.555m57.148 0h28.594m.001 0h28.554m57.148 0h28.555m0 0h28.555m57.188 0h28.554m0 0h28.554m57.149 0h28.594m-.001 0h28.555m57.149 0h28.554m0 0h28.594m57.148 0h28.555m0 0h28.594m57.149 0h28.554m0 0h28.555m57.148 0h28.594" style="fill:none;stroke-width:3.985;stroke-linecap:butt;stroke-linejoin:miter;stroke:#000;stroke-opacity:1;stroke-miterlimit:10" transform="matrix(.1 0 0 -.1 0 166)"/><path d="M13.031 139.184h.602v6h-.602zm205.719 0h.602v6h-.602zm0 0" style="stroke:none;fill-rule:nonzero;fill:#000;fill-opacity:1"/><path d="M132.852 238.281v27.774m0 55.547v27.773m0 0v27.773m0 55.586v27.774m0 0v27.773m0 55.547v27.774m0 0v27.773m0 55.547v27.773m0 0v27.813m0 55.547v27.773m0 0v27.774m0 55.546v27.774m0 0v27.812m0 55.547v27.774m0 0v27.773m0 55.586v27.774m0 0v27.773m0 55.547v27.773m0 0v27.774m0 55.547v27.773m0 0v27.813m0 55.546v27.774m0 0v27.773m0 55.547v27.774" style="fill:none;stroke-width:3.985;stroke-linecap:butt;stroke-linejoin:miter;stroke:#000;stroke-opacity:1;stroke-miterlimit:10" transform="matrix(.1 0 0 -.1 0 166)"/><path d="M10.273 141.824h6v.602h-6zm0-133.336h6v.602h-6zm0 0" style="stroke:none;fill-rule:nonzero;fill:#000;fill-opacity:1"/><path d="m132.852 1571.602 685.742-1333.32m0-.001h1371.445" style="fill:none;stroke-width:7.9701;stroke-linecap:butt;stroke-linejoin:miter;stroke:#000;stroke-opacity:1;stroke-miterlimit:10" transform="matrix(.1 0 0 -.1 0 166)"/><path d="M142.188 238.281a9.336 9.336 0 0 1-9.336 9.336 9.336 9.336 0 0 1-9.336-9.336 9.336 9.336 0 0 1 9.336-9.336 9.336 9.336 0 0 1 9.335 9.336zm0 0" style="fill-rule:nonzero;fill:#000;fill-opacity:1;stroke-width:7.9701;stroke-linecap:butt;stroke-linejoin:miter;stroke:#000;stroke-opacity:1;stroke-miterlimit:10" transform="matrix(.1 0 0 -.1 0 166)"/><path d="M142.188 1571.602c0 5.195-4.18 9.375-9.336 9.375s-9.336-4.18-9.336-9.375a9.336 9.336 0 0 1 9.336-9.336 9.336 9.336 0 0 1 9.335 9.336zm0 0" style="fill-rule:nonzero;fill:#fff;fill-opacity:1;stroke-width:7.9701;stroke-linecap:butt;stroke-linejoin:miter;stroke:#fff;stroke-opacity:1;stroke-miterlimit:10" transform="matrix(.1 0 0 -.1 0 166)"/><path d="M142.188 1571.602c0 5.195-4.18 9.375-9.336 9.375s-9.336-4.18-9.336-9.375a9.336 9.336 0 0 1 9.336-9.336 9.336 9.336 0 0 1 9.335 9.336zm0 0" style="fill:none;stroke-width:7.9701;stroke-linecap:butt;stroke-linejoin:miter;stroke:#000;stroke-opacity:1;stroke-miterlimit:10" transform="matrix(.1 0 0 -.1 0 166)"/><use xlink:href="#a" x="2.606" y="11.598" style="fill:#000;fill-opacity:1"/><use xlink:href="#b" x="75.018" y="151.253" style="fill:#000;fill-opacity:1"/><use xlink:href="#c" x="78.138" y="153.533" style="fill:#000;fill-opacity:1"/><use xlink:href="#d" x="83.298" y="153.533" style="fill:#000;fill-opacity:1"/></svg>