<svg xmlns="http://www.w3.org/2000/svg" xmlns:xlink="http://www.w3.org/1999/xlink" width="260pt" height="152" viewBox="0 0 260 114"><defs><symbol id="a" overflow="visible"><path d="m4.86-1.016-.094-.25c-.079.079-.094.079-.157.125-.375.329-.562.438-.734.438q-.188 0-.188-.281c0-.063 0-.094.016-.125l1.11-4.532-.125-.109-.391.219c-.469-.188-.703-.235-1.016-.235-.344 0-.578.063-.906.22-.75.374-1.125.734-1.438 1.312C.422-3.172.047-1.75.047-.781c0 .5.187.906.406.906.25 0 .688-.25 1.14-.625.516-.438.985-1 1.641-1.938L2.891-.921a3 3 0 0 0-.063.61c0 .28.094.437.281.437.266 0 .766-.328 1.75-1.14zM3.811-4.953c-.265 1.281-.484 1.906-.89 2.516-.656 1-1.406 1.734-1.797 1.734-.14 0-.219-.156-.219-.485 0-.765.313-2.093.735-3.078.28-.687.578-.906 1.156-.906.281 0 .5.047 1.015.219m0 0" style="stroke:none"/></symbol><symbol id="b" overflow="visible"><path d="M5.172-4.5c0-.453-.11-.922-.25-1.094-.078-.11-.234-.172-.422-.172-.281 0-.64.094-.969.266-.61.328-1.015.688-1.75 1.625l1.032-4.75-.141-.14c-.625.312-1.063.421-1.922.5l-.047.25h.578c.282 0 .407.093.407.296 0 .078-.016.219-.032.282L.453-.845c-.016.031-.016.078-.016.11 0 .468.579.859 1.235.859.437 0 1.047-.219 1.562-.594 1.157-.81 1.938-2.452 1.938-4.03m-.86.297c0 .766-.25 1.781-.609 2.562-.39.829-.875 1.204-1.515 1.204-.547 0-.844-.266-.844-.766 0-.297.047-.64.156-1.078.219-.953.516-1.531.984-2.031.391-.407 1.016-.75 1.36-.75.312 0 .469.265.469.859zm0 0" style="stroke:none"/></symbol><symbol id="c" overflow="visible"><path d="m8.844-1.016-.125-.218-.297.203c-.36.234-.61.36-.735.36-.078 0-.156-.11-.156-.235s.016-.235.078-.485l.907-3.546a2.7 2.7 0 0 0 .078-.485c0-.203-.125-.344-.313-.344-.344 0-.797.22-1.531.735C6-4.5 5.578-4.078 5-3.25l.36-1.64a4 4 0 0 0 .077-.5c0-.235-.125-.376-.312-.376-.36 0-.906.266-1.563.766-.53.406-.765.656-1.546 1.719l.406-1.594c.047-.188.062-.375.062-.516 0-.234-.109-.375-.265-.375-.266 0-.719.25-1.594.891l-.344.234.094.235.375-.25c.438-.282.484-.297.563-.297.14 0 .218.125.218.297 0 .61-.484 2.922-.984 4.625l.031.14.828-.187.25-1.219c.297-1.328.61-2.031 1.266-2.75.515-.547 1.047-.906 1.375-.906.094 0 .14.094.14.25 0 .422-.25 1.781-.75 3.875l-.203.797.063.14.828-.187.25-1.266c.188-.968.594-1.875 1.125-2.453C6.406-4.53 7-4.953 7.39-4.953c.094 0 .157.11.157.297 0 .297-.016.453-.297 1.5l-.516 1.875c-.093.343-.156.64-.156.906 0 .297.125.484.36.484.312 0 .734-.25 1.906-1.125m0 0" style="stroke:none"/></symbol><symbol id="d" overflow="visible"><path d="m10.75.031.031-.328-.437-.031C9.906-.375 9.688-.5 9.688-.75l.015-.438.5-6.359c0-.219.203-.344.547-.36l.453-.03.031-.329c-.328.016-.671.032-1 .032-.343 0-.671-.016-1-.032-.218.438 0 .11-1.015 1.86L5.28-1.36 3.484-8.266c-.328.016-.656.032-1 .032-.328 0-.671-.016-.984-.032l-.047.329.313.03c.625.048.843.157.843.47a.6.6 0 0 1-.046.234L.843-1.11c-.187.625-.374.78-1.03.828L-.234.03C.219.016.672 0 1.109 0 1.547 0 2 .016 2.422.031l.047-.328-.453-.031c-.391-.047-.594-.156-.594-.328 0-.125.031-.281.078-.485l1.484-5.546L4.766.218h.28l.673-1.25 2.86-4.938.624-1.047-.437 6.22c-.032.327-.188.405-.813.468l-.36.031-.046.328C8.094.016 8.625 0 9.157 0c.53 0 1.062.016 1.593.031m0 0" style="stroke:none"/></symbol></defs><path d="M603.906 168.984h1905.899v892.188H603.906zm0 0" style="fill:none;stroke-width:3.985;stroke-linecap:butt;stroke-linejoin:miter;stroke:#000;stroke-opacity:1;stroke-miterlimit:10" transform="matrix(.1 0 0 -.1 0 114)"/><path d="M603.906 168.984h1905.899v375.664H603.906zm0 0" style="fill-rule:nonzero;fill:#e5e5e5;fill-opacity:1;stroke-width:3.985;stroke-linecap:butt;stroke-linejoin:miter;stroke:#000;stroke-opacity:1;stroke-miterlimit:10" transform="matrix(.1 0 0 -.1 0 114)"/><path d="M222.695 168.984h2287.11" style="fill:none;stroke-width:3.985;stroke-linecap:butt;stroke-linejoin:miter;stroke:#000;stroke-opacity:1;stroke-miterlimit:10" transform="matrix(.1 0 0 -.1 0 114)"/><path d="M22.02 94.113h.601v6h-.601zm228.707 0h.601v6h-.601zm0 0" style="stroke:none;fill-rule:nonzero;fill:#000;fill-opacity:1"/><path d="M222.695 168.984v962.618" style="fill:none;stroke-width:3.985;stroke-linecap:butt;stroke-linejoin:miter;stroke:#000;stroke-opacity:1;stroke-miterlimit:10" transform="matrix(.1 0 0 -.1 0 114)"/><path d="M19.258 96.754h6v.601h-6zm0-96.262h6v.602h-6zm0 0" style="stroke:none;fill-rule:nonzero;fill:#000;fill-opacity:1"/><path d="m603.906 698.398 47.617-16.68 47.657-13.671 47.656-10.742 47.617-8.047 47.656-5.469 47.657-3.008 47.656-.703 47.656 1.445 47.656 3.438 47.618 5.351 47.656 7.032 47.656 8.593 47.656 10.04 47.657 11.328 47.617 12.46 47.656 13.438 47.656 14.297 47.657 15 47.656 15.586 47.617 15.976 47.656 16.25 95.313 32.735 47.617 16.21 47.656 15.86 47.656 15.469 47.657 14.805 47.617 14.101 47.656 13.203 47.656 12.149 47.657 11.015 47.656 9.649 47.656 8.203 47.617 6.601 47.657 4.844 47.656 2.89 47.656.9 47.617-1.29 47.656-3.672 47.657-6.093" style="fill:none;stroke-width:7.9701;stroke-linecap:butt;stroke-linejoin:miter;stroke:#000;stroke-opacity:1;stroke-miterlimit:10" transform="matrix(.1 0 0 -.1 0 114)"/><use xlink:href="#a" x="57.629" y="106.846" style="fill:#000;fill-opacity:1"/><use xlink:href="#b" x="247.98" y="109.726" style="fill:#000;fill-opacity:1"/><path d="M603.906 544.648h-23.828m-47.656 0h-23.828m0 0h-23.828m-47.618 0H413.32m0 0h-23.828m-47.656 0h-23.828m0 0H294.18m-47.657 0h-23.828m381.211 516.524h-23.828m-47.656 0h-23.828m0 0h-23.828m-47.618 0H413.32m0 0h-23.828m-47.656 0h-23.828m0 0H294.18m-47.657 0h-23.828" style="fill:none;stroke-width:3.985;stroke-linecap:butt;stroke-linejoin:miter;stroke:#000;stroke-opacity:1;stroke-miterlimit:10" transform="matrix(.1 0 0 -.1 0 114)"/><use xlink:href="#c" x="4.807" y="62.295" style="fill:#000;fill-opacity:1"/><use xlink:href="#d" x="2.647" y="11.962" style="fill:#000;fill-opacity:1"/></svg>