<svg xmlns="http://www.w3.org/2000/svg" xmlns:xlink="http://www.w3.org/1999/xlink" width="336" height="73pt" viewBox="0 0 252 73"><defs><symbol id="a" overflow="visible"><path d="M3.313-1.328v-.313H.358v.313zm0 0" style="stroke:none"/></symbol><symbol id="b" overflow="visible"><path d="M2.297.016v-.157L2-.17c-.297-.016-.344-.063-.344-.36v-3.25l-.078-.031c-.36.187-.75.359-1.25.53l.047.235h.047c.234-.11.484-.219.719-.328q.045 0 .046.188V-.53c0 .297-.062.344-.359.36l-.297.03v.157C.828 0 1.125 0 1.437 0 1.72 0 2 0 2.297.016m0 0" style="stroke:none"/></symbol><symbol id="c" overflow="visible"><path d="M2.594.016v-.157l-.266-.03C2.063-.188 2-.25 2-.579V-1c.313 0 .438.016.594.031v-.39s-.281.015-.453.015H2v-.765c0-.97 0-1.438.031-1.672l-.062-.031-.407.156L.016-1.125.078-1h1.453v.422c0 .328-.062.406-.328.406L.86-.14v.157C1.156 0 1.453 0 1.75 0c.281 0 .563 0 .844.016M1.53-1.344H.36L1.531-3.28zm0 0" style="stroke:none"/></symbol><symbol id="d" overflow="visible"><path d="M2.531-1.234c0-.25-.11-.485-.297-.625-.14-.094-.265-.141-.546-.188.437-.344.609-.594.609-.922 0-.484-.406-.812-1.016-.812-.375 0-.625.11-.89.375l-.157.672h.172L.5-3.031c.063-.188.406-.375.703-.375a.64.64 0 0 1 .64.625c0 .422-.327.765-.718.765-.047 0-.25-.015-.25-.015l-.063.281.032.031c.203-.078.312-.11.469-.11.453 0 .718.282.718.782 0 .563-.344.938-.86.938-.25 0-.468-.094-.64-.235C.406-.469.328-.594.234-.89l-.156.047c.125.344.156.531.203.813.281.093.531.14.735.14.656 0 1.515-.578 1.515-1.343zm0 0" style="stroke:none"/></symbol><symbol id="e" overflow="visible"><path d="M2.563.016v-.5L.671-.422l1-1.062c.531-.563.687-.86.687-1.282 0-.625-.421-1.015-1.125-1.015-.39 0-.656.11-.921.39l-.094.735h.156l.063-.25c.093-.313.296-.453.656-.453.468 0 .781.296.781.765 0 .406-.234.813-.86 1.469l-.921 1v.14C.5 0 .906 0 1.312 0c.422 0 .844 0 1.25.016zm0 0" style="stroke:none"/></symbol><symbol id="f" overflow="visible"><path d="M3.906-1.563v-.375H.422v.375zm0 0" style="stroke:none"/></symbol><symbol id="g" overflow="visible"><path d="M2.703.016v-.188l-.328-.016c-.36-.03-.422-.093-.422-.437v-3.828l-.094-.031c-.421.218-.875.406-1.468.609l.046.281H.5c.281-.125.563-.25.86-.375.03 0 .046.063.046.203v3.141c0 .344-.078.406-.422.438l-.359.015v.188C.985 0 1.328 0 1.688 0c.343 0 .687 0 1.015.016m0 0" style="stroke:none"/></symbol><symbol id="h" overflow="visible"><path d="M2-2.953c0-.328-.313-.64-.64-.64-.329 0-.626.312-.626.64s.282.625.625.625S2-2.625 2-2.953m0 0" style="stroke:none"/></symbol></defs><path d="M1269.375 688.867c0 5.156-4.219 9.336-9.336 9.336-5.195 0-9.375-4.18-9.375-9.336s4.18-9.336 9.375-9.336c5.117 0 9.336 4.18 9.336 9.336zm0 0" style="fill-rule:nonzero;fill:#000;fill-opacity:1;stroke-width:3.985;stroke-linecap:butt;stroke-linejoin:miter;stroke:#000;stroke-opacity:1;stroke-miterlimit:10" transform="matrix(.1 0 0 -.1 0 73)"/><path d="M1202.734 328.867v65.469" style="fill:none;stroke-width:3.985;stroke-linecap:butt;stroke-linejoin:miter;stroke:#000;stroke-opacity:1;stroke-miterlimit:10" transform="matrix(.1 0 0 -.1 0 73)"/><path d="M1212.07 34.336a9.336 9.336 0 0 1-9.336 9.336 9.336 9.336 0 0 1-9.336-9.336 9.336 9.336 0 0 1 9.336-9.336 9.336 9.336 0 0 1 9.336 9.336zm0 0" style="fill-rule:nonzero;fill:#000;fill-opacity:1;stroke-width:3.985;stroke-linecap:butt;stroke-linejoin:miter;stroke:#000;stroke-opacity:1;stroke-miterlimit:10" transform="matrix(.1 0 0 -.1 0 73)"/><path d="M1199.727 328.867v65.469" style="fill:none;stroke-width:3.985;stroke-linecap:butt;stroke-linejoin:miter;stroke:#000;stroke-opacity:1;stroke-miterlimit:10" transform="matrix(.1 0 0 -.1 0 73)"/><path d="M1209.063 34.336a9.336 9.336 0 0 1-9.336 9.336 9.336 9.336 0 0 1-9.336-9.336 9.336 9.336 0 0 1 9.336-9.336 9.336 9.336 0 0 1 9.335 9.336zm0 0" style="fill-rule:nonzero;fill:#000;fill-opacity:1;stroke-width:3.985;stroke-linecap:butt;stroke-linejoin:miter;stroke:#000;stroke-opacity:1;stroke-miterlimit:10" transform="matrix(.1 0 0 -.1 0 73)"/><path d="M1196.367 328.867v65.469" style="fill:none;stroke-width:3.985;stroke-linecap:butt;stroke-linejoin:miter;stroke:#000;stroke-opacity:1;stroke-miterlimit:10" transform="matrix(.1 0 0 -.1 0 73)"/><path d="M1205.703 34.336a9.336 9.336 0 0 1-9.336 9.336 9.336 9.336 0 0 1-9.336-9.336 9.336 9.336 0 0 1 9.336-9.336 9.336 9.336 0 0 1 9.336 9.336zm0 0" style="fill-rule:nonzero;fill:#000;fill-opacity:1;stroke-width:3.985;stroke-linecap:butt;stroke-linejoin:miter;stroke:#000;stroke-opacity:1;stroke-miterlimit:10" transform="matrix(.1 0 0 -.1 0 73)"/><path d="M1192.656 328.867v65.469" style="fill:none;stroke-width:3.985;stroke-linecap:butt;stroke-linejoin:miter;stroke:#000;stroke-opacity:1;stroke-miterlimit:10" transform="matrix(.1 0 0 -.1 0 73)"/><path d="M1201.953 34.336c0 5.156-4.18 9.336-9.297 9.336-5.195 0-9.375-4.18-9.375-9.336s4.18-9.336 9.375-9.336c5.117 0 9.297 4.18 9.297 9.336zm0 0" style="fill-rule:nonzero;fill:#000;fill-opacity:1;stroke-width:3.985;stroke-linecap:butt;stroke-linejoin:miter;stroke:#000;stroke-opacity:1;stroke-miterlimit:10" transform="matrix(.1 0 0 -.1 0 73)"/><path d="M1188.438 328.867v65.469" style="fill:none;stroke-width:3.985;stroke-linecap:butt;stroke-linejoin:miter;stroke:#000;stroke-opacity:1;stroke-miterlimit:10" transform="matrix(.1 0 0 -.1 0 73)"/><path d="M1197.773 34.336a9.336 9.336 0 0 1-9.335 9.336 9.336 9.336 0 0 1-9.336-9.336 9.336 9.336 0 0 1 9.335-9.336 9.336 9.336 0 0 1 9.336 9.336zm0 0" style="fill-rule:nonzero;fill:#000;fill-opacity:1;stroke-width:3.985;stroke-linecap:butt;stroke-linejoin:miter;stroke:#000;stroke-opacity:1;stroke-miterlimit:10" transform="matrix(.1 0 0 -.1 0 73)"/><path d="M1183.633 328.867v65.469" style="fill:none;stroke-width:3.985;stroke-linecap:butt;stroke-linejoin:miter;stroke:#000;stroke-opacity:1;stroke-miterlimit:10" transform="matrix(.1 0 0 -.1 0 73)"/><path d="M1193.008 34.336c0 5.156-4.219 9.336-9.375 9.336a9.336 9.336 0 0 1-9.336-9.336 9.336 9.336 0 0 1 9.336-9.336c5.156 0 9.375 4.18 9.375 9.336zm0 0" style="fill-rule:nonzero;fill:#000;fill-opacity:1;stroke-width:3.985;stroke-linecap:butt;stroke-linejoin:miter;stroke:#000;stroke-opacity:1;stroke-miterlimit:10" transform="matrix(.1 0 0 -.1 0 73)"/><path d="M1178.203 328.867v65.469" style="fill:none;stroke-width:3.985;stroke-linecap:butt;stroke-linejoin:miter;stroke:#000;stroke-opacity:1;stroke-miterlimit:10" transform="matrix(.1 0 0 -.1 0 73)"/><path d="M1187.54 34.336a9.336 9.336 0 0 1-9.337 9.336 9.336 9.336 0 0 1-9.336-9.336 9.336 9.336 0 0 1 9.336-9.336 9.336 9.336 0 0 1 9.336 9.336zm0 0" style="fill-rule:nonzero;fill:#000;fill-opacity:1;stroke-width:3.985;stroke-linecap:butt;stroke-linejoin:miter;stroke:#000;stroke-opacity:1;stroke-miterlimit:10" transform="matrix(.1 0 0 -.1 0 73)"/><path d="M1171.914 328.867v65.469" style="fill:none;stroke-width:3.985;stroke-linecap:butt;stroke-linejoin:miter;stroke:#000;stroke-opacity:1;stroke-miterlimit:10" transform="matrix(.1 0 0 -.1 0 73)"/><path d="M1181.25 34.336a9.336 9.336 0 0 1-9.336 9.336 9.336 9.336 0 0 1-9.336-9.336 9.336 9.336 0 0 1 9.336-9.336 9.336 9.336 0 0 1 9.336 9.336zm0 0" style="fill-rule:nonzero;fill:#000;fill-opacity:1;stroke-width:3.985;stroke-linecap:butt;stroke-linejoin:miter;stroke:#000;stroke-opacity:1;stroke-miterlimit:10" transform="matrix(.1 0 0 -.1 0 73)"/><path d="M1164.531 328.867v65.469" style="fill:none;stroke-width:3.985;stroke-linecap:butt;stroke-linejoin:miter;stroke:#000;stroke-opacity:1;stroke-miterlimit:10" transform="matrix(.1 0 0 -.1 0 73)"/><path d="M1173.906 34.336c0 5.156-4.18 9.336-9.375 9.336-5.117 0-9.336-4.18-9.336-9.336s4.22-9.336 9.336-9.336c5.196 0 9.375 4.18 9.375 9.336zm0 0" style="fill-rule:nonzero;fill:#000;fill-opacity:1;stroke-width:3.985;stroke-linecap:butt;stroke-linejoin:miter;stroke:#000;stroke-opacity:1;stroke-miterlimit:10" transform="matrix(.1 0 0 -.1 0 73)"/><path d="M1155.898 328.867v65.469" style="fill:none;stroke-width:3.985;stroke-linecap:butt;stroke-linejoin:miter;stroke:#000;stroke-opacity:1;stroke-miterlimit:10" transform="matrix(.1 0 0 -.1 0 73)"/><path d="M1165.234 34.336a9.336 9.336 0 0 1-9.336 9.336 9.336 9.336 0 0 1-9.335-9.336 9.336 9.336 0 0 1 9.335-9.336 9.336 9.336 0 0 1 9.336 9.336zm0 0" style="fill-rule:nonzero;fill:#000;fill-opacity:1;stroke-width:3.985;stroke-linecap:butt;stroke-linejoin:miter;stroke:#000;stroke-opacity:1;stroke-miterlimit:10" transform="matrix(.1 0 0 -.1 0 73)"/><path d="M1145.469 328.867v65.469" style="fill:none;stroke-width:3.985;stroke-linecap:butt;stroke-linejoin:miter;stroke:#000;stroke-opacity:1;stroke-miterlimit:10" transform="matrix(.1 0 0 -.1 0 73)"/><path d="M1154.805 34.336a9.336 9.336 0 0 1-9.336 9.336 9.336 9.336 0 0 1-9.336-9.336 9.336 9.336 0 0 1 9.336-9.336 9.336 9.336 0 0 1 9.336 9.336zm0 0" style="fill-rule:nonzero;fill:#000;fill-opacity:1;stroke-width:3.985;stroke-linecap:butt;stroke-linejoin:miter;stroke:#000;stroke-opacity:1;stroke-miterlimit:10" transform="matrix(.1 0 0 -.1 0 73)"/><path d="M1132.734 328.867v65.469" style="fill:none;stroke-width:3.985;stroke-linecap:butt;stroke-linejoin:miter;stroke:#000;stroke-opacity:1;stroke-miterlimit:10" transform="matrix(.1 0 0 -.1 0 73)"/><path d="M1142.07 34.336a9.336 9.336 0 0 1-9.336 9.336 9.336 9.336 0 0 1-9.336-9.336 9.336 9.336 0 0 1 9.336-9.336 9.336 9.336 0 0 1 9.336 9.336zm0 0" style="fill-rule:nonzero;fill:#000;fill-opacity:1;stroke-width:3.985;stroke-linecap:butt;stroke-linejoin:miter;stroke:#000;stroke-opacity:1;stroke-miterlimit:10" transform="matrix(.1 0 0 -.1 0 73)"/><path d="M1116.836 328.867v65.469" style="fill:none;stroke-width:3.985;stroke-linecap:butt;stroke-linejoin:miter;stroke:#000;stroke-opacity:1;stroke-miterlimit:10" transform="matrix(.1 0 0 -.1 0 73)"/><path d="M1126.172 34.336a9.336 9.336 0 0 1-9.336 9.336 9.336 9.336 0 0 1-9.336-9.336 9.336 9.336 0 0 1 9.336-9.336 9.336 9.336 0 0 1 9.336 9.336zm0 0" style="fill-rule:nonzero;fill:#000;fill-opacity:1;stroke-width:3.985;stroke-linecap:butt;stroke-linejoin:miter;stroke:#000;stroke-opacity:1;stroke-miterlimit:10" transform="matrix(.1 0 0 -.1 0 73)"/><path d="M1096.367 328.867v65.469" style="fill:none;stroke-width:3.985;stroke-linecap:butt;stroke-linejoin:miter;stroke:#000;stroke-opacity:1;stroke-miterlimit:10" transform="matrix(.1 0 0 -.1 0 73)"/><path d="M1105.703 34.336a9.336 9.336 0 0 1-9.336 9.336 9.336 9.336 0 0 1-9.336-9.336 9.336 9.336 0 0 1 9.336-9.336 9.336 9.336 0 0 1 9.336 9.336zm0 0" style="fill-rule:nonzero;fill:#000;fill-opacity:1;stroke-width:3.985;stroke-linecap:butt;stroke-linejoin:miter;stroke:#000;stroke-opacity:1;stroke-miterlimit:10" transform="matrix(.1 0 0 -.1 0 73)"/><path d="M1069.102 328.867v65.469" style="fill:none;stroke-width:3.985;stroke-linecap:butt;stroke-linejoin:miter;stroke:#000;stroke-opacity:1;stroke-miterlimit:10" transform="matrix(.1 0 0 -.1 0 73)"/><path d="M1078.438 34.336a9.336 9.336 0 0 1-9.336 9.336 9.336 9.336 0 0 1-9.336-9.336 9.336 9.336 0 0 1 9.336-9.336 9.336 9.336 0 0 1 9.335 9.336zm0 0" style="fill-rule:nonzero;fill:#000;fill-opacity:1;stroke-width:3.985;stroke-linecap:butt;stroke-linejoin:miter;stroke:#000;stroke-opacity:1;stroke-miterlimit:10" transform="matrix(.1 0 0 -.1 0 73)"/><path d="M1030.938 328.867v65.469" style="fill:none;stroke-width:3.985;stroke-linecap:butt;stroke-linejoin:miter;stroke:#000;stroke-opacity:1;stroke-miterlimit:10" transform="matrix(.1 0 0 -.1 0 73)"/><path d="M1040.273 34.336a9.336 9.336 0 0 1-9.335 9.336 9.336 9.336 0 0 1-9.336-9.336 9.336 9.336 0 0 1 9.336-9.336 9.336 9.336 0 0 1 9.335 9.336zm0 0" style="fill-rule:nonzero;fill:#000;fill-opacity:1;stroke-width:3.985;stroke-linecap:butt;stroke-linejoin:miter;stroke:#000;stroke-opacity:1;stroke-miterlimit:10" transform="matrix(.1 0 0 -.1 0 73)"/><use xlink:href="#a" x="94.124" y="46.366" style="fill:#000;fill-opacity:1"/><use xlink:href="#b" x="97.844" y="46.366" style="fill:#000;fill-opacity:1"/><path d="M94.113 46.98h6.48v.48h-6.48zm0 0" style="stroke:none;fill-rule:nonzero;fill:#000;fill-opacity:1"/><use xlink:href="#c" x="96.044" y="51.646" style="fill:#000;fill-opacity:1"/><path d="M973.633 328.867v65.469" style="fill:none;stroke-width:3.985;stroke-linecap:butt;stroke-linejoin:miter;stroke:#000;stroke-opacity:1;stroke-miterlimit:10" transform="matrix(.1 0 0 -.1 0 73)"/><path d="M982.969 34.336a9.336 9.336 0 0 1-9.336 9.336 9.336 9.336 0 0 1-9.336-9.336A9.336 9.336 0 0 1 973.633 25a9.336 9.336 0 0 1 9.336 9.336zm0 0" style="fill-rule:nonzero;fill:#000;fill-opacity:1;stroke-width:3.985;stroke-linecap:butt;stroke-linejoin:miter;stroke:#000;stroke-opacity:1;stroke-miterlimit:10" transform="matrix(.1 0 0 -.1 0 73)"/><use xlink:href="#a" x="84.579" y="46.366" style="fill:#000;fill-opacity:1"/><use xlink:href="#b" x="88.299" y="46.366" style="fill:#000;fill-opacity:1"/><path d="M84.566 46.98h6.48v.48h-6.48zm0 0" style="stroke:none;fill-rule:nonzero;fill:#000;fill-opacity:1"/><use xlink:href="#d" x="86.499" y="51.527" style="fill:#000;fill-opacity:1"/><path d="M878.203 328.867v65.469" style="fill:none;stroke-width:3.985;stroke-linecap:butt;stroke-linejoin:miter;stroke:#000;stroke-opacity:1;stroke-miterlimit:10" transform="matrix(.1 0 0 -.1 0 73)"/><path d="M887.54 34.336a9.336 9.336 0 0 1-9.337 9.336 9.336 9.336 0 0 1-9.336-9.336A9.336 9.336 0 0 1 878.203 25a9.336 9.336 0 0 1 9.336 9.336zm0 0" style="fill-rule:nonzero;fill:#000;fill-opacity:1;stroke-width:3.985;stroke-linecap:butt;stroke-linejoin:miter;stroke:#000;stroke-opacity:1;stroke-miterlimit:10" transform="matrix(.1 0 0 -.1 0 73)"/><use xlink:href="#a" x="65.488" y="46.366" style="fill:#000;fill-opacity:1"/><use xlink:href="#b" x="69.208" y="46.366" style="fill:#000;fill-opacity:1"/><path d="M65.477 46.98h6.48v.48h-6.48zm0 0" style="stroke:none;fill-rule:nonzero;fill:#000;fill-opacity:1"/><use xlink:href="#e" x="67.408" y="51.646" style="fill:#000;fill-opacity:1"/><path d="M687.266 328.867v65.469" style="fill:none;stroke-width:3.985;stroke-linecap:butt;stroke-linejoin:miter;stroke:#000;stroke-opacity:1;stroke-miterlimit:10" transform="matrix(.1 0 0 -.1 0 73)"/><path d="M696.602 34.336a9.336 9.336 0 0 1-9.336 9.336 9.336 9.336 0 0 1-9.336-9.336A9.336 9.336 0 0 1 687.266 25a9.336 9.336 0 0 1 9.336 9.336zm0 0" style="fill-rule:nonzero;fill:#000;fill-opacity:1;stroke-width:3.985;stroke-linecap:butt;stroke-linejoin:miter;stroke:#000;stroke-opacity:1;stroke-miterlimit:10" transform="matrix(.1 0 0 -.1 0 73)"/><use xlink:href="#f" x="7.614" y="49.366" style="fill:#000;fill-opacity:1"/><use xlink:href="#g" x="11.934" y="49.366" style="fill:#000;fill-opacity:1"/><path d="M114.531 328.867v65.469" style="fill:none;stroke-width:3.985;stroke-linecap:butt;stroke-linejoin:miter;stroke:#000;stroke-opacity:1;stroke-miterlimit:10" transform="matrix(.1 0 0 -.1 0 73)"/><path d="M123.867 34.336a9.336 9.336 0 0 1-9.336 9.336 9.336 9.336 0 0 1-9.336-9.336A9.336 9.336 0 0 1 114.531 25a9.336 9.336 0 0 1 9.336 9.336zm0 0" style="fill-rule:nonzero;fill:#000;fill-opacity:1;stroke-width:3.985;stroke-linecap:butt;stroke-linejoin:miter;stroke:#000;stroke-opacity:1;stroke-miterlimit:10" transform="matrix(.1 0 0 -.1 0 73)"/><use xlink:href="#h" x="102.885" y="48.766" style="fill:#000;fill-opacity:1"/><use xlink:href="#h" x="107.685" y="48.766" style="fill:#000;fill-opacity:1"/><use xlink:href="#h" x="112.485" y="48.766" style="fill:#000;fill-opacity:1"/><path d="M0 361.602h2520.04m-1260-360v720" style="fill:none;stroke-width:3.985;stroke-linecap:butt;stroke-linejoin:miter;stroke:#000;stroke-opacity:1;stroke-miterlimit:10" transform="matrix(.1 0 0 -.1 0 73)"/><path d="M114.531 34.336H1260.04m0 654.531h1145.468" style="fill:none;stroke-width:7.9701;stroke-linecap:butt;stroke-linejoin:miter;stroke:#000;stroke-opacity:1;stroke-miterlimit:10" transform="matrix(.1 0 0 -.1 0 73)"/><path d="M1202.734 328.867h57.305v65.469h-57.305zm0-305.664h57.305V45.47h-57.305zm0 0" style="fill-rule:nonzero;fill:#000;fill-opacity:1;stroke-width:1.2;stroke-linecap:butt;stroke-linejoin:miter;stroke:#000;stroke-opacity:1;stroke-miterlimit:10" transform="matrix(.1 0 0 -.1 0 73)"/><path d="M1269.375 34.336c0 5.156-4.219 9.336-9.336 9.336-5.195 0-9.375-4.18-9.375-9.336s4.18-9.336 9.375-9.336c5.117 0 9.336 4.18 9.336 9.336zm0 0" style="fill-rule:nonzero;fill:#fff;fill-opacity:1;stroke-width:1.2;stroke-linecap:butt;stroke-linejoin:miter;stroke:#fff;stroke-opacity:1;stroke-miterlimit:10" transform="matrix(.1 0 0 -.1 0 73)"/><path d="M1269.375 34.336c0 5.156-4.219 9.336-9.336 9.336-5.195 0-9.375-4.18-9.375-9.336s4.18-9.336 9.375-9.336c5.117 0 9.336 4.18 9.336 9.336zm0 0" style="fill:none;stroke-width:1.2;stroke-linecap:butt;stroke-linejoin:miter;stroke:#000;stroke-opacity:1;stroke-miterlimit:10" transform="matrix(.1 0 0 -.1 0 73)"/></svg>