<svg xmlns="http://www.w3.org/2000/svg" width="80pt" height="108" viewBox="0 0 80 81"><path d="M3.984 75.586h792.032M70 9.61v791.992m-33.008-65.977h66.016M730 42.617v65.977" style="fill:none;stroke-width:3.985;stroke-linecap:butt;stroke-linejoin:miter;stroke:#000;stroke-opacity:1;stroke-miterlimit:10" transform="matrix(.1 0 0 -.1 0 81)"/><path d="M80.078 735.625c0 5.547-4.492 10.078-10.078 10.078s-10.078-4.531-10.078-10.078c0-5.586 4.492-10.117 10.078-10.117s10.078 4.531 10.078 10.117zm0 0" style="fill-rule:nonzero;fill:#000;fill-opacity:1;stroke-width:3.985;stroke-linecap:butt;stroke-linejoin:miter;stroke:#000;stroke-opacity:1;stroke-miterlimit:10" transform="matrix(.1 0 0 -.1 0 81)"/><path d="m70 75.586 660 660.039" style="fill:none;stroke-width:7.9701;stroke-linecap:butt;stroke-linejoin:miter;stroke:#000;stroke-opacity:1;stroke-miterlimit:10" transform="matrix(.1 0 0 -.1 0 81)"/><path d="M80.078 75.586A10.053 10.053 0 0 1 70 85.664a10.053 10.053 0 0 1-10.078-10.078c0-5.547 4.492-10.078 10.078-10.078s10.078 4.531 10.078 10.078zm0 0" style="fill-rule:nonzero;fill:#fff;fill-opacity:1;stroke-width:7.9701;stroke-linecap:butt;stroke-linejoin:miter;stroke:#fff;stroke-opacity:1;stroke-miterlimit:10" transform="matrix(.1 0 0 -.1 0 81)"/><path d="M80.078 75.586A10.053 10.053 0 0 1 70 85.664a10.053 10.053 0 0 1-10.078-10.078c0-5.547 4.492-10.078 10.078-10.078s10.078 4.531 10.078 10.078zm0 0" style="fill:none;stroke-width:7.9701;stroke-linecap:butt;stroke-linejoin:miter;stroke:#000;stroke-opacity:1;stroke-miterlimit:10" transform="matrix(.1 0 0 -.1 0 81)"/><path d="M740.078 735.625c0 5.547-4.492 10.078-10.078 10.078-5.547 0-10.078-4.531-10.078-10.078 0-5.586 4.531-10.117 10.078-10.117 5.586 0 10.078 4.531 10.078 10.117zm0 0" style="fill-rule:nonzero;fill:#fff;fill-opacity:1;stroke-width:7.9701;stroke-linecap:butt;stroke-linejoin:miter;stroke:#fff;stroke-opacity:1;stroke-miterlimit:10" transform="matrix(.1 0 0 -.1 0 81)"/><path d="M740.078 735.625c0 5.547-4.492 10.078-10.078 10.078-5.547 0-10.078-4.531-10.078-10.078 0-5.586 4.531-10.117 10.078-10.117 5.586 0 10.078 4.531 10.078 10.117zm0 0" style="fill:none;stroke-width:7.9701;stroke-linecap:butt;stroke-linejoin:miter;stroke:#000;stroke-opacity:1;stroke-miterlimit:10" transform="matrix(.1 0 0 -.1 0 81)"/></svg>