<svg xmlns="http://www.w3.org/2000/svg" xmlns:xlink="http://www.w3.org/1999/xlink" width="149pt" height="144" viewBox="0 0 149 108"><defs><symbol id="a" overflow="visible"><path d="m5.36-.938-.094-.234c-.438.36-.735.531-.922.531C4.156-.64 4-.75 3.89-.984a4.8 4.8 0 0 1-.313-1.032l-.203-1.203.422-.578c.547-.781.875-1.062 1.25-1.062.187 0 .328.109.39.28l.172-.046.172-1.016c-.14-.078-.25-.125-.36-.125-.468 0-.952.438-1.687 1.532l-.453.656-.062-.563c-.14-1.187-.469-1.625-1.172-1.625-.313 0-.578.094-.688.25l-.687 1 .203.11c.36-.407.594-.563.828-.563.39 0 .656.485.86 1.657l.124.75-.468.734C1.703-1.031 1.297-.641.953-.641.781-.64.641-.687.625-.75l-.14-.344-.235.047c0 .234-.016.39-.094.766-.031.156-.031.187-.047.265.172.094.375.141.516.141.39 0 .86-.344 1.234-.906l.907-1.39.125.827C3.062-.328 3.328.125 3.75.125c.266 0 .656-.203 1.031-.547zm0 0" style="stroke:none"/></symbol><symbol id="b" overflow="visible"><path d="m5.86-5.656-.141-.11c-.344.141-.61.204-.875.235l-.422 1.578c-.14.562-.563 1.437-.953 2.015-.422.61-1 1.141-1.266 1.141-.265 0-.25-.578-.234-.734l.187-2.313c.016-.375.047-.828.047-1.172 0-.53-.094-.75-.297-.75-.156 0-.312.094-.89.485L.03-4.61l.14.203.595-.344c.062-.063.218-.156.296-.156.313 0 .266.61.25.812L1.11-1.187l-.015.468c0 .5.218.844.515.844.454 0 1.454-1.016 2.344-2.36L3.375-.187c-.61 2.11-1.219 2.985-2.047 2.985a.737.737 0 0 1-.75-.735c0-.062.016-.156.031-.265L.484 1.75l-.562.406c-.016.078-.016.156-.016.203 0 .516.438.938.985.938 1.265 0 2.578-1.485 3.28-3.688zm0 0" style="stroke:none"/></symbol><symbol id="c" overflow="visible"><path d="M4.672-1.766c0-.375-.094-.656-.328-.89-.313-.313-.703-.438-1.766-.64-.969-.188-1.297-.438-1.297-.985 0-.594.422-.938 1.14-.938.813 0 1.423.422 1.423.985v.28h.328c.016-.702.031-.983.062-1.358-.64-.204-1.062-.297-1.562-.297-1.375 0-2.235.656-2.235 1.734 0 .578.266.984.813 1.234.328.141.969.329 1.781.516.531.11.766.375.766.828 0 .64-.61 1.094-1.453 1.094-.875 0-1.5-.422-1.5-1.016v-.484h-.36C.484-.891.454-.531.36-.047.984.156 1.453.234 2 .234c1.563 0 2.672-.828 2.672-2m0 0" style="stroke:none"/></symbol><symbol id="d" overflow="visible"><path d="M3.234.031v-.36l-.546-.03c-.407-.016-.438-.11-.438-.86v-7.36l-.11-.093c-.53.203-.921.297-1.859.438v.328h.656c.22 0 .313.14.313.5v6.187c0 .75-.047.844-.453.86L.25-.33v.36c.5-.014 1-.03 1.5-.03s.984.016 1.484.031m0 0" style="stroke:none"/></symbol><symbol id="e" overflow="visible"><path d="M6.14-2.828c0-1.625-1.171-2.781-2.812-2.781C1.594-5.61.375-4.375.375-2.594.375-.906 1.453.234 2.985.234c1.843 0 3.156-1.28 3.156-3.062zm-1.109.437c0 1.375-.61 2.235-1.578 2.235C2.281-.156 1.5-1.296 1.5-3c0-1.438.563-2.219 1.625-2.219 1.094 0 1.906 1.203 1.906 2.828m0 0" style="stroke:none"/></symbol><symbol id="f" overflow="visible"><path d="M6.625-3.234c0-1.329-1.11-2.375-2.484-2.375-.454 0-.875.125-1.063.296l-.984.907v-1.157l-.11-.046a7.3 7.3 0 0 1-1.859.5v.328h.438c.484 0 .53.078.53.875v6.015c0 .75-.046.829-.452.86L.094 3v.36c.5-.032 1-.032 1.5-.032s.984 0 1.484.031V3l-.547-.031c-.406-.031-.437-.11-.437-.86V-.156c.36.218.734.297 1.281.297.344 0 .656-.063.844-.188l1.36-.89c.484-.313 1.046-1.532 1.046-2.297m-1.047.437c0 1.344-.797 2.328-1.875 2.328-.656 0-1.14-.219-1.61-.703v-2.484c0-.172.063-.297.22-.5.343-.453.828-.672 1.421-.672 1.125 0 1.844.781 1.844 2.031m0 0" style="stroke:none"/></symbol><symbol id="g" overflow="visible"><path d="M5.36-3.328c0-1.375-.891-2.281-2.235-2.281-.438 0-.953.156-1.438.453C.704-4.61.313-3.86.313-2.625c0 .766.172 1.406.5 1.86.47.64 1.282 1 2.172 1 .454 0 .891-.094 1.375-.313.329-.125.579-.281.625-.36l.235-.406-.157-.11c-.765.454-1.03.563-1.546.563-.782 0-1.422-.343-1.766-.937-.219-.39-.297-.734-.328-1.422h1.75c.828 0 1.328-.031 2.156-.172.016-.156.031-.265.031-.406m-1.063.14-1.344.032c-.547 0-.86-.016-1.5-.078 0-.563.047-.813.203-1.125a1.47 1.47 0 0 1 1.328-.86c.391 0 .704.157.922.485.266.39.39.734.39 1.546zm0 0" style="stroke:none"/></symbol><symbol id="h" overflow="visible"><path d="M.781-4.14H7.22v-.72H.78zm0 2.53H7.22v-.702H.78zm0 0" style="stroke:none"/></symbol><symbol id="i" overflow="visible"><path d="M3.625-6.313A1.9 1.9 0 0 0 3-6.421c-.094 0-.234.016-.297.063-.219.093-.937.625-1.14.843-.188.188-.297.454-.391.954l-.125.687c-.36.172-.531.25-.75.328l-.047.188h.703l-.078.5C.609-1.156.297.469.094 1.078c-.157.516-.422.781-.735.781-.203 0-.312-.046-.453-.25l-.125.032c-.031.203-.156.625-.203.703a.7.7 0 0 0 .313.078c.359 0 .828-.281 1.171-.688C.595 1.11.782.5 1.423-2.578c.047-.235.125-.485.172-.781H2.5c.047-.172.11-.36.156-.485l-.031-.062-.063.015c-.218.063-.312.063-.734.063h-.14l.171-.985c.141-.75.391-1.093.797-1.093.266 0 .5.14.625.343l.094-.03.203-.595zm0 0" style="stroke:none"/></symbol><symbol id="k" overflow="visible"><path d="m3.938-.688-.079-.171c-.312.265-.53.39-.671.39s-.25-.078-.344-.265a3.5 3.5 0 0 1-.219-.735l-.156-.89.312-.422c.406-.578.64-.781.922-.781.14 0 .235.078.281.203l.125-.032.141-.75a.5.5 0 0 0-.266-.078c-.359 0-.703.313-1.25 1.11l-.328.484-.047-.422c-.109-.86-.343-1.172-.859-1.172-.234 0-.422.063-.5.172l-.516.734.157.094c.265-.312.437-.422.609-.422.281 0 .484.36.625 1.22l.094.53-.344.547C1.25-.75.953-.469.703-.469c-.14 0-.234-.047-.25-.078L.36-.797l-.171.031c0 .172-.016.282-.079.563-.015.11-.015.14-.03.187a.73.73 0 0 0 .374.11c.297 0 .64-.25.906-.656l.672-1.032.094.61C2.25-.25 2.438.094 2.75.094c.188 0 .469-.14.75-.406zm0 0" style="stroke:none"/></symbol><symbol id="n" overflow="visible"><path d="m4.297-4.14-.094-.079a2.5 2.5 0 0 1-.656.157L3.25-2.907c-.11.422-.422 1.062-.703 1.484-.313.453-.735.828-.938.828-.187 0-.171-.422-.156-.531l.125-1.703c.016-.266.031-.594.031-.844 0-.39-.062-.547-.203-.547-.125 0-.234.063-.656.344l-.719.484.094.172.438-.265c.046-.047.156-.11.218-.11.235 0 .188.453.188.594L.813-.875v.344c-.016.375.156.625.375.625.312 0 1.062-.75 1.718-1.735L2.47-.14c-.438 1.547-.875 2.188-1.5 2.188A.543.543 0 0 1 .422 1.5c0-.031.016-.11.031-.188l-.094-.03-.421.296v.156a.7.7 0 0 0 .718.688c.922 0 1.89-1.094 2.406-2.719zm0 0" style="stroke:none"/></symbol><symbol id="j" overflow="visible"><path d="M2.672-6.625C1.328-5.75.532-4.25.532-2.359c0 1.703.827 3.343 2.109 4.218l.109-.14C1.531.672 1.328-.36 1.328-2.406c0-2.031.234-3.094 1.422-4.063zm0 0" style="stroke:none"/></symbol><symbol id="l" overflow="visible"><path d="m.375-6.625-.094.156C1.47-5.5 1.703-4.437 1.703-2.406 1.703-.36 1.5.672.281 1.719l.11.14C1.67.984 2.5-.656 2.5-2.359 2.5-4.25 1.703-5.75.375-6.625m0 0" style="stroke:none"/></symbol><symbol id="m" overflow="visible"><path d="M5.297-2.11v-.515H.563v.516zm0 0" style="stroke:none"/></symbol></defs><path d="M40 135.586h1440.04" style="fill:none;stroke-width:3.985;stroke-linecap:butt;stroke-linejoin:miter;stroke:#000;stroke-opacity:1;stroke-miterlimit:10" transform="matrix(.1 0 0 -.1 0 108)"/><path d="M3.746 91.453h.602v6h-.602zm144.004 0h.602v6h-.602zm0 0" style="stroke:none;fill-rule:nonzero;fill:#000;fill-opacity:1"/><path d="M40 135.586v936.016" style="fill:none;stroke-width:3.985;stroke-linecap:butt;stroke-linejoin:miter;stroke:#000;stroke-opacity:1;stroke-miterlimit:10" transform="matrix(.1 0 0 -.1 0 108)"/><path d="M.988 94.094h6v.601h-6zm0-93.602h6v.602h-6zm0 0" style="stroke:none;fill-rule:nonzero;fill:#000;fill-opacity:1"/><path d="m328.008 174.297 936.015 754.414" style="fill:none;stroke-width:3.985;stroke-linecap:butt;stroke-linejoin:miter;stroke:#000;stroke-opacity:1;stroke-miterlimit:10" transform="matrix(.1 0 0 -.1 0 108)"/><path d="M491.953 290.352c0 11.015-8.945 19.921-19.922 19.921-11.015 0-19.96-8.906-19.96-19.921 0-11.016 8.945-19.922 19.96-19.922 10.977 0 19.922 8.906 19.922 19.922zm647.969 522.304c0 11.016-8.906 19.922-19.883 19.922-11.016 0-19.96-8.906-19.96-19.922s8.944-19.922 19.96-19.922c10.977 0 19.883 8.907 19.883 19.922zm0 0" style="fill-rule:nonzero;fill:#000;fill-opacity:1;stroke-width:3.985;stroke-linecap:butt;stroke-linejoin:miter;stroke:#000;stroke-opacity:1;stroke-miterlimit:10" transform="matrix(.1 0 0 -.1 0 108)"/><path d="M472.031 290.352v-19.336m0-38.711v-19.336m0 0v-19.336m0-38.673v-19.374m648.009 677.07v-28.203m0-56.445v-28.203m0 0v-28.203m0-56.446v-28.203m0 0V558.75m0-56.406V474.14m0 0v-28.242m0-56.406V361.29m0 0v-28.204m0-56.446v-28.202m0 0v-28.204m0-56.406v-28.242" style="fill:none;stroke-width:3.985;stroke-linecap:butt;stroke-linejoin:miter;stroke:#000;stroke-opacity:1;stroke-miterlimit:10" transform="matrix(.1 0 0 -.1 0 108)"/><use xlink:href="#a" x="44.081" y="104.185" style="fill:#000;fill-opacity:1"/><use xlink:href="#b" x="109.002" y="104.185" style="fill:#000;fill-opacity:1"/><use xlink:href="#c" x="18.4" y="32.88" style="fill:#000;fill-opacity:1"/><use xlink:href="#d" x="23.44" y="32.88" style="fill:#000;fill-opacity:1"/><use xlink:href="#e" x="26.92" y="32.88" style="fill:#000;fill-opacity:1"/><use xlink:href="#f" x="33.4" y="32.88" style="fill:#000;fill-opacity:1"/><use xlink:href="#g" x="40.6" y="32.88" style="fill:#000;fill-opacity:1"/><use xlink:href="#h" x="49.36" y="32.88" style="fill:#000;fill-opacity:1"/><use xlink:href="#i" x="63.16" y="26.28" style="fill:#000;fill-opacity:1"/><use xlink:href="#j" x="67.24" y="26.28" style="fill:#000;fill-opacity:1"/><use xlink:href="#k" x="70.48" y="26.28" style="fill:#000;fill-opacity:1"/><use xlink:href="#l" x="75.28" y="26.28" style="fill:#000;fill-opacity:1"/><use xlink:href="#m" x="78.28" y="26.28" style="fill:#000;fill-opacity:1"/><use xlink:href="#i" x="85.48" y="26.28" style="fill:#000;fill-opacity:1"/><use xlink:href="#j" x="89.68" y="26.28" style="fill:#000;fill-opacity:1"/><use xlink:href="#n" x="93.16" y="26.28" style="fill:#000;fill-opacity:1"/><use xlink:href="#l" x="98.08" y="26.28" style="fill:#000;fill-opacity:1"/><path d="M61.828 29.41h39.121v.719H61.83zm0 0" style="stroke:none;fill-rule:nonzero;fill:#000;fill-opacity:1"/><use xlink:href="#k" x="73.6" y="36.959" style="fill:#000;fill-opacity:1"/><use xlink:href="#m" x="78.4" y="36.959" style="fill:#000;fill-opacity:1"/><use xlink:href="#n" x="84.76" y="36.959" style="fill:#000;fill-opacity:1"/><path d="m40 584.883 36.016 10.937 35.976 7.774 36.016 4.687 35.976 1.563L220 537.695l36.016-61.992 36.015-52.344 35.977-43.164 35.976-34.375L400 319.688l36.016-18.32 36.015-11.016 35.977-4.141 35.976 2.266L580 296.68l36.016 13.632 36.015 18.633 35.977 23.203 36.015 27.227L760 410.156l36.016 33.946 36.015 36.562 35.977 38.79 36.015 40.468L940 601.64l36.016 42.5 36.015 42.851 35.977 42.656 36.015 42.032 36.016 40.976 35.977 39.375 36.015 37.383 35.977 34.844 36.015 31.914 36.016 28.476 35.977 6.25 36.015 6.211 35.977 6.25 72.031 12.5" style="fill:none;stroke-width:7.9701;stroke-linecap:butt;stroke-linejoin:miter;stroke:#000;stroke-opacity:1;stroke-miterlimit:10" transform="matrix(.1 0 0 -.1 0 108)"/></svg>