<svg xmlns="http://www.w3.org/2000/svg" xmlns:xlink="http://www.w3.org/1999/xlink" width="292" height="166pt" viewBox="0 0 219 166"><defs><symbol id="a" overflow="visible"><path d="M4.172.031v-.297l-.516-.03C3.094-.329 3-.439 3-.954v-5.922l-.14-.047c-.641.344-1.36.64-2.266.953l.078.438h.094c.437-.203.875-.407 1.312-.594.063 0 .078.094.078.328v4.844c0 .515-.11.625-.64.656l-.563.031V.03C1.5.016 2.047 0 2.61 0c.516 0 1.047.016 1.563.031zm0 0" style="stroke:none"/></symbol><symbol id="b" overflow="visible"><path d="M4.672.031C4.64-.172 4.64-.28 4.64-.422c0-.125 0-.219.03-.453l-3.452.11L3.03-2.688C4-3.72 4.297-4.266 4.297-5.017c0-1.14-.781-1.859-2.047-1.859-.719 0-1.203.203-1.688.703l-.171 1.36h.28l.141-.47c.157-.577.516-.812 1.188-.812.844 0 1.406.532 1.406 1.375 0 .75-.422 1.485-1.547 2.688L.156-.234V.03C.891.016 1.641 0 2.375 0c.766 0 1.531.016 2.297.031m0 0" style="stroke:none"/></symbol><symbol id="c" overflow="visible"><path d="M4.61-2.234c0-.485-.204-.891-.563-1.141-.25-.188-.484-.266-.969-.36.797-.609 1.094-1.078 1.094-1.656 0-.89-.75-1.484-1.844-1.484-.687 0-1.125.203-1.61.672L.423-4.97h.312l.188-.547c.11-.343.734-.687 1.25-.687.656 0 1.172.531 1.172 1.156 0 .75-.578 1.375-1.297 1.375-.078 0-.469-.031-.469-.031l-.11.531.063.063c.375-.172.578-.22.844-.22.828 0 1.297.532 1.297 1.438 0 1.016-.594 1.688-1.531 1.688-.454 0-.86-.156-1.157-.438C.735-.86.61-1.095.423-1.626l-.266.094C.36-.921.437-.563.5-.063c.531.188.969.266 1.328.266C3.047.203 4.61-.844 4.61-2.234m0 0" style="stroke:none"/></symbol><symbol id="d" overflow="visible"><path d="M4.703.031v-.297l-.469-.03c-.5-.032-.609-.157-.609-.766v-.735c.594 0 .797 0 1.078.031v-.703s-.484.031-.812.031h-.266v-1.39c0-1.781.031-2.625.078-3.047l-.125-.047-.734.266L.016-2.031l.109.234h2.672v.734c0 .61-.11.75-.61.766l-.609.031v.297C2.11.016 2.641 0 3.188 0c.5 0 1.015.016 1.515.031M2.797-2.438H.64l2.156-3.515zm0 0" style="stroke:none"/></symbol><symbol id="e" overflow="visible"><path d="M4.578-2.516c0-1.14-.812-1.937-1.953-1.937-.469 0-.828.14-1.453.5l.094-2.078 3.046.047.047-.047c-.015-.172-.015-.235-.015-.39 0-.157 0-.22.015-.391l-.046-.063s-1.063.063-1.735.063c-.687 0-1.734-.063-1.734-.063l-.063.063.031 1.359c0 .875-.03 1.797-.062 2.25l.203.047c.469-.469.735-.61 1.219-.61.953 0 1.562.688 1.562 1.766C3.734-.89 3.094-.25 2-.25 1.469-.25.969-.422.828-.688L.375-1.5l-.25.14c.234.563.36.876.5 1.313.266.156.672.25 1.094.25.672 0 1.375-.297 1.937-.766.594-.546.922-1.218.922-1.953m0 0" style="stroke:none"/></symbol><symbol id="g" overflow="visible"><path d="M4.64-3.656c0-2.172-.656-3.219-2.015-3.219-1.547 0-2.328 1.234-2.328 3.64 0 1.172.203 2.172.547 2.672.36.485.906.766 1.531.766 1.5 0 2.266-1.297 2.266-3.86zm-.843.5c0 2.125-.375 3-1.297 3-.969 0-1.375-1-1.375-3.438 0-2.094.375-2.922 1.313-2.922.968 0 1.359.97 1.359 3.36m0 0" style="stroke:none"/></symbol><symbol id="h" overflow="visible"><path d="M3.89-1.469c0-.312-.078-.547-.265-.75-.266-.25-.594-.36-1.469-.531-.828-.156-1.094-.36-1.094-.813 0-.5.36-.78.97-.78.655 0 1.171.343 1.171.812v.234h.281c0-.578.016-.812.047-1.125-.531-.187-.89-.25-1.297-.25-1.156 0-1.859.547-1.859 1.438 0 .484.219.828.672 1.03.266.126.797.282 1.469.423.453.11.64.312.64.687 0 .547-.5.922-1.203.922-.734 0-1.25-.344-1.25-.844v-.406H.406c0 .688-.031.984-.11 1.375.516.172.907.25 1.376.25C2.969.203 3.89-.5 3.89-1.469m0 0" style="stroke:none"/></symbol><symbol id="i" overflow="visible"><path d="M5.703.031v-.297l-.406-.03c-.344-.017-.375-.079-.375-.72v-1.921c0-1.172-.547-1.735-1.656-1.735-.375 0-.579.063-.797.25l-.75.656v-3.39l-.094-.078c-.438.171-.766.25-1.563.359v.281h.563c.188 0 .25.11.25.407v5.171c0 .625-.031.704-.36.72l-.453.03v.297A33 33 0 0 1 1.298 0c.406 0 .828.016 1.234.031v-.297l-.453-.03c-.328-.017-.36-.095-.36-.72v-2.109c0-.453.657-.938 1.266-.938.672 0 1.11.5 1.11 1.266V.031C4.344.016 4.609 0 4.875 0c.281 0 .547.016.828.031m0 0" style="stroke:none"/></symbol><symbol id="j" overflow="visible"><path d="M4.688.031v-.297l-.375-.03c-.25 0-.282-.079-.282-.579v-1.813c0-1.453-.422-1.984-1.578-1.984-.422 0-.828.11-1.203.328l-.531.328v.641l.265.078.125-.312c.204-.47.313-.532.766-.532.938 0 1.328.36 1.36 1.266l-.985.188C.89-2.438.312-1.97.312-1.11c0 .78.47 1.234 1.266 1.234.172 0 .344-.031.422-.078l1.234-.86-.046.844c.25-.014.515-.03.765-.03s.5.016.735.031M3.234-1.234c-.296.406-.921.78-1.312.78-.39 0-.75-.358-.75-.796 0-.36.203-.719.5-.906.25-.14.797-.281 1.562-.39zm0 0" style="stroke:none"/></symbol><symbol id="k" overflow="visible"><path d="M5.766.031v-.297l-.454-.03c-.343-.017-.375-.095-.375-.72v-6.14l-.078-.078c-.437.171-.765.25-1.562.359v.281h.562c.172 0 .25.11.25.407v1.828c-.562-.235-.843-.313-1.187-.313a1.7 1.7 0 0 0-.766.188l-.875.453C.72-3.734.344-3 .344-2.156c0 .797.281 1.453.765 1.86.344.28.797.421 1.454.421.203 0 .421-.047.484-.078L4.14-.891l-.047.922C4.359.016 4.609 0 4.859 0c.297 0 .61.016.907.031M4.109-2.203c0 .64-.015.75-.156.984-.281.469-.765.766-1.234.766-.875 0-1.5-.844-1.5-2.031 0-1.079.531-1.72 1.437-1.72.375 0 .766.126 1.125.36.203.14.328.281.328.36zm0 0" style="stroke:none"/></symbol><symbol id="l" overflow="visible"><path d="M4.469-2.781c0-1.14-.735-1.89-1.86-1.89-.359 0-.796.124-1.203.359C.594-3.845.266-3.22.266-2.188c0 .624.14 1.171.406 1.546.39.532 1.078.844 1.828.844.36 0 .734-.078 1.14-.266.266-.109.47-.234.516-.296l.203-.344-.125-.094c-.64.375-.875.469-1.296.469-.657 0-1.188-.297-1.47-.781-.187-.329-.265-.61-.28-1.188H2.64c.687 0 1.125-.031 1.812-.14 0-.141.016-.22.016-.344zm-.89.125-1.11.031c-.469 0-.719-.016-1.266-.063 0-.468.047-.687.172-.953.203-.437.64-.703 1.125-.703.328 0 .578.125.766.39.218.329.312.626.312 1.298zm0 0" style="stroke:none"/></symbol><symbol id="m" overflow="visible"><path d="M3.734-4.563c-.109-.078-.296-.109-.468-.109-.313 0-.625.156-.829.406l-.562.657v-1.032l-.094-.03c-.5.202-1.031.343-1.547.405v.282h.36c.406 0 .437.062.437.718v2.25c0 .625-.031.704-.36.72l-.468.03v.297C.625.016 1.031 0 1.437 0c.47 0 .938.016 1.422.031v-.297l-.515-.03c-.453-.032-.469-.063-.469-.72v-1.718c0-.594.39-1.094.89-1.094.297 0 .5.14.657.453h.219zm0 0" style="stroke:none"/></symbol><symbol id="n" overflow="visible"><path d="M5.64-3.078v-.563H.407v.563zm0 1.719v-.547H.407v.547zm0 0" style="stroke:none"/></symbol><symbol id="o" overflow="visible"><path d="M2.703.031v-.297l-.453-.03c-.344-.017-.375-.095-.375-.72v-6.14l-.094-.078c-.437.171-.765.25-1.547.359v.281h.547c.188 0 .25.11.25.407v5.171c0 .625-.031.704-.36.72l-.468.03v.297C.625.016 1.031 0 1.453 0s.828.016 1.25.031m0 0" style="stroke:none"/></symbol><symbol id="p" overflow="visible"><path d="M5.703.031v-.297l-.406-.03c-.344-.017-.375-.079-.375-.72v-1.921c0-1.172-.547-1.735-1.656-1.735-.375 0-.579.063-.797.25l-.75.656v-.875l-.094-.03a6.2 6.2 0 0 1-1.563.405v.282h.376c.406 0 .437.062.437.718v2.25c0 .625-.031.704-.36.72l-.453.03v.297A33 33 0 0 1 1.298 0c.406 0 .828.016 1.234.031v-.297l-.453-.03c-.328-.017-.36-.095-.36-.72v-2.109c0-.453.657-.938 1.266-.938.672 0 1.11.5 1.11 1.266V.031C4.344.016 4.609 0 4.875 0c.281 0 .547.016.828.031m0 0" style="stroke:none"/></symbol><symbol id="f" overflow="visible"><path d="M6.016-2.406v-.578H.64v.578zm0 0" style="stroke:none"/></symbol><symbol id="q" overflow="visible"><path d="M3.031-7.531C1.516-6.547.594-4.828.594-2.688c0 1.954.953 3.813 2.406 4.813l.125-.172C1.75.75 1.5-.407 1.5-2.734c0-2.313.281-3.532 1.625-4.625zm0 0" style="stroke:none"/></symbol><symbol id="r" overflow="visible"><path d="m.422-7.531-.11.172c1.36 1.093 1.625 2.312 1.625 4.625C1.938-.406 1.704.75.313 1.953l.141.172c1.453-1 2.39-2.86 2.39-4.813 0-2.14-.905-3.859-2.421-4.843zm0 0" style="stroke:none"/></symbol><symbol id="w" overflow="visible"><path d="M.64 2.031h.563l2.969-9.453h-.547zm0 0" style="stroke:none"/></symbol><symbol id="s" overflow="visible"><path d="m4.89-4.719-.109-.093a3 3 0 0 1-.75.203l-.343 1.312c-.126.469-.47 1.188-.797 1.688-.344.5-.844.937-1.063.937s-.187-.469-.187-.61l.156-1.921c.016-.313.031-.688.031-.969 0-.453-.062-.64-.234-.64-.125 0-.266.078-.75.406l-.813.562.11.172.5-.297c.046-.031.171-.125.25-.125.25 0 .218.516.203.672L.922-1v.406c-.016.422.172.703.422.703.375 0 1.203-.843 1.953-1.968L2.812-.156C2.297 1.609 1.798 2.328 1.11 2.328a.604.604 0 0 1-.625-.61c0-.046.016-.14.032-.218l-.11-.047-.469.344c-.015.062-.015.125-.015.172 0 .437.375.781.812.781 1.063 0 2.157-1.234 2.75-3.078zm0 0" style="stroke:none"/></symbol><symbol id="u" overflow="visible"><path d="M4.469-.781 4.39-.984c-.36.312-.61.453-.766.453s-.281-.094-.39-.297a6 6 0 0 1-.25-.844l-.172-1.016.343-.484c.469-.64.735-.875 1.047-.875.156 0 .281.078.328.234l.14-.046.157-.844c-.125-.078-.219-.11-.297-.11-.406 0-.797.36-1.422 1.282l-.375.547-.046-.47c-.126-1-.391-1.358-.985-1.358-.25 0-.484.093-.562.218l-.579.828.172.094c.297-.328.485-.469.688-.469.328 0 .547.407.719 1.375l.109.625-.406.61c-.422.672-.766 1-1.047 1-.156 0-.266-.047-.28-.094l-.11-.281-.203.031c0 .203-.016.328-.078.64-.016.126-.031.157-.031.22a1 1 0 0 0 .422.124c.328 0 .718-.28 1.03-.75l.75-1.171.11.687c.14.844.36 1.234.719 1.234.219 0 .547-.171.86-.453zm0 0" style="stroke:none"/></symbol><symbol id="t" overflow="visible"><path d="M.64-3.453h5.376v-.594H.64zm0 2.125h5.376v-.594H.64zm0 0" style="stroke:none"/></symbol><symbol id="v" overflow="visible"><path d="M3.031.016v-.22l-.375-.015c-.39-.015-.469-.093-.469-.484V-5l-.109-.047c-.469.25-.984.469-1.64.703l.046.313h.079c.312-.14.64-.297.953-.438.046 0 .062.078.062.25v3.516c0 .39-.078.469-.469.484l-.406.016v.219C1.093 0 1.5 0 1.891 0s.765 0 1.14.016m0 0" style="stroke:none"/></symbol><symbol id="x" overflow="visible"><path d="m3.266-.578-.063-.14q-.398.327-.562.327c-.11 0-.204-.062-.282-.218-.062-.125-.14-.407-.187-.61l-.125-.734.25-.36c.344-.468.547-.64.765-.64.126 0 .204.062.25.172l.094-.031.11-.61a.37.37 0 0 0-.22-.078c-.28 0-.577.266-1.03.922L2-2.172l-.047-.344c-.078-.718-.281-.984-.703-.984-.203 0-.36.063-.422.156l-.422.594.125.078c.219-.25.36-.344.5-.344.235 0 .407.297.532 1l.078.454-.297.453C1.03-.625.78-.391.578-.391c-.11 0-.187-.03-.203-.062L.297-.656l-.14.015c0 .141-.016.235-.063.47C.078-.079.078-.063.062 0c.11.047.235.078.313.078.25 0 .531-.203.75-.547l.547-.86.094.5c.093.626.25.907.515.907.156 0 .39-.125.625-.328zm0 0" style="stroke:none"/></symbol></defs><path d="m57 43.84 5.398 4.695 5.403 3.61 5.402 2.867 5.399 2.328L84 59.27l5.402 1.62 5.399 1.387 5.402 1.2 5.399 1.043 5.402.918 5.398.816 5.399.726 5.402.657 5.399.59 5.402.535 5.398.488 5.399.445 5.402.414 5.399.38 5.402.35v9H57v-36" style="stroke:none;fill-rule:nonzero;fill:#ccc;fill-opacity:1"/><path d="m570 1221.602 53.984-46.954 54.024-36.093 54.023-28.672 53.985-23.281L840 1067.305l54.023-16.211 53.985-13.867 54.023-11.993 53.985-10.43 54.023-9.179 53.984-8.164 53.985-7.266 54.023-6.562 53.985-5.899 54.023-5.351 53.984-4.883 53.985-4.453 54.023-4.14 53.985-3.79 54.023-3.515v-90H570zm0 0" style="fill:none;stroke-width:3.985;stroke-linecap:butt;stroke-linejoin:miter;stroke:#ccc;stroke-opacity:1;stroke-miterlimit:10" transform="matrix(.1 0 0 -.1 0 166)"/><path d="m570 1221.602 13.516-11.72m26.992-23.476 13.476-11.758m0 0 13.516-9.023m27.031-18.047 13.477-9.023m0 0 13.515-7.188m26.993-14.336 13.515-7.148m0 0 13.477-5.82m26.992-11.641 13.516-5.82m0 0 13.515-4.805m26.992-9.649 13.477-4.843m0 0 13.516-4.024m26.992-8.125 13.515-4.062m0 0 13.477-3.477m27.031-6.914 13.477-3.476m0 0 13.515-3.008m26.993-5.977 13.515-3.008m0 0 13.477-2.578m26.992-5.234 13.516-2.617m0 0 13.515-2.305m26.992-4.61 13.516-2.265m.001 0 13.476-2.031m26.992-4.102 13.515-2.031m0-.001 13.516-1.835m26.992-3.594 13.477-1.836m0 0 13.515-1.64m26.993-3.282 13.515-1.64m0 0 13.477-1.485m27.032-2.929 13.476-1.485m0 0 13.515-1.328m26.992-2.696 13.516-1.327m.001 0 13.476-1.211m26.992-2.462 13.515-1.21m0 0 13.516-1.133m26.992-2.227 13.477-1.093m0 0 13.515-1.055m26.993-2.07 13.515-1.016m0 0 13.477-.937m27.032-1.914 13.476-.938m0 0 13.515-.86m26.992-1.757 13.516-.898m.001 0v-22.5m0-45v-22.5m0 0h-13.517m-26.992 0h-13.515m0 0h-13.477m-27.031 0h-13.477m0 0h-13.515m-26.993 0h-13.515m0 0h-13.477m-26.991 0h-13.517m0 0h-13.515m-26.992 0h-13.477m.001 0h-13.517m-26.992 0h-13.515m0 0h-13.477m-27.031 0h-13.477m0 0h-13.515m-26.993 0h-13.515m0 0h-13.477m-26.991 0h-13.517m0 0h-13.515m-26.992 0h-13.477m.001 0h-13.517m-26.992 0h-13.515m0 0H1042.5m-26.992 0h-13.477m0 0h-13.515m-26.993 0h-13.515m0 0H934.53m-27.03 0h-13.477m0 0h-13.515m-26.992 0H840m0 0h-13.477m-26.992 0h-13.515m0 0H772.5m-26.992 0H732.03m.001 0h-13.515m-26.993 0h-13.515m0 0H664.53m-27.03 0h-13.516m0 0h-13.476m-26.992 0H570m0 0v22.5m0 45v22.5m0 0v22.5m0 45v22.5m0 0v22.5m0 45v22.5m0 0v22.5m0 45v22.5m-180 360 4.531-15m8.985-30 4.492-15m0 0 4.492-15m8.984-30 4.532-15m0 0 8.984-21.407m18.008-42.851 9.023-21.446m0 0 8.985-16.093m17.968-32.11 9.024-16.093m0 0 9.023-12.5m17.969-25 8.984-12.5m0 0 9.024-10m18.008-20 8.984-10m1080.04-270 17.968-1.055m36.015-2.149 18.008-1.093m0 0 18.008-.938m35.977-1.953 18.007-.976m0 0 18.008-.899m35.977-1.758 18.008-.898m0 0 18.007-.82m36.017-1.641 17.968-.82m0 0 18.008-.743m36.015-1.484 18.008-.781M570 861.602h1440.04" style="fill:none;stroke-width:3.985;stroke-linecap:butt;stroke-linejoin:miter;stroke:#000;stroke-opacity:1;stroke-miterlimit:10" transform="matrix(.1 0 0 -.1 0 166)"/><path d="M56.75 79.852h.602v6h-.602zm36 0h.602v6h-.602zm36 0h.602v6h-.602zm36 0h.602v6h-.602zm36 0h.602v6h-.602zm0 0" style="stroke:none;fill-rule:nonzero;fill:#000;fill-opacity:1"/><use xlink:href="#a" x="54.481" y="94.77" style="fill:#000;fill-opacity:1"/><use xlink:href="#b" x="90.481" y="94.65" style="fill:#000;fill-opacity:1"/><use xlink:href="#c" x="126.481" y="94.65" style="fill:#000;fill-opacity:1"/><use xlink:href="#d" x="162.482" y="94.77" style="fill:#000;fill-opacity:1"/><use xlink:href="#e" x="198.482" y="94.65" style="fill:#000;fill-opacity:1"/><path d="M210 861.602h1980.04M210 141.602v1440" style="fill:none;stroke-width:3.985;stroke-linecap:butt;stroke-linejoin:miter;stroke:#000;stroke-opacity:1;stroke-miterlimit:10" transform="matrix(.1 0 0 -.1 0 166)"/><path d="M14.988 151.492h6v.602h-6zm0-36h6v.602h-6zm0-36h6v.602h-6zm0-36h6v.602h-6zm0-36.004h6v.602h-6zm0 0" style="stroke:none;fill-rule:nonzero;fill:#000;fill-opacity:1"/><use xlink:href="#f" x="1.389" y="155.32" style="fill:#000;fill-opacity:1"/><use xlink:href="#b" x="8.109" y="155.32" style="fill:#000;fill-opacity:1"/><use xlink:href="#f" x="1.389" y="119.32" style="fill:#000;fill-opacity:1"/><use xlink:href="#a" x="8.109" y="119.32" style="fill:#000;fill-opacity:1"/><use xlink:href="#g" x="7.989" y="83.2" style="fill:#000;fill-opacity:1"/><use xlink:href="#a" x="7.989" y="47.319" style="fill:#000;fill-opacity:1"/><use xlink:href="#b" x="7.989" y="11.318" style="fill:#000;fill-opacity:1"/><path d="m258.71 141.602 32.188 182.617 32.188 120.547 32.187 90.156 32.188 72.07 32.226 60 32.188 51.406 32.148 45 32.188 39.961 32.226 35.977 32.188 32.734 32.188 29.961L645 929.727l32.188 25.703 32.187 23.984 32.188 22.461 32.187 21.172 32.188 20 32.187 18.945 32.188 17.969 32.187 17.148 32.188 16.368 32.187 15.625 32.188 15 32.187 14.414 32.188 13.828 32.187 13.32 32.188 12.852 32.187 12.421 32.188 11.993 32.187 11.601 32.188 11.25 32.187 10.938 32.188 10.547 32.187 10.312 32.188 9.961 32.187 9.766 32.188 9.453 32.187 9.219 32.188 8.984 32.226 8.828 32.149 8.555 32.187 8.36 32.188 8.163 32.226 8.008 32.188 7.813 32.148 7.656 32.188 7.5 32.226 7.343 32.188 7.227 32.148 7.031 32.227 6.953 32.187 6.758 32.188 6.68 32.148 6.562 32.227 6.407 32.187 6.328 32.188 6.21 32.187 6.094 32.188 5.977 32.187 5.899" style="fill:none;stroke-width:7.9701;stroke-linecap:butt;stroke-linejoin:miter;stroke:#000;stroke-opacity:1;stroke-miterlimit:10" transform="matrix(.1 0 0 -.1 0 166)"/><path d="M1650.04 1168.75v191.914" style="fill:none;stroke-width:3.985;stroke-linecap:butt;stroke-linejoin:miter;stroke:#000;stroke-opacity:1;stroke-miterlimit:10" transform="matrix(.1 0 0 -.1 0 166)"/><path d="M165.004 38.152h1.492l-1.492-8.218-1.496 8.218z" style="stroke:none;fill-rule:nonzero;fill:#000;fill-opacity:1"/><path d="M1650.04 1278.477h14.92l-14.92 82.187-14.962-82.187zm0-224.922V861.602" style="fill:none;stroke-width:3.985;stroke-linecap:butt;stroke-linejoin:miter;stroke:#000;stroke-opacity:1;stroke-miterlimit:10" transform="matrix(.1 0 0 -.1 0 166)"/><path d="M165.004 71.617h-1.496l1.496 8.223 1.492-8.223z" style="stroke:none;fill-rule:nonzero;fill:#000;fill-opacity:1"/><path d="M1650.04 943.828h-14.962l14.961-82.226 14.922 82.226zm0 0" style="fill:none;stroke-width:3.985;stroke-linecap:butt;stroke-linejoin:miter;stroke:#000;stroke-opacity:1;stroke-miterlimit:10" transform="matrix(.1 0 0 -.1 0 166)"/><use xlink:href="#h" x="122.642" y="57.645" style="fill:#000;fill-opacity:1"/><use xlink:href="#i" x="126.842" y="57.645" style="fill:#000;fill-opacity:1"/><use xlink:href="#j" x="132.602" y="57.645" style="fill:#000;fill-opacity:1"/><use xlink:href="#k" x="137.642" y="57.645" style="fill:#000;fill-opacity:1"/><use xlink:href="#l" x="143.762" y="57.645" style="fill:#000;fill-opacity:1"/><use xlink:href="#k" x="148.562" y="57.645" style="fill:#000;fill-opacity:1"/><use xlink:href="#j" x="157.082" y="57.645" style="fill:#000;fill-opacity:1"/><use xlink:href="#m" x="162.122" y="57.645" style="fill:#000;fill-opacity:1"/><use xlink:href="#l" x="166.082" y="57.645" style="fill:#000;fill-opacity:1"/><use xlink:href="#j" x="170.882" y="57.645" style="fill:#000;fill-opacity:1"/><use xlink:href="#n" x="178.202" y="57.645" style="fill:#000;fill-opacity:1"/><use xlink:href="#o" x="186.722" y="57.645" style="fill:#000;fill-opacity:1"/><use xlink:href="#p" x="189.602" y="57.645" style="fill:#000;fill-opacity:1"/><use xlink:href="#q" x="195.482" y="57.645" style="fill:#000;fill-opacity:1"/><use xlink:href="#d" x="198.962" y="57.645" style="fill:#000;fill-opacity:1"/><use xlink:href="#r" x="204.001" y="57.645" style="fill:#000;fill-opacity:1"/><use xlink:href="#s" x="43.464" y="112.839" style="fill:#000;fill-opacity:1"/><use xlink:href="#t" x="51.745" y="112.839" style="fill:#000;fill-opacity:1"/><use xlink:href="#o" x="61.105" y="112.839" style="fill:#000;fill-opacity:1"/><use xlink:href="#p" x="63.985" y="112.839" style="fill:#000;fill-opacity:1"/><use xlink:href="#q" x="69.865" y="112.839" style="fill:#000;fill-opacity:1"/><use xlink:href="#u" x="73.585" y="112.839" style="fill:#000;fill-opacity:1"/><use xlink:href="#r" x="79.105" y="112.839" style="fill:#000;fill-opacity:1"/><use xlink:href="#s" x="52.464" y="24.637" style="fill:#000;fill-opacity:1"/><use xlink:href="#t" x="60.745" y="24.637" style="fill:#000;fill-opacity:1"/><use xlink:href="#v" x="70.105" y="22.718" style="fill:#000;fill-opacity:1"/><use xlink:href="#w" x="72.745" y="24.637" style="fill:#000;fill-opacity:1"/><use xlink:href="#x" x="77.184" y="24.637" style="fill:#000;fill-opacity:1"/></svg>