<svg xmlns="http://www.w3.org/2000/svg" xmlns:xlink="http://www.w3.org/1999/xlink" width="396" height="79pt" viewBox="0 0 297 79"><defs><symbol id="a" overflow="visible"><path d="M5.625.031v-.36l-.469-.015c-.281-.015-.328-.11-.328-.703v-2.187c0-1.735-.5-2.375-1.89-2.375-.516 0-.985.14-1.438.406l-.64.39v.766l.312.094.156-.375c.234-.563.375-.64.922-.64 1.125 0 1.594.437 1.625 1.53l-1.188.204C1.063-2.922.376-2.36.376-1.328.375-.391.938.14 1.891.14c.218 0 .421-.032.5-.094l1.484-1.03L3.812.03C4.125.016 4.439 0 4.75 0c.297 0 .578.016.875.031m-1.75-1.515c-.344.5-1.11.953-1.563.953-.484 0-.906-.453-.906-.969 0-.438.25-.86.61-1.078.296-.188.953-.344 1.859-.485zm0 0" style="stroke:none"/></symbol><symbol id="b" overflow="visible"><path d="M6.078-3.234c0-1.375-.906-2.375-2.172-2.375-.562 0-1.14.218-1.453.53l-.656.673v-4.172l-.11-.094c-.53.203-.921.297-1.859.438v.328h.656c.22 0 .297.14.297.5v5.578c0 .734 0 1.062-.094 1.906l.204.063.468-.422c.485.312.907.422 1.547.422.469 0 .781-.078 1.031-.266l1.188-.86c.531-.374.953-1.374.953-2.25zm-1.047.5c0 1.328-.718 2.265-1.734 2.265-.625 0-1.5-.375-1.5-.64v-2.579c0-.156.11-.374.312-.593a1.78 1.78 0 0 1 1.282-.547c1.015 0 1.64.812 1.64 2.094m0 0" style="stroke:none"/></symbol><symbol id="c" overflow="visible"><path d="M4.672-1.766c0-.375-.094-.656-.328-.89-.313-.313-.703-.438-1.766-.64-.969-.188-1.297-.438-1.297-.985 0-.594.422-.938 1.14-.938.813 0 1.423.422 1.423.985v.28h.328c.016-.702.031-.983.062-1.358-.64-.204-1.062-.297-1.562-.297-1.375 0-2.235.656-2.235 1.734 0 .578.266.984.813 1.234.328.141.969.329 1.781.516.531.11.766.375.766.828 0 .64-.61 1.094-1.453 1.094-.875 0-1.5-.422-1.5-1.016v-.484h-.36C.484-.891.454-.531.36-.047.984.156 1.453.234 2 .234c1.563 0 2.672-.828 2.672-2m0 0" style="stroke:none"/></symbol><symbol id="d" overflow="visible"><path d="M6.14-2.828c0-1.625-1.171-2.781-2.812-2.781C1.594-5.61.375-4.375.375-2.594.375-.906 1.453.234 2.985.234c1.843 0 3.156-1.28 3.156-3.062zm-1.109.437c0 1.375-.61 2.235-1.578 2.235C2.281-.156 1.5-1.296 1.5-3c0-1.438.563-2.219 1.625-2.219 1.094 0 1.906 1.203 1.906 2.828m0 0" style="stroke:none"/></symbol><symbol id="e" overflow="visible"><path d="M3.234.031v-.36l-.546-.03c-.407-.016-.438-.11-.438-.86v-7.36l-.11-.093c-.53.203-.921.297-1.859.438v.328h.656c.22 0 .313.14.313.5v6.187c0 .75-.047.844-.453.86L.25-.33v.36c.5-.014 1-.03 1.5-.03s.984.016 1.484.031m0 0" style="stroke:none"/></symbol><symbol id="f" overflow="visible"><path d="M6.938.031v-.36l-.485-.03c-.406-.016-.437-.094-.437-.86v-4.343l-.11-.047c-.61.25-1.234.421-1.86.5v.328h.438c.47 0 .532.078.532.875v1.953c0 .25-.172.594-.454.86a1.57 1.57 0 0 1-1.187.515c-.406 0-.75-.14-.938-.36-.171-.203-.25-.562-.25-1.093v-3.531l-.109-.047c-.61.25-1.234.421-1.86.5v.328h.438c.485 0 .531.078.531.875v2c0 .843.063 1.218.282 1.515.265.36.718.532 1.406.532.531 0 1.016-.172 1.328-.47l.813-.734c0 .344-.016.532-.063 1.094.344-.015.672-.031 1-.031s.656.016.984.031zm0 0" style="stroke:none"/></symbol><symbol id="g" overflow="visible"><path d="m3.813-5.219-1.641.078v-.453c0-.5.047-.937.14-1.703l-.156-.125c-.281.172-.64.328-1.015.453.046.36.046.578.046.938v.843l-.921.422v.25l.906-.046v3.437c0 .89.39 1.266 1.312 1.266.282 0 .563-.063.641-.141l.563-.64-.157-.204c-.297.172-.469.235-.703.235-.469 0-.656-.235-.656-.829v-3.125h1.531zm0 0" style="stroke:none"/></symbol><symbol id="h" overflow="visible"><path d="M5.36-3.328c0-1.375-.891-2.281-2.235-2.281-.438 0-.953.156-1.438.453C.704-4.61.313-3.86.313-2.625c0 .766.172 1.406.5 1.86.47.64 1.282 1 2.172 1 .454 0 .891-.094 1.375-.313.329-.125.579-.281.625-.36l.235-.406-.157-.11c-.765.454-1.03.563-1.546.563-.782 0-1.422-.343-1.766-.937-.219-.39-.297-.734-.328-1.422h1.75c.828 0 1.328-.031 2.156-.172.016-.156.031-.265.031-.406m-1.063.14-1.344.032c-.547 0-.86-.016-1.5-.078 0-.563.047-.813.203-1.125a1.47 1.47 0 0 1 1.328-.86c.391 0 .704.157.922.485.266.39.39.734.39 1.546zm0 0" style="stroke:none"/></symbol><symbol id="i" overflow="visible"><path d="M10.39.031v-.36l-.562-.03c-.406-.016-.437-.11-.437-.86v-2.468c0-1.172-.704-1.922-1.797-1.922-.422 0-.766.109-.985.296l-.906.813C5.313-5.281 4.828-5.61 4-5.61c-.438 0-.766.11-.984.298l-.829.765v-1.016l-.109-.046c-.61.25-1.234.421-1.86.5v.328h.438c.485 0 .531.078.531.875v2.687c0 .75-.046.844-.453.86l-.546.03v.36A49 49 0 0 1 1.702 0c.484 0 .953.016 1.422.031v-.36l-.5-.03c-.406-.016-.438-.11-.438-.86V-3.75c0-.547.782-1.125 1.5-1.125.657 0 1.094.61 1.094 1.516v2.14c0 .75-.031.844-.437.86l-.547.03v.36C4.297.016 4.78 0 5.28 0s1 .016 1.5.031v-.36l-.547-.03c-.406-.016-.453-.11-.453-.86V-3.75c0-.547.797-1.125 1.516-1.125.64 0 1.078.61 1.078 1.516V.03c.314-.014.641-.03.954-.03.36 0 .703.016 1.063.031zm0 0" style="stroke:none"/></symbol><symbol id="j" overflow="visible"><path d="M5.922.031v-.36l-.297-.03c-.14-.016-.281-.11-.406-.282L3.437-3.03l1.704-1.985c.078-.093.203-.14.406-.14h.172v-.328h-.985L3.25-3.391l-.906-1.39c-.188-.266-.313-.422-.719-.828l-1.39.25.062.296.25.032a.86.86 0 0 1 .594.343l1.437 2.079L.797-.5a.47.47 0 0 1-.36.172H.234V0h1.032s.078-.281.718-1.125l.891-1.172L4.453.031c.25-.015.5-.031.734-.031.25 0 .485.016.735.031m0 0" style="stroke:none"/></symbol><symbol id="k" overflow="visible"><path d="M3.234.031v-.36l-.546-.03c-.407-.016-.438-.11-.438-.86v-4.343l-.11-.047a7.3 7.3 0 0 1-1.859.5v.328H.72c.469 0 .531.078.531.875v2.687c0 .75-.047.844-.453.86L.25-.33v.36c.5-.014 1-.03 1.5-.03s.984.016 1.484.031m-.89-7.64c0-.344-.235-.61-.594-.61-.36 0-.61.25-.61.61 0 .359.25.593.61.593s.594-.234.594-.593m0 0" style="stroke:none"/></symbol><symbol id="l" overflow="visible"><path d="M4.078-7.656v-.922c-.25-.094-.39-.125-.547-.125-.39 0-.812.203-1.062.5l-.703.797c-.344.39-.5.922-.5 1.718v.5l-.829.375v.266l.829-.062v3.39c0 .75-.032.844-.438.86l-.547.03v.36C.781.016 1.266 0 1.766 0s1 .016 1.5.031v-.36l-.547-.03c-.406-.016-.453-.11-.453-.86v-3.39H3.75l.094-.625c-.531.03-1.047.046-1.578.046v-1.015c0-1.375.156-1.703.843-1.703.329 0 .532.078.829.328zm0 0" style="stroke:none"/></symbol><symbol id="r" overflow="visible"><path d="M6.844.031v-.36l-.5-.03c-.407-.016-.438-.094-.438-.86V-3.53c0-1.39-.656-2.078-2-2.078-.437 0-.687.093-.937.296l-.906.797v-1.046l-.11-.047c-.61.25-1.234.421-1.875.5v.328h.453c.469 0 .516.078.516.875v2.687c0 .75-.031.844-.438.86l-.53.03v.36C.561.016 1.062 0 1.546 0c.5 0 1 .016 1.484.031v-.36L2.5-.358c-.406-.016-.438-.11-.438-.86V-3.75c0-.547.782-1.125 1.516-1.125.797 0 1.328.594 1.328 1.516V.03C5.22.016 5.531 0 5.844 0c.343 0 .656.016 1 .031m0 0" style="stroke:none"/></symbol><symbol id="m" overflow="visible"><path d="M4.938-8.61c-.204-.093-.547-.156-.844-.156a1.1 1.1 0 0 0-.407.094c-.296.125-1.265.86-1.546 1.14-.266.266-.407.626-.532 1.298l-.187.953a10 10 0 0 1-1.031.437l-.063.266h.969l-.11.672C.829-1.578.391.64.125 1.469c-.219.703-.563 1.078-1 1.078-.266 0-.422-.078-.625-.344l-.156.047c-.047.266-.219.844-.282.953a.9.9 0 0 0 .422.094c.485 0 1.141-.375 1.594-.938.735-.859.985-1.671 1.875-5.89.063-.297.156-.656.219-1.047h1.25c.047-.234.125-.5.203-.672l-.047-.078-.094.016c-.28.093-.406.093-1 .093h-.187l.25-1.343c.187-1.032.531-1.485 1.078-1.485.36 0 .672.188.86.469l.124-.047zm0 0" style="stroke:none"/></symbol><symbol id="p" overflow="visible"><path d="m4.234-1.14-.093-.235-.188.125c-.86.563-1.312.766-1.734.766-.672 0-1.016-.47-1.016-1.422 0-1.266.406-2.5.984-2.953.25-.22.547-.313.938-.313.531 0 .969.219.969.516v.718h.265c.094-.78.188-1.218.297-1.53-.312-.204-.703-.298-1.156-.298-.531 0-1.39.422-2.063 1.016C.75-4.14.298-2.906.298-1.625c0 1.14.5 1.75 1.453 1.75.656 0 1.219-.234 1.89-.766zm0 0" style="stroke:none"/></symbol><symbol id="s" overflow="visible"><path d="m5.453-1.047-.125-.234-.516.375c-.171.125-.359.203-.468.203-.094 0-.172-.11-.172-.281 0-.094.031-.204.094-.547l1.5-7.094-.141-.14c-.61.312-1.047.421-1.906.5l-.047.25h.578c.281 0 .406.093.406.296 0 .094-.015.203-.031.282l-.328 1.843a3.4 3.4 0 0 0-.984-.172c-.829 0-1.954.86-2.5 1.907-.375.687-.61 1.828-.61 2.828C.203-.25.375.125.734.125c.313 0 .766-.203 1.172-.516.64-.53 1.032-1 1.828-2.203L3.47-1.5c-.14.516-.188.906-.188 1.219 0 .25.094.406.297.406.219 0 .5-.156.906-.453zm-1.281-3.86-.14.704c-.22 1.062-.798 2.11-1.548 2.812-.421.407-.89.688-1.125.688-.187 0-.296-.172-.296-.469 0-1.5.546-3.375 1.14-3.828.156-.11.375-.172.703-.172.531 0 .875.063 1.266.266zm0 0" style="stroke:none"/></symbol><symbol id="t" overflow="visible"><path d="m4.86-1.016-.094-.25c-.079.079-.094.079-.157.125-.375.329-.562.438-.734.438q-.188 0-.188-.281c0-.063 0-.094.016-.125l1.11-4.532-.125-.109-.391.219c-.469-.188-.703-.235-1.016-.235-.344 0-.578.063-.906.22-.75.374-1.125.734-1.438 1.312C.422-3.172.047-1.75.047-.781c0 .5.187.906.406.906.25 0 .688-.25 1.14-.625.516-.438.985-1 1.641-1.938L2.891-.921a3 3 0 0 0-.063.61c0 .28.094.437.281.437.266 0 .766-.328 1.75-1.14zM3.811-4.953c-.265 1.281-.484 1.906-.89 2.516-.656 1-1.406 1.734-1.797 1.734-.14 0-.219-.156-.219-.485 0-.765.313-2.093.735-3.078.28-.687.578-.906 1.156-.906.281 0 .5.047 1.015.219m0 0" style="stroke:none"/></symbol><symbol id="u" overflow="visible"><path d="M5.172-4.5c0-.453-.11-.922-.25-1.094-.078-.11-.234-.172-.422-.172-.281 0-.64.094-.969.266-.61.328-1.015.688-1.75 1.625l1.032-4.75-.141-.14c-.625.312-1.063.421-1.922.5l-.047.25h.578c.282 0 .407.093.407.296 0 .078-.016.219-.032.282L.453-.845c-.016.031-.016.078-.016.11 0 .468.579.859 1.235.859.437 0 1.047-.219 1.562-.594 1.157-.81 1.938-2.452 1.938-4.03m-.86.297c0 .766-.25 1.781-.609 2.562-.39.829-.875 1.204-1.515 1.204-.547 0-.844-.266-.844-.766 0-.297.047-.64.156-1.078.219-.953.516-1.531.984-2.031.391-.407 1.016-.75 1.36-.75.312 0 .469.265.469.859zm0 0" style="stroke:none"/></symbol><symbol id="n" overflow="visible"><path d="M.781-4.14H7.22v-.72H.78zm0 2.53H7.22v-.702H.78zm0 0" style="stroke:none"/></symbol><symbol id="o" overflow="visible"><path d="M3.64-9.031C1.813-7.844.72-5.797.72-3.234c0 2.343 1.14 4.578 2.875 5.78l.156-.202C2.094.906 1.812-.484 1.812-3.281c0-2.781.313-4.219 1.938-5.547zm0 0" style="stroke:none"/></symbol><symbol id="q" overflow="visible"><path d="m.5-9.031-.125.203C2.015-7.5 2.328-6.063 2.328-3.281c0 2.797-.281 4.187-1.953 5.625l.156.203c1.75-1.203 2.89-3.438 2.89-5.781 0-2.563-1.108-4.61-2.921-5.797m0 0" style="stroke:none"/></symbol></defs><path d="M1460.04 393.906h1505.468M1787.305 61.602v720" style="fill:none;stroke-width:3.985;stroke-linecap:butt;stroke-linejoin:miter;stroke:#b2b2b2;stroke-opacity:1;stroke-miterlimit:10" transform="matrix(.1 0 0 -.1 0 79)"/><path d="M1721.836 154.14h29.101m58.165 0h29.101m0 0h29.102m58.164 0h29.101m0 0h29.102m58.164 0h29.101m.001 0h29.101m58.164 0h29.102m0 0h29.101m58.164 0h29.102m0 0h29.062m58.204 0h29.101m.001 0h29.062m58.203 0h29.101m0 0h29.102m58.164 0h29.101m0 0h29.102m58.165 0h29.062M1721.836 687.656h29.101m58.165 0h29.101m0 0h29.102m58.164 0h29.101m0 0h29.102m58.164 0h29.101m.001 0h29.101m58.164 0h29.102m0 0h29.101m58.164 0h29.102m0 0h29.062m58.204 0h29.101m.001 0h29.062m58.203 0h29.101m0 0h29.102m58.164 0h29.101m0 0h29.102m58.165 0h29.062" style="fill:none;stroke-width:3.985;stroke-linecap:butt;stroke-linejoin:miter;stroke:#000;stroke-opacity:1;stroke-miterlimit:10" transform="matrix(.1 0 0 -.1 0 79)"/><use xlink:href="#a" x="6.319" y="13.116" style="fill:#000;fill-opacity:1"/><use xlink:href="#b" x="12.319" y="13.116" style="fill:#000;fill-opacity:1"/><use xlink:href="#c" x="18.919" y="13.116" style="fill:#000;fill-opacity:1"/><use xlink:href="#d" x="23.959" y="13.116" style="fill:#000;fill-opacity:1"/><use xlink:href="#e" x="30.439" y="13.116" style="fill:#000;fill-opacity:1"/><use xlink:href="#f" x="33.919" y="13.116" style="fill:#000;fill-opacity:1"/><use xlink:href="#g" x="41.119" y="13.116" style="fill:#000;fill-opacity:1"/><use xlink:href="#h" x="44.959" y="13.116" style="fill:#000;fill-opacity:1"/><use xlink:href="#i" x="53.839" y="13.116" style="fill:#000;fill-opacity:1"/><use xlink:href="#a" x="64.399" y="13.116" style="fill:#000;fill-opacity:1"/><use xlink:href="#j" x="70.399" y="13.116" style="fill:#000;fill-opacity:1"/><use xlink:href="#k" x="76.519" y="13.116" style="fill:#000;fill-opacity:1"/><use xlink:href="#i" x="79.999" y="13.116" style="fill:#000;fill-opacity:1"/><use xlink:href="#f" x="90.559" y="13.116" style="fill:#000;fill-opacity:1"/><use xlink:href="#i" x="97.759" y="13.116" style="fill:#000;fill-opacity:1"/><use xlink:href="#d" x="111.32" y="13.116" style="fill:#000;fill-opacity:1"/><use xlink:href="#l" x="117.8" y="13.116" style="fill:#000;fill-opacity:1"/><use xlink:href="#m" x="126.559" y="13.116" style="fill:#000;fill-opacity:1"/><use xlink:href="#n" x="135.439" y="13.116" style="fill:#000;fill-opacity:1"/><use xlink:href="#m" x="148.519" y="13.116" style="fill:#000;fill-opacity:1"/><use xlink:href="#o" x="154.159" y="13.116" style="fill:#000;fill-opacity:1"/><use xlink:href="#p" x="158.599" y="13.116" style="fill:#000;fill-opacity:1"/><use xlink:href="#q" x="164.119" y="13.116" style="fill:#000;fill-opacity:1"/><use xlink:href="#a" x="7.16" y="66.468" style="fill:#000;fill-opacity:1"/><use xlink:href="#b" x="13.16" y="66.468" style="fill:#000;fill-opacity:1"/><use xlink:href="#c" x="19.76" y="66.468" style="fill:#000;fill-opacity:1"/><use xlink:href="#d" x="24.8" y="66.468" style="fill:#000;fill-opacity:1"/><use xlink:href="#e" x="31.28" y="66.468" style="fill:#000;fill-opacity:1"/><use xlink:href="#f" x="34.76" y="66.468" style="fill:#000;fill-opacity:1"/><use xlink:href="#g" x="41.96" y="66.468" style="fill:#000;fill-opacity:1"/><use xlink:href="#h" x="45.8" y="66.468" style="fill:#000;fill-opacity:1"/><use xlink:href="#i" x="54.68" y="66.468" style="fill:#000;fill-opacity:1"/><use xlink:href="#k" x="65.24" y="66.468" style="fill:#000;fill-opacity:1"/><use xlink:href="#r" x="68.72" y="66.468" style="fill:#000;fill-opacity:1"/><use xlink:href="#k" x="75.68" y="66.468" style="fill:#000;fill-opacity:1"/><use xlink:href="#i" x="79.16" y="66.468" style="fill:#000;fill-opacity:1"/><use xlink:href="#f" x="89.72" y="66.468" style="fill:#000;fill-opacity:1"/><use xlink:href="#i" x="96.92" y="66.468" style="fill:#000;fill-opacity:1"/><use xlink:href="#d" x="110.481" y="66.468" style="fill:#000;fill-opacity:1"/><use xlink:href="#l" x="116.961" y="66.468" style="fill:#000;fill-opacity:1"/><use xlink:href="#m" x="125.72" y="66.468" style="fill:#000;fill-opacity:1"/><use xlink:href="#n" x="134.6" y="66.468" style="fill:#000;fill-opacity:1"/><use xlink:href="#m" x="147.68" y="66.468" style="fill:#000;fill-opacity:1"/><use xlink:href="#o" x="153.2" y="66.468" style="fill:#000;fill-opacity:1"/><use xlink:href="#s" x="157.64" y="66.468" style="fill:#000;fill-opacity:1"/><use xlink:href="#q" x="164" y="66.468" style="fill:#000;fill-opacity:1"/><path d="M1918.203 366.21v55.392m850.899-55.392v55.392" style="fill:none;stroke-width:3.985;stroke-linecap:butt;stroke-linejoin:miter;stroke:#000;stroke-opacity:1;stroke-miterlimit:10" transform="matrix(.1 0 0 -.1 0 79)"/><use xlink:href="#t" x="189.06" y="50.122" style="fill:#000;fill-opacity:1"/><use xlink:href="#u" x="273.912" y="51.682" style="fill:#000;fill-opacity:1"/><path d="M2556.406 393.906v-19.96m0-40.001v-19.96m0-.001v-20m0-39.961v-19.96m0 0v-20m0-39.961V154.14M2044.14 393.906v24.492m0 48.946v24.492m0 0v24.453m0 48.945v24.493m0 0v24.492m0 48.945v24.492" style="fill:none;stroke-width:3.985;stroke-linecap:butt;stroke-linejoin:miter;stroke:#000;stroke-opacity:1;stroke-miterlimit:10" transform="matrix(.1 0 0 -.1 0 79)"/><use xlink:href="#s" x="252.64" y="36.175" style="fill:#000;fill-opacity:1"/><use xlink:href="#p" x="201.893" y="50.122" style="fill:#000;fill-opacity:1"/><path d="m1918.203 576.68 21.29 36.328 21.25 28.554 21.288 21.29 21.25 14.453 21.29 8.086 21.288 2.226 21.25-3.242 21.29-8.281 21.25-12.774 21.289-16.875 21.289-20.508 21.25-23.671 21.289-26.407 21.25-28.632 21.289-30.43 21.25-31.836 21.289-32.656 21.289-33.125 21.25-33.086 21.289-32.617 21.25-31.68 21.289-30.274 21.25-28.437 21.289-26.133 21.29-23.36 21.288-20.155 21.25-16.485 21.29-12.344 21.25-7.773 21.288-2.695 21.25 2.773 21.29 8.711 21.25 15.156 21.288 22.031 21.29 29.336 21.25 37.11 21.289 45.39 21.25 54.024 21.289 63.203 21.25 72.813" style="fill:none;stroke-width:7.9701;stroke-linecap:butt;stroke-linejoin:miter;stroke:#000;stroke-opacity:1;stroke-miterlimit:10" transform="matrix(.1 0 0 -.1 0 79)"/></svg>