<svg xmlns="http://www.w3.org/2000/svg" xmlns:xlink="http://www.w3.org/1999/xlink" width="230pt" height="200" viewBox="0 0 230 150"><defs><symbol id="a" overflow="visible"><path d="m4.234-1.14-.093-.235-.188.125c-.86.563-1.312.766-1.734.766-.672 0-1.016-.47-1.016-1.422 0-1.266.406-2.5.984-2.953.25-.22.547-.313.938-.313.531 0 .969.219.969.516v.718h.265c.094-.78.188-1.218.297-1.53-.312-.204-.703-.298-1.156-.298-.531 0-1.39.422-2.063 1.016C.75-4.14.298-2.906.298-1.625c0 1.14.5 1.75 1.453 1.75.656 0 1.219-.234 1.89-.766zm0 0" style="stroke:none"/></symbol><symbol id="c" overflow="visible"><path d="m4.86-1.016-.094-.25c-.079.079-.094.079-.157.125-.375.329-.562.438-.734.438q-.188 0-.188-.281c0-.063 0-.094.016-.125l1.11-4.532-.125-.109-.391.219c-.469-.188-.703-.235-1.016-.235-.344 0-.578.063-.906.22-.75.374-1.125.734-1.438 1.312C.422-3.172.047-1.75.047-.781c0 .5.187.906.406.906.25 0 .688-.25 1.14-.625.516-.438.985-1 1.641-1.938L2.891-.921a3 3 0 0 0-.063.61c0 .28.094.437.281.437.266 0 .766-.328 1.75-1.14zM3.811-4.953c-.265 1.281-.484 1.906-.89 2.516-.656 1-1.406 1.734-1.797 1.734-.14 0-.219-.156-.219-.485 0-.765.313-2.093.735-3.078.28-.687.578-.906 1.156-.906.281 0 .5.047 1.015.219m0 0" style="stroke:none"/></symbol><symbol id="d" overflow="visible"><path d="m2.61-1.297-.172-.172c-.329.11-.532.172-1.172.36C1.187-.203.89.578.187 1.719l.172.14.485-.234c.969-1.25 1.422-2 1.765-2.922zm0 0" style="stroke:none"/></symbol><symbol id="e" overflow="visible"><path d="M4.938-8.61c-.204-.093-.547-.156-.844-.156a1.1 1.1 0 0 0-.407.094c-.296.125-1.265.86-1.546 1.14-.266.266-.407.626-.532 1.298l-.187.953a10 10 0 0 1-1.031.437l-.063.266h.969l-.11.672C.829-1.578.391.64.125 1.469c-.219.703-.563 1.078-1 1.078-.266 0-.422-.078-.625-.344l-.156.047c-.047.266-.219.844-.282.953a.9.9 0 0 0 .422.094c.485 0 1.141-.375 1.594-.938.735-.859.985-1.671 1.875-5.89.063-.297.156-.656.219-1.047h1.25c.047-.234.125-.5.203-.672l-.047-.078-.094.016c-.28.093-.406.093-1 .093h-.187l.25-1.343c.187-1.032.531-1.485 1.078-1.485.36 0 .672.188.86.469l.124-.047zm0 0" style="stroke:none"/></symbol><symbol id="g" overflow="visible"><path d="M5.172-4.5c0-.453-.11-.922-.25-1.094-.078-.11-.234-.172-.422-.172-.281 0-.64.094-.969.266-.61.328-1.015.688-1.75 1.625l1.032-4.75-.141-.14c-.625.312-1.063.421-1.922.5l-.047.25h.578c.282 0 .407.093.407.296 0 .078-.016.219-.032.282L.453-.845c-.016.031-.016.078-.016.11 0 .468.579.859 1.235.859.437 0 1.047-.219 1.562-.594 1.157-.81 1.938-2.452 1.938-4.03m-.86.297c0 .766-.25 1.781-.609 2.562-.39.829-.875 1.204-1.515 1.204-.547 0-.844-.266-.844-.766 0-.297.047-.64.156-1.078.219-.953.516-1.531.984-2.031.391-.407 1.016-.75 1.36-.75.312 0 .469.265.469.859zm0 0" style="stroke:none"/></symbol><symbol id="b" overflow="visible"><path d="M3.64-9.031C1.813-7.844.72-5.797.72-3.234c0 2.343 1.14 4.578 2.875 5.78l.156-.202C2.094.906 1.812-.484 1.812-3.281c0-2.781.313-4.219 1.938-5.547zm0 0" style="stroke:none"/></symbol><symbol id="f" overflow="visible"><path d="m.5-9.031-.125.203C2.015-7.5 2.328-6.063 2.328-3.281c0 2.797-.281 4.187-1.953 5.625l.156.203c1.75-1.203 2.89-3.438 2.89-5.781 0-2.563-1.108-4.61-2.921-5.797m0 0" style="stroke:none"/></symbol></defs><path d="M40 411.602h2160.04" style="fill:none;stroke-width:3.985;stroke-linecap:butt;stroke-linejoin:miter;stroke:#000;stroke-opacity:1;stroke-miterlimit:10" transform="matrix(.1 0 0 -.1 0 150)"/><path d="M3.746 105.852h.602v6h-.602zm72.004 0h.602v6h-.602zm72 0h.602v6h-.602zm72 0h.602v6h-.602zm0 0" style="stroke:none;fill-rule:nonzero;fill:#000;fill-opacity:1"/><path d="M40 51.602v1440" style="fill:none;stroke-width:3.985;stroke-linecap:butt;stroke-linejoin:miter;stroke:#000;stroke-opacity:1;stroke-miterlimit:10" transform="matrix(.1 0 0 -.1 0 150)"/><path d="M.988 144.492h6v.602h-6zm0-36h6v.602h-6zm0-36h6v.602h-6zm0-36h6v.602h-6zm0-36.004h6v.602h-6zm0 0" style="stroke:none;fill-rule:nonzero;fill:#000;fill-opacity:1"/><path d="M244.96 1058.633 965 1418.672M40 195.586l2160.04 1080.039" style="fill:none;stroke-width:3.985;stroke-linecap:butt;stroke-linejoin:miter;stroke:#000;stroke-opacity:1;stroke-miterlimit:10" transform="matrix(.1 0 0 -.1 0 150)"/><path d="M624.922 1238.672c0 10.976-8.906 19.922-19.922 19.922s-19.922-8.946-19.922-19.922c0-11.016 8.906-19.961 19.922-19.961s19.922 8.945 19.922 19.96zm0 0" style="fill-rule:nonzero;fill:#000;fill-opacity:1;stroke-width:3.985;stroke-linecap:butt;stroke-linejoin:miter;stroke:#000;stroke-opacity:1;stroke-miterlimit:10" transform="matrix(.1 0 0 -.1 0 150)"/><path d="M605 1238.672v-29.57m0-59.062v-29.532m0 0v-29.531m0-59.102v-29.531m0 0v-29.532m0-59.062v-29.57m0 0v-29.492m0-59.102v-29.531m0 0v-29.532m0-59.063v-29.57m0 0v-29.53m0-59.063v-29.531m0 0v-29.532m0-59.101v-29.531" style="fill:none;stroke-width:3.985;stroke-linecap:butt;stroke-linejoin:miter;stroke:#000;stroke-opacity:1;stroke-miterlimit:10" transform="matrix(.1 0 0 -.1 0 150)"/><use xlink:href="#a" x="57.979" y="118.584" style="fill:#000;fill-opacity:1"/><use xlink:href="#b" x="5.993" y="137.304" style="fill:#000;fill-opacity:1"/><use xlink:href="#c" x="10.553" y="137.304" style="fill:#000;fill-opacity:1"/><use xlink:href="#d" x="16.793" y="137.304" style="fill:#000;fill-opacity:1"/><use xlink:href="#e" x="23.873" y="137.304" style="fill:#000;fill-opacity:1"/><use xlink:href="#b" x="29.393" y="137.304" style="fill:#000;fill-opacity:1"/><use xlink:href="#c" x="33.953" y="137.304" style="fill:#000;fill-opacity:1"/><use xlink:href="#f" x="39.833" y="137.304" style="fill:#000;fill-opacity:1"/><use xlink:href="#f" x="43.913" y="137.304" style="fill:#000;fill-opacity:1"/><use xlink:href="#b" x="176.011" y="21.332" style="fill:#000;fill-opacity:1"/><use xlink:href="#g" x="180.211" y="21.332" style="fill:#000;fill-opacity:1"/><use xlink:href="#d" x="186.691" y="21.332" style="fill:#000;fill-opacity:1"/><use xlink:href="#e" x="193.771" y="21.332" style="fill:#000;fill-opacity:1"/><use xlink:href="#b" x="199.291" y="21.332" style="fill:#000;fill-opacity:1"/><use xlink:href="#g" x="203.491" y="21.332" style="fill:#000;fill-opacity:1"/><use xlink:href="#f" x="209.611" y="21.332" style="fill:#000;fill-opacity:1"/><use xlink:href="#f" x="213.691" y="21.332" style="fill:#000;fill-opacity:1"/><path d="m40 195.586 53.984 179.062 54.024 159.688 54.023 141.25 53.985 123.75L310 906.484l53.984 91.446 54.024 76.64 54.023 62.813 53.985 49.844L580 1225l53.984 26.64 54.024 16.407 54.023 7.11 53.985-1.29 53.984-8.789 54.023-15.39 53.985-21.055 54.023-25.781 53.985-29.649 54.023-32.578 53.984-34.61 53.985-35.742 54.023-35.937 53.985-35.195 54.023-33.594 53.984-31.094 53.985-27.617 54.023-23.281 53.985-17.97 54.023-11.874 53.984-4.727 53.985 3.282 54.023 12.148 53.985 21.992 54.023 32.735 53.984 44.336 53.985 56.914 54.023 70.39 53.985 84.766 54.023 100.078" style="fill:none;stroke-width:7.9701;stroke-linecap:butt;stroke-linejoin:miter;stroke:#000;stroke-opacity:1;stroke-miterlimit:10" transform="matrix(.1 0 0 -.1 0 150)"/></svg>