<svg xmlns="http://www.w3.org/2000/svg" width="362pt" height="156" viewBox="0 0 362 117"><path d="M60.703 585.625H3610.04" style="fill:none;stroke-width:3.985;stroke-linecap:butt;stroke-linejoin:miter;stroke:#000;stroke-opacity:1;stroke-miterlimit:10" transform="matrix(.1 0 0 -.1 0 117)"/><path d="M5.816 55.45h.602v6h-.602zm50.707 0h.602v6h-.602zm50.704 0h.601v6h-.601zm50.707 0h.601v6h-.601zm50.703 0h.601v6h-.601zm50.707 0h.601v6h-.601zm50.703 0h.601v6h-.601zm50.707 0h.601v6h-.601zm0 0" style="stroke:none;fill-rule:nonzero;fill:#000;fill-opacity:1"/><path d="M60.703 9.61v1151.992" style="fill:none;stroke-width:3.985;stroke-linecap:butt;stroke-linejoin:miter;stroke:#000;stroke-opacity:1;stroke-miterlimit:10" transform="matrix(.1 0 0 -.1 0 117)"/><path d="M3.059 115.691h6v.602h-6zm0-57.601h6v.601h-6zm0-57.602h6v.602h-6zm0 0" style="stroke:none;fill-rule:nonzero;fill:#000;fill-opacity:1"/><path d="m10 100.898 8.984 62.579 9.024 75.859 8.984 86.68 9.024 94.882L55 520.938l8.984 102.07 9.024 100.937 8.984 96.524 9.024 89.18L100 988.632l8.984 66.328 9.024 51.601 8.984 35.196 9.024 17.734 8.984-.312 8.984-18.282 9.024-35.82 9.023-52.07 8.985-66.797L190 906.836l8.984-89.453 9.024-96.758 9.023-100.977 8.985-102.07L235 417.656l8.984-94.648 9.024-86.406 9.023-75.43 8.985-62.07L280 52.266l8.984-30 9.024-12.383 9.023 5.781 8.985 23.672L325 80.156l8.984 56.719 9.024 70.781 9.023 82.696 8.985 91.992 8.984 98.32 8.984 101.68 9.024 101.758 9.023 98.632 8.985 92.461L415 958.594l8.984 71.64 9.024 57.657 9.023 41.914 8.985 24.765 8.984 6.914 8.984-11.171 9.024-28.946 9.023-45.742 8.985-61.172L505 939.805l8.984-85.782 9.024-94.18 9.023-99.687 8.985-102.031L550 456.953l8.984-97.11 9.024-90 9.023-80.116 8.985-67.657L595 68.984l8.984-36.875 9.024-19.453 9.023-1.484 8.985 16.601L640 61.875l9.023 50.586 8.985 65.43 9.023 78.28 8.985 88.595L685 440.937l9.023 100.704 8.985 102.109 9.023 100.273 8.985 95.313L730 926.64l9.023 76.601 8.985 63.477 9.023 48.36 8.985 31.757 8.984 14.062 9.023-3.984 8.985-21.953 9.023-39.18 8.985-55.234 8.984-69.53 9.023-81.68 8.985-91.172 9.023-97.851 8.985-101.485L865 496.953l9.023-99.101 8.985-93.204 9.023-84.375 8.985-72.89L910 88.243l9.023-43.477 8.985-26.485 9.023-8.672 8.985 9.414L955 46.25l9.023 44.18 8.985 59.765 9.023 73.438 8.985 84.804 8.984 93.477 9.023 99.297 8.985 101.914 9.023 101.406 8.985 97.657 8.984 90.82 9.023 81.172 8.985 68.984 9.023 54.57 8.985 38.516 9.023 21.21 8.984 3.204 8.985-14.844 9.023-32.422 8.985-49.062 9.023-64.063 8.984-77.109 8.985-87.734 9.023-95.547 8.985-100.43 9.023-102.07 8.984-100.586 8.985-95.938 9.023-88.203 8.985-77.773 9.023-64.844 8.984-49.922 8.985-33.398 9.023-15.82 8.985 2.226 9.023 20.195 8.984 37.578 8.985 53.75 9.023 68.243 8.985 80.547 9.023 90.39 8.984 97.344 8.985 101.25 9.023 101.992 8.985 99.531 9.023 93.867 8.984 85.391 8.985 74.102 9.023 60.547 8.985 45.078 9.023 28.203 8.984 10.43 8.985-7.657 9.023-25.547 8.985-42.578 9.023-58.32 8.984-72.188 8.985-83.789 9.023-92.773 8.985-98.867 9.023-101.797 8.984-101.602 8.985-98.125 9.023-91.64 8.985-82.266 9.023-70.273 8.984-56.055 8.985-40.117 9.023-22.93 8.985-4.96 9.023 13.085 8.984 30.781 8.985 47.461 9.023 62.696 8.985 75.937 9.023 86.797 8.984 94.922 8.985 100.078 9.023 102.11 8.985 100.859 9.023 96.523 8.984 89.063 8.985 78.906 9.023 66.21 8.985 51.446 9.023 35.04 8.984 17.577 8.985-.468 9.023-18.477 8.985-35.898 9.023-52.266 8.984-66.914 8.985-79.453 9.023-89.57 8.985-96.797 9.023-101.016 8.984-102.07 8.985-99.883 9.023-94.57 8.985-86.29 9.023-75.312 8.984-61.992 8.985-46.64 9.023-29.884 8.985-12.187 9.023 5.898 8.984 23.828 8.985 40.977 9.023 56.836 8.985 70.937 9.023 82.774 8.984 92.031 8.985 98.399 9.023 101.68 8.985 101.718 9.023 98.633 8.984 92.383 8.985 83.28 9.023 71.524 8.985 57.578 9.023 41.72 8.984 24.648 8.985 6.718 9.023-11.328 8.985-29.062 9.023-45.938 8.984-61.289 8.985-74.726 9.023-85.86 8.985-94.297 9.023-99.687 8.984-102.031 8.985-101.133 9.023-97.07 8.985-89.962 9.023-80 8.984-67.539 8.985-52.93 9.023-36.718 8.985-19.297 9.023-1.328 8.984 16.758 8.985 34.258 9.023 50.742 8.985 65.547 9.023 78.36m.001-.001 8.983 88.672 8.985 96.25 9.023 100.742 8.985 102.07 9.023 100.235 8.984 95.234 8.985 87.266 9.023 76.484 8.985 63.36 9.023 48.203 8.984 31.601 9.024 13.907 8.984-4.141 8.985-22.11 9.023-39.335 8.984-55.391 9.024-69.649 8.984-81.718 9.024-91.25 8.984-97.93 8.984-101.484 9.024-101.875 8.984-99.063 9.024-93.125 8.984-84.297 8.984-72.773 9.024-58.984 8.984-43.36 9.024-26.328 8.984-8.516 8.984 9.57 9.024 27.423 8.984 44.296 9.024 59.883 8.984 73.555 8.984 84.883 9.024 93.554 8.984 99.336 9.024 101.954 8.984 101.328 8.984 97.617 9.024 90.781 8.984 81.055 9.024 68.867 8.984 54.453 8.984 38.36 9.024 21.015 8.984 3.086 9.024-15 8.984-32.617 8.984-49.18 9.024-64.18 8.984-77.226 9.024-87.774 8.984-95.625 8.984-100.468 9.024-102.07 8.984-100.587 9.024-95.859 8.984-88.164 8.984-77.617 9.024-64.727 8.984-49.765 9.024-33.243 8.984-15.703 8.984 2.383 9.024 20.39 8.984 37.735 9.024 53.867 8.984 68.36 8.984 80.664 9.024 90.43 8.984 97.421 9.024 101.29 8.984 101.952 8.984 99.493 9.024 93.828 8.984 85.273 9.024 73.985 8.984 60.43 8.984 44.96 9.024 28.008 8.984 10.274 9.024-7.813 8.984-25.703 8.984-42.735 9.024-58.437 8.984-72.266 9.024-83.906 8.984-92.851 8.984-98.907 9.024-101.836 8.984-101.562 9.024-98.086 8.984-91.563 8.984-82.148 9.024-70.156 8.984-55.938 9.024-39.96 8.984-22.774 8.984-4.844 9.024 13.281 8.984 30.899 9.024 47.656 8.984 62.813 8.984 76.054 9.024 86.875 8.984 95 9.024 100.078 8.984 102.11 8.984 100.86 9.024 96.444 8.984 88.985 9.024 78.828 8.984 66.055 8.984 51.289 9.024 34.922 8.984 17.421 9.024-.625 8.984-18.632 8.984-36.094 9.024-52.344 8.984-67.031 9.024-79.57 8.984-89.649 8.984-96.836 9.024-101.054 8.984-102.032 9.024-99.883 8.984-94.492 8.984-86.25 9.024-75.195 8.984-61.836 9.024-46.523 8.984-29.727 8.984-12.031 9.024 6.094 8.984 23.945 9.024 41.133 8.984 56.992 8.984 71.015 9.024 82.891 8.984 92.11 9.024 98.437 8.984 101.68 8.984 101.718 9.024 98.594 8.984 92.344 9.024 83.164 8.984 71.406" style="fill:none;stroke-width:3.985;stroke-linecap:butt;stroke-linejoin:miter;stroke:#e5e5e5;stroke-opacity:1;stroke-miterlimit:10" transform="matrix(.1 0 0 -.1 0 117)"/><path d="m10 134.414 10 70.313 10 82.265 10 91.68 10 98.164 10 101.562 10 101.797 10 98.867 10 92.735 10 83.789 10 72.11 10 58.28 10 42.5 10 25.47 10 7.617 10-10.508 10-28.243 10-45.156 10-60.625 10-74.14 10-85.391 10-93.945 10-99.532 10-101.953 10-101.25 10-97.343 10-90.352 10-80.547 10-68.164 10-53.672 10-37.539 10-20.117 10-2.149 10 15.899 10 33.437 10 49.961 10 64.922 10 77.774 10 88.28 10 95.938 10 100.586 10 102.11 10 100.39 10 95.547 10 87.696 10 77.07 10 64.023 10 48.946 10 32.421 10 14.766 10-3.32 10-21.25 10-38.555 10-54.648 10-69.024 10-81.21 10-90.9 10-97.655 10-101.368 10-101.953 10-99.257 10-93.477 10-84.766 10-73.398 10-59.688 10-44.101 10-27.188 10-9.336 10 8.711 10 26.563 10.04 43.594 9.96 59.14 10 72.969 10 84.375 10.04 93.242 9.96 99.102 10 101.914 10 101.445 10 97.852 10 91.172 10 81.601 10 69.492 10 55.157 10.04 39.14 10 21.875 9.96 3.945 10-14.18 10-31.757 10-48.438 10.04-63.554 9.96-76.64 10-87.345 10.04-95.312 10-100.274L950 541.29l10-100.703 10-96.172 10-88.555 10.04-78.203 9.96-65.39 10-50.508 10.04-34.063 10-16.523 10 1.523 9.96 19.532 10 36.953 10 53.125L1080.04 190l10 80.156 9.96 90.04 10.04 97.148 10 101.172 10 102.03 9.96 99.65 10 94.179 10 85.742 10.04 74.57 10 61.094 9.96 45.742 10.04 28.868 10 11.093 10-6.992 10-24.844 9.96-41.953 10-57.734 10.04-71.68 10-83.398 10-92.5 10-98.672 10-101.758 10-101.64 10-98.36 9.96-91.914 10-82.656 10.04-70.781 10-56.641 10-40.781 10-23.594 10-5.664 10 12.383 10 30.117 10 46.875 9.96 62.148 10.04 75.47 10 86.405 10 94.688 10 99.922 10 102.07 10 101.016 10 96.718 10 89.414 9.96 79.336 10.04 66.72 10 52.07 10 35.703 10 18.242 10 .234 10-17.773 10-35.274 10-51.64 10-66.368 10-79.062 10-89.219 10-96.562 10-100.938 10-102.07 10-100 10-94.883 10-86.64 10-75.82 10-62.5 10-47.266 10-30.547 10-12.891 10 5.234 10 23.125 10 40.352 10 56.25 10 70.43 10 82.382 10 91.72 10 98.202 10 101.64 10 101.759 10 98.828 10 92.695 10 83.672 10 71.992 10 58.125 10 42.383 10 25.313 10 7.421 10-10.625 10-28.437 10-45.274 10-60.742 10-74.258 10-85.507 10-93.985 10-99.57 10-101.992 10-101.211 10-97.266 10-90.312 10-80.43 10-68.047 10-53.555 10-37.343 10-20 10-1.992 10 16.054 10 33.633 10 50.078 10 65.04 10 77.929 10 88.32 10 95.977 10 100.625 10 102.11 10 100.39 10 95.469 10 87.578 10 76.992 10 63.906 10 48.828 10 32.227 10 14.61 10-3.438 10-21.407 10-38.75 10-54.765 10-69.14 10-81.329 10-90.937 10-97.696 10-101.445 10-101.914 10-99.219 10-93.398 10-84.688 10-73.281 10-59.531 10-43.985 10-26.992 10-9.219 10 8.907 10 26.718 10 43.672 10 59.336 10 73.047 10 84.492m0 0 10 93.281 10 99.141 10 101.914 10 101.446 10 97.812 10 91.055 10 81.523 10 69.375 10 55.04 10 38.984 10 21.718 10 3.79 10-14.337 10-31.914 10-48.593 10-63.672 10-76.719 10-87.46 10-95.392 10-100.312 10-102.07 10-100.703 10-96.094 10-88.477 10-78.125 10-65.234 10-50.39 10-33.907 10-16.367 10 1.68 10 19.726 10 37.07 10 53.282 10 67.812 10 80.234 10 90.157 10 97.187 10 101.172 10 102.031 10 99.61 10 94.101 10 85.664 10 74.492 10 60.977 10 45.547 10 28.71 10 10.977 10-7.148 10-25 10-42.11 10-57.85 10-71.837 10-83.476 10-92.579 10-98.71 10-101.758 10-101.64 10-98.282 10-91.875 10-82.578 10-70.625 10-56.524 10-40.625 10-23.437 10-5.508 10 12.539 10 30.273 10 46.993 10 62.304 10 75.547 10 86.524 10 94.726 10 99.961 10 102.07 10 100.977 10 96.68 10 89.336 10 79.257 10 66.602 10 51.875 10 35.586 10 18.086 10 .078 10-17.93 10-35.43 10-51.796 10-66.485 10-79.14 10-89.297 10-96.64 10-100.938 10-102.07 10-100 10-94.766 10-86.602 10-75.664 10-62.422 10-47.11 10-30.39 10-12.734 10 5.39 10 23.282 10 40.508 10 56.406 10 70.547 10 82.46 10 91.798 10 98.242 10 101.601 10 101.797" style="fill:none;stroke-width:3.985;stroke-linecap:butt;stroke-linejoin:miter;stroke:#ccc;stroke-opacity:1;stroke-miterlimit:10" transform="matrix(.1 0 0 -.1 0 117)"/><path d="m10 172.422 11.25 77.344 11.25 87.89 11.25 95.703L55 533.83l11.25 102.109L77.5 736.484l11.25 95.782L100 920.273l11.25 77.54 11.25 64.57 11.25 49.57L145 1145l11.25 15.469 11.25-2.617 11.25-20.586 11.25-37.891 11.25-54.063 11.25-68.515 11.25-80.781L235 805.43l11.25-97.422L257.5 606.68l11.25-101.953L280 405.273l11.25-93.75 11.25-85.156 11.25-73.828L325 92.266l11.25-44.727 11.25-27.852L358.75 9.61 370 17.695l11.25 25.86 11.25 42.93 11.25 58.632L415 217.54l11.25 84.024 11.25 92.93 11.25 98.945L460 595.273l11.25 101.563 11.25 98.047 11.25 91.445L505 968.36l11.25 70 11.25 55.743 11.25 39.804 11.25 22.54 11.25 4.609 11.25-13.438 11.25-31.133 11.25-47.812 11.25-63.008 11.25-76.172 11.25-86.992L640 747.422l11.25-100.156 11.25-102.07 11.25-100.821L685 348.008l11.25-88.945 11.25-78.633 11.25-65.938L730 63.36l11.25-34.687 11.25-17.188 11.25.82L775 31.173l11.25 36.25 11.25 52.539 11.25 67.227L820 266.875l11.25 89.727 11.25 96.914 11.25 101.093L865 656.641l11.25 99.804 11.25 94.453 11.25 86.094L910 1012.07l11.25 61.68 11.25 46.328 11.25 29.531 11.25 11.797 11.25-6.289 11.25-24.18 11.25-41.289 11.25-57.187 11.25-71.172 11.25-83.008 11.25-92.226 11.25-98.477 11.25-101.68 11.25-101.757 11.25-98.516 11.29-92.227 11.25-83.046 11.25-71.25 11.25-57.266 11.25-41.406 11.25-24.258 11.25-6.367 11.25 11.718 11.25 29.415 11.25 46.25 11.25 61.601 11.25 75 11.25 86.055 11.25 94.414 11.25 99.765 11.25 102.07 11.25 101.095 11.25 96.953 11.25 89.765 11.25 79.766 11.25 67.265 11.25 52.618 11.25 36.367 11.25 18.945 11.25.938 11.25-17.11 11.25-34.648 11.25-51.016 11.25-65.86 11.25-78.593 11.25-88.867 11.25-96.367 11.25-100.782 11.25-102.109 11.25-100.156 11.25-95.117 11.25-87.032 11.25-76.25 11.25-63.046 11.25-47.93 11.25-31.172 11.25-13.594 11.25 4.531 11.25 22.461 11.25 39.688 11.25 55.703 11.25 69.922 11.25 81.953 11.25 91.445 11.25 98.008 11.25 101.524 11.25 101.836 11.25 98.984 11.25 92.969 11.25 84.101 11.25 72.5 11.25 58.672 11.25 43.008 11.25 25.976 11.25 8.165 11.25-9.961 11.25-27.774 11.25-44.648 11.25-60.157 11.25-73.828 11.25-85.078 11.25-93.71 11.25-99.415 11.25-101.953 11.25-101.328 11.25-97.46 11.25-90.626 11.25-80.86 11.25-68.593 11.25-54.14 11.25-37.97 11.25-20.703 11.25-2.695 11.25 15.39 11.25 32.97 11.25 49.492 11.25 64.492 11.25 77.46 11.25 87.97 11.25 95.742 11.25 100.508 11.25 102.109 11.25 100.508 11.25 95.742 11.25 87.93 11.25 77.422 11.25 64.453 11.25 49.414 11.25 32.89 11.25 15.313 11.25-2.774 11.25-20.703 11.25-38.086 11.25-54.18 11.25-68.632 11.25-80.899 11.25-90.625 11.25-97.5 11.25-101.328 11.25-101.953 11.25-99.414 11.25-93.672 11.25-85.078 11.25-73.75 11.25-60.117 11.25-44.61 11.25-27.656 11.25-9.922 11.25 8.204 11.25 26.054 11.25 43.047 11.25 58.75 11.25 72.578 11.25 84.102 11.25 93.008 11.25 98.984 11.25 101.875 11.25 101.484 11.25 98.047 11.25 91.367 11.25 81.914 11.25 69.883 11.25 55.625 11.25 39.649 11.25 22.382 11.25 4.493 11.25-13.672 11.25-31.25 11.25-47.969 11.25-63.086 11.25-76.328 11.25-87.07 11.25-95.117 11.25-100.196 11.25-102.07 11.25-100.781 11.25-96.329 11.25-88.867 11.25-78.554 11.25-65.782 11.25-50.976 11.25-34.57 11.25-17.032 11.25.977 11.25 19.023 11.25 36.407 11.25 52.695 11.25 67.305 11.25 79.843 11.25 89.766m0 0 11.25 96.992 11.25 101.094 11.25 102.031 11.25 99.766 11.25 94.375 11.25 86.054 11.25 74.961 11.25 61.524 11.25 46.172 11.25 29.375 11.25 11.68 11.25-6.485 11.25-24.297 11.25-41.484 11.25-57.266 11.25-71.328 11.25-83.086 11.25-92.266 11.25-98.554 11.25-101.72 11.25-101.679 11.25-98.476 11.25-92.188 11.25-82.969 11.25-71.132 11.25-57.11 11.25-41.25 11.25-24.101 11.25-6.25 11.25 11.875 11.25 29.61 11.25 46.405 11.25 61.72 11.25 75.077 11.25 86.172 11.25 94.453 11.25 99.844 11.25 102.031 11.25 101.055 11.25 96.914 11.25 89.687 11.25 79.649 11.25 67.148 11.25 52.5 11.25 36.211 11.25 18.79 11.25.78 11.25-17.304 11.25-34.727 11.25-51.21 11.25-65.938 11.25-78.711 11.25-88.945 11.25-96.407 11.25-100.82 11.25-102.11 11.25-100.116 11.25-95.04 11.25-86.953 11.25-76.172 11.25-62.93 11.25-47.773 11.25-31.054 11.25-13.399 11.25 4.688 11.25 22.617 11.25 39.844 11.25 55.82 11.25 70.039 11.25 82.07" style="fill:none;stroke-width:3.985;stroke-linecap:butt;stroke-linejoin:miter;stroke:#b2b2b2;stroke-opacity:1;stroke-miterlimit:10" transform="matrix(.1 0 0 -.1 0 117)"/><path d="m10 214.531 12.852 83.633 12.851 92.656 12.852 98.75 12.89 101.797L74.297 692.97l12.851 98.242L100 882.969l12.852 82.46 12.851 70.47 12.852 56.367 12.89 40.43 12.852 23.242 12.851 5.273L190 1148.477l12.852-30.47 12.851-47.226 12.852-62.422 12.89-75.703 12.852-86.64 12.851-94.805L280 651.17l12.852-102.07 12.851-100.937 12.89-96.601 12.852-89.258 12.852-79.102 12.851-66.445L370 65.039l12.852-35.352 12.851-17.89 12.89.156 12.852 18.164 12.852 35.625 12.851 51.953L460 184.335l12.852 79.298 12.89 89.375 12.852 96.719 12.851 100.937 12.852 102.07 12.851 99.961L550 847.422l12.852 86.445 12.89 75.547 12.852 62.227 12.851 46.953 12.852 30.195 12.851 12.5 12.852-5.586 12.852-23.515 12.89-40.704 12.852-56.562 12.851-70.664 12.852-82.617 12.851-91.875L730 691.446l12.852-101.641 12.851-101.758 12.89-98.711 12.852-92.54 12.852-83.476 12.851-71.757L820 83.75l12.852-42.031 12.851-24.922 12.89-7.07 12.852 11.015 12.852 28.75 12.851 45.625L910 156.172l12.852 74.531 12.851 85.664 12.89 94.14 12.852 99.65 12.852 101.991 12.851 101.211L1000 810.508l12.852 90.117 12.851 80.195 12.89 67.774 12.852 53.242 12.852 36.992 12.851 19.649 12.891 1.601 12.813-16.406 12.851-33.985 12.89-50.43 12.852-65.312 12.852-78.125 12.851-88.554 12.891-96.094 12.813-100.703 12.851-102.11 12.89-100.312 12.852-95.352 12.852-87.382 12.851-76.72 12.891-63.632 12.813-48.477 12.851-31.875 12.89-14.257 12.852 3.828 12.852 21.797L1347.148 75l12.891 55.117 12.813 69.414 12.89 81.524 12.852 91.132L1411.445 470l12.852 101.445 12.851 101.914 12.891 99.141 12.813 93.281 12.89 84.453 12.852 73.008 12.851 59.219 12.852 43.672 12.851 26.64 12.891 8.829 12.852-9.258 12.851-27.07 12.852-44.063 12.851-59.61 12.852-73.28 12.89-84.727 12.852-93.438 12.852-99.218 12.851-101.954 12.852-101.406 12.851-97.695 12.852-90.899 12.89-81.289 12.852-69.062 12.852-54.766 12.851-38.633 12.852-21.367 12.851-3.36 12.89 14.65 12.852 32.304 12.852 48.906 12.852 63.945 12.851 76.993 12.852 87.617 12.851 95.508 12.89 100.39 12.852 102.11 12.852 100.625 12.852 95.976 12.851 88.282 12.852 77.89 12.851 64.961 12.89 50.04 12.852 33.554 12.852 16.015 12.852-2.07 12.851-20.078 12.852-37.422 12.851-53.594 12.89-68.125 12.852-80.43 12.852-90.312 12.852-97.304 12.851-101.25 12.852-101.993 12.851-99.53 12.89-93.985 12.852-85.43 12.852-74.219 12.852-60.703 12.851-45.234 12.852-28.32 12.851-10.665 12.89 7.579 12.852 25.351L2260.04 85l12.852 58.164 12.851 72.07 12.852 83.711 12.851 92.696 12.89 98.828 12.852 101.797 12.852 101.601 12.852 98.203 12.851 91.68 12.852 82.344 12.851 70.39 12.89 56.211 12.852 40.274 12.852 23.086 12.852 5.117 12.851-12.93 12.852-30.586 12.851-47.343 12.89-62.579 12.852-75.82 12.852-86.719 12.852-94.883 12.851-100.039 12.852-102.07 12.851-100.898 12.89-96.563 12.852-89.18 12.852-78.984 12.852-66.328 12.851-51.602 12.852-35.195 12.851-17.734 12.89.312 12.852 18.32 12.852 35.743 12.852 52.11 12.85 66.796 12.852 79.375 12.851 89.453 12.89 96.758 12.852 100.976 12.852 102.07 12.852 99.923 12.851 94.648 12.852 86.406 12.851 75.43 12.89 62.11 12.852 46.796 12.852 30.04 12.852 12.343 12.851-5.781 12.852-23.633 12.851-40.86 12.89-56.679 12.852-70.82 12.852-82.696 12.852-91.953 12.851-98.36 12.852-101.64 12.851-101.758 12.89-98.671 12.852-92.461 12.852-83.36 12.852-71.64 12.851-57.696 12.852-41.875 12.89-24.804 12.852-6.914 12.852 11.21 12.851 28.907 12.852 45.742 12.851 61.172 12.852 74.648 12.89 85.781 12.852 94.18m0 0 12.852 99.688 12.851 102.03 12.852 101.134 12.851 97.148 12.852 90 12.89 80.078 12.852 67.696 12.852 53.086 12.851 36.875 12.852 19.453 12.851 1.484 12.89-16.601 12.852-34.102 12.852-50.586 12.852-65.43 12.851-78.242 12.852-88.633 12.851-96.172 12.89-100.703 12.852-102.11 12.852-100.273 12.852-95.273 12.851-87.344 12.852-76.601 12.851-63.477 12.89-48.36 12.852-31.718 12.852-14.102 12.852 3.985 12.851 21.953" style="fill:none;stroke-width:3.985;stroke-linecap:butt;stroke-linejoin:miter;stroke:#999;stroke-opacity:1;stroke-miterlimit:10" transform="matrix(.1 0 0 -.1 0 117)"/><path d="m10 260.352 15 89.062 15 96.484 15 100.86 15 102.07 15 100.117 15 94.961 15 86.836 15 76.016 15 62.773 15 47.54 15 30.859 15 13.203 15-4.883 15-22.813 15-40.078 15-55.976 15-70.196L280 885l15-91.563 15-98.164 15-101.562 15-101.797 15-98.867 15-92.852 15-83.867 15-72.226 15-58.399 15-42.656 15-25.625 15-7.813L475 20l15 28.086 15 45 15 60.469 15 74.062 15 85.274 15 93.867 15 99.531 15 101.953 15 101.29 15 97.382 15 90.39 15 80.626 15 68.32 15 53.828 15 37.656 15 20.313 15 2.305 15-15.704 15-33.32 15-49.844 15-64.765 15.04-77.735L820 830.86l15-95.898 15.04-100.586L865 532.265l15-100.43 15.04-95.585L910 248.477l15-77.149 15.04-64.18L955 58.047l15-32.54 15.04-14.921L1000 13.71l15 21.094 15.04 38.398 14.96 54.531 15 68.907 15.04 81.132 15 90.782 14.96 97.617 15.04 101.367 15 101.953L1150 768.79l15.04 93.516 15 84.883 14.96 73.476 15.04 59.844 15 44.258 14.96 27.304 15.04 9.532 15-8.555 14.96-26.406 15.04-43.438 15-59.023 14.96-72.813 15.04-84.336 15-93.164 15-99.062 15-101.875 15-101.485 15-97.89 15-91.25 15-81.68 15-69.61 15-55.312 15-39.297 15-22.031 15-4.102 15 14.024 15 31.601 15 48.282 15 63.437 15 76.524 15 87.265 15 95.274 15 100.234 15 102.11 15 100.742 15 96.21 15 88.633 15 78.32 15 65.509 15 50.664 15 34.18 15 16.679 15-1.367 15-19.336 15-36.797 15-53.008 15-67.578 15-80.04 15-89.96 15-97.11 15-101.171 15-101.992 15-99.727 15-94.219 15-85.82 15-74.688 15-61.25 15-45.859 15-29.023 15-11.29 15 6.836 15 24.688 15 41.797 15 57.617 15 71.563 15 83.32 15 92.422 15 98.633 15 101.757 15 101.68 15 98.36 15 91.992 15 82.773 15 70.86 15 56.796 15 40.899 15 23.75 15 5.86 15-12.266 15-29.922 15-46.72 15-62.03 15-75.352 15-86.328 15-94.61 15-99.921 15-102.07 15-101.016 15-96.758 15-89.531 15-79.414 15-66.875 15-52.149 15-35.898 15-18.399 15-.39 15 17.617 15 35.117 15 51.523 15 66.25 15 78.907 15 89.14 15 96.524 15 100.898 15 102.07 15 100.079 15 94.922 15 86.757 15 75.899 15 62.656 15 47.383 15 30.703 15 13.047 15-5.078 15-22.969 15-40.195 15-56.133 15-70.274 15-82.304 15-91.64 15-98.165 15-101.601 15-101.797 15-98.829 15-92.773 15-83.789 15-72.11 15-58.28 15-42.5 15-25.47 15-7.656 15 10.547 15 28.242 15 45.157 15 60.586 15 74.18 15 85.39 15 93.945 15 99.531 15 101.954 15 101.25 15 97.343 15 90.352 15 80.508 15 68.203 15 53.672 15 37.539 15 20.117 15 2.188 15-15.899 15-33.476 15-49.961 15-64.922 15-77.774 15-88.242 15-95.976 15-100.586 15-102.11 15-100.39 15-95.547 15-87.696 15-77.07 15-64.023 15-48.946" style="fill:none;stroke-width:3.985;stroke-linecap:butt;stroke-linejoin:miter;stroke:#7f7f7f;stroke-opacity:1;stroke-miterlimit:10" transform="matrix(.1 0 0 -.1 0 117)"/><path d="m10 309.453 18.008 93.594 18.008 99.336 17.968 101.953 18.008 101.328L100 803.281l18.008 90.742 18.008 81.055 17.968 68.79 18.047 54.413 17.969 38.32 18.008 20.977 18.008 3.047 17.968-15.078 18.047-32.656L280 1063.67l18.008-64.218 18.008-77.265 17.968-87.813 18.047-95.625L370 638.281l18.008-102.11 18.008-100.546 17.968-95.82 18.047-88.125L460 174.062l18.008-64.687 18.008-49.766 17.968-33.164 18.047-15.625L550 13.242l18.008 20.43 18.008 37.773 17.968 53.907 18.047 68.398L640 274.453l18.008 90.469 18.008 97.422 18.007 101.25 18.008 101.992L730 765.039l18.008 93.828 18.008 85.235 18.007 73.984 18.008 60.39L820 1123.36l18.008 28.008 18.008 10.196 18.007-7.852 18.008-25.742L910 1085.195l18.008-58.476 18.008-72.344 18.007-83.945 18.008-92.852L1000 678.672l18.008-101.836 18.008-101.563 18.007-98.086 18.008-91.523 18.008-82.11 17.969-70.117 18.008-55.898 18.007-39.96 18.008-22.696 18.008-4.766 17.969 13.281 18.008 30.977 18.007 47.695 18.008 62.852 18.008 76.055 17.969 86.914 18.008 95 18.007 100.117 18.008 102.11 18.008 100.82 17.969 96.445 18.008 88.984 18.007 78.79 18.008 66.015 18.008 51.289 17.969 34.844 18.008 17.382 18.007-.703 18.008-18.671 18.008-36.133 17.969-52.422 18.008-67.07 18.007-79.57 18.008-89.65 18.008-96.874 17.969-101.055 18.008-102.07 18.007-99.844 18.008-94.492 18.008-86.172 17.969-75.195 18.008-61.797 18.007-46.485 18.008-29.687 18.008-11.953 17.969 6.133L1846.016 40l18.007 41.172 18.008 56.992 18.008 71.094 17.969 82.89 18.008 92.149 18.007 98.437 18.008 101.68 18.008 101.719 17.969 98.594 18.008 92.304 18.007 83.125 18.008 71.407 18.008 57.343 17.969 41.563 18.008 24.414 18.007 6.562 18.008-11.562 18.008-29.258 17.969-46.133 18.008-61.445 18.007-74.883 18.008-85.976 18.008-94.375 17.969-99.727 18.008-102.031 18.007-101.133 18.008-96.992 18.008-89.844 18.008-79.883 17.969-67.344 18.007-52.812 18.008-36.484 18.008-19.102 18.008-1.094 18.008 16.953 17.968 34.453 18.008 50.899 18.008 65.703 18.008 78.516 18.008 88.75 17.968 96.328 18.008 100.781 18.008 102.11 18.008 100.195 18.008 95.156 17.968 87.11 18.008 76.366 18.008 63.165 18.008 48.046 18.008 31.368 17.968 13.75 18.008-4.375 18.008-22.305 18.008-39.531 18.008-55.547 17.968-69.805 18.008-81.875 18.008-91.367 18.008-97.969 18.008-101.484 17.968-101.875 18.008-98.985 18.008-93.086 18.008-84.14 18.008-72.656 17.968-58.79 18.008-43.163 18.008-26.133 18.008-8.32 18.008 9.804 17.968 27.578 18.008 44.531 18.008 60.04 18.008 73.671 18.008 85 17.968 93.672 18.008 99.375 18.008 101.953 18.008 101.328 18.008 97.54 17.968 90.664 18.008 80.976 18.008 68.672 18.008 54.297 18.008 38.164 17.968 20.82 18.008 2.852 18.008-15.195 18.008-32.813 18.008-49.375 17.968-64.336 18.008-77.383 18.008-87.89 18.008-95.703 18.008-100.47 17.968-102.109 18.008-100.507 18.008-95.782" style="fill:none;stroke-width:3.985;stroke-linecap:butt;stroke-linejoin:miter;stroke:#666;stroke-opacity:1;stroke-miterlimit:10" transform="matrix(.1 0 0 -.1 0 117)"/><path d="m10 361.29 22.5 97.226L55 559.687 77.5 661.68l22.5 99.648 22.5 94.063 22.5 85.664 22.5 74.453 22.5 60.937 22.5 45.508 22.5 28.672 22.5 10.898 22.5-7.187 22.5-25.078 22.5-42.11 22.5-57.93 22.5-71.835 22.5-83.516L415 781.29l22.5-98.75L460 580.781l22.5-101.64 22.5-98.282 22.5-91.836 22.5-82.539 22.5-70.586L595 79.414l22.5-40.586L640 15.43l22.5-5.47L685 22.579l22.5 30.313L730 99.92l22.5 62.306 22.5 75.625 22.5 86.523L820 419.14l22.5 99.96L865 621.21l22.5 100.937 22.5 96.68 22.5 89.297 22.5 79.219 22.5 66.562 22.5 51.875 22.5 35.508 22.5 18.047 22.5.039 22.54-18.008 22.5-35.469 22.5-51.835 22.5-66.524 22.5-79.18 22.5-89.297 22.5-96.68 22.5-100.937 22.5-102.07 22.5-100 22.5-94.727 22.5-86.601 22.5-75.625 22.5-62.344 22.5-47.11 22.5-30.35 22.5-12.657 22.5 5.43 22.5 23.359 22.5 40.508 22.5 56.445 22.5 70.586 22.5 82.5 22.5 91.836 22.5 98.242 22.5 101.64 22.5 101.759 22.5 98.75 22.5 92.617 22.5 83.554 22.5 71.875 22.5 57.93 22.5 42.188 22.5 25.117 22.5 7.226 22.5-10.859 22.5-28.633 22.5-45.468 22.5-60.899 22.5-74.414 22.5-85.586 22.5-94.101 22.5-99.61 22.5-101.992 22.5-101.211 22.5-97.227 22.5-90.156 22.5-80.312 22.5-67.89 22.5-53.36 22.5-37.149 22.5-19.804 22.5-1.797 22.5 16.289 22.5 33.789 22.5 50.273 22.5 65.196 22.5 78.046 22.5 88.477 22.5 96.055 22.5 100.664 22.5 102.11 22.5 100.312 22.5 95.39 22.5 87.5 22.5 76.836 22.5 63.711 22.5 48.672 22.5 32.031 22.5 14.375 22.5-3.633 22.5-21.601 22.5-38.906 22.5-55 22.5-69.297 22.5-81.446 22.5-91.015 22.5-97.774 22.5-101.445 22.5-101.914 22.5-99.14 22.5-93.36 22.5-84.57 22.5-73.086 22.5-59.414 22.5-43.75 22.5-26.836 22.5-8.985 22.5 9.102 22.5 26.914 22.5 43.906 22.5 59.453 22.5 73.203 22.5 84.61 22.5 93.398 22.5 99.18 22.5 101.953 22.5 101.406 22.5 97.735 22.5 90.976 22.5 81.407 22.5 69.18 22.5 54.882 22.5 38.79 22.5 21.523 22.5 3.554 22.5-14.531 22.5-32.148 22.5-48.75 22.5-63.79 22.5-76.914 22.5-87.539 22.5-95.468" style="fill:none;stroke-width:3.985;stroke-linecap:butt;stroke-linejoin:miter;stroke:#4c4c4c;stroke-opacity:1;stroke-miterlimit:10" transform="matrix(.1 0 0 -.1 0 117)"/><path d="m10 415.39 30 99.844 30 102.032 30 101.054 30 96.875 30 89.688 30 79.648 30 67.07 30 52.461 30 36.172 30 18.75 30 .704 30-17.305 30-34.844 30-51.172 30-66.054 30-78.711 30-88.985 30-96.406 30-100.86 30-102.07 30-100.117 30-95.039 30-86.914 30-76.133 30-62.89 30-47.696 30-31.015 30.04-13.36L880 14.844 910 37.5l30.04 39.922 29.96 55.86 30 70.077 30.04 82.07 29.96 91.524 30.04 98.086 30 101.524L1150 678.398l30.04 98.907 30 92.93L1240 954.18l30.04 72.343 30 58.516 29.96 42.852 30.04 25.742 30 7.93 30-10.157 30-27.93 30-44.843 30-60.352 30-73.945 30-85.234 30-93.79 30-99.453 30-101.953 30-101.328 30-97.422 30-90.469 30-80.742 30-68.437 30-53.945 30-37.813 30-20.469 30-2.46 30 15.546 30 33.164 30 49.688 30 64.648 30 77.578 30 88.125 30 95.782 30 100.586 30 102.109 30 100.43 30 95.664 30 87.851 30 77.266 30 64.297 30 49.257 30 32.696 30 15.078 30-2.969 30-20.937 30-38.243 30-54.414 30-68.75 30-81.015 30-90.742 30-97.578 30-101.329 30-101.953 30-99.336 30-93.632 30-84.922 30-73.633 30-59.922 30-44.414 30-27.5 30-9.688 30 8.438 30 26.21 30 43.282 30 58.906 30 72.696 30 84.257 30 93.086 30 99.024 30 101.875 30 101.484 30 97.969 30 91.289 30 81.797 30 69.726 30 55.47 30 39.413 30 22.188 30 4.258 30-13.829 30-31.484 30-48.125" style="fill:none;stroke-width:3.985;stroke-linecap:butt;stroke-linejoin:miter;stroke:#323232;stroke-opacity:1;stroke-miterlimit:10" transform="matrix(.1 0 0 -.1 0 117)"/><path d="m10 471.172 45 101.484 45 101.875 45 99.102 45 93.164 45 84.336 45 72.851 45 59.102 45 43.437 45 26.446 45 8.633 45-9.454 45-27.304 45-44.219 45-59.766 45-73.476 45-84.805 45-93.555 45-99.257 45-101.953 45-101.368 45-97.656 45-90.82 45-81.133 45.04-68.945 45-54.57 45-38.438 45-21.133 45-3.203 45 14.883 45 32.5 45 49.101 45 64.102 45 77.148 45 87.735 45 95.586 45 100.43 45 102.07 45 100.586 45 95.898 45 88.203 45 77.734 45 64.805 45 49.883 45 33.36 45 15.78 45-2.265 45-20.274 45-37.617 45-53.789 45-68.281 45-80.586 45-90.39 45-97.383 45-101.25 45-101.993 45-99.492 45-93.906 45-85.313 45-74.101 45-60.508 45-45.039 45-28.125 45-10.43 45 7.774 45 25.547 45 42.656 45 58.32 45 72.227 45 83.828 45 92.812 45 98.868 45 101.796 45 101.602 45 98.125 45 91.602 45 82.226 45 70.235 45 56.015 45 40.078 45 22.89" style="fill:none;stroke-width:3.985;stroke-linecap:butt;stroke-linejoin:miter;stroke:#191919;stroke-opacity:1;stroke-miterlimit:10" transform="matrix(.1 0 0 -.1 0 117)"/><path d="m10 528.125 90 102.07 90 100.703 90 96.133 90 88.555 90 78.164 90 65.352 90 50.507 90 33.985 90 16.484 90-1.601 90-19.57 90.04-36.954 90-53.203 90-67.734 90-80.196 90-90.039 90-97.187 90-101.172 90-101.992 90-99.649 90-94.18 90-85.703 90-74.57 90-61.055 90-45.664 90-28.828 90-11.054 90 7.03 90 24.884 90 41.992 90 57.773 90 71.719 90 83.438 90 92.5 90 98.71 90 101.758 90 101.64 90 98.321 90 91.914 90 82.617" style="fill:none;stroke-width:3.985;stroke-linecap:butt;stroke-linejoin:miter;stroke:#000;stroke-opacity:1;stroke-miterlimit:10" transform="matrix(.1 0 0 -.1 0 117)"/></svg>