<svg xmlns="http://www.w3.org/2000/svg" xmlns:xlink="http://www.w3.org/1999/xlink" width="376" height="167pt" viewBox="0 0 282 167"><defs><symbol id="a" overflow="visible"><path d="M4.64-3.656c0-2.172-.656-3.219-2.015-3.219-1.547 0-2.328 1.234-2.328 3.64 0 1.172.203 2.172.547 2.672.36.485.906.766 1.531.766 1.5 0 2.266-1.297 2.266-3.86zm-.843.5c0 2.125-.375 3-1.297 3-.969 0-1.375-1-1.375-3.438 0-2.094.375-2.922 1.313-2.922.968 0 1.359.97 1.359 3.36m0 0" style="stroke:none"/></symbol><symbol id="b" overflow="visible"><path d="M4.172.031v-.297l-.516-.03C3.094-.329 3-.439 3-.954v-5.922l-.14-.047c-.641.344-1.36.64-2.266.953l.078.438h.094c.437-.203.875-.407 1.312-.594.063 0 .078.094.078.328v4.844c0 .515-.11.625-.64.656l-.563.031V.03C1.5.016 2.047 0 2.61 0c.516 0 1.047.016 1.563.031zm0 0" style="stroke:none"/></symbol><symbol id="c" overflow="visible"><path d="M4.672.031C4.64-.172 4.64-.28 4.64-.422c0-.125 0-.219.03-.453l-3.452.11L3.03-2.688C4-3.72 4.297-4.266 4.297-5.017c0-1.14-.781-1.859-2.047-1.859-.719 0-1.203.203-1.688.703l-.171 1.36h.28l.141-.47c.157-.577.516-.812 1.188-.812.844 0 1.406.532 1.406 1.375 0 .75-.422 1.485-1.547 2.688L.156-.234V.03C.891.016 1.641 0 2.375 0c.766 0 1.531.016 2.297.031m0 0" style="stroke:none"/></symbol><symbol id="d" overflow="visible"><path d="M4.61-2.234c0-.485-.204-.891-.563-1.141-.25-.188-.484-.266-.969-.36.797-.609 1.094-1.078 1.094-1.656 0-.89-.75-1.484-1.844-1.484-.687 0-1.125.203-1.61.672L.423-4.97h.312l.188-.547c.11-.343.734-.687 1.25-.687.656 0 1.172.531 1.172 1.156 0 .75-.578 1.375-1.297 1.375-.078 0-.469-.031-.469-.031l-.11.531.063.063c.375-.172.578-.22.844-.22.828 0 1.297.532 1.297 1.438 0 1.016-.594 1.688-1.531 1.688-.454 0-.86-.156-1.157-.438C.735-.86.61-1.095.423-1.626l-.266.094C.36-.921.437-.563.5-.063c.531.188.969.266 1.328.266C3.047.203 4.61-.844 4.61-2.234m0 0" style="stroke:none"/></symbol></defs><path d="m190 181.602 1.25 282.578 1.29 13.828 1.25 145.195 1.25-65.43 1.25 60.86 1.288-50.664 1.25 63.203 1.25-55.586 1.25 112.5 1.29-21.797 1.25 114.258 1.25-11.992 1.25 5.117 1.288-80.117 1.25 28.984 1.25-41.875 1.25 40.313 1.29 33.203 1.25 65.898 1.25-58.867 1.25-88.79 1.288 8.556 1.25-11.368 1.25 23.438 1.25-46.758 1.29 31.133 1.25 48.125 1.25 51.094 1.25-52.461 1.288-40.625 1.25-104.102 1.25 122.5 1.25 6.445 1.29 112.383 1.25-43.008 1.25 73.594 1.25-112.226 1.289 42.382 1.25-109.023 1.25 149.14 1.25-78.593 1.289 139.648 1.25-24.61 1.25 115.274 1.25-96.328 1.289 40.82 1.25-93.124 1.25 132.03 1.25 14.22 1.289 139.765 1.25-133.047 1.25-14.687 1.289-64.336 1.25 41.133 1.25-91.211 1.289 6.953 1.25 14.297 1.25 66.484 1.25-33.906 1.25-8.867 1.289-61.992 1.25-55.82 1.25 1.835 1.25 59.531 1.29 65.743 1.25 12.539 1.25 37.617 1.25-62.774 1.288-10.586 1.25-3.242 1.25 94.922 1.29-37.422 1.25 68.125 1.25 18.399 1.25 136.797 1.288-136.094 1.25-10.508 1.25-128.281 1.25 96.836 1.29-37.11 1.25 100.04 1.25-111.485 1.25 28.32 1.288-135.898 1.25 82.305 1.25-145.43 1.25 112.734 1.29-38.828 1.25 115.977 1.25-69.805 1.25 46.68 1.288-108.672 1.25-2.696 1.25-118.671 1.25 107.812 1.29 44.219 1.25 56.172 1.25-47.383 1.25-44.375 1.289-27.383 1.25 50.469 1.25-19.727 1.25 15.078 1.289-4.96 1.25 92.617 1.25 62.578 1.25-62.07 1.289-29.532 1.25-36.562 1.25 45.586 1.25-25.313 1.289 83.79 1.25-1.407 1.25 15.703 1.25-110.469 1.289 25.625 1.25-108.789 1.25 59.258 1.25-59.375 1.289 54.102 1.25-57.11 1.25 69.102 1.25-141.328 1.289-10.117 1.25-278.399 1.29 282.266 1.25 13.828 1.25 145.039 1.25-65.39 1.25 60.82 1.288-50.586 1.25 63.125 1.25-55.547 1.25 112.5 1.29-21.875 1.25 114.14 1.25-11.992 1.25 5.196 1.288-80.118 1.25 28.985 1.25-41.875 1.29 40.351 1.25 33.203 1.25 65.782 1.25-58.75 1.25-88.79 1.288 8.673 1.25-11.368 1.25 23.438 1.25-46.758 1.29 31.133 1.25 48.047 1.25 51.133 1.25-52.461 1.288-40.508 1.25-104.14 1.25 122.421 1.29 6.445 1.25 112.383 1.25-43.008 1.25 73.555 1.25-112.305 1.289 42.383 1.25-109.023 1.25 149.14 1.25-78.593L400.43 1115l1.25-24.648 1.25 115.195 1.25-96.29 1.289 40.86 1.25-93.203 1.25 132.031 1.289 14.258 1.25 139.766 1.25-132.93 1.25-14.726 1.289-64.297 1.25 41.132 1.25-91.21 1.289 6.953 1.25 14.296 1.25 66.485 1.25-33.867 1.25-8.828 1.289-62.032 1.25-55.82 1.25 1.875 1.25 59.531 1.29 65.742 1.25 12.54 1.25 37.578 1.25-62.735 1.288-10.586 1.25-3.242 1.25 94.922 1.29-37.422 1.25 68.008 1.25 18.437 1.288 136.72 1.25-136.055 1.25-10.47 1.25-128.32 1.25 96.797 1.29-37.11 1.25 100.08 1.25-111.446 1.25 28.281 1.288-136.016 1.25 82.305 1.25-145.39 1.29 112.734 1.25-38.672 1.25 116.016 1.25-69.844 1.288 46.719 1.25-108.672 1.25-2.735 1.25-118.672 1.25 107.813 1.29 44.219 1.25 56.21 1.25-47.382 1.25-44.375 1.289-27.383 1.25 50.469 1.25-19.727 1.289 15.078 1.25-4.96 1.25 92.538 1.25 62.579 1.289-62.11 1.25-29.531 1.25-36.524 1.25 45.547 1.25-25.312 1.289 83.789 1.25-1.367 1.25 15.703 1.25-110.586 1.289 25.625 1.25-108.79 1.25 59.259 1.289-59.414 1.25 54.297 1.25-57.07 1.25 69.1 1.289-141.366 1.25-10.079L505 646.72m0-.001 1.29 279.492 1.25 11.016 1.25 142.265 1.25-68.164 1.25 58.008 1.288-53.36 1.25 60.313 1.25-58.32 1.25 109.726 1.29-24.687 1.25 111.367 1.25-14.766 1.25 2.383 1.288-82.89 1.25 26.21 1.25-44.687 1.29 37.578 1.25 30.43 1.25 62.969 1.25-61.641 1.25-91.563 1.288 5.899 1.25-14.18 1.25 20.664 1.25-49.531 1.29 28.36 1.25 45.234 1.25 48.281 1.288-55.156 1.25-43.32 1.25-106.954 1.25 119.61 1.29 3.71 1.25 109.61 1.25-45.86 1.25 70.782 1.25-115.04 1.289 39.61 1.25-111.64 1.25 146.328 1.25-81.368 1.289 136.836 1.25-27.382 1.25 112.421 1.25-99.18 1.289 38.087 1.25-95.899 1.25 129.258 1.289 11.367 1.25 137.032 1.25-135.82 1.289-17.5 1.25-67.071 1.25 38.32 1.25-93.984 1.289 4.18 1.25 11.484 1.25 63.71 1.25-36.679 1.25-11.601 1.289-64.805 1.25-58.633 1.25-.937 1.25 56.757 1.29 62.97 1.25 9.726 1.25 34.843 1.288-65.585 1.25-13.36 1.25-6.015 1.25 92.148 1.29-40.195 1.25 65.195 1.25 15.664 1.288 133.945 1.25-138.867 1.25-13.242 1.25-131.094 1.25 94.024 1.29-39.922 1.25 97.304 1.25-114.257 1.25 25.507 1.288-138.71 1.25 79.53 1.25-148.202 1.29 109.922 1.25-41.446 1.25 113.282 1.25-72.618 1.288 43.868 1.25-111.485 1.25-5.43 1.25-121.484 1.25 104.961 1.29 41.445 1.25 53.477 1.25-50.195 1.289-47.188 1.25-30.195 1.25 47.773 1.25-22.773 1.289 12.343 1.25-7.773 1.25 89.727 1.25 59.765 1.289-64.843 1.25-32.305 1.25-39.375 1.25 42.773 1.25-28.047 1.289 81.016 1.25-4.258 1.25 12.93 1.289-113.203 1.25 22.812 1.25-111.601 1.25 56.484 1.289-62.148 1.25 51.484 1.25-59.883 1.25 66.328L660 824.805l1.25-12.89 1.25-281.33 1.29 279.493 1.25 11.016 1.25 142.265 1.25-68.164 1.25 58.008 1.288-53.36 1.25 60.352 1.25-58.36 1.25 109.727 1.29-24.687 1.25 111.367 1.25-14.765 1.288 2.382 1.25-82.89 1.25 26.172 1.25-44.61 1.29 37.54 1.25 30.429 1.25 62.969 1.25-61.64 1.25-91.563 1.288 5.898 1.25-14.18 1.25 20.664 1.25-49.53 1.29 28.359 1.25 45.234 1.25 48.281 1.288-55.156 1.25-43.32 1.25-106.953 1.25 119.609 1.29 3.71 1.25 109.61 1.25-45.86 1.25 70.782 1.25-115.039 1.289 39.61 1.25-111.876 1.25 146.368 1.25-81.329 1.289 136.993 1.25-27.344 1.25 112.383 1.289-99.14 1.25 38.046 1.25-95.899 1.25 129.258 1.289 11.368 1.25 137.03 1.25-135.82 1.289-17.539 1.25-67.03 1.25 38.32 1.25-93.985 1.289 4.18 1.25 11.484 1.25 63.711 1.25-36.68 1.289-11.601 1.25-64.805 1.25-58.633 1.25-.898 1.29 56.758 1.25 62.93 1.25 9.726 1.25 34.844 1.288-65.547 1.25-13.36 1.25-6.054 1.25 92.148 1.29-40.195 1.25 65.195 1.25 15.664 1.288 133.946 1.25-138.868 1.25-13.242 1.25-131.094 1.25 94.024 1.29-39.922 1.25 97.305 1.25-114.258 1.288 25.508 1.25-138.711 1.25 79.531 1.25-148.203 1.29 109.922 1.25-41.446 1.25 113.282 1.25-72.618 1.288 43.868 1.25-111.485 1.25-5.43 1.25-121.445 1.25 104.961 1.29 41.407 1.25 53.476 1.25-50.156 1.289-47.227 1.25-30.195 1.25 47.773 1.25-22.5 1.289 12.227 1.25-7.774 1.25 89.57 1.25 59.766 1.289-64.843 1.25-32.305 1.25-39.375 1.25 42.773 1.25-28.046 1.289 81.015 1.25-4.219 1.25 12.93 1.289-113.242 1.25 22.812 1.25-111.562 1.25 56.484 1.289-62.187 1.25 51.484 1.25-59.883 1.25 66.328 1.289-144.14 1.25-12.852L820 414.648m0 0 1.29 282.266 1.25 13.828 1.25 145.04 1.25-65.391 1.25 60.82 1.288-50.586 1.25 63.125 1.25-55.547 1.29 112.5 1.25-21.875 1.25 114.14 1.25-11.991 1.288 5.195 1.25-80.117 1.25 28.984 1.25-41.875 1.29 40.352 1.25 33.203 1.25 65.781 1.25-58.867 1.25-88.75 1.288 8.672 1.25-11.407 1.25 23.438 1.29-46.719 1.25 31.133 1.25 48.008 1.25 51.094 1.288-52.383 1.25-40.508 1.25-104.18 1.25 122.383 1.29 6.524 1.25 112.382 1.25-43.086 1.25 73.594 1.289-112.265 1.25 42.382 1.25-109.062 1.25 149.14 1.289-78.554 1.25 139.687 1.25-24.687 1.25 115.156 1.289-96.25 1.25 40.86 1.25-93.243 1.25 131.992 1.289 14.375 1.25 139.727 1.25-133.164 1.289-14.649 1.25-64.18 1.25 41.094 1.25-91.289 1.289 6.993 1.25 14.336 1.25 66.562 1.25-34.023 1.289-8.868 1.25-61.875 1.25-55.78 1.25 1.64 1.29 59.57 1.25 65.899 1.25 12.46 1.25 37.5 1.288-62.734 1.25-10.469 1.25-3.242 1.25 94.844 1.29-37.422 1.25 68.086 1.25 18.477 1.288 136.601 1.25-136.133 1.25-10.468 1.25-128.282 1.29 96.993 1.25-37.149 1.25 99.961 1.25-111.484 1.288 28.437 1.25-135.937 1.25 82.226 1.25-145.43L929.65 1105l1.25-38.633 1.25 115.938 1.25-69.844 1.288 46.758 1.25-108.672 1.25-2.774 1.25-118.671 1.29 107.89 1.25 44.219 1.25 56.094 1.25-47.344 1.289-44.336 1.25-27.383 1.25 50.43 1.25-19.727 1.289 15.118 1.25-4.961 1.25 92.5 1.25 62.539 1.289-62.032 1.25-29.53 1.25-36.602 1.25 45.585 1.289-25.273 1.25 83.828 1.25-1.484 1.25 15.742 1.289-110.469 1.25 25.625 1.25-108.789 1.25 59.258 1.289-59.375 1.25 54.258 1.25-57.11 1.25 69.141L975 935.586l1.25-10.117 1.25-278.555 1.29 282.266 1.25 13.828 1.25 145.039 1.25-65.39 1.25 60.82 1.288-50.586 1.25 63.125 1.25-55.547 1.29 112.5 1.25-21.875 1.25 114.14 1.25-11.992 1.288 5.156 1.25-80.078 1.25 28.985 1.25-41.875 1.29 40.312 1.25 33.242 1.25 65.782 1.25-58.868 1.25-88.75 1.288 8.672 1.25-11.406 1.25 23.438 1.29-46.72 1.25 31.134 1.25 48.007 1.25 51.094 1.288-52.383 1.25-40.507 1.25-104.18 1.25 122.383 1.29 6.523 1.25 112.383 1.25-43.047 1.25 73.555 1.289-112.266 1.25 42.383 1.25-109.063 1.25 149.141 1.289-78.555 1.25 139.688 1.289-24.727 1.25 115.157 1.25-96.211 1.25 40.859 1.25-93.242 1.289 131.992 1.25 14.375 1.25 139.727 1.25-133.165 1.289-14.648 1.25-64.18 1.25 41.094 1.25-91.289 1.289 6.953 1.25 14.375 1.25 66.524 1.289-33.985 1.25-8.906 1.25-61.797 1.25-55.82 1.25 1.68 1.29 59.492 1.25 65.937 1.25 12.461 1.25 37.5 1.288-62.734 1.25-10.469 1.25-3.281 1.25 94.883 1.29-37.422 1.25 68.086 1.25 18.476 1.288 136.602 1.25-136.133 1.25-10.274 1.25-128.32 1.25 96.836 1.29-37.148 1.25 99.96 1.25-111.445 1.288 28.399 1.25-135.938 1.25 82.227 1.25-145.43 1.29 112.813 1.25-38.672 1.25 115.976 1.25-69.843 1.289 46.757 1.25-108.671 1.25-2.774 1.289-118.71 1.25 107.929 1.25 44.219 1.25 56.093 1.25-47.343 1.289-44.336 1.25-27.422 1.25 50.468 1.25-19.726 1.289 15.117 1.25-4.96 1.25 92.46 1.25 62.578 1.289-62.031 1.25-29.531 1.25-36.602 1.25 45.586 1.289-25.273 1.25 83.828 1.25-1.485 1.25 15.704 1.289-110.43 1.25 25.625 1.25-108.79 1.25 59.259 1.289-59.414 1.25 54.335 1.25-57.109 1.25 69.063 1.289-141.329 1.25-10.078L1135 879.18m0 0 1.29 279.492 1.25 11.015 1.25 142.266 1.25-68.164 1.288 58.008 1.25-53.36 1.25 60.313 1.29-58.32 1.25 109.726 1.25-24.687 1.25 111.367 1.25-14.766 1.288 2.383 1.25-82.89 1.25 26.171 1.25-44.648 1.29 37.539 1.25 30.469 1.25 62.968 1.25-61.64 1.288-91.563 1.25 5.938 1.25-14.219 1.29 20.664 1.25-49.531 1.25 28.32 1.25 45.274 1.25 48.28 1.289-55.155 1.25-43.32 1.25-106.954 1.25 119.61 1.289 3.71 1.25 109.61 1.25-45.86 1.289 70.782 1.25-115.04 1.25 39.571 1.25-111.836 1.289 146.328 1.25-81.289 1.25 136.875 1.289-27.5 1.25 112.383 1.25-99.023 1.25 38.085 1.25-96.054 1.289 129.219 1.25 11.601 1.25 136.953 1.25-135.976 1.289-17.422 1.25-66.992 1.25 38.32 1.289-94.063 1.25 4.18 1.25 11.563 1.25 63.75 1.289-36.797 1.25-11.68 1.25-64.61 1.25-58.593 1.25-1.133 1.29 56.758 1.25 63.125 1.25 9.687 1.25 34.688 1.288-65.508 1.25-13.281 1.25-6.016 1.29 92.07 1.25-40.234 1.25 65.313 1.25 15.703 1.288 133.789 1.25-138.867 1.25-13.086 1.25-131.094 1.25 93.828 1.29-39.883 1.25 97.461 1.25-114.297 1.288 25.547 1.25-138.75 1.25 79.453 1.25-148.203 1.29 110 1.25-41.445 1.25 113.203 1.25-72.656 1.289 43.984 1.25-111.445 1.25-5.586 1.289-121.484 1.25 105.117 1.25 41.445 1.25 53.32 1.25-50.156 1.289-47.11 1.25-30.156 1.25 47.657 1.25-22.54 1.289 12.344 1.25-7.773 1.25 89.727 1.25 59.765 1.289-64.844 1.25-32.304 1.25-39.375 1.289 42.773 1.25-28.047 1.25 81.016 1.25-4.258 1.25 12.93 1.289-113.203 1.25 22.812 1.25-111.601 1.25 56.484 1.289-62.148 1.25 51.484 1.25-59.883 1.25 66.328 1.289-144.14 1.25-12.891 1.29-281.328 1.25 279.492 1.25 11.016 1.25 142.265 1.288-68.164 1.25 58.008 1.25-53.36 1.25 60.313 1.29-58.32 1.25 109.726 1.25-24.687 1.25 111.367 1.25-14.765 1.288 2.382 1.25-82.89 1.25 26.21 1.29-44.687 1.25 37.578 1.25 30.43 1.25 62.969 1.288-61.64 1.25-91.563 1.25 5.898 1.25-14.18 1.29 20.664 1.25-49.53 1.25 28.359 1.25 45.234 1.25 48.281 1.289-55.156 1.25-43.32 1.25-106.954 1.289 119.61 1.25 3.71 1.25 109.571 1.25-45.82 1.289 70.781 1.25-115 1.25 39.57 1.25-111.875 1.289 146.368 1.25-81.329 1.25 136.875 1.289-27.5 1.25 112.383 1.25-98.984 1.25 38.047 1.25-96.055 1.289 129.219 1.25 11.601 1.25 136.953 1.25-135.976 1.289-17.461 1.25-66.953 1.25 38.32 1.289-94.062 1.25 4.18 1.25 11.562 1.25 63.75 1.289-36.797 1.25-11.68 1.25-64.61 1.25-58.593 1.25-1.133 1.29 56.758 1.25 63.125 1.25 9.688 1.25 34.687 1.288-65.508 1.25-13.28 1.25-6.017 1.29 92.07 1.25-40.234 1.25 65.313 1.25 15.703 1.288 133.79 1.25-138.907 1.25-13.047 1.25-131.094 1.25 93.828 1.29-39.882 1.25 97.46 1.25-114.296 1.288 25.39 1.25-138.71 1.25 79.57 1.29-148.204 1.25 110 1.25-41.445 1.25 113.203 1.289-72.656 1.25 43.984 1.25-111.445 1.25-5.586 1.289-121.484 1.25 105.117 1.25 41.445 1.25 53.32 1.25-50.156 1.289-47.07 1.25-30.234 1.25 47.695 1.289-22.54 1.25 12.345 1.25-7.774 1.25 89.727 1.289 59.765 1.25-64.843 1.25-32.305 1.25-39.375 1.289 42.773 1.25-28.046 1.25 81.015 1.25-4.219 1.25 12.93 1.289-113.242 1.25 22.812 1.25-111.562 1.289 56.445 1.25-62.148 1.25 51.484 1.25-59.883 1.289 66.328 1.25-144.14 1.25-12.89 1.29-281.329m0 0 1.25 281.524 1.25 12.695 1.25 143.945 1.288-66.133 1.25 59.961 1.25-51.562 1.25 62.07 1.29-56.367 1.25 111.64 1.25-22.89 1.25 113.125 1.25-12.813 1.288 4.414 1.25-81.21 1.25 27.851 1.29-42.578 1.25 39.57 1.25 32.11 1.25 64.648 1.288-59.57 1.25-89.649 1.25 7.696 1.25-12.461 1.29 22.656 1.25-47.774 1.25 30.313 1.25 47.188 1.25 50.039 1.289-53.477 1.25-41.29 1.25-104.92 1.289 121.288 1.25 5.43 1.25 111.601 1.25-43.828 1.289 72.5 1.25-113.281 1.25 41.523 1.25-109.921 1.289 148.125 1.25-79.57 1.25 138.866 1.289-25.546 1.25 114.14 1.25-97.304 1.25 40.078 1.25-94.024 1.289 130.899 1.25 13.242 1.25 139.023 1.289-133.906 1.25-15.781 1.25-65.235 1.25 40.313 1.289-92.149 1.25 5.938 1.25 13.36 1.25 65.702 1.289-34.882 1.25-9.883 1.25-62.93 1.25-56.562 1.25.937 1.29 58.399 1.25 64.804 1.25 11.758 1.288 36.719 1.25-63.828 1.25-11.485 1.25-4.101 1.29 93.984 1.25-38.437 1.25 67.07 1.25 17.656 1.288 135.781 1.25-137.187 1.25-11.367 1.25-129.063 1.25 95.899 1.29-38.243 1.25 99.18 1.25-112.304 1.288 27.421 1.25-136.992 1.25 81.446 1.29-146.29 1.25 111.797 1.25-39.687 1.25 115.117 1.289-70.625 1.25 45.664 1.25-109.726 1.25-3.555 1.289-119.453 1.25 106.797 1.25 43.125 1.25 55.351 1.25-48.164 1.289-45.351 1.25-28.477 1.25 49.648 1.289-20.586 1.25 14.102 1.25-5.977 1.25 91.641 1.289 61.797 1.25-63.125 1.25-30.625 1.25-37.383 1.289 44.844 1.25-26.367 1.25 82.695 1.25-2.188 1.25 14.883 1.289-111.484 1.25 24.61 1.25-109.65 1.289 58.4 1.25-60.391 1.25 53.28 1.25-57.929 1.289 68.36 1.25-142.461 1.25-11.211 1.29-279.297 1.25 281.523 1.25 12.696 1.25 143.945 1.288-66.133 1.25 59.961 1.25-51.562 1.25 62.07 1.29-56.406 1.25 111.68 1.25-22.891 1.25 113.125 1.288-12.852 1.25 4.453 1.25-81.21 1.25 27.85 1.29-42.577 1.25 39.57 1.25 32.11 1.25 64.687 1.288-59.61 1.25-89.648 1.25 7.695 1.25-12.46 1.29 22.656 1.25-47.578 1.25 30.078 1.25 46.992 1.289 50.273 1.25-53.476 1.25-41.29 1.25-104.921 1.289 121.289 1.25 5.43 1.25 111.601 1.25-43.828 1.289 72.5 1.25-113.281 1.25 41.523 1.25-109.883 1.289 148.086 1.25-79.57 1.25 138.867 1.289-25.547 1.25 114.141 1.25-97.305 1.25 40.078 1.25-94.023 1.289 130.898 1.25 13.282 1.25 138.984 1.289-133.906 1.25-15.781 1.25-65.235 1.25 40.274 1.289-92.11 1.25 5.938 1.25 13.36 1.25 65.702 1.289-34.883 1.25-9.882 1.25-62.93 1.25-56.563 1.25.938 1.29 58.398 1.25 64.805 1.25 11.719 1.288 36.758 1.25-63.829 1.25-11.484 1.25-4.101 1.29 93.984 1.25-38.438 1.25 67.11 1.25 17.617 1.288 135.781 1.25-137.148 1.25-11.406 1.25-129.063 1.25 95.899 1.29-38.243 1.25 99.18 1.288-112.305 1.25 27.422 1.25-136.992 1.25 81.406 1.29-146.25 1.25 111.758 1.25-39.648 1.25 115.117 1.289-70.625 1.25 45.703 1.25-109.766 1.25-3.554 1.289-119.454 1.25 106.797 1.25 43.125 1.25 55.352 1.289-48.203 1.25-45.352 1.25-28.398 1.25 49.61 1.289-20.587 1.25 14.14 1.25-6.015 1.25 91.64 1.289 61.798 1.25-63.125 1.25-30.625 1.25-37.383 1.289 44.844 1.25-26.368 1.25 82.696 1.25-2.188 1.289 14.844 1.25-111.445 1.25 24.61 1.25-109.65 1.289 58.4 1.25-60.391 1.25 53.28 1.25-57.929 1.289 68.36 1.25-142.461 1.25-11.211 1.29-279.297m0 0 1.25 278.75 1.25 9.882 1.25 141.172 1.288-68.906 1.25 57.149 1.25-54.375 1.25 59.335 1.29-59.18 1.25 108.868 1.25-25.703 1.288 110.351 1.25-15.625 1.25 1.641 1.25-83.984 1.25 25.078 1.29-45.39 1.25 36.757 1.25 29.375 1.25 61.875 1.288-62.422 1.25-92.383 1.25 4.883 1.25-15.234 1.29 19.843 1.25-50.351 1.25 27.305 1.289 44.218 1.25 47.461 1.25-55.937 1.25-44.375 1.25-107.735 1.289 118.516 1.25 2.617 1.25 108.828 1.25-46.601 1.289 69.687 1.25-116.054 1.25 38.75 1.25-112.696 1.289 145.313 1.25-82.344 1.25 136.055 1.289-28.36 1.25 111.407 1.25-100.118 1.25 37.305 1.289-96.836 1.25 128.164 1.25 10.43 1.25 136.25 1.289-136.719 1.25-18.554 1.25-68.008 1.25 37.5 1.289-94.961 1.25 3.203 1.25 10.547 1.25 62.93 1.289-37.696 1.25-12.656 1.25-65.742 1.25-59.336 1.29-1.836 1.25 55.625 1.25 61.992 1.25 8.984 1.288 33.907 1.25-66.602 1.25-14.297 1.25-6.875 1.29 91.211 1.25-41.21 1.25 64.296 1.25 14.844 1.288 132.969 1.25-139.922 1.25-14.18 1.25-131.836 1.29 93.086 1.25-41.016 1.288 96.368 1.25-115.079 1.25 24.649 1.25-139.766 1.25 78.633 1.29-149.062 1.25 108.984 1.25-42.461 1.25 112.344 1.289-73.438 1.25 42.93 1.25-112.54 1.25-6.366 1.289-122.227 1.25 104.024 1.25 40.351 1.289 52.54 1.25-50.977 1.25-48.125 1.25-31.211 1.25 46.797 1.289-23.36 1.25 11.328 1.25-8.75 1.25 88.828 1.289 59.024 1.25-65.938 1.25-33.398 1.25-40.156 1.289 42.03 1.25-29.14 1.25 79.922 1.289-5 1.25 12.07 1.25-114.218 1.25 21.797 1.25-112.422 1.289 55.625 1.25-63.203 1.25 50.507 1.25-60.742 1.289 65.586 1.25-145.234 1.25-14.024 1.29-282.07 1.25 278.75 1.25 9.922 1.25 141.133 1.288-68.946 1.25 57.188 1.25-54.336 1.25 59.297 1.29-59.18 1.25 108.867 1.25-25.703 1.288 110.352 1.25-15.625 1.25 1.64 1.25-83.984 1.25 25.078 1.29-45.39 1.25 36.796 1.25 29.336 1.25 61.875 1.288-62.382 1.25-92.422 1.25 4.882 1.25-15.234 1.29 19.844 1.25-50.352 1.25 27.305 1.289 44.219 1.25 47.46 1.25-55.937 1.25-44.375 1.25-108.086 1.289 118.867 1.25 2.618 1.25 108.828 1.25-46.602 1.289 69.688 1.25-116.055 1.25 38.75 1.25-112.695 1.289 145.312 1.25-82.344 1.289 136.055 1.25-28.32 1.25 111.367 1.25-100.117 1.289 37.304 1.25-96.835 1.25 128.125 1.25 10.468 1.25 136.211 1.289-136.68 1.25-18.554 1.25-68.008 1.25 37.5 1.289-94.922 1.25 3.164 1.25 10.547 1.289 62.93 1.25-37.696 1.25-12.656 1.25-65.703 1.29-59.375 1.25-1.836 1.25 55.625 1.25 62.031 1.25 8.946 1.288 33.945 1.25-66.64 1.25-14.258 1.25-6.914 1.29 91.21 1.25-41.21 1.25 64.296 1.288 14.844 1.25 132.969 1.25-139.922 1.25-14.18 1.29-131.836 1.25 93.086 1.25-41.015 1.288 96.406 1.25-115.117 1.25 24.648 1.25-139.765 1.25 78.632 1.29-149.062 1.25 108.984 1.25-42.46 1.25 112.343 1.289-73.437 1.25 42.93 1.25-112.54 1.25-6.367 1.289-122.226 1.25 104.023 1.25 40.351 1.289 52.54 1.25-50.977 1.25-48.125 1.25-31.21 1.25 46.796 1.289-23.32 1.25 11.289 1.25-8.75 1.25 88.828 1.289 59.023 1.25-65.937 1.25-33.36 1.25-40.195 1.289 42.07 1.25-29.18 1.25 79.923 1.289-5 1.25 12.109 1.25-114.258 1.25 21.797 1.25-112.422 1.289 55.625 1.25-63.203 1.25 50.508 1.25-60.742 1.289 65.586 1.25-145.235 1.25-13.984 1.29-282.11m0 0 1.25 281.524 1.25 12.734 1.25 143.907 1.288-66.133 1.25 59.96 1.25-51.562 1.29 62.11 1.25-56.407 1.25 111.64 1.25-22.89 1.288 113.125 1.25-12.851 1.25 4.453 1.25-81.211 1.25 27.89 1.29-42.617 1.25 39.57 1.25 32.11 1.25 64.688 1.288-59.61 1.25-89.648 1.25 7.695 1.29-12.46 1.25 22.616 1.25-47.539 1.25 30.117 1.289 46.993 1.25 50.234 1.25-53.125 1.25-41.602 1.25-105.273 1.289 121.601 1.25 5.743 1.25 111.289 1.289-44.14 1.25 72.812 1.25-113.282 1.25 41.524 1.289-109.883 1.25 148.125 1.25-79.61 1.289 138.868 1.25-25.547 1.25 114.14 1.25-97.304 1.289 40.078 1.25-94.023 1.25 130.898 1.25 13.281 1.25 138.985 1.289-133.907 1.25-15.78 1.25-65.235 1.25 40.312 1.289-92.148 1.25 5.976 1.25 13.36 1.289 65.664 1.25-34.844 1.25-9.922 1.25-62.93 1.29-56.562 1.25.938 1.25 58.398 1.25 64.805 1.25 11.757 1.288 36.72 1.25-63.829 1.25-11.484 1.25-4.102 1.29 93.985 1.25-38.438 1.25 67.11 1.288 17.617 1.25 135.78 1.25-137.148 1.25-11.406 1.29-129.062 1.25 95.898 1.25-38.242 1.288 99.18 1.25-112.305 1.25 27.422 1.25-136.992 1.25 81.445 1.29-146.29 1.25 111.798 1.25-39.688 1.25 115.117 1.289-70.625 1.25 45.704 1.25-109.766 1.289-3.555 1.25-119.453 1.25 106.797 1.25 43.125 1.289 55.351 1.25-48.203 1.25-45.312 1.25-28.438 1.25 49.61 1.289-20.586 1.25 14.14 1.25-6.015 1.25 91.64 1.289 61.836 1.25-63.164 1.25-30.586 1.289-37.382 1.25 44.804 1.25-26.367 1.25 82.734 1.289-2.226 1.25 14.883 1.25-111.446 1.25 24.57 1.25-109.648 1.289 58.399 1.25-60.39 1.25 53.28 1.25-57.93 1.289 68.36 1.25-142.46 1.25-11.212 1.29-279.297 1.25 281.524 1.25 12.695 1.25 143.945 1.288-66.133 1.25 59.961 1.25-51.562 1.29 62.11 1.25-56.446 1.25 111.68 1.25-22.89 1.288 113.124 1.25-12.812 1.25 4.414 1.25-81.211 1.25 27.89 1.29-42.656 1.25 39.57 1.25 32.149 1.25 64.648 1.288-59.61 1.25-89.609 1.25 7.696 1.29-12.461 1.25 22.617 1.25-47.539 1.25 30.117 1.289 46.992 1.25 50.235 1.25-53.125 1.25-41.64 1.25-105.274 1.289 121.64 1.25 5.742 1.25 111.29 1.289-44.141 1.25 72.773 1.25-113.046 1.25 41.367 1.289-110.118 1.25 148.282 1.25-79.532 1.289 138.829 1.25-25.547 1.25 114.14 1.25-97.304 1.289 40.078 1.25-94.024 1.25 130.899 1.25 13.281 1.25 138.984 1.289-133.906 1.25-15.781 1.25-65.234 1.289 40.312 1.25-92.148 1.25 5.937 1.25 13.36 1.289 65.703 1.25-34.883 1.25-9.844 1.25-62.969 1.29-56.562 1.25.937 1.25 58.399 1.25 64.804 1.25 11.758 1.288 36.719 1.25-63.828 1.25-11.524 1.29-4.062 1.25 93.984 1.25-38.437 1.25 67.11 1.288 17.616 1.25 135.782 1.25-137.149 1.25-11.406 1.29-129.063 1.25 95.899 1.25-38.242 1.288 99.18 1.25-112.305 1.25 27.422 1.25-136.993 1.25 81.446 1.29-146.25 1.25 111.757 1.25-39.687 1.25 115.117 1.289-70.625 1.25 45.664 1.25-109.726 1.289-3.555 1.25-119.453 1.25 106.797 1.25 43.164 1.289 55.312 1.25-48.203 1.25-45.312 1.25-28.438 1.25 49.61 1.289-20.586 1.25 14.101 1.25-5.937 1.25 91.601 1.289 61.797 1.25-63.125 1.25-30.625 1.289-37.344 1.25 44.805 1.25-26.367 1.25 82.695 1.289-2.187 1.25 14.882 1.25-111.484 1.25 24.61 1.25-109.649 1.289 58.399 1.25-60.391 1.25 53.281 1.25-57.93 1.289 68.36 1.25-142.461 1.29-11.211 1.25-279.297" style="fill:none;stroke-width:3.985;stroke-linecap:butt;stroke-linejoin:miter;stroke:#000;stroke-opacity:1;stroke-miterlimit:10" transform="matrix(.1 0 0 -.1 0 167)"/><path d="m2395.04 646.914 1.25 278.75 1.25 9.922 1.288 141.133 1.25-68.946 1.25 57.188 1.25-54.336 1.29 59.297 1.25-59.18 1.25 108.867 1.25-25.703 1.288 110.352 1.25-15.625 1.25 1.64 1.25-83.984 1.29 25.078 1.25-45.39 1.25 36.796 1.25 29.336 1.288 61.875 1.25-62.382 1.25-92.422 1.25 4.882 1.29-15.234 1.25 19.844 1.25-50.352 1.25 27.305 1.289 44.219 1.25 47.46 1.25-55.937 1.25-44.375 1.289-108.086 1.25 118.867 1.25 2.97 1.25 108.476 1.289-46.914 1.25 70 1.25-115.86 1.25 38.555 1.289-112.89 1.25 145.507 1.25-82.148 1.289 135.86 1.25-28.321 1.25 111.367 1.25-100.117 1.289 37.304 1.25-96.835 1.25 128.125 1.25 10.468 1.25 136.211 1.289-136.68 1.25-18.554 1.25-68.008 1.289 37.5 1.25-94.922 1.25 3.164 1.25 10.547 1.289 62.93 1.25-37.696 1.25-12.656 1.25-65.703 1.29-59.375 1.25-1.836 1.25 55.625 1.25 62.031 1.25 8.946 1.288 33.945 1.25-66.64 1.25-14.258 1.29-6.914 1.25 91.21 1.25-41.21 1.25 64.296 1.288 14.844 1.25 132.969 1.25-139.922 1.25-14.18 1.29-131.836 1.25 93.086 1.25-41.015 1.288 96.406 1.25-115.117 1.25 24.648 1.25-139.765 1.29 78.632 1.25-149.062 1.25 108.984 1.25-42.46 1.289 112.343 1.25-73.437 1.25 42.93 1.25-112.54 1.289-6.367 1.25-122.226 1.25 104.023 1.25 40.351 1.289 52.54 1.25-50.977 1.25-48.125 1.25-31.21 1.289 46.796 1.25-23.32 1.25 11.289 1.25-8.75 1.289 88.828 1.25 59.023 1.25-65.937 1.25-33.36 1.289-40.195 1.25 42.07 1.25-29.18 1.25 79.923 1.289-5 1.25 12.109 1.25-114.258 1.25 21.797 1.289-112.422 1.25 55.625 1.25-63.203 1.25 50.508 1.289-60.742 1.25 65.586 1.29-145.235 1.25-13.984 1.25-282.11 1.25 278.75 1.25 9.922 1.288 141.133 1.25-68.906 1.25 57.148 1.25-54.336 1.29 59.297 1.25-59.18 1.25 108.868 1.25-25.703 1.288 110.351 1.25-15.625 1.25 1.64 1.29-83.984 1.25 25.079 1.25-45.391 1.25 36.797 1.25 29.336 1.288 61.875 1.25-62.383 1.25-92.422 1.25 4.883 1.29-15.235 1.25 19.844 1.25-50.351 1.25 27.343 1.289 44.18 1.25 47.5 1.25-55.976 1.289-44.375 1.25-108.086 1.25 118.867 1.25 2.969 1.25 108.476 1.289-46.914 1.25 70 1.25-115.86 1.25 38.555 1.289-112.89 1.25 145.508 1.25-82.149 1.289 135.86 1.25-28.477 1.25 111.523 1.25-100.117 1.289 37.305 1.25-96.836 1.25 128.164 1.25 10.469 1.289 136.21 1.25-136.718 1.25-18.555 1.25-68.008 1.289 37.5 1.25-94.921 1.25 3.164 1.25 10.586 1.289 62.89 1.25-37.656 1.25-12.695 1.25-65.703 1.29-59.375 1.25-1.836 1.25 55.625 1.25 61.992 1.288 8.984 1.25 33.945 1.25-66.64 1.25-14.258 1.29-6.914 1.25 91.21 1.25-41.21 1.25 64.297 1.288 14.844 1.25 133.007 1.25-139.96 1.25-14.18 1.29-131.836 1.25 93.086 1.25-41.016 1.288 96.406 1.25-115.078 1.25 24.61 1.29-139.766 1.25 78.633 1.25-149.063 1.25 108.985 1.289-42.461 1.25 112.343 1.25-73.437 1.25 42.93 1.25-112.54 1.289-6.367 1.25-122.226 1.25 104.023 1.25 40.352 1.289 52.539 1.25-50.977 1.25-48.125 1.289-31.21 1.25 46.835 1.25-23.398 1.25 11.367 1.289-8.789 1.25 88.828 1.25 59.024 1.25-65.938 1.25-33.36 1.289-40.195 1.25 42.07 1.25-29.179 1.25 79.922 1.289-5 1.25 12.11 1.25-114.259 1.289 21.836 1.25-112.46 1.25 55.625 1.25-63.165 1.289 50.47 1.25-60.743 1.25 65.586 1.29-145.234 1.25-13.985 1.25-281.836M190 181.602h2520.04" style="fill:none;stroke-width:3.985;stroke-linecap:butt;stroke-linejoin:miter;stroke:#000;stroke-opacity:1;stroke-miterlimit:10" transform="matrix(.1 0 0 -.1 0 167)"/><path d="M18.746 148.852h.602v6h-.602zm126.004 0h.602v6h-.602zm126 0h.602v6h-.602zm0 0" style="stroke:none;fill-rule:nonzero;fill:#000;fill-opacity:1"/><use xlink:href="#a" x="16.48" y="163.651" style="fill:#000;fill-opacity:1"/><use xlink:href="#b" x="142.482" y="163.771" style="fill:#000;fill-opacity:1"/><use xlink:href="#c" x="268.484" y="163.651" style="fill:#000;fill-opacity:1"/><path d="M190 181.602v1393.554" style="fill:none;stroke-width:3.985;stroke-linecap:butt;stroke-linejoin:miter;stroke:#000;stroke-opacity:1;stroke-miterlimit:10" transform="matrix(.1 0 0 -.1 0 167)"/><path d="M12.988 148.492h6v.602h-6zm0-46.452h6v.6h-6zm0-46.45h6v.601h-6zm0-46.453h6v.601h-6zm0 0" style="stroke:none;fill-rule:nonzero;fill:#000;fill-opacity:1"/><use xlink:href="#a" x="5.989" y="152.2" style="fill:#000;fill-opacity:1"/><use xlink:href="#b" x="5.989" y="105.868" style="fill:#000;fill-opacity:1"/><use xlink:href="#c" x="5.989" y="59.416" style="fill:#000;fill-opacity:1"/><use xlink:href="#d" x="5.989" y="12.843" style="fill:#000;fill-opacity:1"/></svg>