<svg xmlns="http://www.w3.org/2000/svg" xmlns:xlink="http://www.w3.org/1999/xlink" width="352" height="26pt" viewBox="0 0 264 26"><defs><symbol id="a" overflow="visible"><path d="M2.703.016v-.188l-.328-.016c-.36-.03-.422-.093-.422-.437v-3.828l-.094-.031c-.421.218-.875.406-1.468.609l.046.281H.5c.281-.125.563-.25.86-.375.03 0 .046.063.046.203v3.141c0 .344-.078.406-.422.438l-.359.015v.188C.985 0 1.328 0 1.688 0c.343 0 .687 0 1.015.016m0 0" style="stroke:none"/></symbol><symbol id="k" overflow="visible"><path d="M3.016-2.375c0-1.406-.422-2.078-1.313-2.078-1 0-1.516.797-1.516 2.36 0 .75.141 1.405.36 1.718.234.328.594.5 1 .5.969 0 1.469-.844 1.469-2.5m-.547.328c0 1.375-.25 1.953-.844 1.953C1-.094.735-.75.735-2.328c0-1.36.234-1.906.843-1.906.64 0 .89.64.89 2.187zm0 0" style="stroke:none"/></symbol><symbol id="b" overflow="visible"><path d="M2.297.016v-.157L2-.17c-.297-.016-.344-.063-.344-.36v-3.25l-.078-.031c-.36.187-.75.359-1.25.53l.047.235h.047c.234-.11.484-.219.719-.328q.045 0 .046.188V-.53c0 .297-.062.344-.359.36l-.297.03v.157C.828 0 1.125 0 1.437 0 1.72 0 2 0 2.297.016m0 0" style="stroke:none"/></symbol><symbol id="c" overflow="visible"><path d="M2.563.016v-.5L.671-.422l1-1.062c.531-.563.687-.86.687-1.282 0-.625-.421-1.015-1.125-1.015-.39 0-.656.11-.921.39l-.094.735h.156l.063-.25c.093-.313.296-.453.656-.453.468 0 .781.296.781.765 0 .406-.234.813-.86 1.469l-.921 1v.14C.5 0 .906 0 1.312 0c.422 0 .844 0 1.25.016zm0 0" style="stroke:none"/></symbol><symbol id="d" overflow="visible"><path d="M2.531-1.234c0-.25-.11-.485-.297-.625-.14-.094-.265-.141-.546-.188.437-.344.609-.594.609-.922 0-.484-.406-.812-1.016-.812-.375 0-.625.11-.89.375l-.157.672h.172L.5-3.031c.063-.188.406-.375.703-.375a.64.64 0 0 1 .64.625c0 .422-.327.765-.718.765-.047 0-.25-.015-.25-.015l-.063.281.032.031c.203-.078.312-.11.469-.11.453 0 .718.282.718.782 0 .563-.344.938-.86.938-.25 0-.468-.094-.64-.235C.406-.469.328-.594.234-.89l-.156.047c.125.344.156.531.203.813.281.093.531.14.735.14.656 0 1.515-.578 1.515-1.343zm0 0" style="stroke:none"/></symbol><symbol id="e" overflow="visible"><path d="M2.594.016v-.157l-.266-.03C2.063-.188 2-.25 2-.579V-1c.313 0 .438.016.594.031v-.39s-.281.015-.453.015H2v-.765c0-.97 0-1.438.031-1.672l-.062-.031-.407.156L.016-1.125.078-1h1.453v.422c0 .328-.062.406-.328.406L.86-.14v.157C1.156 0 1.453 0 1.75 0c.281 0 .563 0 .844.016M1.53-1.344H.36L1.531-3.28zm0 0" style="stroke:none"/></symbol><symbol id="f" overflow="visible"><path d="M2.516-1.39c0-.61-.438-1.063-1.063-1.063-.266 0-.469.078-.812.281l.062-1.14 1.672.015.016-.015v-.438l-.016-.031s-.594.031-.953.031c-.375 0-.969-.031-.969-.031l-.016.031V-3c0 .484-.015 1-.03 1.234l.109.032c.265-.25.406-.329.687-.329.516 0 .844.376.844.954 0 .609-.344.968-.938.968-.296 0-.578-.093-.656-.234l-.25-.453-.125.078c.125.313.188.484.266.734C.5.063.719.11.954.11c.359 0 .75-.156 1.046-.421.344-.297.516-.672.516-1.079m0 0" style="stroke:none"/></symbol><symbol id="g" overflow="visible"><path d="M2.563-1.203c0-.625-.376-1.047-.954-1.047-.328 0-.53.14-.89.438.11-1 .578-1.532 1.562-1.829v-.046l-.203-.094c-.531.172-.75.281-1.031.531a2.42 2.42 0 0 0-.875 1.89C.172-.452.609.11 1.328.11c.703 0 1.234-.563 1.234-1.313zm-.47.187c0 .579-.28.938-.702.938-.47 0-.72-.39-.72-1.125 0-.203.032-.297.079-.39.125-.188.39-.313.656-.313.407 0 .688.36.688.89zm0 0" style="stroke:none"/></symbol><symbol id="h" overflow="visible"><path d="M2.719-3.61v-.171c-.578.031-.64.031-1.219.031-.578 0-.672 0-1.203-.031l-.063.031s.016.344.016.578c0 .219-.016.563-.016.563h.172l.031-.313c.047-.344.094-.39.344-.39H2.25c-.219.453-.39.765-.61 1.109L.314-.063.36.016S.516 0 .61 0s.25.016.25.016c.235-.594.375-.954.86-1.829zm0 0" style="stroke:none"/></symbol><symbol id="i" overflow="visible"><path d="M2.547-1.125c0-.438-.203-.672-.828-.969.5-.328.672-.562.672-.89 0-.47-.391-.797-.97-.797-.655 0-1.124.422-1.124 1 0 .375.14.578.625.89-.219.11-.313.157-.438.282a1.02 1.02 0 0 0-.312.734c0 .563.453.984 1.062.984.72 0 1.313-.562 1.313-1.234m-.438.219c0 .469-.343.828-.78.828-.47 0-.782-.328-.782-.844 0-.39.172-.64.578-.89l.438.187c.343.156.546.422.546.719m-.093-2.016c0 .313-.141.516-.485.75l-.312-.14c-.344-.172-.516-.391-.516-.672 0-.36.266-.61.656-.61.391 0 .657.266.657.672m0 0" style="stroke:none"/></symbol><symbol id="j" overflow="visible"><path d="M1.188-1.75c0-.203-.188-.375-.391-.375a.38.38 0 0 0-.36.375c0 .188.172.375.36.375.219 0 .39-.188.39-.375zm0 0" style="stroke:none"/></symbol></defs><path d="M0 189.883h2640.04M120 128.164v123.438m2400.04-123.438v123.438m0-98.75v74.062" style="fill:none;stroke-width:3.985;stroke-linecap:butt;stroke-linejoin:miter;stroke:#000;stroke-opacity:1;stroke-miterlimit:10" transform="matrix(.1 0 0 -.1 0 26)"/><use xlink:href="#a" x="250.443" y="20.443" style="fill:#000;fill-opacity:1"/><path d="M1320 152.852v74.062" style="fill:none;stroke-width:3.985;stroke-linecap:butt;stroke-linejoin:miter;stroke:#000;stroke-opacity:1;stroke-miterlimit:10" transform="matrix(.1 0 0 -.1 0 26)"/><use xlink:href="#b" x="130.681" y="17.443" style="fill:#000;fill-opacity:1"/><path d="M130.668 18.055h2.762v.48h-2.762zm0 0" style="stroke:none;fill-rule:nonzero;fill:#000;fill-opacity:1"/><use xlink:href="#c" x="130.681" y="22.723" style="fill:#000;fill-opacity:1"/><path d="M920.04 152.852v74.062" style="fill:none;stroke-width:3.985;stroke-linecap:butt;stroke-linejoin:miter;stroke:#000;stroke-opacity:1;stroke-miterlimit:10" transform="matrix(.1 0 0 -.1 0 26)"/><use xlink:href="#b" x="90.682" y="17.443" style="fill:#000;fill-opacity:1"/><path d="M90.672 18.055h2.762v.48h-2.762zm0 0" style="stroke:none;fill-rule:nonzero;fill:#000;fill-opacity:1"/><use xlink:href="#d" x="90.682" y="22.604" style="fill:#000;fill-opacity:1"/><path d="M720 152.852v74.062" style="fill:none;stroke-width:3.985;stroke-linecap:butt;stroke-linejoin:miter;stroke:#000;stroke-opacity:1;stroke-miterlimit:10" transform="matrix(.1 0 0 -.1 0 26)"/><use xlink:href="#b" x="70.681" y="17.443" style="fill:#000;fill-opacity:1"/><path d="M70.668 18.055h2.762v.48h-2.762zm0 0" style="stroke:none;fill-rule:nonzero;fill:#000;fill-opacity:1"/><use xlink:href="#e" x="70.681" y="22.723" style="fill:#000;fill-opacity:1"/><path d="M600 152.852v74.062" style="fill:none;stroke-width:3.985;stroke-linecap:butt;stroke-linejoin:miter;stroke:#000;stroke-opacity:1;stroke-miterlimit:10" transform="matrix(.1 0 0 -.1 0 26)"/><use xlink:href="#b" x="58.68" y="17.443" style="fill:#000;fill-opacity:1"/><path d="M58.668 18.055h2.762v.48h-2.762zm0 0" style="stroke:none;fill-rule:nonzero;fill:#000;fill-opacity:1"/><use xlink:href="#f" x="58.68" y="22.604" style="fill:#000;fill-opacity:1"/><path d="M520 152.852v74.062" style="fill:none;stroke-width:3.985;stroke-linecap:butt;stroke-linejoin:miter;stroke:#000;stroke-opacity:1;stroke-miterlimit:10" transform="matrix(.1 0 0 -.1 0 26)"/><use xlink:href="#b" x="50.681" y="17.443" style="fill:#000;fill-opacity:1"/><path d="M50.668 18.055h2.762v.48h-2.762zm0 0" style="stroke:none;fill-rule:nonzero;fill:#000;fill-opacity:1"/><use xlink:href="#g" x="50.681" y="22.604" style="fill:#000;fill-opacity:1"/><path d="M462.852 152.852v74.062" style="fill:none;stroke-width:3.985;stroke-linecap:butt;stroke-linejoin:miter;stroke:#000;stroke-opacity:1;stroke-miterlimit:10" transform="matrix(.1 0 0 -.1 0 26)"/><use xlink:href="#b" x="44.966" y="17.443" style="fill:#000;fill-opacity:1"/><path d="M44.953 18.055h2.762v.48h-2.762zm0 0" style="stroke:none;fill-rule:nonzero;fill:#000;fill-opacity:1"/><use xlink:href="#h" x="44.966" y="22.723" style="fill:#000;fill-opacity:1"/><path d="M420 152.852v74.062" style="fill:none;stroke-width:3.985;stroke-linecap:butt;stroke-linejoin:miter;stroke:#000;stroke-opacity:1;stroke-miterlimit:10" transform="matrix(.1 0 0 -.1 0 26)"/><use xlink:href="#b" x="40.68" y="17.443" style="fill:#000;fill-opacity:1"/><path d="M40.668 18.055h2.762v.48h-2.762zm0 0" style="stroke:none;fill-rule:nonzero;fill:#000;fill-opacity:1"/><use xlink:href="#i" x="40.68" y="22.604" style="fill:#000;fill-opacity:1"/><path d="M386.68 152.852v74.062M360 152.852v74.062m-21.836-74.062v74.062M320 152.852v74.062m-15.39-74.062v74.062m-13.165-74.062v74.062M280 152.852v74.062m-10-74.062v74.062m-8.828-74.062v74.062m-7.812-74.062v74.062m-7.032-74.062v74.062M240 152.852v74.062m-5.703-74.062v74.062m-5.195-74.062v74.062m-4.727-74.062v74.062M220 152.852v74.062m-3.984-74.062v74.062m-3.711-74.062v74.062m-3.399-74.062v74.062m-3.203-74.062v74.062m-2.93-74.062v74.062M200 152.852v74.062m-2.578-74.062v74.062M195 152.852v74.062m-2.266-74.062v74.062m-2.148-74.062v74.062m-2.031-74.062v74.062m-1.875-74.062v74.062m-1.797-74.062v74.062m-1.719-74.062v74.062m-1.641-74.062v74.062" style="fill:none;stroke-width:3.985;stroke-linecap:butt;stroke-linejoin:miter;stroke:#000;stroke-opacity:1;stroke-miterlimit:10" transform="matrix(.1 0 0 -.1 0 26)"/><use xlink:href="#j" x="22.92" y="19.243" style="fill:#000;fill-opacity:1"/><use xlink:href="#j" x="25.68" y="19.243" style="fill:#000;fill-opacity:1"/><use xlink:href="#j" x="28.56" y="19.243" style="fill:#000;fill-opacity:1"/><use xlink:href="#k" x="10.44" y="20.323" style="fill:#000;fill-opacity:1"/><path d="M120 152.852h60v74.062h-60zm0 0" style="fill-rule:nonzero;fill:#000;fill-opacity:1;stroke-width:1.2;stroke-linecap:butt;stroke-linejoin:miter;stroke:#000;stroke-opacity:1;stroke-miterlimit:10" transform="matrix(.1 0 0 -.1 0 26)"/></svg>