<svg xmlns="http://www.w3.org/2000/svg" xmlns:xlink="http://www.w3.org/1999/xlink" width="296" height="146pt" viewBox="0 0 222 146"><defs><symbol id="a" overflow="visible"><path d="m4.234-1.14-.093-.235-.188.125c-.86.563-1.312.766-1.734.766-.672 0-1.016-.47-1.016-1.422 0-1.266.406-2.5.984-2.953.25-.22.547-.313.938-.313.531 0 .969.219.969.516v.718h.265c.094-.78.188-1.218.297-1.53-.312-.204-.703-.298-1.156-.298-.531 0-1.39.422-2.063 1.016C.75-4.14.298-2.906.298-1.625c0 1.14.5 1.75 1.453 1.75.656 0 1.219-.234 1.89-.766zm0 0" style="stroke:none"/></symbol><symbol id="b" overflow="visible"><path d="m4.86-1.016-.094-.25c-.079.079-.094.079-.157.125-.375.329-.562.438-.734.438q-.188 0-.188-.281c0-.063 0-.094.016-.125l1.11-4.532-.125-.109-.391.219c-.469-.188-.703-.235-1.016-.235-.344 0-.578.063-.906.22-.75.374-1.125.734-1.438 1.312C.422-3.172.047-1.75.047-.781c0 .5.187.906.406.906.25 0 .688-.25 1.14-.625.516-.438.985-1 1.641-1.938L2.891-.921a3 3 0 0 0-.063.61c0 .28.094.437.281.437.266 0 .766-.328 1.75-1.14zM3.811-4.953c-.265 1.281-.484 1.906-.89 2.516-.656 1-1.406 1.734-1.797 1.734-.14 0-.219-.156-.219-.485 0-.765.313-2.093.735-3.078.28-.687.578-.906 1.156-.906.281 0 .5.047 1.015.219m0 0" style="stroke:none"/></symbol><symbol id="c" overflow="visible"><path d="M5.172-4.5c0-.453-.11-.922-.25-1.094-.078-.11-.234-.172-.422-.172-.281 0-.64.094-.969.266-.61.328-1.015.688-1.75 1.625l1.032-4.75-.141-.14c-.625.312-1.063.421-1.922.5l-.047.25h.578c.282 0 .407.093.407.296 0 .078-.016.219-.032.282L.453-.845c-.016.031-.016.078-.016.11 0 .468.579.859 1.235.859.437 0 1.047-.219 1.562-.594 1.157-.81 1.938-2.452 1.938-4.03m-.86.297c0 .766-.25 1.781-.609 2.562-.39.829-.875 1.204-1.515 1.204-.547 0-.844-.266-.844-.766 0-.297.047-.64.156-1.078.219-.953.516-1.531.984-2.031.391-.407 1.016-.75 1.36-.75.312 0 .469.265.469.859zm0 0" style="stroke:none"/></symbol></defs><path d="M40 371.602h2160.04" style="fill:none;stroke-width:3.985;stroke-linecap:butt;stroke-linejoin:miter;stroke:#000;stroke-opacity:1;stroke-miterlimit:10" transform="matrix(.1 0 0 -.1 0 146)"/><path d="M3.746 105.852h.602v6h-.602zm72.004 0h.602v6h-.602zm72 0h.602v6h-.602zm72 0h.602v6h-.602zm0 0" style="stroke:none;fill-rule:nonzero;fill:#000;fill-opacity:1"/><path d="M40 11.602v1440" style="fill:none;stroke-width:3.985;stroke-linecap:butt;stroke-linejoin:miter;stroke:#000;stroke-opacity:1;stroke-miterlimit:10" transform="matrix(.1 0 0 -.1 0 146)"/><path d="M.988 144.492h6v.602h-6zm0-36h6v.602h-6zm0-36h6v.602h-6zm0-36h6v.602h-6zm0-36.004h6v.602h-6zm0 0" style="stroke:none;fill-rule:nonzero;fill:#000;fill-opacity:1"/><path d="M244.96 1132.148H965" style="fill:none;stroke-width:3.985;stroke-linecap:butt;stroke-linejoin:miter;stroke:#000;stroke-opacity:1;stroke-miterlimit:10" transform="matrix(.1 0 0 -.1 0 146)"/><path d="M624.922 1132.148c0 11.016-8.906 19.922-19.922 19.922s-19.922-8.906-19.922-19.922 8.906-19.921 19.922-19.921 19.922 8.906 19.922 19.921zm0 0" style="fill-rule:nonzero;fill:#000;fill-opacity:1;stroke-width:3.985;stroke-linecap:butt;stroke-linejoin:miter;stroke:#000;stroke-opacity:1;stroke-miterlimit:10" transform="matrix(.1 0 0 -.1 0 146)"/><path d="M605 1132.148V1105m0-54.336v-27.148m0 0v-27.188m0-54.297v-27.187m0 0v-27.149m0-54.335v-27.15m0 0v-27.148m0-54.335v-27.188m0 .001v-27.15m0-54.335v-27.149m0 0v-27.148m0-54.336v-27.188m0 0v-27.148m0-54.336v-27.148" style="fill:none;stroke-width:3.985;stroke-linecap:butt;stroke-linejoin:miter;stroke:#000;stroke-opacity:1;stroke-miterlimit:10" transform="matrix(.1 0 0 -.1 0 146)"/><use xlink:href="#a" x="57.979" y="118.8" style="fill:#000;fill-opacity:1"/><use xlink:href="#b" x="8.441" y="118.8" style="fill:#000;fill-opacity:1"/><use xlink:href="#c" x="209.802" y="105.959" style="fill:#000;fill-opacity:1"/><path d="m40 371.602 53.984 152.03 54.024 132.696 54.023 114.258 53.985 96.758L310 947.46l53.984 64.453 54.024 49.649 54.023 35.82 53.985 22.812L580 1130.977l53.984-.352 54.024-10.547 54.023-19.922 53.985-28.281 53.984-35.82 54.023-42.383 53.985-48.008 54.023-52.812 53.985-56.641 54.023-59.61L1174.023 715l53.985-62.734 54.023-62.93 53.985-62.188 54.023-60.625 53.984-58.046 53.985-54.649 54.023-50.273 53.985-45 54.023-38.828 53.984-31.72 53.985-23.75 54.023-14.843 53.985-5.039 54.023 5.742 53.984 17.383 53.985 29.883 54.023 43.398 53.985 57.774 54.023 73.047" style="fill:none;stroke-width:7.9701;stroke-linecap:butt;stroke-linejoin:miter;stroke:#000;stroke-opacity:1;stroke-miterlimit:10" transform="matrix(.1 0 0 -.1 0 146)"/></svg>