<svg xmlns="http://www.w3.org/2000/svg" xmlns:xlink="http://www.w3.org/1999/xlink" width="218pt" height="146pt" viewBox="0 0 218 146"><defs><symbol id="a" overflow="visible"><path d="M3.031-7.531C1.516-6.547.594-4.828.594-2.688c0 1.954.953 3.813 2.406 4.813l.125-.172C1.75.75 1.5-.407 1.5-2.734c0-2.313.281-3.532 1.625-4.625zm0 0" style="stroke:none"/></symbol><symbol id="f" overflow="visible"><path d="m.422-7.531-.11.172c1.36 1.093 1.625 2.312 1.625 4.625C1.938-.406 1.704.75.313 1.953l.141.172c1.453-1 2.39-2.86 2.39-4.813 0-2.14-.905-3.859-2.421-4.843zm0 0" style="stroke:none"/></symbol><symbol id="b" overflow="visible"><path d="M4.469-.781 4.39-.984c-.36.312-.61.453-.766.453s-.281-.094-.39-.297a6 6 0 0 1-.25-.844l-.172-1.016.343-.484c.469-.64.735-.875 1.047-.875.156 0 .281.078.328.234l.14-.046.157-.844c-.125-.078-.219-.11-.297-.11-.406 0-.797.36-1.422 1.282l-.375.547-.046-.47c-.126-1-.391-1.358-.985-1.358-.25 0-.484.093-.562.218l-.579.828.172.094c.297-.328.485-.469.688-.469.328 0 .547.407.719 1.375l.109.625-.406.61c-.422.672-.766 1-1.047 1-.156 0-.266-.047-.28-.094l-.11-.281-.203.031c0 .203-.016.328-.078.64-.016.126-.031.157-.031.22a1 1 0 0 0 .422.124c.328 0 .718-.28 1.03-.75l.75-1.171.11.687c.14.844.36 1.234.719 1.234.219 0 .547-.171.86-.453zm0 0" style="stroke:none"/></symbol><symbol id="d" overflow="visible"><path d="m2.172-1.094-.14-.125c-.266.078-.454.14-.97.297C.985-.172.734.484.156 1.438l.14.109.407-.188C1.516.313 1.891-.312 2.172-1.094m0 0" style="stroke:none"/></symbol><symbol id="e" overflow="visible"><path d="m4.89-4.719-.109-.093a3 3 0 0 1-.75.203l-.343 1.312c-.126.469-.47 1.188-.797 1.688-.344.5-.844.937-1.063.937s-.187-.469-.187-.61l.156-1.921c.016-.313.031-.688.031-.969 0-.453-.062-.64-.234-.64-.125 0-.266.078-.75.406l-.813.562.11.172.5-.297c.046-.031.171-.125.25-.125.25 0 .218.516.203.672L.922-1v.406c-.016.422.172.703.422.703.375 0 1.203-.843 1.953-1.968L2.812-.156C2.297 1.609 1.798 2.328 1.11 2.328a.604.604 0 0 1-.625-.61c0-.046.016-.14.032-.218l-.11-.047-.469.344c-.015.062-.015.125-.015.172 0 .437.375.781.812.781 1.063 0 2.157-1.234 2.75-3.078zm0 0" style="stroke:none"/></symbol><symbol id="c" overflow="visible"><path d="M3.375-2.656C3.375-4.25 2.906-5 1.906-5 .781-5 .203-4.11.203-2.36c0 .86.156 1.594.422 1.938.25.36.656.563 1.11.563 1.093 0 1.64-.938 1.64-2.797m-.61.36c0 1.546-.28 2.187-.937 2.187-.703 0-1-.735-1-2.5 0-1.547.266-2.141.953-2.141.703 0 .985.703.985 2.453zm0 0" style="stroke:none"/></symbol></defs><path d="M163.281 215.781 216.72 95.43m-56.564 283.398 59.688-117.305M156.29 541.29l67.42-113.087m-72.108 274.61 76.796-106.954m-82.5 266.875 88.243-97.695m-95.001 255.234 101.72-83.593m-108.907 237.422 116.094-62.149m-121.914 211.641 127.734-31.953m84.18-1078.477 63.945-115.117m-67.344 277.656 70.704-111.055M330.664 537.54l78.672-105.587M326.055 698.32l87.93-98.008M320.742 857.54l98.555-87.306M315 1014.61l110-72.305m-115.508 226.679 121.016-51.875m-125.039 203.438 129.101-25.82m76.25-1086.211 78.36-105.82M507.422 370.39l85.195-100.43m-88.984 261.485 92.773-93.398m-96.914 253.476 101.016-84.414M495.156 850.313l109.688-72.852m-113.906 230.117 118.125-58.203m-121.719 213.828 125.312-40.312m-127.773 194.492 130.234-19.531m65.938-1098.204 97.89-88.085M678.242 360.86l103.516-81.368M675.352 521.445l109.336-73.398M672.5 681.367l115-64.062M669.805 840.547l120.39-53.32M667.46 999.023l125.08-41.093m-126.915 198.906 128.75-27.578M664.531 1314.18l130.977-13.125M849.96 182.617l120.08-54.023M848.75 344.258l122.54-48.164M847.617 505.703l124.805-41.914m-125.82 203.203 126.836-35.351M845.742 828.125l128.555-28.477M845.04 989.14l129.92-21.327m-130.39 182.265 130.899-14.062m-131.211 174.882 131.484-6.562m48.438-1148.75h131.68m-131.68 164.609h131.68m-131.68 164.571h131.68m-131.68 164.57h131.68m-131.68 164.57h131.68m-131.68 164.571h131.68m-131.68 164.57h131.68m-131.68 164.57h131.68m54.1-1179.023 120.08 54.023m-121.29 113.477 122.54 48.164M1207.617 463.79l124.805 41.913m-125.82 125.937 126.835 35.352m-127.695 132.656 128.555 28.477M1205.04 967.813l129.92 21.328m-130.39 146.875 130.899 14.062m-131.211 154.258 131.484 6.562m65.352-1199.335 97.851 88.085m-100.703 79.844 103.555 81.367m-106.445 87.188 109.335 73.398m-112.147 95.86 115 64.062m-117.735 105.86 120.39 53.32M1387.46 957.93l125.08 41.093m-126.876 130.235 128.711 27.578m-129.844 144.219 130.977 13.125m75.352-1211.485 78.359 105.82m-81.797 61.445 85.195 100.43m-88.984 67.657 92.773 93.398m-96.914 75.665 101.055 84.413m-105.352 85.937 109.649 72.852m-113.867 99.063 118.085 58.203m-121.718 115.312 125.351 40.313m-127.773 134.649 130.195 19.53m82.93-1219.335 63.945 115.117m-67.304 51.484 70.664 111.055m-74.649 56.25 78.633 105.586m-83.281 62.774 87.93 98.007m-93.243 71.914 98.555 87.305M1755 942.305l110.04 72.304m-115.548 102.501 121.055 51.874m-125.078 125.743 129.101 25.82M1963.281 95.43l53.477 120.351m-56.602 45.742 59.727 117.305m-63.555 49.375 67.383 113.086m-72.071 54.571 76.758 106.952m-82.5 62.228 88.243 97.694m-95.001 73.946 101.758 83.593m-108.906 91.68 116.055 62.149m-121.875 117.538 127.734 31.954" style="fill:none;stroke-width:3.985;stroke-linecap:butt;stroke-linejoin:miter;stroke:#7f7f7f;stroke-opacity:1;stroke-miterlimit:10" transform="matrix(.1 0 0 -.1 0 146)"/><path d="M370 731.602h1440.04" style="fill:none;stroke-width:3.985;stroke-linecap:butt;stroke-linejoin:miter;stroke:#000;stroke-opacity:1;stroke-miterlimit:10" transform="matrix(.1 0 0 -.1 0 146)"/><path d="M36.746 72.852h.602v6h-.602zm72.004 0h.602v6h-.602zm72 0h.602v6h-.602zm0 0" style="stroke:none;fill-rule:nonzero;fill:#000;fill-opacity:1"/><path d="M10 731.602h2160.04m-1080-720v1440" style="fill:none;stroke-width:3.985;stroke-linecap:butt;stroke-linejoin:miter;stroke:#000;stroke-opacity:1;stroke-miterlimit:10" transform="matrix(.1 0 0 -.1 0 146)"/><path d="M102.988 144.492h6v.602h-6zm0-72h6v.602h-6zm0-72.004h6v.602h-6zm0 0" style="stroke:none;fill-rule:nonzero;fill:#000;fill-opacity:1"/><path d="M1824.96 947.617c0 8.242-6.679 14.922-14.92 14.922-8.282 0-14.962-6.68-14.962-14.922s6.68-14.96 14.961-14.96c8.242 0 14.922 6.718 14.922 14.96zm0 0" style="fill-rule:nonzero;fill:#000;fill-opacity:1;stroke-width:3.985;stroke-linecap:butt;stroke-linejoin:miter;stroke:#000;stroke-opacity:1;stroke-miterlimit:10" transform="matrix(.1 0 0 -.1 0 146)"/><use xlink:href="#a" x="150.042" y="45.668" style="fill:#000;fill-opacity:1"/><use xlink:href="#b" x="153.762" y="45.668" style="fill:#000;fill-opacity:1"/><use xlink:href="#c" x="159.042" y="47.108" style="fill:#000;fill-opacity:1"/><use xlink:href="#d" x="163.482" y="45.668" style="fill:#000;fill-opacity:1"/><use xlink:href="#e" x="168.402" y="45.668" style="fill:#000;fill-opacity:1"/><use xlink:href="#c" x="173.562" y="47.108" style="fill:#000;fill-opacity:1"/><use xlink:href="#f" x="177.522" y="45.668" style="fill:#000;fill-opacity:1"/><path d="m10 1181.836 43.203-24.883 43.203-25.976 43.203-27.07 43.203-28.009 43.204-28.75 43.164-29.414 43.203-29.882 43.203-30.157 43.203-30.234 43.242-30.078 43.164-29.688 43.203-29.101 43.204-28.203 43.203-27.11 43.203-25.742 43.203-24.14 43.203-22.344 43.203-20.235 43.203-18.008 43.203-15.585 43.204-12.97 43.203-10.273 43.203-7.382 43.203-4.454 43.203-1.484 43.164 1.484 43.203 4.454 43.203 7.382 43.204 10.274 43.203 12.969 43.203 15.586 43.203 18.007 43.203 20.235 43.203 22.343 43.203 24.141 43.203 25.742 43.204 27.11 43.164 28.203 43.203 29.101 43.203 29.688 43.203 30.078 43.203 30.234 43.203 30.157 43.203 29.882 43.203 29.414 43.204 28.75 43.203 28.008 43.203 27.07 43.203 25.977 43.203 24.883" style="fill:none;stroke-width:7.9701;stroke-linecap:butt;stroke-linejoin:miter;stroke:#000;stroke-opacity:1;stroke-miterlimit:10" transform="matrix(.1 0 0 -.1 0 146)"/></svg>