<svg xmlns="http://www.w3.org/2000/svg" xmlns:xlink="http://www.w3.org/1999/xlink" width="536" height="236" viewBox="0 0 402 177"><defs><symbol id="a" overflow="visible"><path d="M3.234.031v-.36l-.546-.03c-.407-.016-.438-.11-.438-.86v-7.36l-.11-.093c-.53.203-.921.297-1.859.438v.328h.656c.22 0 .313.14.313.5v6.187c0 .75-.047.844-.453.86L.25-.33v.36c.5-.014 1-.03 1.5-.03s.984.016 1.484.031m0 0" style="stroke:none"/></symbol><symbol id="b" overflow="visible"><path d="M3.234.031v-.36l-.546-.03c-.407-.016-.438-.11-.438-.86v-4.343l-.11-.047a7.3 7.3 0 0 1-1.859.5v.328H.72c.469 0 .531.078.531.875v2.687c0 .75-.047.844-.453.86L.25-.33v.36c.5-.014 1-.03 1.5-.03s.984.016 1.484.031m-.89-7.64c0-.344-.235-.61-.594-.61-.36 0-.61.25-.61.61 0 .359.25.593.61.593s.594-.234.594-.593m0 0" style="stroke:none"/></symbol><symbol id="c" overflow="visible"><path d="M10.39.031v-.36l-.562-.03c-.406-.016-.437-.11-.437-.86v-2.468c0-1.172-.704-1.922-1.797-1.922-.422 0-.766.109-.985.296l-.906.813C5.313-5.281 4.828-5.61 4-5.61c-.438 0-.766.11-.984.298l-.829.765v-1.016l-.109-.046c-.61.25-1.234.421-1.86.5v.328h.438c.485 0 .531.078.531.875v2.687c0 .75-.046.844-.453.86l-.546.03v.36A49 49 0 0 1 1.702 0c.484 0 .953.016 1.422.031v-.36l-.5-.03c-.406-.016-.438-.11-.438-.86V-3.75c0-.547.782-1.125 1.5-1.125.657 0 1.094.61 1.094 1.516v2.14c0 .75-.031.844-.437.86l-.547.03v.36C4.297.016 4.78 0 5.28 0s1 .016 1.5.031v-.36l-.547-.03c-.406-.016-.453-.11-.453-.86V-3.75c0-.547.797-1.125 1.516-1.125.64 0 1.078.61 1.078 1.516V.03c.314-.014.641-.03.954-.03.36 0 .703.016 1.063.031zm0 0" style="stroke:none"/></symbol><symbol id="d" overflow="visible"><path d="M4.672-1.766c0-.375-.094-.656-.328-.89-.313-.313-.703-.438-1.766-.64-.969-.188-1.297-.438-1.297-.985 0-.594.422-.938 1.14-.938.813 0 1.423.422 1.423.985v.28h.328c.016-.702.031-.983.062-1.358-.64-.204-1.062-.297-1.562-.297-1.375 0-2.235.656-2.235 1.734 0 .578.266.984.813 1.234.328.141.969.329 1.781.516.531.11.766.375.766.828 0 .64-.61 1.094-1.453 1.094-.875 0-1.5-.422-1.5-1.016v-.484h-.36C.484-.891.454-.531.36-.047.984.156 1.453.234 2 .234c1.563 0 2.672-.828 2.672-2m0 0" style="stroke:none"/></symbol><symbol id="e" overflow="visible"><path d="M6.938.031v-.36l-.485-.03c-.406-.016-.437-.094-.437-.86v-4.343l-.11-.047c-.61.25-1.234.421-1.86.5v.328h.438c.47 0 .532.078.532.875v1.953c0 .25-.172.594-.454.86a1.57 1.57 0 0 1-1.187.515c-.406 0-.75-.14-.938-.36-.171-.203-.25-.562-.25-1.093v-3.531l-.109-.047c-.61.25-1.234.421-1.86.5v.328h.438c.485 0 .531.078.531.875v2c0 .843.063 1.218.282 1.515.265.36.718.532 1.406.532.531 0 1.016-.172 1.328-.47l.813-.734c0 .344-.016.532-.063 1.094.344-.015.672-.031 1-.031s.656.016.984.031zm0 0" style="stroke:none"/></symbol><symbol id="f" overflow="visible"><path d="M6.625-3.234c0-1.329-1.11-2.375-2.484-2.375-.454 0-.875.125-1.063.296l-.984.907v-1.157l-.11-.046a7.3 7.3 0 0 1-1.859.5v.328h.438c.484 0 .53.078.53.875v6.015c0 .75-.046.829-.452.86L.094 3v.36c.5-.032 1-.032 1.5-.032s.984 0 1.484.031V3l-.547-.031c-.406-.031-.437-.11-.437-.86V-.156c.36.218.734.297 1.281.297.344 0 .656-.063.844-.188l1.36-.89c.484-.313 1.046-1.532 1.046-2.297m-1.047.437c0 1.344-.797 2.328-1.875 2.328-.656 0-1.14-.219-1.61-.703v-2.484c0-.172.063-.297.22-.5.343-.453.828-.672 1.421-.672 1.125 0 1.844.781 1.844 2.031m0 0" style="stroke:none"/></symbol><symbol id="k" overflow="visible"><path d="M6.844.031v-.36l-.5-.03c-.407-.016-.438-.094-.438-.86V-3.53c0-1.39-.656-2.078-2-2.078-.437 0-.687.093-.937.296l-.906.797v-1.046l-.11-.047c-.61.25-1.234.421-1.875.5v.328h.453c.469 0 .516.078.516.875v2.687c0 .75-.031.844-.438.86l-.53.03v.36C.561.016 1.062 0 1.546 0c.5 0 1 .016 1.484.031v-.36L2.5-.358c-.406-.016-.438-.11-.438-.86V-3.75c0-.547.782-1.125 1.516-1.125.797 0 1.328.594 1.328 1.516V.03C5.22.016 5.531 0 5.844 0c.343 0 .656.016 1 .031m0 0" style="stroke:none"/></symbol><symbol id="l" overflow="visible"><path d="M4.078-7.656v-.922c-.25-.094-.39-.125-.547-.125-.39 0-.812.203-1.062.5l-.703.797c-.344.39-.5.922-.5 1.718v.5l-.829.375v.266l.829-.062v3.39c0 .75-.032.844-.438.86l-.547.03v.36C.781.016 1.266 0 1.766 0s1 .016 1.5.031v-.36l-.547-.03c-.406-.016-.453-.11-.453-.86v-3.39H3.75l.094-.625c-.531.03-1.047.046-1.578.046v-1.015c0-1.375.156-1.703.843-1.703.329 0 .532.078.829.328zm0 0" style="stroke:none"/></symbol><symbol id="g" overflow="visible"><path d="m4.5-.75-.078-.156-.234.156c-.25.156-.438.266-.532.266-.062 0-.11-.079-.11-.188 0-.031 0-.14.017-.172l.578-2.422c.062-.25.093-.5.093-.64 0-.203-.093-.313-.265-.313-.375 0-.985.328-1.5.813-.328.297-.578.594-1.031 1.234l.328-1.406a1.3 1.3 0 0 0 .062-.36c0-.187-.078-.28-.203-.28-.188 0-.531.187-1.172.64l-.25.172.063.187.28-.187c.329-.219.36-.219.423-.219.094 0 .156.078.156.219 0 .437-.36 2.14-.719 3.39L.47.078a6 6 0 0 1 .61-.14c.171-1.11.359-1.688.75-2.282.484-.734 1.14-1.281 1.53-1.281.094 0 .141.078.141.203 0 .156-.016.344-.094.625l-.453 1.86c-.078.328-.11.53-.11.671 0 .22.095.344.266.344.22 0 .532-.187 1.391-.828zm0 0" style="stroke:none"/></symbol><symbol id="h" overflow="visible"><path d="M8.875-2.39 7.062-4.267l-.28.297 1.093 1.344H.562v.516h7.313L6.781-.781l.282.297zm0 0" style="stroke:none"/></symbol><symbol id="i" overflow="visible"><path d="M7.39-2.484c0-.844-.452-1.563-1.374-1.563-.75 0-1.5.734-1.954 1.281-.39-.625-1.14-1.296-1.921-1.296-1.016 0-1.657.984-1.657 1.921 0 .844.47 1.563 1.375 1.563.735 0 1.547-.75 1.97-1.313.421.641 1.093 1.329 1.905 1.329 1.032 0 1.657-1 1.657-1.922zm-.53.421c0 .61-.298 1.11-.954 1.11-.703 0-1.328-1.031-1.687-1.531.281-.422 1.015-1.094 1.531-1.094.734 0 1.11.89 1.11 1.515M3.655-2.14c-.265.407-1.015 1.079-1.531 1.079-.734 0-1.094-.907-1.094-1.532 0-.61.313-1.125.969-1.125.625 0 1.39 1.047 1.656 1.578m0 0" style="stroke:none"/></symbol><symbol id="j" overflow="visible"><path d="m5.36-.938-.094-.234c-.438.36-.735.531-.922.531C4.156-.64 4-.75 3.89-.984a4.8 4.8 0 0 1-.313-1.032l-.203-1.203.422-.578c.547-.781.875-1.062 1.25-1.062.187 0 .328.109.39.28l.172-.046.172-1.016c-.14-.078-.25-.125-.36-.125-.468 0-.952.438-1.687 1.532l-.453.656-.062-.563c-.14-1.187-.469-1.625-1.172-1.625-.313 0-.578.094-.688.25l-.687 1 .203.11c.36-.407.594-.563.828-.563.39 0 .656.485.86 1.657l.124.75-.468.734C1.703-1.031 1.297-.641.953-.641.781-.64.641-.687.625-.75l-.14-.344-.235.047c0 .234-.016.39-.094.766-.031.156-.031.187-.047.265.172.094.375.141.516.141.39 0 .86-.344 1.234-.906l.907-1.39.125.827C3.062-.328 3.328.125 3.75.125c.266 0 .656-.203 1.031-.547zm0 0" style="stroke:none"/></symbol><symbol id="m" overflow="visible"><path d="M5.922-3.234 3.219-6.031.53-3.234 3.22-.438zm-.766 0L3.22-1.188 1.297-3.233l1.922-2.032zm0 0" style="stroke:none"/></symbol></defs><path d="M671.445 1129.844h29.844m59.609 0h29.844m0 0h29.805m59.648 0h29.844m.001 0h29.804m59.609 0h29.844m0 0h29.805m59.648 0h29.844m0 0h29.804m59.649 0h29.805m0 0h29.843m59.649 0h29.804m0 0h29.844m59.61 0h29.843m0 0h29.844m59.609 0h29.844m0 0h29.805m59.648 0h29.844m.001 0h29.804m59.648 0h29.805m0 0h29.844m59.649 0h29.804m0 0h29.843m59.649 0h29.805m-.001 0h29.805m59.649 0h29.843m.001 0h29.804m59.648 0h29.805m0 0h29.844m59.649 0h29.804m0 0h29.844m59.609 0h29.844m.001 0h29.804m59.648 0h29.844m0 0h29.805m59.649 0h29.804m0 0h29.843m59.649 0h29.805m-.001 0h29.844m59.61 0h29.843m.001 0h29.804m59.648 0h29.844m0 0h29.805m59.649 0h29.804m0 0h29.844m59.648 0h29.805m.001 0h29.804m59.648 0h29.844m0 0h29.805m59.649 0h29.804m0 0h29.843m59.649 0h29.805m-.001 0h29.844m59.649 0h29.805M671.445 721.25h29.844m59.609 0h29.844m0 0h29.805m59.648 0h29.844m.001 0h29.804m59.609 0h29.844m0 0h29.805m59.648 0h29.844m0 0h29.804m59.649 0h29.805m0 0h29.843m59.649 0h29.804m0 0h29.844m59.61 0h29.843m0 0h29.844m59.609 0h29.844m0 0h29.805m59.648 0h29.844m.001 0h29.804m59.648 0h29.805m0 0h29.844m59.649 0h29.804m0 0h29.843m59.649 0h29.805m-.001 0h29.805m59.649 0h29.843m.001 0h29.804m59.648 0h29.805m0 0h29.844m59.649 0h29.804m0 0h29.844m59.609 0h29.844m.001 0h29.804m59.648 0h29.844m0 0h29.805m59.649 0h29.804m0 0h29.843m59.649 0h29.805m-.001 0h29.844m59.61 0h29.843m.001 0h29.804m59.648 0h29.844m0 0h29.805m59.649 0h29.804m0 0h29.844m59.648 0h29.805m.001 0h29.804m59.648 0h29.844m0 0h29.805m59.649 0h29.804m0 0h29.843m59.649 0h29.805m-.001 0h29.844m59.649 0h29.805" style="fill:none;stroke-width:3.985;stroke-linecap:butt;stroke-linejoin:miter;stroke:#000;stroke-opacity:1;stroke-miterlimit:10" transform="matrix(.1 0 0 -.1 0 177)"/><use xlink:href="#a" x="6.482" y="62.214" style="fill:#000;fill-opacity:1"/><use xlink:href="#b" x="9.962" y="62.214" style="fill:#000;fill-opacity:1"/><use xlink:href="#c" x="13.442" y="62.214" style="fill:#000;fill-opacity:1"/><use xlink:href="#d" x="26.043" y="62.214" style="fill:#000;fill-opacity:1"/><use xlink:href="#e" x="31.082" y="62.214" style="fill:#000;fill-opacity:1"/><use xlink:href="#f" x="38.282" y="62.214" style="fill:#000;fill-opacity:1"/><use xlink:href="#g" x="14.762" y="73.134" style="fill:#000;fill-opacity:1"/><use xlink:href="#h" x="20.042" y="73.134" style="fill:#000;fill-opacity:1"/><use xlink:href="#i" x="29.522" y="73.134" style="fill:#000;fill-opacity:1"/><use xlink:href="#j" x="49.802" y="62.214" style="fill:#000;fill-opacity:1"/><use xlink:href="#g" x="56.282" y="64.014" style="fill:#000;fill-opacity:1"/><use xlink:href="#a" x="11.522" y="104.755" style="fill:#000;fill-opacity:1"/><use xlink:href="#b" x="15.002" y="104.755" style="fill:#000;fill-opacity:1"/><use xlink:href="#c" x="18.482" y="104.755" style="fill:#000;fill-opacity:1"/><use xlink:href="#b" x="31.082" y="104.755" style="fill:#000;fill-opacity:1"/><use xlink:href="#k" x="34.563" y="104.755" style="fill:#000;fill-opacity:1"/><use xlink:href="#l" x="41.523" y="104.755" style="fill:#000;fill-opacity:1"/><use xlink:href="#g" x="17.162" y="112.435" style="fill:#000;fill-opacity:1"/><use xlink:href="#h" x="22.442" y="112.435" style="fill:#000;fill-opacity:1"/><use xlink:href="#i" x="31.922" y="112.435" style="fill:#000;fill-opacity:1"/><use xlink:href="#j" x="49.802" y="104.755" style="fill:#000;fill-opacity:1"/><use xlink:href="#g" x="56.282" y="106.555" style="fill:#000;fill-opacity:1"/><path d="M677.852 115.898h3214.336" style="fill:none;stroke-width:3.985;stroke-linecap:butt;stroke-linejoin:miter;stroke:#000;stroke-opacity:1;stroke-miterlimit:10" transform="matrix(.1 0 0 -.1 0 177)"/><path d="M67.535 162.422h.602v6h-.602zm6.43 0h.601v6h-.601zm6.425 0h.602v6h-.601zm6.43 0h.602v6h-.602zm6.43 0h.602v6h-.602zm6.43 0h.601v6h-.601zm6.425 0h.602v6h-.602zm6.43 0h.602v6h-.602zm6.43 0h.601v6h-.601zm6.425 0h.602v6h-.601zm6.43 0h.602v6h-.602zm6.43 0h.602v6h-.602zm6.43 0h.601v6h-.601zm6.425 0h.602v6h-.602zm6.43 0h.602v6h-.602zm6.43 0h.601v6h-.601zm6.43 0h.601v6h-.601zm6.425 0h.602v6h-.602zm6.43 0h.602v6h-.602zm6.43 0h.601v6h-.601zm6.43 0h.6v6h-.6zm6.425 0h.602v6h-.602zm6.43 0h.601v6h-.601zm6.43 0h.601v6h-.601zm6.425 0h.602v6h-.602zm6.43 0h.602v6h-.602zm6.43 0h.601v6h-.601zm6.43 0h.6v6h-.6zm6.425 0h.602v6h-.602zm6.43 0h.601v6h-.601zm6.43 0h.601v6h-.601zm6.425 0h.602v6h-.602zm6.43 0h.602v6h-.602zm6.43 0h.601v6h-.601zm6.43 0h.6v6h-.6zm6.425 0h.602v6h-.602zm6.43 0h.601v6h-.601zm6.43 0h.601v6h-.601zm6.429 0h.602v6h-.602zm6.43 0h.601v6h-.601zm6.426 0h.601v6h-.601zm6.43 0h.6v6h-.6zm6.43 0h.6v6h-.6zm6.429 0h.601v6h-.601zm6.426 0h.601v6h-.601zm6.429 0h.602v6h-.602zm6.43 0h.601v6h-.601zm6.43 0h.601v6h-.601zm6.426 0h.6v6h-.6zm6.43 0h.6v6h-.6zm6.429 0h.601v6h-.601zm0 0" style="stroke:none;fill-rule:nonzero;fill:#000;fill-opacity:1"/><path d="M677.852 115.898v1645.704" style="fill:none;stroke-width:3.985;stroke-linecap:butt;stroke-linejoin:miter;stroke:#000;stroke-opacity:1;stroke-miterlimit:10" transform="matrix(.1 0 0 -.1 0 177)"/><path d="M64.773 165.063h6v.601h-6zm0-82.286h6v.602h-6zm0-82.289h6v.602h-6zm0 0" style="stroke:none;fill-rule:nonzero;fill:#000;fill-opacity:1"/><path d="M749.648 1481.992c0 4.14-3.359 7.5-7.5 7.5-4.101 0-7.46-3.36-7.46-7.5 0-4.101 3.359-7.46 7.46-7.46 4.141 0 7.5 3.359 7.5 7.46zm0 0" style="fill-rule:nonzero;fill:#000;fill-opacity:1;stroke-width:3.985;stroke-linecap:butt;stroke-linejoin:miter;stroke:#000;stroke-opacity:1;stroke-miterlimit:10" transform="matrix(.1 0 0 -.1 0 177)"/><path d="M757.11 1633.594c0 8.281-6.72 14.96-14.962 14.96s-14.921-6.679-14.921-14.96c0-8.242 6.68-14.922 14.921-14.922 8.243 0 14.961 6.68 14.961 14.922zm0 0" style="fill:none;stroke-width:3.985;stroke-linecap:butt;stroke-linejoin:miter;stroke:#000;stroke-opacity:1;stroke-miterlimit:10" transform="matrix(.1 0 0 -.1 0 177)"/><use xlink:href="#m" x="70.975" y="164.519" style="fill:#000;fill-opacity:1"/><path d="M813.906 789.063c0 4.101-3.36 7.46-7.46 7.46-4.141 0-7.5-3.359-7.5-7.46 0-4.141 3.359-7.5 7.5-7.5 4.1 0 7.46 3.359 7.46 7.5zm0 0" style="fill-rule:nonzero;fill:#000;fill-opacity:1;stroke-width:3.985;stroke-linecap:butt;stroke-linejoin:miter;stroke:#000;stroke-opacity:1;stroke-miterlimit:10" transform="matrix(.1 0 0 -.1 0 177)"/><path d="M821.367 1633.594c0 8.281-6.68 14.96-14.922 14.96-8.28 0-14.96-6.679-14.96-14.96 0-8.242 6.68-14.922 14.96-14.922 8.242 0 14.922 6.68 14.922 14.922zm0 0" style="fill:none;stroke-width:3.985;stroke-linecap:butt;stroke-linejoin:miter;stroke:#000;stroke-opacity:1;stroke-miterlimit:10" transform="matrix(.1 0 0 -.1 0 177)"/><use xlink:href="#m" x="77.404" y="164.519" style="fill:#000;fill-opacity:1"/><path d="M878.203 497.305c0 4.14-3.36 7.46-7.5 7.46-4.101 0-7.46-3.32-7.46-7.46a7.46 7.46 0 0 1 7.46-7.461c4.14 0 7.5 3.32 7.5 7.46zm0 0" style="fill-rule:nonzero;fill:#000;fill-opacity:1;stroke-width:3.985;stroke-linecap:butt;stroke-linejoin:miter;stroke:#000;stroke-opacity:1;stroke-miterlimit:10" transform="matrix(.1 0 0 -.1 0 177)"/><path d="M885.664 1633.594c0 8.281-6.68 14.96-14.96 14.96-8.243 0-14.923-6.679-14.923-14.96 0-8.242 6.68-14.922 14.922-14.922 8.281 0 14.961 6.68 14.961 14.922zm0 0" style="fill:none;stroke-width:3.985;stroke-linecap:butt;stroke-linejoin:miter;stroke:#000;stroke-opacity:1;stroke-miterlimit:10" transform="matrix(.1 0 0 -.1 0 177)"/><use xlink:href="#m" x="83.832" y="164.519" style="fill:#000;fill-opacity:1"/><path d="M942.46 1633.594c0 4.14-3.32 7.5-7.46 7.5-4.102 0-7.46-3.36-7.46-7.5 0-4.102 3.358-7.461 7.46-7.461 4.14 0 7.46 3.36 7.46 7.46zm0 0" style="fill-rule:nonzero;fill:#000;fill-opacity:1;stroke-width:3.985;stroke-linecap:butt;stroke-linejoin:miter;stroke:#000;stroke-opacity:1;stroke-miterlimit:10" transform="matrix(.1 0 0 -.1 0 177)"/><path d="M949.96 1633.594c0 8.281-6.679 14.96-14.96 14.96-8.242 0-14.922-6.679-14.922-14.96 0-8.242 6.68-14.922 14.922-14.922 8.281 0 14.96 6.68 14.96 14.922zm0 0" style="fill:none;stroke-width:3.985;stroke-linecap:butt;stroke-linejoin:miter;stroke:#000;stroke-opacity:1;stroke-miterlimit:10" transform="matrix(.1 0 0 -.1 0 177)"/><use xlink:href="#m" x="90.261" y="164.519" style="fill:#000;fill-opacity:1"/><path d="M1006.797 996.602c0 4.101-3.36 7.46-7.5 7.46-4.102 0-7.461-3.359-7.461-7.46 0-4.141 3.36-7.5 7.46-7.5 4.141 0 7.5 3.359 7.5 7.5zm0 0" style="fill-rule:nonzero;fill:#000;fill-opacity:1;stroke-width:3.985;stroke-linecap:butt;stroke-linejoin:miter;stroke:#000;stroke-opacity:1;stroke-miterlimit:10" transform="matrix(.1 0 0 -.1 0 177)"/><path d="M1014.258 1546.875c0 8.242-6.68 14.922-14.961 14.922-8.242 0-14.922-6.68-14.922-14.922 0-8.281 6.68-14.96 14.922-14.96 8.281 0 14.96 6.679 14.96 14.96zm0 0" style="fill:none;stroke-width:3.985;stroke-linecap:butt;stroke-linejoin:miter;stroke:#000;stroke-opacity:1;stroke-miterlimit:10" transform="matrix(.1 0 0 -.1 0 177)"/><use xlink:href="#m" x="96.691" y="164.519" style="fill:#000;fill-opacity:1"/><path d="M1071.055 233.633c0 4.14-3.36 7.46-7.461 7.46a7.435 7.435 0 0 1-7.461-7.46c0-4.102 3.32-7.461 7.46-7.461 4.102 0 7.462 3.36 7.462 7.46zm0 0" style="fill-rule:nonzero;fill:#000;fill-opacity:1;stroke-width:3.985;stroke-linecap:butt;stroke-linejoin:miter;stroke:#000;stroke-opacity:1;stroke-miterlimit:10" transform="matrix(.1 0 0 -.1 0 177)"/><path d="M1078.516 1546.875c0 8.242-6.68 14.922-14.922 14.922s-14.961-6.68-14.961-14.922c0-8.281 6.719-14.96 14.96-14.96 8.243 0 14.923 6.679 14.923 14.96zm0 0" style="fill:none;stroke-width:3.985;stroke-linecap:butt;stroke-linejoin:miter;stroke:#000;stroke-opacity:1;stroke-miterlimit:10" transform="matrix(.1 0 0 -.1 0 177)"/><use xlink:href="#m" x="103.119" y="164.519" style="fill:#000;fill-opacity:1"/><path d="M1135.352 159.297c0 4.14-3.36 7.46-7.5 7.46-4.102 0-7.461-3.32-7.461-7.46a7.46 7.46 0 0 1 7.46-7.461c4.141 0 7.5 3.32 7.5 7.46zm0 0" style="fill-rule:nonzero;fill:#000;fill-opacity:1;stroke-width:3.985;stroke-linecap:butt;stroke-linejoin:miter;stroke:#000;stroke-opacity:1;stroke-miterlimit:10" transform="matrix(.1 0 0 -.1 0 177)"/><path d="M1142.813 1546.875c0 8.242-6.68 14.922-14.961 14.922-8.243 0-14.922-6.68-14.922-14.922 0-8.281 6.68-14.96 14.922-14.96 8.28 0 14.96 6.679 14.96 14.96zm0 0" style="fill:none;stroke-width:3.985;stroke-linecap:butt;stroke-linejoin:miter;stroke:#000;stroke-opacity:1;stroke-miterlimit:10" transform="matrix(.1 0 0 -.1 0 177)"/><use xlink:href="#m" x="109.547" y="164.519" style="fill:#000;fill-opacity:1"/><path d="M1199.648 529.063c0 4.14-3.359 7.5-7.5 7.5-4.101 0-7.46-3.36-7.46-7.5 0-4.102 3.359-7.461 7.46-7.461 4.141 0 7.5 3.359 7.5 7.46zm0 0" style="fill-rule:nonzero;fill:#000;fill-opacity:1;stroke-width:3.985;stroke-linecap:butt;stroke-linejoin:miter;stroke:#000;stroke-opacity:1;stroke-miterlimit:10" transform="matrix(.1 0 0 -.1 0 177)"/><path d="M1207.11 1546.875c0 8.242-6.72 14.922-14.962 14.922s-14.921-6.68-14.921-14.922c0-8.281 6.68-14.96 14.921-14.96 8.243 0 14.961 6.679 14.961 14.96zm0 0" style="fill:none;stroke-width:3.985;stroke-linecap:butt;stroke-linejoin:miter;stroke:#000;stroke-opacity:1;stroke-miterlimit:10" transform="matrix(.1 0 0 -.1 0 177)"/><use xlink:href="#m" x="115.976" y="154.041" style="fill:#000;fill-opacity:1"/><path d="M1263.906 1251.133c0 4.14-3.32 7.5-7.46 7.5s-7.462-3.36-7.462-7.5c0-4.102 3.32-7.461 7.461-7.461 4.14 0 7.461 3.36 7.461 7.46zm0 0" style="fill-rule:nonzero;fill:#000;fill-opacity:1;stroke-width:3.985;stroke-linecap:butt;stroke-linejoin:miter;stroke:#000;stroke-opacity:1;stroke-miterlimit:10" transform="matrix(.1 0 0 -.1 0 177)"/><path d="M1271.406 1546.875c0 8.242-6.718 14.922-14.96 14.922s-14.962-6.68-14.962-14.922c0-8.281 6.72-14.96 14.961-14.96 8.243 0 14.961 6.679 14.961 14.96zm0 0" style="fill:none;stroke-width:3.985;stroke-linecap:butt;stroke-linejoin:miter;stroke:#000;stroke-opacity:1;stroke-miterlimit:10" transform="matrix(.1 0 0 -.1 0 177)"/><use xlink:href="#m" x="122.404" y="154.041" style="fill:#000;fill-opacity:1"/><path d="M1328.203 386.64c0 4.141-3.36 7.5-7.46 7.5a7.5 7.5 0 0 1-7.5-7.5c0-4.1 3.359-7.46 7.5-7.46 4.1 0 7.46 3.36 7.46 7.46zm0 0" style="fill-rule:nonzero;fill:#000;fill-opacity:1;stroke-width:3.985;stroke-linecap:butt;stroke-linejoin:miter;stroke:#000;stroke-opacity:1;stroke-miterlimit:10" transform="matrix(.1 0 0 -.1 0 177)"/><path d="M1335.664 1546.875c0 8.242-6.68 14.922-14.922 14.922-8.281 0-14.96-6.68-14.96-14.922 0-8.281 6.679-14.96 14.96-14.96 8.242 0 14.922 6.679 14.922 14.96zm0 0" style="fill:none;stroke-width:3.985;stroke-linecap:butt;stroke-linejoin:miter;stroke:#000;stroke-opacity:1;stroke-miterlimit:10" transform="matrix(.1 0 0 -.1 0 177)"/><use xlink:href="#m" x="128.832" y="154.041" style="fill:#000;fill-opacity:1"/><path d="M1392.5 264.102c0 4.101-3.36 7.46-7.46 7.46-4.142 0-7.5-3.359-7.5-7.46a7.5 7.5 0 0 1 7.5-7.5c4.1 0 7.46 3.359 7.46 7.5zm0 0" style="fill-rule:nonzero;fill:#000;fill-opacity:1;stroke-width:3.985;stroke-linecap:butt;stroke-linejoin:miter;stroke:#000;stroke-opacity:1;stroke-miterlimit:10" transform="matrix(.1 0 0 -.1 0 177)"/><path d="M1399.96 1546.875c0 8.242-6.679 14.922-14.92 14.922-8.282 0-14.962-6.68-14.962-14.922 0-8.281 6.68-14.96 14.961-14.96 8.242 0 14.922 6.679 14.922 14.96zm0 0" style="fill:none;stroke-width:3.985;stroke-linecap:butt;stroke-linejoin:miter;stroke:#000;stroke-opacity:1;stroke-miterlimit:10" transform="matrix(.1 0 0 -.1 0 177)"/><use xlink:href="#m" x="135.262" y="154.041" style="fill:#000;fill-opacity:1"/><path d="M1456.797 781.758c0 4.14-3.36 7.46-7.5 7.46-4.102 0-7.461-3.32-7.461-7.46s3.36-7.461 7.46-7.461c4.141 0 7.5 3.32 7.5 7.46zm0 0" style="fill-rule:nonzero;fill:#000;fill-opacity:1;stroke-width:3.985;stroke-linecap:butt;stroke-linejoin:miter;stroke:#000;stroke-opacity:1;stroke-miterlimit:10" transform="matrix(.1 0 0 -.1 0 177)"/><path d="M1464.258 1546.875c0 8.242-6.68 14.922-14.961 14.922-8.242 0-14.922-6.68-14.922-14.922 0-8.281 6.68-14.96 14.922-14.96 8.281 0 14.96 6.679 14.96 14.96zm0 0" style="fill:none;stroke-width:3.985;stroke-linecap:butt;stroke-linejoin:miter;stroke:#000;stroke-opacity:1;stroke-miterlimit:10" transform="matrix(.1 0 0 -.1 0 177)"/><use xlink:href="#m" x="141.691" y="147.548" style="fill:#000;fill-opacity:1"/><path d="M1521.055 1491.328c0 4.102-3.32 7.461-7.461 7.461-4.14 0-7.461-3.36-7.461-7.46 0-4.141 3.32-7.5 7.46-7.5s7.462 3.359 7.462 7.5zm0 0" style="fill-rule:nonzero;fill:#000;fill-opacity:1;stroke-width:3.985;stroke-linecap:butt;stroke-linejoin:miter;stroke:#000;stroke-opacity:1;stroke-miterlimit:10" transform="matrix(.1 0 0 -.1 0 177)"/><path d="M1528.555 1546.875c0 8.242-6.72 14.922-14.961 14.922-8.242 0-14.961-6.68-14.961-14.922 0-8.281 6.719-14.96 14.96-14.96 8.243 0 14.962 6.679 14.962 14.96zm0 0" style="fill:none;stroke-width:3.985;stroke-linecap:butt;stroke-linejoin:miter;stroke:#000;stroke-opacity:1;stroke-miterlimit:10" transform="matrix(.1 0 0 -.1 0 177)"/><use xlink:href="#m" x="148.119" y="147.548" style="fill:#000;fill-opacity:1"/><path d="M1585.352 1375.82c0 4.102-3.36 7.461-7.461 7.461-4.141 0-7.5-3.36-7.5-7.46 0-4.141 3.359-7.462 7.5-7.462a7.46 7.46 0 0 1 7.46 7.461zm0 0" style="fill-rule:nonzero;fill:#000;fill-opacity:1;stroke-width:3.985;stroke-linecap:butt;stroke-linejoin:miter;stroke:#000;stroke-opacity:1;stroke-miterlimit:10" transform="matrix(.1 0 0 -.1 0 177)"/><path d="M1592.813 1546.875c0 8.242-6.68 14.922-14.922 14.922-8.282 0-14.961-6.68-14.961-14.922 0-8.281 6.68-14.96 14.96-14.96 8.243 0 14.922 6.679 14.922 14.96zm0 0" style="fill:none;stroke-width:3.985;stroke-linecap:butt;stroke-linejoin:miter;stroke:#000;stroke-opacity:1;stroke-miterlimit:10" transform="matrix(.1 0 0 -.1 0 177)"/><use xlink:href="#m" x="154.547" y="147.548" style="fill:#000;fill-opacity:1"/><path d="M1649.648 413.086c0 4.14-3.359 7.46-7.46 7.46-4.141 0-7.5-3.32-7.5-7.46s3.359-7.461 7.5-7.461c4.101 0 7.46 3.32 7.46 7.46zm0 0" style="fill-rule:nonzero;fill:#000;fill-opacity:1;stroke-width:3.985;stroke-linecap:butt;stroke-linejoin:miter;stroke:#000;stroke-opacity:1;stroke-miterlimit:10" transform="matrix(.1 0 0 -.1 0 177)"/><path d="M1657.11 1546.875c0 8.242-6.68 14.922-14.922 14.922-8.282 0-14.961-6.68-14.961-14.922 0-8.281 6.68-14.96 14.96-14.96 8.243 0 14.922 6.679 14.922 14.96zm0 0" style="fill:none;stroke-width:3.985;stroke-linecap:butt;stroke-linejoin:miter;stroke:#000;stroke-opacity:1;stroke-miterlimit:10" transform="matrix(.1 0 0 -.1 0 177)"/><use xlink:href="#m" x="160.977" y="147.548" style="fill:#000;fill-opacity:1"/><path d="M1713.906 1433.164c0 4.14-3.32 7.5-7.46 7.5s-7.462-3.36-7.462-7.5a7.46 7.46 0 0 1 7.461-7.46 7.46 7.46 0 0 1 7.461 7.46zm0 0" style="fill-rule:nonzero;fill:#000;fill-opacity:1;stroke-width:3.985;stroke-linecap:butt;stroke-linejoin:miter;stroke:#000;stroke-opacity:1;stroke-miterlimit:10" transform="matrix(.1 0 0 -.1 0 177)"/><path d="M1721.406 1546.875c0 8.242-6.718 14.922-14.96 14.922s-14.923-6.68-14.923-14.922c0-8.281 6.68-14.96 14.922-14.96s14.961 6.679 14.961 14.96zm0 0" style="fill:none;stroke-width:3.985;stroke-linecap:butt;stroke-linejoin:miter;stroke:#000;stroke-opacity:1;stroke-miterlimit:10" transform="matrix(.1 0 0 -.1 0 177)"/><use xlink:href="#m" x="167.405" y="147.548" style="fill:#000;fill-opacity:1"/><path d="M1778.203 637.656c0 4.14-3.36 7.5-7.46 7.5-4.141 0-7.5-3.36-7.5-7.5 0-4.101 3.359-7.46 7.5-7.46 4.1 0 7.46 3.359 7.46 7.46zm0 0" style="fill-rule:nonzero;fill:#000;fill-opacity:1;stroke-width:3.985;stroke-linecap:butt;stroke-linejoin:miter;stroke:#000;stroke-opacity:1;stroke-miterlimit:10" transform="matrix(.1 0 0 -.1 0 177)"/><path d="M1785.664 1546.875c0 8.242-6.68 14.922-14.922 14.922-8.281 0-14.96-6.68-14.96-14.922 0-8.281 6.679-14.96 14.96-14.96 8.242 0 14.922 6.679 14.922 14.96zm0 0" style="fill:none;stroke-width:3.985;stroke-linecap:butt;stroke-linejoin:miter;stroke:#000;stroke-opacity:1;stroke-miterlimit:10" transform="matrix(.1 0 0 -.1 0 177)"/><use xlink:href="#m" x="173.833" y="147.548" style="fill:#000;fill-opacity:1"/><path d="M1842.5 930.352c0 4.14-3.36 7.46-7.46 7.46-4.142 0-7.5-3.32-7.5-7.46s3.358-7.461 7.5-7.461c4.1 0 7.46 3.32 7.46 7.46zm0 0" style="fill-rule:nonzero;fill:#000;fill-opacity:1;stroke-width:3.985;stroke-linecap:butt;stroke-linejoin:miter;stroke:#000;stroke-opacity:1;stroke-miterlimit:10" transform="matrix(.1 0 0 -.1 0 177)"/><path d="M1849.96 1546.875c0 8.242-6.679 14.922-14.92 14.922-8.282 0-14.962-6.68-14.962-14.922 0-8.281 6.68-14.96 14.961-14.96 8.242 0 14.922 6.679 14.922 14.96zm0 0" style="fill:none;stroke-width:3.985;stroke-linecap:butt;stroke-linejoin:miter;stroke:#000;stroke-opacity:1;stroke-miterlimit:10" transform="matrix(.1 0 0 -.1 0 177)"/><use xlink:href="#m" x="180.262" y="147.548" style="fill:#000;fill-opacity:1"/><path d="M1906.797 995.234c0 4.141-3.36 7.461-7.461 7.461-4.14 0-7.5-3.32-7.5-7.46 0-4.102 3.36-7.462 7.5-7.462 4.101 0 7.46 3.36 7.46 7.461zm0 0" style="fill-rule:nonzero;fill:#000;fill-opacity:1;stroke-width:3.985;stroke-linecap:butt;stroke-linejoin:miter;stroke:#000;stroke-opacity:1;stroke-miterlimit:10" transform="matrix(.1 0 0 -.1 0 177)"/><path d="M1914.258 1546.875c0 8.242-6.68 14.922-14.922 14.922-8.281 0-14.961-6.68-14.961-14.922 0-8.281 6.68-14.96 14.96-14.96 8.243 0 14.923 6.679 14.923 14.96zm0 0" style="fill:none;stroke-width:3.985;stroke-linecap:butt;stroke-linejoin:miter;stroke:#000;stroke-opacity:1;stroke-miterlimit:10" transform="matrix(.1 0 0 -.1 0 177)"/><use xlink:href="#m" x="186.692" y="147.548" style="fill:#000;fill-opacity:1"/><path d="M1971.055 820c0 4.102-3.32 7.46-7.461 7.46a7.46 7.46 0 0 1-7.461-7.46c0-4.14 3.32-7.46 7.46-7.46a7.436 7.436 0 0 1 7.462 7.46zm0 0" style="fill-rule:nonzero;fill:#000;fill-opacity:1;stroke-width:3.985;stroke-linecap:butt;stroke-linejoin:miter;stroke:#000;stroke-opacity:1;stroke-miterlimit:10" transform="matrix(.1 0 0 -.1 0 177)"/><path d="M1978.555 1546.875c0 8.242-6.72 14.922-14.961 14.922-8.242 0-14.922-6.68-14.922-14.922 0-8.281 6.68-14.96 14.922-14.96s14.96 6.679 14.96 14.96zm0 0" style="fill:none;stroke-width:3.985;stroke-linecap:butt;stroke-linejoin:miter;stroke:#000;stroke-opacity:1;stroke-miterlimit:10" transform="matrix(.1 0 0 -.1 0 177)"/><use xlink:href="#m" x="193.12" y="147.548" style="fill:#000;fill-opacity:1"/><path d="M2035.352 484.883c0 4.14-3.36 7.5-7.461 7.5-4.141 0-7.5-3.36-7.5-7.5 0-4.102 3.359-7.461 7.5-7.461 4.101 0 7.46 3.36 7.46 7.46zm0 0" style="fill-rule:nonzero;fill:#000;fill-opacity:1;stroke-width:3.985;stroke-linecap:butt;stroke-linejoin:miter;stroke:#000;stroke-opacity:1;stroke-miterlimit:10" transform="matrix(.1 0 0 -.1 0 177)"/><path d="M2042.813 1546.875c0 8.242-6.68 14.922-14.922 14.922s-14.961-6.68-14.961-14.922c0-8.281 6.718-14.96 14.96-14.96s14.922 6.679 14.922 14.96zm0 0" style="fill:none;stroke-width:3.985;stroke-linecap:butt;stroke-linejoin:miter;stroke:#000;stroke-opacity:1;stroke-miterlimit:10" transform="matrix(.1 0 0 -.1 0 177)"/><use xlink:href="#m" x="199.548" y="147.548" style="fill:#000;fill-opacity:1"/><path d="M2099.648 610.703c0 4.102-3.359 7.461-7.46 7.461-4.141 0-7.5-3.36-7.5-7.46 0-4.141 3.359-7.5 7.5-7.5 4.101 0 7.46 3.359 7.46 7.5zm0 0" style="fill-rule:nonzero;fill:#000;fill-opacity:1;stroke-width:3.985;stroke-linecap:butt;stroke-linejoin:miter;stroke:#000;stroke-opacity:1;stroke-miterlimit:10" transform="matrix(.1 0 0 -.1 0 177)"/><path d="M2107.11 1546.875c0 8.242-6.68 14.922-14.923 14.922-8.28 0-14.96-6.68-14.96-14.922 0-8.281 6.68-14.96 14.96-14.96 8.243 0 14.922 6.679 14.922 14.96zm0 0" style="fill:none;stroke-width:3.985;stroke-linecap:butt;stroke-linejoin:miter;stroke:#000;stroke-opacity:1;stroke-miterlimit:10" transform="matrix(.1 0 0 -.1 0 177)"/><use xlink:href="#m" x="205.977" y="147.548" style="fill:#000;fill-opacity:1"/><path d="M2163.945 798.828c0 4.102-3.36 7.461-7.5 7.461-4.101 0-7.46-3.36-7.46-7.46 0-4.141 3.359-7.5 7.46-7.5 4.14 0 7.5 3.359 7.5 7.5zm0 0" style="fill-rule:nonzero;fill:#000;fill-opacity:1;stroke-width:3.985;stroke-linecap:butt;stroke-linejoin:miter;stroke:#000;stroke-opacity:1;stroke-miterlimit:10" transform="matrix(.1 0 0 -.1 0 177)"/><path d="M2171.406 1546.875c0 8.242-6.68 14.922-14.96 14.922-8.243 0-14.923-6.68-14.923-14.922 0-8.281 6.68-14.96 14.922-14.96a14.936 14.936 0 0 1 14.961 14.96zm0 0" style="fill:none;stroke-width:3.985;stroke-linecap:butt;stroke-linejoin:miter;stroke:#000;stroke-opacity:1;stroke-miterlimit:10" transform="matrix(.1 0 0 -.1 0 177)"/><use xlink:href="#m" x="212.405" y="147.548" style="fill:#000;fill-opacity:1"/><path d="M2228.203 841.914c0 4.14-3.36 7.5-7.46 7.5-4.141 0-7.462-3.36-7.462-7.5a7.46 7.46 0 0 1 7.461-7.46c4.102 0 7.461 3.359 7.461 7.46zm0 0" style="fill-rule:nonzero;fill:#000;fill-opacity:1;stroke-width:3.985;stroke-linecap:butt;stroke-linejoin:miter;stroke:#000;stroke-opacity:1;stroke-miterlimit:10" transform="matrix(.1 0 0 -.1 0 177)"/><path d="M2235.664 1546.875c0 8.242-6.68 14.922-14.922 14.922-8.281 0-14.96-6.68-14.96-14.922 0-8.281 6.679-14.96 14.96-14.96 8.242 0 14.922 6.679 14.922 14.96zm0 0" style="fill:none;stroke-width:3.985;stroke-linecap:butt;stroke-linejoin:miter;stroke:#000;stroke-opacity:1;stroke-miterlimit:10" transform="matrix(.1 0 0 -.1 0 177)"/><use xlink:href="#m" x="218.834" y="147.548" style="fill:#000;fill-opacity:1"/><path d="M2292.5 1546.875c0 4.102-3.36 7.46-7.46 7.46a7.46 7.46 0 0 1-7.462-7.46c0-4.14 3.32-7.5 7.461-7.5 4.102 0 7.461 3.36 7.461 7.5zm0 0" style="fill-rule:nonzero;fill:#000;fill-opacity:1;stroke-width:3.985;stroke-linecap:butt;stroke-linejoin:miter;stroke:#000;stroke-opacity:1;stroke-miterlimit:10" transform="matrix(.1 0 0 -.1 0 177)"/><path d="M2299.96 1546.875c0 8.242-6.679 14.922-14.92 14.922-8.243 0-14.962-6.68-14.962-14.922 0-8.281 6.719-14.96 14.961-14.96s14.922 6.679 14.922 14.96zm0 0" style="fill:none;stroke-width:3.985;stroke-linecap:butt;stroke-linejoin:miter;stroke:#000;stroke-opacity:1;stroke-miterlimit:10" transform="matrix(.1 0 0 -.1 0 177)"/><use xlink:href="#m" x="225.263" y="147.548" style="fill:#000;fill-opacity:1"/><path d="M2356.797 1428.281c0 4.102-3.36 7.461-7.461 7.461-4.14 0-7.5-3.36-7.5-7.46 0-4.141 3.36-7.5 7.5-7.5 4.102 0 7.46 3.359 7.46 7.5zm0 0" style="fill-rule:nonzero;fill:#000;fill-opacity:1;stroke-width:3.985;stroke-linecap:butt;stroke-linejoin:miter;stroke:#000;stroke-opacity:1;stroke-miterlimit:10" transform="matrix(.1 0 0 -.1 0 177)"/><path d="M2364.258 1517.852c0 8.242-6.68 14.96-14.922 14.96-8.281 0-14.961-6.718-14.961-14.96s6.68-14.922 14.96-14.922c8.243 0 14.923 6.68 14.923 14.922zm0 0" style="fill:none;stroke-width:3.985;stroke-linecap:butt;stroke-linejoin:miter;stroke:#000;stroke-opacity:1;stroke-miterlimit:10" transform="matrix(.1 0 0 -.1 0 177)"/><use xlink:href="#m" x="231.692" y="147.548" style="fill:#000;fill-opacity:1"/><path d="M2421.055 329.023c0 4.102-3.32 7.461-7.461 7.461-4.102 0-7.461-3.359-7.461-7.46 0-4.141 3.36-7.5 7.46-7.5 4.141 0 7.462 3.359 7.462 7.5zm0 0" style="fill-rule:nonzero;fill:#000;fill-opacity:1;stroke-width:3.985;stroke-linecap:butt;stroke-linejoin:miter;stroke:#000;stroke-opacity:1;stroke-miterlimit:10" transform="matrix(.1 0 0 -.1 0 177)"/><path d="M2428.555 1517.852c0 8.242-6.68 14.96-14.961 14.96-8.242 0-14.922-6.718-14.922-14.96s6.68-14.922 14.922-14.922c8.281 0 14.96 6.68 14.96 14.922zm0 0" style="fill:none;stroke-width:3.985;stroke-linecap:butt;stroke-linejoin:miter;stroke:#000;stroke-opacity:1;stroke-miterlimit:10" transform="matrix(.1 0 0 -.1 0 177)"/><use xlink:href="#m" x="238.12" y="147.548" style="fill:#000;fill-opacity:1"/><path d="M2485.352 794.492c0 4.14-3.36 7.461-7.461 7.461-4.141 0-7.5-3.32-7.5-7.46 0-4.102 3.359-7.462 7.5-7.462 4.101 0 7.46 3.36 7.46 7.461zm0 0" style="fill-rule:nonzero;fill:#000;fill-opacity:1;stroke-width:3.985;stroke-linecap:butt;stroke-linejoin:miter;stroke:#000;stroke-opacity:1;stroke-miterlimit:10" transform="matrix(.1 0 0 -.1 0 177)"/><path d="M2492.813 1517.852c0 8.242-6.68 14.96-14.922 14.96s-14.922-6.718-14.922-14.96 6.68-14.922 14.922-14.922 14.921 6.68 14.921 14.922zm0 0" style="fill:none;stroke-width:3.985;stroke-linecap:butt;stroke-linejoin:miter;stroke:#000;stroke-opacity:1;stroke-miterlimit:10" transform="matrix(.1 0 0 -.1 0 177)"/><use xlink:href="#m" x="244.548" y="139.406" style="fill:#000;fill-opacity:1"/><path d="M2549.648 647.578c0 4.102-3.359 7.461-7.46 7.461-4.141 0-7.461-3.36-7.461-7.46a7.436 7.436 0 0 1 7.46-7.462c4.102 0 7.461 3.32 7.461 7.461zm0 0" style="fill-rule:nonzero;fill:#000;fill-opacity:1;stroke-width:3.985;stroke-linecap:butt;stroke-linejoin:miter;stroke:#000;stroke-opacity:1;stroke-miterlimit:10" transform="matrix(.1 0 0 -.1 0 177)"/><path d="M2557.11 1517.852c0 8.242-6.68 14.96-14.923 14.96s-14.96-6.718-14.96-14.96 6.718-14.922 14.96-14.922 14.922 6.68 14.922 14.922zm0 0" style="fill:none;stroke-width:3.985;stroke-linecap:butt;stroke-linejoin:miter;stroke:#000;stroke-opacity:1;stroke-miterlimit:10" transform="matrix(.1 0 0 -.1 0 177)"/><use xlink:href="#m" x="250.978" y="139.406" style="fill:#000;fill-opacity:1"/><path d="M2613.945 410.43c0 4.14-3.36 7.46-7.5 7.46-4.101 0-7.46-3.32-7.46-7.46 0-4.102 3.359-7.461 7.46-7.461 4.14 0 7.5 3.36 7.5 7.46zm0 0" style="fill-rule:nonzero;fill:#000;fill-opacity:1;stroke-width:3.985;stroke-linecap:butt;stroke-linejoin:miter;stroke:#000;stroke-opacity:1;stroke-miterlimit:10" transform="matrix(.1 0 0 -.1 0 177)"/><path d="M2621.406 1517.852c0 8.242-6.68 14.96-14.96 14.96-8.243 0-14.923-6.718-14.923-14.96s6.68-14.922 14.922-14.922c8.282 0 14.961 6.68 14.961 14.922zm0 0" style="fill:none;stroke-width:3.985;stroke-linecap:butt;stroke-linejoin:miter;stroke:#000;stroke-opacity:1;stroke-miterlimit:10" transform="matrix(.1 0 0 -.1 0 177)"/><use xlink:href="#m" x="257.406" y="139.406" style="fill:#000;fill-opacity:1"/><path d="M2678.203 1517.852c0 4.14-3.32 7.46-7.46 7.46a7.436 7.436 0 0 1-7.462-7.46 7.435 7.435 0 0 1 7.461-7.461c4.14 0 7.461 3.32 7.461 7.46zm0 0" style="fill-rule:nonzero;fill:#000;fill-opacity:1;stroke-width:3.985;stroke-linecap:butt;stroke-linejoin:miter;stroke:#000;stroke-opacity:1;stroke-miterlimit:10" transform="matrix(.1 0 0 -.1 0 177)"/><path d="M2685.664 1517.852c0 8.242-6.68 14.96-14.922 14.96s-14.96-6.718-14.96-14.96 6.718-14.922 14.96-14.922 14.922 6.68 14.922 14.922zm0 0" style="fill:none;stroke-width:3.985;stroke-linecap:butt;stroke-linejoin:miter;stroke:#000;stroke-opacity:1;stroke-miterlimit:10" transform="matrix(.1 0 0 -.1 0 177)"/><use xlink:href="#m" x="263.834" y="123.929" style="fill:#000;fill-opacity:1"/><path d="M2742.5 1232.422c0 4.14-3.36 7.46-7.46 7.46a7.435 7.435 0 0 1-7.462-7.46c0-4.102 3.32-7.461 7.461-7.461 4.102 0 7.461 3.36 7.461 7.46zm0 0" style="fill-rule:nonzero;fill:#000;fill-opacity:1;stroke-width:3.985;stroke-linecap:butt;stroke-linejoin:miter;stroke:#000;stroke-opacity:1;stroke-miterlimit:10" transform="matrix(.1 0 0 -.1 0 177)"/><path d="M2749.96 1460.664c0 8.242-6.679 14.922-14.92 14.922-8.243 0-14.962-6.68-14.962-14.922 0-8.281 6.719-14.96 14.961-14.96s14.922 6.679 14.922 14.96zm0 0" style="fill:none;stroke-width:3.985;stroke-linecap:butt;stroke-linejoin:miter;stroke:#000;stroke-opacity:1;stroke-miterlimit:10" transform="matrix(.1 0 0 -.1 0 177)"/><use xlink:href="#m" x="270.264" y="123.929" style="fill:#000;fill-opacity:1"/><path d="M2806.797 926.992c0 4.14-3.36 7.461-7.461 7.461a7.435 7.435 0 0 1-7.461-7.46 7.436 7.436 0 0 1 7.46-7.462c4.102 0 7.462 3.32 7.462 7.461zm0 0" style="fill-rule:nonzero;fill:#000;fill-opacity:1;stroke-width:3.985;stroke-linecap:butt;stroke-linejoin:miter;stroke:#000;stroke-opacity:1;stroke-miterlimit:10" transform="matrix(.1 0 0 -.1 0 177)"/><path d="M2814.258 1460.664c0 8.242-6.68 14.922-14.922 14.922-8.281 0-14.961-6.68-14.961-14.922 0-8.281 6.68-14.96 14.96-14.96 8.243 0 14.923 6.679 14.923 14.96zm0 0" style="fill:none;stroke-width:3.985;stroke-linecap:butt;stroke-linejoin:miter;stroke:#000;stroke-opacity:1;stroke-miterlimit:10" transform="matrix(.1 0 0 -.1 0 177)"/><use xlink:href="#m" x="276.693" y="123.929" style="fill:#000;fill-opacity:1"/><path d="M2871.094 1333.125c0 4.14-3.36 7.5-7.5 7.5-4.102 0-7.461-3.36-7.461-7.5 0-4.102 3.36-7.46 7.46-7.46 4.141 0 7.5 3.358 7.5 7.46zm0 0" style="fill-rule:nonzero;fill:#000;fill-opacity:1;stroke-width:3.985;stroke-linecap:butt;stroke-linejoin:miter;stroke:#000;stroke-opacity:1;stroke-miterlimit:10" transform="matrix(.1 0 0 -.1 0 177)"/><path d="M2878.555 1460.664c0 8.242-6.68 14.922-14.961 14.922-8.242 0-14.922-6.68-14.922-14.922 0-8.281 6.68-14.96 14.922-14.96 8.281 0 14.96 6.679 14.96 14.96zm0 0" style="fill:none;stroke-width:3.985;stroke-linecap:butt;stroke-linejoin:miter;stroke:#000;stroke-opacity:1;stroke-miterlimit:10" transform="matrix(.1 0 0 -.1 0 177)"/><use xlink:href="#m" x="283.121" y="123.929" style="fill:#000;fill-opacity:1"/><path d="M2935.352 1142.305c0 4.14-3.32 7.46-7.461 7.46-4.102 0-7.461-3.32-7.461-7.46s3.36-7.461 7.46-7.461a7.436 7.436 0 0 1 7.462 7.46zm0 0" style="fill-rule:nonzero;fill:#000;fill-opacity:1;stroke-width:3.985;stroke-linecap:butt;stroke-linejoin:miter;stroke:#000;stroke-opacity:1;stroke-miterlimit:10" transform="matrix(.1 0 0 -.1 0 177)"/><path d="M2942.813 1460.664c0 8.242-6.68 14.922-14.922 14.922s-14.922-6.68-14.922-14.922c0-8.281 6.68-14.96 14.922-14.96s14.921 6.679 14.921 14.96zm0 0" style="fill:none;stroke-width:3.985;stroke-linecap:butt;stroke-linejoin:miter;stroke:#000;stroke-opacity:1;stroke-miterlimit:10" transform="matrix(.1 0 0 -.1 0 177)"/><use xlink:href="#m" x="289.549" y="123.929" style="fill:#000;fill-opacity:1"/><path d="M2999.648 1130.586c0 4.14-3.32 7.46-7.46 7.46a7.435 7.435 0 0 1-7.461-7.46c0-4.14 3.32-7.461 7.46-7.461a7.435 7.435 0 0 1 7.461 7.46zm0 0" style="fill-rule:nonzero;fill:#000;fill-opacity:1;stroke-width:3.985;stroke-linecap:butt;stroke-linejoin:miter;stroke:#000;stroke-opacity:1;stroke-miterlimit:10" transform="matrix(.1 0 0 -.1 0 177)"/><path d="M3007.148 1460.664c0 8.242-6.718 14.922-14.96 14.922s-14.961-6.68-14.961-14.922c0-8.281 6.718-14.96 14.96-14.96s14.961 6.679 14.961 14.96zm0 0" style="fill:none;stroke-width:3.985;stroke-linecap:butt;stroke-linejoin:miter;stroke:#000;stroke-opacity:1;stroke-miterlimit:10" transform="matrix(.1 0 0 -.1 0 177)"/><use xlink:href="#m" x="295.979" y="123.929" style="fill:#000;fill-opacity:1"/><path d="M3063.945 1383.32c0 4.14-3.36 7.461-7.5 7.461-4.101 0-7.46-3.32-7.46-7.46 0-4.102 3.359-7.462 7.46-7.462 4.14 0 7.5 3.36 7.5 7.461zm0 0" style="fill-rule:nonzero;fill:#000;fill-opacity:1;stroke-width:3.985;stroke-linecap:butt;stroke-linejoin:miter;stroke:#000;stroke-opacity:1;stroke-miterlimit:10" transform="matrix(.1 0 0 -.1 0 177)"/><path d="M3071.406 1460.664c0 8.242-6.68 14.922-14.96 14.922-8.243 0-14.923-6.68-14.923-14.922 0-8.281 6.68-14.96 14.922-14.96a14.936 14.936 0 0 1 14.961 14.96zm0 0" style="fill:none;stroke-width:3.985;stroke-linecap:butt;stroke-linejoin:miter;stroke:#000;stroke-opacity:1;stroke-miterlimit:10" transform="matrix(.1 0 0 -.1 0 177)"/><use xlink:href="#m" x="302.407" y="123.929" style="fill:#000;fill-opacity:1"/><path d="M3128.203 1138.516c0 4.101-3.32 7.46-7.46 7.46a7.46 7.46 0 0 1-7.462-7.46c0-4.141 3.32-7.5 7.461-7.5 4.14 0 7.461 3.359 7.461 7.5zm0 0" style="fill-rule:nonzero;fill:#000;fill-opacity:1;stroke-width:3.985;stroke-linecap:butt;stroke-linejoin:miter;stroke:#000;stroke-opacity:1;stroke-miterlimit:10" transform="matrix(.1 0 0 -.1 0 177)"/><path d="M3135.703 1460.664c0 8.242-6.719 14.922-14.96 14.922-8.243 0-14.923-6.68-14.923-14.922 0-8.281 6.68-14.96 14.922-14.96s14.961 6.679 14.961 14.96zm0 0" style="fill:none;stroke-width:3.985;stroke-linecap:butt;stroke-linejoin:miter;stroke:#000;stroke-opacity:1;stroke-miterlimit:10" transform="matrix(.1 0 0 -.1 0 177)"/><use xlink:href="#m" x="308.835" y="123.929" style="fill:#000;fill-opacity:1"/><path d="M3192.5 1394.96c0 4.142-3.32 7.5-7.46 7.5-4.142 0-7.462-3.358-7.462-7.5 0-4.1 3.32-7.46 7.461-7.46 4.14 0 7.461 3.36 7.461 7.46zm0 0" style="fill-rule:nonzero;fill:#000;fill-opacity:1;stroke-width:3.985;stroke-linecap:butt;stroke-linejoin:miter;stroke:#000;stroke-opacity:1;stroke-miterlimit:10" transform="matrix(.1 0 0 -.1 0 177)"/><path d="M3199.96 1460.664c0 8.242-6.679 14.922-14.92 14.922-8.243 0-14.923-6.68-14.923-14.922 0-8.281 6.68-14.96 14.922-14.96s14.922 6.679 14.922 14.96zm0 0" style="fill:none;stroke-width:3.985;stroke-linecap:butt;stroke-linejoin:miter;stroke:#000;stroke-opacity:1;stroke-miterlimit:10" transform="matrix(.1 0 0 -.1 0 177)"/><use xlink:href="#m" x="315.264" y="123.929" style="fill:#000;fill-opacity:1"/><path d="M3256.797 1031.836c0 4.14-3.32 7.46-7.461 7.46a7.435 7.435 0 0 1-7.461-7.46c0-4.14 3.32-7.461 7.46-7.461a7.435 7.435 0 0 1 7.462 7.46zm0 0" style="fill-rule:nonzero;fill:#000;fill-opacity:1;stroke-width:3.985;stroke-linecap:butt;stroke-linejoin:miter;stroke:#000;stroke-opacity:1;stroke-miterlimit:10" transform="matrix(.1 0 0 -.1 0 177)"/><path d="M3264.297 1460.664c0 8.242-6.719 14.922-14.961 14.922s-14.961-6.68-14.961-14.922c0-8.281 6.719-14.96 14.96-14.96 8.243 0 14.962 6.679 14.962 14.96zm0 0" style="fill:none;stroke-width:3.985;stroke-linecap:butt;stroke-linejoin:miter;stroke:#000;stroke-opacity:1;stroke-miterlimit:10" transform="matrix(.1 0 0 -.1 0 177)"/><use xlink:href="#m" x="321.693" y="123.929" style="fill:#000;fill-opacity:1"/><path d="M3321.094 878.438c0 4.14-3.36 7.46-7.461 7.46-4.14 0-7.5-3.32-7.5-7.46s3.36-7.461 7.5-7.461c4.101 0 7.46 3.32 7.46 7.46zm0 0" style="fill-rule:nonzero;fill:#000;fill-opacity:1;stroke-width:3.985;stroke-linecap:butt;stroke-linejoin:miter;stroke:#000;stroke-opacity:1;stroke-miterlimit:10" transform="matrix(.1 0 0 -.1 0 177)"/><path d="M3328.555 1460.664c0 8.242-6.68 14.922-14.922 14.922-8.281 0-14.961-6.68-14.961-14.922 0-8.281 6.68-14.96 14.96-14.96 8.243 0 14.923 6.679 14.923 14.96zm0 0" style="fill:none;stroke-width:3.985;stroke-linecap:butt;stroke-linejoin:miter;stroke:#000;stroke-opacity:1;stroke-miterlimit:10" transform="matrix(.1 0 0 -.1 0 177)"/><use xlink:href="#m" x="328.121" y="123.929" style="fill:#000;fill-opacity:1"/><path d="M3385.352 1035.977c0 4.14-3.32 7.46-7.461 7.46-4.102 0-7.461-3.32-7.461-7.46s3.36-7.461 7.46-7.461a7.436 7.436 0 0 1 7.462 7.46zm0 0" style="fill-rule:nonzero;fill:#000;fill-opacity:1;stroke-width:3.985;stroke-linecap:butt;stroke-linejoin:miter;stroke:#000;stroke-opacity:1;stroke-miterlimit:10" transform="matrix(.1 0 0 -.1 0 177)"/><path d="M3392.852 1460.664c0 8.242-6.72 14.922-14.961 14.922-8.243 0-14.922-6.68-14.922-14.922 0-8.281 6.68-14.96 14.922-14.96s14.96 6.679 14.96 14.96zm0 0" style="fill:none;stroke-width:3.985;stroke-linecap:butt;stroke-linejoin:miter;stroke:#000;stroke-opacity:1;stroke-miterlimit:10" transform="matrix(.1 0 0 -.1 0 177)"/><use xlink:href="#m" x="334.55" y="123.929" style="fill:#000;fill-opacity:1"/><path d="M3449.648 1460.664c0 4.102-3.32 7.461-7.46 7.461s-7.461-3.36-7.461-7.46c0-4.142 3.32-7.5 7.46-7.5s7.461 3.358 7.461 7.5zm0 0" style="fill-rule:nonzero;fill:#000;fill-opacity:1;stroke-width:3.985;stroke-linecap:butt;stroke-linejoin:miter;stroke:#000;stroke-opacity:1;stroke-miterlimit:10" transform="matrix(.1 0 0 -.1 0 177)"/><path d="M3457.148 1460.664c0 8.242-6.718 14.922-14.96 14.922s-14.922-6.68-14.922-14.922c0-8.281 6.68-14.96 14.921-14.96 8.243 0 14.961 6.679 14.961 14.96zm0 0" style="fill:none;stroke-width:3.985;stroke-linecap:butt;stroke-linejoin:miter;stroke:#000;stroke-opacity:1;stroke-miterlimit:10" transform="matrix(.1 0 0 -.1 0 177)"/><use xlink:href="#m" x="340.979" y="123.929" style="fill:#000;fill-opacity:1"/><path d="M3513.945 741.719c0 4.14-3.36 7.46-7.46 7.46-4.141 0-7.5-3.32-7.5-7.46 0-4.102 3.359-7.461 7.5-7.461 4.1 0 7.46 3.36 7.46 7.46zm0 0" style="fill-rule:nonzero;fill:#000;fill-opacity:1;stroke-width:3.985;stroke-linecap:butt;stroke-linejoin:miter;stroke:#000;stroke-opacity:1;stroke-miterlimit:10" transform="matrix(.1 0 0 -.1 0 177)"/><path d="M3521.406 1339.766c0 8.242-6.68 14.921-14.922 14.921-8.28 0-14.96-6.68-14.96-14.921 0-8.243 6.68-14.961 14.96-14.961 8.243 0 14.922 6.718 14.922 14.96zm0 0" style="fill:none;stroke-width:3.985;stroke-linecap:butt;stroke-linejoin:miter;stroke:#000;stroke-opacity:1;stroke-miterlimit:10" transform="matrix(.1 0 0 -.1 0 177)"/><use xlink:href="#m" x="347.407" y="123.929" style="fill:#000;fill-opacity:1"/><path d="M3578.242 815.469c0 4.14-3.36 7.46-7.5 7.46-4.101 0-7.46-3.32-7.46-7.46 0-4.102 3.359-7.461 7.46-7.461 4.14 0 7.5 3.36 7.5 7.46zm0 0" style="fill-rule:nonzero;fill:#000;fill-opacity:1;stroke-width:3.985;stroke-linecap:butt;stroke-linejoin:miter;stroke:#000;stroke-opacity:1;stroke-miterlimit:10" transform="matrix(.1 0 0 -.1 0 177)"/><path d="M3585.703 1339.766c0 8.242-6.68 14.921-14.96 14.921-8.243 0-14.923-6.68-14.923-14.921 0-8.243 6.68-14.961 14.922-14.961 8.281 0 14.961 6.718 14.961 14.96zm0 0" style="fill:none;stroke-width:3.985;stroke-linecap:butt;stroke-linejoin:miter;stroke:#000;stroke-opacity:1;stroke-miterlimit:10" transform="matrix(.1 0 0 -.1 0 177)"/><use xlink:href="#m" x="353.836" y="123.929" style="fill:#000;fill-opacity:1"/><path d="M3642.54 1205.352c0 4.101-3.36 7.46-7.5 7.46-4.102 0-7.462-3.359-7.462-7.46 0-4.141 3.36-7.5 7.461-7.5 4.14 0 7.5 3.359 7.5 7.5zm0 0" style="fill-rule:nonzero;fill:#000;fill-opacity:1;stroke-width:3.985;stroke-linecap:butt;stroke-linejoin:miter;stroke:#000;stroke-opacity:1;stroke-miterlimit:10" transform="matrix(.1 0 0 -.1 0 177)"/><path d="M3650 1339.766c0 8.242-6.719 14.921-14.96 14.921-8.243 0-14.923-6.68-14.923-14.921 0-8.243 6.68-14.961 14.922-14.961s14.961 6.718 14.961 14.96zm0 0" style="fill:none;stroke-width:3.985;stroke-linecap:butt;stroke-linejoin:miter;stroke:#000;stroke-opacity:1;stroke-miterlimit:10" transform="matrix(.1 0 0 -.1 0 177)"/><use xlink:href="#m" x="360.265" y="123.929" style="fill:#000;fill-opacity:1"/><path d="M3706.797 1244.766c0 4.14-3.32 7.46-7.461 7.46a7.435 7.435 0 0 1-7.461-7.46 7.435 7.435 0 0 1 7.46-7.461 7.435 7.435 0 0 1 7.462 7.46zm0 0" style="fill-rule:nonzero;fill:#000;fill-opacity:1;stroke-width:3.985;stroke-linecap:butt;stroke-linejoin:miter;stroke:#000;stroke-opacity:1;stroke-miterlimit:10" transform="matrix(.1 0 0 -.1 0 177)"/><path d="M3714.297 1339.766c0 8.242-6.719 14.921-14.961 14.921s-14.922-6.68-14.922-14.921c0-8.243 6.68-14.961 14.922-14.961s14.96 6.718 14.96 14.96zm0 0" style="fill:none;stroke-width:3.985;stroke-linecap:butt;stroke-linejoin:miter;stroke:#000;stroke-opacity:1;stroke-miterlimit:10" transform="matrix(.1 0 0 -.1 0 177)"/><use xlink:href="#m" x="366.694" y="123.929" style="fill:#000;fill-opacity:1"/><path d="M3771.094 743.438c0 4.14-3.36 7.46-7.461 7.46-4.14 0-7.5-3.32-7.5-7.46s3.36-7.461 7.5-7.461c4.101 0 7.46 3.32 7.46 7.46zm0 0" style="fill-rule:nonzero;fill:#000;fill-opacity:1;stroke-width:3.985;stroke-linecap:butt;stroke-linejoin:miter;stroke:#000;stroke-opacity:1;stroke-miterlimit:10" transform="matrix(.1 0 0 -.1 0 177)"/><path d="M3778.555 1339.766c0 8.242-6.68 14.921-14.922 14.921-8.281 0-14.961-6.68-14.961-14.921 0-8.243 6.68-14.961 14.96-14.961 8.243 0 14.923 6.718 14.923 14.96zm0 0" style="fill:none;stroke-width:3.985;stroke-linecap:butt;stroke-linejoin:miter;stroke:#000;stroke-opacity:1;stroke-miterlimit:10" transform="matrix(.1 0 0 -.1 0 177)"/><use xlink:href="#m" x="373.122" y="123.929" style="fill:#000;fill-opacity:1"/><path d="M3835.39 682.46c0 4.142-3.359 7.462-7.5 7.462-4.1 0-7.46-3.32-7.46-7.461 0-4.102 3.36-7.461 7.46-7.461 4.141 0 7.5 3.36 7.5 7.46zm0 0" style="fill-rule:nonzero;fill:#000;fill-opacity:1;stroke-width:3.985;stroke-linecap:butt;stroke-linejoin:miter;stroke:#000;stroke-opacity:1;stroke-miterlimit:10" transform="matrix(.1 0 0 -.1 0 177)"/><path d="M3842.852 1339.766c0 8.242-6.68 14.921-14.961 14.921-8.243 0-14.922-6.68-14.922-14.921 0-8.243 6.68-14.961 14.922-14.961 8.28 0 14.96 6.718 14.96 14.96zm0 0" style="fill:none;stroke-width:3.985;stroke-linecap:butt;stroke-linejoin:miter;stroke:#000;stroke-opacity:1;stroke-miterlimit:10" transform="matrix(.1 0 0 -.1 0 177)"/><use xlink:href="#m" x="379.55" y="123.929" style="fill:#000;fill-opacity:1"/><path d="M3899.688 772.969c0 4.101-3.36 7.46-7.5 7.46-4.102 0-7.461-3.359-7.461-7.46 0-4.14 3.359-7.5 7.46-7.5 4.141 0 7.5 3.36 7.5 7.5zm0 0" style="fill-rule:nonzero;fill:#000;fill-opacity:1;stroke-width:3.985;stroke-linecap:butt;stroke-linejoin:miter;stroke:#000;stroke-opacity:1;stroke-miterlimit:10" transform="matrix(.1 0 0 -.1 0 177)"/><path d="M3907.148 1339.766c0 8.242-6.68 14.921-14.96 14.921-8.243 0-14.922-6.68-14.922-14.921 0-8.243 6.68-14.961 14.921-14.961 8.282 0 14.961 6.718 14.961 14.96zm0 0" style="fill:none;stroke-width:3.985;stroke-linecap:butt;stroke-linejoin:miter;stroke:#000;stroke-opacity:1;stroke-miterlimit:10" transform="matrix(.1 0 0 -.1 0 177)"/><use xlink:href="#m" x="385.98" y="123.929" style="fill:#000;fill-opacity:1"/></svg>