<svg xmlns="http://www.w3.org/2000/svg" xmlns:xlink="http://www.w3.org/1999/xlink" width="218pt" height="148pt" viewBox="0 0 218 148"><defs><symbol id="a" overflow="visible"><path d="M5 .031v-.36l-.625-.03c-.656-.032-.781-.172-.781-.782v-7.093l-.156-.063c-.782.406-1.626.766-2.72 1.156l.079.5h.125c.531-.234 1.047-.468 1.578-.703.063 0 .094.11.094.407v5.796c0 .61-.125.75-.781.782l-.672.03v.36C1.812.016 2.469 0 3.125 0c.61 0 1.25.016 1.875.031m0 0" style="stroke:none"/></symbol><symbol id="b" overflow="visible"><path d="M5.594.031c-.032-.25-.032-.36-.032-.531 0-.156 0-.281.032-.547l-4.14.125L3.64-3.234c1.156-1.22 1.515-1.875 1.515-2.782 0-1.375-.937-2.218-2.453-2.218-.86 0-1.453.234-2.031.828l-.203 1.64h.344l.156-.562c.187-.688.625-.984 1.422-.984 1.03 0 1.687.64 1.687 1.656 0 .906-.5 1.781-1.86 3.218L.189-.28v.31C1.078.016 1.968 0 2.858 0c.907 0 1.829.016 2.735.031zm0 0" style="stroke:none"/></symbol><symbol id="c" overflow="visible"><path d="M5.516-2.672c0-.578-.235-1.078-.657-1.375-.312-.219-.578-.312-1.171-.422C4.64-5.219 5-5.766 5-6.469c0-1.062-.89-1.765-2.219-1.765-.812 0-1.344.218-1.922.796L.516-5.952H.89l.203-.672c.14-.406.89-.813 1.515-.813.766 0 1.407.641 1.407 1.391 0 .89-.704 1.64-1.547 1.64-.11 0-.563-.03-.563-.03l-.156.64.094.063c.453-.204.672-.266 1-.266 1 0 1.562.64 1.562 1.734 0 1.22-.718 2.016-1.843 2.016a2.04 2.04 0 0 1-1.391-.516C.89-1.03.734-1.296.5-1.953l-.328.125c.266.734.36 1.156.422 1.75.64.219 1.156.312 1.61.312 1.437 0 3.312-1.25 3.312-2.906m0 0" style="stroke:none"/></symbol><symbol id="d" overflow="visible"><path d="M5.64.031v-.36l-.577-.03c-.579-.032-.72-.188-.72-.907v-.89c.72 0 .97 0 1.298.047v-.86s-.579.047-.97.047h-.327v-1.672c0-2.125.031-3.156.093-3.64l-.14-.063-.89.328L.03-2.437l.125.28h3.188v.891c0 .72-.125.891-.719.907l-.734.03v.36C2.53.016 3.17 0 3.812 0c.61 0 1.22.016 1.829.031zM3.345-2.922H.78L3.344-7.14zm0 0" style="stroke:none"/></symbol><symbol id="e" overflow="visible"><path d="M5.484-3.031c0-1.344-.968-2.297-2.328-2.297-.578 0-1 .156-1.75.594l.11-2.5 3.64.062.063-.062c-.016-.22-.016-.282-.016-.47 0-.187 0-.25.016-.468l-.063-.062s-1.265.062-2.078.062S1-8.234 1-8.234l-.063.062.032 1.64c0 1.048-.031 2.157-.078 2.688l.25.063c.562-.563.875-.719 1.468-.719 1.141 0 1.86.813 1.86 2.094 0 1.328-.766 2.11-2.063 2.11-.656 0-1.25-.22-1.422-.532l-.546-.985-.282.172C.437-.953.578-.578.734-.047c.344.172.813.281 1.329.281.812 0 1.656-.343 2.312-.921.734-.641 1.11-1.454 1.11-2.344zm0 0" style="stroke:none"/></symbol><symbol id="f" overflow="visible"><path d="M5.594-2.625C5.594-4 4.766-4.891 3.5-4.891c-.703 0-1.14.282-1.938.938.25-2.172 1.266-3.344 3.407-3.985v-.093l-.438-.203c-1.156.375-1.64.625-2.25 1.14C1.047-6.047.375-4.594.375-2.954c0 1.97.969 3.188 2.5 3.188 1.563 0 2.719-1.218 2.719-2.859m-1.032.422c0 1.25-.609 2.047-1.53 2.047-1.016 0-1.563-.875-1.563-2.469 0-.422.047-.656.187-.86.25-.406.813-.687 1.39-.687.907 0 1.517.797 1.517 1.969zm0 0" style="stroke:none"/></symbol><symbol id="g" overflow="visible"><path d="M5.938-7.875v-.36c-1.282.047-1.391.063-2.672.063-1.25 0-1.454-.015-2.625-.062l-.11.062s.031.766.031 1.25-.03 1.219-.03 1.219H.89l.078-.672c.094-.734.172-.828.734-.828H4.89c-.485.969-.844 1.672-1.313 2.39L.672-.125l.11.156S1.108 0 1.327 0a7 7 0 0 1 .547.031c.5-1.297.813-2.078 1.875-3.969zm0 0" style="stroke:none"/></symbol><symbol id="h" overflow="visible"><path d="M5.547-2.469c0-.953-.438-1.469-1.813-2.078 1.094-.75 1.485-1.25 1.485-1.969 0-1.03-.86-1.718-2.125-1.718-1.422 0-2.453.906-2.453 2.156 0 .812.312 1.266 1.375 1.953-.5.234-.704.36-.97.61-.452.453-.687 1-.687 1.609 0 1.234.985 2.14 2.344 2.14 1.547 0 2.844-1.218 2.844-2.703m-.938.516c0 1-.765 1.781-1.734 1.781C1.859-.172 1.203-.89 1.203-2c0-.875.344-1.422 1.234-1.953l.954.422c.75.344 1.218.922 1.218 1.578m-.203-4.438c0 .688-.312 1.157-1.078 1.657l-.656-.329c-.766-.359-1.14-.843-1.14-1.437 0-.797.577-1.328 1.421-1.328.875 0 1.453.578 1.453 1.437m0 0" style="stroke:none"/></symbol><symbol id="i" overflow="visible"><path d="M5.469-4.984c0-2.016-.969-3.25-2.547-3.25C1.39-8.234.234-7.047.234-5.438c0 1.375.907 2.375 2.141 2.375.406 0 .875-.124 1.094-.312l.828-.688c-.094 2-1.39 3.485-3.563 4v.094l.407.203c1.328-.421 1.906-.703 2.546-1.25 1.172-1 1.782-2.359 1.782-3.968m-1.047-.641c0 1.094-.625 1.828-1.547 1.828-.969 0-1.61-.844-1.61-2.078 0-1.219.626-1.969 1.61-1.969.531 0 .922.235 1.188.703.218.391.359.97.359 1.516m0 0" style="stroke:none"/></symbol><symbol id="j" overflow="visible"><path d="M5.563-4.375c0-2.625-.782-3.86-2.422-3.86-1.844 0-2.797 1.47-2.797 4.36 0 1.406.25 2.61.672 3.188.421.593 1.093.921 1.828.921 1.812 0 2.719-1.546 2.719-4.609m-1.016.594c0 2.547-.453 3.61-1.547 3.61-1.156 0-1.656-1.22-1.656-4.126 0-2.531.453-3.516 1.578-3.516 1.172 0 1.625 1.172 1.625 4.032m0 0" style="stroke:none"/></symbol></defs><path d="M2021.68 219.414h79.257m9.923 0h19.804m9.922 0h19.805m9.922 0h9.882M40 219.414h1981.68" style="fill:none;stroke-width:3.985;stroke-linecap:butt;stroke-linejoin:miter;stroke:#000;stroke-opacity:1;stroke-miterlimit:10" transform="matrix(.1 0 0 -.1 0 148)"/><path d="M3.746 123.07h.602v6h-.602zm19.817 0h.601v6h-.602zm19.82 0h.601v6h-.601zm19.817 0h.6v6h-.6zm19.816 0h.601v6h-.601zm19.816 0h.602v6h-.602zm19.816 0h.602v6h-.602zm19.817 0h.601v6h-.601zm19.816 0h.602v6h-.602zm19.817 0h.601v6h-.601zm19.816 0h.602v6h-.602zm0 0" style="stroke:none;fill-rule:nonzero;fill:#000;fill-opacity:1"/><path d="M40 219.414v1252.188" style="fill:none;stroke-width:3.985;stroke-linecap:butt;stroke-linejoin:miter;stroke:#000;stroke-opacity:1;stroke-miterlimit:10" transform="matrix(.1 0 0 -.1 0 148)"/><path d="M.988 125.71h6v.603h-6zm0-31.304h6v.602h-6zm0-31.304h6v.601h-6zm0-31.305h6v.601h-6zm0-31.309h6v.602h-6zm0 0" style="stroke:none;fill-rule:nonzero;fill:#000;fill-opacity:1"/><path d="M245.625 407.266c0 4.14-3.32 7.46-7.46 7.46a7.435 7.435 0 0 1-7.462-7.46 7.435 7.435 0 0 1 7.461-7.461c4.14 0 7.461 3.32 7.461 7.46zm0 0" style="fill-rule:nonzero;fill:#000;fill-opacity:1;stroke-width:3.985;stroke-linecap:butt;stroke-linejoin:miter;stroke:#000;stroke-opacity:1;stroke-miterlimit:10" transform="matrix(.1 0 0 -.1 0 148)"/><use xlink:href="#a" x="20.816" y="144.42" style="fill:#000;fill-opacity:1"/><path d="M443.828 595.078c0 4.14-3.36 7.461-7.5 7.461-4.101 0-7.46-3.32-7.46-7.46 0-4.102 3.359-7.462 7.46-7.462 4.14 0 7.5 3.36 7.5 7.461zm0 0" style="fill-rule:nonzero;fill:#000;fill-opacity:1;stroke-width:3.985;stroke-linecap:butt;stroke-linejoin:miter;stroke:#000;stroke-opacity:1;stroke-miterlimit:10" transform="matrix(.1 0 0 -.1 0 148)"/><use xlink:href="#b" x="40.634" y="144.18" style="fill:#000;fill-opacity:1"/><path d="M641.953 657.695c0 4.14-3.32 7.461-7.46 7.461-4.102 0-7.462-3.32-7.462-7.46s3.36-7.462 7.461-7.462c4.14 0 7.461 3.32 7.461 7.461zm0 0" style="fill-rule:nonzero;fill:#000;fill-opacity:1;stroke-width:3.985;stroke-linecap:butt;stroke-linejoin:miter;stroke:#000;stroke-opacity:1;stroke-miterlimit:10" transform="matrix(.1 0 0 -.1 0 148)"/><use xlink:href="#c" x="60.45" y="144.18" style="fill:#000;fill-opacity:1"/><path d="M840.156 845.508c0 4.14-3.36 7.5-7.5 7.5-4.101 0-7.46-3.36-7.46-7.5 0-4.102 3.359-7.461 7.46-7.461 4.14 0 7.5 3.36 7.5 7.46zm0 0" style="fill-rule:nonzero;fill:#000;fill-opacity:1;stroke-width:3.985;stroke-linecap:butt;stroke-linejoin:miter;stroke:#000;stroke-opacity:1;stroke-miterlimit:10" transform="matrix(.1 0 0 -.1 0 148)"/><use xlink:href="#d" x="80.267" y="144.42" style="fill:#000;fill-opacity:1"/><path d="M1038.32 1033.36c0 4.1-3.36 7.46-7.46 7.46-4.141 0-7.5-3.36-7.5-7.46 0-4.141 3.359-7.462 7.5-7.462 4.1 0 7.46 3.32 7.46 7.461zm0 0" style="fill-rule:nonzero;fill:#000;fill-opacity:1;stroke-width:3.985;stroke-linecap:butt;stroke-linejoin:miter;stroke:#000;stroke-opacity:1;stroke-miterlimit:10" transform="matrix(.1 0 0 -.1 0 148)"/><use xlink:href="#e" x="100.084" y="144.18" style="fill:#000;fill-opacity:1"/><path d="M1236.484 1033.36c0 4.1-3.359 7.46-7.46 7.46-4.141 0-7.5-3.36-7.5-7.46 0-4.141 3.359-7.462 7.5-7.462a7.46 7.46 0 0 1 7.46 7.461zm0 0" style="fill-rule:nonzero;fill:#000;fill-opacity:1;stroke-width:3.985;stroke-linecap:butt;stroke-linejoin:miter;stroke:#000;stroke-opacity:1;stroke-miterlimit:10" transform="matrix(.1 0 0 -.1 0 148)"/><use xlink:href="#f" x="119.901" y="144.18" style="fill:#000;fill-opacity:1"/><path d="M1434.648 1221.172c0 4.14-3.359 7.46-7.46 7.46-4.141 0-7.5-3.32-7.5-7.46s3.359-7.461 7.5-7.461c4.101 0 7.46 3.32 7.46 7.46zm0 0" style="fill-rule:nonzero;fill:#000;fill-opacity:1;stroke-width:3.985;stroke-linecap:butt;stroke-linejoin:miter;stroke:#000;stroke-opacity:1;stroke-miterlimit:10" transform="matrix(.1 0 0 -.1 0 148)"/><use xlink:href="#g" x="139.717" y="144.18" style="fill:#000;fill-opacity:1"/><path d="M1632.813 1252.46c0 4.142-3.36 7.5-7.461 7.5a7.5 7.5 0 0 1-7.5-7.5c0-4.1 3.359-7.46 7.5-7.46 4.101 0 7.46 3.36 7.46 7.46zm0 0" style="fill-rule:nonzero;fill:#000;fill-opacity:1;stroke-width:3.985;stroke-linecap:butt;stroke-linejoin:miter;stroke:#000;stroke-opacity:1;stroke-miterlimit:10" transform="matrix(.1 0 0 -.1 0 148)"/><use xlink:href="#h" x="159.534" y="144.18" style="fill:#000;fill-opacity:1"/><path d="M1830.977 1271.29c0 4.1-3.32 7.46-7.461 7.46s-7.461-3.36-7.461-7.46c0-4.142 3.32-7.5 7.46-7.5s7.462 3.358 7.462 7.5zm0 0" style="fill-rule:nonzero;fill:#000;fill-opacity:1;stroke-width:3.985;stroke-linecap:butt;stroke-linejoin:miter;stroke:#000;stroke-opacity:1;stroke-miterlimit:10" transform="matrix(.1 0 0 -.1 0 148)"/><use xlink:href="#i" x="179.351" y="144.18" style="fill:#000;fill-opacity:1"/><path d="M2029.14 1283.79c0 4.14-3.359 7.5-7.46 7.5-4.14 0-7.461-3.36-7.461-7.5 0-4.102 3.32-7.462 7.46-7.462 4.102 0 7.462 3.36 7.462 7.461zm0 0" style="fill-rule:nonzero;fill:#000;fill-opacity:1;stroke-width:3.985;stroke-linecap:butt;stroke-linejoin:miter;stroke:#000;stroke-opacity:1;stroke-miterlimit:10" transform="matrix(.1 0 0 -.1 0 148)"/><use xlink:href="#a" x="196.167" y="144.42" style="fill:#000;fill-opacity:1"/><use xlink:href="#j" x="202.167" y="144.42" style="fill:#000;fill-opacity:1"/></svg>