<svg xmlns="http://www.w3.org/2000/svg" xmlns:xlink="http://www.w3.org/1999/xlink" width="244" height="80pt" viewBox="0 0 183 80"><defs><symbol id="a" overflow="visible"><path d="M5.422-5.047a2.05 2.05 0 0 0-1.563-.719c-2 0-3.687 1.97-3.687 3.907C.172-.5.984.125 2.282.125c.905 0 1.765-.688 2.452-1.219l-.093-.234c-.547.39-1.22.86-1.922.86-.86 0-1.485-.954-1.485-1.72 0-.156.016-.28.032-.437.28-.047.562-.047.843-.047h.688c.36 0 .734 0 1.094.016l.078-.063.172-.422c-.938.016-1.86.016-2.797.016.203-1.047.828-2.11 2.031-2.11.719 0 1 .22 1.328.829h.234zm0 0" style="stroke:none"/></symbol><symbol id="b" overflow="visible"><path d="M5.563-4.438c0-.796-.282-1.328-.704-1.328-.515 0-1.125.329-1.765.875-.469.438-.735.735-1.156 1.438l.28-1.422c.048-.203.063-.39.063-.531 0-.219-.094-.36-.265-.36-.25 0-.704.25-1.579.891l-.343.234.078.235.39-.25c.329-.203.47-.266.579-.266s.203.11.203.266c0 .11-.032.343-.047.453L.594-.093.016 2.78l-.094.453.078.063c.25-.078.484-.14.875-.203l.5-3.125.11.031c.312.11.484.125.624.125.657 0 2.032-.86 2.547-1.625.5-.719.907-2.031.907-2.938zm-.86.188c0 .969-.484 2.39-1.125 3.297-.234.344-.61.515-1.11.515A1.8 1.8 0 0 1 1.5-.703l.203-1.266C1.97-3.5 3.25-5.062 4.25-5.062c.297 0 .453.25.453.812m0 0" style="stroke:none"/></symbol><symbol id="c" overflow="visible"><path d="m5.36-.938-.094-.234c-.438.36-.735.531-.922.531C4.156-.64 4-.75 3.89-.984a4.8 4.8 0 0 1-.313-1.032l-.203-1.203.422-.578c.547-.781.875-1.062 1.25-1.062.187 0 .328.109.39.28l.172-.046.172-1.016c-.14-.078-.25-.125-.36-.125-.468 0-.952.438-1.687 1.532l-.453.656-.062-.563c-.14-1.187-.469-1.625-1.172-1.625-.313 0-.578.094-.688.25l-.687 1 .203.11c.36-.407.594-.563.828-.563.39 0 .656.485.86 1.657l.124.75-.468.734C1.703-1.031 1.297-.641.953-.641.781-.64.641-.687.625-.75l-.14-.344-.235.047c0 .234-.016.39-.094.766-.031.156-.031.187-.047.265.172.094.375.141.516.141.39 0 .86-.344 1.234-.906l.907-1.39.125.827C3.062-.328 3.328.125 3.75.125c.266 0 .656-.203 1.031-.547zm0 0" style="stroke:none"/></symbol><symbol id="d" overflow="visible"><path d="M3.656.031v-.265l-.453-.032c-.484-.03-.562-.125-.562-.578v-5.203l-.125-.031a15 15 0 0 1-1.985.844l.063.375h.078c.39-.188.781-.36 1.156-.516.063 0 .078.078.078.281v4.25c0 .453-.093.547-.578.578l-.484.032V.03C1.328.016 1.813 0 2.28 0c.469 0 .922.016 1.375.031zm0 0" style="stroke:none"/></symbol><symbol id="e" overflow="visible"><path d="M4.11.031c-.032-.187-.032-.281-.032-.406 0-.11 0-.188.031-.39l-3.046.093 1.609-1.687c.844-.907 1.11-1.391 1.11-2.047 0-1.016-.688-1.64-1.798-1.64-.64 0-1.062.187-1.5.624l-.14 1.188h.25l.11-.407c.14-.5.468-.718 1.046-.718.75 0 1.234.468 1.234 1.218 0 .657-.359 1.297-1.359 2.36L.141-.203V.03C.78.016 1.453 0 2.094 0c.672 0 1.344.016 2.015.031zm0 0" style="stroke:none"/></symbol><symbol id="f" overflow="visible"><path d="M4.047-1.969c0-.422-.172-.781-.484-1-.22-.156-.422-.234-.86-.312.703-.547.953-.938.953-1.469 0-.766-.64-1.297-1.61-1.297-.593 0-1 .172-1.421.594L.375-4.36h.281l.156-.5c.094-.297.641-.594 1.094-.594.578 0 1.032.469 1.032 1.016 0 .656-.516 1.218-1.126 1.218-.078 0-.421-.031-.421-.031l-.11.469.063.047c.343-.157.5-.188.75-.188.719 0 1.14.453 1.14 1.25 0 .906-.53 1.484-1.343 1.484-.407 0-.766-.124-1.032-.374C.656-.75.531-.954.375-1.422l-.25.078c.188.532.266.86.313 1.297.468.156.843.219 1.171.219 1.063 0 2.438-.922 2.438-2.14zm0 0" style="stroke:none"/></symbol><symbol id="g" overflow="visible"><path d="M4.14.031v-.265l-.42-.032c-.438-.03-.531-.14-.531-.656v-.672c.515 0 .703.016.953.047v-.625s-.438.031-.72.031h-.233v-1.218c0-1.563.015-2.329.062-2.688l-.11-.031-.64.234L.016-1.78l.093.187h2.344v.672c0 .516-.094.64-.531.656l-.531.032V.03C1.859.016 2.328 0 2.797 0c.453 0 .89.016 1.344.031zM2.454-2.14H.563l1.89-3.093zm0 0" style="stroke:none"/></symbol><symbol id="h" overflow="visible"><path d="M4.031-2.219c0-.984-.718-1.687-1.718-1.687-.422 0-.735.11-1.282.437l.078-1.828 2.672.031.047-.03c-.015-.173-.015-.22-.015-.345 0-.14 0-.203.015-.359l-.047-.047S2.86-6 2.266-6 .734-6.047.734-6.047L.688-6l.015 1.203c0 .766-.015 1.594-.047 1.969l.172.062c.422-.421.656-.53 1.078-.53.844 0 1.375.593 1.375 1.53 0 .985-.562 1.547-1.515 1.547-.485 0-.922-.156-1.032-.39l-.406-.72-.219.126c.204.5.313.781.438 1.172.234.125.594.203.969.203.593 0 1.203-.25 1.687-.672.547-.469.828-1.063.828-1.719m0 0" style="stroke:none"/></symbol><symbol id="i" overflow="visible"><path d="M4.11-1.922c0-1-.61-1.656-1.548-1.656-.515 0-.828.203-1.421.672.187-1.578.921-2.438 2.5-2.922v-.063l-.313-.156c-.844.281-1.203.469-1.656.844C.766-4.437.282-3.36.282-2.172.281-.719.983.172 2.108.172c1.141 0 2-.906 2-2.094zm-.766.313c0 .906-.438 1.5-1.125 1.5-.735 0-1.14-.641-1.14-1.813 0-.312.03-.484.124-.625.203-.297.61-.515 1.031-.515.672 0 1.11.578 1.11 1.453m0 0" style="stroke:none"/></symbol><symbol id="j" overflow="visible"><path d="M4.36-5.781v-.266C3.405-6 3.327-6 2.39-6c-.92 0-1.061 0-1.92-.047L.39-6s.015.563.015.922-.015.89-.015.89h.265l.047-.484c.078-.547.14-.61.547-.61h2.328c-.344.72-.61 1.22-.953 1.75L.485-.093l.078.125S.813 0 .969 0s.406.031.406.031C1.75-.922 1.969-1.5 2.75-2.89zm0 0" style="stroke:none"/></symbol><symbol id="k" overflow="visible"><path d="M4.063-1.813c0-.687-.313-1.078-1.313-1.53.797-.548 1.078-.907 1.078-1.438 0-.75-.625-1.266-1.562-1.266-1.032 0-1.797.672-1.797 1.594 0 .594.234.922 1 1.422-.36.172-.5.265-.703.453-.329.328-.5.734-.5 1.187C.266-.484.984.172 1.984.172c1.141 0 2.079-.89 2.079-1.984zm-.688.375c0 .735-.547 1.313-1.266 1.313-.734 0-1.218-.531-1.218-1.344 0-.64.25-1.031.89-1.437l.703.328c.563.234.891.672.891 1.14m-.156-3.25c0 .5-.219.844-.781 1.22l-.485-.235c-.547-.281-.828-.625-.828-1.063 0-.578.422-.968 1.047-.968.64 0 1.047.406 1.047 1.046m0 0" style="stroke:none"/></symbol><symbol id="l" overflow="visible"><path d="M4-3.656c0-1.485-.703-2.39-1.86-2.39-1.124 0-1.968.89-1.968 2.062 0 1 .656 1.734 1.578 1.734.297 0 .64-.094.797-.219l.61-.515C3.077-1.5 2.124-.422.546-.047v.078l.297.14c.969-.312 1.39-.515 1.86-.921C3.561-1.469 4-2.484 4-3.656m-.75-.469c0 .797-.469 1.344-1.14 1.344-.704 0-1.188-.625-1.188-1.531 0-.891.469-1.438 1.187-1.438.391 0 .672.172.875.516.157.28.266.718.266 1.109m0 0" style="stroke:none"/></symbol><symbol id="m" overflow="visible"><path d="M4.078-3.203c0-1.922-.578-2.844-1.766-2.844C.954-6.047.25-4.969.25-2.844.25-1.813.438-.922.75-.5c.297.438.797.672 1.344.672 1.312 0 1.984-1.14 1.984-3.375m-.734.437c0 1.86-.344 2.641-1.14 2.641-.86 0-1.22-.89-1.22-3.031 0-1.844.329-2.578 1.157-2.578.859 0 1.203.859 1.203 2.968m0 0" style="stroke:none"/></symbol></defs><path d="M1251.758 417.852c0 1.093-.86 1.953-1.992 1.953-1.094 0-1.993-.86-1.993-1.953 0-1.133.899-1.993 1.993-1.993 1.132 0 1.992.86 1.992 1.993zm-1.055 19.882c0 1.094-.86 1.993-1.992 1.993-1.055 0-1.953-.899-1.953-1.993 0-1.132.898-1.992 1.953-1.992 1.133 0 1.992.86 1.992 1.992zm-2.07 19.806c0 1.054-.899 1.952-1.992 1.952a1.96 1.96 0 0 1-1.954-1.953c0-1.133.86-1.992 1.954-1.992s1.992.86 1.992 1.992zm-3.086 19.648a2 2 0 0 1-1.992 1.992 1.976 1.976 0 0 1-1.993-1.993c0-1.093.86-1.992 1.993-1.992a2 2 0 0 1 1.992 1.993zm-4.18 19.452c0 1.094-.86 1.993-1.992 1.993-1.094 0-1.953-.899-1.953-1.992 0-1.094.86-1.993 1.953-1.993 1.133 0 1.992.899 1.992 1.993zm-5.117 19.258c0 1.094-.898 1.954-1.992 1.954s-1.992-.86-1.992-1.954c0-1.132.898-1.992 1.992-1.992s1.992.86 1.992 1.992zm-6.172 18.907a2 2 0 0 1-1.992 1.992 2 2 0 0 1-1.992-1.992 2 2 0 0 1 1.992-1.992 2 2 0 0 1 1.992 1.992zm-7.109 18.593a2 2 0 0 1-1.992 1.993 1.976 1.976 0 0 1-1.993-1.993c0-1.093.86-1.992 1.993-1.992a2 2 0 0 1 1.992 1.992zm-8.125 18.165a1.976 1.976 0 0 1-1.992 1.992c-1.094 0-1.954-.86-1.954-1.992 0-1.094.86-1.954 1.954-1.954s1.992.86 1.992 1.953zm-9.024 17.773a2 2 0 0 1-1.992 1.992 2 2 0 0 1-1.992-1.992c0-1.133.898-1.992 1.992-1.992s1.992.86 1.992 1.992zm-9.96 17.227a2 2 0 0 1-1.993 1.992 2 2 0 0 1-1.992-1.992 2 2 0 0 1 1.992-1.993 2 2 0 0 1 1.992 1.992zM1185 623.281c0 1.094-.898 1.953-1.992 1.953a1.934 1.934 0 0 1-1.953-1.953c0-1.133.86-1.992 1.953-1.992 1.094 0 1.992.86 1.992 1.992zm-11.68 16.094c0 1.055-.898 1.953-1.992 1.953s-1.992-.898-1.992-1.953a2 2 0 0 1 1.992-1.992 2 2 0 0 1 1.992 1.992zm-12.539 15.469a2 2 0 0 1-1.992 1.992 2 2 0 0 1-1.992-1.992c0-1.133.898-1.992 1.992-1.992s1.992.859 1.992 1.992zm-13.321 14.766a2 2 0 0 1-1.991 1.992c-1.094 0-1.953-.899-1.953-1.993 0-1.093.859-1.992 1.953-1.992a2 2 0 0 1 1.992 1.992zm-14.062 14.1c0 1.095-.898 1.954-1.992 1.954s-1.992-.86-1.992-1.953a2 2 0 0 1 1.992-1.992 2 2 0 0 1 1.992 1.992zm-14.804 13.321a2 2 0 0 1-1.992 1.992 2 2 0 0 1-1.993-1.992 2 2 0 0 1 1.993-1.992 2 2 0 0 1 1.992 1.992zm-15.469 12.539c0 1.055-.898 1.953-1.992 1.953s-1.992-.898-1.992-1.953c0-1.133.898-1.992 1.992-1.992s1.992.86 1.992 1.992zm-16.133 11.68c0 1.094-.86 1.992-1.953 1.992a2 2 0 0 1-1.992-1.992 2 2 0 0 1 1.992-1.992c1.094 0 1.953.898 1.953 1.992zm-16.679 10.86a1.96 1.96 0 0 1-1.954 1.952c-1.132 0-1.992-.859-1.992-1.953 0-1.132.86-1.992 1.992-1.992 1.055 0 1.954.86 1.954 1.992zm-17.227 9.921a2 2 0 0 1-1.992 1.992 2 2 0 0 1-1.992-1.992 2 2 0 0 1 1.992-1.992 2 2 0 0 1 1.992 1.992zm-17.734 9.063a2 2 0 0 1-1.993 1.992 2 2 0 0 1-1.992-1.992 2 2 0 0 1 1.992-1.992 2 2 0 0 1 1.993 1.992zm-18.204 8.086a1.976 1.976 0 0 1-1.992 1.992 2 2 0 0 1-1.992-1.992 2 2 0 0 1 1.992-1.992c1.133 0 1.992.898 1.992 1.992zm-18.593 7.148c0 1.094-.86 1.992-1.992 1.992-1.094 0-1.954-.898-1.954-1.992 0-1.133.86-1.992 1.953-1.992 1.133 0 1.993.86 1.993 1.992zm-18.907 6.132a2 2 0 0 1-1.992 1.993 2 2 0 0 1-1.992-1.992 2 2 0 0 1 1.992-1.992 2 2 0 0 1 1.992 1.992zm-19.258 5.157c0 1.094-.859 1.992-1.952 1.992a1.976 1.976 0 0 1-1.993-1.992c0-1.094.86-1.992 1.992-1.992 1.094 0 1.954.898 1.954 1.992zm-19.452 4.141a2 2 0 0 1-1.993 1.992 2 2 0 0 1-1.992-1.992 2 2 0 0 1 1.992-1.992 2 2 0 0 1 1.992 1.992zm-19.648 3.125a2 2 0 0 1-1.993 1.992 1.976 1.976 0 0 1-1.992-1.992c0-1.094.86-1.992 1.992-1.992a2 2 0 0 1 1.992 1.992zm-19.806 2.07a2 2 0 0 1-1.992 1.992 2 2 0 0 1-1.992-1.992 2 2 0 0 1 1.992-1.992 2 2 0 0 1 1.992 1.992zm-19.882 1.055c0 1.094-.899 1.953-1.993 1.953-1.093 0-1.992-.86-1.992-1.953 0-1.133.899-1.992 1.992-1.992 1.094 0 1.993.859 1.993 1.992zm-19.922 0c0 1.094-.86 1.953-1.992 1.953-1.094 0-1.993-.86-1.993-1.953 0-1.133.899-1.992 1.992-1.992 1.133 0 1.993.859 1.993 1.992zm-19.883-1.055a2 2 0 0 1-1.992 1.992 2 2 0 0 1-1.992-1.992 2 2 0 0 1 1.992-1.992 2 2 0 0 1 1.992 1.992zm-19.766-2.07a2 2 0 0 1-1.992 1.992 1.976 1.976 0 0 1-1.992-1.992c0-1.094.86-1.992 1.992-1.992a2 2 0 0 1 1.992 1.992zm-19.687-3.125a2 2 0 0 1-1.992 1.992 2 2 0 0 1-1.993-1.992 2 2 0 0 1 1.993-1.992 2 2 0 0 1 1.992 1.992zm-19.454-4.141a2 2 0 0 1-1.992 1.992 2 2 0 0 1-1.992-1.992 2 2 0 0 1 1.992-1.992 2 2 0 0 1 1.993 1.992zm-19.257-5.157a2 2 0 0 1-1.992 1.993 2 2 0 0 1-1.993-1.992 2 2 0 0 1 1.993-1.992 2 2 0 0 1 1.992 1.992zm-18.906-6.132a2 2 0 0 1-1.993 1.992 1.976 1.976 0 0 1-1.992-1.992c0-1.133.86-1.992 1.992-1.992 1.094 0 1.993.86 1.993 1.992zm-18.594-7.148a2 2 0 0 1-1.992 1.992 2 2 0 0 1-1.993-1.992 2 2 0 0 1 1.993-1.992 2 2 0 0 1 1.992 1.992zm-18.203-8.086c0 1.093-.86 1.992-1.992 1.992a2 2 0 0 1-1.993-1.992 2 2 0 0 1 1.992-1.992c1.133 0 1.993.898 1.993 1.992zm-17.735-9.063a2 2 0 0 1-1.992 1.992 2 2 0 0 1-1.992-1.992 2 2 0 0 1 1.992-1.992 2 2 0 0 1 1.992 1.992zm-17.265-9.921c0 1.093-.86 1.952-1.953 1.952-1.094 0-1.993-.859-1.993-1.953 0-1.132.899-1.992 1.993-1.992 1.093 0 1.953.86 1.953 1.992zm-16.68-10.86a2 2 0 0 1-1.992 1.992 2 2 0 0 1-1.992-1.992 2 2 0 0 1 1.992-1.992 2 2 0 0 1 1.992 1.992zm-16.094-11.68c0 1.055-.898 1.953-1.992 1.953s-1.992-.898-1.992-1.953c0-1.133.898-1.992 1.992-1.992s1.992.86 1.992 1.992zm-15.468-12.539a2 2 0 0 1-1.993 1.992 2 2 0 0 1-1.992-1.992 2 2 0 0 1 1.992-1.992 2 2 0 0 1 1.992 1.992zm-14.805-13.321c0 1.095-.899 1.954-1.992 1.954-1.094 0-1.993-.86-1.993-1.953a2 2 0 0 1 1.993-1.992 2 2 0 0 1 1.992 1.992zm-14.063-14.1a2 2 0 0 1-1.992 1.992 2 2 0 0 1-1.992-1.993 2 2 0 0 1 1.992-1.992 2 2 0 0 1 1.992 1.992zm-13.32-14.766a2 2 0 0 1-1.992 1.992 2 2 0 0 1-1.992-1.992c0-1.133.898-1.992 1.992-1.992s1.992.859 1.992 1.992zm-12.54-15.469c0 1.055-.898 1.953-1.991 1.953-1.094 0-1.992-.898-1.992-1.953a2 2 0 0 1 1.992-1.992 2 2 0 0 1 1.992 1.992zm-11.679-16.094c0 1.094-.898 1.953-1.992 1.953-1.133 0-1.992-.859-1.992-1.953 0-1.133.86-1.992 1.992-1.992 1.094 0 1.992.86 1.992 1.992zm-10.859-16.718a2 2 0 0 1-1.992 1.992 2 2 0 0 1-1.992-1.992 2 2 0 0 1 1.992-1.993 2 2 0 0 1 1.992 1.992zm-9.962-17.227a2 2 0 0 1-1.991 1.992 2 2 0 0 1-1.992-1.992c0-1.133.898-1.992 1.992-1.992s1.992.86 1.992 1.992zm-9.022-17.773a1.976 1.976 0 0 1-1.993 1.992 1.976 1.976 0 0 1-1.992-1.992c0-1.094.899-1.954 1.992-1.954 1.094 0 1.992.86 1.992 1.953zm-8.125-18.165c0 1.094-.86 1.993-1.954 1.993a2 2 0 0 1-1.992-1.993 2 2 0 0 1 1.992-1.992c1.094 0 1.953.899 1.953 1.992zm-7.11-18.593a2 2 0 0 1-1.992 1.992 2 2 0 0 1-1.992-1.992 2 2 0 0 1 1.992-1.992 2 2 0 0 1 1.992 1.992zm-6.172-18.907c0 1.094-.898 1.954-1.992 1.954s-1.992-.86-1.992-1.954c0-1.132.898-1.992 1.992-1.992s1.992.86 1.992 1.992zm-5.156-19.258c0 1.094-.86 1.993-1.953 1.993a2 2 0 0 1-1.992-1.992 2 2 0 0 1 1.992-1.993c1.094 0 1.953.899 1.953 1.993zm-4.141-19.452c0 1.093-.859 1.992-1.953 1.992a2 2 0 0 1-1.992-1.993 2 2 0 0 1 1.992-1.992c1.094 0 1.953.899 1.953 1.993zm-3.086-19.648c0 1.054-.898 1.952-1.992 1.952s-1.992-.898-1.992-1.953c0-1.133.899-1.992 1.992-1.992 1.094 0 1.992.86 1.992 1.992zm-2.07-19.806a2 2 0 0 1-1.992 1.993 1.976 1.976 0 0 1-1.992-1.993c0-1.132.86-1.992 1.992-1.992 1.094 0 1.992.86 1.992 1.992zm-1.055-19.882c0 1.093-.898 1.953-1.992 1.953s-1.992-.86-1.992-1.953c0-1.133.899-1.993 1.992-1.993 1.094 0 1.992.86 1.992 1.993zm0-19.922a2 2 0 0 1-1.992 1.992 2 2 0 0 1-1.992-1.992 2 2 0 0 1 1.992-1.993 2 2 0 0 1 1.992 1.993zm1.055-19.883a2 2 0 0 1-1.992 1.992 1.976 1.976 0 0 1-1.992-1.992c0-1.094.86-1.992 1.992-1.992a2 2 0 0 1 1.992 1.992zm2.07-19.805a2 2 0 0 1-1.992 1.992 2 2 0 0 1-1.992-1.992c0-1.094.899-1.953 1.992-1.953 1.094 0 1.992.86 1.992 1.953zm3.086-19.648c0 1.094-.859 1.992-1.953 1.992a2 2 0 0 1-1.992-1.992 2 2 0 0 1 1.992-1.992c1.094 0 1.953.898 1.953 1.992zm4.141-19.492c0 1.132-.86 1.992-1.953 1.992a1.976 1.976 0 0 1-1.992-1.992c0-1.094.898-1.954 1.992-1.954s1.953.86 1.953 1.954zm5.156-19.219a2 2 0 0 1-1.992 1.992 2 2 0 0 1-1.992-1.992 2 2 0 0 1 1.992-1.992 2 2 0 0 1 1.992 1.992zm6.172-18.945a1.976 1.976 0 0 1-1.992 1.992 1.976 1.976 0 0 1-1.992-1.993 2 2 0 0 1 1.992-1.992 2 2 0 0 1 1.992 1.993zm7.11-18.555c0 1.094-.86 1.992-1.954 1.992a2 2 0 0 1-1.992-1.992 2 2 0 0 1 1.992-1.992c1.094 0 1.953.898 1.953 1.992zm8.125-18.203a2 2 0 0 1-1.993 1.992 2 2 0 0 1-1.992-1.992 2 2 0 0 1 1.992-1.993 2 2 0 0 1 1.992 1.993zm9.022-17.735a2 2 0 0 1-1.991 1.993 2 2 0 0 1-1.992-1.993 2 2 0 0 1 1.992-1.992 2 2 0 0 1 1.992 1.992zm9.962-17.226a2 2 0 0 1-1.992 1.992 2 2 0 0 1-1.992-1.992 2 2 0 0 1 1.992-1.992 2 2 0 0 1 1.992 1.992zm10.859-16.719a2 2 0 0 1-1.992 1.992 1.976 1.976 0 0 1-1.992-1.992c0-1.094.86-1.992 1.992-1.992a2 2 0 0 1 1.992 1.992zm11.679-16.094a2 2 0 0 1-1.991 1.992 2 2 0 0 1-1.992-1.992 2 2 0 0 1 1.992-1.992 2 2 0 0 1 1.992 1.992zm12.54-15.468a2 2 0 0 1-1.992 1.992 2 2 0 0 1-1.992-1.993 2 2 0 0 1 1.992-1.992 2 2 0 0 1 1.992 1.993zm13.32-14.805a1.976 1.976 0 0 1-1.992 1.992 1.976 1.976 0 0 1-1.992-1.992 2 2 0 0 1 1.992-1.992 2 2 0 0 1 1.992 1.992zm14.063-14.063a2 2 0 0 1-1.992 1.993 2 2 0 0 1-1.993-1.993 2 2 0 0 1 1.993-1.992 2 2 0 0 1 1.992 1.992zm14.805-13.32a2 2 0 0 1-1.993 1.992 2 2 0 0 1-1.992-1.992 2 2 0 0 1 1.992-1.992 2 2 0 0 1 1.992 1.992zm15.468-12.54a2 2 0 0 1-1.992 1.993 2 2 0 0 1-1.992-1.992c0-1.094.898-1.953 1.992-1.953s1.992.86 1.992 1.953zm16.094-11.679a2 2 0 0 1-1.992 1.992 2 2 0 0 1-1.992-1.992 2 2 0 0 1 1.992-1.992 2 2 0 0 1 1.992 1.992zm16.68-10.859c0 1.094-.86 1.992-1.953 1.992a2 2 0 0 1-1.993-1.992 2 2 0 0 1 1.993-1.992c1.093 0 1.953.898 1.953 1.992zm17.265-9.922c0 1.055-.898 1.953-1.992 1.953s-1.992-.898-1.992-1.953c0-1.133.898-1.992 1.992-1.992s1.992.86 1.992 1.992zm17.735-9.062c0 1.093-.86 1.992-1.992 1.992a2 2 0 0 1-1.993-1.993 2 2 0 0 1 1.992-1.992c1.133 0 1.993.899 1.993 1.992zm18.203-8.086a2 2 0 0 1-1.992 1.992 2 2 0 0 1-1.993-1.992 2 2 0 0 1 1.993-1.993 2 2 0 0 1 1.992 1.993zm18.594-7.149a2 2 0 0 1-1.993 1.992 1.976 1.976 0 0 1-1.992-1.992c0-1.094.86-1.992 1.992-1.992a2 2 0 0 1 1.993 1.992zm18.906-6.133c0 1.094-.899 1.953-1.992 1.953-1.094 0-1.993-.859-1.993-1.953a2 2 0 0 1 1.993-1.992 2 2 0 0 1 1.992 1.992zm19.257-5.156a2 2 0 0 1-1.992 1.992 2 2 0 0 1-1.992-1.992 2 2 0 0 1 1.992-1.992 2 2 0 0 1 1.993 1.992zm19.454-4.141a2 2 0 0 1-1.992 1.993 2 2 0 0 1-1.993-1.993 2 2 0 0 1 1.993-1.992 2 2 0 0 1 1.992 1.992zm19.687-3.125a2 2 0 0 1-1.992 1.993 1.976 1.976 0 0 1-1.992-1.993c0-1.093.86-1.992 1.992-1.992a2 2 0 0 1 1.992 1.992zm19.766-2.07a2 2 0 0 1-1.992 1.992 2 2 0 0 1-1.992-1.992c0-1.133.898-1.992 1.992-1.992s1.992.86 1.992 1.992zm19.883-1.055c0 1.094-.86 1.993-1.992 1.993a2 2 0 0 1-1.993-1.993 2 2 0 0 1 1.992-1.992c1.133 0 1.993.899 1.993 1.992zm19.922 0a2 2 0 0 1-1.993 1.993 2 2 0 0 1-1.992-1.993 2 2 0 0 1 1.992-1.992 2 2 0 0 1 1.993 1.992zm19.882 1.055a2 2 0 0 1-1.992 1.992 2 2 0 0 1-1.992-1.992c0-1.133.898-1.992 1.992-1.992s1.992.86 1.992 1.992zm19.806 2.07a2 2 0 0 1-1.993 1.993 1.976 1.976 0 0 1-1.992-1.993c0-1.093.86-1.992 1.992-1.992a2 2 0 0 1 1.992 1.992zm19.648 3.125a2 2 0 0 1-1.993 1.993 2 2 0 0 1-1.992-1.993 2 2 0 0 1 1.992-1.992 2 2 0 0 1 1.992 1.992zm19.452 4.141c0 1.094-.859 1.992-1.952 1.992a1.976 1.976 0 0 1-1.993-1.992c0-1.094.86-1.992 1.992-1.992 1.094 0 1.954.898 1.954 1.992zm19.258 5.156c0 1.094-.898 1.953-1.992 1.953s-1.992-.859-1.992-1.953a2 2 0 0 1 1.992-1.992 2 2 0 0 1 1.992 1.992zm18.907 6.133c0 1.094-.86 1.992-1.992 1.992-1.094 0-1.954-.898-1.954-1.992s.86-1.992 1.953-1.992c1.133 0 1.993.898 1.993 1.992zm18.593 7.149a1.976 1.976 0 0 1-1.992 1.992 2 2 0 0 1-1.992-1.992 2 2 0 0 1 1.992-1.993c1.133 0 1.992.899 1.992 1.993zm18.204 8.086a2 2 0 0 1-1.993 1.992 2 2 0 0 1-1.992-1.993 2 2 0 0 1 1.992-1.992 2 2 0 0 1 1.993 1.992zm17.734 9.062c0 1.055-.899 1.953-1.992 1.953-1.094 0-1.992-.898-1.992-1.953 0-1.133.898-1.992 1.992-1.992s1.992.86 1.992 1.992zm17.227 9.922c0 1.094-.899 1.992-1.954 1.992a1.976 1.976 0 0 1-1.992-1.992c0-1.094.86-1.992 1.992-1.992 1.055 0 1.954.898 1.954 1.992zm16.679 10.859c0 1.094-.86 1.992-1.953 1.992a2 2 0 0 1-1.992-1.992 2 2 0 0 1 1.992-1.992c1.094 0 1.953.898 1.953 1.992zm16.133 11.679a2 2 0 0 1-1.992 1.993 2 2 0 0 1-1.992-1.992c0-1.094.898-1.953 1.992-1.953s1.992.86 1.992 1.953zm15.469 12.54a2 2 0 0 1-1.992 1.992 2 2 0 0 1-1.993-1.992 2 2 0 0 1 1.993-1.992 2 2 0 0 1 1.992 1.992zm14.804 13.32a2 2 0 0 1-1.992 1.993 2 2 0 0 1-1.992-1.993 2 2 0 0 1 1.992-1.992 2 2 0 0 1 1.992 1.992zm14.062 14.063a1.976 1.976 0 0 1-1.991 1.992c-1.094 0-1.953-.86-1.953-1.992 0-1.094.859-1.992 1.953-1.992a2 2 0 0 1 1.992 1.992zm13.321 14.805a2 2 0 0 1-1.992 1.992 2 2 0 0 1-1.992-1.993 2 2 0 0 1 1.992-1.992 2 2 0 0 1 1.992 1.993zm12.539 15.468a2 2 0 0 1-1.992 1.992 2 2 0 0 1-1.992-1.992 2 2 0 0 1 1.992-1.992 2 2 0 0 1 1.992 1.992zM1185 192.5a2 2 0 0 1-1.992 1.992c-1.094 0-1.953-.898-1.953-1.992s.86-1.992 1.953-1.992A2 2 0 0 1 1185 192.5zm10.86 16.719a2 2 0 0 1-1.993 1.992 2 2 0 0 1-1.992-1.992 2 2 0 0 1 1.992-1.992 2 2 0 0 1 1.992 1.992zm9.96 17.226a2 2 0 0 1-1.992 1.993 2 2 0 0 1-1.992-1.993 2 2 0 0 1 1.992-1.992 2 2 0 0 1 1.992 1.992zm9.024 17.735a2 2 0 0 1-1.992 1.992c-1.094 0-1.954-.899-1.954-1.992 0-1.094.86-1.993 1.954-1.993a2 2 0 0 1 1.992 1.993zm8.125 18.203a2 2 0 0 1-1.992 1.992 1.976 1.976 0 0 1-1.993-1.992c0-1.094.86-1.992 1.993-1.992a2 2 0 0 1 1.992 1.992zm7.109 18.555a1.976 1.976 0 0 1-1.992 1.992 1.976 1.976 0 0 1-1.992-1.993 2 2 0 0 1 1.992-1.992 2 2 0 0 1 1.992 1.993zm6.172 18.945a2 2 0 0 1-1.992 1.992 2 2 0 0 1-1.992-1.992 2 2 0 0 1 1.992-1.992 2 2 0 0 1 1.992 1.992zm5.117 19.219c0 1.132-.86 1.992-1.992 1.992-1.094 0-1.953-.86-1.953-1.992 0-1.094.86-1.954 1.953-1.954 1.133 0 1.992.86 1.992 1.954zm4.18 19.492a2 2 0 0 1-1.992 1.992 1.976 1.976 0 0 1-1.993-1.992c0-1.094.86-1.992 1.993-1.992a2 2 0 0 1 1.992 1.992zm3.086 19.648a2 2 0 0 1-1.992 1.992c-1.094 0-1.954-.898-1.954-1.992s.86-1.953 1.954-1.953 1.992.86 1.992 1.953zm2.07 19.805c0 1.094-.86 1.992-1.992 1.992-1.055 0-1.953-.898-1.953-1.992s.898-1.992 1.953-1.992c1.133 0 1.992.898 1.992 1.992zm1.055 19.883c0 1.093-.86 1.992-1.992 1.992a2 2 0 0 1-1.993-1.992 2 2 0 0 1 1.993-1.993c1.132 0 1.992.899 1.992 1.993zm0 0" style="fill-rule:nonzero;fill:#000;fill-opacity:1;stroke-width:3.985;stroke-linecap:butt;stroke-linejoin:miter;stroke:#000;stroke-opacity:1;stroke-miterlimit:10" transform="matrix(.1 0 0 -.1 0 80)"/><path d="m869.648 407.89 203.164 316.407" style="fill:none;stroke-width:3.985;stroke-linecap:butt;stroke-linejoin:miter;stroke:#000;stroke-opacity:1;stroke-miterlimit:10" transform="matrix(.1 0 0 -.1 0 80)"/><path d="m106.836 8.266-2.738 7.03 3.183-7.726-5.699 6.114z" style="stroke:none;fill-rule:nonzero;fill:#000;fill-opacity:1"/><path d="m1068.36 717.344-27.383-70.313 31.835 77.266-56.992-61.133zm0 0" style="fill:none;stroke-width:3.985;stroke-linecap:butt;stroke-linejoin:miter;stroke:#000;stroke-opacity:1;stroke-miterlimit:10" transform="matrix(.1 0 0 -.1 0 80)"/><use xlink:href="#a" x="97.588" y="28.664" style="fill:#000;fill-opacity:1"/><path d="M879.61 407.89a9.953 9.953 0 0 1-9.962 9.962 9.953 9.953 0 0 1-9.96-9.961c0-5.508 4.453-10 9.96-10s9.961 4.492 9.961 10zm0 0" style="fill-rule:nonzero;fill:#000;fill-opacity:1;stroke-width:3.985;stroke-linecap:butt;stroke-linejoin:miter;stroke:#000;stroke-opacity:1;stroke-miterlimit:10" transform="matrix(.1 0 0 -.1 0 80)"/><use xlink:href="#b" x="83.845" y="48.837" style="fill:#000;fill-opacity:1"/><path d="M1707.852 495.313c0 4.14-3.36 7.46-7.461 7.46-4.141 0-7.5-3.32-7.5-7.46 0-4.102 3.359-7.461 7.5-7.461 4.101 0 7.46 3.359 7.46 7.46zm0 0" style="fill-rule:nonzero;fill:#000;fill-opacity:1;stroke-width:3.985;stroke-linecap:butt;stroke-linejoin:miter;stroke:#000;stroke-opacity:1;stroke-miterlimit:10" transform="matrix(.1 0 0 -.1 0 80)"/><use xlink:href="#c" x="164.638" y="40.093" style="fill:#000;fill-opacity:1"/><use xlink:href="#d" x="170.998" y="41.893" style="fill:#000;fill-opacity:1"/><path d="M1139.453 582.773c0 4.102-3.32 7.461-7.46 7.461a7.46 7.46 0 0 1-7.462-7.46c0-4.141 3.32-7.5 7.461-7.5 4.14 0 7.461 3.359 7.461 7.5zm0 0" style="fill-rule:nonzero;fill:#000;fill-opacity:1;stroke-width:3.985;stroke-linecap:butt;stroke-linejoin:miter;stroke:#000;stroke-opacity:1;stroke-miterlimit:10" transform="matrix(.1 0 0 -.1 0 80)"/><use xlink:href="#c" x="107.799" y="31.348" style="fill:#000;fill-opacity:1"/><use xlink:href="#e" x="114.159" y="33.148" style="fill:#000;fill-opacity:1"/><path d="M1401.797 233.008c0 4.14-3.36 7.46-7.461 7.46a7.435 7.435 0 0 1-7.461-7.46c0-4.14 3.32-7.461 7.46-7.461 4.102 0 7.462 3.32 7.462 7.46zm0 0" style="fill-rule:nonzero;fill:#000;fill-opacity:1;stroke-width:3.985;stroke-linecap:butt;stroke-linejoin:miter;stroke:#000;stroke-opacity:1;stroke-miterlimit:10" transform="matrix(.1 0 0 -.1 0 80)"/><use xlink:href="#c" x="134.033" y="66.325" style="fill:#000;fill-opacity:1"/><use xlink:href="#f" x="140.393" y="68.125" style="fill:#000;fill-opacity:1"/><path d="M265 783.867c0 4.14-3.36 7.5-7.46 7.5-4.142 0-7.462-3.36-7.462-7.5a7.46 7.46 0 0 1 7.461-7.46c4.102 0 7.461 3.359 7.461 7.46zm0 0" style="fill-rule:nonzero;fill:#000;fill-opacity:1;stroke-width:3.985;stroke-linecap:butt;stroke-linejoin:miter;stroke:#000;stroke-opacity:1;stroke-miterlimit:10" transform="matrix(.1 0 0 -.1 0 80)"/><use xlink:href="#c" x="20.354" y="11.237" style="fill:#000;fill-opacity:1"/><use xlink:href="#g" x="26.714" y="13.037" style="fill:#000;fill-opacity:1"/><path d="M90.117 145.547c0 4.14-3.36 7.5-7.46 7.5-4.141 0-7.5-3.36-7.5-7.5 0-4.102 3.359-7.461 7.5-7.461 4.1 0 7.46 3.36 7.46 7.46zm0 0" style="fill-rule:nonzero;fill:#000;fill-opacity:1;stroke-width:3.985;stroke-linecap:butt;stroke-linejoin:miter;stroke:#000;stroke-opacity:1;stroke-miterlimit:10" transform="matrix(.1 0 0 -.1 0 80)"/><use xlink:href="#c" x="2.864" y="75.069" style="fill:#000;fill-opacity:1"/><use xlink:href="#h" x="9.224" y="76.869" style="fill:#000;fill-opacity:1"/><path d="M439.883 320.43c0 4.14-3.32 7.46-7.461 7.46-4.102 0-7.461-3.32-7.461-7.46 0-4.102 3.36-7.461 7.46-7.461a7.46 7.46 0 0 1 7.462 7.46zm0 0" style="fill-rule:nonzero;fill:#000;fill-opacity:1;stroke-width:3.985;stroke-linecap:butt;stroke-linejoin:miter;stroke:#000;stroke-opacity:1;stroke-miterlimit:10" transform="matrix(.1 0 0 -.1 0 80)"/><use xlink:href="#c" x="37.843" y="57.581" style="fill:#000;fill-opacity:1"/><use xlink:href="#i" x="44.203" y="59.381" style="fill:#000;fill-opacity:1"/><path d="M745.938 189.297c0 4.101-3.32 7.46-7.461 7.46s-7.461-3.359-7.461-7.46c0-4.14 3.32-7.5 7.46-7.5s7.462 3.36 7.462 7.5zm0 0" style="fill-rule:nonzero;fill:#000;fill-opacity:1;stroke-width:3.985;stroke-linecap:butt;stroke-linejoin:miter;stroke:#000;stroke-opacity:1;stroke-miterlimit:10" transform="matrix(.1 0 0 -.1 0 80)"/><use xlink:href="#c" x="68.448" y="70.696" style="fill:#000;fill-opacity:1"/><use xlink:href="#j" x="74.808" y="72.496" style="fill:#000;fill-opacity:1"/><path d="M877.11 670.195c0 4.14-3.32 7.5-7.462 7.5-4.14 0-7.46-3.36-7.46-7.5 0-4.101 3.32-7.46 7.46-7.46a7.46 7.46 0 0 1 7.461 7.46zm0 0" style="fill-rule:nonzero;fill:#000;fill-opacity:1;stroke-width:3.985;stroke-linecap:butt;stroke-linejoin:miter;stroke:#000;stroke-opacity:1;stroke-miterlimit:10" transform="matrix(.1 0 0 -.1 0 80)"/><use xlink:href="#c" x="81.564" y="22.604" style="fill:#000;fill-opacity:1"/><use xlink:href="#k" x="87.924" y="24.404" style="fill:#000;fill-opacity:1"/><path d="M1034.531 320.43c0 4.14-3.36 7.46-7.5 7.46-4.101 0-7.46-3.32-7.46-7.46 0-4.102 3.359-7.461 7.46-7.461 4.14 0 7.5 3.36 7.5 7.46zm0 0" style="fill-rule:nonzero;fill:#000;fill-opacity:1;stroke-width:3.985;stroke-linecap:butt;stroke-linejoin:miter;stroke:#000;stroke-opacity:1;stroke-miterlimit:10" transform="matrix(.1 0 0 -.1 0 80)"/><use xlink:href="#c" x="97.305" y="57.581" style="fill:#000;fill-opacity:1"/><use xlink:href="#l" x="103.665" y="59.381" style="fill:#000;fill-opacity:1"/><path d="M745.938 539.063c0 4.101-3.32 7.46-7.461 7.46s-7.461-3.359-7.461-7.46c0-4.141 3.32-7.5 7.46-7.5s7.462 3.359 7.462 7.5zm0 0" style="fill-rule:nonzero;fill:#000;fill-opacity:1;stroke-width:3.985;stroke-linecap:butt;stroke-linejoin:miter;stroke:#000;stroke-opacity:1;stroke-miterlimit:10" transform="matrix(.1 0 0 -.1 0 80)"/><use xlink:href="#c" x="66.168" y="35.72" style="fill:#000;fill-opacity:1"/><use xlink:href="#d" x="72.528" y="37.52" style="fill:#000;fill-opacity:1"/><use xlink:href="#m" x="76.968" y="37.52" style="fill:#000;fill-opacity:1"/></svg>