<svg xmlns="http://www.w3.org/2000/svg" xmlns:xlink="http://www.w3.org/1999/xlink" width="332pt" height="244" viewBox="0 0 332 183"><defs><symbol id="a" overflow="visible"><path d="M3.234.031v-.36l-.546-.03c-.407-.016-.438-.11-.438-.86v-7.36l-.11-.093c-.53.203-.921.297-1.859.438v.328h.656c.22 0 .313.14.313.5v6.187c0 .75-.047.844-.453.86L.25-.33v.36c.5-.014 1-.03 1.5-.03s.984.016 1.484.031m0 0" style="stroke:none"/></symbol><symbol id="b" overflow="visible"><path d="M3.234.031v-.36l-.546-.03c-.407-.016-.438-.11-.438-.86v-4.343l-.11-.047a7.3 7.3 0 0 1-1.859.5v.328H.72c.469 0 .531.078.531.875v2.687c0 .75-.047.844-.453.86L.25-.33v.36c.5-.014 1-.03 1.5-.03s.984.016 1.484.031m-.89-7.64c0-.344-.235-.61-.594-.61-.36 0-.61.25-.61.61 0 .359.25.593.61.593s.594-.234.594-.593m0 0" style="stroke:none"/></symbol><symbol id="c" overflow="visible"><path d="M10.39.031v-.36l-.562-.03c-.406-.016-.437-.11-.437-.86v-2.468c0-1.172-.704-1.922-1.797-1.922-.422 0-.766.109-.985.296l-.906.813C5.313-5.281 4.828-5.61 4-5.61c-.438 0-.766.11-.984.298l-.829.765v-1.016l-.109-.046c-.61.25-1.234.421-1.86.5v.328h.438c.485 0 .531.078.531.875v2.687c0 .75-.046.844-.453.86l-.546.03v.36A49 49 0 0 1 1.702 0c.484 0 .953.016 1.422.031v-.36l-.5-.03c-.406-.016-.438-.11-.438-.86V-3.75c0-.547.782-1.125 1.5-1.125.657 0 1.094.61 1.094 1.516v2.14c0 .75-.031.844-.437.86l-.547.03v.36C4.297.016 4.78 0 5.28 0s1 .016 1.5.031v-.36l-.547-.03c-.406-.016-.453-.11-.453-.86V-3.75c0-.547.797-1.125 1.516-1.125.64 0 1.078.61 1.078 1.516V.03c.314-.014.641-.03.954-.03.36 0 .703.016 1.063.031zm0 0" style="stroke:none"/></symbol><symbol id="d" overflow="visible"><path d="M4.672-1.766c0-.375-.094-.656-.328-.89-.313-.313-.703-.438-1.766-.64-.969-.188-1.297-.438-1.297-.985 0-.594.422-.938 1.14-.938.813 0 1.423.422 1.423.985v.28h.328c.016-.702.031-.983.062-1.358-.64-.204-1.062-.297-1.562-.297-1.375 0-2.235.656-2.235 1.734 0 .578.266.984.813 1.234.328.141.969.329 1.781.516.531.11.766.375.766.828 0 .64-.61 1.094-1.453 1.094-.875 0-1.5-.422-1.5-1.016v-.484h-.36C.484-.891.454-.531.36-.047.984.156 1.453.234 2 .234c1.563 0 2.672-.828 2.672-2m0 0" style="stroke:none"/></symbol><symbol id="e" overflow="visible"><path d="M6.938.031v-.36l-.485-.03c-.406-.016-.437-.094-.437-.86v-4.343l-.11-.047c-.61.25-1.234.421-1.86.5v.328h.438c.47 0 .532.078.532.875v1.953c0 .25-.172.594-.454.86a1.57 1.57 0 0 1-1.187.515c-.406 0-.75-.14-.938-.36-.171-.203-.25-.562-.25-1.093v-3.531l-.109-.047c-.61.25-1.234.421-1.86.5v.328h.438c.485 0 .531.078.531.875v2c0 .843.063 1.218.282 1.515.265.36.718.532 1.406.532.531 0 1.016-.172 1.328-.47l.813-.734c0 .344-.016.532-.063 1.094.344-.015.672-.031 1-.031s.656.016.984.031zm0 0" style="stroke:none"/></symbol><symbol id="f" overflow="visible"><path d="M6.625-3.234c0-1.329-1.11-2.375-2.484-2.375-.454 0-.875.125-1.063.296l-.984.907v-1.157l-.11-.046a7.3 7.3 0 0 1-1.859.5v.328h.438c.484 0 .53.078.53.875v6.015c0 .75-.046.829-.452.86L.094 3v.36c.5-.032 1-.032 1.5-.032s.984 0 1.484.031V3l-.547-.031c-.406-.031-.437-.11-.437-.86V-.156c.36.218.734.297 1.281.297.344 0 .656-.063.844-.188l1.36-.89c.484-.313 1.046-1.532 1.046-2.297m-1.047.437c0 1.344-.797 2.328-1.875 2.328-.656 0-1.14-.219-1.61-.703v-2.484c0-.172.063-.297.22-.5.343-.453.828-.672 1.421-.672 1.125 0 1.844.781 1.844 2.031m0 0" style="stroke:none"/></symbol><symbol id="k" overflow="visible"><path d="M6.844.031v-.36l-.5-.03c-.407-.016-.438-.094-.438-.86V-3.53c0-1.39-.656-2.078-2-2.078-.437 0-.687.093-.937.296l-.906.797v-1.046l-.11-.047c-.61.25-1.234.421-1.875.5v.328h.453c.469 0 .516.078.516.875v2.687c0 .75-.031.844-.438.86l-.53.03v.36C.561.016 1.062 0 1.546 0c.5 0 1 .016 1.484.031v-.36L2.5-.358c-.406-.016-.438-.11-.438-.86V-3.75c0-.547.782-1.125 1.516-1.125.797 0 1.328.594 1.328 1.516V.03C5.22.016 5.531 0 5.844 0c.343 0 .656.016 1 .031m0 0" style="stroke:none"/></symbol><symbol id="l" overflow="visible"><path d="M4.078-7.656v-.922c-.25-.094-.39-.125-.547-.125-.39 0-.812.203-1.062.5l-.703.797c-.344.39-.5.922-.5 1.718v.5l-.829.375v.266l.829-.062v3.39c0 .75-.032.844-.438.86l-.547.03v.36C.781.016 1.266 0 1.766 0s1 .016 1.5.031v-.36l-.547-.03c-.406-.016-.453-.11-.453-.86v-3.39H3.75l.094-.625c-.531.03-1.047.046-1.578.046v-1.015c0-1.375.156-1.703.843-1.703.329 0 .532.078.829.328zm0 0" style="stroke:none"/></symbol><symbol id="g" overflow="visible"><path d="m4.5-.75-.078-.156-.234.156c-.25.156-.438.266-.532.266-.062 0-.11-.079-.11-.188 0-.031 0-.14.017-.172l.578-2.422c.062-.25.093-.5.093-.64 0-.203-.093-.313-.265-.313-.375 0-.985.328-1.5.813-.328.297-.578.594-1.031 1.234l.328-1.406a1.3 1.3 0 0 0 .062-.36c0-.187-.078-.28-.203-.28-.188 0-.531.187-1.172.64l-.25.172.063.187.28-.187c.329-.219.36-.219.423-.219.094 0 .156.078.156.219 0 .437-.36 2.14-.719 3.39L.47.078a6 6 0 0 1 .61-.14c.171-1.11.359-1.688.75-2.282.484-.734 1.14-1.281 1.53-1.281.094 0 .141.078.141.203 0 .156-.016.344-.094.625l-.453 1.86c-.078.328-.11.53-.11.671 0 .22.095.344.266.344.22 0 .532-.187 1.391-.828zm0 0" style="stroke:none"/></symbol><symbol id="h" overflow="visible"><path d="M8.875-2.39 7.062-4.267l-.28.297 1.093 1.344H.562v.516h7.313L6.781-.781l.282.297zm0 0" style="stroke:none"/></symbol><symbol id="i" overflow="visible"><path d="M7.39-2.484c0-.844-.452-1.563-1.374-1.563-.75 0-1.5.734-1.954 1.281-.39-.625-1.14-1.296-1.921-1.296-1.016 0-1.657.984-1.657 1.921 0 .844.47 1.563 1.375 1.563.735 0 1.547-.75 1.97-1.313.421.641 1.093 1.329 1.905 1.329 1.032 0 1.657-1 1.657-1.922zm-.53.421c0 .61-.298 1.11-.954 1.11-.703 0-1.328-1.031-1.687-1.531.281-.422 1.015-1.094 1.531-1.094.734 0 1.11.89 1.11 1.515M3.655-2.14c-.265.407-1.015 1.079-1.531 1.079-.734 0-1.094-.907-1.094-1.532 0-.61.313-1.125.969-1.125.625 0 1.39 1.047 1.656 1.578m0 0" style="stroke:none"/></symbol><symbol id="j" overflow="visible"><path d="m5.36-.938-.094-.234c-.438.36-.735.531-.922.531C4.156-.64 4-.75 3.89-.984a4.8 4.8 0 0 1-.313-1.032l-.203-1.203.422-.578c.547-.781.875-1.062 1.25-1.062.187 0 .328.109.39.28l.172-.046.172-1.016c-.14-.078-.25-.125-.36-.125-.468 0-.952.438-1.687 1.532l-.453.656-.062-.563c-.14-1.187-.469-1.625-1.172-1.625-.313 0-.578.094-.688.25l-.687 1 .203.11c.36-.407.594-.563.828-.563.39 0 .656.485.86 1.657l.124.75-.468.734C1.703-1.031 1.297-.641.953-.641.781-.64.641-.687.625-.75l-.14-.344-.235.047c0 .234-.016.39-.094.766-.031.156-.031.187-.047.265.172.094.375.141.516.141.39 0 .86-.344 1.234-.906l.907-1.39.125.827C3.062-.328 3.328.125 3.75.125c.266 0 .656-.203 1.031-.547zm0 0" style="stroke:none"/></symbol><symbol id="m" overflow="visible"><path d="M5.922-3.234 3.219-6.031.53-3.234 3.22-.438zm-.766 0L3.22-1.188 1.297-3.233l1.922-2.032zm0 0" style="stroke:none"/></symbol></defs><path d="M668.398 988.75h28.594m57.266 0h28.633m-.001 0h28.594m57.226 0h28.634m0 0h28.633m57.265 0h28.633m0 0h28.594m57.265 0h28.594m0 0h28.633m57.266 0h28.632m.001 0h28.632m57.227 0h28.633m0 0h28.593m57.265 0h28.634m0 0h28.633m57.226 0h28.633m0 0h28.633m57.226 0h28.633m0 0h28.633m57.227 0h28.632m0 0h28.633m57.266 0h28.593m.001 0h28.632m57.227 0h28.633m0 0h28.632m57.266 0h28.594m0 0h28.633m57.265 0h28.594m.001 0h28.632m57.266 0h28.593m0 0h28.633m57.266 0h28.593m0 0h28.633m57.266 0h28.633m0 0h28.593m57.266 0h28.633m0 0h28.594m57.265 0h28.633m.001 0h28.593m57.265 0h28.633m0 0h28.594m57.265 0h28.633m0 0h28.633m57.227 0h28.633M668.398 165.898h2518.868" style="fill:none;stroke-width:3.985;stroke-linecap:butt;stroke-linejoin:miter;stroke:#000;stroke-opacity:1;stroke-miterlimit:10" transform="matrix(.1 0 0 -.1 0 183)"/><use xlink:href="#a" x="6.176" y="82.325" style="fill:#000;fill-opacity:1"/><use xlink:href="#b" x="9.656" y="82.325" style="fill:#000;fill-opacity:1"/><use xlink:href="#c" x="13.136" y="82.325" style="fill:#000;fill-opacity:1"/><use xlink:href="#d" x="25.737" y="82.325" style="fill:#000;fill-opacity:1"/><use xlink:href="#e" x="30.777" y="82.325" style="fill:#000;fill-opacity:1"/><use xlink:href="#f" x="37.977" y="82.325" style="fill:#000;fill-opacity:1"/><use xlink:href="#g" x="14.456" y="93.245" style="fill:#000;fill-opacity:1"/><use xlink:href="#h" x="19.736" y="93.245" style="fill:#000;fill-opacity:1"/><use xlink:href="#i" x="29.216" y="93.245" style="fill:#000;fill-opacity:1"/><use xlink:href="#j" x="49.496" y="82.325" style="fill:#000;fill-opacity:1"/><use xlink:href="#g" x="55.976" y="84.125" style="fill:#000;fill-opacity:1"/><use xlink:href="#a" x="11.216" y="166.291" style="fill:#000;fill-opacity:1"/><use xlink:href="#b" x="14.696" y="166.291" style="fill:#000;fill-opacity:1"/><use xlink:href="#c" x="18.176" y="166.291" style="fill:#000;fill-opacity:1"/><use xlink:href="#b" x="30.777" y="166.291" style="fill:#000;fill-opacity:1"/><use xlink:href="#k" x="34.257" y="166.291" style="fill:#000;fill-opacity:1"/><use xlink:href="#l" x="41.217" y="166.291" style="fill:#000;fill-opacity:1"/><use xlink:href="#g" x="16.856" y="173.971" style="fill:#000;fill-opacity:1"/><use xlink:href="#h" x="22.136" y="173.971" style="fill:#000;fill-opacity:1"/><use xlink:href="#i" x="31.616" y="173.971" style="fill:#000;fill-opacity:1"/><use xlink:href="#j" x="49.496" y="166.291" style="fill:#000;fill-opacity:1"/><use xlink:href="#g" x="55.976" y="168.091" style="fill:#000;fill-opacity:1"/><path d="M680.898 165.898h2506.368" style="fill:none;stroke-width:3.985;stroke-linecap:butt;stroke-linejoin:miter;stroke:#000;stroke-opacity:1;stroke-miterlimit:10" transform="matrix(.1 0 0 -.1 0 183)"/><path d="M67.84 163.422h.601v6h-.601zm250.633 0h.601v6h-.601zm0 0" style="stroke:none;fill-rule:nonzero;fill:#000;fill-opacity:1"/><path d="M680.898 165.898v1645.704" style="fill:none;stroke-width:3.985;stroke-linecap:butt;stroke-linejoin:miter;stroke:#000;stroke-opacity:1;stroke-miterlimit:10" transform="matrix(.1 0 0 -.1 0 183)"/><path d="M65.078 166.063h6v.601h-6zm0-82.286h6v.602h-6zm0-82.289h6v.602h-6zm0 0" style="stroke:none;fill-rule:nonzero;fill:#000;fill-opacity:1"/><path d="M813.672 1811.602c0 4.14-3.32 7.5-7.461 7.5-4.102 0-7.461-3.36-7.461-7.5 0-4.102 3.36-7.461 7.46-7.461a7.46 7.46 0 0 1 7.462 7.46zm0 0" style="fill-rule:nonzero;fill:#000;fill-opacity:1;stroke-width:3.985;stroke-linecap:butt;stroke-linejoin:miter;stroke:#000;stroke-opacity:1;stroke-miterlimit:10" transform="matrix(.1 0 0 -.1 0 183)"/><path d="M821.172 1811.602c0 8.28-6.719 14.96-14.961 14.96s-14.922-6.68-14.922-14.96c0-8.243 6.68-14.922 14.922-14.922s14.96 6.68 14.96 14.922zm0 0" style="fill:none;stroke-width:3.985;stroke-linecap:butt;stroke-linejoin:miter;stroke:#000;stroke-opacity:1;stroke-miterlimit:10" transform="matrix(.1 0 0 -.1 0 183)"/><use xlink:href="#m" x="77.382" y="169.861" style="fill:#000;fill-opacity:1"/><path d="M938.984 165.898a7.435 7.435 0 0 1-7.46 7.461c-4.102 0-7.462-3.32-7.462-7.46s3.36-7.462 7.461-7.462a7.435 7.435 0 0 1 7.461 7.461zm0 0" style="fill-rule:nonzero;fill:#000;fill-opacity:1;stroke-width:3.985;stroke-linecap:butt;stroke-linejoin:miter;stroke:#000;stroke-opacity:1;stroke-miterlimit:10" transform="matrix(.1 0 0 -.1 0 183)"/><path d="M946.484 1263.047c0 8.242-6.68 14.96-14.96 14.96-8.243 0-14.922-6.718-14.922-14.96s6.68-14.922 14.921-14.922c8.282 0 14.961 6.68 14.961 14.922zm0 0" style="fill:none;stroke-width:3.985;stroke-linecap:butt;stroke-linejoin:miter;stroke:#000;stroke-opacity:1;stroke-miterlimit:10" transform="matrix(.1 0 0 -.1 0 183)"/><use xlink:href="#m" x="89.913" y="169.861" style="fill:#000;fill-opacity:1"/><path d="M1064.336 1263.047c0 4.14-3.36 7.46-7.461 7.46-4.14 0-7.5-3.32-7.5-7.46 0-4.102 3.36-7.461 7.5-7.461 4.102 0 7.46 3.36 7.46 7.46zm0 0" style="fill-rule:nonzero;fill:#000;fill-opacity:1;stroke-width:3.985;stroke-linecap:butt;stroke-linejoin:miter;stroke:#000;stroke-opacity:1;stroke-miterlimit:10" transform="matrix(.1 0 0 -.1 0 183)"/><path d="M1071.797 1263.047c0 8.242-6.68 14.96-14.922 14.96-8.281 0-14.96-6.718-14.96-14.96s6.679-14.922 14.96-14.922c8.242 0 14.922 6.68 14.922 14.922zm0 0" style="fill:none;stroke-width:3.985;stroke-linecap:butt;stroke-linejoin:miter;stroke:#000;stroke-opacity:1;stroke-miterlimit:10" transform="matrix(.1 0 0 -.1 0 183)"/><use xlink:href="#m" x="102.446" y="169.861" style="fill:#000;fill-opacity:1"/><path d="M1189.648 165.898a7.46 7.46 0 0 1-7.46 7.461c-4.141 0-7.5-3.32-7.5-7.46s3.359-7.462 7.5-7.462a7.46 7.46 0 0 1 7.46 7.461zm0 0" style="fill-rule:nonzero;fill:#000;fill-opacity:1;stroke-width:3.985;stroke-linecap:butt;stroke-linejoin:miter;stroke:#000;stroke-opacity:1;stroke-miterlimit:10" transform="matrix(.1 0 0 -.1 0 183)"/><path d="M1197.11 1153.32c0 8.243-6.68 14.922-14.922 14.922-8.282 0-14.961-6.68-14.961-14.922s6.68-14.922 14.96-14.922c8.243 0 14.922 6.68 14.922 14.922zm0 0" style="fill:none;stroke-width:3.985;stroke-linecap:butt;stroke-linejoin:miter;stroke:#000;stroke-opacity:1;stroke-miterlimit:10" transform="matrix(.1 0 0 -.1 0 183)"/><use xlink:href="#m" x="114.977" y="169.861" style="fill:#000;fill-opacity:1"/><path d="M1314.96 1153.32a7.46 7.46 0 0 1-7.46 7.461c-4.14 0-7.46-3.32-7.46-7.46 0-4.102 3.32-7.462 7.46-7.462 4.102 0 7.46 3.36 7.46 7.461zm0 0" style="fill-rule:nonzero;fill:#000;fill-opacity:1;stroke-width:3.985;stroke-linecap:butt;stroke-linejoin:miter;stroke:#000;stroke-opacity:1;stroke-miterlimit:10" transform="matrix(.1 0 0 -.1 0 183)"/><path d="M1322.422 1153.32c0 8.243-6.68 14.922-14.922 14.922s-14.96-6.68-14.96-14.922 6.718-14.922 14.96-14.922 14.922 6.68 14.922 14.922zm0 0" style="fill:none;stroke-width:3.985;stroke-linecap:butt;stroke-linejoin:miter;stroke:#000;stroke-opacity:1;stroke-miterlimit:10" transform="matrix(.1 0 0 -.1 0 183)"/><use xlink:href="#m" x="127.509" y="169.861" style="fill:#000;fill-opacity:1"/><path d="M1440.273 165.898a7.435 7.435 0 0 1-7.46 7.461 7.435 7.435 0 0 1-7.461-7.46 7.436 7.436 0 0 1 7.46-7.462 7.435 7.435 0 0 1 7.461 7.461zm0 0" style="fill-rule:nonzero;fill:#000;fill-opacity:1;stroke-width:3.985;stroke-linecap:butt;stroke-linejoin:miter;stroke:#000;stroke-opacity:1;stroke-miterlimit:10" transform="matrix(.1 0 0 -.1 0 183)"/><path d="M1447.734 1106.328c0 8.242-6.68 14.922-14.921 14.922-8.243 0-14.961-6.68-14.961-14.922 0-8.281 6.718-14.96 14.96-14.96s14.922 6.679 14.922 14.96zm0 0" style="fill:none;stroke-width:3.985;stroke-linecap:butt;stroke-linejoin:miter;stroke:#000;stroke-opacity:1;stroke-miterlimit:10" transform="matrix(.1 0 0 -.1 0 183)"/><use xlink:href="#m" x="140.041" y="169.861" style="fill:#000;fill-opacity:1"/><path d="M1565.625 1106.328c0 4.102-3.36 7.461-7.5 7.461-4.102 0-7.46-3.36-7.46-7.46 0-4.141 3.358-7.5 7.46-7.5 4.14 0 7.5 3.359 7.5 7.5zm0 0" style="fill-rule:nonzero;fill:#000;fill-opacity:1;stroke-width:3.985;stroke-linecap:butt;stroke-linejoin:miter;stroke:#000;stroke-opacity:1;stroke-miterlimit:10" transform="matrix(.1 0 0 -.1 0 183)"/><path d="M1573.086 1106.328c0 8.242-6.68 14.922-14.961 14.922-8.242 0-14.922-6.68-14.922-14.922 0-8.281 6.68-14.96 14.922-14.96 8.281 0 14.96 6.679 14.96 14.96zm0 0" style="fill:none;stroke-width:3.985;stroke-linecap:butt;stroke-linejoin:miter;stroke:#000;stroke-opacity:1;stroke-miterlimit:10" transform="matrix(.1 0 0 -.1 0 183)"/><use xlink:href="#m" x="152.573" y="169.861" style="fill:#000;fill-opacity:1"/><path d="M1690.938 165.898c0 4.141-3.36 7.461-7.5 7.461-4.102 0-7.461-3.32-7.461-7.46a7.46 7.46 0 0 1 7.46-7.462c4.141 0 7.5 3.32 7.5 7.461zm0 0" style="fill-rule:nonzero;fill:#000;fill-opacity:1;stroke-width:3.985;stroke-linecap:butt;stroke-linejoin:miter;stroke:#000;stroke-opacity:1;stroke-miterlimit:10" transform="matrix(.1 0 0 -.1 0 183)"/><path d="M1698.398 1080.195c0 8.243-6.68 14.922-14.96 14.922-8.243 0-14.922-6.68-14.922-14.922 0-8.28 6.68-14.96 14.921-14.96 8.282 0 14.961 6.68 14.961 14.96zm0 0" style="fill:none;stroke-width:3.985;stroke-linecap:butt;stroke-linejoin:miter;stroke:#000;stroke-opacity:1;stroke-miterlimit:10" transform="matrix(.1 0 0 -.1 0 183)"/><use xlink:href="#m" x="165.105" y="169.861" style="fill:#000;fill-opacity:1"/><path d="M1816.25 1080.195c0 4.102-3.36 7.461-7.46 7.461-4.142 0-7.5-3.36-7.5-7.46a7.5 7.5 0 0 1 7.5-7.5c4.1 0 7.46 3.359 7.46 7.5zm0 0" style="fill-rule:nonzero;fill:#000;fill-opacity:1;stroke-width:3.985;stroke-linecap:butt;stroke-linejoin:miter;stroke:#000;stroke-opacity:1;stroke-miterlimit:10" transform="matrix(.1 0 0 -.1 0 183)"/><path d="M1823.71 1080.195c0 8.243-6.679 14.922-14.92 14.922-8.282 0-14.962-6.68-14.962-14.922 0-8.28 6.68-14.96 14.961-14.96 8.242 0 14.922 6.68 14.922 14.96zm0 0" style="fill:none;stroke-width:3.985;stroke-linecap:butt;stroke-linejoin:miter;stroke:#000;stroke-opacity:1;stroke-miterlimit:10" transform="matrix(.1 0 0 -.1 0 183)"/><use xlink:href="#m" x="177.637" y="169.861" style="fill:#000;fill-opacity:1"/><path d="M1941.563 165.898c0 4.141-3.36 7.461-7.5 7.461-4.102 0-7.461-3.32-7.461-7.46a7.46 7.46 0 0 1 7.46-7.462c4.141 0 7.5 3.32 7.5 7.461zm0 0" style="fill-rule:nonzero;fill:#000;fill-opacity:1;stroke-width:3.985;stroke-linecap:butt;stroke-linejoin:miter;stroke:#000;stroke-opacity:1;stroke-miterlimit:10" transform="matrix(.1 0 0 -.1 0 183)"/><path d="M1949.023 1063.555c0 8.242-6.68 14.96-14.96 14.96-8.243 0-14.922-6.718-14.922-14.96s6.68-14.922 14.921-14.922c8.282 0 14.961 6.68 14.961 14.922zm0 0" style="fill:none;stroke-width:3.985;stroke-linecap:butt;stroke-linejoin:miter;stroke:#000;stroke-opacity:1;stroke-miterlimit:10" transform="matrix(.1 0 0 -.1 0 183)"/><use xlink:href="#m" x="190.168" y="169.861" style="fill:#000;fill-opacity:1"/><path d="M2066.875 1063.555c0 4.14-3.36 7.46-7.46 7.46-4.142 0-7.5-3.32-7.5-7.46s3.358-7.461 7.5-7.461c4.1 0 7.46 3.32 7.46 7.46zm0 0" style="fill-rule:nonzero;fill:#000;fill-opacity:1;stroke-width:3.985;stroke-linecap:butt;stroke-linejoin:miter;stroke:#000;stroke-opacity:1;stroke-miterlimit:10" transform="matrix(.1 0 0 -.1 0 183)"/><path d="M2074.336 1063.555c0 8.242-6.68 14.96-14.922 14.96-8.281 0-14.96-6.718-14.96-14.96s6.679-14.922 14.96-14.922c8.242 0 14.922 6.68 14.922 14.922zm0 0" style="fill:none;stroke-width:3.985;stroke-linecap:butt;stroke-linejoin:miter;stroke:#000;stroke-opacity:1;stroke-miterlimit:10" transform="matrix(.1 0 0 -.1 0 183)"/><use xlink:href="#m" x="202.7" y="169.861" style="fill:#000;fill-opacity:1"/><path d="M2192.188 165.898c0 4.141-3.36 7.461-7.461 7.461a7.435 7.435 0 0 1-7.461-7.46 7.436 7.436 0 0 1 7.46-7.462c4.102 0 7.461 3.32 7.461 7.461zm0 0" style="fill-rule:nonzero;fill:#000;fill-opacity:1;stroke-width:3.985;stroke-linecap:butt;stroke-linejoin:miter;stroke:#000;stroke-opacity:1;stroke-miterlimit:10" transform="matrix(.1 0 0 -.1 0 183)"/><path d="M2199.648 1052.031c0 8.282-6.68 14.961-14.921 14.961a14.937 14.937 0 0 1-14.961-14.96c0-8.243 6.68-14.923 14.96-14.923 8.243 0 14.922 6.68 14.922 14.922zm0 0" style="fill:none;stroke-width:3.985;stroke-linecap:butt;stroke-linejoin:miter;stroke:#000;stroke-opacity:1;stroke-miterlimit:10" transform="matrix(.1 0 0 -.1 0 183)"/><use xlink:href="#m" x="215.232" y="169.861" style="fill:#000;fill-opacity:1"/><path d="M2317.5 1052.031c0 4.14-3.36 7.5-7.46 7.5-4.142 0-7.462-3.36-7.462-7.5a7.46 7.46 0 0 1 7.461-7.46c4.102 0 7.461 3.359 7.461 7.46zm0 0" style="fill-rule:nonzero;fill:#000;fill-opacity:1;stroke-width:3.985;stroke-linecap:butt;stroke-linejoin:miter;stroke:#000;stroke-opacity:1;stroke-miterlimit:10" transform="matrix(.1 0 0 -.1 0 183)"/><path d="M2324.96 1052.031c0 8.282-6.679 14.961-14.92 14.961-8.243 0-14.923-6.68-14.923-14.96 0-8.243 6.68-14.923 14.922-14.923s14.922 6.68 14.922 14.922zm0 0" style="fill:none;stroke-width:3.985;stroke-linecap:butt;stroke-linejoin:miter;stroke:#000;stroke-opacity:1;stroke-miterlimit:10" transform="matrix(.1 0 0 -.1 0 183)"/><use xlink:href="#m" x="227.764" y="169.861" style="fill:#000;fill-opacity:1"/><path d="M2442.813 165.898c0 4.141-3.32 7.461-7.461 7.461s-7.461-3.32-7.461-7.46a7.436 7.436 0 0 1 7.46-7.462 7.435 7.435 0 0 1 7.461 7.461zm0 0" style="fill-rule:nonzero;fill:#000;fill-opacity:1;stroke-width:3.985;stroke-linecap:butt;stroke-linejoin:miter;stroke:#000;stroke-opacity:1;stroke-miterlimit:10" transform="matrix(.1 0 0 -.1 0 183)"/><path d="M2450.313 1043.594c0 8.281-6.72 14.96-14.961 14.96-8.243 0-14.922-6.679-14.922-14.96 0-8.242 6.68-14.922 14.922-14.922s14.96 6.68 14.96 14.922zm0 0" style="fill:none;stroke-width:3.985;stroke-linecap:butt;stroke-linejoin:miter;stroke:#000;stroke-opacity:1;stroke-miterlimit:10" transform="matrix(.1 0 0 -.1 0 183)"/><use xlink:href="#m" x="240.296" y="169.861" style="fill:#000;fill-opacity:1"/><path d="M2568.125 1043.594c0 4.14-3.32 7.5-7.46 7.5-4.102 0-7.462-3.36-7.462-7.5 0-4.102 3.36-7.461 7.461-7.461 4.14 0 7.461 3.36 7.461 7.46zm0 0" style="fill-rule:nonzero;fill:#000;fill-opacity:1;stroke-width:3.985;stroke-linecap:butt;stroke-linejoin:miter;stroke:#000;stroke-opacity:1;stroke-miterlimit:10" transform="matrix(.1 0 0 -.1 0 183)"/><path d="M2575.625 1043.594c0 8.281-6.68 14.96-14.96 14.96-8.243 0-14.923-6.679-14.923-14.96 0-8.242 6.68-14.922 14.922-14.922 8.281 0 14.961 6.68 14.961 14.922zm0 0" style="fill:none;stroke-width:3.985;stroke-linecap:butt;stroke-linejoin:miter;stroke:#000;stroke-opacity:1;stroke-miterlimit:10" transform="matrix(.1 0 0 -.1 0 183)"/><use xlink:href="#m" x="252.827" y="169.861" style="fill:#000;fill-opacity:1"/><path d="M2693.477 165.898c0 4.141-3.36 7.461-7.461 7.461-4.141 0-7.5-3.32-7.5-7.46s3.359-7.462 7.5-7.462a7.46 7.46 0 0 1 7.46 7.461zm0 0" style="fill-rule:nonzero;fill:#000;fill-opacity:1;stroke-width:3.985;stroke-linecap:butt;stroke-linejoin:miter;stroke:#000;stroke-opacity:1;stroke-miterlimit:10" transform="matrix(.1 0 0 -.1 0 183)"/><path d="M2700.938 1037.148c0 8.243-6.68 14.961-14.922 14.961-8.282 0-14.961-6.718-14.961-14.96s6.68-14.922 14.96-14.922c8.243 0 14.923 6.68 14.923 14.921zm0 0" style="fill:none;stroke-width:3.985;stroke-linecap:butt;stroke-linejoin:miter;stroke:#000;stroke-opacity:1;stroke-miterlimit:10" transform="matrix(.1 0 0 -.1 0 183)"/><use xlink:href="#m" x="265.359" y="169.861" style="fill:#000;fill-opacity:1"/><path d="M2818.79 1037.148c0 4.141-3.36 7.5-7.462 7.5-4.14 0-7.5-3.359-7.5-7.5 0-4.101 3.36-7.46 7.5-7.46 4.102 0 7.461 3.359 7.461 7.46zm0 0" style="fill-rule:nonzero;fill:#000;fill-opacity:1;stroke-width:3.985;stroke-linecap:butt;stroke-linejoin:miter;stroke:#000;stroke-opacity:1;stroke-miterlimit:10" transform="matrix(.1 0 0 -.1 0 183)"/><path d="M2826.25 1037.148c0 8.243-6.68 14.961-14.922 14.961-8.281 0-14.96-6.718-14.96-14.96s6.679-14.922 14.96-14.922c8.242 0 14.922 6.68 14.922 14.921zm0 0" style="fill:none;stroke-width:3.985;stroke-linecap:butt;stroke-linejoin:miter;stroke:#000;stroke-opacity:1;stroke-miterlimit:10" transform="matrix(.1 0 0 -.1 0 183)"/><use xlink:href="#m" x="277.891" y="169.861" style="fill:#000;fill-opacity:1"/><path d="M2944.102 165.898c0 4.141-3.36 7.461-7.461 7.461-4.141 0-7.5-3.32-7.5-7.46s3.359-7.462 7.5-7.462a7.46 7.46 0 0 1 7.46 7.461zm0 0" style="fill-rule:nonzero;fill:#000;fill-opacity:1;stroke-width:3.985;stroke-linecap:butt;stroke-linejoin:miter;stroke:#000;stroke-opacity:1;stroke-miterlimit:10" transform="matrix(.1 0 0 -.1 0 183)"/><path d="M2951.563 1032.07c0 8.243-6.68 14.922-14.922 14.922s-14.961-6.68-14.961-14.922 6.718-14.96 14.96-14.96 14.923 6.718 14.923 14.96zm0 0" style="fill:none;stroke-width:3.985;stroke-linecap:butt;stroke-linejoin:miter;stroke:#000;stroke-opacity:1;stroke-miterlimit:10" transform="matrix(.1 0 0 -.1 0 183)"/><use xlink:href="#m" x="290.423" y="169.861" style="fill:#000;fill-opacity:1"/><path d="M3069.414 1032.07c0 4.102-3.36 7.461-7.46 7.461-4.142 0-7.5-3.36-7.5-7.46 0-4.141 3.358-7.462 7.5-7.462 4.1 0 7.46 3.32 7.46 7.461zm0 0" style="fill-rule:nonzero;fill:#000;fill-opacity:1;stroke-width:3.985;stroke-linecap:butt;stroke-linejoin:miter;stroke:#000;stroke-opacity:1;stroke-miterlimit:10" transform="matrix(.1 0 0 -.1 0 183)"/><path d="M3076.875 1032.07c0 8.243-6.68 14.922-14.922 14.922-8.281 0-14.96-6.68-14.96-14.922s6.679-14.96 14.96-14.96c8.242 0 14.922 6.718 14.922 14.96zm0 0" style="fill:none;stroke-width:3.985;stroke-linecap:butt;stroke-linejoin:miter;stroke:#000;stroke-opacity:1;stroke-miterlimit:10" transform="matrix(.1 0 0 -.1 0 183)"/><use xlink:href="#m" x="302.954" y="169.861" style="fill:#000;fill-opacity:1"/><path d="M3194.727 165.898c0 4.141-3.32 7.461-7.461 7.461s-7.461-3.32-7.461-7.46a7.436 7.436 0 0 1 7.46-7.462 7.436 7.436 0 0 1 7.462 7.461zm0 0" style="fill-rule:nonzero;fill:#000;fill-opacity:1;stroke-width:3.985;stroke-linecap:butt;stroke-linejoin:miter;stroke:#000;stroke-opacity:1;stroke-miterlimit:10" transform="matrix(.1 0 0 -.1 0 183)"/><path d="M3202.227 1027.93c0 8.242-6.72 14.922-14.961 14.922-8.243 0-14.961-6.68-14.961-14.922s6.718-14.922 14.96-14.922 14.962 6.68 14.962 14.922zm0 0" style="fill:none;stroke-width:3.985;stroke-linecap:butt;stroke-linejoin:miter;stroke:#000;stroke-opacity:1;stroke-miterlimit:10" transform="matrix(.1 0 0 -.1 0 183)"/><use xlink:href="#m" x="315.486" y="169.861" style="fill:#000;fill-opacity:1"/></svg>