<svg xmlns="http://www.w3.org/2000/svg" width="217pt" height="145pt" viewBox="0 0 217 145"><path d="M40 879.648h29.375m58.75 0H157.5m0 0h29.375m58.711 0h29.375m-.001 0h29.376m58.75 0h29.375m-.001 0h29.376m58.75 0h29.336m0 0h29.375m58.75 0h29.375m0 0h29.375m58.75 0h29.336m0 0h29.375m58.75 0h29.375m0 0h29.375m58.75 0h29.375m0 0h29.375m58.711 0h29.375m0 0h29.375m58.75 0h29.375m0 0h29.375m58.75 0h29.375m0 0h29.375m58.711 0h29.375m0 0h29.375m58.75 0h29.375m0 0h29.336m58.749 0h29.376m0 0h29.375m58.749 0h29.376m0 0h29.375m58.749 0h29.337m0 0h29.375m58.75 0h29.375m0 0h29.375m58.75 0h29.375M40 36.719h2114.727" style="fill:none;stroke-width:3.985;stroke-linecap:butt;stroke-linejoin:miter;stroke:#000;stroke-opacity:1;stroke-miterlimit:10" transform="matrix(.1 0 0 -.1 0 145)"/><path d="M3.746 138.34h.602v6h-.602zm15.106 0h.601v6h-.601zm15.108 0h.602v6h-.601zm15.103 0h.601v6h-.602zm15.105 0h.602v6h-.602zm15.105 0h.602v6h-.602zm15.106 0h.601v6h-.601zm15.105 0h.602v6h-.602zm15.106 0h.601v6h-.601zm15.101 0h.602v6h-.602zm15.109 0h.602v6h-.601zm15.102 0h.602v6h-.602zm15.106 0h.601v6h-.601zm15.105 0h.602v6h-.602zm15.106 0h.601v6h-.601zm0 0" style="stroke:none;fill-rule:nonzero;fill:#000;fill-opacity:1"/><path d="M40 36.719v1404.883" style="fill:none;stroke-width:3.985;stroke-linecap:butt;stroke-linejoin:miter;stroke:#000;stroke-opacity:1;stroke-miterlimit:10" transform="matrix(.1 0 0 -.1 0 145)"/><path d="M.988 140.98h6v.602h-6zm0-70.246h6v.602h-6zm0-70.246h6v.602h-6zm0 0" style="stroke:none;fill-rule:nonzero;fill:#000;fill-opacity:1"/><path d="M203.516 739.14c0 6.915-5.586 12.5-12.461 12.5s-12.461-5.585-12.461-12.5c0-6.835 5.586-12.421 12.46-12.421 6.876 0 12.462 5.586 12.462 12.422zM354.57 973.32c0 6.875-5.586 12.461-12.46 12.461-6.876 0-12.462-5.586-12.462-12.46 0-6.876 5.586-12.462 12.461-12.462s12.461 5.586 12.461 12.461zm151.055-351.21c0 6.874-5.586 12.46-12.46 12.46-6.876 0-12.462-5.586-12.462-12.46 0-6.915 5.586-12.462 12.461-12.462s12.461 5.547 12.461 12.461zM656.64 762.578c0 6.875-5.546 12.461-12.46 12.461-6.875 0-12.461-5.586-12.461-12.46 0-6.876 5.586-12.462 12.46-12.462 6.915 0 12.462 5.586 12.462 12.461zM807.695 862.93c0 6.875-5.547 12.46-12.46 12.46-6.876 0-12.423-5.585-12.423-12.46s5.547-12.461 12.422-12.461c6.914 0 12.461 5.586 12.461 12.46zm151.095 78.047c0 6.875-5.587 12.46-12.462 12.46-6.914 0-12.46-5.585-12.46-12.46s5.546-12.461 12.46-12.461c6.875 0 12.461 5.586 12.461 12.46zm151.015-175.625a12.42 12.42 0 0 1-12.461 12.46c-6.875 0-12.461-5.546-12.461-12.46 0-6.875 5.586-12.461 12.46-12.461a12.445 12.445 0 0 1 12.462 12.46zm151.055 63.867c0 6.875-5.587 12.46-12.462 12.46s-12.46-5.585-12.46-12.46 5.585-12.461 12.46-12.461 12.461 5.586 12.461 12.46zm151.054 54.062c0 6.875-5.586 12.422-12.46 12.422-6.876 0-12.462-5.547-12.462-12.422 0-6.914 5.586-12.46 12.461-12.46s12.461 5.546 12.461 12.46zm151.055-117.109c0 6.914-5.586 12.46-12.461 12.46s-12.461-5.546-12.461-12.46c0-6.875 5.586-12.461 12.46-12.461 6.876 0 12.462 5.586 12.462 12.46zm151.054 46.836c0 6.875-5.585 12.46-12.46 12.46s-12.461-5.585-12.461-12.46 5.585-12.461 12.46-12.461 12.461 5.586 12.461 12.46zm151.055 41.328c0 6.875-5.586 12.46-12.46 12.46-6.876 0-12.462-5.585-12.462-12.46s5.586-12.461 12.461-12.461 12.461 5.586 12.461 12.46zm151.016 36.992c0 6.875-5.547 12.461-12.422 12.461-6.914 0-12.461-5.586-12.461-12.46 0-6.876 5.547-12.462 12.46-12.462 6.876 0 12.423 5.586 12.423 12.461zm151.094-87.812c0 6.875-5.586 12.46-12.461 12.46a12.444 12.444 0 0 1-12.461-12.46c0-6.875 5.546-12.461 12.46-12.461 6.876 0 12.461 5.586 12.461 12.46zm0 0" style="fill-rule:nonzero;fill:#000;fill-opacity:1;stroke-width:3.985;stroke-linecap:butt;stroke-linejoin:miter;stroke:#000;stroke-opacity:1;stroke-miterlimit:10" transform="matrix(.1 0 0 -.1 0 145)"/></svg>