<svg xmlns="http://www.w3.org/2000/svg" xmlns:xlink="http://www.w3.org/1999/xlink" width="392" height="212" viewBox="0 0 294 159"><defs><symbol id="a" overflow="visible"><path d="M7.219-2.875v-.703H.78v.703zm0 0" style="stroke:none"/></symbol><symbol id="g" overflow="visible"><path d="M7.281-2.906v-.672H4.344V-6.5h-.657v2.922H.75v.672h2.938V.03h.656v-2.937zm0 0" style="stroke:none"/></symbol><symbol id="b" overflow="visible"><path d="m5.36-.938-.094-.234c-.438.36-.735.531-.922.531C4.156-.64 4-.75 3.89-.984a4.8 4.8 0 0 1-.313-1.032l-.203-1.203.422-.578c.547-.781.875-1.062 1.25-1.062.187 0 .328.109.39.28l.172-.046.172-1.016c-.14-.078-.25-.125-.36-.125-.468 0-.952.438-1.687 1.532l-.453.656-.062-.563c-.14-1.187-.469-1.625-1.172-1.625-.313 0-.578.094-.688.25l-.687 1 .203.11c.36-.407.594-.563.828-.563.39 0 .656.485.86 1.657l.124.75-.468.734C1.703-1.031 1.297-.641.953-.641.781-.64.641-.687.625-.75l-.14-.344-.235.047c0 .234-.016.39-.094.766-.031.156-.031.187-.047.265.172.094.375.141.516.141.39 0 .86-.344 1.234-.906l.907-1.39.125.827C3.062-.328 3.328.125 3.75.125c.266 0 .656-.203 1.031-.547zm0 0" style="stroke:none"/></symbol><symbol id="c" overflow="visible"><path d="M3.656.031v-.265l-.453-.032c-.484-.03-.562-.125-.562-.578v-5.203l-.125-.031a15 15 0 0 1-1.985.844l.063.375h.078c.39-.188.781-.36 1.156-.516.063 0 .078.078.078.281v4.25c0 .453-.093.547-.578.578l-.484.032V.03C1.328.016 1.813 0 2.28 0c.469 0 .922.016 1.375.031zm0 0" style="stroke:none"/></symbol><symbol id="d" overflow="visible"><path d="M4.047-1.969c0-.422-.172-.781-.484-1-.22-.156-.422-.234-.86-.312.703-.547.953-.938.953-1.469 0-.766-.64-1.297-1.61-1.297-.593 0-1 .172-1.421.594L.375-4.36h.281l.156-.5c.094-.297.641-.594 1.094-.594.578 0 1.032.469 1.032 1.016 0 .656-.516 1.218-1.126 1.218-.078 0-.421-.031-.421-.031l-.11.469.063.047c.343-.157.5-.188.75-.188.719 0 1.14.453 1.14 1.25 0 .906-.53 1.484-1.343 1.484-.407 0-.766-.124-1.032-.374C.656-.75.531-.954.375-1.422l-.25.078c.188.532.266.86.313 1.297.468.156.843.219 1.171.219 1.063 0 2.438-.922 2.438-2.14zm0 0" style="stroke:none"/></symbol><symbol id="e" overflow="visible"><path d="M4.031-2.219c0-.984-.718-1.687-1.718-1.687-.422 0-.735.11-1.282.437l.078-1.828 2.672.031.047-.03c-.015-.173-.015-.22-.015-.345 0-.14 0-.203.015-.359l-.047-.047S2.86-6 2.266-6 .734-6.047.734-6.047L.688-6l.015 1.203c0 .766-.015 1.594-.047 1.969l.172.062c.422-.421.656-.53 1.078-.53.844 0 1.375.593 1.375 1.53 0 .985-.562 1.547-1.515 1.547-.485 0-.922-.156-1.032-.39l-.406-.72-.219.126c.204.5.313.781.438 1.172.234.125.594.203.969.203.593 0 1.203-.25 1.687-.672.547-.469.828-1.063.828-1.719m0 0" style="stroke:none"/></symbol><symbol id="f" overflow="visible"><path d="M4.36-5.781v-.266C3.405-6 3.327-6 2.39-6c-.92 0-1.061 0-1.92-.047L.39-6s.015.563.015.922-.015.89-.015.89h.265l.047-.484c.078-.547.14-.61.547-.61h2.328c-.344.72-.61 1.22-.953 1.75L.485-.093l.078.125S.813 0 .969 0s.406.031.406.031C1.75-.922 1.969-1.5 2.75-2.89zm0 0" style="stroke:none"/></symbol><symbol id="h" overflow="visible"><path d="M4.11.031c-.032-.187-.032-.281-.032-.406 0-.11 0-.188.031-.39l-3.046.093 1.609-1.687c.844-.907 1.11-1.391 1.11-2.047 0-1.016-.688-1.64-1.798-1.64-.64 0-1.062.187-1.5.624l-.14 1.188h.25l.11-.407c.14-.5.468-.718 1.046-.718.75 0 1.234.468 1.234 1.218 0 .657-.359 1.297-1.359 2.36L.141-.203V.03C.78.016 1.453 0 2.094 0c.672 0 1.344.016 2.015.031zm0 0" style="stroke:none"/></symbol><symbol id="i" overflow="visible"><path d="M4.14.031v-.265l-.42-.032c-.438-.03-.531-.14-.531-.656v-.672c.515 0 .703.016.953.047v-.625s-.438.031-.72.031h-.233v-1.218c0-1.563.015-2.329.062-2.688l-.11-.031-.64.234L.016-1.78l.093.187h2.344v.672c0 .516-.094.64-.531.656l-.531.032V.03C1.859.016 2.328 0 2.797 0c.453 0 .89.016 1.344.031zM2.454-2.14H.563l1.89-3.093zm0 0" style="stroke:none"/></symbol><symbol id="j" overflow="visible"><path d="M4.11-1.922c0-1-.61-1.656-1.548-1.656-.515 0-.828.203-1.421.672.187-1.578.921-2.438 2.5-2.922v-.063l-.313-.156c-.844.281-1.203.469-1.656.844C.766-4.437.282-3.36.282-2.172.281-.719.983.172 2.108.172c1.141 0 2-.906 2-2.094zm-.766.313c0 .906-.438 1.5-1.125 1.5-.735 0-1.14-.641-1.14-1.813 0-.312.03-.484.124-.625.203-.297.61-.515 1.031-.515.672 0 1.11.578 1.11 1.453m0 0" style="stroke:none"/></symbol><symbol id="k" overflow="visible"><path d="M4.063-1.813c0-.687-.313-1.078-1.313-1.53.797-.548 1.078-.907 1.078-1.438 0-.75-.625-1.266-1.562-1.266-1.032 0-1.797.672-1.797 1.594 0 .594.234.922 1 1.422-.36.172-.5.265-.703.453-.329.328-.5.734-.5 1.187C.266-.484.984.172 1.984.172c1.141 0 2.079-.89 2.079-1.984zm-.688.375c0 .735-.547 1.313-1.266 1.313-.734 0-1.218-.531-1.218-1.344 0-.64.25-1.031.89-1.437l.703.328c.563.234.891.672.891 1.14m-.156-3.25c0 .5-.219.844-.781 1.22l-.485-.235c-.547-.281-.828-.625-.828-1.063 0-.578.422-.968 1.047-.968.64 0 1.047.406 1.047 1.046m0 0" style="stroke:none"/></symbol></defs><path d="M606.328 861.602h2021.055" style="fill:none;stroke-width:3.985;stroke-linecap:butt;stroke-linejoin:miter;stroke:#000;stroke-opacity:1;stroke-miterlimit:10" transform="matrix(.1 0 0 -.1 0 159)"/><path d="M60.379 69.852h.601v6h-.601zm25.266 0h.601v6h-.601zm25.261 0h.602v6h-.602zm25.266 0h.601v6h-.601zm25.262 0h.601v6h-.601zm25.266 0h.6v6h-.6zm25.26 0h.602v6h-.601zm25.267 0h.601v6h-.601zm25.261 0h.602v6h-.602zm0 0" style="stroke:none;fill-rule:nonzero;fill:#000;fill-opacity:1"/><path d="M606.328 141.602v1440" style="fill:none;stroke-width:3.985;stroke-linecap:butt;stroke-linejoin:miter;stroke:#000;stroke-opacity:1;stroke-miterlimit:10" transform="matrix(.1 0 0 -.1 0 159)"/><path d="M57.621 144.492h6v.602h-6zm0-72h6v.602h-6zm0-72.004h6v.602h-6zm0 0" style="stroke:none;fill-rule:nonzero;fill:#000;fill-opacity:1"/><path d="M2642.031 861.602a2 2 0 0 1-1.992 1.992 2 2 0 0 1-1.992-1.992 2 2 0 0 1 1.992-1.993 2 2 0 0 1 1.992 1.993zm25.274 0a2 2 0 0 1-1.992 1.992 2 2 0 0 1-1.993-1.992 2 2 0 0 1 1.992-1.993 2 2 0 0 1 1.993 1.993zm25.235 0a2 2 0 0 1-1.993 1.992 2 2 0 0 1-1.992-1.992 2 2 0 0 1 1.992-1.993 2 2 0 0 1 1.992 1.993zm25.273 0a2 2 0 0 1-1.993 1.992 2 2 0 0 1-1.992-1.992 2 2 0 0 1 1.992-1.993 2 2 0 0 1 1.992 1.993zm25.273 0a2 2 0 0 1-1.992 1.992 2 2 0 0 1-1.992-1.992 2 2 0 0 1 1.992-1.993 2 2 0 0 1 1.992 1.993zm25.274 0a2 2 0 0 1-1.993 1.992 2 2 0 0 1-1.992-1.992 2 2 0 0 1 1.992-1.993 2 2 0 0 1 1.992 1.993zm0 0" style="fill-rule:nonzero;fill:#000;fill-opacity:1;stroke-width:3.985;stroke-linecap:butt;stroke-linejoin:miter;stroke:#000;stroke-opacity:1;stroke-miterlimit:10" transform="matrix(.1 0 0 -.1 0 159)"/><path d="M858.945 861.602v-720" style="fill:none;stroke-width:3.985;stroke-linecap:butt;stroke-linejoin:miter;stroke:#000;stroke-opacity:1;stroke-miterlimit:10" transform="matrix(.1 0 0 -.1 0 159)"/><path d="M871.406 141.602c0 6.875-5.547 12.46-12.46 12.46-6.876 0-12.462-5.585-12.462-12.46s5.586-12.461 12.461-12.461c6.914 0 12.461 5.586 12.461 12.46zm0 0" style="fill-rule:nonzero;fill:#000;fill-opacity:1;stroke-width:3.985;stroke-linecap:butt;stroke-linejoin:miter;stroke:#000;stroke-opacity:1;stroke-miterlimit:10" transform="matrix(.1 0 0 -.1 0 159)"/><path d="M480 141.602h23.672m23.711 0h23.672m23.711 0h23.672m23.672 0h23.71m23.672 0h23.672m23.711 0h23.672m23.672 0h23.672m23.711 0h23.671" style="fill:none;stroke-width:3.985;stroke-linecap:butt;stroke-linejoin:miter;stroke:#000;stroke-opacity:1;stroke-miterlimit:10" transform="matrix(.1 0 0 -.1 0 159)"/><use xlink:href="#a" x="90.878" y="146.76" style="fill:#000;fill-opacity:1"/><use xlink:href="#b" x="99.278" y="146.76" style="fill:#000;fill-opacity:1"/><use xlink:href="#c" x="105.638" y="148.56" style="fill:#000;fill-opacity:1"/><path d="M1364.219 861.602V357.617" style="fill:none;stroke-width:3.985;stroke-linecap:butt;stroke-linejoin:miter;stroke:#000;stroke-opacity:1;stroke-miterlimit:10" transform="matrix(.1 0 0 -.1 0 159)"/><path d="M1376.68 357.617c0 6.875-5.586 12.461-12.461 12.461s-12.461-5.586-12.461-12.46a12.445 12.445 0 0 1 12.46-12.462c6.876 0 12.462 5.547 12.462 12.461zm0 0" style="fill-rule:nonzero;fill:#000;fill-opacity:1;stroke-width:3.985;stroke-linecap:butt;stroke-linejoin:miter;stroke:#000;stroke-opacity:1;stroke-miterlimit:10" transform="matrix(.1 0 0 -.1 0 159)"/><path d="M480 357.617h27.656m27.617 0h27.618m27.656 0h27.617m27.656 0h27.617m27.618 0h27.617m27.656 0h27.617m27.657 0h27.617m27.656 0h27.617m27.618 0h27.656m27.617 0H1005m27.656 0h27.617m27.617 0h27.657m27.617 0h27.617m27.657 0h27.617m27.655 0h27.618m27.617 0h27.657" style="fill:none;stroke-width:3.985;stroke-linecap:butt;stroke-linejoin:miter;stroke:#000;stroke-opacity:1;stroke-miterlimit:10" transform="matrix(.1 0 0 -.1 0 159)"/><use xlink:href="#a" x="141.404" y="125.159" style="fill:#000;fill-opacity:1"/><use xlink:href="#b" x="149.804" y="125.159" style="fill:#000;fill-opacity:1"/><use xlink:href="#d" x="156.164" y="126.959" style="fill:#000;fill-opacity:1"/><path d="M1869.492 861.602V537.617" style="fill:none;stroke-width:3.985;stroke-linecap:butt;stroke-linejoin:miter;stroke:#000;stroke-opacity:1;stroke-miterlimit:10" transform="matrix(.1 0 0 -.1 0 159)"/><path d="M1881.953 537.617c0 6.875-5.586 12.461-12.46 12.461-6.876 0-12.462-5.586-12.462-12.46 0-6.876 5.586-12.462 12.461-12.462s12.461 5.586 12.461 12.461zm0 0" style="fill-rule:nonzero;fill:#000;fill-opacity:1;stroke-width:3.985;stroke-linecap:butt;stroke-linejoin:miter;stroke:#000;stroke-opacity:1;stroke-miterlimit:10" transform="matrix(.1 0 0 -.1 0 159)"/><path d="M480 537.617h28.945m28.945 0h28.946m28.984 0h28.946m28.944 0h28.946m28.907 0h28.984m28.945 0h28.946m28.945 0h28.945m28.945 0h28.946m28.945 0h28.945m28.946 0h28.984m28.906 0h28.946m28.945 0h28.945m28.985 0h28.945m28.945 0h28.946m28.945 0h28.945m28.946 0h28.945m28.945 0h28.945m28.946 0h28.945m28.984 0h28.907m28.985 0h28.944m28.946 0h28.945m28.906 0h28.985m28.944 0h28.946m28.946 0h28.945" style="fill:none;stroke-width:3.985;stroke-linecap:butt;stroke-linejoin:miter;stroke:#000;stroke-opacity:1;stroke-miterlimit:10" transform="matrix(.1 0 0 -.1 0 159)"/><use xlink:href="#a" x="191.931" y="107.159" style="fill:#000;fill-opacity:1"/><use xlink:href="#b" x="200.331" y="107.159" style="fill:#000;fill-opacity:1"/><use xlink:href="#e" x="206.691" y="108.959" style="fill:#000;fill-opacity:1"/><path d="M2374.766 861.602V717.617" style="fill:none;stroke-width:3.985;stroke-linecap:butt;stroke-linejoin:miter;stroke:#000;stroke-opacity:1;stroke-miterlimit:10" transform="matrix(.1 0 0 -.1 0 159)"/><path d="M2387.227 717.617c0 6.875-5.586 12.461-12.461 12.461s-12.461-5.586-12.461-12.46c0-6.876 5.586-12.462 12.46-12.462 6.876 0 12.462 5.586 12.462 12.461zm0 0" style="fill-rule:nonzero;fill:#000;fill-opacity:1;stroke-width:3.985;stroke-linecap:butt;stroke-linejoin:miter;stroke:#000;stroke-opacity:1;stroke-miterlimit:10" transform="matrix(.1 0 0 -.1 0 159)"/><path d="M480 717.617h29.61m29.609 0h29.61m29.609 0h29.609m29.609 0h29.61m29.609 0h29.57m29.61 0h29.61m29.608 0h29.61m29.609 0h29.61m29.57 0h29.648m29.57 0h29.65m29.608 0h29.57m29.61 0h29.61m29.609 0h29.61m29.609 0h29.57m29.609 0h29.61m29.609 0h29.61m29.609 0h29.61m29.609 0h29.609m29.609 0h29.57m29.65 0h29.608m29.571 0h29.61m29.609 0h29.609m29.609 0h29.61m29.609 0h29.61m29.609 0h29.57m29.609 0h29.61m29.609 0h29.61m29.608 0h29.61m29.61 0h29.61m29.608 0h29.61m29.609 0h29.57m29.61 0h29.61" style="fill:none;stroke-width:3.985;stroke-linecap:butt;stroke-linejoin:miter;stroke:#000;stroke-opacity:1;stroke-miterlimit:10" transform="matrix(.1 0 0 -.1 0 159)"/><use xlink:href="#a" x="242.458" y="89.159" style="fill:#000;fill-opacity:1"/><use xlink:href="#b" x="250.858" y="89.159" style="fill:#000;fill-opacity:1"/><use xlink:href="#f" x="257.218" y="90.959" style="fill:#000;fill-opacity:1"/><path d="M1111.602 861.602v576.015" style="fill:none;stroke-width:3.985;stroke-linecap:butt;stroke-linejoin:miter;stroke:#000;stroke-opacity:1;stroke-miterlimit:10" transform="matrix(.1 0 0 -.1 0 159)"/><path d="M1124.063 1437.617c0 6.875-5.586 12.461-12.461 12.461s-12.461-5.586-12.461-12.46c0-6.876 5.586-12.462 12.46-12.462 6.876 0 12.461 5.586 12.461 12.461zm-10.469-595.195c0 1.094-.899 1.953-1.992 1.953-1.094 0-1.993-.86-1.993-1.953a2 2 0 0 1 1.993-1.992 2 2 0 0 1 1.992 1.992zm0-38.399a2 2 0 0 1-1.992 1.993 2 2 0 0 1-1.993-1.993c0-1.132.899-1.992 1.993-1.992 1.093 0 1.992.86 1.992 1.992zm0-38.398a2 2 0 0 1-1.992 1.992 2 2 0 0 1-1.993-1.992 2 2 0 0 1 1.993-1.992 2 2 0 0 1 1.992 1.992zm0-38.398c0 1.093-.899 1.953-1.992 1.953-1.094 0-1.993-.86-1.993-1.953 0-1.133.899-1.993 1.993-1.993 1.093 0 1.992.86 1.992 1.993zm0-38.437a2 2 0 0 1-1.992 1.991 2 2 0 0 1-1.993-1.992c0-1.094.899-1.953 1.993-1.953 1.093 0 1.992.86 1.992 1.953zm0-38.4a2 2 0 0 1-1.992 1.993 2 2 0 0 1-1.993-1.992c0-1.094.899-1.953 1.993-1.953 1.093 0 1.992.859 1.992 1.953zm0-38.359c0 1.094-.899 1.953-1.992 1.953-1.094 0-1.993-.859-1.993-1.953 0-1.133.899-1.992 1.993-1.992 1.093 0 1.992.86 1.992 1.992zm0-38.437a1.976 1.976 0 0 1-1.992 1.992 1.976 1.976 0 0 1-1.993-1.992 2 2 0 0 1 1.993-1.992 2 2 0 0 1 1.992 1.992zm0-38.399a2 2 0 0 1-1.992 1.992 2 2 0 0 1-1.993-1.992 2 2 0 0 1 1.993-1.992 2 2 0 0 1 1.992 1.992zm0-38.398a2 2 0 0 1-1.992 1.992 2 2 0 0 1-1.993-1.992 2 2 0 0 1 1.993-1.992 2 2 0 0 1 1.992 1.992zm0-38.399a2 2 0 0 1-1.992 1.993 2 2 0 0 1-1.993-1.993 2 2 0 0 1 1.993-1.992 2 2 0 0 1 1.992 1.992zm0-38.398a2 2 0 0 1-1.992 1.992 2 2 0 0 1-1.993-1.992 2 2 0 0 1 1.993-1.992 2 2 0 0 1 1.992 1.992zm0-38.398a2 2 0 0 1-1.992 1.992 2 2 0 0 1-1.993-1.992 2 2 0 0 1 1.993-1.993 2 2 0 0 1 1.992 1.993zm0-38.399a2 2 0 0 1-1.992 1.992 2 2 0 0 1-1.993-1.992 2 2 0 0 1 1.993-1.992 2 2 0 0 1 1.992 1.992zm0-38.398a2 2 0 0 1-1.992 1.992 2 2 0 0 1-1.993-1.992 2 2 0 0 1 1.993-1.993 2 2 0 0 1 1.992 1.993zm10.469-19.219c0 6.875-5.586 12.46-12.461 12.46s-12.461-5.585-12.461-12.46 5.586-12.461 12.46-12.461c6.876 0 12.461 5.586 12.461 12.46zm0 0" style="fill-rule:nonzero;fill:#000;fill-opacity:1;stroke-width:3.985;stroke-linecap:butt;stroke-linejoin:miter;stroke:#000;stroke-opacity:1;stroke-miterlimit:10" transform="matrix(.1 0 0 -.1 0 159)"/><path d="M480 285.586h26.328m26.328 0h26.29m26.327 0h26.29m26.327 0h26.329m26.328 0h26.328m26.289 0h26.328m26.289 0h26.328m26.329 0h26.289m26.328 0h26.328m26.289 0h26.367m26.289 0h26.328m26.289 0h26.328" style="fill:none;stroke-width:3.985;stroke-linecap:butt;stroke-linejoin:miter;stroke:#000;stroke-opacity:1;stroke-miterlimit:10" transform="matrix(.1 0 0 -.1 0 159)"/><path d="M492.617 285.586V141.602" style="fill:none;stroke-width:7.9701;stroke-linecap:butt;stroke-linejoin:miter;stroke:#000;stroke-opacity:1;stroke-miterlimit:10" transform="matrix(.1 0 0 -.1 0 159)"/><use xlink:href="#a" x=".954" y="139.92" style="fill:#000;fill-opacity:1"/><use xlink:href="#b" x="9.354" y="139.92" style="fill:#000;fill-opacity:1"/><use xlink:href="#c" x="15.714" y="141.72" style="fill:#000;fill-opacity:1"/><use xlink:href="#g" x="23.274" y="139.92" style="fill:#000;fill-opacity:1"/><use xlink:href="#b" x="34.314" y="139.92" style="fill:#000;fill-opacity:1"/><use xlink:href="#h" x="40.674" y="141.72" style="fill:#000;fill-opacity:1"/><use xlink:href="#a" x="116.14" y="132.361" style="fill:#000;fill-opacity:1"/><use xlink:href="#b" x="124.54" y="132.361" style="fill:#000;fill-opacity:1"/><use xlink:href="#h" x="130.9" y="134.161" style="fill:#000;fill-opacity:1"/><use xlink:href="#b" x="116.5" y="17.159" style="fill:#000;fill-opacity:1"/><use xlink:href="#h" x="122.86" y="18.959" style="fill:#000;fill-opacity:1"/><path d="M1616.875 861.602v396.015" style="fill:none;stroke-width:3.985;stroke-linecap:butt;stroke-linejoin:miter;stroke:#000;stroke-opacity:1;stroke-miterlimit:10" transform="matrix(.1 0 0 -.1 0 159)"/><path d="M1629.336 1257.617c0 6.875-5.586 12.461-12.461 12.461-6.914 0-12.46-5.586-12.46-12.46 0-6.876 5.546-12.462 12.46-12.462 6.875 0 12.46 5.586 12.46 12.461zm-10.508-412.5c0 1.094-.86 1.992-1.953 1.992a1.976 1.976 0 0 1-1.992-1.992c0-1.094.86-1.992 1.992-1.992 1.094 0 1.953.898 1.953 1.992zm0-33.007c0 1.093-.86 1.992-1.953 1.992a1.976 1.976 0 0 1-1.992-1.993c0-1.093.86-1.992 1.992-1.992 1.094 0 1.953.899 1.953 1.992zm0-33.008c0 1.093-.86 1.992-1.953 1.992a1.976 1.976 0 0 1-1.992-1.992c0-1.094.86-1.954 1.992-1.954 1.094 0 1.953.86 1.953 1.954zm0-33.008c0 1.133-.86 1.992-1.953 1.992-1.133 0-1.992-.86-1.992-1.992 0-1.094.86-1.992 1.992-1.992 1.094 0 1.953.898 1.953 1.992zm0-32.969c0 1.055-.86 1.953-1.953 1.953a1.967 1.967 0 0 1-1.992-1.953c0-1.094.86-1.992 1.992-1.992 1.094 0 1.953.898 1.953 1.992zm0-33.008c0 1.094-.86 1.992-1.953 1.992a1.976 1.976 0 0 1-1.992-1.992c0-1.133.86-1.992 1.992-1.992 1.094 0 1.953.86 1.953 1.992zm0-33.007c0 1.093-.86 1.992-1.953 1.992a1.976 1.976 0 0 1-1.992-1.993c0-1.093.86-1.992 1.992-1.992 1.094 0 1.953.899 1.953 1.992zm0-33.008c0 1.093-.86 1.992-1.953 1.992a1.976 1.976 0 0 1-1.992-1.992c0-1.094.86-1.993 1.992-1.993 1.094 0 1.953.899 1.953 1.993zm0-33.008c0 1.093-.86 1.992-1.953 1.992a1.976 1.976 0 0 1-1.992-1.992c0-1.094.86-1.992 1.992-1.992 1.094 0 1.953.898 1.953 1.992zm0-32.969c0 1.094-.86 1.992-1.953 1.992a1.976 1.976 0 0 1-1.992-1.992c0-1.094.86-1.992 1.992-1.992 1.094 0 1.953.898 1.953 1.992zm0-33.008c0 1.094-.86 1.992-1.953 1.992a1.976 1.976 0 0 1-1.992-1.992c0-1.094.86-1.992 1.992-1.992 1.094 0 1.953.898 1.953 1.992zm0-33.007c0 1.093-.86 1.992-1.953 1.992a1.976 1.976 0 0 1-1.992-1.993c0-1.093.86-1.992 1.992-1.992 1.094 0 1.953.899 1.953 1.992zm10.508-16.524c0 6.875-5.586 12.46-12.461 12.46-6.914 0-12.46-5.585-12.46-12.46s5.546-12.461 12.46-12.461c6.875 0 12.46 5.586 12.46 12.46zm0 0" style="fill-rule:nonzero;fill:#000;fill-opacity:1;stroke-width:3.985;stroke-linecap:butt;stroke-linejoin:miter;stroke:#000;stroke-opacity:1;stroke-miterlimit:10" transform="matrix(.1 0 0 -.1 0 159)"/><path d="M480 465.586h28.438m28.437 0h28.398m28.399 0h28.437m28.438 0h28.398m28.438 0h28.437m28.399 0h28.437m28.399 0h28.437m28.398 0h28.438m28.438 0h28.398m28.438 0h28.437m28.399 0h28.398m28.437 0h28.438m28.437 0h28.399m28.398 0h28.438m28.398 0h28.438m28.437 0h28.399m28.437 0h28.399m28.437 0h28.438m28.398 0h28.438m28.438 0h28.398" style="fill:none;stroke-width:3.985;stroke-linecap:butt;stroke-linejoin:miter;stroke:#000;stroke-opacity:1;stroke-miterlimit:10" transform="matrix(.1 0 0 -.1 0 159)"/><path d="M492.617 465.586V357.617" style="fill:none;stroke-width:7.9701;stroke-linecap:butt;stroke-linejoin:miter;stroke:#000;stroke-opacity:1;stroke-miterlimit:10" transform="matrix(.1 0 0 -.1 0 159)"/><use xlink:href="#a" x=".954" y="120" style="fill:#000;fill-opacity:1"/><use xlink:href="#b" x="9.354" y="120" style="fill:#000;fill-opacity:1"/><use xlink:href="#d" x="15.714" y="121.8" style="fill:#000;fill-opacity:1"/><use xlink:href="#g" x="23.274" y="120" style="fill:#000;fill-opacity:1"/><use xlink:href="#b" x="34.314" y="120" style="fill:#000;fill-opacity:1"/><use xlink:href="#i" x="40.674" y="121.8" style="fill:#000;fill-opacity:1"/><use xlink:href="#a" x="166.668" y="114.36" style="fill:#000;fill-opacity:1"/><use xlink:href="#b" x="175.068" y="114.36" style="fill:#000;fill-opacity:1"/><use xlink:href="#i" x="181.428" y="116.16" style="fill:#000;fill-opacity:1"/><use xlink:href="#b" x="167.028" y="35.159" style="fill:#000;fill-opacity:1"/><use xlink:href="#i" x="173.388" y="36.959" style="fill:#000;fill-opacity:1"/><path d="M2122.148 861.602v216.015" style="fill:none;stroke-width:3.985;stroke-linecap:butt;stroke-linejoin:miter;stroke:#000;stroke-opacity:1;stroke-miterlimit:10" transform="matrix(.1 0 0 -.1 0 159)"/><path d="M2134.61 1077.617c0 6.875-5.587 12.461-12.462 12.461-6.914 0-12.46-5.586-12.46-12.46 0-6.876 5.546-12.462 12.46-12.462 6.875 0 12.461 5.586 12.461 12.461zm-10.47-234.023a1.976 1.976 0 0 1-1.992 1.992 1.976 1.976 0 0 1-1.992-1.992c0-1.055.899-1.953 1.992-1.953 1.094 0 1.993.898 1.993 1.953zm0-35.977a2 2 0 0 1-1.992 1.992 2 2 0 0 1-1.992-1.992 2 2 0 0 1 1.992-1.992 2 2 0 0 1 1.993 1.992zm0-36.015a2 2 0 0 1-1.992 1.992 2 2 0 0 1-1.992-1.992 2 2 0 0 1 1.992-1.993 2 2 0 0 1 1.993 1.993zm0-35.977c0 1.055-.898 1.953-1.992 1.953s-1.992-.898-1.992-1.953a2 2 0 0 1 1.992-1.992 2 2 0 0 1 1.993 1.992zm0-36.015a2 2 0 0 1-1.992 1.992 2 2 0 0 1-1.992-1.993 2 2 0 0 1 1.992-1.992 2 2 0 0 1 1.993 1.992zm0-36.016a1.976 1.976 0 0 1-1.992 1.992 1.976 1.976 0 0 1-1.992-1.992 2 2 0 0 1 1.992-1.992 2 2 0 0 1 1.993 1.992zm10.47-17.969c0 6.836-5.587 12.422-12.462 12.422-6.914 0-12.46-5.586-12.46-12.422 0-6.914 5.546-12.5 12.46-12.5 6.875 0 12.461 5.586 12.461 12.5zm0 0" style="fill-rule:nonzero;fill:#000;fill-opacity:1;stroke-width:3.985;stroke-linecap:butt;stroke-linejoin:miter;stroke:#000;stroke-opacity:1;stroke-miterlimit:10" transform="matrix(.1 0 0 -.1 0 159)"/><path d="M480 645.625h29.336m29.336 0h29.297m29.336 0h29.336m29.297 0h29.335m29.337 0h29.296m29.336 0h29.336m29.297 0h29.336m29.336 0h29.297m29.336 0h29.336m29.297 0h29.335m29.336 0h29.297m29.336 0h29.336m29.337 0h29.335m29.297 0h29.336m29.297 0h29.336m29.336 0h29.296m29.337 0h29.335m29.297 0h29.336m29.336 0h29.297m29.336 0h29.336m29.336 0h29.297m29.336 0h29.335m29.297 0h29.336m29.336 0h29.297m29.337 0h29.335m29.297 0h29.336m29.336 0h29.336m29.297 0h29.336" style="fill:none;stroke-width:3.985;stroke-linecap:butt;stroke-linejoin:miter;stroke:#000;stroke-opacity:1;stroke-miterlimit:10" transform="matrix(.1 0 0 -.1 0 159)"/><path d="M492.617 645.625V537.617" style="fill:none;stroke-width:7.9701;stroke-linecap:butt;stroke-linejoin:miter;stroke:#000;stroke-opacity:1;stroke-miterlimit:10" transform="matrix(.1 0 0 -.1 0 159)"/><use xlink:href="#a" x=".954" y="102" style="fill:#000;fill-opacity:1"/><use xlink:href="#b" x="9.354" y="102" style="fill:#000;fill-opacity:1"/><use xlink:href="#e" x="15.714" y="103.8" style="fill:#000;fill-opacity:1"/><use xlink:href="#g" x="23.274" y="102" style="fill:#000;fill-opacity:1"/><use xlink:href="#b" x="34.314" y="102" style="fill:#000;fill-opacity:1"/><use xlink:href="#j" x="40.674" y="103.8" style="fill:#000;fill-opacity:1"/><use xlink:href="#a" x="217.195" y="96.36" style="fill:#000;fill-opacity:1"/><use xlink:href="#b" x="225.595" y="96.36" style="fill:#000;fill-opacity:1"/><use xlink:href="#j" x="231.955" y="98.16" style="fill:#000;fill-opacity:1"/><use xlink:href="#b" x="217.555" y="53.159" style="fill:#000;fill-opacity:1"/><use xlink:href="#j" x="223.915" y="54.959" style="fill:#000;fill-opacity:1"/><path d="M2627.383 861.602v93.593" style="fill:none;stroke-width:3.985;stroke-linecap:butt;stroke-linejoin:miter;stroke:#000;stroke-opacity:1;stroke-miterlimit:10" transform="matrix(.1 0 0 -.1 0 159)"/><path d="M2639.844 955.195a12.42 12.42 0 0 1-12.461 12.461c-6.875 0-12.422-5.547-12.422-12.46 0-6.876 5.547-12.462 12.422-12.462 6.914 0 12.46 5.586 12.46 12.461zm-10.469-109.179c0 1.093-.86 1.992-1.992 1.992a2 2 0 0 1-1.992-1.992 2 2 0 0 1 1.992-1.993c1.133 0 1.992.899 1.992 1.993zm0-31.211c0 1.093-.86 1.992-1.992 1.992a2 2 0 0 1-1.992-1.992 2 2 0 0 1 1.992-1.992c1.133 0 1.992.898 1.992 1.992zm0-31.211c0 1.093-.86 1.992-1.992 1.992a2 2 0 0 1-1.992-1.992 2 2 0 0 1 1.992-1.992c1.133 0 1.992.898 1.992 1.992zm10.469-15.586c0 6.875-5.547 12.46-12.461 12.46-6.875 0-12.422-5.585-12.422-12.46s5.547-12.461 12.422-12.461c6.914 0 12.46 5.586 12.46 12.46zm0 0" style="fill-rule:nonzero;fill:#000;fill-opacity:1;stroke-width:3.985;stroke-linecap:butt;stroke-linejoin:miter;stroke:#000;stroke-opacity:1;stroke-miterlimit:10" transform="matrix(.1 0 0 -.1 0 159)"/><path d="M480 768.008h29.844m29.804 0h29.844m29.805 0h29.844m29.804 0h29.844m29.805 0h29.843m29.844 0h29.805m29.804 0h29.844m29.844 0h29.805m29.844 0h29.804m29.805 0h29.844m29.843 0h29.805m29.844 0h29.805m29.804 0h29.844m29.844 0h29.804m29.844 0h29.805m29.844 0h29.804m29.844 0h29.805m29.844 0h29.804m29.843 0h29.845m29.805 0h29.804m29.844 0h29.804m29.844 0h29.805m29.844 0h29.843m29.805 0h29.844m29.805 0h29.843m29.805 0h29.805m29.843 0h29.844m29.805 0h29.844m29.804 0h29.844m29.805 0h29.843m29.805 0h29.844m29.804 0h29.844m29.806 0h29.843m29.805 0h29.843m29.805 0h29.844m29.843 0h29.805" style="fill:none;stroke-width:3.985;stroke-linecap:butt;stroke-linejoin:miter;stroke:#000;stroke-opacity:1;stroke-miterlimit:10" transform="matrix(.1 0 0 -.1 0 159)"/><path d="M492.617 768.008v-50.39" style="fill:none;stroke-width:7.9701;stroke-linecap:butt;stroke-linejoin:miter;stroke:#000;stroke-opacity:1;stroke-miterlimit:10" transform="matrix(.1 0 0 -.1 0 159)"/><use xlink:href="#a" x=".954" y="86.879" style="fill:#000;fill-opacity:1"/><use xlink:href="#b" x="9.354" y="86.879" style="fill:#000;fill-opacity:1"/><use xlink:href="#f" x="15.714" y="88.679" style="fill:#000;fill-opacity:1"/><use xlink:href="#g" x="23.274" y="86.879" style="fill:#000;fill-opacity:1"/><use xlink:href="#b" x="34.314" y="86.879" style="fill:#000;fill-opacity:1"/><use xlink:href="#k" x="40.674" y="88.679" style="fill:#000;fill-opacity:1"/><use xlink:href="#a" x="267.721" y="84.12" style="fill:#000;fill-opacity:1"/><use xlink:href="#b" x="276.121" y="84.12" style="fill:#000;fill-opacity:1"/><use xlink:href="#k" x="282.481" y="85.92" style="fill:#000;fill-opacity:1"/><use xlink:href="#b" x="268.081" y="65.398" style="fill:#000;fill-opacity:1"/><use xlink:href="#k" x="274.441" y="67.198" style="fill:#000;fill-opacity:1"/></svg>