<svg xmlns="http://www.w3.org/2000/svg" width="218pt" height="148pt" viewBox="0 0 218 148"><path d="M10 741.602h2160.04" style="fill:none;stroke-width:3.985;stroke-linecap:butt;stroke-linejoin:miter;stroke:#000;stroke-opacity:1;stroke-miterlimit:10" transform="matrix(.1 0 0 -.1 0 148)"/><path d="M.746 70.852h.602v6H.746zm108.004 0h.602v6h-.602zm108 0h.602v6h-.602zm0 0" style="stroke:none;fill-rule:nonzero;fill:#000;fill-opacity:1"/><path d="M1090.04 21.602v1440" style="fill:none;stroke-width:3.985;stroke-linecap:butt;stroke-linejoin:miter;stroke:#000;stroke-opacity:1;stroke-miterlimit:10" transform="matrix(.1 0 0 -.1 0 148)"/><path d="M105.988 145.492h6v.602h-6zm0-72h6v.602h-6zm0-72.004h6v.602h-6zm0 0" style="stroke:none;fill-rule:nonzero;fill:#000;fill-opacity:1"/><path d="m10 135.742 24.219-8.75 6.054-2.226 6.055-2.188 6.055-2.226 6.054-2.188 18.165-6.68 6.054-2.187 18.164-6.68 6.055-2.187 12.11-4.453 6.054-2.188 6.055-2.227 12.11-4.374L149.218 85l6.094-2.188 6.054-2.148 6.016-2.187 6.094-2.149 6.054-2.148 12.11-4.22 6.054-2.07 6.016-2.07 6.094-2.07 6.054-2.07 6.016-1.992 12.11-3.985 12.109-3.828 12.11-3.75 6.054-1.797 12.11-3.516 6.054-1.68 6.094-1.64 6.054-1.601 6.016-1.563 6.055-1.484 6.054-1.446 6.094-1.367 6.016-1.289 6.054-1.25 6.055-1.172 6.055-1.093 6.054-1.016 6.055-.938 6.055-.82 6.055-.742 6.054-.625 6.055-.547 6.055-.43 6.054-.273 6.055-.234h6.055l6.054.078 6.055.273 6.055.39 6.054.548 6.055.742 6.055.898 6.054 1.094 6.055 1.328 6.055 1.524 6.055 1.718 6.054 1.953 6.055 2.227 6.055 2.46 6.054 2.774 6.055 3.008 6.055 3.36 6.054 3.632 6.055 3.985 6.055 4.336 6.054 4.726 6.055 5.117 6.055 5.508 6.054 5.938 6.055 6.367 6.055 6.875 6.054 7.383 6.055 7.89 6.055 8.438 6.055 9.023 6.054 9.61 6.055 10.273 6.055 10.938 6.054 11.64 6.055 12.383 6.055 13.125 6.054 13.945 6.055 14.805 6.055 15.703 6.054 16.602 6.055 17.578 6.016 18.555L657.812 310l6.055 20.703 6.016 21.875 6.094 23.047 6.054 24.258 6.016 25.547 6.055 26.836 6.054 28.164 6.055 29.61 6.094 30.937 6.054 32.421 6.016 33.868 6.055 35.351 6.054 36.758 6.055 38.281 6.055 39.688 6.054 41.054 6.055 42.383 6.055 43.594 6.054 44.648 6.055 45.625 6.055 46.368 6.055 46.797 6.054 46.953 6.055 46.718 6.055 46.016 6.054 44.766 6.055 42.89 6.055 40.196 6.054 36.64 6.055 32.07 6.055 26.25 6.054 19.18 6.055 10.586 6.055.313 6.054-11.68 6.055-25.508 6.055-41.172 6.055-58.633 6.054-77.539 6.055-97.421 6.055-117.54 6.054-136.523 6.055-152.773m343.789 0 6.055-152.735 6.054-136.562 6.055-117.5 6.055-97.461 6.054-77.54 6.055-58.632L1304.297 60l6.055-25.508 6.054-11.68 6.055.352 6.055 10.547 6.015 19.18 6.094 26.289 6.016 32.03 6.054 36.642 6.094 40.234 6.055 42.851 6.015 44.766 6.055 46.055 6.094 46.719 6.015 46.953 6.094 46.797 6.016 46.328 6.054 45.625 6.055 44.687 6.055 43.594 6.055 42.383 6.054 41.054 6.055 39.688 6.094 38.242 6.015 36.797 6.055 35.313 6.055 33.867 6.054 32.422 6.055 30.976 6.055 29.57 6.054 28.164 6.055 26.836 6.055 25.547 6.054 24.297 6.055 23.008 6.055 21.875 6.055 20.703 6.054 19.649 6.055 18.593 6.055 17.578 6.054 16.602 6.055 15.664 6.055 14.805 6.054 13.945 6.055 13.164 6.055 12.383 6.054 11.64 6.055 10.899 6.055 10.273 6.054 9.649 6.055 9.023 6.055 8.438 6.055 7.89 6.054 7.344 6.055 6.875 6.055 6.367 6.054 5.977 6.055 5.508 6.055 5.078 6.054 4.726 6.055 4.336 6.055 3.985 6.054 3.672 6.055 3.32 6.055 3.047 6.054 2.734 6.055 2.461 6.055 2.227 6.055 1.992 6.054 1.719 6.055 1.523 6.055 1.29 6.054 1.093 6.016.937 6.094.704 6.054.585 6.016.391 6.094.234 6.015.079 6.094-.04 6.055-.156 6.054-.312 6.016-.43 6.055-.508 6.094-.664 6.054-.742 6.016-.82 6.094-.938 6.015-1.015 6.055-1.055 12.11-2.422 6.093-1.328 6.016-1.367 6.093-1.407 6.016-1.523 6.055-1.523 6.054-1.641 6.055-1.602 12.11-3.437 12.109-3.594 6.055-1.836 6.054-1.914 6.055-1.875 12.11-3.906 6.054-2.031 6.055-1.993 6.054-2.07 6.055-2.031 6.055-2.07 18.164-6.329 18.164-6.445 6.055-2.187 6.054-2.149 6.055-2.226 18.164-6.563 6.055-2.226 6.054-2.188 12.11-4.453 6.054-2.188 30.274-11.132 6.055-2.188 12.109-4.453 12.11-4.375 6.054-2.227 18.164-6.562M918.125 741.602l2.07-54.454 2.032-55.468 2.03-56.133 2.071-56.445 2.031-56.329 2.032-55.78 2.07-54.65 2.031-52.968 2.031-50.664 2.07-47.578 2.032-43.828 2.07-39.258 2.032-33.75 2.03-27.461 2.071-20.156 2.031-11.992 2.032-2.891 2.07 7.148 2.07 17.93 2.032 29.531 2.03 41.64 2.032 54.22 2.07 66.836 2.032 79.296 2.07 91.211 2.031 102.11 2.031 111.367 2.07 118.516m229.181 0 2.03 118.515 2.07 111.406 2.032 102.07 2.031 91.212 2.07 79.336 2.032 66.836 2.07 54.18 2.032 41.64 2.03 29.531 2.071 17.969 2.031 7.11 2.032-2.852 2.07-11.993 2.031-20.156 2.07-27.46 2.032-33.79 2.07-39.218 2.031-43.829 2.032-47.617 2.07-50.625 2.031-53.008 2.07-54.648 2.032-55.742 2.03-56.367 2.071-56.446 2.032-56.133 2.03-55.468 2.071-54.453m-286.484 0 1.015 61.054 1.016 61.719 1.016 61.914 1.054 61.563 1.016 60.703 1.015 59.18 1.016 57.07 1.016 54.257 1.015 50.704 1.055 46.406 1.016 41.367 1.015 35.547 1.016 28.945 1.016 21.524 1.054 13.437 1.016 4.61 1.015-4.805 1.016-14.805 1.016-25.195 1.054-35.899 1.016-46.757 1.016-57.461 1.015-67.97 1.016-77.85 1.055-86.915 1.015-94.922 1.016-101.367 1.015-106.054m171.915 0 1.015-106.055 1.016-101.367 1.015-94.883 1.016-86.953 1.016-77.852 1.054-67.969 1.016-57.46 1.016-46.72 1.015-35.937 1.016-25.195 1.055-14.805 1.015-4.804 1.016 4.648 1.015 13.398 1.055 21.563 1.016 28.906 1.015 35.547 1.016 41.367 1.016 46.406 1.054 50.704 1.016 54.257 1.016 57.07 1.015 59.18 1.016 60.704 1.015 61.562 1.055 61.914 1.016 61.719 1.015 61.055m-200.546 0 .625-65 .625-65.391.585-65.234.625-64.454.625-63.046.625-60.938.586-58.164.625-54.61.625-50.39.586-45.313.625-39.57.625-33.086.586-25.86.625-18.007.625-9.531.625-.508.586 8.984.625 18.828.625 28.829.625 38.906.586 48.984.625 58.711.586 68.047.625 76.602.625 84.375.625 90.937.586 96.133.625 99.766m137.54 0 .585 99.765.625 96.172.625 90.938.586 84.335.625 76.641.625 68.008.586 58.71.625 48.985.625 38.946.625 28.828.586 18.789.625 8.984.625-.508.625-9.492.586-18.008.625-25.898.625-33.047.586-39.61.625-45.312.625-50.351.586-54.61.625-58.164.625-60.937.625-63.047.586-64.453.625-65.235.625-65.43.625-65m-154.727.001.43 67.617.39 67.851.39 67.383.43 66.328.391 64.492.43 61.993.43 58.75.39 54.726.39 49.961.43 44.492.43 38.282.39 31.367.391 23.789.43 15.664.39 6.992.43-2.148.391-11.524.43-21.21.39-31.016.43-40.664.39-50.196.43-59.297.391-67.89.43-75.742.39-82.618.43-88.476.39-92.93.43-95.976m114.571 0 .43-95.977.39-92.93.43-88.437.39-82.656.39-75.704.43-67.89.43-59.336.39-50.156.392-40.703.43-30.977.39-21.211.43-11.563.43-2.109.39 6.992.39 15.625.43 23.828.39 31.368.43 38.242.391 44.492.43 49.96.39 54.767.43 58.71.39 61.993.43 64.53.391 66.29.43 67.422.39 67.812.43 67.618m-126.055 0 .274-69.493.273-69.53.313-68.907.273-67.617.313-65.47.312-62.694.274-59.102.312-54.726.274-49.649.273-43.828.313-37.305.273-30.117.312-22.305.313-14.023.273-5.234.274 3.945.312 13.32.274 22.813.312 32.422.274 41.796.312 50.938.274 59.61.312 67.734.274 75.039.312 81.445.274 86.719.312 90.781.273 93.438m98.242 0 .274 93.437.313 90.781.273 86.758.273 81.406.313 75.04.312 67.734.274 59.61.273 50.937.313 41.797.273 32.421.313 22.852.273 13.32.313 3.907.273-5.235.313-13.984.273-22.344.313-30.117.273-37.305.313-43.789.273-49.648.312-54.766.274-59.101.312-62.657.274-65.508.312-67.578.274-68.945.273-69.531.313-69.492m-106.407 0 .235 70.898.195 70.82.235 70.078.234 68.477.195 66.25.235 63.164.195 59.297.234 54.726.196 49.376.234 43.28.234 36.563.196 29.18.234 21.21.234 12.774.196 3.907.234-5.235.234-14.57.196-24.024.234-33.398.195-42.578.235-51.445.234-59.805.196-67.54.234-74.53.234-80.547.196-85.508.234-89.219.195-91.601m85.938 0 .234-91.602.235-89.219.195-85.508.234-80.507.196-74.532.234-67.578.234-59.804.196-51.446.234-42.578.234-33.398.196-23.985.234-14.61.234-5.233.196 3.945.234 12.773.195 21.211.235 29.14.195 36.563.234 43.282.235 49.375.234 54.726.196 59.336.234 63.164.195 66.211.235 68.516.195 70.039.469 141.719m-92.11 0 .196-71.954.156-71.836.156-70.898.156-69.258.196-66.758.195-63.515.156-59.492.156-54.688.157-49.14.195-42.852.156-35.977.196-28.398.156-20.352.156-11.797.195-2.93.157 6.212.156 15.547.195 24.882.156 34.141.196 43.125.156 51.797.156 59.922.196 67.422.156 74.101.195 79.883.156 84.531.157 88.047.156 90.235m76.406 0 .195 90.234.157 88.047.156 84.57.195 79.844.157 74.101.156 67.422.195 59.922.156 51.797.157 43.164.195 34.14.156 24.884.195 15.507.157 6.25.156-2.93.156-11.835.196-20.313.156-28.437.195-35.938.156-42.89.157-49.102.195-54.687.156-59.493.195-63.554.157-66.758.156-69.219.195-70.937.157-71.797.156-71.992m-81.172 0 .156 72.851.156 72.617.118 71.602.117 69.805.156 67.187.156 63.79.117 59.609.118 54.648.156 48.945.117 42.5.156 35.469.118 27.813.156 19.648.117 11.055.156 2.148.117-6.992.157-16.29.117-25.546.156-34.727.117-43.593.157-52.032.117-60.039.156-67.265.156-73.79.117-79.296.118-83.828.156-87.11.117-89.18m68.75.001.156-89.18.117-87.11.157-83.789.117-79.336.156-73.75.117-67.304.157-60 .117-52.07.156-43.594.117-34.688.156-25.586.118-16.25.156-7.03.117 2.148.156 11.054.118 19.649.156 27.851.117 35.43.156 42.539.156 48.945.118 54.61.117 59.609.156 63.828.117 67.188.157 69.804.117 71.602.156 72.617.117 72.813m-72.578 0 .39-254.375.391-226.094.39-164.063.391-73.476.391 34.96.39 145.548.391 239.57.391 297.93m62.54 0 .35 297.93.391 239.609.39 145.546.391 34.922.43-73.476.352-164.063.39-226.054.391-254.414m-65.625 0 .352 256.171.312 226.797.313 163.477.351 71.875.313-36.68.312-146.562.352-239.14.312-295.938m57.305 0 .312-295.938.352-239.14.312-146.524.313-36.719.312 71.914.352 163.438.313 226.797.351 256.172m-59.922 0 .274-257.696.273-227.344.274-162.968.273-70.586.273 38.203.274 147.383.273 238.75.274 294.258m52.89 0 .274 294.296.273 238.711.313 147.422.273 38.164.235-70.586.312-162.93.273-227.382.274-257.695m-55.117 0 .234 258.984.234 227.851.274 162.5.234 69.454.235-39.414.234-148.125.234-238.399.235-292.851m49.101 0 .235-292.852.234-238.398.234-148.086.235-39.453.234 69.453.235 162.5.234 227.851.234 258.985m-50.976 0 .195-260.079.195-228.32.196-162.11.234-68.437.195 40.508.196 148.711.195 238.086.234 291.64m45.821.001.195 291.64.234 238.086.196 148.711.195 40.508.195-68.438.196-162.109.234-228.281.195-260.117m-47.46 0 .156 261.093.195 228.633.156 161.758.196 67.617.156-41.445.195-149.219.195-237.851.157-290.586m42.968 0 .196-290.547.195-237.852.156-149.219.196-41.484.156 67.617.195 161.758.156 228.672.196 261.055m-44.414 0 .156-261.914.156-228.985.195-161.445.118-66.836.195 42.266.117 149.687.195 237.578.157 289.649m40.429 0 .157 289.648.156 237.617.156 149.649.156 42.265.157-66.836.156-161.406.156-228.984.156-261.953m-41.679 0 .117 262.695.156 229.258.117 161.172.157 66.171.156-43.007.117-150.079.156-237.382.117-288.828m38.204 0 .156-288.829.117-237.382.156-150.078.157-43.008.117 66.21.156 161.133.156 229.258.117 262.696m-39.336 0 .157-263.36.117-229.531.117-160.899.117-65.546.157 43.632.117 150.43.117 237.188.117 288.086m36.211 0 .117 288.125.117 237.148.118 150.43.117 43.672.117-65.586.156-160.899.117-229.492.118-263.398m-37.188 0 .117 263.984.117 229.726.118 160.704.117 65.039.117-44.258.117-150.742.078-236.993.118-287.46m34.375 0 .117-287.422.117-237.032.117-150.742.117-44.219.117 65.04.118 160.664.117 229.726.117 263.985m-35.312 0 .117-264.532.117-229.922.078-160.468.117-64.57.117 44.765.079 151.016.117 236.875.078 286.836m32.734 0 .117 286.875.118 236.835.078 151.016.117 44.766.117-64.532.078-160.468.117-229.961.079-264.531m-33.555 0 .078 265.039.117 230.117.078 160.273.117 64.102.079-45.235.117-151.25.078-236.718.078-286.328m31.25 0 .117-286.329.078-236.718.118-151.25.078-45.235.078 64.102.117 160.273.078 230.118.078 265.039m-31.992 0 .117-265.508.04-230.235.116-160.117.079-63.71.078 45.663.078 151.485.078 236.601.117 285.82m29.882.001.08 285.82.077 236.601.078 151.485.118 45.664.078-63.672.078-160.117.078-230.274.078-265.507m-30.547 0 .078 265.937.078 230.43.079 159.922.078 63.32.078-46.055.078-151.68.078-236.484.078-285.39m28.633 0 .078-285.391.078-236.445.078-151.72.078-46.054.079 63.32.078 159.961.078 230.391.078 265.938m-29.258 0 .078-266.329.04-230.507.077-159.844.079-62.969.078 46.445.078 151.875.039 236.368.078 284.96m27.54.001.038 285 .078 236.367.078 151.875.079 46.406.078-62.969.078-159.804.039-230.547.078-266.328m-28.086 0 .078 266.68.078 230.663.078 159.688.04 62.656.078-46.758.039-152.07.078-236.25.078-284.61m26.445.001.078-284.61.078-236.25.04-152.07.078-46.719.039 62.656.078 159.649.078 230.664.078 266.68m-26.992 0 .039-266.993.078-230.78.04-159.532.077-62.383.078 47.07.04 152.188.078 236.172.039 284.258m25.468 0 .079 284.296.039 236.133.078 152.227.078 47.031.039-62.344.078-159.53.04-230.821.077-266.992m-25.976 0 .078 267.343.039 230.86.078 159.414.039 62.11.078-47.345.04-152.382.077-236.055.04-283.945m24.57 0 .039-283.946.078-236.054.039-152.344.078-47.344.04 62.07.077 159.414.04 230.899.038 267.305" style="fill:none;stroke-width:3.985;stroke-linecap:butt;stroke-linejoin:miter;stroke:#000;stroke-opacity:1;stroke-miterlimit:10" transform="matrix(.1 0 0 -.1 0 148)"/><path d="m1077.734 741.602.04-267.579.078-231.015.039-159.297.078-61.836.039 47.617.039 152.5.078 235.977.04 283.633m23.71 0 .04 283.632.077 236.016.04 152.5.038 47.578.078-61.836.04-159.297.039-230.976.078-267.617" style="fill:none;stroke-width:3.985;stroke-linecap:butt;stroke-linejoin:miter;stroke:#000;stroke-opacity:1;stroke-miterlimit:10" transform="matrix(.1 0 0 -.1 0 148)"/><path d="m1078.164 741.602.04 267.851.038 231.094.04 159.219.077 61.601.04-47.851.078-152.618.039-235.937.039-283.36m22.929.001.04-283.36.039-235.898.039-152.617.078-47.891.039 61.64.039 159.18.078 231.094.039 267.852m-23.32 0 .039-268.086.039-231.172.078-159.14.039-61.368.04 48.086.038 152.773.04 235.82.077 283.087" style="fill:none;stroke-width:3.985;stroke-linecap:butt;stroke-linejoin:miter;stroke:#000;stroke-opacity:1;stroke-miterlimit:10" transform="matrix(.1 0 0 -.1 0 148)"/><path d="m1101.094 741.602.039 283.125.078 235.82.039 152.734.04 48.086.038-61.367.04-159.102.077-231.171.04-268.125" style="fill:none;stroke-width:3.985;stroke-linecap:butt;stroke-linejoin:miter;stroke:#000;stroke-opacity:1;stroke-miterlimit:10" transform="matrix(.1 0 0 -.1 0 148)"/><path d="M107.895 145.84h2.214V1.836h-2.214zm0 0" style="stroke:none;fill-rule:nonzero;fill:#000;fill-opacity:1"/><path d="M1078.945 21.602v1440h22.149v-1440zm0 0" style="fill:none;stroke-width:3.985;stroke-linecap:butt;stroke-linejoin:miter;stroke:#000;stroke-opacity:1;stroke-miterlimit:10" transform="matrix(.1 0 0 -.1 0 148)"/></svg>