<svg xmlns="http://www.w3.org/2000/svg" xmlns:xlink="http://www.w3.org/1999/xlink" width="496" height="146pt" viewBox="0 0 372 146"><defs><symbol id="a" overflow="visible"><path d="M3.11-1.172c0-.25-.063-.437-.22-.594-.203-.203-.468-.296-1.171-.437-.657-.125-.86-.281-.86-.656 0-.391.266-.61.766-.61.531 0 .938.266.938.64v.188h.218c0-.453.016-.656.047-.89-.422-.156-.719-.203-1.047-.203-.922 0-1.484.437-1.484 1.156 0 .375.172.656.547.812.203.094.625.235 1.172.344.359.078.515.25.515.547 0 .438-.406.734-.969.734-.578 0-1-.28-1-.671v-.329H.329c0 .547-.031.797-.094 1.11.422.14.735.187 1.094.187C2.375.156 3.11-.39 3.11-1.172m0 0" style="stroke:none"/></symbol><symbol id="b" overflow="visible"><path d="M2.156.031v-.25l-.36-.015C1.517-.25 1.5-.312 1.5-.813v-2.89l-.078-.031a4.4 4.4 0 0 1-1.234.328v.219h.296c.313 0 .344.062.344.578v1.796c0 .5-.015.563-.297.579l-.36.015v.25C.5.016.829 0 1.157 0c.344 0 .672.016 1 .031zm-.594-5.11c0-.234-.156-.39-.39-.39-.25 0-.406.157-.406.39 0 .235.156.407.39.407.25 0 .407-.172.407-.406zm0 0" style="stroke:none"/></symbol><symbol id="c" overflow="visible"><path d="M4.563.031v-.25l-.329-.015c-.28-.016-.296-.063-.296-.579v-1.53c0-.938-.438-1.391-1.329-1.391-.296 0-.468.046-.64.203l-.594.515v-.687l-.078-.031a4.4 4.4 0 0 1-1.234.328v.219h.28c.329 0 .36.062.36.578v1.796c0 .5-.031.563-.297.579l-.36.015v.25C.376.016.704 0 1.032 0s.672.016 1 .031v-.25l-.36-.015c-.28-.016-.296-.078-.296-.579V-2.5c0-.36.516-.75 1-.75.547 0 .89.39.89 1.016V.03C3.47.016 3.688 0 3.892 0c.234 0 .437.016.671.031m0 0" style="stroke:none"/></symbol><symbol id="h" overflow="visible"><path d="M3.734.031c-.015-.172-.015-.25-.015-.36 0-.108 0-.187.015-.358L.97-.61l1.453-1.547c.781-.813 1.015-1.25 1.015-1.86 0-.906-.624-1.468-1.64-1.468-.563 0-.953.156-1.344.546l-.14 1.094h.234l.094-.375c.125-.453.421-.656.953-.656.687 0 1.125.422 1.125 1.11 0 .593-.344 1.187-1.235 2.14L.125-.187V.03C.719.016 1.313 0 1.906 0c.61 0 1.219.016 1.828.031m0 0" style="stroke:none"/></symbol><symbol id="k" overflow="visible"><path d="M3.328.031v-.25l-.406-.015c-.438-.032-.516-.11-.516-.532v-4.718l-.125-.047a13.5 13.5 0 0 1-1.797.765l.047.344H.61c.36-.156.704-.312 1.063-.469.047 0 .062.063.062.266v3.86c0 .421-.093.5-.515.53l-.453.016v.25C1.203.016 1.64 0 2.078 0c.422 0 .844.016 1.25.031m0 0" style="stroke:none"/></symbol><symbol id="d" overflow="visible"><path d="M2.422-6.016C1.219-5.234.484-3.859.484-2.156c0 1.562.75 3.062 1.922 3.86l.094-.141C1.39.609 1.203-.329 1.203-2.188c0-1.86.219-2.813 1.297-3.688zm0 0" style="stroke:none"/></symbol><symbol id="f" overflow="visible"><path d="m.328-6.016-.078.141C1.344-5 1.547-4.047 1.547-2.187c0 1.859-.188 2.796-1.297 3.75l.11.14C1.515.906 2.28-.594 2.28-2.157c0-1.702-.734-3.077-1.953-3.859zm0 0" style="stroke:none"/></symbol><symbol id="j" overflow="visible"><path d="M4.86-1.938v-.437H2.905v-1.953h-.453v1.953H.5v.438h1.953V.016h.453v-1.954zm0 0" style="stroke:none"/></symbol><symbol id="e" overflow="visible"><path d="M3.578-.625 3.5-.781c-.281.234-.484.36-.61.36-.124 0-.218-.079-.296-.235s-.156-.453-.203-.688L2.25-2.14l.281-.39c.375-.516.578-.703.828-.703.125 0 .22.062.266.187l.11-.031.124-.688a.6.6 0 0 0-.234-.078c-.328 0-.64.297-1.14 1.016l-.297.453-.047-.39c-.094-.782-.313-1.079-.782-1.079-.203 0-.375.063-.453.172l-.453.656.125.079c.25-.266.406-.376.547-.376.266 0 .438.329.578 1.11l.094.484-.328.5c-.344.532-.61.782-.828.782C.516-.438.437-.47.42-.5L.329-.719l-.156.016c0 .156-.016.265-.063.515-.015.094-.03.126-.03.172.108.079.233.11.343.11.25 0 .562-.235.812-.61l.61-.937.078.547c.125.687.297 1 .578 1 .172 0 .438-.14.688-.375zm0 0" style="stroke:none"/></symbol><symbol id="i" overflow="visible"><path d="m4.094-.672-.078-.156-.204.14c-.234.157-.406.235-.484.235-.062 0-.11-.063-.11-.156 0-.032.016-.125.016-.157l.532-2.203c.046-.234.078-.453.078-.578 0-.187-.078-.297-.235-.297-.343 0-.89.313-1.359.75-.313.266-.531.547-.938 1.125L1.61-3.25c.032-.14.047-.234.047-.328 0-.172-.062-.266-.187-.266-.157 0-.469.172-1.047.594l-.234.156.062.156.25-.156c.281-.203.328-.203.375-.203.094 0 .14.078.14.203 0 .406-.327 1.938-.656 3.078l.063.094q.304-.094.562-.14c.141-1 .329-1.516.688-2.079.437-.671 1.016-1.156 1.375-1.156q.14 0 .14.188c0 .14-.03.312-.093.562L2.688-.859c-.079.296-.11.484-.11.609 0 .203.094.328.25.328.203 0 .485-.172 1.266-.75m0 0" style="stroke:none"/></symbol><symbol id="g" overflow="visible"><path d="M4.844-3.719c-.547.016-1.11.031-1.672.031-.688 0-1.375-.015-2.047-.03-.516 0-.625.624-.766 1.015v.047l.079.047.046-.032c.329-.5.516-.593 1.125-.593h.172C1.484-2.125 1.234-1.031.75.016l.063.078c.156-.047.437-.11.578-.203.312-1.016.515-2.079.718-3.125h1.813c-.438.703-.766 1.53-.766 2.375 0 .39.14.984.625.984.328 0 .75-.328.985-.531l.03-.047-.046-.078h-.063c-.14.078-.296.203-.484.203-.437 0-.484-.672-.484-1 0-.672.203-1.328.531-1.906l.5-.094c.016-.14.063-.281.094-.39zm0 0" style="stroke:none"/></symbol><symbol id="l" overflow="visible"><path d="M6.625-5.094c-.75.016-1.516.047-2.281.047-.938 0-1.875-.031-2.813-.031C.828-5.094.688-4.25.484-3.703l.016.078.094.047.078-.047c.437-.688.703-.797 1.515-.797h.25c-.39 1.516-.765 3.016-1.406 4.438l.078.109c.22-.063.61-.14.797-.266.422-1.39.703-2.843.969-4.28h2.484c-.593.952-1.03 2.093-1.03 3.25 0 .53.187 1.327.859 1.327.437 0 1-.422 1.343-.719l.016-.062L6.5-.719l-.094-.015c-.172.125-.39.28-.656.28-.61 0-.672-.905-.672-1.359 0-.921.281-1.812.75-2.609l.672-.14c.016-.188.094-.36.125-.532m0 0" style="stroke:none"/></symbol><symbol id="m" overflow="visible"><path d="M5.11.031c-.032-.234-.032-.344-.032-.484s0-.25.031-.5l-3.78.11 1.984-2.095c1.062-1.124 1.39-1.734 1.39-2.546 0-1.25-.86-2.032-2.234-2.032-.797 0-1.328.22-1.86.766L.422-5.266h.312l.157-.5c.171-.64.562-.906 1.296-.906.938 0 1.532.594 1.532 1.516 0 .812-.453 1.625-1.688 2.937L.171-.25v.281C.985.016 1.798 0 2.61 0c.829 0 1.672.016 2.5.031m0 0" style="stroke:none"/></symbol><symbol id="q" overflow="visible"><path d="M4.563.031v-.328l-.579-.031c-.593-.031-.703-.156-.703-.719v-6.469l-.156-.046c-.703.359-1.484.687-2.469 1.046l.078.47h.11c.469-.22.953-.438 1.437-.657.063 0 .078.11.078.36v5.296c0 .563-.109.688-.703.719l-.61.031v.328A69 69 0 0 1 2.845 0c.562 0 1.14.016 1.719.031zm0 0" style="stroke:none"/></symbol><symbol id="n" overflow="visible"><path d="m5.61-.922-.11-.203-.281.188c-.328.203-.563.328-.672.328-.078 0-.14-.094-.14-.22 0-.062.015-.171.015-.218l.719-3.016c.078-.312.125-.609.125-.796 0-.25-.125-.391-.344-.391-.453 0-1.203.406-1.844 1-.422.39-.719.766-1.297 1.563l.422-1.766a1.8 1.8 0 0 0 .063-.438c0-.234-.079-.359-.25-.359-.235 0-.657.234-1.454.797l-.296.219.078.218.344-.234c.39-.25.437-.266.515-.266.11 0 .188.11.188.266C1.39-3.687.953-1.578.5-.016l.078.11a8 8 0 0 1 .766-.188c.203-1.375.437-2.078.937-2.828.594-.922 1.406-1.594 1.89-1.594.126 0 .188.094.188.266 0 .188-.03.422-.109.766l-.578 2.312c-.094.406-.14.656-.14.828 0 .281.124.438.327.438.282 0 .672-.219 1.75-1.016zm0 0" style="stroke:none"/></symbol><symbol id="o" overflow="visible"><path d="M3.313-8.234C1.655-7.156.655-5.297.655-2.938c0 2.126 1.031 4.172 2.625 5.266l.14-.187C1.907.828 1.642-.453 1.642-2.984c0-2.547.296-3.86 1.78-5.063zm0 0" style="stroke:none"/></symbol><symbol id="p" overflow="visible"><path d="M6.64-2.656v-.61H3.97v-2.671h-.61v2.671H.688v.61h2.671V.016h.61v-2.672zm0 0" style="stroke:none"/></symbol><symbol id="r" overflow="visible"><path d="m.453-8.234-.11.187C1.829-6.844 2.126-5.53 2.126-2.984c0 2.53-.266 3.812-1.781 5.125l.14.187c1.594-1.094 2.641-3.14 2.641-5.265 0-2.36-1.016-4.22-2.672-5.297zm0 0" style="stroke:none"/></symbol><symbol id="s" overflow="visible"><path d="M6.594-2.625v-.64H.704v.64zm0 0" style="stroke:none"/></symbol></defs><path d="m1 80.84 6-8.363 6-8.27 6-8.09 6-7.816 6-7.461 6-7.024 6-6.507 6-5.922 6-5.27 6-4.558 6-3.805 6-3 6-2.168 6.004-1.309L91 .84l6 .437 6.004 1.309 6 2.168 5.996 3 6.004 3.805 6 4.558 5.996 5.27 6.004 5.922 6 6.507 6 7.024 6 7.46 6 7.817 6 8.09 6 8.27 6 8.363z" style="stroke:none;fill-rule:nonzero;fill:#e0e0e0;fill-opacity:1"/><path d="m10 651.602 60 83.632 60 82.696 60 80.898 60 78.164 60 74.61 60 70.234 60 65.078 60 59.219 60 52.695 60 45.586 60 38.047 60 30 60 21.68 60.04 13.086 59.96 4.375 60-4.375 60.04-13.086 60-21.68 59.96-30 60.04-38.047 60-45.586 59.96-52.695 60.04-59.219 60-65.078 60-70.234 60-74.61 60-78.164 60-80.898 60-82.696 60-83.632zm0 0" style="fill:none;stroke-width:1;stroke-linecap:butt;stroke-linejoin:miter;stroke:#e0e0e0;stroke-opacity:1;stroke-miterlimit:10" transform="matrix(.1 0 0 -.1 0 146)"/><path d="M10 651.602 25 672.5m30 41.836 15 20.898m0 0 15 20.664m30 41.368 15 20.664m0 0 15 20.234m30 40.43 15 20.234m0 0 15 19.531m30 39.101 15 19.532m0 0 15 18.672m30 37.305 15 18.633m0 0 15 17.578m30 35.117 15 17.539m0 0 15 16.289m30 32.539 15 16.25m0 0 15 14.805m30 29.609 15 14.805m0 0 15 13.164m30 26.367 15 13.164m0 0 15 11.406m30 22.813 15 11.367m0 0 15 9.531m30 19.024 15 9.492m0-.001 15 7.5m30 15 15 7.5m0 0 15 5.43m30 10.82 15 5.43m0 0 15.04 3.282m29.96 6.523 15.04 3.282m0 0 14.96 1.093m30.04 2.188 14.96 1.094m0 0 15-1.094m30-2.188 15-1.093m0 0 15.04-3.282m29.96-6.523 15.04-3.281m0-.001 14.96-5.43m30.04-10.82 15-5.43m0 0 14.96-7.5m30.04-15 14.96-7.5m0 0 15.04-9.491m29.96-19.024 15.04-9.53m0-.001 15-11.367m30-22.813 15-11.406m0 0 14.96-13.164m30.04-26.367 14.96-13.164m0 0 15.04-14.805m30-29.609 15-14.805m0 0 15-16.25m30-32.539 15-16.29m0 .001 15-17.54m30-35.116 15-17.578m0 0 15-18.633m30-37.305 15-18.672m0 0 15-19.531m30-39.101 15-19.532m0 0 15-20.234m30-40.43 15-20.234m0 0 15-20.664m30-41.368 15-20.664m0 0 15-20.898m30-41.836 15-20.898" style="fill:none;stroke-width:7.9701;stroke-linecap:butt;stroke-linejoin:miter;stroke:#000;stroke-opacity:1;stroke-miterlimit:10" transform="matrix(.1 0 0 -.1 0 146)"/><path d="M43.984 685.078A3.976 3.976 0 0 1 40 689.063a4 4 0 0 1-3.984-3.985c0-2.226 1.797-4.023 3.984-4.023 2.227 0 3.984 1.797 3.984 4.023zm60 66.524a4 4 0 0 1-3.984 3.984 4 4 0 0 1-3.984-3.984 3.976 3.976 0 0 1 3.984-3.985 3.976 3.976 0 0 1 3.984 3.985zm60 65.429a4 4 0 0 1-3.984 3.985 4 4 0 0 1-3.984-3.985 4 4 0 0 1 3.984-3.984 4 4 0 0 1 3.984 3.984zm60 63.633a3.976 3.976 0 0 1-3.984 3.984 4 4 0 0 1-3.984-3.984c0-2.226 1.797-4.023 3.984-4.023 2.227 0 3.984 1.797 3.984 4.023zm60 61.094c0 2.226-1.757 4.023-3.984 4.023-2.188 0-3.984-1.797-3.984-4.023a4 4 0 0 1 3.984-3.985 3.976 3.976 0 0 1 3.984 3.985zm60 57.93a3.976 3.976 0 0 1-3.984 3.984 3.976 3.976 0 0 1-3.984-3.985 4 4 0 0 1 3.984-3.984 4 4 0 0 1 3.984 3.985zm60 54.14a3.95 3.95 0 0 1-3.984 3.985 3.976 3.976 0 0 1-3.984-3.985 4 4 0 0 1 3.984-3.984 3.976 3.976 0 0 1 3.984 3.984zm60 49.727a3.976 3.976 0 0 1-3.984 3.984 4 4 0 0 1-3.984-3.984 3.976 3.976 0 0 1 3.984-3.985 3.95 3.95 0 0 1 3.984 3.985zm60 44.726c0 2.227-1.757 4.024-3.984 4.024-2.188 0-3.984-1.797-3.984-4.024 0-2.187 1.797-3.945 3.984-3.945 2.227 0 3.984 1.758 3.984 3.945zm60 39.336a3.95 3.95 0 0 1-3.984 3.985 3.976 3.976 0 0 1-3.984-3.985 4 4 0 0 1 3.984-3.984 3.976 3.976 0 0 1 3.984 3.984zm60 33.477a3.976 3.976 0 0 1-3.984 3.984 4 4 0 0 1-3.984-3.984 3.976 3.976 0 0 1 3.984-3.985 3.95 3.95 0 0 1 3.984 3.985zm60 27.187a3.95 3.95 0 0 1-3.984 3.985 3.976 3.976 0 0 1-3.984-3.985 4 4 0 0 1 3.984-3.984 3.976 3.976 0 0 1 3.984 3.984zm60 20.664c0 2.227-1.757 4.024-3.984 4.024-2.188 0-3.984-1.797-3.984-4.024a4 4 0 0 1 3.984-3.984 3.976 3.976 0 0 1 3.984 3.984zm60 13.907c0 2.226-1.757 4.023-3.984 4.023-2.188 0-3.984-1.797-3.984-4.023a4 4 0 0 1 3.984-3.985 3.976 3.976 0 0 1 3.984 3.985zm60 6.992c0 2.226-1.757 4.023-3.984 4.023-2.188 0-3.984-1.797-3.984-4.023 0-2.188 1.797-3.946 3.984-3.946 2.227 0 3.984 1.758 3.984 3.946zm60 0c0 2.226-1.757 4.023-3.945 4.023a4.02 4.02 0 0 1-4.023-4.023c0-2.188 1.797-3.946 4.023-3.946a3.934 3.934 0 0 1 3.945 3.946zm60-6.992c0 2.226-1.757 4.023-3.984 4.023-2.188 0-3.984-1.797-3.984-4.023a4 4 0 0 1 3.984-3.985 3.976 3.976 0 0 1 3.984 3.985zm60-13.907c0 2.227-1.757 4.024-3.984 4.024-2.188 0-3.984-1.797-3.984-4.024a4 4 0 0 1 3.984-3.984 3.976 3.976 0 0 1 3.984 3.984zm60.039-20.664a3.976 3.976 0 0 1-3.984 3.985c-2.226 0-4.023-1.758-4.023-3.985 0-2.187 1.796-3.984 4.023-3.984a4 4 0 0 1 3.984 3.984zm59.961-27.187c0 2.187-1.757 3.984-3.945 3.984-2.226 0-4.023-1.797-4.023-3.984 0-2.227 1.796-3.985 4.023-3.985 2.188 0 3.945 1.758 3.945 3.985zm60-33.477a3.95 3.95 0 0 1-3.984 3.985 3.976 3.976 0 0 1-3.984-3.985 4 4 0 0 1 3.984-3.984 3.976 3.976 0 0 1 3.984 3.984zm60.039-39.336c0 2.227-1.796 4.024-3.984 4.024a4.02 4.02 0 0 1-4.023-4.024c0-2.187 1.796-3.945 4.023-3.945 2.188 0 3.984 1.758 3.984 3.945zm59.961-44.726c0 2.187-1.757 3.984-3.945 3.984-2.226 0-4.023-1.797-4.023-3.984 0-2.227 1.796-3.985 4.023-3.985 2.188 0 3.945 1.758 3.945 3.985zm60-49.727c0 2.227-1.757 3.985-3.945 3.985-2.226 0-4.023-1.758-4.023-3.985 0-2.187 1.796-3.984 4.023-3.984 2.188 0 3.945 1.797 3.945 3.984zm60.039-54.14a3.976 3.976 0 0 1-3.984 3.984 3.95 3.95 0 0 1-3.984-3.985 3.976 3.976 0 0 1 3.984-3.984 4 4 0 0 1 3.984 3.985zm60-57.93c0 2.226-1.796 4.023-3.984 4.023a4.02 4.02 0 0 1-4.023-4.023c0-2.188 1.796-3.985 4.023-3.985a4 4 0 0 1 3.984 3.985zm59.961-61.094c0 2.188-1.757 3.984-3.945 3.984-2.226 0-4.023-1.796-4.023-3.984a4.02 4.02 0 0 1 4.023-4.023c2.188 0 3.945 1.797 3.945 4.023zm60.039-63.633a4 4 0 0 1-3.984 3.985 3.976 3.976 0 0 1-3.984-3.985 3.976 3.976 0 0 1 3.984-3.984 4 4 0 0 1 3.984 3.984zm60-65.429a4 4 0 0 1-3.984 3.984 3.976 3.976 0 0 1-3.984-3.984 3.95 3.95 0 0 1 3.984-3.985 3.976 3.976 0 0 1 3.984 3.985zm60-66.524a4 4 0 0 1-3.984 3.985c-2.226 0-4.023-1.797-4.023-3.985a4.02 4.02 0 0 1 4.023-4.023c2.188 0 3.984 1.797 3.984 4.023zm0 0" style="fill-rule:nonzero;fill:#000;fill-opacity:1;stroke-width:7.9701;stroke-linecap:butt;stroke-linejoin:miter;stroke:#000;stroke-opacity:1;stroke-miterlimit:10" transform="matrix(.1 0 0 -.1 0 146)"/><path d="m10 651.602 60 82.93 60 80.663 60 77.617 60 73.672 60 69.141 60 63.828 60 57.969 60 51.562 60 44.688 60 37.46 60 29.962 60 22.187 60 14.375 60.04 6.446 59.96-1.368 60-9.101 60.04-16.602 60-23.828 59.96-30.664 60.04-37.07 60-43.047 59.96-48.399 60.04-53.203 60-57.343 60-60.82 60-63.595 60-65.625 60-66.953 60-67.539 60-67.343M10 360.703h114.61" style="fill:none;stroke-width:7.9701;stroke-linecap:butt;stroke-linejoin:miter;stroke:#000;stroke-opacity:1;stroke-miterlimit:10" transform="matrix(.1 0 0 -.1 0 146)"/><use xlink:href="#a" x="17.645" y="108.37" style="fill:#000;fill-opacity:1"/><use xlink:href="#b" x="21.005" y="108.37" style="fill:#000;fill-opacity:1"/><use xlink:href="#c" x="23.285" y="108.37" style="fill:#000;fill-opacity:1"/><use xlink:href="#d" x="27.965" y="108.37" style="fill:#000;fill-opacity:1"/><use xlink:href="#e" x="30.965" y="108.37" style="fill:#000;fill-opacity:1"/><use xlink:href="#f" x="35.285" y="108.37" style="fill:#000;fill-opacity:1"/><path d="M17.633 110.543h20.52v.719h-20.52zm0 0" style="stroke:none;fill-rule:nonzero;fill:#000;fill-opacity:1"/><use xlink:href="#e" x="25.805" y="117.491" style="fill:#000;fill-opacity:1"/><path d="M529.414 360.703c0 2.07-1.68 3.711-3.75 3.711s-3.71-1.64-3.71-3.71 1.64-3.75 3.71-3.75a3.75 3.75 0 0 1 3.75 3.75zm57.266 0c0 2.07-1.64 3.711-3.711 3.711s-3.75-1.64-3.75-3.71a3.75 3.75 0 0 1 3.75-3.75c2.07 0 3.71 1.679 3.71 3.75zm57.304 0a3.71 3.71 0 0 1-3.71 3.711c-2.07 0-3.75-1.64-3.75-3.71a3.75 3.75 0 0 1 3.75-3.75c2.03 0 3.71 1.679 3.71 3.75zm0 0" style="fill-rule:nonzero;fill:#000;fill-opacity:1;stroke-width:7.9701;stroke-linecap:butt;stroke-linejoin:miter;stroke:#000;stroke-opacity:1;stroke-miterlimit:10" transform="matrix(.1 0 0 -.1 0 146)"/><use xlink:href="#a" x="73.531" y="107.291" style="fill:#000;fill-opacity:1"/><use xlink:href="#b" x="76.891" y="107.291" style="fill:#000;fill-opacity:1"/><use xlink:href="#c" x="79.171" y="107.291" style="fill:#000;fill-opacity:1"/><use xlink:href="#d" x="83.851" y="107.291" style="fill:#000;fill-opacity:1"/><use xlink:href="#e" x="86.851" y="107.291" style="fill:#000;fill-opacity:1"/><use xlink:href="#f" x="91.171" y="107.291" style="fill:#000;fill-opacity:1"/><path d="M69.2 109.582h29.16v.719H69.2zm0 0" style="stroke:none;fill-rule:nonzero;fill:#000;fill-opacity:1"/><use xlink:href="#g" x="69.211" y="117.011" style="fill:#000;fill-opacity:1"/><use xlink:href="#d" x="74.491" y="117.011" style="fill:#000;fill-opacity:1"/><use xlink:href="#h" x="77.251" y="117.011" style="fill:#000;fill-opacity:1"/><use xlink:href="#i" x="81.331" y="117.011" style="fill:#000;fill-opacity:1"/><use xlink:href="#j" x="86.131" y="117.011" style="fill:#000;fill-opacity:1"/><use xlink:href="#k" x="91.411" y="117.011" style="fill:#000;fill-opacity:1"/><use xlink:href="#f" x="95.371" y="117.011" style="fill:#000;fill-opacity:1"/><path d="M1155.938 360.703h28.632m57.305 0h28.633" style="fill:none;stroke-width:7.9701;stroke-linecap:butt;stroke-linejoin:miter;stroke:#000;stroke-opacity:1;stroke-miterlimit:10" transform="matrix(.1 0 0 -.1 0 146)"/><use xlink:href="#a" x="132.237" y="108.37" style="fill:#000;fill-opacity:1"/><use xlink:href="#b" x="135.597" y="108.37" style="fill:#000;fill-opacity:1"/><use xlink:href="#c" x="137.877" y="108.37" style="fill:#000;fill-opacity:1"/><use xlink:href="#d" x="142.557" y="108.37" style="fill:#000;fill-opacity:1"/><use xlink:href="#e" x="145.557" y="108.37" style="fill:#000;fill-opacity:1"/><use xlink:href="#f" x="149.877" y="108.37" style="fill:#000;fill-opacity:1"/><path d="M132.227 110.543h20.52v.719h-20.52zm0 0" style="stroke:none;fill-rule:nonzero;fill:#000;fill-opacity:1"/><use xlink:href="#g" x="135.357" y="117.491" style="fill:#000;fill-opacity:1"/><use xlink:href="#h" x="140.637" y="117.491" style="fill:#000;fill-opacity:1"/><use xlink:href="#i" x="144.717" y="117.491" style="fill:#000;fill-opacity:1"/><path d="m181.004 80.84 6 5.574 6 5.516 6 5.39 6 5.211 6 4.977 6 4.68 6 4.34 6 3.945 6 3.515 6 3.04 6 2.534 6 2 6 1.446 6 .875 6 .289 6-.29 6-.874 6-1.446 6-2 6-2.535 6-3.039 6-3.515 6-3.946 6-4.34 6-4.68 6-4.976 6-5.21 6-5.391 6-5.516 6-5.574z" style="stroke:none;fill-rule:nonzero;fill:#e0e0e0;fill-opacity:1"/><path d="m1810.04 651.602 60-55.743 60-55.156 60-53.906 60-52.11 60-49.765 60-46.797 60-43.398 60-39.454 60-35.156 60-30.39 60-25.352 60-20 60-14.453 60-8.75 60-2.89 60 2.89 60 8.75 60 14.453 60 20 60 25.352 60 30.39 60 35.156 60 39.454 60 43.398 60 46.797 60 49.765 60 52.11 60 53.906 60 55.156 60 55.743zm0 0" style="fill:none;stroke-width:1.2;stroke-linecap:butt;stroke-linejoin:miter;stroke:#e0e0e0;stroke-opacity:1;stroke-miterlimit:10" transform="matrix(.1 0 0 -.1 0 146)"/><path d="m1810.04 651.602 11.991-11.172" style="fill:none;stroke-width:7.9701;stroke-linecap:butt;stroke-linejoin:miter;stroke:#000;stroke-opacity:1;stroke-miterlimit:10" transform="matrix(.1 0 0 -.1 0 146)"/><path d="M1844.023 623.71c0 2.227-1.796 4.024-3.984 4.024-2.226 0-3.984-1.797-3.984-4.023 0-2.188 1.757-3.945 3.984-3.945 2.188 0 3.984 1.757 3.984 3.945zm0 0" style="fill-rule:nonzero;fill:#000;fill-opacity:1;stroke-width:7.9701;stroke-linecap:butt;stroke-linejoin:miter;stroke:#000;stroke-opacity:1;stroke-miterlimit:10" transform="matrix(.1 0 0 -.1 0 146)"/><path d="m1858.008 607.031 12.031-11.172m.001.001 11.991-11.016" style="fill:none;stroke-width:7.9701;stroke-linecap:butt;stroke-linejoin:miter;stroke:#000;stroke-opacity:1;stroke-miterlimit:10" transform="matrix(.1 0 0 -.1 0 146)"/><path d="M1904.023 568.281a3.976 3.976 0 0 1-3.984 3.985 3.95 3.95 0 0 1-3.984-3.985 3.976 3.976 0 0 1 3.984-3.984 4 4 0 0 1 3.984 3.984zm0 0" style="fill-rule:nonzero;fill:#000;fill-opacity:1;stroke-width:7.9701;stroke-linecap:butt;stroke-linejoin:miter;stroke:#000;stroke-opacity:1;stroke-miterlimit:10" transform="matrix(.1 0 0 -.1 0 146)"/><path d="m1918.008 551.758 12.031-11.055m.001 0 11.991-10.781" style="fill:none;stroke-width:7.9701;stroke-linecap:butt;stroke-linejoin:miter;stroke:#000;stroke-opacity:1;stroke-miterlimit:10" transform="matrix(.1 0 0 -.1 0 146)"/><path d="M1964.023 513.75a3.976 3.976 0 0 1-3.984 3.984 3.95 3.95 0 0 1-3.984-3.984 3.976 3.976 0 0 1 3.984-3.984 4 4 0 0 1 3.984 3.984zm0 0" style="fill-rule:nonzero;fill:#000;fill-opacity:1;stroke-width:7.9701;stroke-linecap:butt;stroke-linejoin:miter;stroke:#000;stroke-opacity:1;stroke-miterlimit:10" transform="matrix(.1 0 0 -.1 0 146)"/><path d="m1978.047 497.578 11.992-10.781m.001 0 11.991-10.43" style="fill:none;stroke-width:7.9701;stroke-linecap:butt;stroke-linejoin:miter;stroke:#000;stroke-opacity:1;stroke-miterlimit:10" transform="matrix(.1 0 0 -.1 0 146)"/><path d="M2024.023 460.742a4 4 0 0 1-3.984 3.985 3.976 3.976 0 0 1-3.984-3.985 3.976 3.976 0 0 1 3.984-3.984 4 4 0 0 1 3.984 3.984zm0 0" style="fill-rule:nonzero;fill:#000;fill-opacity:1;stroke-width:7.9701;stroke-linecap:butt;stroke-linejoin:miter;stroke:#000;stroke-opacity:1;stroke-miterlimit:10" transform="matrix(.1 0 0 -.1 0 146)"/><path d="m2038.008 445.117 12.031-10.43m.001.001 11.991-9.961" style="fill:none;stroke-width:7.9701;stroke-linecap:butt;stroke-linejoin:miter;stroke:#000;stroke-opacity:1;stroke-miterlimit:10" transform="matrix(.1 0 0 -.1 0 146)"/><path d="M2084.023 409.805a3.976 3.976 0 0 1-3.984 3.984 3.95 3.95 0 0 1-3.984-3.984 3.976 3.976 0 0 1 3.984-3.985 4 4 0 0 1 3.984 3.985zm0 0" style="fill-rule:nonzero;fill:#000;fill-opacity:1;stroke-width:7.9701;stroke-linecap:butt;stroke-linejoin:miter;stroke:#000;stroke-opacity:1;stroke-miterlimit:10" transform="matrix(.1 0 0 -.1 0 146)"/><path d="m2098.008 394.883 12.031-9.961m.001 0 11.991-9.336" style="fill:none;stroke-width:7.9701;stroke-linecap:butt;stroke-linejoin:miter;stroke:#000;stroke-opacity:1;stroke-miterlimit:10" transform="matrix(.1 0 0 -.1 0 146)"/><path d="M2144.023 361.523a4 4 0 0 1-3.984 3.985 3.976 3.976 0 0 1-3.984-3.985 3.976 3.976 0 0 1 3.984-3.984 4 4 0 0 1 3.984 3.984zm0 0" style="fill-rule:nonzero;fill:#000;fill-opacity:1;stroke-width:7.9701;stroke-linecap:butt;stroke-linejoin:miter;stroke:#000;stroke-opacity:1;stroke-miterlimit:10" transform="matrix(.1 0 0 -.1 0 146)"/><path d="m2158.047 347.46 11.992-9.335m.001 0 11.991-8.672" style="fill:none;stroke-width:7.9701;stroke-linecap:butt;stroke-linejoin:miter;stroke:#000;stroke-opacity:1;stroke-miterlimit:10" transform="matrix(.1 0 0 -.1 0 146)"/><path d="M2204.023 316.445a4 4 0 0 1-3.984 3.985 3.976 3.976 0 0 1-3.984-3.985c0-2.226 1.758-4.023 3.984-4.023 2.188 0 3.984 1.797 3.984 4.023zm0 0" style="fill-rule:nonzero;fill:#000;fill-opacity:1;stroke-width:7.9701;stroke-linecap:butt;stroke-linejoin:miter;stroke:#000;stroke-opacity:1;stroke-miterlimit:10" transform="matrix(.1 0 0 -.1 0 146)"/><path d="m2218.047 303.398 11.992-8.671m.001 0 11.991-7.891" style="fill:none;stroke-width:7.9701;stroke-linecap:butt;stroke-linejoin:miter;stroke:#000;stroke-opacity:1;stroke-miterlimit:10" transform="matrix(.1 0 0 -.1 0 146)"/><path d="M2264.023 275a4 4 0 0 1-3.984 3.984 3.976 3.976 0 0 1-3.984-3.984 3.976 3.976 0 0 1 3.984-3.984 4 4 0 0 1 3.984 3.984zm0 0" style="fill-rule:nonzero;fill:#000;fill-opacity:1;stroke-width:7.9701;stroke-linecap:butt;stroke-linejoin:miter;stroke:#000;stroke-opacity:1;stroke-miterlimit:10" transform="matrix(.1 0 0 -.1 0 146)"/><path d="m2278.008 263.164 12.031-7.89m.001-.001 11.991-7.03" style="fill:none;stroke-width:7.9701;stroke-linecap:butt;stroke-linejoin:miter;stroke:#000;stroke-opacity:1;stroke-miterlimit:10" transform="matrix(.1 0 0 -.1 0 146)"/><path d="M2324.023 237.695a4 4 0 0 1-3.984 3.985 3.976 3.976 0 0 1-3.984-3.985 3.976 3.976 0 0 1 3.984-3.984 4 4 0 0 1 3.984 3.984zm0 0" style="fill-rule:nonzero;fill:#000;fill-opacity:1;stroke-width:7.9701;stroke-linecap:butt;stroke-linejoin:miter;stroke:#000;stroke-opacity:1;stroke-miterlimit:10" transform="matrix(.1 0 0 -.1 0 146)"/><path d="m2338.047 227.148 11.992-7.03m.001-.001 11.991-6.054" style="fill:none;stroke-width:7.9701;stroke-linecap:butt;stroke-linejoin:miter;stroke:#000;stroke-opacity:1;stroke-miterlimit:10" transform="matrix(.1 0 0 -.1 0 146)"/><path d="M2384.023 204.922a3.976 3.976 0 0 1-3.984 3.984 3.95 3.95 0 0 1-3.984-3.984 3.976 3.976 0 0 1 3.984-3.984 4 4 0 0 1 3.984 3.984zm0 0" style="fill-rule:nonzero;fill:#000;fill-opacity:1;stroke-width:7.9701;stroke-linecap:butt;stroke-linejoin:miter;stroke:#000;stroke-opacity:1;stroke-miterlimit:10" transform="matrix(.1 0 0 -.1 0 146)"/><path d="m2398.047 195.82 11.992-6.093m.001 0 11.991-5.079" style="fill:none;stroke-width:7.9701;stroke-linecap:butt;stroke-linejoin:miter;stroke:#000;stroke-opacity:1;stroke-miterlimit:10" transform="matrix(.1 0 0 -.1 0 146)"/><path d="M2444.023 177.07a4 4 0 0 1-3.984 3.985 3.976 3.976 0 0 1-3.984-3.985c0-2.226 1.758-4.023 3.984-4.023 2.188 0 3.984 1.797 3.984 4.023zm0 0" style="fill-rule:nonzero;fill:#000;fill-opacity:1;stroke-width:7.9701;stroke-linecap:butt;stroke-linejoin:miter;stroke:#000;stroke-opacity:1;stroke-miterlimit:10" transform="matrix(.1 0 0 -.1 0 146)"/><path d="m2458.047 169.453 11.992-5.078m.001 0 11.991-3.984" style="fill:none;stroke-width:7.9701;stroke-linecap:butt;stroke-linejoin:miter;stroke:#000;stroke-opacity:1;stroke-miterlimit:10" transform="matrix(.1 0 0 -.1 0 146)"/><path d="M2504.023 154.375a4 4 0 0 1-3.984 3.984 3.976 3.976 0 0 1-3.984-3.984 3.976 3.976 0 0 1 3.984-3.984 4 4 0 0 1 3.984 3.984zm0 0" style="fill-rule:nonzero;fill:#000;fill-opacity:1;stroke-width:7.9701;stroke-linecap:butt;stroke-linejoin:miter;stroke:#000;stroke-opacity:1;stroke-miterlimit:10" transform="matrix(.1 0 0 -.1 0 146)"/><path d="m2518.047 148.36 11.992-3.985m.001 0 11.991-2.89" style="fill:none;stroke-width:7.9701;stroke-linecap:butt;stroke-linejoin:miter;stroke:#000;stroke-opacity:1;stroke-miterlimit:10" transform="matrix(.1 0 0 -.1 0 146)"/><path d="M2564.023 137.148a4 4 0 0 1-3.984 3.985 3.976 3.976 0 0 1-3.984-3.985 3.95 3.95 0 0 1 3.984-3.984 3.976 3.976 0 0 1 3.984 3.984zm0 0" style="fill-rule:nonzero;fill:#000;fill-opacity:1;stroke-width:7.9701;stroke-linecap:butt;stroke-linejoin:miter;stroke:#000;stroke-opacity:1;stroke-miterlimit:10" transform="matrix(.1 0 0 -.1 0 146)"/><path d="m2578.047 132.813 11.992-2.891m.001 0 11.991-1.758" style="fill:none;stroke-width:7.9701;stroke-linecap:butt;stroke-linejoin:miter;stroke:#000;stroke-opacity:1;stroke-miterlimit:10" transform="matrix(.1 0 0 -.1 0 146)"/><path d="M2624.023 125.547a4 4 0 0 1-3.984 3.984 3.976 3.976 0 0 1-3.984-3.984 3.976 3.976 0 0 1 3.984-3.984 4 4 0 0 1 3.984 3.984zm0 0" style="fill-rule:nonzero;fill:#000;fill-opacity:1;stroke-width:7.9701;stroke-linecap:butt;stroke-linejoin:miter;stroke:#000;stroke-opacity:1;stroke-miterlimit:10" transform="matrix(.1 0 0 -.1 0 146)"/><path d="m2638.047 122.93 11.992-1.758m.001 0 11.991-.547" style="fill:none;stroke-width:7.9701;stroke-linecap:butt;stroke-linejoin:miter;stroke:#000;stroke-opacity:1;stroke-miterlimit:10" transform="matrix(.1 0 0 -.1 0 146)"/><path d="M2684.023 119.727a4 4 0 0 1-3.984 3.984 3.976 3.976 0 0 1-3.984-3.984 3.976 3.976 0 0 1 3.984-3.985 4 4 0 0 1 3.984 3.985zm0 0" style="fill-rule:nonzero;fill:#000;fill-opacity:1;stroke-width:7.9701;stroke-linecap:butt;stroke-linejoin:miter;stroke:#000;stroke-opacity:1;stroke-miterlimit:10" transform="matrix(.1 0 0 -.1 0 146)"/><path d="m2698.047 118.867 11.992-.586m.001 0 11.991.586" style="fill:none;stroke-width:7.9701;stroke-linecap:butt;stroke-linejoin:miter;stroke:#000;stroke-opacity:1;stroke-miterlimit:10" transform="matrix(.1 0 0 -.1 0 146)"/><path d="M2744.023 119.727a4 4 0 0 1-3.984 3.984 4 4 0 0 1-3.984-3.984 4 4 0 0 1 3.984-3.985 4 4 0 0 1 3.984 3.985zm0 0" style="fill-rule:nonzero;fill:#000;fill-opacity:1;stroke-width:7.9701;stroke-linecap:butt;stroke-linejoin:miter;stroke:#000;stroke-opacity:1;stroke-miterlimit:10" transform="matrix(.1 0 0 -.1 0 146)"/><path d="m2758.047 120.625 11.992.547m.001 0 11.991 1.758" style="fill:none;stroke-width:7.9701;stroke-linecap:butt;stroke-linejoin:miter;stroke:#000;stroke-opacity:1;stroke-miterlimit:10" transform="matrix(.1 0 0 -.1 0 146)"/><path d="M2804.023 125.547a4 4 0 0 1-3.984 3.984 3.976 3.976 0 0 1-3.984-3.984 3.976 3.976 0 0 1 3.984-3.984 4 4 0 0 1 3.984 3.984zm0 0" style="fill-rule:nonzero;fill:#000;fill-opacity:1;stroke-width:7.9701;stroke-linecap:butt;stroke-linejoin:miter;stroke:#000;stroke-opacity:1;stroke-miterlimit:10" transform="matrix(.1 0 0 -.1 0 146)"/><path d="m2818.047 128.164 11.992 1.758m.001 0 11.991 2.89" style="fill:none;stroke-width:7.9701;stroke-linecap:butt;stroke-linejoin:miter;stroke:#000;stroke-opacity:1;stroke-miterlimit:10" transform="matrix(.1 0 0 -.1 0 146)"/><path d="M2864.023 137.148a4 4 0 0 1-3.984 3.985 3.976 3.976 0 0 1-3.984-3.985 3.95 3.95 0 0 1 3.984-3.984 3.976 3.976 0 0 1 3.984 3.984zm0 0" style="fill-rule:nonzero;fill:#000;fill-opacity:1;stroke-width:7.9701;stroke-linecap:butt;stroke-linejoin:miter;stroke:#000;stroke-opacity:1;stroke-miterlimit:10" transform="matrix(.1 0 0 -.1 0 146)"/><path d="m2878.047 141.484 11.992 2.891m.001 0 11.991 3.984" style="fill:none;stroke-width:7.9701;stroke-linecap:butt;stroke-linejoin:miter;stroke:#000;stroke-opacity:1;stroke-miterlimit:10" transform="matrix(.1 0 0 -.1 0 146)"/><path d="M2924.023 154.375a4 4 0 0 1-3.984 3.984 4 4 0 0 1-3.984-3.984 4 4 0 0 1 3.984-3.984 4 4 0 0 1 3.984 3.984zm0 0" style="fill-rule:nonzero;fill:#000;fill-opacity:1;stroke-width:7.9701;stroke-linecap:butt;stroke-linejoin:miter;stroke:#000;stroke-opacity:1;stroke-miterlimit:10" transform="matrix(.1 0 0 -.1 0 146)"/><path d="m2938.047 160.39 11.992 3.985m.001 0 11.991 5.078" style="fill:none;stroke-width:7.9701;stroke-linecap:butt;stroke-linejoin:miter;stroke:#000;stroke-opacity:1;stroke-miterlimit:10" transform="matrix(.1 0 0 -.1 0 146)"/><path d="M2984.023 177.07a4 4 0 0 1-3.984 3.985 4 4 0 0 1-3.984-3.985c0-2.226 1.797-4.023 3.984-4.023s3.984 1.797 3.984 4.023zm0 0" style="fill-rule:nonzero;fill:#000;fill-opacity:1;stroke-width:7.9701;stroke-linecap:butt;stroke-linejoin:miter;stroke:#000;stroke-opacity:1;stroke-miterlimit:10" transform="matrix(.1 0 0 -.1 0 146)"/><path d="m2998.047 184.648 11.992 5.079m.001 0 11.991 6.093" style="fill:none;stroke-width:7.9701;stroke-linecap:butt;stroke-linejoin:miter;stroke:#000;stroke-opacity:1;stroke-miterlimit:10" transform="matrix(.1 0 0 -.1 0 146)"/><path d="M3044.023 204.922a3.976 3.976 0 0 1-3.984 3.984 3.95 3.95 0 0 1-3.984-3.984 3.976 3.976 0 0 1 3.984-3.984 4 4 0 0 1 3.984 3.984zm0 0" style="fill-rule:nonzero;fill:#000;fill-opacity:1;stroke-width:7.9701;stroke-linecap:butt;stroke-linejoin:miter;stroke:#000;stroke-opacity:1;stroke-miterlimit:10" transform="matrix(.1 0 0 -.1 0 146)"/><path d="m3058.047 214.063 11.992 6.054m.001 0 11.991 7.031" style="fill:none;stroke-width:7.9701;stroke-linecap:butt;stroke-linejoin:miter;stroke:#000;stroke-opacity:1;stroke-miterlimit:10" transform="matrix(.1 0 0 -.1 0 146)"/><path d="M3104.023 237.695a3.976 3.976 0 0 1-3.984 3.985 4 4 0 0 1-3.984-3.985 4 4 0 0 1 3.984-3.984 3.976 3.976 0 0 1 3.984 3.984zm0 0" style="fill-rule:nonzero;fill:#000;fill-opacity:1;stroke-width:7.9701;stroke-linecap:butt;stroke-linejoin:miter;stroke:#000;stroke-opacity:1;stroke-miterlimit:10" transform="matrix(.1 0 0 -.1 0 146)"/><path d="m3118.047 248.242 11.992 7.031m.001 0 11.991 7.891" style="fill:none;stroke-width:7.9701;stroke-linecap:butt;stroke-linejoin:miter;stroke:#000;stroke-opacity:1;stroke-miterlimit:10" transform="matrix(.1 0 0 -.1 0 146)"/><path d="M3164.023 275a4 4 0 0 1-3.984 3.984 4 4 0 0 1-3.984-3.984 4 4 0 0 1 3.984-3.984 4 4 0 0 1 3.984 3.984zm0 0" style="fill-rule:nonzero;fill:#000;fill-opacity:1;stroke-width:7.9701;stroke-linecap:butt;stroke-linejoin:miter;stroke:#000;stroke-opacity:1;stroke-miterlimit:10" transform="matrix(.1 0 0 -.1 0 146)"/><path d="m3178.047 286.836 11.992 7.89m.001.001 11.991 8.671" style="fill:none;stroke-width:7.9701;stroke-linecap:butt;stroke-linejoin:miter;stroke:#000;stroke-opacity:1;stroke-miterlimit:10" transform="matrix(.1 0 0 -.1 0 146)"/><path d="M3224.023 316.445a4 4 0 0 1-3.984 3.985 4 4 0 0 1-3.984-3.985c0-2.226 1.797-4.023 3.984-4.023s3.984 1.797 3.984 4.023zm0 0" style="fill-rule:nonzero;fill:#000;fill-opacity:1;stroke-width:7.9701;stroke-linecap:butt;stroke-linejoin:miter;stroke:#000;stroke-opacity:1;stroke-miterlimit:10" transform="matrix(.1 0 0 -.1 0 146)"/><path d="m3238.047 329.453 11.992 8.672m.001 0 11.991 9.336" style="fill:none;stroke-width:7.9701;stroke-linecap:butt;stroke-linejoin:miter;stroke:#000;stroke-opacity:1;stroke-miterlimit:10" transform="matrix(.1 0 0 -.1 0 146)"/><path d="M3284.023 361.523a3.976 3.976 0 0 1-3.984 3.985 4 4 0 0 1-3.984-3.985 4 4 0 0 1 3.984-3.984 3.976 3.976 0 0 1 3.984 3.984zm0 0" style="fill-rule:nonzero;fill:#000;fill-opacity:1;stroke-width:7.9701;stroke-linecap:butt;stroke-linejoin:miter;stroke:#000;stroke-opacity:1;stroke-miterlimit:10" transform="matrix(.1 0 0 -.1 0 146)"/><path d="m3298.047 375.586 11.992 9.336m.001 0 11.991 9.96" style="fill:none;stroke-width:7.9701;stroke-linecap:butt;stroke-linejoin:miter;stroke:#000;stroke-opacity:1;stroke-miterlimit:10" transform="matrix(.1 0 0 -.1 0 146)"/><path d="M3344.023 409.805a3.95 3.95 0 0 1-3.984 3.984 3.976 3.976 0 0 1-3.984-3.984 4 4 0 0 1 3.984-3.985 3.976 3.976 0 0 1 3.984 3.985zm0 0" style="fill-rule:nonzero;fill:#000;fill-opacity:1;stroke-width:7.9701;stroke-linecap:butt;stroke-linejoin:miter;stroke:#000;stroke-opacity:1;stroke-miterlimit:10" transform="matrix(.1 0 0 -.1 0 146)"/><path d="m3358.047 424.727 11.992 9.96m.001.001 11.991 10.43" style="fill:none;stroke-width:7.9701;stroke-linecap:butt;stroke-linejoin:miter;stroke:#000;stroke-opacity:1;stroke-miterlimit:10" transform="matrix(.1 0 0 -.1 0 146)"/><path d="M3404.023 460.742a4 4 0 0 1-3.984 3.985 4 4 0 0 1-3.984-3.985 4 4 0 0 1 3.984-3.984 4 4 0 0 1 3.984 3.984zm0 0" style="fill-rule:nonzero;fill:#000;fill-opacity:1;stroke-width:7.9701;stroke-linecap:butt;stroke-linejoin:miter;stroke:#000;stroke-opacity:1;stroke-miterlimit:10" transform="matrix(.1 0 0 -.1 0 146)"/><path d="m3418.047 476.367 11.992 10.43m.001 0 11.991 10.781" style="fill:none;stroke-width:7.9701;stroke-linecap:butt;stroke-linejoin:miter;stroke:#000;stroke-opacity:1;stroke-miterlimit:10" transform="matrix(.1 0 0 -.1 0 146)"/><path d="M3464.023 513.75a3.95 3.95 0 0 1-3.984 3.984 3.976 3.976 0 0 1-3.984-3.984 4 4 0 0 1 3.984-3.984 3.976 3.976 0 0 1 3.984 3.984zm0 0" style="fill-rule:nonzero;fill:#000;fill-opacity:1;stroke-width:7.9701;stroke-linecap:butt;stroke-linejoin:miter;stroke:#000;stroke-opacity:1;stroke-miterlimit:10" transform="matrix(.1 0 0 -.1 0 146)"/><path d="m3478.047 529.922 11.992 10.781m.001 0 11.991 11.055" style="fill:none;stroke-width:7.9701;stroke-linecap:butt;stroke-linejoin:miter;stroke:#000;stroke-opacity:1;stroke-miterlimit:10" transform="matrix(.1 0 0 -.1 0 146)"/><path d="M3524.023 568.281a3.95 3.95 0 0 1-3.984 3.985 3.976 3.976 0 0 1-3.984-3.985 4 4 0 0 1 3.984-3.984 3.976 3.976 0 0 1 3.984 3.984zm0 0" style="fill-rule:nonzero;fill:#000;fill-opacity:1;stroke-width:7.9701;stroke-linecap:butt;stroke-linejoin:miter;stroke:#000;stroke-opacity:1;stroke-miterlimit:10" transform="matrix(.1 0 0 -.1 0 146)"/><path d="m3538.047 584.844 11.992 11.015m.001.001 11.991 11.171" style="fill:none;stroke-width:7.9701;stroke-linecap:butt;stroke-linejoin:miter;stroke:#000;stroke-opacity:1;stroke-miterlimit:10" transform="matrix(.1 0 0 -.1 0 146)"/><path d="M3584.023 623.71c0 2.227-1.757 4.024-3.984 4.024-2.187 0-3.984-1.797-3.984-4.023 0-2.188 1.797-3.945 3.984-3.945 2.227 0 3.984 1.757 3.984 3.945zm0 0" style="fill-rule:nonzero;fill:#000;fill-opacity:1;stroke-width:7.9701;stroke-linecap:butt;stroke-linejoin:miter;stroke:#000;stroke-opacity:1;stroke-miterlimit:10" transform="matrix(.1 0 0 -.1 0 146)"/><path d="m3598.047 640.43 11.992 11.172" style="fill:none;stroke-width:7.9701;stroke-linecap:butt;stroke-linejoin:miter;stroke:#000;stroke-opacity:1;stroke-miterlimit:10" transform="matrix(.1 0 0 -.1 0 146)"/><path d="M43.984 684.883A3.976 3.976 0 0 1 40 688.867a4 4 0 0 1-3.984-3.984A3.976 3.976 0 0 1 40 680.898a3.95 3.95 0 0 1 3.984 3.985zm60 66.523a4 4 0 0 1-3.984 3.985 4 4 0 0 1-3.984-3.985 3.976 3.976 0 0 1 3.984-3.984 3.976 3.976 0 0 1 3.984 3.984zm60 65.078A4 4 0 0 1 160 820.47a4 4 0 0 1-3.984-3.985A4 4 0 0 1 160 812.5a4 4 0 0 1 3.984 3.984zm60 63.633a3.976 3.976 0 0 1-3.984 3.985 4 4 0 0 1-3.984-3.985 3.976 3.976 0 0 1 3.984-3.984 3.95 3.95 0 0 1 3.984 3.984zm60 60.781a3.976 3.976 0 0 1-3.984 3.985 4 4 0 0 1-3.984-3.985 3.976 3.976 0 0 1 3.984-3.984 3.95 3.95 0 0 1 3.984 3.984zm60 57.93a4 4 0 0 1-3.984 3.985 4 4 0 0 1-3.984-3.985 3.976 3.976 0 0 1 3.984-3.984 3.976 3.976 0 0 1 3.984 3.984zm60 53.828a3.976 3.976 0 0 1-3.984 3.985 4 4 0 0 1-3.984-3.985 4 4 0 0 1 3.984-3.984 3.976 3.976 0 0 1 3.984 3.984zm60 49.727a3.976 3.976 0 0 1-3.984 3.984 4 4 0 0 1-3.984-3.984 3.976 3.976 0 0 1 3.984-3.985 3.95 3.95 0 0 1 3.984 3.985zm60 44.492c0 2.227-1.757 4.023-3.984 4.023-2.188 0-3.984-1.796-3.984-4.023a4 4 0 0 1 3.984-3.984 3.976 3.976 0 0 1 3.984 3.984zm60 39.335a3.976 3.976 0 0 1-3.984 3.985 4 4 0 0 1-3.984-3.984 3.976 3.976 0 0 1 3.984-3.984 3.95 3.95 0 0 1 3.984 3.984zm60 33.282a3.976 3.976 0 0 1-3.984 3.985 4 4 0 0 1-3.984-3.985 3.976 3.976 0 0 1 3.984-3.984 3.95 3.95 0 0 1 3.984 3.984zm60 27.188a3.95 3.95 0 0 1-3.984 3.984 3.976 3.976 0 0 1-3.984-3.984 4 4 0 0 1 3.984-3.985 3.976 3.976 0 0 1 3.984 3.985zm60 20.547a3.95 3.95 0 0 1-3.984 3.984 3.976 3.976 0 0 1-3.984-3.984 4 4 0 0 1 3.984-3.985 3.976 3.976 0 0 1 3.984 3.985zm60 13.906c0 2.226-1.757 4.023-3.984 4.023-2.188 0-3.984-1.797-3.984-4.023a4 4 0 0 1 3.984-3.985 3.976 3.976 0 0 1 3.984 3.985zm60 6.992a3.976 3.976 0 0 1-3.984 3.984 4 4 0 0 1-3.984-3.984c0-2.227 1.797-4.023 3.984-4.023 2.227 0 3.984 1.796 3.984 4.023zm60 0c0 2.188-1.757 3.984-3.945 3.984-2.226 0-4.023-1.796-4.023-3.984a4.02 4.02 0 0 1 4.023-4.023c2.188 0 3.945 1.796 3.945 4.023zm60-6.992c0 2.226-1.757 4.023-3.984 4.023-2.188 0-3.984-1.797-3.984-4.023a4 4 0 0 1 3.984-3.985 3.976 3.976 0 0 1 3.984 3.985zm60-13.906a3.95 3.95 0 0 1-3.984 3.984 3.976 3.976 0 0 1-3.984-3.984 4 4 0 0 1 3.984-3.985 3.976 3.976 0 0 1 3.984 3.985zm60.039-20.547a3.976 3.976 0 0 1-3.984 3.984c-2.226 0-4.023-1.758-4.023-3.984 0-2.188 1.796-3.985 4.023-3.985a4 4 0 0 1 3.984 3.985zm59.961-27.188c0 2.188-1.757 3.985-3.945 3.985-2.226 0-4.023-1.797-4.023-3.985 0-2.226 1.796-3.984 4.023-3.984 2.188 0 3.945 1.758 3.945 3.984zm60-33.282a3.976 3.976 0 0 1-3.984 3.985 4 4 0 0 1-3.984-3.984 3.976 3.976 0 0 1 3.984-3.984 3.95 3.95 0 0 1 3.984 3.984zm60.039-39.335c0 2.227-1.796 4.023-3.984 4.023a4.02 4.02 0 0 1-4.023-4.023c0-2.188 1.796-3.984 4.023-3.984a4 4 0 0 1 3.984 3.984zm59.961-44.492c0 2.187-1.757 3.984-3.945 3.984-2.226 0-4.023-1.797-4.023-3.984 0-2.227 1.796-3.985 4.023-3.985 2.188 0 3.945 1.758 3.945 3.985zm60-49.727c0 2.188-1.757 3.985-3.945 3.985-2.226 0-4.023-1.797-4.023-3.985s1.796-3.984 4.023-3.984c2.188 0 3.945 1.797 3.945 3.984zm60.039-53.828a4 4 0 0 1-3.984 3.985 3.976 3.976 0 0 1-3.984-3.985 3.95 3.95 0 0 1 3.984-3.984 3.976 3.976 0 0 1 3.984 3.984zm60-57.93a4 4 0 0 1-3.984 3.985c-2.226 0-4.023-1.797-4.023-3.985 0-2.226 1.796-3.984 4.023-3.984a3.976 3.976 0 0 1 3.984 3.984zm59.961-60.781c0 2.188-1.757 3.985-3.945 3.985-2.226 0-4.023-1.797-4.023-3.985 0-2.226 1.796-3.984 4.023-3.984 2.188 0 3.945 1.758 3.945 3.984zm60.039-63.633a4 4 0 0 1-3.984 3.985 3.976 3.976 0 0 1-3.984-3.985 3.976 3.976 0 0 1 3.984-3.984 4 4 0 0 1 3.984 3.984zm60-65.078a4 4 0 0 1-3.984 3.985 3.976 3.976 0 0 1-3.984-3.985 3.95 3.95 0 0 1 3.984-3.984 3.976 3.976 0 0 1 3.984 3.984zm60-66.523a4 4 0 0 1-3.984 3.984c-2.226 0-4.023-1.797-4.023-3.984 0-2.227 1.796-3.985 4.023-3.985a3.976 3.976 0 0 1 3.984 3.985zm60-66.523a4 4 0 0 1-3.984 3.984 3.976 3.976 0 0 1-3.984-3.985c0-2.226 1.757-4.023 3.984-4.023 2.188 0 3.984 1.797 3.984 4.023zm60-66.563a3.976 3.976 0 0 1-3.984 3.984 3.95 3.95 0 0 1-3.984-3.984 3.976 3.976 0 0 1 3.984-3.985 4 4 0 0 1 3.984 3.985zm60-65.078a3.976 3.976 0 0 1-3.984 3.984 3.95 3.95 0 0 1-3.984-3.984 3.976 3.976 0 0 1 3.984-3.985 4 4 0 0 1 3.984 3.985zm60-63.594a4 4 0 0 1-3.984 3.984 3.976 3.976 0 0 1-3.984-3.984c0-2.227 1.757-4.023 3.984-4.023 2.188 0 3.984 1.796 3.984 4.023zm60-60.82c0 2.226-1.796 4.023-3.984 4.023-2.227 0-3.984-1.797-3.984-4.023a3.976 3.976 0 0 1 3.984-3.985 4 4 0 0 1 3.984 3.985zm60-57.93c0 2.227-1.796 4.023-3.984 4.023-2.227 0-3.984-1.796-3.984-4.023a3.976 3.976 0 0 1 3.984-3.984 4 4 0 0 1 3.984 3.984zm60-53.789a4 4 0 0 1-3.984 3.984 3.976 3.976 0 0 1-3.984-3.984c0-2.227 1.758-4.024 3.984-4.024 2.188 0 3.984 1.797 3.984 4.024zm60-49.726a4 4 0 0 1-3.984 3.984 3.976 3.976 0 0 1-3.984-3.985 3.95 3.95 0 0 1 3.984-3.984 3.976 3.976 0 0 1 3.984 3.984zm60-44.532a4 4 0 0 1-3.984 3.984 3.976 3.976 0 0 1-3.984-3.984 3.95 3.95 0 0 1 3.984-3.984 3.976 3.976 0 0 1 3.984 3.984zm60-39.336a3.976 3.976 0 0 1-3.984 3.985 3.95 3.95 0 0 1-3.984-3.985 3.976 3.976 0 0 1 3.984-3.984 4 4 0 0 1 3.984 3.984zm60-33.242a4 4 0 0 1-3.984 3.984 3.976 3.976 0 0 1-3.984-3.984 3.95 3.95 0 0 1 3.984-3.984 3.976 3.976 0 0 1 3.984 3.984zm60-27.227a3.976 3.976 0 0 1-3.984 3.985 3.95 3.95 0 0 1-3.984-3.985 3.976 3.976 0 0 1 3.984-3.984 4 4 0 0 1 3.984 3.984zm60-20.546a4 4 0 0 1-3.984 3.984 3.976 3.976 0 0 1-3.984-3.984 3.95 3.95 0 0 1 3.984-3.985 3.976 3.976 0 0 1 3.984 3.985zm60-13.907a4 4 0 0 1-3.984 3.985 3.976 3.976 0 0 1-3.984-3.985 3.95 3.95 0 0 1 3.984-3.984 3.976 3.976 0 0 1 3.984 3.984zm60-6.953a4 4 0 0 1-3.984 3.985 3.976 3.976 0 0 1-3.984-3.985 3.95 3.95 0 0 1 3.984-3.984 3.976 3.976 0 0 1 3.984 3.984zm60 0a4 4 0 0 1-3.984 3.985 4 4 0 0 1-3.984-3.985 3.976 3.976 0 0 1 3.984-3.984 3.976 3.976 0 0 1 3.984 3.984zm60 6.953a4 4 0 0 1-3.984 3.985 3.976 3.976 0 0 1-3.984-3.985 3.95 3.95 0 0 1 3.984-3.984 3.976 3.976 0 0 1 3.984 3.984zm60 13.907a4 4 0 0 1-3.984 3.984 3.976 3.976 0 0 1-3.984-3.984 3.95 3.95 0 0 1 3.984-3.985 3.976 3.976 0 0 1 3.984 3.985zm60 20.546a3.976 3.976 0 0 1-3.984 3.985 3.976 3.976 0 0 1-3.984-3.985 4 4 0 0 1 3.984-3.984 4 4 0 0 1 3.984 3.984zm60 27.227a4 4 0 0 1-3.984 3.984 4 4 0 0 1-3.984-3.984 3.976 3.976 0 0 1 3.984-3.984 3.976 3.976 0 0 1 3.984 3.984zm60 33.242a3.976 3.976 0 0 1-3.984 3.985 3.95 3.95 0 0 1-3.984-3.985 3.976 3.976 0 0 1 3.984-3.984 4 4 0 0 1 3.984 3.984zm60 39.336a3.976 3.976 0 0 1-3.984 3.984 4 4 0 0 1-3.984-3.984 3.976 3.976 0 0 1 3.984-3.984 3.95 3.95 0 0 1 3.984 3.984zm60 44.532a4 4 0 0 1-3.984 3.984 4 4 0 0 1-3.984-3.985 3.976 3.976 0 0 1 3.984-3.984 3.976 3.976 0 0 1 3.984 3.984zm60 49.726a4 4 0 0 1-3.984 3.984 4 4 0 0 1-3.984-3.984c0-2.227 1.797-4.024 3.984-4.024s3.984 1.797 3.984 4.024zm60 53.789c0 2.227-1.757 4.023-3.984 4.023-2.187 0-3.984-1.796-3.984-4.023a4 4 0 0 1 3.984-3.984 3.976 3.976 0 0 1 3.984 3.984zm60 57.93c0 2.226-1.757 4.023-3.984 4.023-2.187 0-3.984-1.797-3.984-4.023a4 4 0 0 1 3.984-3.985 3.976 3.976 0 0 1 3.984 3.985zm60 60.82a4 4 0 0 1-3.984 3.984 4 4 0 0 1-3.984-3.984c0-2.227 1.797-4.023 3.984-4.023s3.984 1.796 3.984 4.023zm60 63.594a3.95 3.95 0 0 1-3.984 3.984 3.976 3.976 0 0 1-3.984-3.984 4 4 0 0 1 3.984-3.985 3.976 3.976 0 0 1 3.984 3.985zm60 65.078a3.95 3.95 0 0 1-3.984 3.984 3.976 3.976 0 0 1-3.984-3.984 4 4 0 0 1 3.984-3.985 3.976 3.976 0 0 1 3.984 3.985zm60 66.563a3.976 3.976 0 0 1-3.984 3.984 4 4 0 0 1-3.984-3.985c0-2.226 1.797-4.023 3.984-4.023 2.227 0 3.984 1.797 3.984 4.023zm0 0" style="fill-rule:nonzero;fill:#000;fill-opacity:1;stroke-width:7.9701;stroke-linecap:butt;stroke-linejoin:miter;stroke:#000;stroke-opacity:1;stroke-miterlimit:10" transform="matrix(.1 0 0 -.1 0 146)"/><path d="m1810.04 651.602 60-66.446 60-64.843 60-62.579 60-59.687 60-56.133 60-52.031 60-47.422 60-42.383 60-36.953 60-31.133 60-25.117 60-18.867 60-12.5 60-6.055 60 .352 60 6.64 60 12.852 60 18.828 60 24.531 60 29.883 60 34.883 60 39.414 60 43.476 60 46.993 60 50 60 52.46 60 54.258 60 55.47 120 112.109m-1800 363.632h114.57" style="fill:none;stroke-width:7.9701;stroke-linecap:butt;stroke-linejoin:miter;stroke:#000;stroke-opacity:1;stroke-miterlimit:10" transform="matrix(.1 0 0 -.1 0 146)"/><use xlink:href="#a" x="197.646" y="42.915" style="fill:#000;fill-opacity:1"/><use xlink:href="#b" x="201.006" y="42.915" style="fill:#000;fill-opacity:1"/><use xlink:href="#c" x="203.286" y="42.915" style="fill:#000;fill-opacity:1"/><use xlink:href="#d" x="207.966" y="42.915" style="fill:#000;fill-opacity:1"/><use xlink:href="#e" x="210.966" y="42.915" style="fill:#000;fill-opacity:1"/><use xlink:href="#f" x="215.286" y="42.915" style="fill:#000;fill-opacity:1"/><path d="M197.633 45.086h20.52v.719h-20.52zm0 0" style="stroke:none;fill-rule:nonzero;fill:#000;fill-opacity:1"/><use xlink:href="#e" x="205.806" y="52.035" style="fill:#000;fill-opacity:1"/><path d="M2329.414 1015.234c0 2.07-1.64 3.75-3.71 3.75a3.75 3.75 0 0 1-3.75-3.75c0-2.07 1.679-3.71 3.75-3.71s3.71 1.64 3.71 3.71zm57.305 0c0 2.07-1.68 3.75-3.711 3.75-2.07 0-3.75-1.68-3.75-3.75s1.68-3.71 3.75-3.71a3.71 3.71 0 0 1 3.71 3.71zm57.304 0c0 2.07-1.68 3.75-3.75 3.75s-3.71-1.68-3.71-3.75 1.64-3.71 3.71-3.71 3.75 1.64 3.75 3.71zm0 0" style="fill-rule:nonzero;fill:#000;fill-opacity:1;stroke-width:7.9701;stroke-linecap:butt;stroke-linejoin:miter;stroke:#000;stroke-opacity:1;stroke-miterlimit:10" transform="matrix(.1 0 0 -.1 0 146)"/><use xlink:href="#a" x="253.533" y="41.835" style="fill:#000;fill-opacity:1"/><use xlink:href="#b" x="256.893" y="41.835" style="fill:#000;fill-opacity:1"/><use xlink:href="#c" x="259.173" y="41.835" style="fill:#000;fill-opacity:1"/><use xlink:href="#d" x="263.853" y="41.835" style="fill:#000;fill-opacity:1"/><use xlink:href="#e" x="266.853" y="41.835" style="fill:#000;fill-opacity:1"/><use xlink:href="#f" x="271.173" y="41.835" style="fill:#000;fill-opacity:1"/><path d="M249.2 44.129h29.16v.719H249.2zm0 0" style="stroke:none;fill-rule:nonzero;fill:#000;fill-opacity:1"/><use xlink:href="#g" x="249.213" y="51.555" style="fill:#000;fill-opacity:1"/><use xlink:href="#d" x="254.493" y="51.555" style="fill:#000;fill-opacity:1"/><use xlink:href="#h" x="257.253" y="51.555" style="fill:#000;fill-opacity:1"/><use xlink:href="#i" x="261.333" y="51.555" style="fill:#000;fill-opacity:1"/><use xlink:href="#j" x="266.133" y="51.555" style="fill:#000;fill-opacity:1"/><use xlink:href="#k" x="271.413" y="51.555" style="fill:#000;fill-opacity:1"/><use xlink:href="#f" x="275.374" y="51.555" style="fill:#000;fill-opacity:1"/><path d="M2955.977 1015.234h22.89" style="fill:none;stroke-width:7.9701;stroke-linecap:butt;stroke-linejoin:miter;stroke:#000;stroke-opacity:1;stroke-miterlimit:10" transform="matrix(.1 0 0 -.1 0 146)"/><path d="M3017.227 1015.234a3.95 3.95 0 0 1-3.985 3.985 3.976 3.976 0 0 1-3.984-3.985 4 4 0 0 1 3.984-3.984 3.976 3.976 0 0 1 3.985 3.984zm0 0" style="fill-rule:nonzero;fill:#000;fill-opacity:1;stroke-width:7.9701;stroke-linecap:butt;stroke-linejoin:miter;stroke:#000;stroke-opacity:1;stroke-miterlimit:10" transform="matrix(.1 0 0 -.1 0 146)"/><path d="M3047.617 1015.234h22.93" style="fill:none;stroke-width:7.9701;stroke-linecap:butt;stroke-linejoin:miter;stroke:#000;stroke-opacity:1;stroke-miterlimit:10" transform="matrix(.1 0 0 -.1 0 146)"/><use xlink:href="#a" x="316.559" y="41.835" style="fill:#000;fill-opacity:1"/><use xlink:href="#b" x="319.919" y="41.835" style="fill:#000;fill-opacity:1"/><use xlink:href="#c" x="322.199" y="41.835" style="fill:#000;fill-opacity:1"/><use xlink:href="#d" x="326.879" y="41.835" style="fill:#000;fill-opacity:1"/><use xlink:href="#e" x="329.879" y="41.835" style="fill:#000;fill-opacity:1"/><use xlink:href="#f" x="334.199" y="41.835" style="fill:#000;fill-opacity:1"/><path d="M312.227 44.129h29.16v.719h-29.16zm0 0" style="stroke:none;fill-rule:nonzero;fill:#000;fill-opacity:1"/><use xlink:href="#g" x="312.239" y="51.555" style="fill:#000;fill-opacity:1"/><use xlink:href="#d" x="317.519" y="51.555" style="fill:#000;fill-opacity:1"/><use xlink:href="#h" x="320.279" y="51.555" style="fill:#000;fill-opacity:1"/><use xlink:href="#i" x="324.359" y="51.555" style="fill:#000;fill-opacity:1"/><use xlink:href="#j" x="329.159" y="51.555" style="fill:#000;fill-opacity:1"/><use xlink:href="#h" x="334.439" y="51.555" style="fill:#000;fill-opacity:1"/><use xlink:href="#f" x="338.4" y="51.555" style="fill:#000;fill-opacity:1"/><path d="M10 651.602h3600.04" style="fill:none;stroke-width:3.985;stroke-linecap:butt;stroke-linejoin:miter;stroke:#000;stroke-opacity:1;stroke-miterlimit:10" transform="matrix(.1 0 0 -.1 0 146)"/><path d="M.746 77.852h.602v6H.746zm90.004 0h.602v6h-.602zm90 0h.602v6h-.602zm90 0h.602v6h-.602zm90.004 0h.601v6h-.601zm0 0" style="stroke:none;fill-rule:nonzero;fill:#000;fill-opacity:1"/><use xlink:href="#l" x="1" y="92.384" style="fill:#000;fill-opacity:1"/><use xlink:href="#m" x="8.2" y="92.384" style="fill:#000;fill-opacity:1"/><use xlink:href="#n" x="13.84" y="92.384" style="fill:#000;fill-opacity:1"/><use xlink:href="#l" x="181.002" y="74.573" style="fill:#000;fill-opacity:1"/><use xlink:href="#o" x="188.202" y="74.573" style="fill:#000;fill-opacity:1"/><use xlink:href="#m" x="191.922" y="74.573" style="fill:#000;fill-opacity:1"/><use xlink:href="#n" x="197.562" y="74.573" style="fill:#000;fill-opacity:1"/><use xlink:href="#p" x="206.682" y="74.573" style="fill:#000;fill-opacity:1"/><use xlink:href="#q" x="216.401" y="74.573" style="fill:#000;fill-opacity:1"/><use xlink:href="#r" x="221.801" y="74.573" style="fill:#000;fill-opacity:1"/><use xlink:href="#l" x="316.364" y="74.573" style="fill:#000;fill-opacity:1"/><use xlink:href="#o" x="323.564" y="74.573" style="fill:#000;fill-opacity:1"/><use xlink:href="#m" x="327.284" y="74.573" style="fill:#000;fill-opacity:1"/><use xlink:href="#n" x="332.924" y="74.573" style="fill:#000;fill-opacity:1"/><use xlink:href="#p" x="342.044" y="74.573" style="fill:#000;fill-opacity:1"/><use xlink:href="#m" x="351.764" y="74.573" style="fill:#000;fill-opacity:1"/><use xlink:href="#r" x="357.164" y="74.573" style="fill:#000;fill-opacity:1"/><use xlink:href="#p" x="87.401" y="48.936" style="fill:#000;fill-opacity:1"/><use xlink:href="#s" x="267.403" y="110.346" style="fill:#000;fill-opacity:1"/></svg>