<svg xmlns="http://www.w3.org/2000/svg" xmlns:xlink="http://www.w3.org/1999/xlink" width="221pt" height="155pt" viewBox="0 0 221 155"><defs><symbol id="a" overflow="visible"><path d="M6.594-2.625v-.64H.704v.64zm0 0" style="stroke:none"/></symbol><symbol id="b" overflow="visible"><path d="M5.14.031v-.328l-.515-.031c-.531-.031-.656-.172-.656-.828v-.813c.64 0 .875 0 1.172.032v-.766s-.532.031-.875.031h-.297v-1.515c0-1.938.015-2.875.078-3.329l-.125-.046-.813.28L.016-2.218l.125.25h2.906v.813c0 .656-.11.812-.64.828l-.688.031v.328C2.312.016 2.89 0 3.484 0c.547 0 1.11.016 1.657.031zM3.048-2.672H.703l2.344-3.844zm0 0" style="stroke:none"/></symbol><symbol id="d" overflow="visible"><path d="M5.11.031c-.032-.234-.032-.344-.032-.484s0-.25.031-.5l-3.78.11 1.984-2.095c1.062-1.124 1.39-1.734 1.39-2.546 0-1.25-.86-2.032-2.234-2.032-.797 0-1.328.22-1.86.766L.422-5.266h.312l.157-.5c.171-.64.562-.906 1.296-.906.938 0 1.532.594 1.532 1.516 0 .812-.453 1.625-1.688 2.937L.171-.25v.281C.985.016 1.798 0 2.61 0c.829 0 1.672.016 2.5.031m0 0" style="stroke:none"/></symbol><symbol id="g" overflow="visible"><path d="M4.563.031v-.328l-.579-.031c-.593-.031-.703-.156-.703-.719v-6.469l-.156-.046c-.703.359-1.484.687-2.469 1.046l.078.47h.11c.469-.22.953-.438 1.437-.657.063 0 .078.11.078.36v5.296c0 .563-.109.688-.703.719l-.61.031v.328A69 69 0 0 1 2.845 0c.562 0 1.14.016 1.719.031zm0 0" style="stroke:none"/></symbol><symbol id="c" overflow="visible"><path d="M6.625-5.094c-.75.016-1.516.047-2.281.047-.938 0-1.875-.031-2.813-.031C.828-5.094.688-4.25.484-3.703l.016.078.094.047.078-.047c.437-.688.703-.797 1.515-.797h.25c-.39 1.516-.765 3.016-1.406 4.438l.078.109c.22-.063.61-.14.797-.266.422-1.39.703-2.843.969-4.28h2.484c-.593.952-1.03 2.093-1.03 3.25 0 .53.187 1.327.859 1.327.437 0 1-.422 1.343-.719l.016-.062L6.5-.719l-.094-.015c-.172.125-.39.28-.656.28-.61 0-.672-.905-.672-1.359 0-.921.281-1.812.75-2.609l.672-.14c.016-.188.094-.36.125-.532m0 0" style="stroke:none"/></symbol><symbol id="e" overflow="visible"><path d="M3.328.031v-.25l-.406-.015c-.438-.032-.516-.11-.516-.532v-4.718l-.125-.047a13.5 13.5 0 0 1-1.797.765l.047.344H.61c.36-.156.704-.312 1.063-.469.047 0 .062.063.062.266v3.86c0 .421-.093.5-.515.53l-.453.016v.25C1.203.016 1.64 0 2.078 0c.422 0 .844.016 1.25.031m0 0" style="stroke:none"/></symbol><symbol id="f" overflow="visible"><path d="M3.734.031c-.015-.172-.015-.25-.015-.36 0-.108 0-.187.015-.358L.97-.61l1.453-1.547c.781-.813 1.015-1.25 1.015-1.86 0-.906-.624-1.468-1.64-1.468-.563 0-.953.156-1.344.546l-.14 1.094h.234l.094-.375c.125-.453.421-.656.953-.656.687 0 1.125.422 1.125 1.11 0 .593-.344 1.187-1.235 2.14L.125-.187V.03C.719.016 1.313 0 1.906 0c.61 0 1.219.016 1.828.031m0 0" style="stroke:none"/></symbol><symbol id="h" overflow="visible"><path d="M3.766.031v-.25l-.391-.015c-.39-.032-.469-.125-.469-.61v-.594c.469 0 .625 0 .86.032v-.563s-.391.016-.657.016h-.203v-1.11c0-1.421.016-2.093.047-2.421l-.094-.047-.593.218-2.25 3.688.093.188h2.125v.593c0 .485-.093.594-.484.61l-.484.015v.25C1.687.016 2.109 0 2.546 0c.407 0 .813.016 1.22.031M2.234-1.953H.516L2.234-4.75zm0 0" style="stroke:none"/></symbol></defs><path d="m153.32 406.367 12.149-13.398 12.187-13.399 12.188-13.086 12.148-12.46 12.149-11.446 12.187-10.195 12.188-8.594 12.148-6.797 12.149-4.726 12.187-2.54 12.188-.195 12.148 2.227 12.187 4.648 12.149 7.031 12.187 9.336 12.149 11.446 12.187 13.398 12.149 15.04 12.187 16.366 12.149 17.344 12.187 17.93 12.149 18.125 12.187 17.812 12.149 17.149 12.187 15.976 12.188 14.375 12.148 12.383 12.148 10 12.188 7.266 12.187 4.297 12.149 1.054 12.148-2.343 12.188-5.743 12.187-9.296 12.149-12.657 12.187-15.937 12.149-18.985 12.187-21.64 12.149-23.945 12.187-25.82 12.149-27.15 12.187-27.85 12.149-28.009 12.148-27.46 12.187-26.212 12.188-24.296 12.148-21.72 12.188-18.398 12.148-14.453 12.188-9.96 12.148-4.923 12.188.625 12.187 6.524 12.149 12.773L822.578 215l12.188 25.664 12.148 32.149 12.188 38.515 12.187 44.649 12.149 50.39 12.187 55.703 12.148 60.47 12.149 64.491 12.187 67.89 12.188 70.391 12.148 72.032 12.188 72.734 12.148 72.5 12.188 71.25 12.148 69.102 12.188 65.898 12.148 61.836 12.188 56.875 12.148 51.094 12.188 44.531 12.148 37.383 12.188 29.648 12.148 21.524 12.187 13.047 12.188 4.336 12.148-4.336 12.149-13.047 12.187-21.524 12.188-29.648 12.148-37.383 12.149-44.531 12.187-51.094 12.149-56.875 12.187-61.836 12.149-65.898 12.187-69.102 12.188-71.25 12.148-72.5 12.188-72.734 12.148-72.032 12.187-70.39 12.149-67.89 12.187-64.493 12.149-60.469 12.187-55.703 12.149-50.39 12.187-44.649 12.149-38.515 12.187-32.149L1431.055 215l12.148-19.14 12.149-12.774 12.187-6.524 12.149-.625 12.187 4.922 12.148 9.961 12.188 14.453 12.187 18.399 12.149 21.719 12.148 24.297 12.188 26.21 12.148 27.461 12.188 28.008 12.187 27.852 12.149 27.148 12.187 25.82 12.149 23.946 12.187 21.64 12.149 18.985 12.187 15.937 12.149 12.657 12.187 9.296 12.148 5.743 12.188 2.343 12.148-1.054 12.188-4.297 12.187-7.266 12.149-10 12.148-12.383 12.188-14.375 12.148-15.976 12.188-17.149 12.187-17.812 12.149-18.125 12.148-17.93 12.188-17.344 12.187-16.367 12.149-15.039 12.187-13.398 12.148-11.446 12.188-9.336 12.148-7.03 12.188-4.65 12.148-2.226 12.188.196 12.148 2.539 12.188 4.726 12.148 6.797 12.188 8.594 12.148 10.195 12.188 11.445 12.148 12.461 12.188 13.086 12.148 13.399 12.188 13.398" style="fill:none;stroke-width:7.9701;stroke-linecap:butt;stroke-linejoin:miter;stroke:#000;stroke-opacity:1;stroke-miterlimit:10" transform="matrix(.1 0 0 -.1 0 155)"/><path d="M153.32 406.367h1946.992" style="fill:none;stroke-width:3.985;stroke-linecap:butt;stroke-linejoin:miter;stroke:#000;stroke-opacity:1;stroke-miterlimit:10" transform="matrix(.1 0 0 -.1 0 155)"/><path d="M15.078 111.375h.602v6h-.602zm48.676 0h.601v6h-.601zm48.676 0h.601v6h-.601zm48.675 0h.602v6h-.602zm48.672 0h.602v6h-.602zm0 0" style="stroke:none;fill-rule:nonzero;fill:#000;fill-opacity:1"/><path d="M15.078 112.816h.602v3h-.602zm12.168 0h.602v3h-.602zm12.172 0h.602v3h-.602zm12.168 0h.602v3h-.602zm12.168 0h.601v3h-.601zm12.168 0h.601v3h-.601zm12.172 0h.601v3h-.601zm12.168 0h.601v3h-.601zm12.168 0h.601v3h-.601zm12.168 0h.601v3h-.601zm12.168 0h.601v3h-.601zm12.172 0h.601v3h-.601zm12.167 0h.602v3h-.602zm12.168 0h.602v3h-.602zm12.168 0h.602v3h-.602zm12.169 0h.6v3h-.6zm12.167 0h.602v3h-.602zm0 0" style="stroke:none;fill-rule:nonzero;fill:#000;fill-opacity:1"/><use xlink:href="#a" x=".715" y="127.357" style="fill:#000;fill-opacity:1"/><use xlink:href="#b" x="8.035" y="127.357" style="fill:#000;fill-opacity:1"/><use xlink:href="#c" x="13.435" y="127.357" style="fill:#000;fill-opacity:1"/><use xlink:href="#a" x="46.29" y="127.237" style="fill:#000;fill-opacity:1"/><use xlink:href="#d" x="53.61" y="127.237" style="fill:#000;fill-opacity:1"/><use xlink:href="#c" x="59.01" y="127.237" style="fill:#000;fill-opacity:1"/><use xlink:href="#b" x="204.996" y="127.357" style="fill:#000;fill-opacity:1"/><use xlink:href="#c" x="210.396" y="127.357" style="fill:#000;fill-opacity:1"/><use xlink:href="#d" x="159.42" y="127.237" style="fill:#000;fill-opacity:1"/><use xlink:href="#c" x="164.82" y="127.237" style="fill:#000;fill-opacity:1"/><path d="M1126.836 406.367v1062.735" style="fill:none;stroke-width:3.985;stroke-linecap:butt;stroke-linejoin:miter;stroke:#000;stroke-opacity:1;stroke-miterlimit:10" transform="matrix(.1 0 0 -.1 0 155)"/><path d="M109.672 114.016h6v.601h-6zm0-53.137h6v.601h-6zm0-53.137h6v.602h-6zm0 0" style="stroke:none;fill-rule:nonzero;fill:#000;fill-opacity:1"/><path d="M111.23 114.016h3v.601h-3zm0-26.571h3v.602h-3zm0-26.566h3v.601h-3zm0-26.57h3v.601h-3zm0-26.567h3v.602h-3zm0 0" style="stroke:none;fill-rule:nonzero;fill:#000;fill-opacity:1"/><use xlink:href="#e" x="101.543" y="60.026" style="fill:#000;fill-opacity:1"/><path d="M101.531 61.117h4.078v.719h-4.078zm0 0" style="stroke:none;fill-rule:nonzero;fill:#000;fill-opacity:1"/><use xlink:href="#f" x="101.543" y="68.066" style="fill:#000;fill-opacity:1"/><use xlink:href="#g" x="101.303" y="11.929" style="fill:#000;fill-opacity:1"/><path d="M1126.836 140.664v265.703" style="fill:none;stroke-width:3.985;stroke-linecap:butt;stroke-linejoin:miter;stroke:#000;stroke-opacity:1;stroke-miterlimit:10" transform="matrix(.1 0 0 -.1 0 155)"/><path d="M109.672 140.586h6v.601h-6zm0-26.57h6v.601h-6zm0 0" style="stroke:none;fill-rule:nonzero;fill:#000;fill-opacity:1"/><use xlink:href="#a" x="93.023" y="143.932" style="fill:#000;fill-opacity:1"/><use xlink:href="#e" x="101.543" y="139.732" style="fill:#000;fill-opacity:1"/><path d="M101.531 140.824h4.078v.719h-4.078zm0 0" style="stroke:none;fill-rule:nonzero;fill:#000;fill-opacity:1"/><use xlink:href="#h" x="101.543" y="147.771" style="fill:#000;fill-opacity:1"/></svg>