<svg xmlns="http://www.w3.org/2000/svg" width="221pt" height="112pt" viewBox="0 0 221 112"><path d="m40 31.602 10.82 1080M40 31.602l16.21 1080M40 31.602l24.297 1080M40 31.602l36.445 1080M40 31.602l54.688 1080M40 31.602l82.031 1080M40 31.602l123.008 1080M40 31.602l184.531 1080M40 31.602l276.797 1080M40 31.602l415.195 1080M40 31.602l622.773 1080M40 31.602l934.18 1080M40 31.602l1401.29 1080M40 31.602l2101.914 1080" style="fill:none;stroke-width:3.985;stroke-linecap:butt;stroke-linejoin:miter;stroke:#999;stroke-opacity:1;stroke-miterlimit:10" transform="matrix(.1 0 0 -.1 0 112)"/><path d="M40 31.602h2160.04" style="fill:none;stroke-width:3.985;stroke-linecap:butt;stroke-linejoin:miter;stroke:#000;stroke-opacity:1;stroke-miterlimit:10" transform="matrix(.1 0 0 -.1 0 112)"/><path d="M3.746 105.852h.602v6h-.602zm54.004 0h.602v6h-.602zm54 0h.602v6h-.602zm54 0h.602v6h-.602zm54 0h.602v6h-.602zm0 0" style="stroke:none;fill-rule:nonzero;fill:#000;fill-opacity:1"/><path d="M40 31.602v1080" style="fill:none;stroke-width:3.985;stroke-linecap:butt;stroke-linejoin:miter;stroke:#000;stroke-opacity:1;stroke-miterlimit:10" transform="matrix(.1 0 0 -.1 0 112)"/><path d="M.988 108.492h6v.602h-6zm0-54h6v.602h-6zm0-54h6v.602h-6zm0 0" style="stroke:none;fill-rule:nonzero;fill:#000;fill-opacity:1"/><path d="m40 31.602.86 21.601 2.617 21.602 4.296 21.601 6.055 21.602 7.774 21.601 9.492 21.602 11.25 21.601 12.93 21.602 14.687 21.602 16.445 21.601 18.164 21.563 19.844 21.64 21.602 21.563 23.32 21.601 25.078 21.602 26.758 21.601 28.515 21.602 30.235 21.602 31.992 21.64 33.672 21.563 35.43 21.601 37.148 21.602 38.906 21.601L537.656 550 580 571.602l44.063 21.601 45.78 21.602 47.54 21.601 49.258 21.602 50.976 21.601 52.696 21.602 54.453 21.601 56.132 21.602 57.891 21.602 59.61 21.601 61.367 21.602 63.086 21.601 64.765 21.602 66.524 21.601 68.28 21.602 69.962 21.602 71.719 21.601 73.437 21.563 75.195 21.64 76.875 21.602 78.633 21.562 80.352 21.64 82.07 21.563 83.828 21.641 85.547 21.563" style="fill:none;stroke-width:7.9701;stroke-linecap:butt;stroke-linejoin:miter;stroke:#000;stroke-opacity:1;stroke-miterlimit:10" transform="matrix(.1 0 0 -.1 0 112)"/></svg>