<svg xmlns="http://www.w3.org/2000/svg" xmlns:xlink="http://www.w3.org/1999/xlink" width="143pt" height="97pt" viewBox="0 0 143 97"><defs><symbol id="a" overflow="visible"><path d="m3.172-1.188-.125-.218-.531.375c-.36.25-.594.36-.735.36-.093 0-.156-.095-.156-.235 0-.313.14-1.25.516-3.016l.156-.734h1.281l.125-.61c-.453.047-.86.079-1.312.079.187-1.125.328-1.704.53-2.36l-.124-.172c-.235.14-.563.282-.938.422l-.296 2.031c-.516.25-.829.391-1.047.454l-.032.156H1.5L.828-1.281c-.062.297-.156.593-.156.906 0 .297.125.484.36.484.421 0 .827-.234 1.765-1 .219-.156.14-.109.375-.296zm0 0" style="stroke:none"/></symbol><symbol id="b" overflow="visible"><path d="M.781-4.14H7.22v-.72H.78zm0 2.53H7.22v-.702H.78zm0 0" style="stroke:none"/></symbol><symbol id="c" overflow="visible"><path d="M5.563-4.375c0-2.625-.782-3.86-2.422-3.86-1.844 0-2.797 1.47-2.797 4.36 0 1.406.25 2.61.672 3.188.421.593 1.093.921 1.828.921 1.812 0 2.719-1.546 2.719-4.609m-1.016.594c0 2.547-.453 3.61-1.547 3.61-1.156 0-1.656-1.22-1.656-4.126 0-2.531.453-3.516 1.578-3.516 1.172 0 1.625 1.172 1.625 4.032m0 0" style="stroke:none"/></symbol><symbol id="d" overflow="visible"><path d="M5 .031v-.36l-.625-.03c-.656-.032-.781-.172-.781-.782v-7.093l-.156-.063c-.782.406-1.626.766-2.72 1.156l.079.5h.125c.531-.234 1.047-.468 1.578-.703.063 0 .094.11.094.407v5.796c0 .61-.125.75-.781.782l-.672.03v.36C1.812.016 2.469 0 3.125 0c.61 0 1.25.016 1.875.031m0 0" style="stroke:none"/></symbol><symbol id="e" overflow="visible"><path d="M5.594.031c-.032-.25-.032-.36-.032-.531 0-.156 0-.281.032-.547l-4.14.125L3.64-3.234c1.156-1.22 1.515-1.875 1.515-2.782 0-1.375-.937-2.218-2.453-2.218-.86 0-1.453.234-2.031.828l-.203 1.64h.344l.156-.562c.187-.688.625-.984 1.422-.984 1.03 0 1.687.64 1.687 1.656 0 .906-.5 1.781-1.86 3.218L.189-.28v.31C1.078.016 1.968 0 2.858 0c.907 0 1.829.016 2.735.031zm0 0" style="stroke:none"/></symbol><symbol id="f" overflow="visible"><path d="M5.516-2.672c0-.578-.235-1.078-.657-1.375-.312-.219-.578-.312-1.171-.422C4.64-5.219 5-5.766 5-6.469c0-1.062-.89-1.765-2.219-1.765-.812 0-1.344.218-1.922.796L.516-5.952H.89l.203-.672c.14-.406.89-.813 1.515-.813.766 0 1.407.641 1.407 1.391 0 .89-.704 1.64-1.547 1.64-.11 0-.563-.03-.563-.03l-.156.64.094.063c.453-.204.672-.266 1-.266 1 0 1.562.64 1.562 1.734 0 1.22-.718 2.016-1.843 2.016a2.04 2.04 0 0 1-1.391-.516C.89-1.03.734-1.296.5-1.953l-.328.125c.266.734.36 1.156.422 1.75.64.219 1.156.312 1.61.312 1.437 0 3.312-1.25 3.312-2.906m0 0" style="stroke:none"/></symbol><symbol id="g" overflow="visible"><path d="M5.64.031v-.36l-.577-.03c-.579-.032-.72-.188-.72-.907v-.89c.72 0 .97 0 1.298.047v-.86s-.579.047-.97.047h-.327v-1.672c0-2.125.031-3.156.093-3.64l-.14-.063-.89.328L.03-2.437l.125.28h3.188v.891c0 .72-.125.891-.719.907l-.734.03v.36C2.53.016 3.17 0 3.812 0c.61 0 1.22.016 1.829.031zM3.345-2.922H.78L3.344-7.14zm0 0" style="stroke:none"/></symbol></defs><path d="M103.984 143.203h1152.032M320 41.602v900" style="fill:none;stroke-width:3.985;stroke-linecap:butt;stroke-linejoin:miter;stroke:#000;stroke-opacity:1;stroke-miterlimit:10" transform="matrix(.1 0 0 -.1 0 97)"/><path d="M320 143.203h720.04" style="fill:none;stroke-width:7.9701;stroke-linecap:butt;stroke-linejoin:miter;stroke:#000;stroke-opacity:1;stroke-miterlimit:10" transform="matrix(.1 0 0 -.1 0 97)"/><path d="M95.781 82.68v1.492l8.223-1.492-8.223-1.496z" style="stroke:none;fill-rule:nonzero;fill:#000;fill-opacity:1"/><path d="M957.813 143.203v-14.922l82.226 14.922-82.226 14.961zm82.227 0v725.82" style="fill:none;stroke-width:7.9701;stroke-linecap:butt;stroke-linejoin:miter;stroke:#000;stroke-opacity:1;stroke-miterlimit:10" transform="matrix(.1 0 0 -.1 0 97)"/><path d="M104.004 18.316h1.492l-1.492-8.218-1.496 8.218z" style="stroke:none;fill-rule:nonzero;fill:#000;fill-opacity:1"/><path d="M1040.04 786.836h14.92l-14.92 82.187-14.962-82.187zm0 82.187H320" style="fill:none;stroke-width:7.9701;stroke-linecap:butt;stroke-linejoin:miter;stroke:#000;stroke-opacity:1;stroke-miterlimit:10" transform="matrix(.1 0 0 -.1 0 97)"/><path d="M40.219 10.098V8.602L32 10.098l8.219 1.496z" style="stroke:none;fill-rule:nonzero;fill:#000;fill-opacity:1"/><path d="M402.188 869.023v14.961L320 869.024l82.188-14.962zm-82.188 0v-725.82" style="fill:none;stroke-width:7.9701;stroke-linecap:butt;stroke-linejoin:miter;stroke:#000;stroke-opacity:1;stroke-miterlimit:10" transform="matrix(.1 0 0 -.1 0 97)"/><path d="M32 74.46h-1.492L32 82.68l1.496-8.22z" style="stroke:none;fill-rule:nonzero;fill:#000;fill-opacity:1"/><path d="M320 225.39h-14.922L320 143.204l14.96 82.188zm0 0" style="fill:none;stroke-width:7.9701;stroke-linecap:butt;stroke-linejoin:miter;stroke:#000;stroke-opacity:1;stroke-miterlimit:10" transform="matrix(.1 0 0 -.1 0 97)"/><use xlink:href="#a" x="35.721" y="92.616" style="fill:#000;fill-opacity:1"/><use xlink:href="#b" x="43.761" y="92.616" style="fill:#000;fill-opacity:1"/><use xlink:href="#c" x="55.041" y="92.616" style="fill:#000;fill-opacity:1"/><use xlink:href="#a" x="100.522" y="92.736" style="fill:#000;fill-opacity:1"/><use xlink:href="#b" x="108.561" y="92.736" style="fill:#000;fill-opacity:1"/><use xlink:href="#d" x="119.841" y="92.736" style="fill:#000;fill-opacity:1"/><use xlink:href="#a" x="108.107" y="14.177" style="fill:#000;fill-opacity:1"/><use xlink:href="#b" x="116.147" y="14.177" style="fill:#000;fill-opacity:1"/><use xlink:href="#e" x="127.427" y="14.177" style="fill:#000;fill-opacity:1"/><use xlink:href="#a" x="2.697" y="14.057" style="fill:#000;fill-opacity:1"/><use xlink:href="#b" x="10.736" y="14.057" style="fill:#000;fill-opacity:1"/><use xlink:href="#f" x="22.017" y="14.057" style="fill:#000;fill-opacity:1"/><use xlink:href="#a" x="2.697" y="79.5" style="fill:#000;fill-opacity:1"/><use xlink:href="#b" x="10.736" y="79.5" style="fill:#000;fill-opacity:1"/><use xlink:href="#g" x="22.017" y="79.5" style="fill:#000;fill-opacity:1"/></svg>