<svg xmlns="http://www.w3.org/2000/svg" xmlns:xlink="http://www.w3.org/1999/xlink" width="192" height="109pt" viewBox="0 0 144 109"><defs><symbol id="a" overflow="visible"><path d="m3.172-1.188-.125-.218-.531.375c-.36.25-.594.36-.735.36-.093 0-.156-.095-.156-.235 0-.313.14-1.25.516-3.016l.156-.734h1.281l.125-.61c-.453.047-.86.079-1.312.079.187-1.125.328-1.704.53-2.36l-.124-.172c-.235.14-.563.282-.938.422l-.296 2.031c-.516.25-.829.391-1.047.454l-.032.156H1.5L.828-1.281c-.062.297-.156.593-.156.906 0 .297.125.484.36.484.421 0 .827-.234 1.765-1 .219-.156.14-.109.375-.296zm0 0" style="stroke:none"/></symbol><symbol id="d" overflow="visible"><path d="m5.36-.938-.094-.234c-.438.36-.735.531-.922.531C4.156-.64 4-.75 3.89-.984a4.8 4.8 0 0 1-.313-1.032l-.203-1.203.422-.578c.547-.781.875-1.062 1.25-1.062.187 0 .328.109.39.28l.172-.046.172-1.016c-.14-.078-.25-.125-.36-.125-.468 0-.952.438-1.687 1.532l-.453.656-.062-.563c-.14-1.187-.469-1.625-1.172-1.625-.313 0-.578.094-.688.25l-.687 1 .203.11c.36-.407.594-.563.828-.563.39 0 .656.485.86 1.657l.124.75-.468.734C1.703-1.031 1.297-.641.953-.641.781-.64.641-.687.625-.75l-.14-.344-.235.047c0 .234-.016.39-.094.766-.031.156-.031.187-.047.265.172.094.375.141.516.141.39 0 .86-.344 1.234-.906l.907-1.39.125.827C3.062-.328 3.328.125 3.75.125c.266 0 .656-.203 1.031-.547zm0 0" style="stroke:none"/></symbol><symbol id="f" overflow="visible"><path d="m5.86-5.656-.141-.11c-.344.141-.61.204-.875.235l-.422 1.578c-.14.562-.563 1.437-.953 2.015-.422.61-1 1.141-1.266 1.141-.265 0-.25-.578-.234-.734l.187-2.313c.016-.375.047-.828.047-1.172 0-.53-.094-.75-.297-.75-.156 0-.312.094-.89.485L.03-4.61l.14.203.595-.344c.062-.063.218-.156.296-.156.313 0 .266.61.25.812L1.11-1.187l-.015.468c0 .5.218.844.515.844.454 0 1.454-1.016 2.344-2.36L3.375-.187c-.61 2.11-1.219 2.985-2.047 2.985a.737.737 0 0 1-.75-.735c0-.062.016-.156.031-.265L.484 1.75l-.562.406c-.016.078-.016.156-.016.203 0 .516.438.938.985.938 1.265 0 2.578-1.485 3.28-3.688zm0 0" style="stroke:none"/></symbol><symbol id="h" overflow="visible"><path d="m2.61-1.297-.172-.172c-.329.11-.532.172-1.172.36C1.187-.203.89.578.187 1.719l.172.14.485-.234c.969-1.25 1.422-2 1.765-2.922zm0 0" style="stroke:none"/></symbol><symbol id="b" overflow="visible"><path d="M.781-4.14H7.22v-.72H.78zm0 2.53H7.22v-.702H.78zm0 0" style="stroke:none"/></symbol><symbol id="c" overflow="visible"><path d="M5.563-4.375c0-2.625-.782-3.86-2.422-3.86-1.844 0-2.797 1.47-2.797 4.36 0 1.406.25 2.61.672 3.188.421.593 1.093.921 1.828.921 1.812 0 2.719-1.546 2.719-4.609m-1.016.594c0 2.547-.453 3.61-1.547 3.61-1.156 0-1.656-1.22-1.656-4.126 0-2.531.453-3.516 1.578-3.516 1.172 0 1.625 1.172 1.625 4.032m0 0" style="stroke:none"/></symbol><symbol id="e" overflow="visible"><path d="M5 .031v-.36l-.625-.03c-.656-.032-.781-.172-.781-.782v-7.093l-.156-.063c-.782.406-1.626.766-2.72 1.156l.079.5h.125c.531-.234 1.047-.468 1.578-.703.063 0 .094.11.094.407v5.796c0 .61-.125.75-.781.782l-.672.03v.36C1.812.016 2.469 0 3.125 0c.61 0 1.25.016 1.875.031m0 0" style="stroke:none"/></symbol><symbol id="g" overflow="visible"><path d="M3.766 2.11H2.672c-.406 0-.61-.204-.61-.657v-9.469c0-.406.157-.562.563-.562h1.14v-.313H1.11V2.422h2.657zm0 0" style="stroke:none"/></symbol><symbol id="i" overflow="visible"><path d="M.438 2.11v.312h2.64V-8.891H.438v.313H1.5c.422 0 .625.219.625.656v9.485c0 .39-.172.546-.563.546zm0 0" style="stroke:none"/></symbol></defs><path d="M0 109.61h1440.04M270 1.602v1080" style="fill:none;stroke-width:3.985;stroke-linecap:butt;stroke-linejoin:miter;stroke:#000;stroke-opacity:1;stroke-miterlimit:10" transform="matrix(.1 0 0 -.1 0 109)"/><path d="m360 433.594 810.04 432.031" style="fill:none;stroke-width:7.9701;stroke-linecap:butt;stroke-linejoin:miter;stroke:#000;stroke-opacity:1;stroke-miterlimit:10" transform="matrix(.1 0 0 -.1 0 109)"/><path d="m109.75 26.305.703 1.32 6.55-5.188-7.956 2.551z" style="stroke:none;fill-rule:nonzero;fill:#000;fill-opacity:1"/><path d="m1097.5 826.953 7.031-13.203 65.508 51.875-79.57-25.508zm0 0" style="fill:none;stroke-width:7.9701;stroke-linecap:butt;stroke-linejoin:miter;stroke:#000;stroke-opacity:1;stroke-miterlimit:10" transform="matrix(.1 0 0 -.1 0 109)"/><path d="M374.96 433.594c0 8.281-6.679 14.96-14.96 14.96-8.242 0-14.922-6.679-14.922-14.96 0-8.242 6.68-14.922 14.922-14.922 8.281 0 14.96 6.68 14.96 14.922zm810 432.031c0 8.242-6.679 14.922-14.92 14.922-8.282 0-14.962-6.68-14.962-14.922 0-8.281 6.68-14.96 14.961-14.96 8.242 0 14.922 6.679 14.922 14.96zm0 0" style="fill-rule:nonzero;fill:#000;fill-opacity:1;stroke-width:7.9701;stroke-linecap:butt;stroke-linejoin:miter;stroke:#000;stroke-opacity:1;stroke-miterlimit:10" transform="matrix(.1 0 0 -.1 0 109)"/><use xlink:href="#a" x="36.12" y="75.577" style="fill:#000;fill-opacity:1"/><use xlink:href="#b" x="44.16" y="75.577" style="fill:#000;fill-opacity:1"/><use xlink:href="#c" x="55.44" y="75.577" style="fill:#000;fill-opacity:1"/><use xlink:href="#d" x="32.88" y="58.546" style="fill:#000;fill-opacity:1"/><use xlink:href="#a" x="104.401" y="16.342" style="fill:#000;fill-opacity:1"/><use xlink:href="#b" x="112.441" y="16.342" style="fill:#000;fill-opacity:1"/><use xlink:href="#e" x="123.721" y="16.342" style="fill:#000;fill-opacity:1"/><use xlink:href="#f" x="118.501" y="32.519" style="fill:#000;fill-opacity:1"/><use xlink:href="#g" x="57.961" y="33.119" style="fill:#000;fill-opacity:1"/><use xlink:href="#d" x="62.521" y="33.119" style="fill:#000;fill-opacity:1"/><use xlink:href="#h" x="69.481" y="33.119" style="fill:#000;fill-opacity:1"/><use xlink:href="#f" x="75.361" y="33.119" style="fill:#000;fill-opacity:1"/><use xlink:href="#i" x="81.961" y="33.119" style="fill:#000;fill-opacity:1"/></svg>