<svg xmlns="http://www.w3.org/2000/svg" xmlns:xlink="http://www.w3.org/1999/xlink" width="290pt" height="212" viewBox="0 0 290 159"><defs><symbol id="a" overflow="visible"><path d="m5.344-5.156-.125-.094c-.313.11-.563.172-.797.203l-.39 1.438c-.126.515-.516 1.312-.876 1.843C2.781-1.203 2.25-.734 2-.734c-.234 0-.219-.516-.203-.657l.172-2.125c.015-.328.031-.75.031-1.046 0-.5-.063-.688-.25-.688-.14 0-.297.063-.828.422l-.89.625.124.187.547-.328a.53.53 0 0 1 .266-.125c.281 0 .234.547.234.735l-.187 2.64L1-.656c0 .453.203.781.469.781.406 0 1.328-.938 2.14-2.172L3.08-.172C2.517 1.75 1.97 2.547 1.204 2.547a.667.667 0 0 1-.672-.672c0-.047.016-.14.031-.234l-.109-.047-.531.375c-.016.078-.016.14-.016.187 0 .469.406.86.906.86 1.157 0 2.344-1.36 3-3.375zm0 0" style="stroke:none"/></symbol><symbol id="g" overflow="visible"><path d="m4.89-.86-.093-.203c-.39.329-.656.485-.844.485-.156 0-.297-.11-.406-.328a5 5 0 0 1-.281-.922l-.188-1.11.375-.53c.516-.704.813-.954 1.156-.954.172 0 .297.078.36.25l.14-.047.172-.922c-.14-.078-.234-.109-.328-.109-.437 0-.875.39-1.547 1.39L3-3.265l-.063-.515c-.14-1.08-.42-1.47-1.077-1.47-.28 0-.515.078-.609.219l-.64.906.187.11c.328-.376.547-.516.75-.516.36 0 .61.437.781 1.515l.125.672-.437.672C1.546-.938 1.172-.594.875-.594c-.172 0-.281-.031-.313-.094L.454-1l-.219.047c0 .219-.03.36-.093.703-.016.125-.032.156-.047.234.172.094.344.141.469.141.359 0 .796-.328 1.125-.828l.828-1.281.125.75c.156.921.39 1.359.78 1.359.25 0 .595-.188.938-.5zm0 0" style="stroke:none"/></symbol><symbol id="i" overflow="visible"><path d="M6.484-5.906c0-1.094-1.046-1.64-1.984-1.64-.516 0-1.016.03-1.516.03-.609 0-1.203-.015-1.812-.03l-.031.312.609.015c.25.016.375.094.375.297 0 .156-.047.484-.094.828L1.22-1.359C1.047-.375 1.03-.344.594-.313L.14-.266.094.031C.578.016 1.063 0 1.53 0c.516 0 1.016.016 1.516.031l.047-.297-.719-.046c-.281 0-.39-.094-.39-.313 0-.11.015-.188.046-.39l.89-5.313.095-.438a3 3 0 0 0 .078-.296c.39-.063.578-.094.781-.094 1.11 0 1.64.484 1.64 1.5 0 1.172-.78 2.14-1.734 2.14-.25 0-.469-.062-.875-.218l.031.343c.407.188.626.25.938.25 1.406 0 2.61-1.28 2.61-2.765m0 0" style="stroke:none"/></symbol><symbol id="b" overflow="visible"><path d="M.703-3.781h5.89v-.64H.704zm0 2.312h5.89v-.64H.704zm0 0" style="stroke:none"/></symbol><symbol id="c" overflow="visible"><path d="M4.266-1.61c0-.343-.094-.593-.313-.812-.281-.281-.64-.406-1.594-.594-.89-.171-1.187-.39-1.187-.89 0-.547.375-.844 1.047-.844.719 0 1.281.375 1.281.89v.25h.313c0-.64.015-.89.046-1.234-.578-.187-.968-.265-1.421-.265-1.266 0-2.032.593-2.032 1.578 0 .515.235.89.735 1.125.296.125.875.297 1.625.469.484.109.687.328.687.75 0 .593-.547 1-1.312 1-.797 0-1.36-.376-1.36-.922v-.454H.453c0 .75-.031 1.079-.125 1.516.563.188.984.266 1.5.266 1.422 0 2.438-.766 2.438-1.828zm0 0" style="stroke:none"/></symbol><symbol id="d" overflow="visible"><path d="M2.953.031v-.328l-.5-.031c-.375-.016-.406-.094-.406-.781v-3.97l-.094-.03a6.7 6.7 0 0 1-1.703.437v.313h.406c.438 0 .485.078.485.796v2.454c0 .687-.047.765-.407.78l-.5.032v.328C.688.016 1.141 0 1.594 0s.906.016 1.36.031zm-.812-6.984c0-.313-.22-.547-.532-.547-.343 0-.562.219-.562.547s.219.547.547.547.547-.219.547-.547m0 0" style="stroke:none"/></symbol><symbol id="e" overflow="visible"><path d="M6.234.031v-.328l-.437-.031c-.375-.016-.406-.094-.406-.781v-2.11c0-1.281-.61-1.89-1.829-1.89-.406 0-.624.078-.859.265l-.828.719v-.953l-.094-.031a6.7 6.7 0 0 1-1.703.437v.313h.406c.438 0 .47.078.47.796v2.454c0 .687-.032.765-.391.78l-.5.032v.328C.516.016.969 0 1.421 0c.437 0 .906.016 1.344.031v-.328L2.28-.328c-.375-.016-.406-.094-.406-.781v-2.313c0-.5.719-1.031 1.39-1.031.72 0 1.204.547 1.204 1.39V.031C4.75.016 5.047 0 5.329 0c.312 0 .609.016.905.031m0 0" style="stroke:none"/></symbol><symbol id="f" overflow="visible"><path d="M3.313-8.234C1.655-7.156.655-5.297.655-2.938c0 2.126 1.031 4.172 2.625 5.266l.14-.187C1.907.828 1.642-.453 1.642-2.984c0-2.547.296-3.86 1.78-5.063zm0 0" style="stroke:none"/></symbol><symbol id="h" overflow="visible"><path d="m.453-8.234-.11.187C1.829-6.844 2.126-5.53 2.126-2.984c0 2.53-.266 3.812-1.781 5.125l.14.187c1.594-1.094 2.641-3.14 2.641-5.265 0-2.36-1.016-4.22-2.672-5.297zm0 0" style="stroke:none"/></symbol><symbol id="j" overflow="visible"><path d="M3.703-2.922c0-1.734-.515-2.562-1.61-2.562-1.234 0-1.859.968-1.859 2.906 0 .922.157 1.734.438 2.125.281.39.734.61 1.219.61 1.203 0 1.812-1.032 1.812-3.079m-.672.406C3.031-.828 2.734-.125 2-.125c-.766 0-1.094-.797-1.094-2.75 0-1.672.281-2.344 1.047-2.344s1.078.782 1.078 2.703m0 0" style="stroke:none"/></symbol><symbol id="k" overflow="visible"><path d="M3.328.031v-.25l-.406-.015c-.438-.032-.516-.11-.516-.532v-4.718l-.125-.047a13.5 13.5 0 0 1-1.797.765l.047.344H.61c.36-.156.704-.312 1.063-.469.047 0 .062.063.062.266v3.86c0 .421-.093.5-.515.53l-.453.016v.25C1.203.016 1.64 0 2.078 0c.422 0 .844.016 1.25.031m0 0" style="stroke:none"/></symbol><symbol id="l" overflow="visible"><path d="M3.688-1.781c0-.39-.172-.719-.454-.922-.203-.14-.375-.203-.78-.281.64-.485.874-.86.874-1.329 0-.703-.594-1.171-1.469-1.171-.546 0-.906.14-1.28.53l-.235.985h.25l.14-.453c.094-.266.594-.531 1-.531.516 0 .938.422.938.922 0 .593-.469 1.093-1.031 1.093-.063 0-.375-.015-.375-.015l-.094.422.062.047c.297-.141.454-.172.657-.172.671 0 1.046.422 1.046 1.14 0 .813-.484 1.344-1.218 1.344-.375 0-.703-.11-.938-.344-.187-.171-.297-.359-.453-.78l-.203.077c.156.485.219.766.266 1.172.437.14.78.203 1.078.203.968 0 2.218-.828 2.218-1.937zm0 0" style="stroke:none"/></symbol><symbol id="m" overflow="visible"><path d="M3.656-2.016c0-.906-.64-1.53-1.547-1.53-.39 0-.671.093-1.171.39l.078-1.672 2.421.047.047-.047c-.015-.14-.015-.188-.015-.297 0-.14 0-.188.015-.328l-.046-.031s-.844.03-1.376.03c-.546 0-1.39-.03-1.39-.03l-.047.03.016 1.095c0 .703-.016 1.437-.047 1.796l.156.047C1.125-2.89 1.344-3 1.734-3c.766 0 1.25.531 1.25 1.39 0 .891-.515 1.407-1.375 1.407-.437 0-.843-.14-.953-.344l-.36-.656-.187.11C.281-.642.375-.376.5-.032c.219.125.531.187.875.187.531 0 1.11-.234 1.547-.61.484-.437.734-.968.734-1.562zm0 0" style="stroke:none"/></symbol><symbol id="n" overflow="visible"><path d="M3.953-5.25v-.234c-.86.03-.922.03-1.781.03-.828 0-.969 0-1.735-.03l-.093.03s.031.516.031.845c0 .312-.031.812-.031.812h.25L.64-4.25c.062-.484.125-.563.484-.563h2.14a20 20 0 0 1-.874 1.61L.453-.078l.063.11S.734 0 .89 0c.14 0 .359.031.359.031.328-.875.547-1.39 1.25-2.656zm0 0" style="stroke:none"/></symbol></defs><path d="M10 811.602h2880.04" style="fill:none;stroke-width:3.985;stroke-linecap:butt;stroke-linejoin:miter;stroke:#000;stroke-opacity:1;stroke-miterlimit:10" transform="matrix(.1 0 0 -.1 0 159)"/><path d="M.746 74.852h.602v6H.746zm20.574 0h.602v6h-.602zm20.57 0h.602v6h-.601zm20.575 0h.601v6h-.601zm20.57 0h.602v6h-.602zm20.57 0h.602v6h-.602zm20.575 0h.601v6h-.601zm20.57 0h.602v6h-.602zm20.57 0h.602v6h-.602zm20.575 0h.601v6h-.601zm20.57 0h.601v6h-.601zm20.57 0h.602v6h-.602zm20.575 0h.6v6h-.6zm20.57 0h.601v6h-.601zm20.574 0h.601v6h-.601zm0 0" style="stroke:none;fill-rule:nonzero;fill:#000;fill-opacity:1"/><path d="M1450.04 91.602v1440" style="fill:none;stroke-width:3.985;stroke-linecap:butt;stroke-linejoin:miter;stroke:#000;stroke-opacity:1;stroke-miterlimit:10" transform="matrix(.1 0 0 -.1 0 159)"/><path d="M141.988 149.492h6v.602h-6zm0-24h6v.602h-6zm0-24h6v.602h-6zm0-24h6v.602h-6zm0-24h6v.602h-6zm0-24.004h6v.602h-6zm0-24h6v.602h-6zm0 0" style="stroke:none;fill-rule:nonzero;fill:#000;fill-opacity:1"/><path d="m10 496.25 19.18 35.117 19.218 37.54 19.22 39.648 19.179 41.406 19.219 42.812 19.18 43.868 19.218 44.53 19.18 44.766 19.219 44.649 19.18 44.14 19.218 43.243 19.18 41.953 19.218 40.351 19.18 38.32 19.219 36.016 19.18 33.399 19.218 30.43 19.18 27.265 19.219 23.828 19.218 20.196 19.18 16.367 19.219 12.422 19.18 8.359 19.218 4.18 19.18.039 19.18-4.102 19.218-8.281 19.22-12.344 19.179-16.289 19.219-20.117 19.18-23.75 19.218-27.188 19.18-30.39 19.218-33.32 19.22-35.938 19.179-38.32 19.18-40.274 19.218-41.953 19.18-43.203 19.219-44.14 19.18-44.65 19.218-44.765 19.219-44.53 19.18-43.868 19.218-42.852 19.18-41.445 19.219-39.688 19.18-37.578 19.218-35.195L970 464.531l19.219-29.375 19.218-26.133 19.18-22.617 19.219-18.906 19.18-15.04 19.18-11.054 19.218-6.953 19.219-2.812 19.18 1.406 19.218 5.547 19.18 9.648 19.219 13.711 19.18 17.617 19.218 21.368 19.18 24.96 19.219 28.282 19.18 31.406 19.218 34.258 19.18 36.797 19.218 39.023 19.18 40.86 19.219 42.421 19.18 43.594 19.218 44.336 19.22 44.727 19.179 44.765 19.218 44.336 19.18 43.555 19.219 42.422 19.18 40.898 19.218 38.985 19.18 36.796 19.219 34.258 19.18 31.406 19.218 28.32 19.18 24.962 19.219 21.367 19.18 17.617 19.218 13.672 19.18 9.687 19.219 5.547 19.18 1.368 19.218-2.813 19.18-6.953 19.218-11.055 19.18-15.039 19.219-18.906 19.18-22.578 19.218-26.133 19.22-29.375 19.179-32.422 19.218-35.156 19.18-37.578 19.219-39.688 19.18-41.445 19.218-42.852 19.18-43.906 19.219-44.492 19.219-44.805 19.18-44.648 19.179-44.102 19.219-43.242 19.218-41.914 19.18-40.313 19.219-38.28 19.18-35.977 19.218-33.32 19.18-30.391 19.18-27.188 19.218-23.75 19.22-20.117 19.179-16.29 19.219-12.304 19.18-8.32 19.218-4.102 19.18.04 19.218 4.218 19.18 8.36 19.219 12.421 19.219 16.368 19.18 20.195 19.218 23.828 19.18 27.227 19.18 30.468 19.218 33.36 19.18 36.015 19.219 38.32 19.218 40.352 19.18 41.953 19.219 43.243 19.18 44.14 19.218 44.649 19.18 44.804 19.219 44.492 19.18 43.868 19.218 42.812 19.18 41.446 19.219 39.648 19.18 37.539 19.218 35.078" style="fill:none;stroke-width:7.9701;stroke-linecap:butt;stroke-linejoin:miter;stroke:#000;stroke-opacity:1;stroke-miterlimit:10" transform="matrix(.1 0 0 -.1 0 159)"/><path d="m1141.445 91.602 1.368 3.203 19.218 44.804 19.18 44.805 19.219 44.805 19.18 44.765 19.218 44.805 19.18 44.805 19.219 44.804 19.18 44.805 19.218 44.805 19.18 44.805 19.218 44.804 19.18 44.805 19.219 44.805 19.18 44.765 38.437 89.61 19.18 44.804 19.218 44.805 19.18 44.805 19.219 44.804 19.18 44.805 19.218 44.766 19.18 44.843 19.219 44.805 19.18 44.766 19.218 44.804 19.18 44.805 19.219 44.805 19.18 44.804 19.218 44.805 19.18 44.805 19.219 44.804 1.367 3.165" style="fill:none;stroke-width:3.985;stroke-linecap:butt;stroke-linejoin:miter;stroke:#000;stroke-opacity:1;stroke-miterlimit:10" transform="matrix(.1 0 0 -.1 0 159)"/><path d="m832.969 1531.602 2.656-22.266 19.18-148.828 19.218-136.719 19.18-125.039 19.219-113.71 19.18-102.774L950.82 790 970 707.89l19.219-72.343 19.218-62.969 19.18-53.984 19.219-45.43 19.18-37.226 19.18-29.415 19.218-21.992 19.219-14.96 19.18-8.36 19.218-2.11 19.18 3.79 19.219 9.218 19.18 14.297 19.218 18.985 19.18 23.242 19.219 27.187 19.18 30.703 19.218 33.79 19.18 36.562 19.218 38.867 19.18 40.82 19.219 42.383 19.18 43.594 19.218 44.336 19.22 44.727 19.179 44.765 19.218 44.336 19.18 43.555 19.219 42.383 19.18 40.82 19.218 38.906 19.18 36.524 19.219 33.828 19.18 30.664 19.218 27.187 19.18 23.282 19.219 18.984 19.18 14.258 19.218 9.258 19.18 3.75 19.219-2.11 19.18-8.32 19.218-15 19.18-21.992 19.218-29.414 19.18-37.227 19.219-45.39 19.18-54.024 19.218-62.969 19.22-72.343 19.179-82.11 19.218-92.226 19.18-102.774 19.219-113.71 19.18-125.04 19.218-136.758 19.18-148.828 2.656-22.265" style="fill:none;stroke-width:3.985;stroke-linecap:butt;stroke-linejoin:miter;stroke:#000;stroke-opacity:1;stroke-miterlimit:10" transform="matrix(.1 0 0 -.1 0 159)"/><path d="m650.313 91.602 12.5 83.828 19.218 105.937 19.18 85.274 19.18 66.875 19.218 50.625 19.18 36.328 19.219 23.906 19.18 13.32 19.218 4.258 19.219-3.203 19.18-9.297 19.218-14.101 19.18-17.696 19.219-20.195 19.18-21.719 19.218-22.344L970 431.25l19.219-21.29 19.218-19.726 19.18-17.656 19.219-15.117 19.18-12.188 19.18-8.867 19.218-5.39 19.219-1.68 19.18 2.187 19.218 6.094 19.18 10.04 19.219 13.906 19.18 17.773 19.218 21.484 19.18 25 19.219 28.32 19.18 31.446 19.218 34.258 19.18 36.797 19.218 39.023 19.18 40.86 19.219 42.421 19.18 43.594 19.218 44.336 19.22 44.727 19.179 44.765 19.218 44.336 19.18 43.555 19.219 42.422 19.18 40.898 19.218 38.985 19.18 36.835 19.219 34.22 19.18 31.445 19.218 28.32 19.18 25.039 19.219 21.445 19.18 17.774 19.218 13.945 19.18 10.039 19.219 6.094 19.18 2.148 19.218-1.64 19.18-5.391 19.218-8.906 19.18-12.188 19.219-15.117 19.18-17.656 19.218-19.727 19.22-21.289 19.179-22.148 19.218-22.344 19.18-21.719 19.219-20.195 19.18-17.656 19.218-14.102 19.18-9.336 19.219-3.164 19.219 4.258 19.18 13.281 19.179 23.945 19.219 36.329 19.218 50.585 19.18 66.876 19.219 85.273 19.18 105.937 12.5 83.829" style="fill:none;stroke-width:3.985;stroke-linecap:butt;stroke-linejoin:miter;stroke:#000;stroke-opacity:1;stroke-miterlimit:10" transform="matrix(.1 0 0 -.1 0 159)"/><path d="m615.898 1531.602 8.516-42.579 19.18-87.968 19.218-81.25 19.22-75.743 19.179-71.054 19.18-67.188 19.218-63.906 19.18-61.016 19.219-58.476 19.18-56.133 19.218-53.906 19.219-51.758 19.18-49.531 19.218-47.227 19.18-44.844 19.219-42.265 19.18-39.531 19.218-36.641L970 467.109l19.219-30.195 19.218-26.68 19.18-23.007 19.219-19.18 19.18-15.235 19.18-11.171 19.218-7.032 19.219-2.851 19.18 1.328 19.218 5.547 19.18 9.648 19.219 13.672 19.18 17.617 19.218 21.368 19.18 24.96 19.219 28.282 19.18 31.406 19.218 34.258 19.18 36.797 19.218 39.023 19.18 40.86 19.219 42.421 19.18 43.594 19.218 44.336 19.22 44.727 19.179 44.765 19.218 44.336 19.18 43.555 19.219 42.422 19.18 40.898 19.218 38.985 19.18 36.796 19.219 34.258 19.18 31.406 19.218 28.32 19.18 24.962 19.219 21.367 19.18 17.617 19.218 13.672 19.18 9.648 19.219 5.508 19.18 1.367 19.218-2.851 19.18-7.07 19.218-11.172 19.18-15.235 19.219-19.18 19.18-23.007 19.218-26.68 19.22-30.195 19.179-33.477 19.218-36.601 19.18-39.532 19.219-42.265 19.18-44.844 19.218-47.266 19.18-49.53 19.219-51.72 19.219-53.945 19.18-56.133 19.179-58.476 19.219-61.016 19.218-63.906 19.18-67.188 19.219-71.054 19.18-75.704 19.218-81.289 19.18-87.968 8.516-42.578" style="fill:none;stroke-width:3.985;stroke-linecap:butt;stroke-linejoin:miter;stroke:#000;stroke-opacity:1;stroke-miterlimit:10" transform="matrix(.1 0 0 -.1 0 159)"/><use xlink:href="#a" x="5.149" y="22.878" style="fill:#000;fill-opacity:1"/><use xlink:href="#b" x="14.029" y="22.878" style="fill:#000;fill-opacity:1"/><use xlink:href="#c" x="24.349" y="22.878" style="fill:#000;fill-opacity:1"/><use xlink:href="#d" x="29.029" y="22.878" style="fill:#000;fill-opacity:1"/><use xlink:href="#e" x="32.149" y="22.878" style="fill:#000;fill-opacity:1"/><use xlink:href="#f" x="38.509" y="22.878" style="fill:#000;fill-opacity:1"/><use xlink:href="#g" x="42.589" y="22.878" style="fill:#000;fill-opacity:1"/><use xlink:href="#h" x="48.589" y="22.878" style="fill:#000;fill-opacity:1"/><use xlink:href="#a" x="175.431" y="15.799" style="fill:#000;fill-opacity:1"/><use xlink:href="#b" x="184.431" y="15.799" style="fill:#000;fill-opacity:1"/><use xlink:href="#i" x="194.871" y="15.799" style="fill:#000;fill-opacity:1"/><use xlink:href="#j" x="202.071" y="11.599" style="fill:#000;fill-opacity:1"/><use xlink:href="#k" x="201.471" y="19.878" style="fill:#000;fill-opacity:1"/><use xlink:href="#f" x="206.511" y="15.799" style="fill:#000;fill-opacity:1"/><use xlink:href="#g" x="210.591" y="15.799" style="fill:#000;fill-opacity:1"/><use xlink:href="#h" x="216.591" y="15.799" style="fill:#000;fill-opacity:1"/><use xlink:href="#a" x="88.001" y="13.398" style="fill:#000;fill-opacity:1"/><use xlink:href="#b" x="97.001" y="13.398" style="fill:#000;fill-opacity:1"/><use xlink:href="#i" x="107.44" y="13.398" style="fill:#000;fill-opacity:1"/><use xlink:href="#j" x="114.641" y="9.198" style="fill:#000;fill-opacity:1"/><use xlink:href="#l" x="114.041" y="17.478" style="fill:#000;fill-opacity:1"/><use xlink:href="#f" x="119.081" y="13.398" style="fill:#000;fill-opacity:1"/><use xlink:href="#g" x="123.161" y="13.398" style="fill:#000;fill-opacity:1"/><use xlink:href="#h" x="129.161" y="13.398" style="fill:#000;fill-opacity:1"/><use xlink:href="#a" x="17.715" y="147.8" style="fill:#000;fill-opacity:1"/><use xlink:href="#b" x="26.715" y="147.8" style="fill:#000;fill-opacity:1"/><use xlink:href="#i" x="37.154" y="147.8" style="fill:#000;fill-opacity:1"/><use xlink:href="#j" x="44.355" y="143.6" style="fill:#000;fill-opacity:1"/><use xlink:href="#m" x="43.755" y="151.88" style="fill:#000;fill-opacity:1"/><use xlink:href="#f" x="48.795" y="147.8" style="fill:#000;fill-opacity:1"/><use xlink:href="#g" x="52.875" y="147.8" style="fill:#000;fill-opacity:1"/><use xlink:href="#h" x="58.875" y="147.8" style="fill:#000;fill-opacity:1"/><use xlink:href="#a" x="230.974" y="147.92" style="fill:#000;fill-opacity:1"/><use xlink:href="#b" x="239.974" y="147.92" style="fill:#000;fill-opacity:1"/><use xlink:href="#i" x="250.414" y="147.92" style="fill:#000;fill-opacity:1"/><use xlink:href="#j" x="257.614" y="143.72" style="fill:#000;fill-opacity:1"/><use xlink:href="#n" x="257.014" y="151.88" style="fill:#000;fill-opacity:1"/><use xlink:href="#f" x="262.054" y="147.92" style="fill:#000;fill-opacity:1"/><use xlink:href="#g" x="266.134" y="147.92" style="fill:#000;fill-opacity:1"/><use xlink:href="#h" x="272.134" y="147.92" style="fill:#000;fill-opacity:1"/></svg>