<svg xmlns="http://www.w3.org/2000/svg" width="290pt" height="146pt" viewBox="0 0 290 146"><path d="M10 731.602h2880.04" style="fill:none;stroke-width:3.985;stroke-linecap:butt;stroke-linejoin:miter;stroke:#000;stroke-opacity:1;stroke-miterlimit:10" transform="matrix(.1 0 0 -.1 0 146)"/><path d="M.746 69.852h.602v6H.746zm96.004 0h.602v6h-.602zm96 0h.602v6h-.602zm96.004 0h.601v6h-.601zm0 0" style="stroke:none;fill-rule:nonzero;fill:#000;fill-opacity:1"/><path d="M1930.04 11.602v1440" style="fill:none;stroke-width:3.985;stroke-linecap:butt;stroke-linejoin:miter;stroke:#000;stroke-opacity:1;stroke-miterlimit:10" transform="matrix(.1 0 0 -.1 0 146)"/><path d="M189.992 144.492h6v.602h-6zm0-36h6v.602h-6zm0-36h6v.602h-6zm0-36h6v.602h-6zm0-36.004h6v.602h-6zm0 0" style="stroke:none;fill-rule:nonzero;fill:#000;fill-opacity:1"/><path d="m10 491.602 384.023 18.476 383.985 25.156 384.023 36.368 383.985 57.148 384.023 102.852m.001 0 38.007 14.843 38.008 16.133 38.007 17.578 38.047 19.219 38.008 21.133 38.008 23.281 38.008 25.899 38.008 28.867 38.046 32.422 38.008 36.64 38.008 41.836 38.008 48.125 38.047 55.977 38.008 65.976 38.007 78.79 38.008 95.82 31.133 97.46" style="fill:none;stroke-width:7.9701;stroke-linecap:butt;stroke-linejoin:miter;stroke:#000;stroke-opacity:1;stroke-miterlimit:10" transform="matrix(.1 0 0 -.1 0 146)"/><path d="M30.43 18.516c0 1.093-.86 1.992-1.953 1.992a1.976 1.976 0 0 1-1.993-1.992c0-1.094.86-1.993 1.993-1.993 1.093 0 1.953.899 1.953 1.993zm36.953 13.828a1.976 1.976 0 0 1-1.992 1.992 1.976 1.976 0 0 1-1.993-1.992c0-1.094.899-1.953 1.993-1.953 1.093 0 1.992.859 1.992 1.953zm36.914 13.866a2 2 0 0 1-1.992 1.993 2 2 0 0 1-1.993-1.992 2 2 0 0 1 1.993-1.992 2 2 0 0 1 1.992 1.992zm36.913 13.868a2 2 0 0 1-1.991 1.992c-1.094 0-1.953-.898-1.953-1.992 0-1.133.859-1.992 1.953-1.992s1.992.86 1.992 1.992zm36.954 13.828a2 2 0 0 1-1.992 1.992 2 2 0 0 1-1.992-1.992 2 2 0 0 1 1.992-1.992 2 2 0 0 1 1.992 1.992zm36.914 13.867a2 2 0 0 1-1.992 1.993 2 2 0 0 1-1.992-1.993 2 2 0 0 1 1.992-1.992 2 2 0 0 1 1.992 1.992zm36.914 13.829a2 2 0 0 1-1.992 1.992 2 2 0 0 1-1.992-1.992A2 2 0 0 1 250 99.609a2 2 0 0 1 1.992 1.993zm36.914 13.828a2 2 0 0 1-1.992 1.992 2 2 0 0 1-1.992-1.992c0-1.094.898-1.953 1.992-1.953s1.992.859 1.992 1.953zm36.954 13.867a2 2 0 0 1-1.993 1.992 1.976 1.976 0 0 1-1.992-1.992c0-1.094.86-1.992 1.992-1.992a2 2 0 0 1 1.992 1.992zm36.913 13.828a1.976 1.976 0 0 1-1.992 1.992 1.976 1.976 0 0 1-1.992-1.992 2 2 0 0 1 1.992-1.992 2 2 0 0 1 1.992 1.992zm36.915 13.867a2 2 0 0 1-1.993 1.992 2 2 0 0 1-1.992-1.992 2 2 0 0 1 1.992-1.992 2 2 0 0 1 1.993 1.992zm36.914 13.868c0 1.093-.899 1.952-1.993 1.952-1.093 0-1.992-.859-1.992-1.953 0-1.132.899-1.992 1.992-1.992 1.094 0 1.993.86 1.993 1.992zm36.914 13.828c0 1.093-.86 1.992-1.993 1.992-1.093 0-1.953-.899-1.953-1.993 0-1.093.86-1.992 1.953-1.992 1.133 0 1.993.899 1.993 1.993zm36.953 13.828a2 2 0 0 1-1.992 1.992 2 2 0 0 1-1.993-1.992 2 2 0 0 1 1.993-1.993 2 2 0 0 1 1.992 1.993zm36.914 13.867a2 2 0 0 1-1.992 1.992 2 2 0 0 1-1.993-1.992 2 2 0 0 1 1.993-1.992 2 2 0 0 1 1.992 1.992zm36.914 13.827c0 1.095-.86 1.993-1.992 1.993a2 2 0 0 1-1.992-1.992 2 2 0 0 1 1.992-1.992c1.133 0 1.992.898 1.992 1.992zm36.913 13.868a1.974 1.974 0 0 1-1.991 1.992c-1.094 0-1.953-.898-1.953-1.992 0-1.133.859-1.992 1.953-1.992 1.133 0 1.992.86 1.992 1.992zm36.954 13.828a2 2 0 0 1-1.992 1.992 2 2 0 0 1-1.992-1.992 2 2 0 0 1 1.992-1.992 2 2 0 0 1 1.992 1.992zm36.914 13.867a2 2 0 0 1-1.992 1.993 2 2 0 0 1-1.992-1.993c0-1.132.898-1.992 1.992-1.992s1.992.86 1.992 1.992zm36.914 13.829a2 2 0 0 1-1.992 1.992 2 2 0 0 1-1.992-1.992 2 2 0 0 1 1.992-1.993 2 2 0 0 1 1.992 1.993zm36.914 13.828c0 1.093-.86 1.992-1.992 1.992-1.055 0-1.953-.899-1.953-1.992 0-1.094.898-1.953 1.953-1.953 1.133 0 1.992.859 1.992 1.953zm36.954 13.867a2 2 0 0 1-1.993 1.992 1.976 1.976 0 0 1-1.992-1.992c0-1.094.86-1.992 1.992-1.992a2 2 0 0 1 1.992 1.992zm36.913 13.828a1.976 1.976 0 0 1-1.992 1.992 1.976 1.976 0 0 1-1.992-1.992c0-1.055.899-1.953 1.992-1.953 1.094 0 1.992.898 1.992 1.953zm36.915 13.867a2 2 0 0 1-1.993 1.992 2 2 0 0 1-1.992-1.992 2 2 0 0 1 1.992-1.992 2 2 0 0 1 1.992 1.992zm36.914 13.868a1.96 1.96 0 0 1-1.954 1.952c-1.132 0-1.992-.859-1.992-1.953 0-1.132.86-1.992 1.992-1.992 1.055 0 1.954.86 1.954 1.992zm36.953 13.828a2 2 0 0 1-1.992 1.992 1.976 1.976 0 0 1-1.993-1.993c0-1.093.86-1.992 1.992-1.992a2 2 0 0 1 1.993 1.993zm36.875 13.828c0 1.132-.86 1.992-1.953 1.992a1.976 1.976 0 0 1-1.993-1.992 2 2 0 0 1 1.993-1.993c1.093 0 1.953.899 1.953 1.993zm36.953 13.867a2 2 0 0 1-1.992 1.992 2 2 0 0 1-1.993-1.992 2 2 0 0 1 1.993-1.992 2 2 0 0 1 1.992 1.992zm36.914 13.827a2 2 0 0 1-1.992 1.993 2 2 0 0 1-1.993-1.992 2 2 0 0 1 1.993-1.992 2 2 0 0 1 1.992 1.992zm36.913 13.868c0 1.094-.858 1.992-1.952 1.992a1.976 1.976 0 0 1-1.992-1.992c0-1.094.859-1.992 1.992-1.992 1.094 0 1.953.898 1.953 1.992zm36.954 13.828a2 2 0 0 1-1.992 1.992 2 2 0 0 1-1.992-1.992 2 2 0 0 1 1.992-1.992 2 2 0 0 1 1.992 1.992zm36.914 13.867a2 2 0 0 1-1.992 1.993 2 2 0 0 1-1.992-1.993c0-1.132.898-1.992 1.992-1.992s1.992.86 1.992 1.992zm36.914 13.829c0 1.093-.86 1.992-1.953 1.992a1.976 1.976 0 0 1-1.992-1.992c0-1.094.86-1.993 1.992-1.993 1.094 0 1.953.899 1.953 1.993zm36.953 13.828a1.976 1.976 0 0 1-1.992 1.992 1.976 1.976 0 0 1-1.992-1.992c0-1.094.898-1.953 1.992-1.953s1.992.859 1.992 1.953zm36.915 13.867a2 2 0 0 1-1.993 1.992 2 2 0 0 1-1.992-1.992 2 2 0 0 1 1.992-1.992 2 2 0 0 1 1.992 1.992zm36.913 13.828a1.976 1.976 0 0 1-1.992 1.992 1.976 1.976 0 0 1-1.992-1.992c0-1.055.899-1.953 1.992-1.953 1.094 0 1.992.898 1.992 1.953zm36.915 13.867c0 1.094-.86 1.992-1.993 1.992a2 2 0 0 1-1.992-1.992 2 2 0 0 1 1.992-1.992c1.133 0 1.993.898 1.993 1.992zm36.952 13.868c0 1.093-.898 1.952-1.992 1.952s-1.992-.859-1.992-1.953a2 2 0 0 1 1.992-1.992 2 2 0 0 1 1.993 1.992zm36.915 13.828a2 2 0 0 1-1.993 1.992 2 2 0 0 1-1.992-1.992 2 2 0 0 1 1.993-1.993 2 2 0 0 1 1.992 1.992zm36.914 13.828a1.976 1.976 0 0 1-1.992 1.992 1.976 1.976 0 0 1-1.993-1.992 2 2 0 0 1 1.993-1.993 2 2 0 0 1 1.992 1.993zm36.914 13.867a2 2 0 0 1-1.992 1.992 2 2 0 0 1-1.993-1.992 2 2 0 0 1 1.993-1.992 2 2 0 0 1 1.992 1.992zm36.953 13.827a2 2 0 0 1-1.992 1.993 1.976 1.976 0 0 1-1.992-1.992c0-1.094.859-1.953 1.992-1.953 1.093 0 1.992.86 1.992 1.953zm36.914 13.868a2 2 0 0 1-1.992 1.992 2 2 0 0 1-1.992-1.992 2 2 0 0 1 1.992-1.992 2 2 0 0 1 1.992 1.992zm36.914 13.828a2 2 0 0 1-1.992 1.992 2 2 0 0 1-1.992-1.992 2 2 0 0 1 1.992-1.992 2 2 0 0 1 1.992 1.992zm36.914 13.867a2 2 0 0 1-1.992 1.993 2 2 0 0 1-1.992-1.993 2 2 0 0 1 1.992-1.992 2 2 0 0 1 1.992 1.992zm36.914 13.829c0 1.093-.86 1.992-1.953 1.992a1.976 1.976 0 0 1-1.992-1.992c0-1.094.86-1.993 1.992-1.993 1.094 0 1.953.899 1.953 1.993zm36.953 13.828a1.976 1.976 0 0 1-1.992 1.992 1.976 1.976 0 0 1-1.992-1.992c0-1.094.898-1.953 1.992-1.953s1.992.859 1.992 1.953zm36.915 13.867a2 2 0 0 1-1.993 1.992 2 2 0 0 1-1.992-1.992 2 2 0 0 1 1.992-1.992 2 2 0 0 1 1.992 1.992zm36.913 13.867a2 2 0 0 1-1.992 1.992 2 2 0 0 1-1.992-1.992 2 2 0 0 1 1.992-1.992 2 2 0 0 1 1.992 1.992zm36.954 13.828a2 2 0 0 1-1.993 1.992 1.976 1.976 0 0 1-1.992-1.992c0-1.094.86-1.992 1.992-1.992a2 2 0 0 1 1.993 1.992zm36.875 13.868c0 1.093-.86 1.952-1.954 1.952s-1.992-.859-1.992-1.953a2 2 0 0 1 1.992-1.992c1.094 0 1.954.899 1.954 1.992zm36.953 13.828a2 2 0 0 1-1.993 1.992 2 2 0 0 1-1.992-1.992 2 2 0 0 1 1.993-1.993 2 2 0 0 1 1.992 1.992zm36.914 13.828a1.976 1.976 0 0 1-1.992 1.992 1.976 1.976 0 0 1-1.993-1.992 2 2 0 0 1 1.993-1.993 2 2 0 0 1 1.992 1.993zm36.914 13.867c0 1.094-.86 1.992-1.992 1.992-1.094 0-1.954-.898-1.954-1.992s.86-1.992 1.954-1.992c1.132 0 1.992.898 1.992 1.992zm36.953 13.827a2 2 0 0 1-1.992 1.993 2 2 0 0 1-1.992-1.992c0-1.094.898-1.953 1.992-1.953s1.992.86 1.992 1.953zm36.914 13.868a2 2 0 0 1-1.992 1.992 2 2 0 0 1-1.992-1.992 2 2 0 0 1 1.992-1.992 2 2 0 0 1 1.992 1.992zm36.914 13.828c0 1.094-.86 1.992-1.992 1.992-1.094 0-1.953-.898-1.953-1.992s.86-1.992 1.953-1.992c1.133 0 1.992.899 1.992 1.992zm36.914 13.867c0 1.094-.86 1.993-1.992 1.993a2 2 0 0 1-1.992-1.993 2 2 0 0 1 1.992-1.992c1.133 0 1.992.899 1.992 1.992zm36.953 13.829a2 2 0 0 1-1.992 1.992 2 2 0 0 1-1.992-1.992 2 2 0 0 1 1.992-1.993 2 2 0 0 1 1.992 1.993zm36.914 13.828a1.976 1.976 0 0 1-1.992 1.992 1.976 1.976 0 0 1-1.992-1.992c0-1.055.898-1.953 1.992-1.953s1.992.898 1.992 1.953zm36.915 13.867a2 2 0 0 1-1.993 1.992 2 2 0 0 1-1.992-1.992 2 2 0 0 1 1.992-1.992 2 2 0 0 1 1.992 1.992zm36.913 13.867a1.975 1.975 0 0 1-1.992 1.992c-1.054 0-1.953-.898-1.953-1.992s.899-1.992 1.953-1.992c1.133 0 1.992.898 1.992 1.992zm36.954 13.828a2 2 0 0 1-1.993 1.992 1.976 1.976 0 0 1-1.992-1.992c0-1.094.86-1.992 1.992-1.992a2 2 0 0 1 1.993 1.992zm36.913 13.868c0 1.054-.898 1.952-1.992 1.952s-1.992-.898-1.992-1.953c0-1.132.899-1.992 1.992-1.992 1.094 0 1.993.86 1.993 1.992zm36.915 13.828a2 2 0 0 1-1.992 1.992 2 2 0 0 1-1.993-1.992 2 2 0 0 1 1.992-1.993 2 2 0 0 1 1.993 1.992zm36.914 13.867c0 1.093-.899 1.953-1.992 1.953-1.094 0-1.993-.86-1.993-1.953 0-1.133.899-2.032 1.993-2.032 1.093 0 1.992.899 1.992 2.032zm36.953 13.828a2 2 0 0 1-1.992 1.992 2 2 0 0 1-1.992-1.992 2 2 0 0 1 1.992-1.992 2 2 0 0 1 1.992 1.992zm36.914 13.827a1.976 1.976 0 0 1-1.992 1.993 1.976 1.976 0 0 1-1.992-1.992c0-1.094.898-1.953 1.992-1.953s1.992.86 1.992 1.953zm36.914 13.868a2 2 0 0 1-1.992 1.992 2 2 0 0 1-1.992-1.992 2 2 0 0 1 1.992-1.992 2 2 0 0 1 1.992 1.992zm36.914 13.828c0 1.133-.86 1.992-1.992 1.992-1.094 0-1.953-.859-1.953-1.992 0-1.093.86-1.992 1.953-1.992 1.133 0 1.992.899 1.992 1.992zm36.953 13.867a2 2 0 0 1-1.992 1.993 2 2 0 0 1-1.992-1.993 2 2 0 0 1 1.992-1.992 2 2 0 0 1 1.992 1.992zm36.914 13.829a2 2 0 0 1-1.992 1.992 2 2 0 0 1-1.992-1.992c0-1.094.898-1.954 1.992-1.954s1.992.86 1.992 1.954zm36.914 13.867a2 2 0 0 1-1.992 1.992 2 2 0 0 1-1.992-1.992 2 2 0 0 1 1.992-1.992 2 2 0 0 1 1.992 1.992zm36.915 13.828a2 2 0 0 1-1.993 1.992 2 2 0 0 1-1.992-1.992 2 2 0 0 1 1.992-1.992 2 2 0 0 1 1.992 1.992zm36.913 13.867a1.975 1.975 0 0 1-1.992 1.992c-1.093 0-1.953-.898-1.953-1.992 0-1.133.86-1.992 1.953-1.992 1.133 0 1.992.86 1.992 1.992zm36.954 13.828a2 2 0 0 1-1.993 1.992 2 2 0 0 1-1.992-1.992 2 2 0 0 1 1.992-1.992 2 2 0 0 1 1.993 1.992zm36.913 13.868c0 1.093-.898 1.953-1.992 1.953s-1.992-.86-1.992-1.954c0-1.132.899-1.992 1.992-1.992 1.094 0 1.993.86 1.993 1.992zm36.915 13.828c0 1.093-.86 1.992-1.992 1.992-1.094 0-1.954-.899-1.954-1.993 0-1.093.86-1.992 1.954-1.992 1.132 0 1.992.899 1.992 1.993zM23.516 1439.18a2 2 0 0 1-1.993 1.992 2 2 0 0 1-1.992-1.992 2 2 0 0 1 1.992-1.993 2 2 0 0 1 1.993 1.993zm23.047-24.883a2 2 0 0 1-1.993 1.992 2 2 0 0 1-1.992-1.992 2 2 0 0 1 1.992-1.992 2 2 0 0 1 1.992 1.992zm23.007-24.883c0 1.094-.86 1.992-1.953 1.992a1.976 1.976 0 0 1-1.992-1.992c0-1.094.86-1.992 1.992-1.992 1.094 0 1.953.898 1.953 1.992zm23.047-24.883c0 1.094-.86 1.992-1.992 1.992a2 2 0 0 1-1.992-1.992 2 2 0 0 1 1.992-1.992c1.133 0 1.992.899 1.992 1.992zm23.047-24.883a2 2 0 0 1-1.992 1.993 2 2 0 0 1-1.992-1.993 2 2 0 0 1 1.992-1.992 2 2 0 0 1 1.992 1.992zm23.046-23.867a2 2 0 0 1-1.991 1.992 2 2 0 0 1-1.992-1.992 2 2 0 0 1 1.992-1.992 2 2 0 0 1 1.992 1.992zm23.048-22.812a2 2 0 0 1-1.992 1.992 2 2 0 0 1-1.993-1.992c0-1.094.899-1.953 1.993-1.953 1.093 0 1.992.859 1.992 1.953zm23.047-22.774c0 1.094-.899 1.953-1.993 1.953-1.093 0-1.992-.859-1.992-1.953 0-1.132.899-1.992 1.993-1.992 1.093 0 1.992.86 1.992 1.992zm23.008-22.812c0 1.094-.86 1.992-1.954 1.992a2 2 0 0 1-1.992-1.992 2 2 0 0 1 1.992-1.992c1.094 0 1.953.898 1.953 1.992zm23.047-22.813a2 2 0 0 1-1.993 1.993 2 2 0 0 1-1.992-1.993 2 2 0 0 1 1.992-1.992 2 2 0 0 1 1.992 1.992zm25.937-24.375a2 2 0 0 1-1.992 1.993 2 2 0 0 1-1.993-1.993 2 2 0 0 1 1.993-1.992 2 2 0 0 1 1.992 1.992zm28.789-25.898a2 2 0 0 1-1.992 1.992 2 2 0 0 1-1.992-1.992c0-1.133.898-1.992 1.992-1.992s1.992.86 1.992 1.992zm28.789-25.937c0 1.093-.86 1.992-1.992 1.992a2 2 0 0 1-1.992-1.993 2 2 0 0 1 1.992-1.992c1.133 0 1.992.899 1.992 1.992zm28.828-25.938a2 2 0 0 1-1.992 1.992 2 2 0 0 1-1.992-1.992 2 2 0 0 1 1.992-1.992 2 2 0 0 1 1.992 1.992zm28.789-24.609a2 2 0 0 1-1.992 1.992 2 2 0 0 1-1.992-1.993 2 2 0 0 1 1.992-1.992 2 2 0 0 1 1.992 1.993zm28.789-23.321c0 1.094-.898 1.953-1.992 1.953s-1.992-.86-1.992-1.953a2 2 0 0 1 1.992-1.992 2 2 0 0 1 1.992 1.992zm28.829-23.359a1.976 1.976 0 0 1-1.993 1.992 1.976 1.976 0 0 1-1.992-1.992 2 2 0 0 1 1.992-1.992 2 2 0 0 1 1.992 1.992zm28.788-23.32a1.976 1.976 0 0 1-1.992 1.992 1.976 1.976 0 0 1-1.992-1.993c0-1.093.899-1.953 1.992-1.953 1.094 0 1.992.86 1.992 1.954zm28.79-22.032c0 1.094-.86 1.992-1.993 1.992a2 2 0 0 1-1.992-1.992 2 2 0 0 1 1.992-1.992c1.133 0 1.993.899 1.993 1.992zm28.789-20.741c0 1.132-.86 1.991-1.993 1.991-1.093 0-1.953-.86-1.953-1.992 0-1.094.86-1.953 1.953-1.953 1.133 0 1.993.86 1.993 1.953zm28.828-20.743a2 2 0 0 1-1.992 1.992 2 2 0 0 1-1.993-1.992 2 2 0 0 1 1.992-1.992 2 2 0 0 1 1.993 1.992zm28.789-20.703a2 2 0 0 1-1.992 1.992 2 2 0 0 1-1.993-1.992c0-1.133.899-1.992 1.993-1.992 1.093 0 1.992.859 1.992 1.992zm28.789-19.454c0 1.094-.86 1.993-1.992 1.993-1.055 0-1.953-.899-1.953-1.992 0-1.094.898-1.993 1.953-1.993 1.132 0 1.992.899 1.992 1.993zm28.827-18.124c0 1.093-.898 1.953-1.991 1.953-1.094 0-1.992-.86-1.992-1.953 0-1.133.898-1.993 1.992-1.993s1.992.86 1.992 1.993zM660 887.852a2 2 0 0 1-1.992 1.992 2 2 0 0 1-1.992-1.992 2 2 0 0 1 1.992-1.993 2 2 0 0 1 1.992 1.993zm28.79-18.125c0 1.093-.9 1.953-1.993 1.953-1.094 0-1.992-.86-1.992-1.953 0-1.133.898-1.993 1.992-1.993s1.992.86 1.992 1.993zm28.788-16.875c0 1.093-.898 1.992-1.953 1.992a2 2 0 0 1-1.992-1.992 2 2 0 0 1 1.992-1.993c1.055 0 1.953.899 1.953 1.993zm28.828-15.547a2 2 0 0 1-1.992 1.992 2 2 0 0 1-1.992-1.992 2 2 0 0 1 1.992-1.992 2 2 0 0 1 1.992 1.992zm28.789-15.547a2 2 0 0 1-1.992 1.992 2 2 0 0 1-1.992-1.992 2 2 0 0 1 1.992-1.992 2 2 0 0 1 1.992 1.992zm28.789-15.548c0 1.095-.859 1.993-1.953 1.993a2 2 0 0 1-1.992-1.992 2 2 0 0 1 1.992-1.992c1.094 0 1.953.898 1.953 1.992zm28.829-14.257a2 2 0 0 1-1.993 1.992 2 2 0 0 1-1.992-1.992 2 2 0 0 1 1.992-1.992 2 2 0 0 1 1.992 1.992zm28.789-12.969a2 2 0 0 1-1.993 1.993 2 2 0 0 1-1.992-1.993 2 2 0 0 1 1.992-1.992 2 2 0 0 1 1.993 1.992zm28.788-12.968c0 1.132-.859 1.992-1.992 1.992a1.976 1.976 0 0 1-1.992-1.992 2 2 0 0 1 1.992-1.993c1.133 0 1.993.899 1.993 1.993zm28.79-12.93c0 1.055-.86 1.953-1.953 1.953a1.967 1.967 0 0 1-1.993-1.953c0-1.133.86-1.992 1.993-1.992 1.093 0 1.953.86 1.953 1.992zm28.828-11.68a2 2 0 0 1-1.992 1.992 2 2 0 0 1-1.993-1.992 2 2 0 0 1 1.993-1.992 2 2 0 0 1 1.992 1.992zm28.789-10.351a2 2 0 0 1-1.992 1.992 2 2 0 0 1-1.992-1.992c0-1.133.898-1.992 1.992-1.992s1.992.859 1.992 1.992zm28.828-10.391a2 2 0 0 1-1.992 1.992 2 2 0 0 1-1.992-1.992 2 2 0 0 1 1.992-1.992 2 2 0 0 1 1.992 1.992zm28.789-10.351a2 2 0 0 1-1.992 1.992 2 2 0 0 1-1.992-1.992c0-1.133.898-1.993 1.992-1.993s1.992.86 1.992 1.992zm33.594-10.391a2 2 0 0 1-1.992 1.992 2 2 0 0 1-1.993-1.992 2 2 0 0 1 1.993-1.992 2 2 0 0 1 1.992 1.992zm38.398-10.352a2 2 0 0 1-1.992 1.992 2 2 0 0 1-1.992-1.992 2 2 0 0 1 1.992-1.992 2 2 0 0 1 1.992 1.992zm38.399-10.39a2 2 0 0 1-1.993 1.992 2 2 0 0 1-1.992-1.992 2 2 0 0 1 1.993-1.992 2 2 0 0 1 1.992 1.992zm38.398-8.633a2 2 0 0 1-1.992 1.992 2 2 0 0 1-1.992-1.992 2 2 0 0 1 1.992-1.992 2 2 0 0 1 1.992 1.992zm38.399-6.914a2 2 0 0 1-1.993 1.992 2 2 0 0 1-1.992-1.992 2 2 0 0 1 1.992-1.992 2 2 0 0 1 1.993 1.992zm38.398-6.914a2 2 0 0 1-1.992 1.992 2 2 0 0 1-1.992-1.992 2 2 0 0 1 1.992-1.992 2 2 0 0 1 1.992 1.992zm38.398-5.196c0 1.133-.859 1.993-1.992 1.993a1.976 1.976 0 0 1-1.992-1.993c0-1.093.899-1.953 1.992-1.953 1.133 0 1.992.86 1.992 1.953zm38.399-3.437a2 2 0 0 1-1.992 1.992 2 2 0 0 1-1.993-1.992 2 2 0 0 1 1.993-1.992 2 2 0 0 1 1.992 1.992zm38.398-3.438c0 1.094-.898 1.954-1.992 1.954s-1.992-.86-1.992-1.954c0-1.132.898-1.992 1.992-1.992s1.992.86 1.992 1.992zm38.399-1.758c0 1.094-.86 1.993-1.992 1.993-1.094 0-1.954-.899-1.954-1.992 0-1.094.86-1.953 1.954-1.953 1.132 0 1.992.859 1.992 1.953zm38.398 0c0 1.094-.86 1.993-1.953 1.993a1.976 1.976 0 0 1-1.992-1.992c0-1.094.86-1.953 1.992-1.953 1.094 0 1.953.859 1.953 1.953zm38.398 0c0 1.094-.859 1.993-1.953 1.993a1.976 1.976 0 0 1-1.992-1.992c0-1.094.86-1.953 1.993-1.953 1.093 0 1.953.859 1.953 1.953zm38.438 1.758c0 1.094-.898 1.954-1.992 1.954s-1.992-.86-1.992-1.954c0-1.132.898-1.992 1.992-1.992s1.992.86 1.992 1.992zm38.399 3.438a2 2 0 0 1-1.993 1.992 2 2 0 0 1-1.992-1.992 2 2 0 0 1 1.992-1.992 2 2 0 0 1 1.993 1.992zm38.398 3.437a1.976 1.976 0 0 1-1.992 1.993 1.976 1.976 0 0 1-1.992-1.993c0-1.093.898-1.953 1.992-1.953s1.992.86 1.992 1.953zm38.398 5.196a2 2 0 0 1-1.992 1.992 2 2 0 0 1-1.992-1.992 2 2 0 0 1 1.992-1.992 2 2 0 0 1 1.992 1.992zm38.399 6.914a2 2 0 0 1-1.992 1.992 2 2 0 0 1-1.993-1.992 2 2 0 0 1 1.993-1.992 2 2 0 0 1 1.992 1.992zm38.398 6.914a2 2 0 0 1-1.992 1.992 2 2 0 0 1-1.992-1.992 2 2 0 0 1 1.992-1.992 2 2 0 0 1 1.992 1.992zm38.399 8.633a2 2 0 0 1-1.992 1.992 2 2 0 0 1-1.993-1.992 2 2 0 0 1 1.993-1.992 2 2 0 0 1 1.992 1.992zm38.398 10.39a2 2 0 0 1-1.992 1.992 2 2 0 0 1-1.992-1.992 2 2 0 0 1 1.992-1.992 2 2 0 0 1 1.992 1.992zm38.399 10.352a2 2 0 0 1-1.993 1.992 2 2 0 0 1-1.992-1.992 2 2 0 0 1 1.992-1.992 2 2 0 0 1 1.993 1.992zm33.594 10.391a2 2 0 0 1-1.993 1.992 2 2 0 0 1-1.992-1.992c0-1.133.898-1.993 1.992-1.993s1.992.86 1.992 1.992zm28.788 10.351a1.975 1.975 0 0 1-1.992 1.992 2 2 0 0 1-1.992-1.992 2 2 0 0 1 1.992-1.992c1.133 0 1.992.898 1.992 1.992zm28.829 10.391a2 2 0 0 1-1.993 1.992 2 2 0 0 1-1.992-1.992c0-1.133.899-1.992 1.992-1.992 1.094 0 1.993.859 1.993 1.992zm28.789 10.351a2 2 0 0 1-1.993 1.992 2 2 0 0 1-1.992-1.992 2 2 0 0 1 1.992-1.992 2 2 0 0 1 1.993 1.992zm0 0" style="fill-rule:nonzero;fill:#000;fill-opacity:1;stroke-width:3.985;stroke-linecap:butt;stroke-linejoin:miter;stroke:#000;stroke-opacity:1;stroke-miterlimit:10" transform="matrix(.1 0 0 -.1 0 146)"/><path d="M1984.805 753.086c0 1.055-.86 1.953-1.993 1.953a1.96 1.96 0 0 1-1.953-1.953c0-1.133.86-1.992 1.954-1.992 1.132 0 1.992.86 1.992 1.992zm28.789 12.93c0 1.132-.86 1.992-1.953 1.992a1.976 1.976 0 0 1-1.993-1.992 2 2 0 0 1 1.993-1.993c1.093 0 1.953.899 1.953 1.993zm28.828 12.968a2 2 0 0 1-1.992 1.993 2 2 0 0 1-1.993-1.993 2 2 0 0 1 1.993-1.992 2 2 0 0 1 1.992 1.992zm28.788 12.969a2 2 0 0 1-1.991 1.992 2 2 0 0 1-1.992-1.992 2 2 0 0 1 1.992-1.992 2 2 0 0 1 1.992 1.992zM2100 806.21a2 2 0 0 1-1.992 1.993c-1.094 0-1.953-.898-1.953-1.992s.86-1.992 1.953-1.992a2 2 0 0 1 1.992 1.992zm28.828 15.548a2 2 0 0 1-1.992 1.992 2 2 0 0 1-1.992-1.992 2 2 0 0 1 1.992-1.992 2 2 0 0 1 1.992 1.992zm28.789 15.547a2 2 0 0 1-1.992 1.992 2 2 0 0 1-1.992-1.992 2 2 0 0 1 1.992-1.992 2 2 0 0 1 1.992 1.992zm28.789 15.547c0 1.093-.86 1.992-1.992 1.992a2 2 0 0 1-1.992-1.992 2 2 0 0 1 1.992-1.993c1.133 0 1.992.899 1.992 1.993zm28.789 16.875c0 1.093-.86 1.953-1.953 1.953-1.094 0-1.992-.86-1.992-1.953 0-1.133.898-1.993 1.992-1.993s1.953.86 1.953 1.993zm28.828 18.125a2 2 0 0 1-1.992 1.992 2 2 0 0 1-1.992-1.992 2 2 0 0 1 1.992-1.993 2 2 0 0 1 1.992 1.993zm28.79 18.164c0 1.093-.899 1.953-1.993 1.953-1.093 0-1.992-.86-1.992-1.953 0-1.133.899-1.993 1.992-1.993 1.094 0 1.992.86 1.992 1.993zm28.789 18.124c0 1.094-.899 1.993-1.954 1.993a1.976 1.976 0 0 1-1.992-1.992c0-1.094.86-1.993 1.992-1.993 1.055 0 1.954.899 1.954 1.993zm28.828 19.454a2 2 0 0 1-1.992 1.992 2 2 0 0 1-1.993-1.992c0-1.133.899-1.992 1.992-1.992 1.094 0 1.993.859 1.993 1.992zm28.789 20.703a2 2 0 0 1-1.992 1.992 2 2 0 0 1-1.993-1.992 2 2 0 0 1 1.993-1.992 2 2 0 0 1 1.992 1.992zm28.789 20.743c0 1.132-.86 1.991-1.992 1.991a1.976 1.976 0 0 1-1.993-1.992c0-1.094.899-1.953 1.993-1.953 1.132 0 1.992.86 1.992 1.953zm28.828 20.741a2 2 0 0 1-1.992 1.992 1.976 1.976 0 0 1-1.992-1.992c0-1.093.859-1.992 1.992-1.992a2 2 0 0 1 1.992 1.992zm28.789 22.032a1.976 1.976 0 0 1-1.992 1.992 1.976 1.976 0 0 1-1.992-1.993c0-1.093.898-1.953 1.992-1.953s1.992.86 1.992 1.954zm28.789 23.32a1.976 1.976 0 0 1-1.992 1.992 1.976 1.976 0 0 1-1.992-1.992 2 2 0 0 1 1.992-1.992 2 2 0 0 1 1.992 1.992zm28.828 23.359c0 1.094-.898 1.953-1.992 1.953s-1.992-.86-1.992-1.953a2 2 0 0 1 1.992-1.992 2 2 0 0 1 1.992 1.992zm28.789 23.321a2 2 0 0 1-1.992 1.992 2 2 0 0 1-1.992-1.993 2 2 0 0 1 1.992-1.992 2 2 0 0 1 1.992 1.993zm28.789 24.609a2 2 0 0 1-1.992 1.992 2 2 0 0 1-1.992-1.992 2 2 0 0 1 1.992-1.992 2 2 0 0 1 1.992 1.992zm28.79 25.938a2 2 0 0 1-1.993 1.992 2 2 0 0 1-1.992-1.993 2 2 0 0 1 1.992-1.992 2 2 0 0 1 1.992 1.992zm28.828 25.937a2 2 0 0 1-1.993 1.992 1.976 1.976 0 0 1-1.992-1.992c0-1.133.86-1.992 1.992-1.992 1.094 0 1.992.86 1.992 1.992zm28.789 25.898a2 2 0 0 1-1.993 1.993 2 2 0 0 1-1.992-1.993 2 2 0 0 1 1.992-1.992 2 2 0 0 1 1.993 1.992zm25.898 24.375c0 1.094-.86 1.993-1.992 1.993a2 2 0 0 1-1.992-1.993 2 2 0 0 1 1.992-1.992c1.133 0 1.992.899 1.992 1.992zm23.047 22.813a2 2 0 0 1-1.992 1.992 2 2 0 0 1-1.992-1.992 2 2 0 0 1 1.992-1.992 2 2 0 0 1 1.992 1.992zm23.047 22.812c0 1.094-.899 1.953-1.992 1.953-1.094 0-1.993-.859-1.993-1.953 0-1.132.899-1.992 1.993-1.992 1.093 0 1.992.86 1.992 1.992zm23.047 22.774a2 2 0 0 1-1.993 1.992 2 2 0 0 1-1.992-1.992c0-1.094.899-1.953 1.992-1.953 1.094 0 1.993.859 1.993 1.953zm23.047 22.812a2 2 0 0 1-1.993 1.992 2 2 0 0 1-1.992-1.992 2 2 0 0 1 1.992-1.992 2 2 0 0 1 1.992 1.992zm23.047 23.867a2 2 0 0 1-1.993 1.993 2 2 0 0 1-1.992-1.993 2 2 0 0 1 1.992-1.992 2 2 0 0 1 1.992 1.992zm23.007 24.883c0 1.094-.86 1.992-1.992 1.992-1.094 0-1.953-.898-1.953-1.992s.86-1.992 1.953-1.992c1.133 0 1.992.899 1.992 1.992zm23.047 24.883a2 2 0 0 1-1.992 1.992c-1.094 0-1.953-.898-1.953-1.992s.86-1.992 1.953-1.992a2 2 0 0 1 1.992 1.992zm23.046 24.883a2 2 0 0 1-1.991 1.992 2 2 0 0 1-1.992-1.992 2 2 0 0 1 1.992-1.992 2 2 0 0 1 1.992 1.992zm23.048 24.883a2 2 0 0 1-1.992 1.992 2 2 0 0 1-1.993-1.992 2 2 0 0 1 1.993-1.993 2 2 0 0 1 1.992 1.993zM640.43 20.977c0 1.093-.86 1.992-1.953 1.992a1.976 1.976 0 0 1-1.993-1.992c0-1.094.86-1.993 1.993-1.993 1.093 0 1.953.899 1.953 1.993zm13.047 18.828a2 2 0 0 1-1.993 1.992 2 2 0 0 1-1.992-1.992c0-1.133.899-1.992 1.992-1.992 1.094 0 1.993.859 1.993 1.992zm18.515 24.687A2 2 0 0 1 670 66.484a2 2 0 0 1-1.992-1.992A2 2 0 0 1 670 62.5a2 2 0 0 1 1.992 1.992zm24.024 30.586a2 2 0 0 1-1.993 1.992 1.976 1.976 0 0 1-1.992-1.992c0-1.094.86-1.992 1.992-1.992a2 2 0 0 1 1.993 1.992zM720 125.664a1.976 1.976 0 0 1-1.992 1.992 1.976 1.976 0 0 1-1.992-1.992c0-1.055.898-1.953 1.992-1.953s1.992.898 1.992 1.953zm23.984 28.75c0 1.094-.859 1.992-1.953 1.992a1.976 1.976 0 0 1-1.992-1.992c0-1.094.86-1.992 1.992-1.992 1.094 0 1.953.898 1.953 1.992zm24.024 26.876a2 2 0 0 1-1.992 1.991 2 2 0 0 1-1.993-1.992 2 2 0 0 1 1.993-1.992 2 2 0 0 1 1.992 1.992zm23.984 26.874a1.976 1.976 0 0 1-1.992 1.992 1.976 1.976 0 0 1-1.992-1.992 2 2 0 0 1 1.992-1.992 2 2 0 0 1 1.992 1.992zm24.024 25.196a2 2 0 0 1-1.993 1.992 1.976 1.976 0 0 1-1.992-1.993c0-1.093.86-1.992 1.992-1.992a2 2 0 0 1 1.993 1.992zM840 256.836a2 2 0 0 1-1.992 1.992 2 2 0 0 1-1.992-1.992 2 2 0 0 1 1.992-1.992 2 2 0 0 1 1.992 1.992zm23.984 23.477c0 1.093-.859 1.992-1.953 1.992a1.976 1.976 0 0 1-1.992-1.993c0-1.093.86-1.992 1.992-1.992 1.094 0 1.953.899 1.953 1.993zm24.024 21.914a2 2 0 0 1-1.992 1.992 2 2 0 0 1-1.993-1.992 2 2 0 0 1 1.993-1.993 2 2 0 0 1 1.992 1.993zm23.984 20.351A2 2 0 0 1 910 324.57a2 2 0 0 1-1.992-1.992c0-1.094.898-1.953 1.992-1.953s1.992.86 1.992 1.953zm24.024 20.391a2 2 0 0 1-1.993 1.992 1.976 1.976 0 0 1-1.992-1.992c0-1.094.86-1.992 1.992-1.992a2 2 0 0 1 1.993 1.992zM960 361.953a2 2 0 0 1-1.992 1.992 2 2 0 0 1-1.992-1.992 2 2 0 0 1 1.992-1.992 2 2 0 0 1 1.992 1.992zm23.984 17.539c0 1.094-.859 1.992-1.953 1.992a2 2 0 0 1-1.992-1.992c0-1.094.899-1.953 1.992-1.953 1.094 0 1.953.86 1.953 1.953zm24.024 17.578a2 2 0 0 1-1.992 1.993 2 2 0 0 1-1.993-1.993 2 2 0 0 1 1.993-1.992 2 2 0 0 1 1.992 1.992zm23.984 16.328c0 1.094-.898 1.993-1.953 1.993a1.976 1.976 0 0 1-1.992-1.993c0-1.093.86-1.992 1.992-1.992 1.055 0 1.953.899 1.953 1.992zm24.024 15.079c0 1.093-.899 1.953-1.993 1.953-1.132 0-1.992-.86-1.992-1.953 0-1.133.86-1.993 1.992-1.993 1.094 0 1.993.86 1.993 1.993zM1080 443.516a2 2 0 0 1-1.992 1.992 2 2 0 0 1-1.992-1.992 2 2 0 0 1 1.992-1.993 2 2 0 0 1 1.992 1.993zm23.984 13.984a1.975 1.975 0 0 1-1.992 1.992c-1.094 0-1.953-.898-1.953-1.992s.86-1.992 1.953-1.992c1.133 0 1.992.898 1.992 1.992zm24.024 12.89c0 1.094-.899 1.954-1.992 1.954-1.094 0-1.993-.86-1.993-1.953 0-1.133.899-1.993 1.993-1.993 1.093 0 1.992.86 1.992 1.993zm23.984 12.852a2 2 0 0 1-1.992 1.992 2 2 0 0 1-1.992-1.992 2 2 0 0 1 1.992-1.992 2 2 0 0 1 1.992 1.992zm30 14.688c0 1.093-.898 1.992-1.953 1.992a1.976 1.976 0 0 1-1.992-1.992c0-1.094.86-1.993 1.992-1.993 1.055 0 1.953.899 1.953 1.993zm36.016 16.484a2 2 0 0 1-1.992 1.992 2 2 0 0 1-1.993-1.992 2 2 0 0 1 1.993-1.992 2 2 0 0 1 1.992 1.992zm36.015 15.274a2 2 0 0 1-1.992 1.992 2 2 0 0 1-1.992-1.992 2 2 0 0 1 1.992-1.993 2 2 0 0 1 1.992 1.992zM1290 543.79a2 2 0 0 1-1.992 1.991 2 2 0 0 1-1.992-1.992 2 2 0 0 1 1.992-1.992 2 2 0 0 1 1.992 1.992zm36.016 13.124c0 1.133-.899 2.031-1.993 2.031-1.093 0-1.992-.898-1.992-2.03 0-1.056.899-1.954 1.992-1.954 1.094 0 1.993.898 1.993 1.953zm35.976 12.188c0 1.093-.86 1.992-1.953 1.992a1.976 1.976 0 0 1-1.992-1.992c0-1.094.86-1.993 1.992-1.993 1.094 0 1.953.899 1.953 1.993zm36.016 11.445a2 2 0 0 1-1.992 1.992 2 2 0 0 1-1.993-1.992 2 2 0 0 1 1.993-1.992 2 2 0 0 1 1.992 1.992zm36.015 10.703a2 2 0 0 1-1.992 1.992 2 2 0 0 1-1.992-1.992 2 2 0 0 1 1.992-1.992 2 2 0 0 1 1.992 1.992zM1470 601.445a2 2 0 0 1-1.992 1.992 2 2 0 0 1-1.992-1.992 2 2 0 0 1 1.992-1.992 2 2 0 0 1 1.992 1.992zm36.016 9.688a1.976 1.976 0 0 1-1.993 1.992 1.976 1.976 0 0 1-1.992-1.992 2 2 0 0 1 1.992-1.992 2 2 0 0 1 1.993 1.992zm35.976 9.453c0 1.094-.86 1.992-1.953 1.992a1.976 1.976 0 0 1-1.992-1.992c0-1.133.86-1.992 1.992-1.992 1.094 0 1.953.86 1.953 1.992zm36.016 9.102a1.976 1.976 0 0 1-1.992 1.992 1.976 1.976 0 0 1-1.993-1.992 2 2 0 0 1 1.993-1.993 2 2 0 0 1 1.992 1.992zm36.015 9.102a2 2 0 0 1-1.992 1.991 2 2 0 0 1-1.992-1.992 2 2 0 0 1 1.992-1.992 2 2 0 0 1 1.992 1.992zm35.977 9.023a1.976 1.976 0 0 1-1.992 1.992 1.976 1.976 0 0 1-1.992-1.992c0-1.094.898-1.954 1.992-1.954s1.992.86 1.992 1.953zm36.016 9.218a2 2 0 0 1-1.993 1.992 2 2 0 0 1-1.992-1.992 2 2 0 0 1 1.992-1.992 2 2 0 0 1 1.993 1.992zm35.976 9.414c0 1.094-.86 1.992-1.953 1.992a1.976 1.976 0 0 1-1.992-1.992c0-1.093.86-1.992 1.992-1.992 1.094 0 1.953.899 1.953 1.992zm36.016 9.765a2 2 0 0 1-1.992 1.993 2 2 0 0 1-1.993-1.992c0-1.094.899-1.953 1.993-1.953 1.093 0 1.992.86 1.992 1.953zm36.015 10.235a2 2 0 0 1-1.992 1.992 2 2 0 0 1-1.992-1.992 2 2 0 0 1 1.992-1.992 2 2 0 0 1 1.992 1.992zM1830 697.266a2 2 0 0 1-1.992 1.992 2 2 0 0 1-1.992-1.992 2 2 0 0 1 1.992-1.993 2 2 0 0 1 1.992 1.993zm36.016 11.444a1.976 1.976 0 0 1-1.993 1.993 1.976 1.976 0 0 1-1.992-1.992c0-1.055.899-1.953 1.992-1.953 1.094 0 1.993.898 1.993 1.953zm35.976 12.345c0 1.093-.86 1.992-1.953 1.992a2 2 0 0 1-1.992-1.992 2 2 0 0 1 1.992-1.992c1.094 0 1.953.898 1.953 1.992zm36.016 13.203c0 1.094-.86 1.953-1.992 1.953-1.094 0-1.993-.86-1.993-1.953a2 2 0 0 1 1.993-1.992c1.132 0 1.992.898 1.992 1.992zm36.015 14.258a2 2 0 0 1-1.992 1.992 2 2 0 0 1-1.992-1.992 2 2 0 0 1 1.992-1.993 2 2 0 0 1 1.992 1.993zm35.977 15.39c0 1.055-.898 1.992-1.992 1.992s-1.992-.937-1.992-1.992c0-1.133.898-1.992 1.992-1.992s1.992.86 1.992 1.992zm0 0" style="fill-rule:nonzero;fill:#000;fill-opacity:1;stroke-width:3.985;stroke-linecap:butt;stroke-linejoin:miter;stroke:#000;stroke-opacity:1;stroke-miterlimit:10" transform="matrix(.1 0 0 -.1 0 146)"/><path d="M2040.04 777.578c0 1.094-.9 1.992-2.032 1.992-1.094 0-1.953-.898-1.953-1.992s.86-1.992 1.953-1.992c1.133 0 2.031.898 2.031 1.992zm23.983 11.992a2 2 0 0 1-1.992 1.992 2 2 0 0 1-1.992-1.992 2 2 0 0 1 1.992-1.992 2 2 0 0 1 1.992 1.992zm23.985 11.993a2 2 0 0 1-1.992 1.992 2 2 0 0 1-1.993-1.992 2 2 0 0 1 1.993-1.993 2 2 0 0 1 1.992 1.992zm24.023 13.047c0 1.093-.898 1.952-1.992 1.952s-1.992-.859-1.992-1.953c0-1.132.898-1.992 1.992-1.992s1.992.86 1.992 1.992zm23.985 14.023a1.976 1.976 0 0 1-1.993 1.992 1.976 1.976 0 0 1-1.992-1.992 2 2 0 0 1 1.992-1.992 2 2 0 0 1 1.993 1.992zm24.024 14.062a2 2 0 0 1-1.993 1.992 1.976 1.976 0 0 1-1.992-1.992c0-1.093.86-1.992 1.992-1.992a2 2 0 0 1 1.992 1.992zm23.983 15.235a2 2 0 0 1-1.992 1.992 2 2 0 0 1-1.992-1.992 2 2 0 0 1 1.992-1.992 2 2 0 0 1 1.992 1.992zm23.985 16.445c0 1.094-.86 1.992-1.992 1.992a2 2 0 0 1-1.993-1.992 2 2 0 0 1 1.993-1.992c1.132 0 1.992.898 1.992 1.992zm23.984 16.406c0 1.094-.86 1.992-1.953 1.992a2 2 0 0 1-1.992-1.992 2 2 0 0 1 1.992-1.992c1.094 0 1.953.899 1.953 1.992zm24.024 17.774c0 1.093-.899 1.953-1.993 1.953-1.093 0-1.992-.86-1.992-1.953 0-1.133.899-1.992 1.992-1.992 1.094 0 1.993.859 1.993 1.992zM2280 927.617a2 2 0 0 1-1.992 1.992c-1.094 0-1.953-.898-1.953-1.992s.86-1.992 1.953-1.992a2 2 0 0 1 1.992 1.992zm24.023 19.102a2 2 0 0 1-1.992 1.992 2 2 0 0 1-1.992-1.992 2 2 0 0 1 1.992-1.992 2 2 0 0 1 1.992 1.992zm23.985 20.547c0 1.132-.86 1.992-1.953 1.992-1.133 0-1.992-.86-1.992-1.992 0-1.094.859-1.993 1.992-1.993 1.093 0 1.953.899 1.953 1.993zm24.023 22.07a2 2 0 0 1-1.992 1.992 2 2 0 0 1-1.992-1.992 2 2 0 0 1 1.992-1.992 2 2 0 0 1 1.992 1.992zm23.985 22.07a2 2 0 0 1-1.993 1.992 2 2 0 0 1-1.992-1.992c0-1.133.899-1.992 1.992-1.992 1.094 0 1.993.86 1.993 1.992zm24.024 23.672a2 2 0 0 1-1.993 1.992 1.976 1.976 0 0 1-1.992-1.992c0-1.094.86-1.992 1.992-1.992a2 2 0 0 1 1.992 1.992zm23.983 25.312a1.976 1.976 0 0 1-1.992 1.993 1.976 1.976 0 0 1-1.992-1.992c0-1.055.898-1.954 1.992-1.954s1.992.899 1.992 1.954zm23.985 25.352c0 1.094-.86 1.992-1.992 1.992a2 2 0 0 1-1.993-1.992 2 2 0 0 1 1.993-1.992c1.132 0 1.992.898 1.992 1.992zm24.023 27.11a2 2 0 0 1-1.992 1.992 2 2 0 0 1-1.992-1.992c0-1.094.898-1.954 1.992-1.954s1.992.86 1.992 1.954zm23.985 28.906a2 2 0 0 1-1.993 1.992 2 2 0 0 1-1.992-1.992 2 2 0 0 1 1.992-1.992 2 2 0 0 1 1.993 1.992zm24.024 28.906a1.976 1.976 0 0 1-1.993 1.992 1.976 1.976 0 0 1-1.992-1.992c0-1.055.898-1.953 1.992-1.953s1.992.898 1.992 1.953zm20.976 26.758a2 2 0 0 1-1.993 1.992 2 2 0 0 1-1.992-1.992 2 2 0 0 1 1.992-1.992 2 2 0 0 1 1.993 1.992zm18.007 24.57a1.976 1.976 0 0 1-1.992 1.992 1.976 1.976 0 0 1-1.992-1.992c0-1.094.898-1.953 1.992-1.953s1.992.86 1.992 1.953zm18.008 24.61a2 2 0 0 1-1.992 1.992 2 2 0 0 1-1.992-1.992 2 2 0 0 1 1.992-1.993 2 2 0 0 1 1.992 1.993zm18.009 24.608a2 2 0 0 1-1.993 1.993 1.976 1.976 0 0 1-1.992-1.992c0-1.094.86-1.992 1.992-1.992a2 2 0 0 1 1.992 1.992zm17.968 26.173c0 1.094-.86 1.992-1.953 1.992a1.976 1.976 0 0 1-1.992-1.992c0-1.094.859-1.992 1.992-1.992 1.093 0 1.953.898 1.953 1.992zm18.008 27.695a2 2 0 0 1-1.993 1.992 2 2 0 0 1-1.992-1.992 2 2 0 0 1 1.992-1.992 2 2 0 0 1 1.993 1.992zm18.007 27.735a2 2 0 0 1-1.992 1.992 2 2 0 0 1-1.992-1.993 2 2 0 0 1 1.992-1.992 2 2 0 0 1 1.992 1.993zm18.008 27.734a2 2 0 0 1-1.992 1.992 2 2 0 0 1-1.992-1.992 2 2 0 0 1 1.992-1.992 2 2 0 0 1 1.992 1.992zm17.266 28.163a2 2 0 0 1-1.992 1.993 2 2 0 0 1-1.992-1.992 2 2 0 0 1 1.992-1.992 2 2 0 0 1 1.992 1.992zm16.563 28.595a2 2 0 0 1-1.993 1.992 2 2 0 0 1-1.992-1.992 2 2 0 0 1 1.992-1.993 2 2 0 0 1 1.992 1.993zm0 0" style="fill-rule:nonzero;fill:#000;fill-opacity:1;stroke-width:3.985;stroke-linecap:butt;stroke-linejoin:miter;stroke:#000;stroke-opacity:1;stroke-miterlimit:10" transform="matrix(.1 0 0 -.1 0 146)"/><path d="m892.422 1451.602.86-16.563m1.678-33.203.86-16.64m0-.001.82-16.562m1.72-33.243.859-16.6m0 0 2.11-25.43m4.179-50.9 2.11-25.468m-.001 0 2.07-25.469m4.219-50.898 2.11-25.469m0 0 2.109-25.43m4.18-50.898 2.11-25.469m-.001.001 3.164-23.32m6.289-46.68 3.164-23.32m0 0 3.125-23.36m6.289-46.64 3.164-23.36m.001 0 6.288-28.047m12.618-56.093 6.289-28.048m0 0 6.328-16.562m12.577-33.047 6.29-16.524m0 .001 6.328-9.493m12.578-18.984 6.29-9.492m-.001-.001 6.328-5.273m12.579-10.469 6.328-5.234m0 0 6.289-2.734m12.617-5.39 6.289-2.735m0 0 6.29-1.211m12.616-2.461 6.29-1.211m-.001 0 6.29-.352m12.617-.703 6.289-.351m0 0 6.289.117m12.617.312 6.289.117m-.001.001 6.33.43m12.577.859 6.29.43m-.001-.001 6.328.586m12.579 1.211 6.289.586m0 0 6.328.703m12.578 1.406 6.328.664m0 .001 6.289.78m12.578 1.524 6.328.742m0 0 6.29.82m12.617 1.602 6.289.82m0 .001 6.289.82m12.617 1.68 6.289.859m0 0 6.289.86m12.617 1.757 6.29.86m-.001 0 6.29.898m12.616 1.836 6.29.898m0 0 6.289.938m12.617 1.875 6.289.937m0 0 6.328.938m12.578 1.953 6.29.976m-.001.001 6.328.976m12.579 2.031 6.328 1.016m0 0 6.289 1.016m12.578 2.07 6.328 1.055m0 0 6.289 1.054m12.618 2.149 6.288 1.054m0 0 6.29 1.133m12.616 2.227 6.29 1.093m-.001.001 6.29 1.171m12.617 2.305 6.289 1.172m0 0 6.289 1.21m12.617 2.384 6.29 1.172m-.001 0 6.29 1.25m12.616 2.5 6.29 1.25m0 0 6.328 1.289m12.578 2.578 6.289 1.289m0 0 6.328 1.367m12.577 2.695 6.33 1.328m0 0 6.288 1.407m12.578 2.773 6.328 1.406m0 0 6.29 1.446m12.578 2.93 6.328 1.445m0 0 6.289 1.562m12.617 3.008 6.289 1.523m0 0 6.29 1.602m12.616 3.164 6.29 1.602m-.001 0 6.29 1.64m12.617 3.321 6.289 1.64m0 0 6.289 1.758m12.617 3.438 6.289 1.757m-.001 0 6.33 1.797m12.577 3.593 6.29 1.837m-.001 0 6.328 1.875m12.579 3.828 6.289 1.875m0 0 6.328 1.992m12.578 3.985 6.328 1.992m0 0 6.289 2.11m12.578 4.179 6.328 2.07m0 0 6.29 2.227m12.617 4.375 6.289 2.226m0 0 6.289 2.305m12.617 4.609 6.289 2.305m0 0 6.289 2.46m12.617 4.884 6.29 2.422m-.001 0 6.29 2.578m12.616 5.156 6.29 2.578m0 0 6.328 2.695m12.578 5.43 6.289 2.735m0 0 6.328 2.89m12.578 5.742 6.29 2.89m-.001 0 6.328 3.087m12.579 6.093 6.327 3.048m.001 0 6.289 3.242m12.578 6.484 6.328 3.281m0 0 6.289 3.438m12.618 6.914 6.288 3.476m0 0 6.29 3.672m12.616 7.383 6.29 3.672m-.001 0 6.29 3.945m12.617 7.891 6.289 3.945m0 0 6.289 4.18m12.617 8.477 6.29 4.218m-.001 0 6.328 4.532m12.578 9.102 6.29 4.53m0 0 6.327 4.844m12.579 9.766 6.289 4.922m0 0 6.328 5.273m12.577 10.547 6.33 5.273m0 0 6.288 5.703m12.617 11.407 6.29 5.742m-.001 0 6.29 6.21m12.616 12.423 6.29 6.21m0 0 6.289 6.758m12.617 13.555 6.289 6.797m0 0 6.29 7.422m12.616 14.844 6.29 7.422m-.001 0 6.328 8.164m12.579 16.288 6.289 8.165m0 0 6.328 9.023m12.578 18.047 6.289 9.023m-.001 0 6.33 10.04m12.577 20.078 6.328 10m0 0 6.29 11.21m12.617 22.422 6.289 11.172m-.001 0 6.29 12.618m12.617 25.195 6.289 12.617m0 0 6.289 14.297m12.617 28.555 6.29 14.296m-.001 0 6.29 16.29m12.617 32.617 6.289 16.328m0 0 6.328 18.828m12.578 37.617 6.289 18.828m0 0 1.836 6.29m3.594 12.617 1.836 6.289" style="fill:none;stroke-width:3.985;stroke-linecap:butt;stroke-linejoin:miter;stroke:#000;stroke-opacity:1;stroke-miterlimit:10" transform="matrix(.1 0 0 -.1 0 146)"/></svg>