<svg xmlns="http://www.w3.org/2000/svg" width="437pt" height="76pt" viewBox="0 0 437 76"><path d="M40 751.602h29.18m58.398 0h29.18m0 0h29.18m58.398 0h29.18m0 0h29.18m58.398 0h29.18m-.001 0h29.18m58.399 0h29.18m-.001 0h29.18m58.399 0h29.18m0 0h29.179m58.398 0h29.18m0 0h29.18m58.398 0h29.18m0 0h29.18m58.398 0h29.18m0 0h29.18m58.397 0h29.18m0 0h29.22m58.358 0h29.18m0 0h29.18m58.398 0h29.18m0 0h29.18m58.398 0h29.18m0 0h29.218m58.36 0h29.18m0 0h29.18m58.398 0h29.18m0 0h29.18m58.398 0h29.18m-.001 0h29.219m58.359 0h29.18m0 0h29.219m58.359 0h29.18m0 0h29.18m58.397 0h29.18m0 0h29.22m58.359 0h29.18m-.001 0h29.18m58.399 0h29.18m-.001 0h29.219m58.359 0h29.18m0 0h29.219m58.359 0h29.18m0 0h29.18m58.398 0h29.219m0 0h29.18m58.359 0h29.18m0 0h29.218m58.36 0h29.18m-.001 0h29.18m58.398 0h29.18m0 0h29.219m58.359 0h29.18m-.001 0h29.18m58.4 0h29.179m0 0h29.218m58.36 0h29.18m0 0h29.218m58.36 0h29.18m-.001 0h29.22m58.359 0h29.18m-.001 0h29.219m58.359 0h29.22m0 0h29.179m58.359 0h29.18m0 0h29.219m58.359 0h29.18m0 0h29.18m58.398 0h29.18m-.001 0h29.22m58.359 0h29.18m-.001 0h29.219m58.36 0h29.18M40 31.602h4320.04" style="fill:none;stroke-width:3.985;stroke-linecap:butt;stroke-linejoin:miter;stroke:#000;stroke-opacity:1;stroke-miterlimit:10" transform="matrix(.1 0 0 -.1 0 76)"/><path d="M3.746 69.852h.602v6h-.602zm72.004 0h.602v6h-.602zm72 0h.602v6h-.602zm72 0h.602v6h-.602zm72.004 0h.601v6h-.601zm72 0h.601v6h-.601zm72 0h.601v6h-.601zm0 0" style="stroke:none;fill-rule:nonzero;fill:#000;fill-opacity:1"/><path d="M40 31.602v720" style="fill:none;stroke-width:3.985;stroke-linecap:butt;stroke-linejoin:miter;stroke:#000;stroke-opacity:1;stroke-miterlimit:10" transform="matrix(.1 0 0 -.1 0 76)"/><path d="M.988 72.492h6v.602h-6zm0-72h6v.602h-6zm0 0" style="stroke:none;fill-rule:nonzero;fill:#000;fill-opacity:1"/><path d="m40 31.602 71.992 65.468 71.992 54.532 72.032 46.171 71.992 39.532L400 271.602l72.031 30 71.953 26.484 72.032 23.516 71.992 21.054L760 391.602l72.031 17.148 71.992 15.586 71.993 14.219 71.992 13.047 72.031 11.992 71.992 11.094 71.992 10.234 71.993 9.531 71.992 8.867 72.031 8.282 71.992 7.734 71.992 7.266 71.993 6.836 71.992 6.406 72.031 6.054 71.992 5.704 71.992 5.43 71.993 5.116 71.992 4.844 72.031 4.61 71.992 4.414 71.992 4.18 71.993 3.945 72.03 3.828 71.993 3.633 71.992 3.476 71.992 3.32 72.032 3.204 71.992 3.046 71.992 2.97 71.992 2.812 71.992 2.734 72.032 2.617 71.992 2.5 71.992 2.422 71.992 2.344 71.992 2.226 72.032 2.188 71.992 2.11 71.992 2.03 71.992 1.954 72.032 1.914 71.992 1.836 71.992 1.797 71.992 1.757 71.992 1.68 72.032 1.602 143.984 3.125 71.992 1.484" style="fill:none;stroke-width:7.9701;stroke-linecap:butt;stroke-linejoin:miter;stroke:#000;stroke-opacity:1;stroke-miterlimit:10" transform="matrix(.1 0 0 -.1 0 76)"/></svg>