<svg xmlns="http://www.w3.org/2000/svg" xmlns:xlink="http://www.w3.org/1999/xlink" width="376" height="55pt" viewBox="0 0 282 55"><defs><symbol id="a" overflow="visible"><path d="M6.016-2.406v-.578H.64v.578zm0 0" style="stroke:none"/></symbol><symbol id="b" overflow="visible"><path d="M4.625-2.047c0-.797-.375-1.234-1.5-1.75.906-.625 1.219-1.031 1.219-1.64 0-.86-.703-1.438-1.766-1.438-1.187 0-2.047.766-2.047 1.813 0 .671.266 1.062 1.14 1.625-.405.187-.577.296-.796.5-.375.39-.578.828-.578 1.359C.297-.562 1.125.203 2.25.203c1.297 0 2.375-1.016 2.375-2.25m-.781.406c0 .844-.64 1.5-1.438 1.5C1.562-.14 1-.734 1-1.67c0-.72.297-1.173 1.031-1.626l.797.36c.625.28 1.016.765 1.016 1.296zm-.172-3.687c0 .578-.25.969-.906 1.375l-.547-.266c-.625-.312-.938-.703-.938-1.203 0-.656.469-1.11 1.188-1.11s1.203.485 1.203 1.204m0 0" style="stroke:none"/></symbol><symbol id="c" overflow="visible"><path d="M4.672-2.188c0-1.14-.688-1.89-1.75-1.89-.594 0-.953.234-1.61.781.204-1.812 1.047-2.781 2.829-3.328v-.078l-.36-.172c-.953.328-1.375.531-1.875.969C.875-5.046.313-3.828.313-2.47c0 1.656.796 2.672 2.093 2.672s2.266-1.031 2.266-2.39m-.86.36c0 1.031-.515 1.703-1.28 1.703-.845 0-1.313-.734-1.313-2.063 0-.359.047-.546.156-.718.219-.328.688-.578 1.172-.578.75 0 1.265.656 1.265 1.656m0 0" style="stroke:none"/></symbol><symbol id="d" overflow="visible"><path d="M4.703.031v-.297l-.469-.03c-.5-.032-.609-.157-.609-.766v-.735c.594 0 .797 0 1.078.031v-.703s-.484.031-.812.031h-.266v-1.39c0-1.781.031-2.625.078-3.047l-.125-.047-.734.266L.016-2.031l.109.234h2.672v.734c0 .61-.11.75-.61.766l-.609.031v.297C2.11.016 2.641 0 3.188 0c.5 0 1.015.016 1.515.031M2.797-2.438H.64l2.156-3.515zm0 0" style="stroke:none"/></symbol><symbol id="e" overflow="visible"><path d="M4.672.031C4.64-.172 4.64-.28 4.64-.422c0-.125 0-.219.03-.453l-3.452.11L3.03-2.688C4-3.72 4.297-4.266 4.297-5.017c0-1.14-.781-1.859-2.047-1.859-.719 0-1.203.203-1.688.703l-.171 1.36h.28l.141-.47c.157-.577.516-.812 1.188-.812.844 0 1.406.532 1.406 1.375 0 .75-.422 1.485-1.547 2.688L.156-.234V.03C.891.016 1.641 0 2.375 0c.766 0 1.531.016 2.297.031m0 0" style="stroke:none"/></symbol><symbol id="f" overflow="visible"><path d="M4.64-3.656c0-2.172-.656-3.219-2.015-3.219-1.547 0-2.328 1.234-2.328 3.64 0 1.172.203 2.172.547 2.672.36.485.906.766 1.531.766 1.5 0 2.266-1.297 2.266-3.86zm-.843.5c0 2.125-.375 3-1.297 3-.969 0-1.375-1-1.375-3.438 0-2.094.375-2.922 1.313-2.922.968 0 1.359.97 1.359 3.36m0 0" style="stroke:none"/></symbol><symbol id="g" overflow="visible"><path d="M4.172.031v-.297l-.516-.03C3.094-.329 3-.439 3-.954v-5.922l-.14-.047c-.641.344-1.36.64-2.266.953l.078.438h.094c.437-.203.875-.407 1.312-.594.063 0 .078.094.078.328v4.844c0 .515-.11.625-.64.656l-.563.031V.03C1.5.016 2.047 0 2.61 0c.516 0 1.047.016 1.563.031zm0 0" style="stroke:none"/></symbol></defs><path d="M111.25 363.594 190 255.586m0 0 157.5 216.016m0 0L505 255.586m0 0 157.5 216.016m0 0L820 255.586m0 0 157.5 216.016m0 0L1135 255.586m0 0 157.54 216.016m0 0 157.5-216.016m0 0 157.5 216.016m0 0 157.5-216.016m0 0 157.5 216.016m0 0 157.5-216.016m0 0 157.5 216.016m0 0 157.5-216.016m0 0 157.5 216.016m0 0 157.5-216.016m78.75 108.008-78.75-108.008" style="fill:none;stroke-width:7.9701;stroke-linecap:butt;stroke-linejoin:miter;stroke:#000;stroke-opacity:1;stroke-miterlimit:10" transform="matrix(.1 0 0 -.1 0 55)"/><path d="M190 255.586h2520.04" style="fill:none;stroke-width:3.985;stroke-linecap:butt;stroke-linejoin:miter;stroke:#000;stroke-opacity:1;stroke-miterlimit:10" transform="matrix(.1 0 0 -.1 0 55)"/><path d="M18.746 29.453h.602v6h-.602zm31.5 0h.602v6h-.602zm31.504 0h.602v6h-.602zm31.5 0h.602v6h-.602zm31.5 0h.602v6h-.602zm31.5 0h.602v6h-.602zm31.5 0h.602v6h-.602zm31.5 0h.602v6h-.602zm31.5 0h.602v6h-.602zm0 0" style="stroke:none;fill-rule:nonzero;fill:#000;fill-opacity:1"/><use xlink:href="#a" x="13.12" y="44.251" style="fill:#000;fill-opacity:1"/><use xlink:href="#b" x="19.84" y="44.251" style="fill:#000;fill-opacity:1"/><use xlink:href="#a" x="44.62" y="44.251" style="fill:#000;fill-opacity:1"/><use xlink:href="#c" x="51.34" y="44.251" style="fill:#000;fill-opacity:1"/><use xlink:href="#a" x="76.121" y="44.371" style="fill:#000;fill-opacity:1"/><use xlink:href="#d" x="82.841" y="44.371" style="fill:#000;fill-opacity:1"/><use xlink:href="#a" x="107.621" y="44.251" style="fill:#000;fill-opacity:1"/><use xlink:href="#e" x="114.341" y="44.251" style="fill:#000;fill-opacity:1"/><use xlink:href="#f" x="142.482" y="44.251" style="fill:#000;fill-opacity:1"/><use xlink:href="#e" x="173.982" y="44.251" style="fill:#000;fill-opacity:1"/><use xlink:href="#d" x="205.482" y="44.371" style="fill:#000;fill-opacity:1"/><use xlink:href="#c" x="236.983" y="44.251" style="fill:#000;fill-opacity:1"/><use xlink:href="#b" x="268.483" y="44.251" style="fill:#000;fill-opacity:1"/><path d="M190 255.586v216.016" style="fill:none;stroke-width:3.985;stroke-linecap:butt;stroke-linejoin:miter;stroke:#000;stroke-opacity:1;stroke-miterlimit:10" transform="matrix(.1 0 0 -.1 0 55)"/><path d="M12.988 29.094h6v.601h-6zm0-21.602h6v.602h-6zm0 0" style="stroke:none;fill-rule:nonzero;fill:#000;fill-opacity:1"/><use xlink:href="#f" x="5.989" y="32.8" style="fill:#000;fill-opacity:1"/><use xlink:href="#g" x="5.989" y="11.319" style="fill:#000;fill-opacity:1"/></svg>