<svg xmlns="http://www.w3.org/2000/svg" xmlns:xlink="http://www.w3.org/1999/xlink" width="240" height="180" viewBox="0 0 180 135"><defs><symbol id="a" overflow="visible"><path d="m4.86-1.016-.094-.25c-.079.079-.094.079-.157.125-.375.329-.562.438-.734.438q-.188 0-.188-.281c0-.063 0-.094.016-.125l1.11-4.532-.125-.109-.391.219c-.469-.188-.703-.235-1.016-.235-.344 0-.578.063-.906.22-.75.374-1.125.734-1.438 1.312C.422-3.172.047-1.75.047-.781c0 .5.187.906.406.906.25 0 .688-.25 1.14-.625.516-.438.985-1 1.641-1.938L2.891-.921a3 3 0 0 0-.063.61c0 .28.094.437.281.437.266 0 .766-.328 1.75-1.14zM3.811-4.953c-.265 1.281-.484 1.906-.89 2.516-.656 1-1.406 1.734-1.797 1.734-.14 0-.219-.156-.219-.485 0-.765.313-2.093.735-3.078.28-.687.578-.906 1.156-.906.281 0 .5.047 1.015.219m0 0" style="stroke:none"/></symbol><symbol id="b" overflow="visible"><path d="M5.172-4.5c0-.453-.11-.922-.25-1.094-.078-.11-.234-.172-.422-.172-.281 0-.64.094-.969.266-.61.328-1.015.688-1.75 1.625l1.032-4.75-.141-.14c-.625.312-1.063.421-1.922.5l-.047.25h.578c.282 0 .407.093.407.296 0 .078-.016.219-.032.282L.453-.845c-.016.031-.016.078-.016.11 0 .468.579.859 1.235.859.437 0 1.047-.219 1.562-.594 1.157-.81 1.938-2.452 1.938-4.03m-.86.297c0 .766-.25 1.781-.609 2.562-.39.829-.875 1.204-1.515 1.204-.547 0-.844-.266-.844-.766 0-.297.047-.64.156-1.078.219-.953.516-1.531.984-2.031.391-.407 1.016-.75 1.36-.75.312 0 .469.265.469.859zm0 0" style="stroke:none"/></symbol><symbol id="c" overflow="visible"><path d="m5.86-5.656-.141-.11c-.344.141-.61.204-.875.235l-.422 1.578c-.14.562-.563 1.437-.953 2.015-.422.61-1 1.141-1.266 1.141-.265 0-.25-.578-.234-.734l.187-2.313c.016-.375.047-.828.047-1.172 0-.53-.094-.75-.297-.75-.156 0-.312.094-.89.485L.03-4.61l.14.203.595-.344c.062-.063.218-.156.296-.156.313 0 .266.61.25.812L1.11-1.187l-.015.468c0 .5.218.844.515.844.454 0 1.454-1.016 2.344-2.36L3.375-.187c-.61 2.11-1.219 2.985-2.047 2.985a.737.737 0 0 1-.75-.735c0-.062.016-.156.031-.265L.484 1.75l-.562.406c-.016.078-.016.156-.016.203 0 .516.438.938.985.938 1.265 0 2.578-1.485 3.28-3.688zm0 0" style="stroke:none"/></symbol><symbol id="e" overflow="visible"><path d="M4.938-8.61c-.204-.093-.547-.156-.844-.156a1.1 1.1 0 0 0-.407.094c-.296.125-1.265.86-1.546 1.14-.266.266-.407.626-.532 1.298l-.187.953a10 10 0 0 1-1.031.437l-.063.266h.969l-.11.672C.829-1.578.391.64.125 1.469c-.219.703-.563 1.078-1 1.078-.266 0-.422-.078-.625-.344l-.156.047c-.047.266-.219.844-.282.953a.9.9 0 0 0 .422.094c.485 0 1.141-.375 1.594-.938.735-.859.985-1.671 1.875-5.89.063-.297.156-.656.219-1.047h1.25c.047-.234.125-.5.203-.672l-.047-.078-.094.016c-.28.093-.406.093-1 .093h-.187l.25-1.343c.187-1.032.531-1.485 1.078-1.485.36 0 .672.188.86.469l.124-.047zm0 0" style="stroke:none"/></symbol><symbol id="g" overflow="visible"><path d="m5.36-.938-.094-.234c-.438.36-.735.531-.922.531C4.156-.64 4-.75 3.89-.984a4.8 4.8 0 0 1-.313-1.032l-.203-1.203.422-.578c.547-.781.875-1.062 1.25-1.062.187 0 .328.109.39.28l.172-.046.172-1.016c-.14-.078-.25-.125-.36-.125-.468 0-.952.438-1.687 1.532l-.453.656-.062-.563c-.14-1.187-.469-1.625-1.172-1.625-.313 0-.578.094-.688.25l-.687 1 .203.11c.36-.407.594-.563.828-.563.39 0 .656.485.86 1.657l.124.75-.468.734C1.703-1.031 1.297-.641.953-.641.781-.64.641-.687.625-.75l-.14-.344-.235.047c0 .234-.016.39-.094.766-.031.156-.031.187-.047.265.172.094.375.141.516.141.39 0 .86-.344 1.234-.906l.907-1.39.125.827C3.062-.328 3.328.125 3.75.125c.266 0 .656-.203 1.031-.547zm0 0" style="stroke:none"/></symbol><symbol id="i" overflow="visible"><path d="m5.953-5.11-.031-.062c-.344.078-.578.11-1.219.11-.203-.313-.312-.422-.61-.547a2.5 2.5 0 0 0-.812-.157c-.484 0-1.078.235-1.61.625C1-4.64.657-3.937.657-3.094c0 .922.531 1.469 1.453 1.469.11 0 .235 0 .36-.016l-.485.454c-.187.187-.328.406-.328.562 0 .125.094.25.25.39C1 .079.641.25.188.626a1.64 1.64 0 0 0-.625 1.281c0 .844.828 1.39 2.14 1.39 1.531 0 2.89-.858 2.89-1.843 0-.437-.25-.875-.765-1.281L3.11-.422c-.406-.312-.562-.547-.562-.766 0-.109.078-.234.25-.468.031-.047.047-.047.078-.094 1.172-.281 2.016-1.281 2.016-2.344 0-.11 0-.203-.032-.39l-.015-.032h.406c.203 0 .313-.015.594-.046zM3.797 1.845c0 .625-.828 1.125-1.813 1.125C1 2.97.328 2.47.328 1.735c0-.453.203-.875.594-1.203.312-.25.578-.36 1.187-.547l.922.704c.547.437.766.765.766 1.156m.234-5.922c0 1.234-.578 2.062-1.406 2.062-.734 0-1.125-.484-1.125-1.421 0-1.141.61-1.922 1.484-1.922.704 0 1.047.437 1.047 1.28zm0 0" style="stroke:none"/></symbol><symbol id="d" overflow="visible"><path d="M.781-4.14H7.22v-.72H.78zm0 2.53H7.22v-.702H.78zm0 0" style="stroke:none"/></symbol><symbol id="f" overflow="visible"><path d="M3.64-9.031C1.813-7.844.72-5.797.72-3.234c0 2.343 1.14 4.578 2.875 5.78l.156-.202C2.094.906 1.812-.484 1.812-3.281c0-2.781.313-4.219 1.938-5.547zm0 0" style="stroke:none"/></symbol><symbol id="h" overflow="visible"><path d="m.5-9.031-.125.203C2.015-7.5 2.328-6.063 2.328-3.281c0 2.797-.281 4.187-1.953 5.625l.156.203c1.75-1.203 2.89-3.438 2.89-5.781 0-2.563-1.108-4.61-2.921-5.797m0 0" style="stroke:none"/></symbol></defs><path d="m25.715 79.598 6.43.215 6.425.601 6.43.934 6.43 1.215 6.43 1.433 6.425 1.602 6.43 1.715 6.43 1.765 6.425 1.77 6.43 1.71 6.43 1.602 6.43 1.438 6.425 1.21 6.43.934 6.43.602 6.425.215 6.434-.23 6.426-.735 6.43-1.285 6.43-1.899V20.352l-6.43-.786-6.43-.398-6.426-.063-6.434.211-6.425.438-6.43.598-6.43.714-6.426.77-6.43.766-6.429.714-6.43.598-6.425.438-6.43.214-6.43-.066-6.426-.398-6.43-.786L45 22.086l-6.43-1.734-6.425-2.286-6.43-2.898z" style="stroke:none;fill-rule:nonzero;fill:#ccc;fill-opacity:1"/><path d="m257.148 554.023 64.297-2.148 64.258-6.016L450 536.523l64.297-12.148 64.297-14.336 64.258-16.016 64.296-17.148 64.297-17.656 64.258-17.696L900 424.414l64.297-16.016 64.297-14.375 64.258-12.109 64.296-9.336 64.297-6.015 64.258-2.149 64.336 2.305 64.258 7.344 64.297 12.851 64.297 18.984v740.586l-64.297 7.852-64.297 3.984-64.258.625-64.336-2.11-64.258-4.374-64.297-5.977-64.296-7.148-64.258-7.695-64.297-7.657-64.297-7.148-64.297-5.977-64.258-4.375-64.297-2.148-64.296.664-64.258 3.984-64.297 7.852L450 1129.14l-64.297 17.343-64.258 22.852-64.297 28.984zm0 0" style="fill:none;stroke-width:3.985;stroke-linecap:butt;stroke-linejoin:miter;stroke:#000;stroke-opacity:1;stroke-miterlimit:10" transform="matrix(.1 0 0 -.1 0 135)"/><path d="M257.148 554.023v644.297M1542.89 405.898v740.586M257.148 554.023l64.297-2.148 64.258-6.016L450 536.523l64.297-12.148 64.297-14.336 64.258-16.016 64.296-17.148 64.297-17.656 64.258-17.696L900 424.414l64.297-16.016 64.297-14.375 64.258-12.109 64.296-9.336 64.297-6.015 64.258-2.149 64.336 2.305 64.258 7.344 64.297 12.851 64.297 18.984M257.148 1198.32l64.297-28.984 64.258-22.852L450 1129.141l64.297-12.305 64.297-7.852 64.258-3.984 64.296-.664 64.297 2.148 64.258 4.375 64.297 5.977 64.297 7.148 64.297 7.657 64.258 7.695 64.296 7.148 64.297 5.977 64.258 4.375 64.336 2.11 64.258-.626 64.297-3.984 64.297-7.852" style="fill:none;stroke-width:7.9701;stroke-linecap:butt;stroke-linejoin:miter;stroke:#000;stroke-opacity:1;stroke-miterlimit:10" transform="matrix(.1 0 0 -.1 0 135)"/><path d="M385.703 545.86v600.624m128.594-622.109v592.46m128.555-622.812V1105m128.593-645.781v647.265M900 424.414v692.422m128.594-722.813v737.618m128.554-759.063v773.906m128.555-782.07v792.422m128.594-782.773v784.257M0 176.328h1800.04M64.297 35.586v1296.016M257.148 228.164v-103.71m1285.742 103.71v-103.71" style="fill:none;stroke-width:3.985;stroke-linecap:butt;stroke-linejoin:miter;stroke:#000;stroke-opacity:1;stroke-miterlimit:10" transform="matrix(.1 0 0 -.1 0 135)"/><use xlink:href="#a" x="22.955" y="131.32" style="fill:#000;fill-opacity:1"/><use xlink:href="#b" x="151.288" y="131.32" style="fill:#000;fill-opacity:1"/><use xlink:href="#c" x="29.829" y="101.31" style="fill:#000;fill-opacity:1"/><use xlink:href="#d" x="39.789" y="101.31" style="fill:#000;fill-opacity:1"/><use xlink:href="#e" x="52.869" y="101.31" style="fill:#000;fill-opacity:1"/><use xlink:href="#f" x="58.389" y="101.31" style="fill:#000;fill-opacity:1"/><use xlink:href="#g" x="62.829" y="101.31" style="fill:#000;fill-opacity:1"/><use xlink:href="#h" x="69.429" y="101.31" style="fill:#000;fill-opacity:1"/><use xlink:href="#c" x="106.972" y="11.069" style="fill:#000;fill-opacity:1"/><use xlink:href="#d" x="116.812" y="11.069" style="fill:#000;fill-opacity:1"/><use xlink:href="#i" x="129.052" y="11.069" style="fill:#000;fill-opacity:1"/><use xlink:href="#f" x="135.652" y="11.069" style="fill:#000;fill-opacity:1"/><use xlink:href="#g" x="140.092" y="11.069" style="fill:#000;fill-opacity:1"/><use xlink:href="#h" x="146.692" y="11.069" style="fill:#000;fill-opacity:1"/></svg>