<svg xmlns="http://www.w3.org/2000/svg" xmlns:xlink="http://www.w3.org/1999/xlink" width="348" height="156" viewBox="0 0 261 117"><defs><symbol id="a" overflow="visible"><path d="M4.938-8.61c-.204-.093-.547-.156-.844-.156a1.1 1.1 0 0 0-.407.094c-.296.125-1.265.86-1.546 1.14-.266.266-.407.626-.532 1.298l-.187.953a10 10 0 0 1-1.031.437l-.063.266h.969l-.11.672C.829-1.578.391.64.125 1.469c-.219.703-.563 1.078-1 1.078-.266 0-.422-.078-.625-.344l-.156.047c-.047.266-.219.844-.282.953a.9.9 0 0 0 .422.094c.485 0 1.141-.375 1.594-.938.735-.859.985-1.671 1.875-5.89.063-.297.156-.656.219-1.047h1.25c.047-.234.125-.5.203-.672l-.047-.078-.094.016c-.28.093-.406.093-1 .093h-.187l.25-1.343c.187-1.032.531-1.485 1.078-1.485.36 0 .672.188.86.469l.124-.047zm0 0" style="stroke:none"/></symbol><symbol id="b" overflow="visible"><path d="M7.219-2.875v-.703H.78v.703zm0 0" style="stroke:none"/></symbol><symbol id="d" overflow="visible"><path d="M7.281-2.906v-.672H4.344V-6.5h-.657v2.922H.75v.672h2.938V.03h.656v-2.937zm0 0" style="stroke:none"/></symbol><symbol id="c" overflow="visible"><path d="M5.422-5.047a2.05 2.05 0 0 0-1.563-.719c-2 0-3.687 1.97-3.687 3.907C.172-.5.984.125 2.282.125c.905 0 1.765-.688 2.452-1.219l-.093-.234c-.547.39-1.22.86-1.922.86-.86 0-1.485-.954-1.485-1.72 0-.156.016-.28.032-.437.28-.047.562-.047.843-.047h.688c.36 0 .734 0 1.094.016l.078-.063.172-.422c-.938.016-1.86.016-2.797.016.203-1.047.828-2.11 2.031-2.11.719 0 1 .22 1.328.829h.234zm0 0" style="stroke:none"/></symbol><symbol id="e" overflow="visible"><path d="m4.5-.75-.078-.156-.234.156c-.25.156-.438.266-.532.266-.062 0-.11-.079-.11-.188 0-.031 0-.14.017-.172l.578-2.422c.062-.25.093-.5.093-.64 0-.203-.093-.313-.265-.313-.375 0-.985.328-1.5.813-.328.297-.578.594-1.031 1.234l.328-1.406a1.3 1.3 0 0 0 .062-.36c0-.187-.078-.28-.203-.28-.188 0-.531.187-1.172.64l-.25.172.063.187.28-.187c.329-.219.36-.219.423-.219.094 0 .156.078.156.219 0 .437-.36 2.14-.719 3.39L.47.078a6 6 0 0 1 .61-.14c.171-1.11.359-1.688.75-2.282.484-.734 1.14-1.281 1.53-1.281.094 0 .141.078.141.203 0 .156-.016.344-.094.625l-.453 1.86c-.078.328-.11.53-.11.671 0 .22.095.344.266.344.22 0 .532-.187 1.391-.828zm0 0" style="stroke:none"/></symbol></defs><path d="M352.11 30.82h2253.945" style="fill:none;stroke-width:3.985;stroke-linecap:butt;stroke-linejoin:miter;stroke:#000;stroke-opacity:1;stroke-miterlimit:10" transform="matrix(.1 0 0 -.1 0 117)"/><path d="M34.957 110.934h.602v6h-.602zm225.395 0h.601v6h-.601zm0 0" style="stroke:none;fill-rule:nonzero;fill:#000;fill-opacity:1"/><path d="M352.11 30.82v1130.782" style="fill:none;stroke-width:3.985;stroke-linecap:butt;stroke-linejoin:miter;stroke:#000;stroke-opacity:1;stroke-miterlimit:10" transform="matrix(.1 0 0 -.1 0 117)"/><path d="M32.195 113.57h6v.602h-6zm0-113.082h6v.602h-6zm0 0" style="stroke:none;fill-rule:nonzero;fill:#000;fill-opacity:1"/><path d="m352.11 864.766 56.327-82.422 56.368-73.399 56.328-64.804 56.328-56.563 56.367-48.71 56.367-41.173 56.328-34.101 56.368-27.344 56.328-20.977 56.367-15 56.328-9.375 56.367-4.18 56.328.665 56.368 5.195 56.328 9.258 56.367 13.008 56.367 16.328 56.328 19.336 56.328 21.875 56.368 24.14 56.328 25.938 56.367 27.46 56.367 28.516 56.328 29.22 56.328 29.57 56.367 29.53 56.368 29.102 56.328 28.32 56.367 27.15 56.328 25.546 56.367 23.672 56.328 21.367 56.368 18.711 56.328 15.625 56.367 12.188 56.328 8.398 56.367 4.219 56.367-.39 56.329-5.274 56.367-10.625" style="fill:none;stroke-width:7.9701;stroke-linecap:butt;stroke-linejoin:miter;stroke:#000;stroke-opacity:1;stroke-miterlimit:10" transform="matrix(.1 0 0 -.1 0 117)"/><path d="m352.11 1055.586 11.25-17.227 11.288-17.07 11.25-17.11 11.29-17.304 11.25-17.695 11.289-18.282 11.25-19.062 11.289-20 11.25-21.094 11.289-22.265 11.25-23.633 11.289-25 11.25-26.446 11.25-27.89 11.289-29.297 11.289-30.586 11.25-31.758 11.25-32.773 11.289-33.438 11.25-33.867 11.289-33.945 11.29-33.555 11.25-32.812 11.288-31.524 11.25-29.687 11.29-27.422 11.25-24.57 11.288-21.25 11.25-17.462 11.29-13.242 11.25-8.75 11.288-3.945 11.25.938 11.29 5.898 11.25 10.664 11.25 15.234 11.288 19.297 11.29 22.89 11.25 25.665 11.289 27.695 11.25 28.711 11.289 28.711 11.25 27.617 11.289 25.43 11.25 22.148 11.289 17.813 11.25 12.578 11.289 6.602 11.25.078 11.289-6.758 11.289-13.711 11.25-20.39 11.25-26.524 11.29-31.875 11.25-36.133 11.288-39.062 11.25-40.43 11.29-40.156 11.25-38.125 11.288-34.336 11.25-28.906 11.29-22.07 11.25-13.985 11.288-5.04 11.25 4.376 11.29 13.828 11.25 22.773 11.289 30.86 11.289 37.5 11.25 42.46 11.25 45.274 11.289 45.781 11.25 43.907 11.289 39.609 11.25 33.125 11.289 24.726 11.25 14.883 11.289 4.102 11.25-7.031 11.289-17.696 11.25-27.422 11.289-35.39 11.25-41.133 11.289-44.18 11.29-44.257 11.25-41.25 11.25-35.313 11.288-26.64 11.29-15.82 11.25-3.438 11.25 9.57 11.288 22.5 11.25 34.336 11.29 44.258 11.25 51.484 11.288 55.43 11.25 55.742 11.29 52.344 11.289 45.351 11.25 35.196 11.25 22.578 11.289 8.476 11.25-6.133 11.289-20.039 11.25-32.187 11.289-41.524 11.289-47.265 11.25-48.75 11.25-45.899 11.289-38.71 11.289-27.774 11.25-13.906 11.289 1.836 11.25 18.125 11.289 33.515 11.25 46.68 11.29 56.484 11.25 61.875 11.25 62.344 11.288 57.774 11.29 48.437 11.25 35.04 11.25 18.788 11.288 1.211 11.25-16.172 11.29-31.719 11.288-43.828 11.25-51.328 11.29-53.36 11.25-49.687 11.289-40.508 11.25-26.601 11.289-9.375 11.25 9.61 11.289 28.437 11.25 45.117 11.289 57.93 11.25 65.508 11.289 66.953 11.25 61.914 11.25 50.937 11.289 35 11.289 15.703 11.25-4.883 11.289-24.57 11.25-41.21 11.25-52.891L2020 749.609l11.29-56.601 11.25-48.047 11.288-33.36 11.25-14.18 11.29 7.306 11.25 28.75 11.288 47.578 11.25 61.562 11.29 68.985 11.25 68.828 11.288 60.976 11.25 46.25 11.29 26.328 11.25 3.477 11.289-19.531 11.25-39.883 11.289-55.078 11.25-63.086 11.289-62.93 11.25-54.375 11.289-38.515 11.25-17.266 11.289 6.797 11.25 30.508 11.289 50.78 11.25 65 11.289 71.095 11.25 68.164 11.289 56.445 11.25 37.344 11.289 13.36 11.25-12.462 11.29-36.64 11.25-55.82 11.288-67.423 11.25-69.687 11.29-62.266 11.25-46.094 11.288-23.242 11.25 3.008 11.29 29.102 11.288 51.172 11.25 66.015 11.25 71.485 11.29 66.523 11.25 51.68 11.289 29.101 11.25 1.797 11.289-26.21 11.25-50.821 11.289-68.36 11.289-76.21M352.11 1076.797l14.062-20.625M394.336 1015l14.101-20.625m.001 0 14.101-18.32m28.164-36.719 14.102-18.36m0 .001 14.062-16.211m28.203-32.383 14.063-16.211m0 0 14.101-14.14m28.164-28.282 14.063-14.14m-.001 0 14.102-12.188m28.204-24.336 14.062-12.188m0 0 14.102-10.273m28.164-20.585 14.101-10.313m0 0 14.063-8.516m28.202-17.071 14.063-8.515m0 0 14.102-6.836m28.165-13.672 14.1-6.836m0 0 14.063-5.234m28.203-10.507 14.063-5.235m0 0 14.101-3.75m28.164-7.5 14.102-3.75m0 0 14.101-2.344m28.165-4.727 14.062-2.343m0-.001 14.102-1.015m28.164-2.109 14.101-1.016m0 0 14.063.156m28.203.352 14.062.156m.001 0 14.1 1.29m28.165 2.616 14.102 1.29m0 0 14.062 2.304m28.203 4.649 14.063 2.304m0 0 14.101 3.242m28.164 6.485 14.102 3.281m0 0 14.062 4.063m28.204 8.164 14.101 4.101m.001 0 14.062 4.844m28.203 9.648 14.062 4.844m0 .001 14.102 5.468m28.164 10.937 14.062 5.47m0-.001 14.102 6.016m28.163 12.11 14.102 6.015m.001 0 14.101 6.484m28.164 12.969 14.063 6.523m-.001 0 14.102 6.836m28.164 13.711 14.102 6.875m0 0 14.101 7.11m28.164 14.257 14.102 7.149m0 0 14.063 7.304m28.164 14.61 14.101 7.304m0 .001 14.102 7.382m28.164 14.805 14.062 7.383m0 0 14.102 7.383m28.203 14.765 14.062 7.383m0 .001 14.102 7.265m28.164 14.57 14.102 7.266m0-.001 14.062 7.07m28.164 14.142 14.102 7.109m0-.001 14.101 6.798m28.165 13.555 14.1 6.796m0 .001 14.063 6.367m28.204 12.813 14.062 6.366m.001 0 14.1 5.938m28.165 11.836 14.101 5.898m0 0 14.102 5.352m28.164 10.703 14.062 5.312m0 0 14.102 4.688m28.164 9.336 14.102 4.648m0 0 14.101 3.906m28.164 7.852 14.063 3.906m0 0 14.101 3.047m28.164 6.094 14.102 3.047m0 0 14.101 2.11m28.165 4.179 14.062 2.11m0-.001 14.102 1.055m28.163 2.07 14.102 1.055m0 0 14.063-.078m28.203-.156 14.101-.118m.001 0 14.062-1.328m28.164-2.657 14.102-1.288m0 0 14.101-2.656m28.164-5.313 14.102-2.656M352.11 652.734l14.062-20.586m28.164-41.21 14.101-20.625m.001 0 14.101-18.32m28.164-36.72 14.102-18.359m0 0 14.062-16.21m28.203-32.384 14.063-16.21m0 0 14.101-14.141m28.164-28.281 14.063-14.141m-.001 0 14.102-12.149m28.204-24.375 14.062-12.148m0 0 14.102-10.313m28.164-20.585 14.101-10.313m0 0 14.063-8.516m28.202-17.031 14.063-8.555m0 .001 14.102-6.836m28.165-13.672 14.1-6.836m0 0 14.063-5.235m28.203-10.507 14.063-5.235m0 0 14.101-3.75m28.164-7.5 14.102-3.75m0 0 14.101-2.344m28.165-4.688 14.062-2.343m0 0 14.102-1.054m28.164-2.071 14.101-1.054m0 0 14.063.156m28.203.351 14.062.196m.001-.001 14.1 1.29m28.165 2.578 14.102 1.289m0 0 14.062 2.305m28.203 4.648 14.063 2.305m0 0 14.101 3.242m28.164 6.523 14.102 3.243m0 0 14.062 4.062m28.204 8.203 14.101 4.063m.001-.001 14.062 4.844m28.203 9.649 14.062 4.844m0 0 14.102 5.468m28.164 10.938 14.062 5.469m0 0 14.102 6.054m28.163 12.071 14.102 6.015m.001 0 14.101 6.485m28.164 13.007 14.063 6.446m-.001 0 14.102 6.875m28.164 13.711 14.102 6.875m0-.001 14.101 7.15m28.164 14.257 14.102 7.11m0-.001 14.063 7.305m28.164 14.609 14.101 7.305m0 0 14.102 7.422m28.164 14.766 14.062 7.382m0 0 14.102 7.383m28.203 14.766 14.062 7.383m0 0 14.102 7.265m28.164 14.571 14.102 7.265m0 0 14.062 7.07m28.164 14.18 14.102 7.07m0 0 14.101 6.758m28.165 13.594 14.1 6.797m0 0 14.063 6.367m28.204 12.813 14.062 6.406m.001 0 14.1 5.898m28.165 11.836 14.101 5.899m0 0 14.102 5.351m28.164 10.703 14.062 5.313m0 0 14.102 4.687m28.164 9.336 14.102 4.688m0 0 14.101 3.906m28.164 7.813 14.063 3.906m0 0 14.101 3.047m28.164 6.094 14.102 3.046m0 0 14.101 2.11m28.165 4.179 14.062 2.11m0 0 14.102 1.054m28.163 2.071 14.102 1.093m0 0 14.063-.117m28.203-.156 14.101-.078m.001 0 14.062-1.328m28.164-2.656 14.102-1.329m0 .001 14.101-2.657m28.164-5.313 14.102-2.656" style="fill:none;stroke-width:3.985;stroke-linecap:butt;stroke-linejoin:miter;stroke:#000;stroke-opacity:1;stroke-miterlimit:10" transform="matrix(.1 0 0 -.1 0 117)"/><use xlink:href="#a" x="2.616" y="54.365" style="fill:#000;fill-opacity:1"/><use xlink:href="#b" x="10.776" y="54.365" style="fill:#000;fill-opacity:1"/><use xlink:href="#c" x="21.816" y="54.365" style="fill:#000;fill-opacity:1"/><use xlink:href="#a" x="22.176" y="33.162" style="fill:#000;fill-opacity:1"/><use xlink:href="#a" x="2.616" y="11.96" style="fill:#000;fill-opacity:1"/><use xlink:href="#d" x="10.776" y="11.96" style="fill:#000;fill-opacity:1"/><use xlink:href="#c" x="21.816" y="11.96" style="fill:#000;fill-opacity:1"/><use xlink:href="#a" x="119.653" y="21.148" style="fill:#000;fill-opacity:1"/><use xlink:href="#e" x="123.133" y="22.948" style="fill:#000;fill-opacity:1"/><path d="m1178.516 984.922-225.391-468.79" style="fill:none;stroke-width:3.985;stroke-linecap:butt;stroke-linejoin:miter;stroke:#000;stroke-opacity:1;stroke-miterlimit:10" transform="matrix(.1 0 0 -.1 0 117)"/><path d="m95.668 64.645 1.86-7.313-2.216 8.055 4.91-6.758z" style="stroke:none;fill-rule:nonzero;fill:#000;fill-opacity:1"/><path d="m956.68 523.555 18.593 73.125-22.148-80.547 49.102 67.578zm0 0" style="fill:none;stroke-width:3.985;stroke-linecap:butt;stroke-linejoin:miter;stroke:#000;stroke-opacity:1;stroke-miterlimit:10" transform="matrix(.1 0 0 -.1 0 117)"/></svg>