<svg xmlns="http://www.w3.org/2000/svg" xmlns:xlink="http://www.w3.org/1999/xlink" width="376" height="188" viewBox="0 0 282 141"><defs><symbol id="a" overflow="visible"><path d="M6.016-2.406v-.578H.64v.578zm0 0" style="stroke:none"/></symbol><symbol id="b" overflow="visible"><path d="M4.172.031v-.297l-.516-.03C3.094-.329 3-.439 3-.954v-5.922l-.14-.047c-.641.344-1.36.64-2.266.953l.078.438h.094c.437-.203.875-.407 1.312-.594.063 0 .078.094.078.328v4.844c0 .515-.11.625-.64.656l-.563.031V.03C1.5.016 2.047 0 2.61 0c.516 0 1.047.016 1.563.031zm0 0" style="stroke:none"/></symbol><symbol id="c" overflow="visible"><path d="M4.64-3.656c0-2.172-.656-3.219-2.015-3.219-1.547 0-2.328 1.234-2.328 3.64 0 1.172.203 2.172.547 2.672.36.485.906.766 1.531.766 1.5 0 2.266-1.297 2.266-3.86zm-.843.5c0 2.125-.375 3-1.297 3-.969 0-1.375-1-1.375-3.438 0-2.094.375-2.922 1.313-2.922.968 0 1.359.97 1.359 3.36m0 0" style="stroke:none"/></symbol><symbol id="d" overflow="visible"><path d="M4.672.031C4.64-.172 4.64-.28 4.64-.422c0-.125 0-.219.03-.453l-3.452.11L3.03-2.688C4-3.72 4.297-4.266 4.297-5.017c0-1.14-.781-1.859-2.047-1.859-.719 0-1.203.203-1.688.703l-.171 1.36h.28l.141-.47c.157-.577.516-.812 1.188-.812.844 0 1.406.532 1.406 1.375 0 .75-.422 1.485-1.547 2.688L.156-.234V.03C.891.016 1.641 0 2.375 0c.766 0 1.531.016 2.297.031m0 0" style="stroke:none"/></symbol><symbol id="e" overflow="visible"><path d="M4.61-2.234c0-.485-.204-.891-.563-1.141-.25-.188-.484-.266-.969-.36.797-.609 1.094-1.078 1.094-1.656 0-.89-.75-1.484-1.844-1.484-.687 0-1.125.203-1.61.672L.423-4.97h.312l.188-.547c.11-.343.734-.687 1.25-.687.656 0 1.172.531 1.172 1.156 0 .75-.578 1.375-1.297 1.375-.078 0-.469-.031-.469-.031l-.11.531.063.063c.375-.172.578-.22.844-.22.828 0 1.297.532 1.297 1.438 0 1.016-.594 1.688-1.531 1.688-.454 0-.86-.156-1.157-.438C.735-.86.61-1.095.423-1.626l-.266.094C.36-.921.437-.563.5-.063c.531.188.969.266 1.328.266C3.047.203 4.61-.844 4.61-2.234m0 0" style="stroke:none"/></symbol><symbol id="f" overflow="visible"><path d="M4.703.031v-.297l-.469-.03c-.5-.032-.609-.157-.609-.766v-.735c.594 0 .797 0 1.078.031v-.703s-.484.031-.812.031h-.266v-1.39c0-1.781.031-2.625.078-3.047l-.125-.047-.734.266L.016-2.031l.109.234h2.672v.734c0 .61-.11.75-.61.766l-.609.031v.297C2.11.016 2.641 0 3.188 0c.5 0 1.015.016 1.515.031M2.797-2.438H.64l2.156-3.515zm0 0" style="stroke:none"/></symbol><symbol id="g" overflow="visible"><path d="M4.578-2.516c0-1.14-.812-1.937-1.953-1.937-.469 0-.828.14-1.453.5l.094-2.078 3.046.047.047-.047c-.015-.172-.015-.235-.015-.39 0-.157 0-.22.015-.391l-.046-.063s-1.063.063-1.735.063c-.687 0-1.734-.063-1.734-.063l-.063.063.031 1.359c0 .875-.03 1.797-.062 2.25l.203.047c.469-.469.735-.61 1.219-.61.953 0 1.562.688 1.562 1.766C3.734-.89 3.094-.25 2-.25 1.469-.25.969-.422.828-.688L.375-1.5l-.25.14c.234.563.36.876.5 1.313.266.156.672.25 1.094.25.672 0 1.375-.297 1.937-.766.594-.546.922-1.218.922-1.953m0 0" style="stroke:none"/></symbol><symbol id="h" overflow="visible"><path d="M4.672-2.188c0-1.14-.688-1.89-1.75-1.89-.594 0-.953.234-1.61.781.204-1.812 1.047-2.781 2.829-3.328v-.078l-.36-.172c-.953.328-1.375.531-1.875.969C.875-5.046.313-3.828.313-2.47c0 1.656.796 2.672 2.093 2.672s2.266-1.031 2.266-2.39m-.86.36c0 1.031-.515 1.703-1.28 1.703-.845 0-1.313-.734-1.313-2.063 0-.359.047-.546.156-.718.219-.328.688-.578 1.172-.578.75 0 1.265.656 1.265 1.656m0 0" style="stroke:none"/></symbol></defs><path d="M190 251.602h878.398l7.227.078 7.188.078 7.187.039 7.227.078 14.375.313 7.226.195 7.188.312 7.187.39 7.227.509 7.187.703 7.188.898 7.226 1.172 7.188 1.485 7.187 1.875 7.227 2.421 7.187 2.97 7.188 3.671 7.187 4.57 7.227 5.508 7.187 6.719 7.227 8.047 7.187 9.61 7.188 11.327 7.187 13.243 7.227 15.43 7.188 17.734 7.226 20.312 7.188 22.969 7.187 25.82 7.188 28.79 7.226 31.718 7.188 34.766 7.187 37.656 7.227 40.508 7.187 43.047 7.188 45.351 7.226 47.305 7.188 48.789 7.187 49.726 7.227 50.118 7.187 49.843 7.188 48.907 7.226 47.187 7.188 44.766 7.187 41.562 7.227 37.735 7.187 33.164 7.188 28.046 7.226 22.383 7.188 16.29 7.188 9.882 7.226 3.36 7.188-3.36 7.187-9.883 7.188-16.289 7.226-22.382 7.188-28.047 7.187-33.164 7.227-37.735 7.187-41.562 7.188-44.766 7.226-47.187 7.188-48.907 7.187-49.843 7.227-50.118 7.187-49.726 7.188-48.79 7.226-47.304 7.188-45.351 7.187-43.047 7.227-40.508 7.187-37.656 7.188-34.766 7.226-31.719 7.188-28.789 7.188-25.82 7.226-22.969 7.188-20.312 7.187-17.735 7.188-15.43 7.226-13.242 7.188-11.328 7.187-9.61 7.227-8.046 7.187-6.719 7.188-5.508 7.226-4.57 7.188-3.672 7.187-2.969 7.227-2.421 7.187-1.875 7.188-1.485 7.226-1.172 7.188-.898 7.187-.703 7.227-.508 7.187-.39 7.188-.313 7.226-.196 14.376-.312 7.226-.078 7.188-.04 14.375-.155h158.437m.001 0h720" style="fill:none;stroke-width:3.985;stroke-linecap:butt;stroke-linejoin:miter;stroke:#ccc;stroke-opacity:1;stroke-miterlimit:10" transform="matrix(.1 0 0 -.1 0 141)"/><path d="M190 251.602h865.078l7.54.078 7.538.039 7.5.039 7.54.078 7.5.117 7.538.117 7.5.196 7.54.273 7.5.352 7.539.507 7.539.625 7.5.82 7.539 1.095 7.5 1.367 7.539 1.797 7.539 2.265 7.5 2.852 7.539 3.554 7.5 4.375 7.539 5.391 7.5 6.563 7.539 7.89 7.5 9.414 7.539 11.172 7.54 13.125 7.5 15.313 7.538 17.695 7.5 20.234 7.54 23.008 7.5 25.86 7.538 28.828 7.5 31.875 7.54 34.921 7.538 37.852 7.5 40.625 7.54 43.203 7.539 45.469 7.5 47.344 7.539 48.71 7.5 49.57 7.539 49.767 7.539 49.257 7.5 48.086 7.5 46.133 7.539 43.399 7.5 39.921 7.539 35.782 7.539 30.898 7.5 25.508 7.539 19.57 7.5 13.282 7.539 6.68h7.54l7.5-6.68 7.538-13.282 7.54-19.57 7.5-25.508 7.538-30.898 7.5-35.782 7.54-39.921 7.5-43.399 7.538-46.133 7.5-48.086 7.54-49.257 7.539-49.766 7.5-49.57 7.539-48.711 7.5-47.344 7.539-45.469 7.539-43.203 7.5-40.625 7.539-37.851 7.5-34.922 7.539-31.875 7.5-28.829 7.539-25.859 7.5-23.008 7.539-20.234 7.539-17.695 7.5-15.313 7.54-13.125 7.5-11.172 7.538-9.414 7.5-7.89 7.54-6.563 7.538-5.39 7.5-4.376 7.54-3.554 7.5-2.852 7.538-2.265 7.54-1.797 7.5-1.368 7.539-1.093 7.5-.82 7.539-.626 7.539-.507 7.5-.352 7.539-.273 7.5-.196 7.539-.117 7.5-.117 7.539-.078 7.5-.04 7.539-.038 7.539-.078h225.664m0 0h639.414" style="fill:none;stroke-width:3.985;stroke-linecap:butt;stroke-linejoin:miter;stroke:#c1c1c1;stroke-opacity:1;stroke-miterlimit:10" transform="matrix(.1 0 0 -.1 0 141)"/><path d="M190 251.602h858.398l7.852.078 7.89.039 7.891.078 7.852.078 7.89.156 7.852.156 7.89.235 7.891.312 7.852.43 7.89.586 7.852.742 7.89 1.016 7.891 1.289 7.852 1.68 7.89 2.148 7.852 2.695 7.89 3.399 7.852 4.219 7.89 5.195 7.891 6.406 7.852 7.695 7.89 9.22 7.891 11.015 7.852 12.969 7.89 15.195 7.852 17.578 7.89 20.156 7.891 22.969 7.852 25.86 7.89 28.906 7.891 31.953 7.852 35.039 7.89 37.968 7.852 40.782 7.89 43.32 7.852 45.547 7.89 47.305 7.852 48.593 15.781 98.594 7.891 48.633 7.852 47.148 7.89 44.922 7.852 41.914 7.89 38.125 7.852 33.672 7.89 28.477 7.891 22.812 7.852 16.64 7.89 10.118 7.891 3.399 7.852-3.399 7.851-10.117 7.89-16.64 7.891-22.813 7.852-28.477 7.89-33.672 7.891-38.125 7.852-41.914 7.89-44.922 7.891-47.148 7.852-48.633 7.89-49.297 7.852-49.297 7.89-48.593 7.852-47.305 7.89-45.547 7.891-43.32 7.852-40.782 7.89-37.968 7.891-35.04 7.852-31.952 7.851-28.907 7.89-25.86 7.891-22.968 7.852-20.156 7.89-17.578 7.891-15.195 7.852-12.97 7.89-11.015 7.891-9.219 7.852-7.695 7.89-6.406 7.852-5.195 7.89-4.22 7.852-3.398 7.89-2.695 7.891-2.148 7.852-1.68 7.89-1.29 7.891-1.015 7.852-.742 7.89-.586 7.852-.43 7.89-.312 7.852-.234 15.781-.313 7.852-.078 7.89-.078 7.891-.04 7.852-.077h307.148m.001 0h551.25" style="fill:none;stroke-width:3.985;stroke-linecap:butt;stroke-linejoin:miter;stroke:#b7b7b7;stroke-opacity:1;stroke-miterlimit:10" transform="matrix(.1 0 0 -.1 0 141)"/><path d="M190 251.602h842.773l8.282.078 8.242.039 8.281.039 8.242.078 8.243.117 8.28.117 8.282.235 8.242.273 8.281.39 8.243.509 8.242.703 8.281.898 8.281 1.211 8.243 1.563 8.28 1.992 8.243 2.578 8.242 3.203 8.281 4.063 8.282 5 8.242 6.171 8.281 7.5 8.242 9.063 8.282 10.781 8.242 12.813 8.28 15 8.243 17.46 8.281 20.079 8.243 22.89 8.28 25.86 8.243 28.867 8.281 32.031 8.242 35.117 8.282 38.047 8.242 40.899 8.281 43.359 8.242 45.547 8.282 47.265 8.28 48.399L1355 830.78l8.281 48.75 8.242 47.813 8.282 46.133 8.242 43.593 8.281 40.274 8.242 36.172 8.282 31.367 8.242 25.937 8.281 19.961 8.242 13.555 8.281 6.836h8.243l8.28-6.836 8.243-13.555 8.281-19.96 8.243-25.938 8.28-31.367 8.243-36.172 8.281-40.274 8.242-43.593 8.282-46.133 8.242-47.813 8.281-48.75 8.242-48.945 8.282-48.399 8.242-47.265 8.28-45.547 8.282-43.36 8.242-40.898 8.243-38.047 8.28-35.117 8.243-32.031 8.281-28.867 8.282-25.86 8.242-22.89 8.242-20.078 8.281-17.461 8.242-15 8.282-12.813 8.28-10.781 8.243-9.063 8.281-7.5 8.242-6.171 8.282-5 8.242-4.063 8.281-3.203 8.242-2.578 8.282-1.992 8.242-1.563 8.281-1.21 8.242-.9 8.281-.702 8.243-.508 8.28-.39 8.243-.274 8.281-.235 8.243-.117 8.28-.117 8.243-.078 8.281-.04 8.242-.038 8.282-.078h388.32m0 .001h454.453" style="fill:none;stroke-width:3.985;stroke-linecap:butt;stroke-linejoin:miter;stroke:#adadad;stroke-opacity:1;stroke-miterlimit:10" transform="matrix(.1 0 0 -.1 0 141)"/><path d="M190 251.602h834.219l8.672.078 8.71.039 8.672.078 8.711.078 8.672.156 8.711.156 8.672.235 8.672.351 8.71.47 8.712.585 8.672.86 8.71 1.093 8.672 1.446 8.711 1.875 8.672 2.382 8.672 3.086 8.711 3.828 8.672 4.805 8.71 5.938 8.673 7.304 8.71 8.79 8.673 10.585 8.671 12.578 8.711 14.805 8.672 17.305 8.711 19.922 8.672 22.773 8.711 25.82 8.672 28.868 8.71 32.03 8.673 35.118 8.71 38.125 8.673 40.899 8.71 43.437 8.672 45.469 8.672 47.11 8.711 48.163 8.672 48.477 8.711 48.086 8.672 46.953 8.71 44.922 8.712 42.11 8.672 38.476 8.671 34.062 8.672 28.945 8.711 23.204 8.711 16.914 8.672 10.351 8.711 3.438 8.672-3.438 8.672-10.351 8.71-16.914 8.673-23.204 8.71-28.945 8.672-34.062 8.711-38.477 8.672-42.11 8.711-44.921 8.672-46.953 8.711-48.086 8.672-48.477 8.71-48.164 8.673-47.11 8.672-45.468 8.71-43.438 8.672-40.898 8.711-38.125 8.672-35.117 8.711-32.031 8.672-28.868 8.672-25.82 8.71-22.773 8.673-19.922 8.71-17.305 8.672-14.805 8.711-12.578 8.672-10.586 8.711-8.789 8.672-7.304 8.711-5.938 8.672-4.805 8.71-3.828 8.673-3.086 8.672-2.382 8.71-1.875 8.672-1.446 8.711-1.094 8.672-.859 8.711-.586 8.672-.469 8.711-.351 8.672-.234 8.71-.157 8.673-.156 8.71-.078 8.672-.078 8.711-.04 8.672-.077h486.602m0 0h347.617" style="fill:none;stroke-width:3.985;stroke-linecap:butt;stroke-linejoin:miter;stroke:#a3a3a3;stroke-opacity:1;stroke-miterlimit:10" transform="matrix(.1 0 0 -.1 0 141)"/><path d="M190 251.602h824.727l18.359.156 9.14.078 9.18.078 9.14.156 9.18.196 9.141.312 9.18.39 9.18.587 9.14.742 9.18.976 9.18 1.329 9.14 1.757 9.18 2.227 9.14 2.851 9.18 3.672 9.14 4.57 9.18 5.704 9.18 7.031 9.14 8.555 9.18 10.351 9.141 12.305 9.18 14.61 9.18 17.03 9.14 19.766 9.18 22.656 9.14 25.665 9.18 28.828 9.18 31.992 9.14 35.117 9.18 38.125 9.14 40.899 9.18 43.359 9.18 45.39 9.14 46.875 9.18 47.774 9.141 47.93 9.18 47.304 9.14 45.899 9.18 43.633 9.18 40.468 9.14 36.524 9.18 31.758 9.14 26.328 9.18 20.273 9.18 13.79 9.14 6.991h9.18l9.141-6.992 9.18-13.789 9.18-20.273 9.14-26.328 9.18-31.758 9.18-36.524 9.14-40.468 9.14-43.633 9.18-45.899 9.14-47.304 9.18-47.93 9.18-47.774 9.14-46.875 9.18-45.39 9.141-43.36 9.18-40.898 9.18-38.125 9.14-35.117 9.18-31.992 9.18-28.828 9.14-25.664 9.18-22.657 9.14-19.765 9.18-17.032 9.18-14.609 9.14-12.305 9.18-10.351 9.14-8.555 9.18-7.031 9.141-5.703 9.18-4.57 9.18-3.673 9.14-2.851 9.18-2.227 9.14-1.757 9.18-1.329 9.14-.976 9.18-.742 9.18-.586 9.14-.39 9.18-.313 9.18-.196 9.14-.156 9.18-.078 9.141-.078 18.36-.156h595.624m.001 0h229.101" style="fill:none;stroke-width:3.985;stroke-linecap:butt;stroke-linejoin:miter;stroke:#999;stroke-opacity:1;stroke-miterlimit:10" transform="matrix(.1 0 0 -.1 0 141)"/><path d="M190 251.602h804.453l9.688.078 9.726.039 9.688.078 9.687.039 19.375.312 9.688.274 9.726.351 9.688.47 9.687.663 9.688.899 9.687 1.21 9.688 1.563 9.687 2.07 9.688 2.696 9.687 3.437 9.727 4.336 9.687 5.469 9.688 6.758 9.687 8.242 9.688 10.039 9.687 12.07 9.688 14.297 9.726 16.836 9.688 19.531 9.687 22.461 9.688 25.508 9.687 28.711 9.688 31.875 9.687 35.078 9.688 38.047 9.726 40.86 9.688 43.203 9.687 45.195 9.688 46.562 9.687 47.305 9.688 47.266 9.687 46.445 9.688 44.688 9.726 42.148 9.688 38.633 9.688 34.375 9.687 29.297 9.688 23.515 9.687 17.266 9.688 10.469 9.726 3.554 9.688-3.554 9.648-10.47 9.727-17.265 9.687-23.515 9.688-29.297 9.687-34.375 9.688-38.633 9.726-42.149 9.688-44.687 9.687-46.445 9.688-47.266 9.687-47.305 9.688-46.562 9.687-45.195 9.688-43.204 9.687-40.859 9.727-38.047 9.687-35.078 9.688-31.875 9.687-28.71 9.688-25.509 9.687-22.46 9.688-19.532 9.687-16.836 9.688-14.297 9.726-12.07 9.688-10.04 9.687-8.241 9.688-6.758 9.687-5.469 9.688-4.336 9.726-3.437 9.649-2.696 9.687-2.07 9.727-1.562 9.687-1.211 9.688-.899 9.687-.664 9.688-.469 9.726-.351 9.688-.274 19.375-.312 9.687-.04 9.688-.077 9.687-.04 9.688-.077h707.578m0 0h96.914" style="fill:none;stroke-width:3.985;stroke-linecap:butt;stroke-linejoin:miter;stroke:#8e8e8e;stroke-opacity:1;stroke-miterlimit:10" transform="matrix(.1 0 0 -.1 0 141)"/><path d="M190 251.602h792.031l10.274.078 10.273.039 10.274.078 10.312.117 10.274.117 10.273.235 10.312.273 10.274.43 10.312.586 10.274.78 10.273 1.095 10.274 1.445 10.273 1.875 10.313 2.5 10.273 3.203 10.274 4.102 10.312 5.156 10.273 6.484 10.274 7.93 10.312 9.727 10.274 11.718 10.273 13.985 10.313 16.523 10.273 19.258 10.274 22.226 10.312 25.313 10.274 28.516 10.312 31.757 10.274 34.961 10.273 37.93 10.312 40.664 10.274 43.047 10.273 44.883 10.274 46.172 10.312 46.68 10.274 46.484 10.273 45.39 10.274 43.36 10.312 40.468 10.274 36.68 10.273 32.031 10.312 26.602 10.274 20.586 10.312 14.023 10.274 7.07h10.273l10.274-7.07 10.273-14.023 10.313-20.586 10.273-26.602 10.313-32.03 10.273-36.68 10.273-40.47 10.313-43.359 10.273-45.39 10.274-46.485 10.312-46.68 10.274-46.171 10.273-44.883 10.274-43.047 10.312-40.664 10.274-37.93 10.312-34.96 10.274-31.758 10.273-28.516 10.312-25.313 10.274-22.226 10.273-19.258 10.274-16.523 10.312-13.985 10.274-11.718 10.273-9.727 10.313-7.93 10.273-6.484 10.274-5.156 10.273-4.102 10.312-3.203 10.274-2.5 10.312-1.875 10.274-1.445 10.273-1.094 10.313-.781 10.273-.586 10.274-.43 10.312-.273 10.274-.235 10.273-.117 10.313-.117 10.273-.078 10.273-.04 10.274-.077h792.031" style="fill:none;stroke-width:3.985;stroke-linecap:butt;stroke-linejoin:miter;stroke:#848484;stroke-opacity:1;stroke-miterlimit:10" transform="matrix(.1 0 0 -.1 0 141)"/><path d="M190 251.602h777.93l10.937.078 10.977.078 10.937.078 10.977.117 10.937.156 10.977.274 10.976.351 10.938.508 10.937.664 10.977.977 10.938 1.289 10.976 1.719 10.938 2.265 10.976 2.969 10.938 3.828 10.976 4.883 10.938 6.133 10.976 7.617 10.938 9.375 10.937 11.367 10.977 13.633 10.976 16.172 10.938 18.906 10.976 21.914 10.938 25.078 10.976 28.281 10.938 31.524 10.938 34.726 10.976 37.735 10.938 40.469 10.976 42.695 10.938 44.531 10.976 45.625 10.977 45.977 10.937 45.508 10.977 44.14 10.937 41.875 10.977 38.594 10.937 34.492 10.938 29.492 10.976 23.79 10.977 17.421 10.938 10.664 10.976 3.594 10.938-3.594 10.937-10.664 10.977-17.422 10.937-23.789 10.977-29.492 10.937-34.492 10.977-38.594 10.937-41.875 10.977-44.14 10.976-45.508 10.938-45.977 10.937-45.625 10.977-44.531 10.937-42.695 10.977-40.47 10.938-37.734 10.976-34.726 10.938-31.524 10.976-28.28 10.938-25.079 10.976-21.914 10.938-18.906 10.976-16.172 10.938-13.633 10.976-11.367 10.938-9.375 10.976-7.617 10.938-6.133 10.937-4.883 10.977-3.828 10.976-2.969 10.938-2.265 10.938-1.72 10.976-1.288 10.977-.977 10.937-.664 10.938-.508 10.976-.351 10.938-.274 10.976-.156 10.977-.117 21.875-.156 10.976-.078h777.93" style="fill:none;stroke-width:3.985;stroke-linecap:butt;stroke-linejoin:miter;stroke:#7a7a7a;stroke-opacity:1;stroke-miterlimit:10" transform="matrix(.1 0 0 -.1 0 141)"/><path d="M190 251.602h761.875l11.719.117 11.718.039 23.438.234 11.719.196 11.718.312 11.72.43 11.718.586 11.719.859 11.718 1.133 11.72 1.523 11.757 2.07 11.719 2.735 11.719 3.555 11.718 4.53 11.72 5.782 11.718 7.266 11.719 8.984 11.718 10.938 11.72 13.242 11.718 15.781 11.719 18.555 11.718 21.523 11.72 24.727 11.718 27.969 11.719 31.25 11.718 34.453 11.72 37.421 11.757 40.118 11.719 42.304 11.718 43.985 11.72 44.96 11.718 45.079 11.719 44.414 11.718 42.734 11.72 40.117 11.718 36.563 11.719 32.07 11.718 26.758 11.72 20.742 11.718 14.14 11.719 7.188h11.718l11.72-7.187 11.757-14.14 11.719-20.743 11.718-26.758 11.68-32.07 11.758-36.563 11.719-40.117 11.718-42.734 11.72-44.414 11.718-45.078 11.719-44.961 11.718-43.985 11.72-42.304 11.718-40.117 11.758-37.422 11.68-34.454 11.718-31.25 11.758-27.968 11.719-24.727 11.718-21.523 11.72-18.555 11.718-15.781 11.719-13.242 11.718-10.938 11.72-8.984 11.718-7.266 11.719-5.781 11.718-4.531 11.72-3.555 11.718-2.734 11.719-2.07 11.718-1.524 11.72-1.133 11.718-.86 11.758-.585 11.719-.43 11.718-.313 11.72-.195 23.437-.234 11.718-.04 11.72-.116h761.874" style="fill:none;stroke-width:3.985;stroke-linecap:butt;stroke-linejoin:miter;stroke:#707070;stroke-opacity:1;stroke-miterlimit:10" transform="matrix(.1 0 0 -.1 0 141)"/><path d="M190 251.602h730.82l12.578.078 12.618.039 12.578.078 12.617.117 12.578.156 12.617.235 12.617.351 12.579.508 12.617.703 12.578.977 12.617 1.367 12.617 1.875 12.578 2.46 12.618 3.243 12.578 4.258 12.617 5.39 12.578 6.875 12.617 8.555 12.578 10.508 12.618 12.773 12.617 15.313 12.578 18.125 12.617 21.094 12.578 24.297 12.617 27.578 12.578 30.86 12.618 34.062 12.617 37.03 12.578 39.61 12.617 41.797 12.578 43.281 12.617 44.102 12.579 44.062 12.617 43.047 12.617 41.133 12.578 38.164 12.617 34.258 12.578 29.453 12.618 23.828 12.578 17.5 12.617 10.703 12.617 3.633 12.578-3.633 12.617-10.703 12.579-17.5 12.617-23.828 12.578-29.453 12.617-34.258 12.578-38.164 12.617-41.133 12.618-43.047 12.578-44.062 12.617-44.102 12.578-43.28 12.617-41.798 12.578-39.61 12.617-37.03 12.579-34.063 12.617-30.86 12.617-27.577 12.578-24.297 12.617-21.094 12.578-18.125 12.618-15.313 12.578-12.773 12.617-10.508 12.617-8.555 12.578-6.875 12.617-5.39 12.579-4.258 12.617-3.242 12.578-2.461 12.617-1.875 12.578-1.367 12.617-.977 12.618-.703 12.578-.508 12.617-.351 12.578-.235 12.617-.156 12.578-.117 12.617-.078 12.579-.04 12.617-.077h730.82" style="fill:none;stroke-width:3.985;stroke-linecap:butt;stroke-linejoin:miter;stroke:#666;stroke-opacity:1;stroke-miterlimit:10" transform="matrix(.1 0 0 -.1 0 141)"/><path d="M190 251.602h708.32l13.633.078 13.633.039 13.594.078 13.633.156 13.632.195 13.633.274 13.594.39 13.633.625 13.633.86 13.593 1.172 13.633 1.64 13.633 2.227 13.633 2.93 13.593 3.906 13.633 5.039 13.633 6.406 13.594 8.086 13.633 10.04 13.632 12.304 13.633 14.765 13.594 17.579 13.633 20.625 13.633 23.789 13.593 27.11 13.633 30.35 13.633 33.555 13.594 36.485 13.633 39.023 13.632 41.055 13.633 42.422 13.633 43.047 13.594 42.734 13.633 41.523 13.632 39.22 13.633 35.976 13.594 31.718 13.633 26.602 13.633 20.664 13.593 14.14 13.633 7.188h13.633l13.633-7.187 13.593-14.14 13.633-20.665 13.633-26.602 13.594-31.718 13.633-35.977 13.632-39.219 13.594-41.523 13.633-42.734 13.633-43.047 13.633-42.422 13.632-41.055 13.594-39.023 13.633-36.485 13.594-33.554 13.633-30.352 13.632-27.11 13.633-23.788 13.633-20.625 13.594-17.579 13.633-14.765 13.593-12.305 13.633-10.039 13.633-8.086 13.633-6.406 13.594-5.04 13.632-3.905 13.633-2.93 13.633-2.227 13.594-1.64 13.633-1.172 13.593-.86 13.633-.625 13.633-.39 13.633-.274 13.633-.195 13.593-.156 13.633-.078 13.633-.04 13.633-.077h708.32" style="fill:none;stroke-width:3.985;stroke-linecap:butt;stroke-linejoin:miter;stroke:#5b5b5b;stroke-opacity:1;stroke-miterlimit:10" transform="matrix(.1 0 0 -.1 0 141)"/><path d="M190 251.602h681.875l14.844.078 14.804.078 14.844.078 14.805.156 14.844.196 14.804.351 14.844.508 14.805.703 14.843 1.016 14.805 1.406 14.844 1.992 14.805 2.656 14.843 3.516 14.805 4.648 14.844 5.977 14.804 7.617 14.844 9.492 14.805 11.758 14.844 14.219 14.804 16.992 14.844 20 14.805 23.203 14.844 26.485 14.804 29.765 14.805 32.89 14.844 35.743 14.843 38.242 14.805 40.117 14.844 41.328 14.805 41.758 14.843 41.211 14.805 39.61 14.805 37.07 14.843 33.516 14.805 28.906 14.844 23.476 14.805 17.344 14.843 10.625 14.844 3.555 14.805-3.555 14.843-10.625 14.805-17.344 14.805-23.476 14.844-28.906 14.804-33.516 14.844-37.07 14.805-39.61 14.843-41.21 14.805-41.759 14.844-41.328 14.805-40.117 14.843-38.242 14.805-35.742 14.844-32.89 14.804-29.766 14.844-26.485 14.805-23.203 14.805-20 14.843-16.992 14.805-14.219 14.844-11.758 14.844-9.492 14.804-7.617 14.844-5.977 14.805-4.648 14.804-3.516 14.844-2.656 14.844-1.992 14.805-1.406 14.843-1.016 14.805-.703 14.844-.508 14.804-.351 14.844-.196 14.805-.156 14.805-.078 14.843-.078 14.805-.078h681.914" style="fill:none;stroke-width:3.985;stroke-linecap:butt;stroke-linejoin:miter;stroke:#515151;stroke-opacity:1;stroke-miterlimit:10" transform="matrix(.1 0 0 -.1 0 141)"/><path d="M190 251.602h650.313l16.289.078 16.25.078 16.25.117 16.25.156 16.25.274 16.289.39 16.25.586 16.25.86 16.25 1.21 16.25 1.72 16.289 2.343 16.25 3.203 16.25 4.219 16.25 5.508 16.289 7.11 16.25 8.944 16.25 11.172 16.25 13.555 16.289 16.367 16.25 19.336 16.25 22.5 16.25 25.781 16.25 28.946 16.289 32.07 16.25 34.844 16.25 37.187 16.25 38.946 16.25 39.96 16.289 40.079 16.25 39.297 16.25 37.46 16.25 34.57 16.289 30.665 16.25 25.82 16.25 20.156 16.25 13.79 16.25 7.03h16.25l16.29-7.03 16.25-13.79 16.25-20.156 16.25-25.82 16.25-30.664 16.288-34.57 16.25-37.462 16.25-39.296 16.29-40.078 16.25-39.961 16.25-38.946 16.25-37.187 16.25-34.844 16.25-32.07 16.288-28.946 16.25-25.78 16.25-22.5 16.25-19.337 16.25-16.367 16.29-13.555 16.25-11.172 16.25-8.945 16.288-7.11 16.25-5.507 16.25-4.219 16.25-3.203 16.25-2.344 16.29-1.718 16.25-1.211 16.25-.86 16.25-.586 16.25-.39 16.289-.274 16.25-.156 16.25-.117 32.5-.156h650.351" style="fill:none;stroke-width:3.985;stroke-linecap:butt;stroke-linejoin:miter;stroke:#474747;stroke-opacity:1;stroke-miterlimit:10" transform="matrix(.1 0 0 -.1 0 141)"/><path d="M190 251.602h612.031l17.969.078 36.016.234 18.007.195 18.008.274 17.969.508 18.008.703 18.008 1.015 18.007 1.485 18.008 2.07 17.969 2.813 18.008 3.867 18.008 5.039 18.007 6.562 18.008 8.399L1090 295.352l18.008 12.968 18.008 15.625 18.007 18.555 18.008 21.68L1180 389.062l18.008 28.047 18.008 30.977 18.007 33.672 18.008 35.82 18.008 37.383 17.969 38.203 18.008 38.047 18.007 36.953 18.008 34.844 18.008 31.64 17.969 27.5 18.008 22.383 18.007 16.602 18.008 10.195 18.008 3.438 17.969-3.438 18.008-10.195 18.007-16.602 18.008-22.383 18.008-27.5 17.969-31.64 18.008-34.844 18.007-36.953 18.008-38.047 18.008-38.203 17.969-37.383 18.008-35.82 18.007-33.672 18.008-30.977 18.008-28.046 17.969-24.883 18.008-21.68 18.007-18.555 18.008-15.625 18.008-12.968 17.969-10.508 18.008-8.399 18.007-6.562 18.008-5.04 18.008-3.866 17.969-2.813 18.008-2.07 18.007-1.485 18.008-1.015 18.008-.703 17.969-.508 18.008-.274 18.007-.195 36.016-.234 17.969-.078h612.031" style="fill:none;stroke-width:3.985;stroke-linecap:butt;stroke-linejoin:miter;stroke:#3d3d3d;stroke-opacity:1;stroke-miterlimit:10" transform="matrix(.1 0 0 -.1 0 141)"/><path d="M190 251.602h564.492l20.156.117 20.157.078 20.156.156 20.156.234 20.156.352 20.157.586 20.195.86 20.156 1.25 20.157 1.796 20.156 2.54 20.156 3.437 20.156 4.648 20.157 6.055 20.156 7.812 20.156 9.922 20.156 12.227 20.196 14.883 20.156 17.734 20.156 20.742 20.156 23.828 20.157 26.836 20.156 29.649 20.156 32.11 20.156 34.062 20.157 35.39 20.156 35.86 20.195 35.43 20.156 34.062 20.157 31.68 20.156 28.203 20.156 23.906 20.156 18.672 20.157 12.851 20.156 6.563h20.195l20.156-6.563 20.157-12.851 20.156-18.672 20.156-23.906 20.156-28.203 20.157-31.68 20.156-34.063 20.156-35.43 20.156-35.859 20.196-35.39 20.156-34.063 20.156-32.11 20.157-29.648 20.156-26.836 20.156-23.828 20.156-20.742 20.157-17.734 20.156-14.883 20.156-12.227 20.156-9.922 20.196-7.812 20.156-6.055 20.156-4.648 20.156-3.438 20.157-2.539 20.156-1.797 20.156-1.25 20.195-.859 20.157-.586 20.156-.351 20.156-.235 20.156-.156 20.157-.078 20.156-.117h564.492" style="fill:none;stroke-width:3.985;stroke-linecap:butt;stroke-linejoin:miter;stroke:#323232;stroke-opacity:1;stroke-miterlimit:10" transform="matrix(.1 0 0 -.1 0 141)"/><path d="M190 251.602h503.984l45.86.234 22.89.156 22.891.274 22.93.468 22.89.743 22.93 1.054 22.89 1.602 22.93 2.226 22.89 3.125 22.93 4.258 22.891 5.664 22.93 7.305 22.89 9.297 22.93 11.601 22.89 14.102 22.93 16.797 22.891 19.687 22.93 22.578 22.89 25.352 22.93 27.89 22.89 30.079 22.93 31.68 22.891 32.656 22.93 32.812 22.89 32.07 22.93 30.391 22.89 27.774 22.93 24.18 22.891 19.804 22.89 14.687 22.93 9.024 22.93 3.047 22.89-3.047 22.93-9.024 22.891-14.687 22.89-19.805 22.93-24.18 22.89-27.773 22.93-30.39 22.891-32.07 22.93-32.813 22.89-32.657 22.93-31.68 22.89-30.077 22.93-27.891 22.891-25.352 22.89-22.578 22.93-19.687 22.93-16.797 22.89-14.102 22.93-11.601 22.891-9.297 22.89-7.305 22.93-5.664 22.93-4.258 22.89-3.125 22.891-2.226 22.93-1.602 22.89-1.054 22.93-.743 22.891-.468 22.93-.274 22.89-.156 22.93-.117 22.89-.117h504.024" style="fill:none;stroke-width:3.985;stroke-linecap:butt;stroke-linejoin:miter;stroke:#282828;stroke-opacity:1;stroke-miterlimit:10" transform="matrix(.1 0 0 -.1 0 141)"/><path d="M190 251.602h424.414l26.524.156 26.523.117 26.523.234 26.563.352 26.523.664 26.524.938 26.523 1.445 26.524 2.07 26.523 2.93 26.524 4.023 26.523 5.352 26.523 6.992 26.524 8.906 26.523 11.016 26.524 13.36 26.562 15.898 26.524 18.476 26.523 21.016 26.524 23.398 26.523 25.547 26.523 27.227 26.524 28.398 26.523 28.867 26.524 28.594 26.523 27.578 26.524 25.625 26.562 22.89 26.524 19.376 26.484 15.195 26.562 10.43 26.524 5.312h26.523l26.524-5.312 26.523-10.43 26.524-15.195 26.523-19.375 26.563-22.89 26.484-25.626 26.562-27.578 26.524-28.594 26.523-28.867 26.524-28.398 26.523-27.227 26.524-25.547 26.523-23.398 26.523-21.016 26.524-18.476 26.523-15.899 26.563-13.36 26.484-11.015 26.524-8.906 26.562-6.992 26.524-5.352 26.523-4.023 26.523-2.93 26.524-2.07 26.523-1.446 26.524-.937 26.523-.664 26.524-.352 26.523-.234 26.523-.117 26.524-.156h424.453" style="fill:none;stroke-width:3.985;stroke-linecap:butt;stroke-linejoin:miter;stroke:#1e1e1e;stroke-opacity:1;stroke-miterlimit:10" transform="matrix(.1 0 0 -.1 0 141)"/><path d="M190 251.602h283.516l31.484.078 31.484.117 31.524.195 31.523.352 31.485.625 31.484.976 31.484 1.485 31.524 2.187 31.523 3.047 31.485 4.18L820 270.352l31.523 7.07 31.485 8.828 31.523 10.781 31.485 12.813 31.484 14.922 31.523 16.992 31.485 18.906 31.523 20.625 31.485 21.992L1135 426.25l31.523 23.438 31.485 23.32 31.523 22.578 31.485 21.25 31.523 19.258 31.484 16.68 31.485 13.593 31.523 10 31.485 6.172 31.523 2.07 31.484-2.07 31.485-6.172 31.523-10 31.485-13.594 31.523-16.68 31.484-19.257 31.485-21.25 31.523-22.578 31.485-23.32 31.523-23.438 31.484-22.969 31.485-21.992 31.523-20.625 31.485-18.906 31.523-16.992 31.484-14.922 31.485-12.813 31.523-10.781 31.485-8.828 31.523-7.07 31.484-5.508 31.485-4.18 31.523-3.047 31.485-2.187 31.523-1.485 31.484-.976 31.485-.625 31.523-.352 31.485-.195 31.523-.117 31.484-.078h283.516" style="fill:none;stroke-width:3.985;stroke-linecap:butt;stroke-linejoin:miter;stroke:#141414;stroke-opacity:1;stroke-miterlimit:10" transform="matrix(.1 0 0 -.1 0 141)"/><path d="M190 251.602h116.328l38.75.156 38.75.312 38.79.547 38.788 1.016 38.75 1.64 38.79 2.344 38.75 3.32 38.75 4.375 38.788 5.586 38.75 6.875 38.79 8.204 38.788 9.609 38.75 10.898 38.79 12.149 38.75 13.281 38.789 14.18 38.75 14.922 38.75 15.39 38.789 15.586 38.789 15.469 38.75 15.117 38.789 14.336 38.75 13.36 38.789 12.03 38.75 10.47 38.789 8.671 38.75 6.68 38.789 4.531 38.75 2.305h38.75l38.79-2.305 38.788-4.531 38.75-6.68 38.79-8.672 38.75-10.468 38.788-12.032 38.75-13.359 38.75-14.336 38.79-15.117 38.788-15.469 38.75-15.586 38.79-15.39 38.75-14.922 38.789-14.18 38.75-13.281 38.789-12.149 38.75-10.898 38.789-9.61 38.75-8.203 38.789-6.875 38.75-5.586 38.789-4.375 38.75-3.32 38.789-2.344 38.75-1.64 38.789-1.016 38.75-.547 38.789-.312 38.75-.156h116.328m-2520.039 0h2520.04" style="fill:none;stroke-width:3.985;stroke-linecap:butt;stroke-linejoin:miter;stroke:#0a0a0a;stroke-opacity:1;stroke-miterlimit:10" transform="matrix(.1 0 0 -.1 0 141)"/><path d="M18.746 115.852h.602v6h-.602zm126.004 0h.602v6h-.602zm126 0h.602v6h-.602zm0 0" style="stroke:none;fill-rule:nonzero;fill:#0a0a0a;fill-opacity:1"/><use xlink:href="#a" x="13.12" y="130.771" style="fill:#000;fill-opacity:1"/><use xlink:href="#b" x="19.84" y="130.771" style="fill:#000;fill-opacity:1"/><use xlink:href="#c" x="142.482" y="130.651" style="fill:#000;fill-opacity:1"/><use xlink:href="#b" x="268.484" y="130.771" style="fill:#000;fill-opacity:1"/><path d="M190 251.602v1080" style="fill:none;stroke-width:3.985;stroke-linecap:butt;stroke-linejoin:miter;stroke:#0a0a0a;stroke-opacity:1;stroke-miterlimit:10" transform="matrix(.1 0 0 -.1 0 141)"/><path d="M12.988 115.492h6v.602h-6zm0-18h6v.602h-6zm0-18h6v.602h-6zm0-18h6v.602h-6zm0-18h6v.602h-6zm0-18h6v.602h-6zm0-18h6v.602h-6zm0 0" style="stroke:none;fill-rule:nonzero;fill:#0a0a0a;fill-opacity:1"/><use xlink:href="#c" x="5.989" y="119.2" style="fill:#000;fill-opacity:1"/><use xlink:href="#b" x="5.989" y="101.32" style="fill:#000;fill-opacity:1"/><use xlink:href="#d" x="5.989" y="83.32" style="fill:#000;fill-opacity:1"/><use xlink:href="#e" x="5.989" y="65.2" style="fill:#000;fill-opacity:1"/><use xlink:href="#f" x="5.989" y="47.319" style="fill:#000;fill-opacity:1"/><use xlink:href="#g" x="5.989" y="29.199" style="fill:#000;fill-opacity:1"/><use xlink:href="#h" x="5.989" y="11.199" style="fill:#000;fill-opacity:1"/></svg>