<svg xmlns="http://www.w3.org/2000/svg" xmlns:xlink="http://www.w3.org/1999/xlink" width="300" height="148pt" viewBox="0 0 225 148"><defs><symbol id="a" overflow="visible"><path d="m5.36-.938-.094-.234c-.438.36-.735.531-.922.531C4.156-.64 4-.75 3.89-.984a4.8 4.8 0 0 1-.313-1.032l-.203-1.203.422-.578c.547-.781.875-1.062 1.25-1.062.187 0 .328.109.39.28l.172-.046.172-1.016c-.14-.078-.25-.125-.36-.125-.468 0-.952.438-1.687 1.532l-.453.656-.062-.563c-.14-1.187-.469-1.625-1.172-1.625-.313 0-.578.094-.688.25l-.687 1 .203.11c.36-.407.594-.563.828-.563.39 0 .656.485.86 1.657l.124.75-.468.734C1.703-1.031 1.297-.641.953-.641.781-.64.641-.687.625-.75l-.14-.344-.235.047c0 .234-.016.39-.094.766-.031.156-.031.187-.047.265.172.094.375.141.516.141.39 0 .86-.344 1.234-.906l.907-1.39.125.827C3.062-.328 3.328.125 3.75.125c.266 0 .656-.203 1.031-.547zm0 0" style="stroke:none"/></symbol><symbol id="b" overflow="visible"><path d="M4.11.031c-.032-.187-.032-.281-.032-.406 0-.11 0-.188.031-.39l-3.046.093 1.609-1.687c.844-.907 1.11-1.391 1.11-2.047 0-1.016-.688-1.64-1.798-1.64-.64 0-1.062.187-1.5.624l-.14 1.188h.25l.11-.407c.14-.5.468-.718 1.046-.718.75 0 1.234.468 1.234 1.218 0 .657-.359 1.297-1.359 2.36L.141-.203V.03C.78.016 1.453 0 2.094 0c.672 0 1.344.016 2.015.031zm0 0" style="stroke:none"/></symbol><symbol id="c" overflow="visible"><path d="M4.14.031v-.265l-.42-.032c-.438-.03-.531-.14-.531-.656v-.672c.515 0 .703.016.953.047v-.625s-.438.031-.72.031h-.233v-1.218c0-1.563.015-2.329.062-2.688l-.11-.031-.64.234L.016-1.78l.093.187h2.344v.672c0 .516-.094.64-.531.656l-.531.032V.03C1.859.016 2.328 0 2.797 0c.453 0 .89.016 1.344.031zM2.454-2.14H.563l1.89-3.093zm0 0" style="stroke:none"/></symbol><symbol id="d" overflow="visible"><path d="M4.11-1.922c0-1-.61-1.656-1.548-1.656-.515 0-.828.203-1.421.672.187-1.578.921-2.438 2.5-2.922v-.063l-.313-.156c-.844.281-1.203.469-1.656.844C.766-4.437.282-3.36.282-2.172.281-.719.983.172 2.108.172c1.141 0 2-.906 2-2.094zm-.766.313c0 .906-.438 1.5-1.125 1.5-.735 0-1.14-.641-1.14-1.813 0-.312.03-.484.124-.625.203-.297.61-.515 1.031-.515.672 0 1.11.578 1.11 1.453m0 0" style="stroke:none"/></symbol><symbol id="e" overflow="visible"><path d="M3.656.031v-.265l-.453-.032c-.484-.03-.562-.125-.562-.578v-5.203l-.125-.031a15 15 0 0 1-1.985.844l.063.375h.078c.39-.188.781-.36 1.156-.516.063 0 .078.078.078.281v4.25c0 .453-.093.547-.578.578l-.484.032V.03C1.328.016 1.813 0 2.28 0c.469 0 .922.016 1.375.031zm0 0" style="stroke:none"/></symbol></defs><path d="M10 31.602h2160.04" style="fill:none;stroke-width:3.985;stroke-linecap:butt;stroke-linejoin:miter;stroke:#000;stroke-opacity:1;stroke-miterlimit:10" transform="matrix(.1 0 0 -.1 0 148)"/><path d="M.746 141.852h.602v6H.746zm108.004 0h.602v6h-.602zm108 0h.602v6h-.602zm0 0" style="stroke:none;fill-rule:nonzero;fill:#000;fill-opacity:1"/><path d="M1090.04 31.602v1440" style="fill:none;stroke-width:3.985;stroke-linecap:butt;stroke-linejoin:miter;stroke:#000;stroke-opacity:1;stroke-miterlimit:10" transform="matrix(.1 0 0 -.1 0 148)"/><path d="M105.988 144.492h6v.602h-6zm0-144.004h6v.602h-6zm0 0" style="stroke:none;fill-rule:nonzero;fill:#000;fill-opacity:1"/><path d="m10 1471.602 14.414-38.125 14.375-37.618 14.414-37.148 14.414-36.602 14.375-36.093 14.414-35.586 14.414-35.078 14.375-34.57 14.414-34.024 14.375-33.555 14.414-33.008 14.415-32.539 14.375-31.992 14.414-31.484 14.414-30.977 14.375-30.469 14.414-29.922 14.375-29.453 14.414-28.945 14.414-28.398 14.375-27.891 14.414-27.422 14.414-26.875 14.375-26.367L370 671.6l14.414-25.351 14.375-24.805 14.414-24.336 14.414-23.789L442.031 550l14.375-22.773 14.414-22.266 14.375-21.758 14.414-21.25 14.375-20.742 14.414-20.234 14.414-19.688 14.375-19.219 14.415-18.672 14.414-18.203 14.375-17.656 14.414-17.148 14.414-16.641 14.375-16.133 14.414-15.586 14.414-15.117 14.375-14.61 14.414-14.062 14.414-13.594L730 191.602l14.414-12.54 14.375-12.03 14.414-11.524 14.414-11.016 14.414-10.508 14.375-9.96 14.414-9.454 14.375-8.984 14.414-8.477 14.414-7.93 14.375-7.382 14.414-6.953 14.415-6.367 14.375-5.899 14.414-5.39 14.414-4.844 14.375-4.375 14.414-3.828 14.414-3.32 14.375-2.813 14.414-2.305 14.414-1.797 14.375-1.289 14.414-.781 14.414-.234 14.375.234 14.414.781 14.375 1.29 14.414 1.796 14.414 2.305 14.375 2.812 14.414 3.32 14.414 3.829 14.375 4.375 14.414 4.843 14.415 5.391 14.374 5.899 14.415 6.367 14.375 6.953 14.414 7.383 14.414 7.93 14.375 8.476 14.414 8.984 14.414 9.453 14.375 9.961 14.414 10.508 14.414 11.016 14.375 11.523 14.414 12.031 14.414 12.54 14.375 13.046 14.414 13.594 14.375 14.063 14.414 14.61 14.414 15.116 14.375 15.586 14.414 16.133 14.414 16.64 14.375 17.15 14.414 17.655 14.415 18.203 14.374 18.672 14.415 19.22 14.375 19.687 14.414 20.234 14.414 20.742 14.375 21.25 14.414 21.758 14.414 22.266L1738.008 550l14.414 23.32 14.414 23.79 14.375 24.335 14.414 24.805 14.414 25.352 14.375 25.859 14.414 26.367 14.375 26.875 14.414 27.422 14.414 27.89 14.375 28.4 14.414 28.944 14.414 29.453 14.375 29.922 14.414 30.47 14.415 30.976 14.374 31.484 14.415 31.992 14.414 32.54 14.375 33.007 14.414 33.555 14.375 34.023 14.414 34.57 14.414 35.079 14.375 35.586 14.414 36.093 14.414 36.602 14.375 37.148 14.414 37.618 14.414 38.125" style="fill:none;stroke-width:7.9701;stroke-linecap:butt;stroke-linejoin:miter;stroke:#000;stroke-opacity:1;stroke-miterlimit:10" transform="matrix(.1 0 0 -.1 0 148)"/><use xlink:href="#a" x="125.082" y="135.6" style="fill:#000;fill-opacity:1"/><use xlink:href="#b" x="131.682" y="131.28" style="fill:#000;fill-opacity:1"/><path d="m10 1471.602 14.414-75.274 14.375-72.265 14.414-69.376 14.414-66.562 14.375-63.79 14.414-61.132 14.414-58.515 14.375-55.977 14.414-53.555 14.375-51.133 14.414-48.867 14.415-46.601 14.375-44.453 14.414-42.344 14.414-40.313 14.375-38.36 14.414-36.444 14.375-34.61 14.414-32.851 14.414-31.133 14.375-29.453 14.414-27.89 14.414-26.329 14.375-24.883L370 316.055l14.414-22.07 14.375-20.782 14.414-19.531 14.414-18.281 14.414-17.149 14.375-16.054 14.414-15 14.375-13.985 14.414-13.008 14.375-12.07 14.414-11.25 14.414-10.39 14.375-9.57 14.415-8.868 14.414-8.164 14.375-7.461 14.414-6.836 14.414-6.25 14.375-5.703 14.414-5.156 14.414-4.688 14.375-4.219 14.414-3.789 14.414-3.398L730 49.375l14.414-2.695 14.375-2.344 14.414-2.07 14.414-1.797 14.414-1.602 14.375-1.328 14.414-1.172 14.375-.976 14.414-.82 14.414-.665 14.375-.547 14.414-.468 14.415-.352 14.375-.273 14.414-.196 14.414-.156 14.375-.117 14.414-.078 14.414-.117h172.773l14.414.117 14.414.078 14.375.117 14.414.156 14.415.196 14.374.273 14.415.352 14.375.468 14.414.547 14.414.664 14.375.82 14.414.977 14.414 1.172 14.375 1.328 14.414 1.602 14.414 1.797 14.375 2.07 14.414 2.344 14.414 2.695 14.375 3.008 14.414 3.398 14.375 3.79 14.414 4.218 14.414 4.688 14.375 5.156 14.414 5.703 14.414 6.25 14.375 6.836 14.414 7.46 14.415 8.165 14.374 8.867 14.415 9.57 14.375 10.391 14.414 11.25 14.414 12.07 14.375 13.008 14.414 13.984 14.414 15 14.375 16.055 14.414 17.149 14.414 18.28 14.375 19.532 14.414 20.781 14.414 22.07 14.375 23.438 14.414 24.883 14.375 26.328 14.414 27.89 14.414 29.454 14.375 31.133 14.414 32.851 14.414 34.61 14.375 36.445 14.414 38.36 14.415 40.312 14.374 42.344 14.415 44.453 14.414 46.601 14.375 48.867 14.414 51.133 14.375 53.555 14.414 55.976 14.414 58.516 14.375 61.133 14.414 63.789 14.414 66.563 14.375 69.374 14.414 72.266 14.414 75.274" style="fill:none;stroke-width:7.9701;stroke-linecap:butt;stroke-linejoin:miter;stroke:#000;stroke-opacity:1;stroke-miterlimit:10" transform="matrix(.1 0 0 -.1 0 148)"/><use xlink:href="#a" x="152.082" y="135.6" style="fill:#000;fill-opacity:1"/><use xlink:href="#c" x="158.682" y="131.28" style="fill:#000;fill-opacity:1"/><path d="m10 1471.602 14.414-111.407 14.375-104.14 14.414-97.266 14.414-90.742 14.375-84.531 14.414-78.75 14.414-73.243 14.375-68.007 14.414-63.164 14.375-58.555 14.414-54.18 14.415-50.156 14.375-46.29 14.414-42.733 14.414-39.336 14.375-36.211 14.414-33.282 14.375-30.507 14.414-27.97 14.414-25.585 14.375-23.32 14.414-21.29 14.414-19.375 14.375-17.578L370 158.008l14.414-14.414 14.375-13.047 14.414-11.719 14.414-10.586 14.414-9.453 14.375-8.477 14.414-7.578 14.375-6.718 14.414-5.977 14.375-5.312 14.414-4.649 14.414-4.101 14.375-3.633 14.415-3.125 14.414-2.735 14.375-2.382 14.414-2.032 14.414-1.797 14.375-1.484 14.414-1.289 14.414-1.094 14.375-.898 14.414-.781 14.414-.625L730 33.594l14.414-.43 14.375-.352 14.414-.312 28.828-.39 14.375-.118 14.414-.117 14.375-.078 14.414-.078 14.414-.04 14.375-.077h403.204l14.414.078 14.414.039 14.375.078 14.414.078 14.414.117 14.375.117 28.828.391 14.375.313 14.414.351 14.414.43 14.375.508 14.414.625 14.375.78 14.414.9 14.414 1.093 14.375 1.29 14.414 1.483 14.414 1.797 14.375 2.032 14.414 2.382 14.415 2.735 14.374 3.125 14.415 3.633 14.375 4.101 14.414 4.649 14.414 5.312 14.375 5.977 14.414 6.718 14.414 7.579 14.375 8.476 14.414 9.453 14.414 10.586 14.375 11.719 14.414 13.047 14.414 14.414 14.375 15.976 14.414 17.578 14.375 19.375 14.414 21.29 14.414 23.32 14.375 25.586 14.414 27.969 14.414 30.507 14.375 33.282 14.414 36.21 14.415 39.337 14.374 42.734 14.415 46.289 14.414 50.156 14.375 54.18 14.414 58.555 14.375 63.164 14.414 68.007 14.414 73.243 14.375 78.75 14.414 84.53 14.414 90.743 14.375 97.266 14.414 104.14 14.414 111.407" style="fill:none;stroke-width:7.9701;stroke-linecap:butt;stroke-linejoin:miter;stroke:#000;stroke-opacity:1;stroke-miterlimit:10" transform="matrix(.1 0 0 -.1 0 148)"/><use xlink:href="#a" x="184.482" y="135.6" style="fill:#000;fill-opacity:1"/><use xlink:href="#d" x="191.082" y="131.28" style="fill:#000;fill-opacity:1"/><path d="m10 1471.602 14.414-278.282L38.79 966.055l14.414-185.04 14.414-150.273 14.375-121.68 14.414-98.164 14.414-79.023 14.375-63.36 14.414-50.663 14.375-40.391 14.414-32.031 14.415-25.352 14.375-20 14.414-15.664 14.414-12.305 14.375-9.53 14.414-7.423 14.375-5.703 14.414-4.414 14.414-3.36 14.375-2.577 14.414-1.914 14.414-1.485 14.375-1.094L370 33.79l14.414-.625 14.375-.43 14.414-.312 14.414-.234 14.414-.196 14.375-.117 14.414-.078 14.375-.078 14.414-.04 14.375-.077h1152.032l14.414.078 14.375.039 28.828.156 14.375.117 14.414.195 14.414.235 14.375.312 14.414.43 14.414.625 14.375.82 14.414 1.094 14.375 1.484 14.414 1.915 14.414 2.578 14.375 3.36 14.414 4.413 14.414 5.703 14.375 7.422 14.414 9.531 14.415 12.305 14.374 15.664 14.415 20 14.414 25.352 14.375 32.03 14.414 40.392 14.375 50.664 14.414 63.359 14.414 79.023 14.375 98.164 14.414 121.68 14.414 150.274 14.375 185.039 14.414 227.265 14.414 278.282" style="fill:none;stroke-width:7.9701;stroke-linecap:butt;stroke-linejoin:miter;stroke:#000;stroke-opacity:1;stroke-miterlimit:10" transform="matrix(.1 0 0 -.1 0 148)"/><use xlink:href="#a" x="201.763" y="137.04" style="fill:#000;fill-opacity:1"/><use xlink:href="#e" x="208.363" y="132.72" style="fill:#000;fill-opacity:1"/><use xlink:href="#d" x="212.803" y="132.72" style="fill:#000;fill-opacity:1"/></svg>